<?xml version="1.0" encoding="utf-8"?>
<!-- Generator: Adobe Illustrator 23.1.0, SVG Export Plug-In . SVG Version: 6.00 Build 0)  -->
<svg version="1.1" id="Layer_1" xmlns="http://www.w3.org/2000/svg" xmlns:xlink="http://www.w3.org/1999/xlink" x="0px" y="0px"
	 viewBox="0 0 30 30" enable-background="new 0 0 30 30" xml:space="preserve">
<g>
	<circle fill="#366796" cx="15" cy="15" r="15"/>
	<path fill="#273B7A" d="M13.784,25.47l4.236,4.226c6.753-1.381,11.853-7.299,11.977-14.431l-9.488-9.477L13.784,25.47z"/>
	<path fill="#FF7F4F" d="M7.304,11.866c0-4.669,3.027-8.454,7.696-8.454c4.669,0,7.696,3.785,7.696,8.454
		c0,4.669-3.027,7.696-7.696,7.696C10.331,19.562,7.304,16.535,7.304,11.866z"/>
	<path fill="#E03A00" d="M22.696,11.866c0-4.663-3.02-8.444-7.679-8.454v16.149C19.676,19.555,22.696,16.53,22.696,11.866z"/>
	<path fill="#FFEDB5" d="M18.835,18.718c0,0-2.624,1.208-2.333,3.452l-0.002-0.039l0.379,2.529c0,0.661-0.582,1.196-1.299,1.196
		h-0.838c-0.718,0-1.299-0.535-1.299-1.196l0.379-2.529c0.127-2.257-2.655-3.413-2.655-3.413L18.835,18.718L18.835,18.718z"/>
	<path fill="#FEE187" d="M18.835,18.718h-3.818v7.138h0.562c0.718,0,1.299-0.535,1.299-1.196l-0.379-2.529l0.002,0.039
		C16.211,19.926,18.835,18.718,18.835,18.718z"/>
</g>
</svg>
