<?xml version="1.0" encoding="utf-8"?>
<!-- Generator: Adobe Illustrator 23.1.0, SVG Export Plug-In . SVG Version: 6.00 Build 0)  -->
<svg version="1.1" id="Layer_1" xmlns="http://www.w3.org/2000/svg" xmlns:xlink="http://www.w3.org/1999/xlink" x="0px" y="0px"
	 viewBox="0 0 1080 510" style="enable-background:new 0 0 1080 510;" xml:space="preserve">
<style type="text/css">
	.st0{fill:#FFF200;}
	.st1{fill:#FFFFFF;}
	.st2{fill:#B0211F;}
	.st3{fill:#CF3839;}
</style>
<g>
	<g>
		<g>
			<g>
				<g>
					<path class="st0" d="M45,83.1c0,0,2.5-10.5,12.4-9.6c0,0,6.4,4.4,24.6,11.2l1.6,2.1c0,0,2.4,4.4,13.1,32.3l30.1,83.5
						c0,0,13.9-0.5,49.1-15.4c0,0,66.7-27.7,95.2-39.4c0,0,22.2-9.5,37.7-7.9c0.1,0.2,11.3,0.2,17.5,9.7c5.3,5.2,3.6,33,3.6,33
						s-3.5-7.6-12.2-9.8c-1-0.1-7.4-0.9-20.7,3.7l-30.5,10.7L231.6,201L192,215.7c0,0-11,3.8-27.4,9.6l-14.1,4.9
						c0,0,20.2,17.5,28.7,24.2c8.5,6.7,45.2,38.7,45.2,38.7l40.9,36.6c0,0,47.9,46.5,48.1,57c0,0,0.9,5-9.6,7.7c0,0-9.9,0.7-18,0
						c-2.1-0.2-3.9-1.3-5.2-2.9c-3.8-4.9-12.2-15.8-15.2-18.8l-23.4-24.3l-32.7-30.7l-44.9-40.5L151,267c0,0,36.2,91,33.9,94.5
						c0,0,1.1,3.1-5.7,6.4c0,0-12.3,5.2-22.8,0.1c0,0-12.2-9.8-19.1-17c-8-8-16.3-16.6-20.7-19.1c-3.1-2.6-13.2-7.7-13.2-7.7
						s-7.3-3.6-8.3,3.8c-0.2,1.4,0.2,2.7,1.4,3.9c0,0-5.8-1.5-10.1-8.8c0,0-6.7-11.7,1.5-20.7c0,0,5.1-7.9,20.6-6.3
						c7.3,1.7,20.7,6.7,32.4,27.3l-26.8-71.5l-6-14.6c0,0-2.6,0-11.3-2.2c0,0-11-1.4-15.1-10.5c0,0-6.5-10.9-0.5-16.5l4.7-1.6l2.6,0
						l6.1,2.3l-21.2-53.2L45,83.1z"/>
				</g>
			</g>
			<g>
				<g>
					<g>
						<path class="st0" d="M353.2,225v44.5H394V225h24.8v115H394v-50.8h-40.8v50.8h-24.8V225H353.2z"/>
					</g>
				</g>
				<g>
					<g>
						<path class="st0" d="M513.8,225v19.6h-44.9V272h39.3v18.2h-39.3v30.2h45.7v19.6h-70.5V225H513.8z"/>
					</g>
				</g>
				<g>
					<g>
						<path class="st0" d="M559,225v95.3h44.9v19.7h-69.7V225H559z"/>
					</g>
				</g>
				<g>
					<g>
						<path class="st0" d="M662,222.4c37.3,0,52.8,23.2,52.8,60.2c0,35-20.2,60.2-52.8,60.2c-35,0-52.8-25.1-52.8-60.2
							C609.3,245.6,629.5,222.4,662,222.4z M662,322c15.8,0,27.1-12.7,27.1-39.4c0-28.1-11.3-39.4-27.1-39.4s-27.1,11.3-27.1,39.4
							C634.9,309.4,647.4,322,662,322z"/>
					</g>
				</g>
				<path class="st1" d="M773.8,225l22,43.6c3.1,6.2,5.1,11,6.4,14.3c1.3-3.3,3.5-7.9,6.9-14.3L832,225h16.3l-39.1,69.7v45.4h-14.3
					v-45.4l-38-69.7H773.8z"/>
				<path class="st1" d="M921.5,340.1l-9.7-28.9h-47.3l-10.2,28.9h-14.6l43.1-115h13.6l40.3,115H921.5z M868.8,299h39l-12.8-38.3
					c-2.5-7.4-4.4-14.5-5.9-20.2c-1.6,5.8-3.9,12.7-6.6,20.2L868.8,299z"/>
				<path class="st1" d="M1003.4,307.5c-4.3-14-10.2-17.1-22.2-17.1c-6.6,0-10,0.2-13.3,0.5v49.1h-14.3V225.4
					c3.3-0.3,15.8-1.3,28.9-1.3c24.3,0,39,8.5,39,30.7c0,14.1-8.2,23.8-18.9,28.6c7.1,3.3,11.3,9.9,14.8,20.9l11,35.8h-15.1
					L1003.4,307.5z M967.9,279.3c3.3,0.3,6.7,0.3,13.3,0.3c14.3,0,25.6-7.6,25.6-23c0-16.6-12.5-20.7-25.6-20.7
					c-6.6,0-10,0.3-13.3,0.7V279.3z"/>
			</g>
			<g>
				<g>
					<path class="st0" d="M367,206c6.6-13.3,14.6-26,23.7-37.9c9-12,19-23.3,29.8-33.9c21.6-21.2,46.1-39.6,72.7-54.7
						c26.6-15.2,55.2-27,85.1-35.1c29.8-8.1,60.9-12.3,91.9-12.3c31.1,0,62.1,4.2,91.9,12.3c29.8,8,58.5,19.9,85.1,35.1
						c26.6,15.1,51.1,33.6,72.7,54.7c10.7,10.6,20.8,21.9,29.8,34c9,12,17.1,24.6,23.6,38c-10.6-10.4-21.4-20.3-32.6-29.4
						c-5.6-4.6-11.3-9-17.1-13.3L915,157c-2.9-2.1-5.9-4-8.9-6.1c-23.8-15.9-48.8-29.3-74.5-40.4c-51.5-22.1-106.5-34.2-161.4-34.3
						c-54.9,0.1-109.9,12.1-161.5,34.2c-25.8,11.1-50.8,24.5-74.5,40.4c-11.9,7.9-23.4,16.5-34.6,25.7
						C388.4,185.7,377.6,195.6,367,206z"/>
				</g>
			</g>
		</g>
	</g>
</g>
<path class="st0" d="M794.9,348.3v56.9h233.8v-56.9H794.9z M870,359.7c-3.7,0.4-4.9,1-5.1,3.6c-0.1,1.8-0.2,4.3-0.2,9.6V396h-2.2
	L838,365.9v14.4c0,5.2,0.2,7.8,0.3,9.4c0.1,2.9,1.6,3.8,5.7,4.1v1.6h-14v-1.6c3.6-0.3,4.9-1.2,5.2-4c0.2-1.8,0.3-4.4,0.3-9.7v-14.7
	c0-1.6-0.1-2.5-1.2-3.8c-1.1-1.4-2.3-1.8-5.1-2.1v-1.6h8.6l24.4,28.9v-14.1c0-5.4-0.1-7.8-0.3-9.5c-0.2-2.6-1.5-3.4-6.1-3.7v-1.6
	H870V359.7z M904.9,395.5h-28v-1.6c5.3-0.4,5.8-0.9,5.8-5.6v-22.7c0-5.1-0.6-5.4-4.9-5.8v-1.6h17.6c5.4,0,7.7-0.1,8.3-0.1
	c0.1,1.4,0.3,5.8,0.5,8.8l-1.7,0.3c-0.5-2-1.1-3.2-1.7-4.4c-0.9-1.9-2.2-2.3-5.7-2.3h-5.5c-1.8,0-1.9,0.2-1.9,1.8v12.7h6.4
	c4.3,0,4.6-0.9,5.3-4.8h1.8V382h-1.8c-0.7-4.1-1.2-4.7-5.3-4.7h-6.3v11.4c0,4,1.3,4.4,4.1,4.4h5.4c3.5,0,4.1-0.5,5.3-2
	c1.1-1.2,2.3-3.6,3.1-5.3l1.7,0.5C907,387.8,905.5,393.7,904.9,395.5z M965.9,359.7c-4,0.6-4.6,1-6.2,5.8
	c-1.9,5.8-6.5,20.4-9.7,30.7h-2c-3-9-6.8-20.1-9.8-28.6c-3.3,9.9-6.7,19.7-9.7,28.6h-1.9c-2.9-9.9-6.2-20.7-9.3-30.7
	c-1.5-4.7-2.1-5.3-5.9-5.7v-1.6h14.2v1.6c-4.3,0.5-4.4,1.1-3.6,4c2.2,7.8,4.5,15.4,6.9,23.5c3.2-9.1,6.6-19.2,9.5-28.6h1.8
	c3.2,9.8,6.4,18.9,9.8,28.6c2.4-7.7,5.7-17.9,7-22.9c0.9-3.3,0.4-4.1-4.5-4.7v-1.6h13.2V359.7z M981.7,396.3c-3.5,0-6.4-1-8.8-1.9
	c-0.5-1.6-1.2-5.5-1.6-8.6l1.8-0.5c1.2,3.9,3.7,8.9,9.7,8.9c4.1,0,6.7-2.9,6.7-6.6c0-4.4-2.4-6.2-7.4-9c-6-3.3-9.4-6-9.4-11.4
	c0-5.1,4.3-10,11.8-10c3.2,0,6.4,0.9,7.6,1.1c0.2,2.1,0.5,4.4,0.9,8.1l-1.8,0.3c-1-3.8-2.6-7.5-8-7.5c-4.5,0-6,3.3-6,6.3
	c0,4,2.5,6,7.3,8.5c6.9,3.6,9.9,6.2,9.9,11.7C994.4,391.7,989.1,396.3,981.7,396.3z"/>
</svg>
