<?xml version="1.0" encoding="utf-8"?>
<!-- Generator: Adobe Illustrator 23.1.0, SVG Export Plug-In . SVG Version: 6.00 Build 0)  -->
<svg version="1.1" id="Layer_1" xmlns="http://www.w3.org/2000/svg" xmlns:xlink="http://www.w3.org/1999/xlink" x="0px" y="0px"
	 viewBox="0 0 1080 510" style="enable-background:new 0 0 1080 510;" xml:space="preserve">
<style type="text/css">
	.st0{fill:#FFF200;}
	.st1{fill:#FFFFFF;}
	.st2{fill:#B0211F;}
	.st3{fill:#CF3839;}
</style>
<g>
	<g>
		<g>
			<g>
				<g>
					<path class="st0" d="M45,83.1c0,0,2.5-10.5,12.4-9.6c0,0,6.4,4.4,24.6,11.2l1.6,2.1c0,0,2.4,4.4,13.1,32.3l30.1,83.5
						c0,0,13.9-0.5,49.1-15.4c0,0,66.7-27.7,95.2-39.4c0,0,22.2-9.5,37.7-7.9c0.1,0.2,11.3,0.2,17.5,9.7c5.3,5.2,3.6,33,3.6,33
						s-3.5-7.6-12.2-9.8c-1-0.1-7.4-0.9-20.7,3.7l-30.5,10.7L231.6,201L192,215.7c0,0-11,3.8-27.4,9.6l-14.1,4.9
						c0,0,20.2,17.5,28.7,24.2c8.5,6.7,45.2,38.7,45.2,38.7l40.9,36.6c0,0,47.9,46.5,48.1,57c0,0,0.9,5-9.6,7.7c0,0-9.9,0.7-18,0
						c-2.1-0.2-3.9-1.3-5.2-2.9c-3.8-4.9-12.2-15.8-15.2-18.8l-23.4-24.3l-32.7-30.7l-44.9-40.5L151,267c0,0,36.2,91,33.9,94.5
						c0,0,1.1,3.1-5.7,6.4c0,0-12.3,5.2-22.8,0.1c0,0-12.2-9.8-19.1-17c-8-8-16.3-16.6-20.7-19.1c-3.1-2.6-13.2-7.7-13.2-7.7
						s-7.3-3.6-8.3,3.8c-0.2,1.4,0.2,2.7,1.4,3.9c0,0-5.8-1.5-10.1-8.8c0,0-6.7-11.7,1.5-20.7c0,0,5.1-7.9,20.6-6.3
						c7.3,1.7,20.7,6.7,32.4,27.3l-26.8-71.5l-6-14.6c0,0-2.6,0-11.3-2.2c0,0-11-1.4-15.1-10.5c0,0-6.5-10.9-0.5-16.5l4.7-1.6l2.6,0
						l6.1,2.3l-21.2-53.2L45,83.1z"/>
				</g>
			</g>
			<g>
				<g>
					<g>
						<path class="st0" d="M353.2,225v44.5H394V225h24.8v115H394v-50.8h-40.8v50.8h-24.8V225H353.2z"/>
					</g>
				</g>
				<g>
					<g>
						<path class="st0" d="M513.8,225v19.6h-44.9V272h39.3v18.2h-39.3v30.2h45.7v19.6h-70.5V225H513.8z"/>
					</g>
				</g>
				<g>
					<g>
						<path class="st0" d="M559,225v95.3h44.9v19.7h-69.7V225H559z"/>
					</g>
				</g>
				<g>
					<g>
						<path class="st0" d="M662,222.4c37.3,0,52.8,23.2,52.8,60.2c0,35-20.2,60.2-52.8,60.2c-35,0-52.8-25.1-52.8-60.2
							C609.3,245.6,629.5,222.4,662,222.4z M662,322c15.8,0,27.1-12.7,27.1-39.4c0-28.1-11.3-39.4-27.1-39.4s-27.1,11.3-27.1,39.4
							C634.9,309.4,647.4,322,662,322z"/>
					</g>
				</g>
				<path class="st1" d="M773.8,225l22,43.6c3.1,6.2,5.1,11,6.4,14.3c1.3-3.3,3.5-7.9,6.9-14.3L832,225h16.3l-39.1,69.7v45.4h-14.3
					v-45.4l-38-69.7H773.8z"/>
				<path class="st1" d="M921.5,340.1l-9.7-28.9h-47.3l-10.2,28.9h-14.6l43.1-115h13.6l40.3,115H921.5z M868.8,299h39l-12.8-38.3
					c-2.5-7.4-4.4-14.5-5.9-20.2c-1.6,5.8-3.9,12.7-6.6,20.2L868.8,299z"/>
				<path class="st1" d="M1003.4,307.5c-4.3-14-10.2-17.1-22.2-17.1c-6.6,0-10,0.2-13.3,0.5v49.1h-14.3V225.4
					c3.3-0.3,15.8-1.3,28.9-1.3c24.3,0,39,8.5,39,30.7c0,14.1-8.2,23.8-18.9,28.6c7.1,3.3,11.3,9.9,14.8,20.9l11,35.8h-15.1
					L1003.4,307.5z M967.9,279.3c3.3,0.3,6.7,0.3,13.3,0.3c14.3,0,25.6-7.6,25.6-23c0-16.6-12.5-20.7-25.6-20.7
					c-6.6,0-10,0.3-13.3,0.7V279.3z"/>
			</g>
			<g>
				<g>
					<path class="st0" d="M367,206c6.6-13.3,14.6-26,23.7-37.9c9-12,19-23.3,29.8-33.9c21.6-21.2,46.1-39.6,72.7-54.7
						c26.6-15.2,55.2-27,85.1-35.1c29.8-8.1,60.9-12.3,91.9-12.3c31.1,0,62.1,4.2,91.9,12.3c29.8,8,58.5,19.9,85.1,35.1
						c26.6,15.1,51.1,33.6,72.7,54.7c10.7,10.6,20.8,21.9,29.8,34c9,12,17.1,24.6,23.6,38c-10.6-10.4-21.4-20.3-32.6-29.4
						c-5.6-4.6-11.3-9-17.1-13.3L915,157c-2.9-2.1-5.9-4-8.9-6.1c-23.8-15.9-48.8-29.3-74.5-40.4c-51.5-22.1-106.5-34.2-161.4-34.3
						c-54.9,0.1-109.9,12.1-161.5,34.2c-25.8,11.1-50.8,24.5-74.5,40.4c-11.9,7.9-23.4,16.5-34.6,25.7
						C388.4,185.7,377.6,195.6,367,206z"/>
				</g>
			</g>
		</g>
	</g>
</g>
<g>
	<path class="st0" d="M832.4,360.7c-6,0-11.4,5-11.4,14.9c0,9.9,5.4,17.2,13,17.2c6.4,0,11.3-4.8,11.3-15
		C845.2,366.6,839.3,360.7,832.4,360.7z"/>
	<path class="st0" d="M794.9,348.3v56.9h233.8v-56.9H794.9z M833.1,394.8c-10.2,0-17.7-7.8-17.7-17.8c0-9.5,6.8-18.3,18-18.3
		c9.1,0,17.2,7,17.2,17.5C850.7,387.7,842.9,394.8,833.1,394.8z M891.1,361c-3.4,0.4-4.5,0.9-4.7,3.4c-0.1,1.7-0.2,3.9-0.2,8.9v21.3
		h-2l-22.8-27.8V380c0,4.8,0.2,7.2,0.3,8.7c0.1,2.7,1.4,3.5,5.3,3.8v1.5h-12.9v-1.5c3.3-0.3,4.6-1.1,4.8-3.7
		c0.2-1.7,0.3-4.1,0.3-8.9v-13.6c0-1.5-0.1-2.3-1.1-3.5c-1-1.3-2.1-1.6-4.7-1.9v-1.5h8l22.5,26.7v-13c0-4.9-0.1-7.2-0.3-8.8
		c-0.2-2.4-1.4-3.1-5.6-3.4v-1.5h13.1V361z M918.2,394h-24.7v-1.5c4.8-0.5,5.3-0.7,5.3-5.3v-21.1c0-4.5-0.5-4.8-4.8-5.2v-1.5h14.3
		v1.5c-4.3,0.4-4.8,0.6-4.8,5.2v21.6c0,3.2,0.4,4,3.5,4c0.1,0,3.9,0.1,4.2,0.1c2.7,0,3.5-0.3,4.7-1.6c1.3-1.4,2.4-3.5,3.2-5.5
		l1.6,0.4C920.3,386.9,918.7,392.4,918.2,394z M937,361c-4.4,0.5-4.8,0.7-4.8,5.3v21.1c0,4.6,0.4,4.7,4.8,5.2v1.5h-14.3v-1.5
		c4.4-0.5,4.8-0.7,4.8-5.2v-21.1c0-4.6-0.4-4.8-4.8-5.3v-1.5H937V361z M977.7,361c-3.4,0.4-4.5,0.9-4.7,3.4
		c-0.1,1.7-0.2,3.9-0.2,8.9v21.3h-2L948,366.7V380c0,4.8,0.2,7.2,0.3,8.7c0.1,2.7,1.4,3.5,5.3,3.8v1.5h-12.9v-1.5
		c3.3-0.3,4.6-1.1,4.8-3.7c0.2-1.7,0.3-4.1,0.3-8.9v-13.6c0-1.5-0.1-2.3-1.1-3.5c-1-1.3-2.1-1.6-4.7-1.9v-1.5h8l22.5,26.7v-13
		c0-4.9-0.1-7.2-0.3-8.8c-0.2-2.4-1.4-3.1-5.6-3.4v-1.5h13.1V361z M1005.8,394H980v-1.5c4.9-0.4,5.3-0.9,5.3-5.2v-21
		c0-4.7-0.6-5-4.6-5.4v-1.5H997c5,0,7.1-0.1,7.7-0.1c0.1,1.3,0.3,5.3,0.5,8.1l-1.6,0.3c-0.5-1.8-1-2.9-1.6-4
		c-0.9-1.8-2.1-2.1-5.3-2.1h-5.1c-1.6,0-1.8,0.2-1.8,1.7v11.8h5.9c4,0,4.3-0.8,4.9-4.4h1.6v11h-1.6c-0.7-3.8-1.1-4.4-4.9-4.4h-5.8
		v10.6c0,3.7,1.2,4,3.8,4.1h4.9c3.2,0,3.8-0.5,4.9-1.9c1-1.1,2.1-3.3,2.9-4.9l1.6,0.4C1007.8,387,1006.3,392.5,1005.8,394z"/>
</g>
</svg>
