<?xml version="1.0" encoding="utf-8"?>
<!-- Generator: Adobe Illustrator 23.1.0, SVG Export Plug-In . SVG Version: 6.00 Build 0)  -->
<svg version="1.1" id="Layer_1" xmlns="http://www.w3.org/2000/svg" xmlns:xlink="http://www.w3.org/1999/xlink" x="0px" y="0px"
	 viewBox="0 0 1080 510" style="enable-background:new 0 0 1080 510;" xml:space="preserve">
<style type="text/css">
	.st0{fill:#FFF200;}
	.st1{fill:#FFFFFF;}
	.st2{fill:#B0211F;}
	.st3{fill:#CF3839;}
</style>
<g>
	<g>
		<g>
			<path class="st0" d="M44.9,83.9c0,0,2.5-10.5,12.4-9.6c0,0,6.4,4.4,24.5,11.2l1.6,2.1c0,0,2.4,4.4,13,32.3l30,83.4
				c0,0,13.9-0.5,49-15.4c0,0,66.7-27.7,95-39.4c0,0,22.1-9.5,37.6-7.9c0.1,0.2,11.3,0.2,17.4,9.7c5.3,5.2,3.6,33,3.6,33
				s-3.5-7.5-12.2-9.8c-1-0.1-7.3-0.9-20.6,3.7l-30.5,10.7l-34.6,13.9l-39.6,14.7c0,0-10.9,3.8-27.4,9.6l-14.1,4.9
				c0,0,20.2,17.5,28.6,24.2c8.5,6.7,45.1,38.6,45.1,38.6l40.9,36.6c0,0,47.8,46.5,48,56.9c0,0,0.9,5-9.6,7.7c0,0-9.8,0.7-17.9,0
				c-2.1-0.2-3.9-1.3-5.2-2.9c-3.8-4.9-12.1-15.8-15.2-18.7L241.6,349l-32.7-30.7L164,277.8l-13.3-10.3c0,0,36.2,90.9,33.9,94.3
				c0,0,1.1,3.1-5.7,6.4c0,0-12.2,5.2-22.8,0.1c0,0-12.2-9.8-19.1-17c-8-8-16.3-16.6-20.7-19.1c-3.1-2.6-13.2-7.7-13.2-7.7
				s-7.3-3.6-8.3,3.8c-0.2,1.4,0.2,2.7,1.4,3.9c0,0-5.8-1.5-10.1-8.8c0,0-6.7-11.7,1.5-20.7c0,0,5.1-7.9,20.6-6.3
				c7.3,1.7,20.7,6.7,32.4,27.3l-26.7-71.4l-6-14.6c0,0-2.6,0-11.3-2.2c0,0-11-1.4-15.1-10.5c0,0-6.4-10.9-0.5-16.5l4.7-1.6l2.6,0
				l6.1,2.3L73.2,156L44.9,83.9z"/>
		</g>
	</g>
	<g>
		<path class="st0" d="M352.7,225.7v44.5h40.7v-44.5h24.8v114.9h-24.8v-50.7h-40.7v50.7H328V225.7H352.7z"/>
		<path class="st0" d="M513.1,225.7v19.5h-44.8v27.4h39.2v18.2h-39.2V321h45.6v19.5h-70.4V225.7H513.1z"/>
		<path class="st0" d="M558.2,225.7v95.2h44.8v19.7h-69.6V225.7H558.2z"/>
		<path class="st0" d="M661.2,223c37.3,0,52.7,23.1,52.7,60.1c0,35-20.2,60.1-52.7,60.1c-35,0-52.7-25.1-52.7-60.1
			C608.5,246.2,628.7,223,661.2,223z M661.2,322.5c15.8,0,27.1-12.6,27.1-39.4c0-28.1-11.3-39.4-27.1-39.4s-27.1,11.3-27.1,39.4
			C634.1,309.9,646.6,322.5,661.2,322.5z"/>
		<path class="st1" d="M772.8,225.7l22,43.5c3.1,6.2,5.1,11,6.4,14.3c1.3-3.3,3.4-7.9,6.9-14.3l22.8-43.5h16.3l-39.1,69.6v45.3
			h-14.3v-45.3l-37.9-69.6H772.8z"/>
		<path class="st1" d="M920.3,340.6l-9.7-28.9h-47.3l-10.2,28.9h-14.6l43-114.9h13.6l40.2,114.9H920.3z M867.6,299.5h38.9
			l-12.8-38.2c-2.5-7.4-4.4-14.4-5.9-20.2c-1.6,5.7-3.9,12.6-6.6,20.2L867.6,299.5z"/>
		<path class="st1" d="M1002.1,308.1c-4.3-14-10.2-17.1-22.2-17.1c-6.6,0-10,0.2-13.3,0.5v49.1h-14.3V226c3.3-0.3,15.8-1.3,28.9-1.3
			c24.3,0,38.9,8.5,38.9,30.7c0,14.1-8.2,23.8-18.9,28.6c7.1,3.3,11.3,9.8,14.8,20.8l11,35.8h-15.1L1002.1,308.1z M966.6,279.8
			c3.3,0.3,6.7,0.3,13.3,0.3c14.3,0,25.6-7.6,25.6-23c0-16.6-12.5-20.7-25.6-20.7c-6.6,0-10,0.3-13.3,0.7V279.8z"/>
	</g>
	<g>
		<g>
			<path class="st0" d="M366.5,206.7c6.5-13.3,14.6-25.9,23.6-37.9c9-12,19-23.3,29.8-33.9c21.6-21.2,46.1-39.6,72.6-54.7
				c26.5-15.2,55.2-27,85-35c29.8-8.1,60.8-12.3,91.8-12.3c31,0,62,4.2,91.8,12.3c29.8,8,58.4,19.9,85,35
				c26.6,15.1,51.1,33.5,72.6,54.7c10.7,10.6,20.8,21.9,29.7,33.9c9,12,17.1,24.6,23.6,37.9c-10.5-10.4-21.3-20.2-32.5-29.4
				c-5.6-4.6-11.3-9-17.1-13.3l-8.7-6.3c-2.9-2-5.9-4-8.8-6c-23.7-15.9-48.7-29.3-74.4-40.4c-51.5-22.1-106.4-34.1-161.2-34.2
				c-54.9,0.1-109.8,12.1-161.3,34.2c-25.7,11.1-50.7,24.5-74.4,40.4c-11.9,7.9-23.4,16.5-34.6,25.6
				C387.8,186.4,377.1,196.2,366.5,206.7z"/>
		</g>
	</g>
</g>
<g>
	<polygon class="st2" points="1023.9,443.6 967.1,477.1 967.1,432.4 	"/>
	<polygon class="st3" points="806.2,443.6 794.1,346.3 1035.1,359.2 1023.9,443.6 	"/>
</g>
<g>
	<path class="st1" d="M872.3,432.5v-52.3h-12.9V364H901v16.2h-12.9v52.3H872.3z"/>
	<path class="st1" d="M935.2,432.5L911.1,364h16.7l11.5,38.3c0.1,0.3,0.3,1.3,0.7,2.9c0.1,0.8,0.3,1.7,0.5,2.7
		c0.2,1.1,0.5,2.2,0.7,3.5c0.2-1,0.4-2,0.6-3c0.2-0.9,0.4-1.8,0.6-2.7c0.4-1.9,0.6-3.1,0.8-3.5l11.5-38.3h16.7l-24.2,68.5H935.2z"/>
</g>
</svg>
