<svg xmlns:cc="http://creativecommons.org/ns#" xmlns:dc="http://purl.org/dc/elements/1.1/" xmlns:rdf="http://www.w3.org/1999/02/22-rdf-syntax-ns#" xmlns:svg="http://www.w3.org/2000/svg" xmlns="http://www.w3.org/2000/svg" xmlns:xlink="http://www.w3.org/1999/xlink" version="1.1" enable-background="new -269 -177 977.662 299.125" xml:space="preserve" width="977.6619873046875" height="299.125" style=""><rect id="backgroundrect" width="100%" height="100%" x="0" y="0" fill="none" stroke="none"/>




<g class="currentLayer" style=""><title>Layer 1</title><g id="g10" class="selected">
	<g id="g12" stroke-width="0">
		<path id="path14" fill="#1D1B17" d="M201.1966292193439,193.2119780226983 c0,-17.471250260341915 11.183125166641549,-17.78437526500784 26.2546253912244,-17.78437526500784 h1.7183750256057828 c14.701500219069422,0 22.7547503390722,2.4748750368785113 22.7547503390722,19.379625288778918 v11.771875175414607 c0,14.163500211052597 -3.653250054437667,20.191000300869344 -23.276500346846877,20.191000300869344 h-3.749375055870041 c-18.618250277433543,0 -23.70187535318546,-5.118250076267868 -23.70187535318546,-19.216875286353755 V193.2119780226983 zM201.1966292193439,230.76722858231517 h0.3028750045131892 c4.620875068856403,6.100875090910122 13.1335001957044,9.25037513784133 23.593750351574272,9.25037513784133 h5.409250080604107 c21.879750326033683,0 37.88850056458265,-5.5711250830162315 37.878750564437354,-30.793125458853318 v-15.39987522947602 c0,-23.34087534780614 -10.304000153541566,-31.64625047156587 -37.19512555425055,-31.64625047156587 h-8.357125124530867 c-11.7441251750011,0 -18.28112527240999,3.9838750593643635 -21.347000318095088,8.290375123536213 h-0.2853750042524189 v-37.305750555898996 h-16.454875245196746 V237.62847868455574 h16.454875245196746 V230.76722858231517 " stroke-width="0"/>
		<path id="path16" fill="#1D1B17" d="M467.8632581929862,164.0324775878899 h-22.09462532923557 v-6.736625100383535 c0,-6.43062509582378 4.215125062810258,-11.606500172950328 13.20150019671768,-11.606500172950328 l16.409125244515018,0.017000000253319745 v-12.549000186994672 l-21.819500325135888,0.005625000083819033 c-13.187750196512788,0 -24.25900036148727,6.864250102285296 -24.25900036148727,24.20125036062673 v6.668250099364669 h-8.859000132009387 V177.25110278486272 h8.859000132009387 V239.98685371969827 h16.46800024539232 v-62.73575093483553 h22.09462532923557 V164.0324775878899 " stroke-width="0"/>
		<path id="path18" fill="#1D1B17" d="M372.7532567757368,215.76460335875862 c0,17.343875258443877 11.07550016503781,24.22225036093965 24.27087536166422,24.22225036093965 h20.434500304497778 v-13.22187519702129 l-16.42112524469383,0.005125000076368453 c-8.974375133728609,0 -11.822250176165253,-4.4918750669341545 -11.822250176165253,-10.928625162849203 v-38.5903755750414 h22.11087532947771 v-13.21862519697286 H389.21525702103975 v-30.875125460075214 H372.76350677588954 v30.875125460075214 H363.9027566438541 V177.25110278486272 h8.860750132035463 L372.7532567757368,215.76460335875862 " stroke-width="0"/>
		<path id="path20" fill="#1D1B17" d="M562.2983846001794,149.87110237686895 h16.45787524524145 v-16.713750249054282 l-16.45787524524145,0.005625000083819033 V149.87110237686895 " stroke-width="0"/>
		<path id="path22" fill="#1D1B17" d="M562.2865096000023,240.00397871995347 h16.4697502454184 v-77.82562615969219 h-16.45787524524145 L562.2865096000023,240.00397871995347 " stroke-width="0"/>
		<path id="path24" fill="#1D1B17" d="M293.06825558833776,191.8618530025799 c0,-14.947500222735107 6.962625103751198,-16.439375244965774 23.943250356782226,-16.439375244965774 l3.326500049568713,0.005125000076368453 c19.102375284647568,0 21.566625321367756,4.807625071639196 21.566625321367756,14.637375218113885 l0.016250000242143875,4.172250062171369 l-48.852500727958976,0.019750000294297944 V191.8618530025799 L293.06825558833776,191.8618530025799 zM311.0132558557391,240.00397871995347 h14.801000220552087 c19.93375029703602,0 29.043125432776286,-6.329875094322488 31.373250467497854,-17.39512525920756 l-14.642000218182801,-4.434625066081062 c-2.429250036198646,6.8185001016035685 -8.29262512356974,8.595875128088519 -21.19412531581707,8.595875128088519 h-3.7990000566095112 c-21.069375313958155,0 -24.49400036498904,-2.6633750396873803 -24.514500365294516,-19.285125287370757 l0.030375000452622782,-0.015375000229105356 h65.30437597311101 v-14.396875214530155 c0,-26.049500388167797 -13.530375201618298,-30.894375460362063 -35.150750523786996,-30.894375460362063 h-8.049875119952485 c-17.114000255018475,0 -37.862875564200806,2.995750044640154 -37.862875564200806,29.504125439645723 V210.0584782737307 C277.3090053535067,235.8102286574617 295.2898806214426,240.01760372015647 311.0132558557391,240.00397871995347 " stroke-width="0"/>
		<path id="path26" fill="#1D1B17" d="M531.2320091372542,216.75235337347723 c0,7.3090001089125884 -5.009750074651093,10.017750149276107 -24.497500365041194,10.017750149276107 h-4.401250065583736 c-16.560375246768817,0 -18.663125278102235,-3.1931250475812707 -18.663125278102235,-9.501625141585246 l0.005875000087544324,-4.104875061167404 c-0.005875000087544324,-7.310750108938664 4.122750061433762,-10.07075015006587 17.83600026577711,-10.07075015006587 h7.3278751091938465 c12.495625186199323,0 22.39112533365376,2.452375036543235 22.39112533365376,10.638000158518553 v3.0215000450238585 H531.2320091372542 zM510.7795088324882,162.17835256026126 h-6.152125091673806 c-22.321875332621858,0 -31.997000476792454,6.869875102369115 -32.623250486124306,17.157625255668535 l15.687875233767555,5.200625077495351 c0.7211250107456001,-7.029250104743988 8.789000130966306,-9.109000135734677 21.022250313255935,-9.109000135734677 c18.191500271074474,0 22.49200033515692,1.0543750157114118 22.49200033515692,14.195625211531295 v7.140750106405466 h-0.3247500048391521 c-4.112500061281025,-5.483125081704929 -9.726375144934282,-6.898875102801249 -23.97875035731122,-6.898875102801249 h-6.432375095849857 c-21.015375313153488,0 -33.251375495484105,5.231875077961012 -33.251375495484105,21.858000325709583 v4.753375070830807 c0.020625000307336456,13.72700020454824 5.2463750781770795,23.527625350588934 27.183875405071305,23.527625350588934 h15.966375237917527 c15.879375236621126,0 17.47025026032701,-2.6061250388342887 20.606250307057053,-7.151875106571243 h0.2563750038202853 v7.13475010631606 h16.445750245060772 v-50.02525074543431 C547.6777593823149,168.17022764954714 533.2091341667157,162.17835256026126 510.7795088324882,162.17835256026126 " stroke-width="0"/>
		<path id="path28" fill="#1D1B17" d="M628.948135593338,162.17835256026126 c-7.308250108901412,0 -14.771125220106914,2.7706250412855296 -19.386875288886948,10.339000154063106 h-0.5921250088233502 v-10.339000154063106 l-15.588750232290476,0.01062500015832484 v77.81500115953385 h16.462000245302914 v-46.823625697726385 c0,-9.446875140769407 5.428375080889091,-17.757875264612956 18.20862527132966,-17.757875264612956 c9.136750136148184,0 13.541500201784073,2.4801250369567427 14.520750216376037,5.0810000757128 l10.364625154444948,-6.992875104201957 C650.3815109127202,166.43060262362474 643.5141358103883,162.17835256026126 628.948135593338,162.17835256026126 " stroke-width="0"/>
		<path id="path30" fill="#1D1B17" d="M154.42975352246316,133.42572713181377 h-42.606000634878875 v21.378625318566336 h-22.770125339301302 l44.07450065676123,51.48687576721422 l44.08887565697543,-51.48687576721422 h-22.787125339554624 V133.42572713181377 " stroke-width="0"/>
		<path id="path32" fill="#1D1B17" d="M32.88000171123073,218.12797839397564 h22.780000339448453 V239.5272287128493 h42.603500634841616 v-21.399250318873673 h22.78125033946708 l-44.070125656696035,-51.470250766966494 L32.88000171123073,218.12797839397564 " stroke-width="0"/>
	</g>
</g><g id="svg_1" class="">
	<g id="svg_2">
		<path d="M36.01725512695313,71.01472961425782 h10.302 c8.083,0 13.538,2.7190000000000003 13.538,10.621 c0,7.593 -5.426,11.142 -13.318,11.142 h-5.931 v14.31 h-4.591 V71.01472961425782 zM45.960255126953115,89.05472961425781 c6.308,0 9.317,-2.286 9.317,-7.4190000000000005 c0,-5.202 -3.2,-6.898 -9.537,-6.898 h-5.133 v14.317 H45.960255126953115 z" id="svg_3"/>
		<path d="M65.03025512695314,88.92072961425781 c0,-11.554 6.358,-18.566 15.418,-18.566 c9.059,0 15.417,7.033 15.417,18.566 c0,11.553 -6.358,18.826 -15.417,18.826 C71.38825512695311,107.74672961425782 65.03025512695314,100.4737296142578 65.03025512695314,88.92072961425781 zM91.12525512695314,88.92072961425781 c0,-8.987 -4.236,-14.53 -10.677,-14.53 c-6.441,0 -10.677,5.543 -10.677,14.53 c0,8.986 4.236,14.791 10.677,14.791 C86.88825512695311,103.71072961425782 91.12525512695314,97.90672961425781 91.12525512695314,88.92072961425781 z" id="svg_4"/>
		<path d="M99.93325512695313,71.01472961425782 h4.741 l3.785,19.639 c0.6970000000000002,3.8760000000000003 1.415,7.753 2.112,11.629 h0.22000000000000003 c0.799,-3.8760000000000003 1.6670000000000003,-7.773 2.535,-11.629 l5.005,-19.639 h4.163 l5.005,19.639 c0.8680000000000001,3.816 1.7360000000000002,7.732 2.604,11.629 h0.22000000000000003 c0.6980000000000002,-3.896 1.346,-7.793 2.043,-11.629 l3.785,-19.639 h4.428 l-7.464,36.073 h-5.521 l-5.458,-21.683 c-0.6190000000000001,-2.818 -1.198,-5.438 -1.7360000000000002,-8.215 h-0.22000000000000003 c-0.558,2.777 -1.186,5.397 -1.8050000000000002,8.215 l-5.348,21.683 h-5.44 L99.93325512695313,71.01472961425782 z" id="svg_5"/>
		<path d="M146.81825512695312,71.01472961425782 h20.792 v3.8850000000000002 h-16.201 v11.303 h13.667 v3.8850000000000002 h-13.667 v13.114 h16.75 v3.8850000000000002 h-21.341 V71.01472961425782 z" id="svg_6"/>
		<path d="M175.78325512695312,71.01472961425782 h11.298 c7.347,0 12.623,2.638 12.623,10.153 c0,7.205 -5.275,10.673 -12.623,10.673 h-6.707 v15.247 h-4.591 V71.01472961425782 zM186.42125512695313,88.1167296142578 c5.613,0 8.704,-2.274 8.704,-6.95 c0,-4.746 -3.09,-6.43 -8.704,-6.43 h-6.047 v13.379 H186.42125512695313 zM186.17625512695312,90.58272961425781 l3.597,-2.375 l11.006,18.88 h-5.203 L186.17625512695312,90.58272961425781 z" id="svg_7"/>
		<path d="M207.0552551269531,71.01472961425782 h20.792 v3.8850000000000002 h-16.201 v11.303 h13.667 v3.8850000000000002 h-13.667 v13.114 h16.75 v3.8850000000000002 H207.0552551269531 V71.01472961425782 z" id="svg_8"/>
		<path d="M236.02025512695312,71.01472961425782 h9.024 c11.091,0 17.038,6.446 17.038,17.906 S256.1352551269531,107.0867296142578 245.24625512695312,107.0867296142578 h-9.227 V71.01472961425782 zM244.70325512695314,103.32372961425781 c8.432,0 12.638,-5.284 12.638,-14.403 s-4.206,-14.143 -12.638,-14.143 h-4.092 v28.545 H244.70325512695314 z" id="svg_9"/>
		<path d="M280.8132551269531,71.01472961425782 h10.708 c7.336,0 12.409,2.494 12.409,8.834 c0,3.564 -1.8970000000000002,6.734 -5.271,7.833 v0.22000000000000003 c4.311,0.8510000000000001 7.337,3.697 7.337,8.632 c0,7.087 -5.611,10.553 -13.653,10.553 H280.8132551269531 V71.01472961425782 zM290.7452551269531,86.3637296142578 c6.135,0 8.675,-2.263 8.675,-5.92 c0,-4.213 -2.888,-5.787 -8.467,-5.787 h-5.55 v11.707 H290.7452551269531 zM291.6822551269531,103.44472961425781 c6.1690000000000005,0 9.803,-2.222 9.803,-7.083 c0,-4.444 -3.496,-6.476 -9.803,-6.476 h-6.279 v13.559 H291.6822551269531 z" id="svg_10"/>
		<path d="M318.97925512695315,93.1077296142578 L308.1372551269531,71.01472961425782 h4.9030000000000005 l4.6530000000000005,10.184 c1.157,2.6590000000000003 2.245,5.167 3.492,7.866 h0.22000000000000003 c1.247,-2.6990000000000003 2.494,-5.207 3.6020000000000003,-7.866 l4.6530000000000005,-10.184 h4.752 L323.5692551269531,93.1077296142578 v13.979 h-4.59 V93.1077296142578 z" id="svg_11"/>
	</g>
</g><g id="svg_12" class="">
	<g id="svg_13">

			<ellipse transform="matrix(0.7071,-0.7071,0.7071,0.7071,187.5217,391.3004) " fill="#FFFFFF" cx="625.6483764648438" cy="280.42095947265625" rx="90.197998046875" ry="90.197998046875" id="svg_14"/>
	</g>
	<linearGradient id="SVGID_1_" x1="4.184464614809258e-7" y1="0.4999995231628418" x2="1.000001072883606" y2="0.4999995231628418" transform="translate(262.1052551269531,177.8947296142578) ">
		<stop offset="0" style="stop-color:#EB5248"/>
		<stop offset="0.0025" style="stop-color:#EB5248"/>
		<stop offset="0.4365" style="stop-color:#E63321"/>
		<stop offset="0.7842" style="stop-color:#E2200A"/>
		<stop offset="1" style="stop-color:#E11901"/>
	</linearGradient>
	<path fill="url(#SVGID_1_)" d="M828.2072551269531,56.98872961425781 c49.815,0 90.198,40.383 90.198,90.198 s-40.383,90.198 -90.198,90.198 c-49.815,0 -90.198,-40.383 -90.198,-90.198 S778.3922551269532,56.98872961425781 828.2072551269531,56.98872961425781 M828.2072551269531,37.78972961425782 c-60.321,0 -109.396,49.075 -109.396,109.396 S767.8862551269531,256.5827296142578 828.2072551269531,256.5827296142578 c60.321,0 109.396,-49.075 109.396,-109.396 S888.5282551269531,37.78972961425782 828.2072551269531,37.78972961425782 L828.2072551269531,37.78972961425782 z" id="svg_15"/>
</g><g id="svg_16" class="">
	<path d="M792.3092551269531,101.7117296142578 v91.326 h-20.717 V144.07472961425782 c0,-7.07 -0.15400000000000003,-11.319 -0.461,-12.749 c-0.30800000000000005,-1.429 -1.154,-2.51 -2.5380000000000003,-3.243 c-1.385,-0.7340000000000001 -4.47,-1.1 -9.256,-1.1 h-2.051 v-10.647 c10.016,-2.371 17.622,-7.246 22.819,-14.624 H792.3092551269531 z" id="svg_17"/>
	<path d="M839.8962551269532,141.22572961425783 c3.042,1.355 5.384,3.378 7.025,6.067 c1.641,2.6900000000000004 2.462,9.096 2.462,19.217 c0,7.376 -0.6500000000000001,12.812 -1.948,16.311 c-1.3,3.499 -3.829,6.368 -7.59,8.607 c-3.761,2.239 -8.803,3.358 -15.128,3.358 c-6.1530000000000005,0 -11.025,-1.073 -14.614,-3.217 c-3.59,-2.144 -6.163,-4.985 -7.718,-8.522 c-1.556,-3.536 -2.333,-9.425 -2.333,-17.666 c0,-5.531 0.38400000000000006,-10.328 1.154,-14.391 c0.7690000000000001,-4.063 3.188,-7.318 7.256,-9.764 c-2.564,-1.352 -4.487,-3.503 -5.769,-6.454 c-1.282,-2.95 -1.923,-6.699 -1.923,-11.246 c0,-7.854 1.982,-13.744 5.948,-17.672 c3.966,-3.927 9.897,-5.891 17.794,-5.891 c9.127,0 15.435,2.086 18.922,6.257 c3.487,4.172 5.231,10.128 5.231,17.869 c0,4.924 -0.5730000000000001,8.476 -1.718,10.654 C845.8012551269532,136.9227296142578 843.4522551269531,139.0837296142578 839.8962551269532,141.22572961425783 zM828.6662551269532,159.58672961425782 c0,-3.497 -0.32600000000000007,-5.819 -0.975,-6.9670000000000005 c-0.6500000000000001,-1.147 -1.6750000000000003,-1.7200000000000002 -3.077,-1.7200000000000002 c-1.368,0 -2.351,0.555 -2.949,1.6640000000000001 c-0.5980000000000001,1.109 -0.8970000000000001,3.451 -0.8970000000000001,7.023 v11.846 c0,3.948 0.3340000000000001,6.487 1,7.615 c0.6660000000000001,1.1280000000000001 1.718,1.6920000000000002 3.153,1.6920000000000002 c1.47,0 2.462,-0.5730000000000001 2.974,-1.7200000000000002 c0.513,-1.147 0.7690000000000001,-3.732 0.7690000000000001,-7.756 V159.58672961425782 zM828.2562551269531,121.62372961425781 c0,-3.083 -0.24800000000000003,-5.123 -0.7430000000000001,-6.12 c-0.49600000000000005,-0.996 -1.445,-1.495 -2.846,-1.495 c-1.367,0 -2.291,0.536 -2.769,1.608 c-0.47900000000000004,1.072 -0.7180000000000001,3.074 -0.7180000000000001,6.008 v6.938 c0,2.745 0.273,4.6450000000000005 0.8210000000000001,5.697 c0.546,1.053 1.469,1.5790000000000002 2.769,1.5790000000000002 c1.367,0 2.29,-0.516 2.769,-1.5510000000000002 c0.47800000000000004,-1.034 0.7180000000000001,-3.168 0.7180000000000001,-6.402 V121.62372961425781 z" id="svg_18"/>
	<path d="M856.1012551269531,140.5777296142578 h18.41 v-20.307 h12.512 v20.307 h18.512 v13.764 h-18.512 v20.194 h-12.512 v-20.194 h-18.41 V140.5777296142578 z" id="svg_19"/>
</g></g></svg>