<svg width="14" height="14" viewBox="0 0 14 14" fill="none" xmlns="http://www.w3.org/2000/svg">
<path d="M11.7322 0H2.26782C1.01535 0 0 1.01535 0 2.26782V11.7322C0 12.9846 1.01535 14 2.26782 14H11.7322C12.9846 14 14 12.9846 14 11.7322V2.26782C14 1.01535 12.9846 0 11.7322 0Z" fill="#000"/>
<path d="M6.38559 10.4529C6.09805 10.4529 5.82066 10.3429 5.61099 10.1443L2.66075 7.35152C2.20883 6.92374 2.18928 6.21056 2.61706 5.75864C3.04484 5.30672 3.75792 5.28707 4.20995 5.71495L6.32065 7.71297L9.72986 3.92063C10.1459 3.45781 10.8583 3.42 11.3211 3.83593C11.7838 4.25196 11.8218 4.96439 11.4057 5.4272L7.22353 10.0794C7.02037 10.3053 6.73465 10.4397 6.43098 10.4519C6.41582 10.4526 6.40065 10.4529 6.38559 10.4529Z" fill="white"/>
</svg>
