<svg width="13" height="13" viewBox="0 0 13 13" fill="none" xmlns="http://www.w3.org/2000/svg">
<path d="M1.08334 13.0001C0.485335 13.0001 0 12.5158 0 11.9167V5.4167C0 4.8187 0.485335 4.33336 1.08334 4.33336C1.68134 4.33336 2.16668 4.8187 2.16668 5.4167V11.9167C2.16668 12.5158 1.68134 13.0001 1.08334 13.0001Z" fill="#75A7F2"/>
<path d="M6.50131 13.0001C5.9033 13.0001 5.41797 12.5158 5.41797 11.9167V1.08334C5.41797 0.485335 5.9033 0 6.50131 0C7.09931 0 7.58464 0.485335 7.58464 1.08334V11.9167C7.58464 12.5158 7.09931 13.0001 6.50131 13.0001Z" fill="#75A7F2"/>
<path d="M11.9154 13.0001C11.3163 13.0001 10.832 12.5158 10.832 11.9167V5.4167C10.832 4.8187 11.3163 4.33336 11.9154 4.33336C12.5145 4.33336 12.9987 4.8187 12.9987 5.4167V11.9167C12.9987 12.5158 12.5145 13.0001 11.9154 13.0001Z" fill="#75A7F2"/>
</svg>
