<svg width="19" height="15" viewBox="0 0 19 15" fill="none" xmlns="http://www.w3.org/2000/svg">
<path d="M16.7147 14.123H6.72417C5.82678 14.123 5.09668 13.3929 5.09668 12.4944C5.09668 11.5971 5.82678 10.867 6.72417 10.867H16.7147C17.6121 10.867 18.3422 11.5971 18.3422 12.4944C18.3422 13.393 17.6121 14.123 16.7147 14.123Z" fill="#707D9B"/>
<path d="M2.28531 14.123C1.38761 14.123 0.657227 13.3927 0.657227 12.495C0.657227 11.5973 1.38761 10.867 2.28531 10.867C3.18301 10.867 3.91335 11.5973 3.91335 12.495C3.91335 13.3927 3.18301 14.123 2.28531 14.123Z" fill="#707D9B"/>
<path d="M2.28531 9.12793C1.38761 9.12793 0.657227 8.39758 0.657227 7.49988C0.657227 6.60218 1.38761 5.87184 2.28531 5.87184C3.18301 5.87184 3.91335 6.60218 3.91335 7.49988C3.91335 8.39758 3.18301 9.12793 2.28531 9.12793Z" fill="#707D9B"/>
<path d="M2.28531 4.1333C1.38761 4.1333 0.657227 3.40295 0.657227 2.50525C0.657227 1.60755 1.38761 0.877207 2.28531 0.877207C3.18301 0.877207 3.91335 1.60755 3.91335 2.50525C3.91335 3.40295 3.18301 4.1333 2.28531 4.1333Z" fill="#707D9B"/>
<path d="M16.7147 9.12793H6.72417C5.82678 9.12793 5.09668 8.39783 5.09668 7.49933C5.09668 6.60194 5.82678 5.87184 6.72417 5.87184H16.7147C17.6121 5.87184 18.3422 6.60194 18.3422 7.49933C18.3422 8.39786 17.6121 9.12793 16.7147 9.12793Z" fill="#707D9B"/>
<path d="M16.7147 4.1333H6.72417C5.82678 4.1333 5.09668 3.4032 5.09668 2.5047C5.09668 1.60731 5.82678 0.877207 6.72417 0.877207H16.7147C17.6121 0.877207 18.3422 1.60731 18.3422 2.5047C18.3422 3.4032 17.6121 4.1333 16.7147 4.1333Z" fill="#707D9B"/>
</svg>
