<svg width="10" height="9" viewBox="0 0 10 9" fill="none" xmlns="http://www.w3.org/2000/svg">
<path id="Vector" d="M1.25395 4.51397C1.13247 4.60921 1.04648 4.68033 0.957753 4.74637C0.702506 4.93559 0.433609 4.89368 0.174267 4.62953C-0.0509508 4.39967 -0.0632354 4.14187 0.168808 3.93868C0.729805 3.44721 1.30036 2.96335 1.86818 2.4795C2.74585 1.73023 3.62625 0.98223 4.50528 0.231689C4.64041 0.116123 4.77554 0.0069072 4.97346 0.000557437C5.16183 -0.00706227 5.30924 0.064055 5.4471 0.175811C6.45581 0.99747 7.46588 1.81786 8.47594 2.63952C8.90454 2.98875 9.33177 3.34053 9.7631 3.68723C9.94464 3.83327 10.0593 4.01106 9.96784 4.22823C9.86274 4.47714 9.67165 4.66509 9.37955 4.73748C9.24305 4.77177 9.15569 4.66636 9.04923 4.61556C8.99463 4.6816 9.01783 4.75018 9.01783 4.8124C9.01647 6.00616 9.01783 7.19991 9.01647 8.39367C9.01647 8.8318 8.84039 8.9969 8.37494 8.99817C7.82486 8.99817 7.27342 8.99944 6.72334 8.99817C6.38346 8.99817 6.22786 8.86228 6.18964 8.5486C6.15688 8.27175 6.17462 7.9949 6.17326 7.71805C6.17053 7.11483 6.1678 6.51287 6.17462 5.90964C6.17599 5.7509 6.1173 5.7001 5.94804 5.70264C5.37203 5.71026 4.79465 5.71153 4.21864 5.70264C4.04256 5.7001 4.00025 5.75725 4.00161 5.91218C4.00844 6.75035 4.00571 7.58852 4.00434 8.42542C4.00434 8.8318 3.8269 8.99817 3.39557 8.99944C2.87143 8.99944 2.34592 9.00071 1.82177 8.99944C1.45187 8.99817 1.25941 8.82037 1.25804 8.47495C1.25668 7.23293 1.25804 5.99092 1.25804 4.74891C1.25804 4.68541 1.25804 4.62064 1.25804 4.51651L1.25395 4.51397Z" fill="white"/>
</svg>
