<?xml version="1.0" encoding="utf-8"?>
<!-- Generator: Adobe Illustrator 23.1.0, SVG Export Plug-In . SVG Version: 6.00 Build 0)  -->
<svg version="1.1" id="Layer_1" xmlns="http://www.w3.org/2000/svg" xmlns:xlink="http://www.w3.org/1999/xlink" x="0px" y="0px"
	 viewBox="0 0 32 32" enable-background="new 0 0 32 32" xml:space="preserve">
<g>
	<path d="M30.078,32H1.922C0.86,32,0,31.14,0,30.078V1.922C0,0.86,0.86,0,1.922,0h28.157C31.14,0,32,0.86,32,1.922v28.157
		C32,31.14,31.14,32,30.078,32z"/>
	<g>
		<linearGradient id="SVGID_1_" gradientUnits="userSpaceOnUse" x1="0.6674" y1="-0.8268" x2="28.0353" y2="26.5411">
			<stop  offset="0" style="stop-color:#FCC32B"/>
			<stop  offset="0.3089" style="stop-color:#FEE882"/>
			<stop  offset="0.6492" style="stop-color:#FCC32B"/>
			<stop  offset="1" style="stop-color:#FEE882"/>
		</linearGradient>
		<path fill="url(#SVGID_1_)" d="M2.996,2.214c0,0,0.225-0.961,1.136-0.878c0,0,0.58,0.398,2.241,1.02L6.52,2.546
			c0,0,0.221,0.404,1.192,2.951l2.745,7.619c0,0,1.268-0.043,4.479-1.406c0,0,6.091-2.531,8.684-3.598c0,0,2.022-0.867,3.436-0.721
			c0.013,0.014,1.029,0.018,1.593,0.886c0.486,0.472,0.331,3.011,0.331,3.011s-0.321-0.689-1.114-0.893
			c-0.095-0.011-0.671-0.086-1.886,0.339l-2.786,0.974l-3.165,1.267l-3.619,1.346c0,0-1,0.35-2.501,0.874l-1.286,0.45
			c0,0,1.843,1.601,2.618,2.212c0.775,0.611,4.121,3.53,4.121,3.53l3.735,3.344c0,0,4.371,4.245,4.385,5.202
			c0,0,0.078,0.454-0.875,0.707c0,0-0.899,0.068-1.638-0.004c-0.188-0.018-0.359-0.116-0.474-0.267
			c-0.345-0.452-1.109-1.442-1.388-1.713l-2.139-2.219l-2.985-2.805l-4.099-3.698l-1.211-0.94c0,0,3.305,8.305,3.094,8.62
			c0,0,0.1,0.286-0.518,0.582c0,0-1.118,0.471-2.082,0.007c0,0-1.114-0.893-1.746-1.554c-0.729-0.734-1.488-1.513-1.893-1.744
			c-0.285-0.235-1.207-0.7-1.207-0.7s-0.669-0.328-0.761,0.346c-0.016,0.126,0.02,0.246,0.125,0.357c0,0-0.529-0.136-0.921-0.8
			c0,0-0.614-1.068,0.14-1.893c0,0,0.468-0.725,1.883-0.578c0.669,0.156,1.891,0.611,2.957,2.494l-2.441-6.523l-0.546-1.332
			c0,0-0.239,0.004-1.032-0.2c0,0-1.007-0.129-1.378-0.961c0,0-0.589-0.997-0.046-1.507l0.429-0.15l0.239-0.004l0.554,0.207
			L5.582,8.807L2.996,2.214z"/>
	</g>
</g>
</svg>
