<svg xmlns="http://www.w3.org/2000/svg" xmlns:xlink="http://www.w3.org/1999/xlink" version="1.1" id="_x31_0" x="0px" y="0px" viewBox="0 0 24 24" enable-background="new 0 0 24 24" xml:space="preserve">
<g>
	<g>
		<path fill="#707d9b" d="M18.79,17.066h-0.015c-0.779-0.26-1.965-1.031-2.284-1.299c-0.087-0.233-0.267-0.862-0.395-1.445    c-0.083-0.358-0.339-0.64-0.666-0.76v-0.301c0.486-0.493,1.016-1.061,1.167-2.153l0.026-0.181c0.395-0.2,0.742-0.569,1.009-1.08    c0.2-0.384,0.873-2.142,0.267-3.079c-0.083-0.124-0.181-0.23-0.294-0.312c0.117-0.617,0.179-1.253,0.177-1.897    c-0.001-0.419-0.054-0.799-0.14-1.15c-0.002-0.01-0.005-0.02-0.008-0.029c-0.038-0.15-0.083-0.294-0.134-0.432    c-0.011-0.031-0.023-0.061-0.035-0.091c-0.046-0.114-0.096-0.224-0.15-0.33c-0.018-0.036-0.036-0.073-0.055-0.108    c-0.055-0.099-0.114-0.194-0.175-0.285c-0.02-0.03-0.039-0.062-0.06-0.091c-0.081-0.113-0.166-0.221-0.255-0.322    c-0.001-0.001-0.002-0.003-0.003-0.004c-0.795-0.898-1.929-1.369-2.929-1.55C11.273-0.297,10.36,0.25,9.543,1.3    C9.216,1.25,8.914,1.273,8.629,1.348H8.628c-0.175,0.048-0.345,0.11-0.505,0.203C7.409,1.966,6.641,2.734,6.55,3.595    C6.445,4.581,6.603,5.59,6.625,6.328c-0.211,0.083-0.391,0.233-0.523,0.44C5.496,7.705,6.17,9.463,6.369,9.847    c0.267,0.512,0.614,0.881,1.009,1.08l0.03,0.218c0.151,1.095,0.719,1.664,1.216,2.168l0.007,0.23    c-0.354,0.109-0.64,0.406-0.723,0.783c-0.139,0.606-0.312,1.216-0.399,1.442c-0.316,0.263-1.502,1.039-2.288,1.299H5.21    c-0.659,0-1.66,0.354-2.495,1.351c-0.602,0.719-1.317,2.04-1.317,4.242v0.403C1.398,23.579,1.819,24,2.335,24h19.331    c0.516,0,0.937-0.421,0.937-0.937V22.66C22.603,18.432,20.032,17.066,18.79,17.066z M12.234,17.427    c-0.03,0.027-0.065,0.048-0.103,0.061c-0.012,0.004-0.025,0.007-0.037,0.01c-0.019,0.004-0.039,0.008-0.06,0.008    c-0.101,0-0.186-0.05-0.245-0.124c-0.007-0.01-0.015-0.019-0.02-0.03c0,0.001-0.001,0.001-0.001,0.002    c-0.001-0.002-0.003-0.004-0.005-0.006c-0.467,0.677-1.264,0.903-1.66,0.979c-0.346-0.873-0.256-1.799-0.041-2.142l1.72,0.659    c0.056-0.079,0.143-0.132,0.252-0.132c0.105,0,0.192,0.053,0.248,0.132l1.72-0.659c0.214,0.343,0.305,1.268-0.041,2.142    c-0.395-0.075-1.193-0.301-1.66-0.979c-0.012,0.02-0.026,0.037-0.041,0.054C12.252,17.411,12.243,17.419,12.234,17.427z     M6.219,23.077l-0.772-4.976c0,0,0.945-0.218,2.925-1.524c0,0,0.071,1.189,0.839,1.75c0.086,0.523,0.414,3.113,0.594,4.561    c0.007,0.064,0.015,0.128,0.023,0.189H6.219z M9.696,13.897c0.689,0.614,1.506,0.956,2.304,0.956c0.693,0,1.403-0.263,2.029-0.736    c0.115-0.085,0.228-0.175,0.338-0.274v0.622c-0.004,0.004-0.004,0.008-0.004,0.011c-0.038,0.335-1.174,1.046-2.364,1.502    c-1.046-0.399-2.055-1.001-2.304-1.366L9.696,13.897L9.696,13.897z M14.172,23.076c0.177-1.4,0.527-4.203,0.617-4.749    c0.772-0.561,0.843-1.75,0.843-1.75c1.98,1.306,2.921,1.524,2.921,1.524l-0.771,4.976h-3.206L14.172,23.076z M16.423,9.739    c0.019-0.253,0.041-0.509,0.059-0.754c0.004-0.03,0.008-0.06,0.011-0.09c0.075-0.331,0.136-0.617,0.158-0.726    c0.004-0.004,0.214-0.542,0.331-0.775c0-0.004,0.008-0.023,0.015-0.056c0.004,0.004,0.004,0.007,0.008,0.007    c0.214,0.335-0.049,1.49-0.316,2.01c-0.063,0.12-0.13,0.22-0.2,0.309C16.468,9.689,16.447,9.717,16.423,9.739z M15.271,5.742    l0.011,1.654l0.534,0.361c0,0.113,0.004,0.376,0.007,0.723c-0.015,0.143-0.026,0.297-0.038,0.455    c-0.098,0.896-0.196,1.697-0.245,2.063c-0.064,0.474-0.241,0.802-0.478,1.088c-0.105,0.135-0.222,0.256-0.346,0.384    c-0.109,0.113-0.229,0.23-0.35,0.358c-0.06,0.064-0.12,0.128-0.185,0.2c-0.625,0.715-1.411,1.129-2.183,1.129    s-1.558-0.414-2.183-1.129c-0.045-0.045-0.083-0.09-0.12-0.132c-0.124-0.128-0.237-0.248-0.35-0.361    c-0.124-0.124-0.241-0.248-0.35-0.373c-0.267-0.309-0.467-0.647-0.538-1.163c-0.049-0.354-0.143-1.122-0.241-1.991    c0-0.023-0.004-0.049-0.004-0.072V8.928L8.126,7.726L8.99,7.227l0.282-2.669c0.358,0.508,1.452,1.603,3.09,1.603    c1.234,0,2.32-0.26,2.798-0.391C15.198,5.761,15.239,5.751,15.271,5.742z M9.66,3.111C9.675,3.36,9.583,3.604,9.415,3.809    C9.378,3.852,9.341,3.896,9.296,3.934c-0.01-0.099-0.15-1.524,0.368-1.985C9.619,2.19,9.637,2.718,9.66,3.111z M6.994,7.344    c0.023-0.03,0.03-0.034,0.034-0.034h0.011c0.023,0,0.045,0.004,0.075,0.015l0.211,0.444l0.113,0.452    C7.461,8.447,7.483,8.669,7.51,8.887V8.91c0.018,0.213,0.034,0.434,0.05,0.652c0.003,0.06,0.007,0.12,0.008,0.179    C7.479,9.637,7.391,9.508,7.314,9.354C7.039,8.834,6.779,7.679,6.994,7.344z"/>
	</g>
	<g>
		<g>
			<path fill="#707d9b" d="M17.883,7.71c-0.003,0.065-0.342,1.027-0.357,1.091c-0.04,0.12-0.087,0.237-0.131,0.355     c-0.095,0.233-0.217,0.452-0.358,0.66c-0.06,0.079-0.109,0.167-0.178,0.24c-0.076,0.095-0.153,0.188-0.233,0.28     c-0.093,0.086-0.174,0.186-0.28,0.258c-0.088,0.083-0.188,0.151-0.282,0.226c-0.076,0.054-0.155,0.104-0.232,0.158     c-0.158,0.09-0.313,0.186-0.482,0.256c-0.099,0.047-0.204,0.078-0.311,0.099c-0.068,0.023-0.137,0.045-0.205,0.068     c-0.186,0.044-0.372,0.089-0.559,0.133c-0.15,0.018-0.301,0.035-0.451,0.053c-0.169,0.001-0.338,0.002-0.507,0.004     c-0.169-0.017-0.337-0.035-0.506-0.052c-0.146-0.005-0.112-0.119-0.124-0.204c-0.06-0.068-0.04-0.152-0.041-0.23     c-0.002-0.088-0.004-0.177,0.002-0.265c0.001-0.024-0.002-0.049-0.001-0.073c0.009-0.124,0.032-0.141,0.163-0.127     c0.145,0.023,0.289,0.05,0.435,0.062c0.19,0.025,0.379,0.02,0.568-0.003c0.169-0.008,0.335-0.039,0.5-0.074     c0.193-0.034,0.376-0.099,0.558-0.169c0.096-0.036,0.185-0.089,0.278-0.133c0.074-0.034,0.148-0.07,0.214-0.119     c0.371-0.227,0.672-0.526,0.921-0.88c0.033-0.042,0.053-0.09,0.082-0.134c0.076-0.13-0.061-0.288-0.003-0.427     c0.033-0.082-0.029-1.58,0-1.663"/>
		</g>
		<circle fill="#707d9b" cx="12.645" cy="11.105" r="0.842"/>
	</g>
</g>
</svg>