<svg width="32" height="32" viewBox="0 0 32 32" fill="none" xmlns="http://www.w3.org/2000/svg">
<path fill-rule="evenodd" clip-rule="evenodd" d="M20.3626 8.13648C20.8078 8.16151 21.1479 8.53491 21.1223 8.97049C21.0687 9.88283 20.9794 10.8457 20.8321 11.6778C20.7585 12.0937 20.6679 12.4915 20.5545 12.8411C20.4447 13.1798 20.2969 13.5262 20.0839 13.8013C20.0733 13.8151 20.0622 13.8285 20.0507 13.8415C19.2886 14.7025 18.2932 15.3349 17.1796 15.6657C16.4532 15.9138 15.6624 15.9137 14.936 15.6655C13.8218 15.3333 12.8246 14.7025 12.0575 13.8445C12.0446 13.83 12.0323 13.8152 12.0205 13.7998C11.8113 13.5283 11.6657 13.1876 11.5574 12.8542C11.4456 12.5103 11.3563 12.1192 11.2839 11.7099C11.1391 10.8912 11.0524 9.94287 11.0041 9.03873C10.9808 8.60303 11.3229 8.23134 11.7681 8.20854C12.2134 8.18574 12.5933 8.52047 12.6166 8.95617C12.6632 9.82821 12.7454 10.7077 12.8749 11.4405C12.9398 11.8071 13.014 12.1227 13.0961 12.3754C13.1744 12.6163 13.2469 12.7589 13.2965 12.8305C13.8651 13.4567 14.6003 13.9164 15.4204 14.1582C15.4331 14.162 15.4457 14.166 15.4581 14.1704C15.8461 14.3055 16.2699 14.3055 16.6579 14.1704C16.6707 14.1659 16.6836 14.1618 16.6966 14.158C17.5141 13.9179 18.2459 13.458 18.8089 12.8309C18.8599 12.7583 18.9348 12.612 19.0155 12.3631C19.0993 12.1047 19.175 11.7822 19.2412 11.4081C19.3735 10.6602 19.4584 9.76432 19.5103 8.87984C19.5359 8.44426 19.9175 8.11144 20.3626 8.13648Z" fill="#ccd6f6"/>
<path fill-rule="evenodd" clip-rule="evenodd" d="M18.3444 0.933563C17.6869 0.349524 16.7489 0.0711155 15.8419 0.0124268C14.6711 -0.0633301 13.352 0.205578 12.2387 0.866107C11.1105 1.53541 10.1819 2.61741 9.87735 4.13642C9.57581 5.64038 9.90698 7.46541 11.0653 9.60479C11.2364 9.92093 11.6034 10.0851 11.9597 10.0048C12.316 9.92462 12.5727 9.6201 12.5855 9.26255C12.616 8.40801 12.9332 7.59163 13.4812 6.93627C15.1833 7.40616 16.9855 7.40616 18.6876 6.93627C19.2356 7.59163 19.5528 8.40801 19.5833 9.26255C19.596 9.61815 19.8501 9.92156 20.204 10.0036C20.5578 10.0857 20.924 9.92621 21.0985 9.61402C22.8142 6.54428 22.7323 4.13858 21.7451 2.58126C21.2616 1.81855 20.5763 1.29486 19.8548 1.04384C19.3736 0.876429 18.8418 0.821736 18.3444 0.933563ZM11.63 6.81746C11.3563 5.86112 11.3348 5.07422 11.4618 4.4406C11.6671 3.41667 12.2806 2.68893 13.0758 2.21715C13.8858 1.73658 14.8713 1.53305 15.7353 1.58896C16.6314 1.64694 17.2087 1.96267 17.4331 2.30157C17.6748 2.66668 18.1726 2.77188 18.5468 2.53689C18.6717 2.45842 18.9379 2.4017 19.3139 2.53251C19.6757 2.65841 20.0742 2.94278 20.3729 3.4141C20.7963 4.08188 21.058 5.2096 20.5584 6.85365C20.2841 6.34299 19.9264 5.87356 19.4947 5.46551C19.2766 5.25932 18.9587 5.19016 18.6718 5.28648C16.9949 5.84946 15.174 5.84946 13.497 5.28648C13.2101 5.19016 12.8923 5.25932 12.6741 5.46551C12.2526 5.86391 11.9018 6.3208 11.63 6.81746Z" fill="#ccd6f6"/>
<path d="M16.6438 17.1968L18.8072 16.2364C19.9997 15.9989 19.9997 20.2122 18.8072 19.985L16.6965 19.0349" fill="#ccd6f6"/>
<path d="M16.0528 19.8507C16.9853 19.8507 17.7413 19.0879 17.7413 18.1468C17.7413 17.2058 16.9853 16.4429 16.0528 16.4429C15.1202 16.4429 14.3642 17.2058 14.3642 18.1468C14.3642 19.0879 15.1202 19.8507 16.0528 19.8507Z" fill="#ccd6f6"/>
<path d="M15.4618 19.0659L13.3511 20.016C12.1586 20.2535 12.1586 16.0402 13.3511 16.2777L15.4618 17.2278" fill="#ccd6f6"/>
<path fill-rule="evenodd" clip-rule="evenodd" d="M20.6698 18.2191C20.6698 17.7828 21.0313 17.4291 21.4772 17.4291H21.9099C21.9248 17.4291 21.9398 17.4295 21.9547 17.4304C23.64 17.522 25.22 18.2614 26.3509 19.4875C27.4775 20.7089 28.0674 22.3148 27.9939 23.958V31.1687C27.9939 31.605 27.6324 31.9587 27.1865 31.9587C26.7407 31.9587 26.3792 31.605 26.3792 31.1687V23.9401C26.3792 23.9277 26.3795 23.9154 26.3801 23.9031C26.4392 22.6694 25.9979 21.4629 25.1523 20.5461C24.3115 19.6345 23.1386 19.0827 21.8866 19.0091H21.4772C21.0313 19.0091 20.6698 18.6554 20.6698 18.2191Z" fill="#ccd6f6"/>
<path fill-rule="evenodd" clip-rule="evenodd" d="M10.0453 17.4717C10.0602 17.4708 10.0752 17.4704 10.0901 17.4704H10.5228C10.9687 17.4704 11.3302 17.8241 11.3302 18.2604C11.3302 18.6967 10.9687 19.0504 10.5228 19.0504H10.1134C8.86135 19.1241 7.68851 19.6758 6.84771 20.5874C6.0021 21.5042 5.56082 22.7108 5.61992 23.9444C5.62051 23.9567 5.6208 23.969 5.6208 23.9814V31.21C5.6208 31.6463 5.25935 32 4.81347 32C4.3676 32 4.00614 31.6463 4.00614 31.21V23.9993C3.93256 22.3561 4.52252 20.7502 5.64905 19.5288C6.77995 18.3027 8.36002 17.5633 10.0453 17.4717Z" fill="#ccd6f6"/>
<path fill-rule="evenodd" clip-rule="evenodd" d="M23.324 17.8629C23.7699 17.8629 24.1313 18.2165 24.1313 18.6528C24.1313 19.0286 24.1028 19.5718 24.07 20.1953C24.0557 20.4684 24.0405 20.7569 24.0266 21.0534C23.9798 22.0511 23.9433 23.1923 23.9805 24.3212C24.0179 25.4553 24.129 26.5451 24.3645 27.4479C24.6053 28.3711 24.9456 28.9787 25.3463 29.2907C25.6953 29.5623 25.7531 30.0593 25.4754 30.4007C25.1978 30.7421 24.6899 30.7987 24.341 30.527C23.5282 29.8942 23.0717 28.8804 22.8 27.8386C22.523 26.7766 22.4058 25.5576 22.3667 24.3722C22.3274 23.1815 22.3662 21.992 22.4136 20.9809C22.4293 20.6473 22.4456 20.3381 22.4604 20.0557C22.4917 19.4618 22.5167 18.9865 22.5167 18.6528C22.5167 18.2165 22.8781 17.8629 23.324 17.8629Z" fill="#ccd6f6"/>
<path fill-rule="evenodd" clip-rule="evenodd" d="M8.67599 17.8835C9.12187 17.8835 9.48332 18.2372 9.48332 18.6735C9.48332 19.0072 9.50832 19.4824 9.53957 20.0764C9.55442 20.3588 9.57069 20.668 9.58635 21.0015C9.63383 22.0127 9.67256 23.2021 9.63328 24.3928C9.59418 25.5783 9.47703 26.7972 9.20002 27.8593C8.9283 28.9011 8.47184 29.9148 7.65897 30.5477C7.31006 30.8193 6.80216 30.7628 6.52455 30.4214C6.24694 30.08 6.30474 29.583 6.65365 29.3113C7.05441 28.9993 7.39473 28.3918 7.63551 27.4686C7.87099 26.5657 7.98206 25.476 8.01947 24.3419C8.0567 23.2129 8.02024 22.0718 7.9734 21.0741C7.95947 20.7775 7.94432 20.4891 7.92997 20.216C7.8972 19.5925 7.86866 19.0492 7.86866 18.6735C7.86866 18.2372 8.23011 17.8835 8.67599 17.8835Z" fill="#ccd6f6"/>
<path fill-rule="evenodd" clip-rule="evenodd" d="M12.9448 23.8513C13.0002 23.5718 13.2766 23.3892 13.5622 23.4434L17.3371 24.1595C17.6227 24.2137 17.8093 24.4842 17.754 24.7636L16.5609 30.7851C16.5055 31.0645 16.2291 31.2472 15.9435 31.193L12.1686 30.4768C11.883 30.4226 11.6964 30.1522 11.7518 29.8727L12.9448 23.8513ZM13.8788 24.5535L12.8862 29.5629L15.6269 30.0829L16.6195 25.0734L13.8788 24.5535Z" fill="#ccd6f6"/>
<path fill-rule="evenodd" clip-rule="evenodd" d="M15.5037 21.6289C15.5608 21.3496 15.8382 21.1683 16.1238 21.2237L19.9018 21.9569C20.1874 22.0123 20.3732 22.2836 20.3169 22.5631L19.1033 28.5939C19.0471 28.8731 18.7706 29.0552 18.4851 29.001L17.4509 28.8048C17.1648 28.7505 16.9778 28.4796 17.0333 28.1996C17.0888 27.9197 17.3657 27.7367 17.6518 27.791L18.1695 27.8892L19.1797 22.8695L16.4352 22.3369L16.2536 23.2255C16.1964 23.5052 15.9184 23.6865 15.6327 23.6306C15.3469 23.5746 15.1616 23.3026 15.2187 23.023L15.5037 21.6289Z" fill="#ccd6f6"/>
</svg>
