<?xml version="1.0" encoding="utf-8"?>
<!-- Generator: Adobe Illustrator 23.1.0, SVG Export Plug-In . SVG Version: 6.00 Build 0)  -->
<svg version="1.1" id="Layer_1" xmlns="http://www.w3.org/2000/svg" xmlns:xlink="http://www.w3.org/1999/xlink" x="0px" y="0px"
	 viewBox="0 0 217 44" enable-background="new 0 0 217 44" xml:space="preserve">
<path fill="#FFFFFF" d="M136.369,23.363l2.588,5.119c0.367,0.734,0.599,1.294,0.753,1.681c0.155-0.386,0.406-0.927,0.811-1.681
	l2.685-5.119h1.912l-4.597,8.19v5.331h-1.681v-5.331l-4.462-8.19H136.369z"/>
<path fill="#FFFFFF" d="M153.734,36.885l-1.14-3.4h-5.563l-1.198,3.4h-1.719l5.061-13.522h1.603l4.733,13.522H153.734z
	 M147.533,32.056h4.578l-1.507-4.501c-0.29-0.869-0.522-1.7-0.696-2.376c-0.193,0.676-0.464,1.487-0.773,2.376L147.533,32.056z"/>
<path fill="#FFFFFF" d="M163.353,33.06c-0.502-1.642-1.198-2.009-2.608-2.009c-0.773,0-1.178,0.019-1.565,0.058v5.776H157.5V23.402
	c0.386-0.039,1.854-0.155,3.4-0.155c2.859,0,4.578,1.004,4.578,3.612c0,1.661-0.966,2.801-2.221,3.361
	c0.831,0.386,1.333,1.159,1.739,2.453l1.294,4.211h-1.777L163.353,33.06z M159.181,29.738c0.386,0.039,0.792,0.039,1.565,0.039
	c1.681,0,3.013-0.889,3.013-2.704c0-1.951-1.468-2.434-3.013-2.434c-0.773,0-1.178,0.039-1.565,0.077V29.738z"/>
<g>
	<g>
		<g>
			<g>
				<linearGradient id="SVGID_1_" gradientUnits="userSpaceOnUse" x1="67.4598" y1="9.2128" x2="67.4598" y2="36.2273">
					<stop  offset="0" style="stop-color:#FFDF02"/>
					<stop  offset="1" style="stop-color:#FFC902"/>
				</linearGradient>
				<path fill="url(#SVGID_1_)" d="M50.711,6.676c0,0,0.29-1.237,1.463-1.131c0,0,0.747,0.513,2.886,1.314l0.189,0.244
					c0,0,0.285,0.52,1.536,3.8l3.535,9.814c0,0,1.633-0.055,5.77-1.811c0,0,7.845-3.26,11.185-4.634c0,0,2.604-1.117,4.426-0.928
					c0.017,0.018,1.325,0.024,2.052,1.141c0.626,0.607,0.427,3.878,0.427,3.878s-0.414-0.888-1.435-1.151
					c-0.123-0.014-0.865-0.111-2.429,0.436l-3.589,1.255l-4.076,1.632l-4.661,1.733c0,0-1.288,0.451-3.221,1.126l-1.656,0.579
					c0,0,2.373,2.062,3.371,2.849c0.998,0.787,5.308,4.547,5.308,4.547l4.811,4.307c0,0,5.63,5.467,5.648,6.7
					c0,0,0.101,0.584-1.127,0.911c0,0-1.158,0.088-2.11-0.005c-0.242-0.024-0.462-0.15-0.61-0.343
					c-0.444-0.582-1.429-1.858-1.788-2.206l-2.755-2.858l-3.845-3.612l-5.28-4.763l-1.559-1.21c0,0,4.257,10.697,3.986,11.102
					c0,0,0.129,0.368-0.667,0.75c0,0-1.44,0.607-2.682,0.008c0,0-1.435-1.151-2.249-2.002c-0.939-0.945-1.917-1.949-2.438-2.246
					c-0.367-0.303-1.555-0.902-1.555-0.902s-0.862-0.422-0.98,0.446c-0.02,0.163,0.026,0.317,0.161,0.46
					c0,0-0.681-0.175-1.187-1.031c0,0-0.791-1.376,0.18-2.438c0,0,0.603-0.934,2.425-0.745c0.861,0.201,2.436,0.788,3.808,3.212
					l-3.144-8.401l-0.703-1.716c0,0-0.308,0.005-1.329-0.258c0,0-1.297-0.166-1.775-1.238c0,0-0.759-1.284-0.059-1.941l0.552-0.193
					l0.308-0.005l0.713,0.267l-2.496-6.253L50.711,6.676z"/>
			</g>
		</g>
		<g>
			<g>
				<linearGradient id="SVGID_2_" gradientUnits="userSpaceOnUse" x1="89.3354" y1="9.2128" x2="89.3354" y2="36.2273">
					<stop  offset="0" style="stop-color:#FFDF02"/>
					<stop  offset="1" style="stop-color:#FFC902"/>
				</linearGradient>
				<path fill="url(#SVGID_2_)" d="M86.94,23.363v5.235h4.791v-5.235h2.917v13.522h-2.917v-5.969H86.94v5.969h-2.917V23.363H86.94z"
					/>
			</g>
		</g>
		<g>
			<g>
				<linearGradient id="SVGID_3_" gradientUnits="userSpaceOnUse" x1="101.765" y1="9.2128" x2="101.765" y2="36.2273">
					<stop  offset="0" style="stop-color:#FFDF02"/>
					<stop  offset="1" style="stop-color:#FFC902"/>
				</linearGradient>
				<path fill="url(#SVGID_3_)" d="M105.812,23.363v2.299h-5.273v3.226h4.617v2.144h-4.617v3.554h5.37v2.299h-8.287V23.363H105.812z
					"/>
			</g>
		</g>
		<g>
			<g>
				<linearGradient id="SVGID_4_" gradientUnits="userSpaceOnUse" x1="112.3016" y1="9.2128" x2="112.3016" y2="36.2273">
					<stop  offset="0" style="stop-color:#FFDF02"/>
					<stop  offset="1" style="stop-color:#FFC902"/>
				</linearGradient>
				<path fill="url(#SVGID_4_)" d="M111.123,23.363v11.204h5.274v2.318h-8.19V23.363H111.123z"/>
			</g>
		</g>
		<g>
			<g>
				<linearGradient id="SVGID_5_" gradientUnits="userSpaceOnUse" x1="123.2346" y1="9.2128" x2="123.2346" y2="36.2273">
					<stop  offset="0" style="stop-color:#FFDF02"/>
					<stop  offset="1" style="stop-color:#FFC902"/>
				</linearGradient>
				<path fill="url(#SVGID_5_)" d="M123.235,23.054c4.385,0,6.201,2.724,6.201,7.07c0,4.114-2.376,7.07-6.201,7.07
					c-4.114,0-6.201-2.956-6.201-7.07C117.034,25.778,119.41,23.054,123.235,23.054z M123.235,34.76
					c1.854,0,3.187-1.487,3.187-4.636c0-3.303-1.333-4.636-3.187-4.636c-1.854,0-3.187,1.333-3.187,4.636
					C120.047,33.273,121.515,34.76,123.235,34.76z"/>
			</g>
		</g>
		<g>
			<g>
				<linearGradient id="SVGID_6_" gradientUnits="userSpaceOnUse" x1="124.1923" y1="9.2128" x2="124.1923" y2="36.2273">
					<stop  offset="0" style="stop-color:#FFDF02"/>
					<stop  offset="1" style="stop-color:#FFC902"/>
				</linearGradient>
				<path fill="url(#SVGID_6_)" d="M88.561,21.127c0.77-1.566,1.72-3.051,2.781-4.459c1.059-1.412,2.239-2.738,3.502-3.989
					c2.537-2.489,5.42-4.655,8.545-6.433c3.122-1.783,6.491-3.176,9.998-4.122c3.506-0.947,7.152-1.443,10.806-1.451
					c3.654,0.004,7.301,0.499,10.807,1.446c3.507,0.946,6.877,2.336,10,4.12c3.125,1.778,6.009,3.944,8.546,6.434
					c1.262,1.251,2.442,2.579,3.501,3.991c1.06,1.409,2.009,2.896,2.778,4.462c-1.241-1.227-2.51-2.381-3.826-3.46
					c-0.66-0.537-1.327-1.06-2.007-1.561l-1.024-0.741c-0.345-0.241-0.695-0.475-1.041-0.712c-2.792-1.866-5.73-3.446-8.758-4.748
					c-6.058-2.602-12.517-4.014-18.975-4.027c-6.458,0.007-12.919,1.419-18.978,4.021c-3.028,1.303-5.967,2.883-8.759,4.75
					c-1.398,0.931-2.753,1.94-4.071,3.017C91.069,18.744,89.801,19.9,88.561,21.127z"/>
			</g>
		</g>
	</g>
</g>
</svg>
