<?xml version="1.0" encoding="utf-8"?>
<!-- Generator: Adobe Illustrator 23.1.0, SVG Export Plug-In . SVG Version: 6.00 Build 0)  -->
<svg version="1.1" id="Layer_1" xmlns="http://www.w3.org/2000/svg" xmlns:xlink="http://www.w3.org/1999/xlink" x="0px" y="0px"
	 viewBox="0 0 500 500" style="enable-background:new 0 0 500 500;" xml:space="preserve">
<style type="text/css">
	.st0{fill:#FFFFFF;}
</style>
<g>
	<g>
		<path class="st0" d="M250,13.6C119.5,13.6,13.6,119.5,13.6,250c0,130.5,105.8,236.3,236.4,236.3c130.5,0,236.4-105.8,236.4-236.3
			C486.4,119.5,380.5,13.6,250,13.6z M469.5,264.6c-6,0.1-10.8,5.1-10.7,11.2c0.1,5,3.6,9.1,8.2,10.3c-0.9,5.4-2,10.7-3.3,15.9
			l-110.4-35.2l-74.7-12.6c0.2-1.3,0.4-2.6,0.4-3.9l75.4,7.9l115.5-8.1C470,255.1,469.8,259.9,469.5,264.6z M458.9,319.2
			c-0.2-0.1-0.4-0.2-0.6-0.2c-5.9-1.4-11.8,2.2-13.2,8.1c-1.2,5.1,1.4,10.3,6,12.5c-2.3,5.1-4.7,10.2-7.4,15.1l-98-62.2l-68.9-31.1
			c0.6-1.3,1-2.7,1.4-4.1l71.2,26l114.2,20.2C462.1,308.9,460.6,314.1,458.9,319.2z M347.3,446.2c-3.2-5.1-10-6.7-15.1-3.5
			c-4.5,2.8-6.2,8.4-4.4,13.1c-4.7,1.8-9.4,3.4-14.3,4.8l-26-113.4l-27.1-70.5c1.2-0.5,2.4-1.1,3.6-1.7l31.4,68.8l66,95.8
			c-4.5,2.6-9,5.1-13.7,7.4C347.7,446.8,347.5,446.5,347.3,446.2z M289.9,465.3c-1.8-5.8-7.9-9-13.7-7.2c-4.9,1.5-7.9,6.2-7.6,11.1
			c-5.6,0.5-11.2,0.8-17,0.8l7-116.1l-6.2-75.3c1.7-0.1,3.4-0.4,5-0.8l13.9,74.3l40.9,109c-7.2,2.1-14.6,3.9-22.1,5.3
			C290,466,290,465.7,289.9,465.3z M167.5,442.4c-5.1-1.1-10.2,1.6-12.3,6.2c-4-1.9-7.9-3.9-11.7-6.1l62.9-97.8l31.4-68.7
			c1.3,0.6,2.6,1.1,4,1.5l-26.4,70.8l-21.1,114.6c-6.4-1.7-12.8-3.7-19-5.9c0.2-0.5,0.4-1,0.5-1.6
			C177.1,449.6,173.4,443.7,167.5,442.4z M56.8,331.2c-2.9-4.4-8.3-6-13-4.2c-1.7-4.6-3.3-9.3-4.7-14l113-26l70.6-27.2
			c0.5,1.3,1.1,2.5,1.7,3.7l-68.7,31.9l-95.2,66.5c-2.9-4.8-5.6-9.8-8.1-14.8c0.4-0.2,0.8-0.4,1.2-0.6
			C58.8,343.1,60.2,336.3,56.8,331.2z M30.7,232c0.5,0,1.1,0.1,1.6,0.1c6-0.4,10.6-5.6,10.2-11.6c-0.3-5.1-4.2-9.2-9-10
			c0.8-4.6,1.8-9.2,2.9-13.7l110.1,35.1l74.7,12.6c-0.2,1.3-0.3,2.6-0.4,3.9l-75.4-7.9L30,248.5C30,243,30.3,237.5,30.7,232z
			 M42.1,178c0.5,0.2,1,0.4,1.6,0.5c5.9,1.2,11.7-2.7,12.8-8.6c1-5.1-1.7-10-6.3-12.1c2.1-4.6,4.3-9.1,6.7-13.4l97.5,61.8l69.2,31.2
			c-0.6,1.3-1,2.6-1.5,4l-71.3-26l-114-20.2C38.3,189.4,40.1,183.7,42.1,178z M154,54.2c3.4,5,10.2,6.2,15.2,2.8
			c4.3-3,5.9-8.5,3.9-13.2c4.5-1.7,9-3.2,13.6-4.6l25.7,112.2l27.3,70.9c-1.2,0.5-2.4,1.1-3.5,1.7l-31.6-69.2l-65.4-94.9
			c4.5-2.6,9.1-5.2,13.9-7.5C153.3,53,153.6,53.6,154,54.2z M33.7,290.2c0.5-0.1,1-0.2,1.4-0.3c5.7-1.9,8.8-8.1,6.9-13.9
			c-1.6-4.9-6.4-7.8-11.3-7.4c-0.5-6.1-0.8-12.3-0.8-18.5l115.5,7.4l75.6-5.9c0.1,1.8,0.4,3.5,0.8,5.2l-74.5,13.9L38.7,311.5
			C36.7,304.6,35,297.5,33.7,290.2z M242.7,221.5l-13.9-74.8L188.3,38.8c6.2-1.8,12.4-3.4,18.8-4.6c0.1,0.7,0.3,1.3,0.5,2
			c2,5.7,8.3,8.6,14,6.6c5-1.8,7.8-6.8,7.2-11.8c6.5-0.6,13-1,19.6-1l-6.9,114.8l6.2,75.8C246,220.8,244.3,221,242.7,221.5z
			 M277.7,41.4c5,0,9.2-3.4,10.5-8.1c5.3,0.9,10.5,2,15.7,3.3l-35.7,109.4L255.1,221c-1.4-0.3-2.8-0.4-4.2-0.4l7.7-75.7L250,29.9
			c5.6,0,11.2,0.3,16.8,0.7C266.9,36.6,271.8,41.4,277.7,41.4z M330,55.4c4.9,1.3,9.8-1,12.2-5.1c4.7,2.2,9.3,4.4,13.7,6.9
			L293.7,154l-31.6,69.1c-1.3-0.6-2.6-1-4-1.4l26.6-71.3L305.5,37c5.6,1.5,11.2,3.2,16.7,5.1C320.7,47.9,324.2,53.8,330,55.4z
			 M377,82.2c4.4,2.5,9.8,1.6,13.2-1.9c5.1,4.2,10.1,8.7,14.8,13.4l-86.6,76l-49.5,57.7c-1.3-1.1-2.6-2-4-2.9l43.7-62.3L357.4,58
			c5.3,2.9,10.4,6.1,15.4,9.4C369.9,72.6,371.7,79.3,377,82.2z M415.5,120.2c3.6,3.6,9.1,4,13.3,1.5c3.3,4.6,6.4,9.2,9.4,14.1
			l-102.6,52.9l-61.9,44c-0.8-1.1-1.6-2.1-2.5-3l59.1-47.7l75.8-87c3.2,3.2,6.2,6.5,9.2,9.9C411.1,109.1,411.2,116,415.5,120.2z
			 M443.1,166.8c2.6,4.4,7.8,6.3,12.5,4.8c1.8,4.7,3.4,9.4,4.9,14.2l-112.6,25.9L277.1,239c-0.5-1.3-1.1-2.5-1.8-3.6l68.9-32
			l94.7-66.1c2.8,4.7,5.5,9.6,7.9,14.5c0,0,0,0,0,0C441.7,154.8,440,161.6,443.1,166.8z M465.8,206.8c-0.2,0-0.3,0-0.5,0.1
			c-5.8,1.7-9.2,7.7-7.5,13.5c1.4,5,6.2,8.2,11.1,7.9c0.7,6.7,1,13.4,1,20.3l-115.5-7.4l-75.6,5.9c-0.2-1.8-0.4-3.5-0.9-5.2l74.6-14
			l108.2-40.7C462.8,193.7,464.5,200.2,465.8,206.8z M107.1,82.7c0.4,0.5,0.8,0.9,1.3,1.3c4.6,4,11.5,3.4,15.4-1.2
			c3.3-3.9,3.4-9.5,0.6-13.5c4.3-3,8.8-5.9,13.3-8.6l52.1,102.7l43.6,62.2c-1.2,0.8-2.3,1.8-3.3,2.7l-48.3-58.7l-87.6-75
			C98.3,90.5,102.7,86.5,107.1,82.7z M93,95.8l76.8,85.9l58.1,48.9c-1.1,1.2-2,2.5-2.9,3.9l-62.4-43.3L57.7,143
			c3.1-5.5,6.3-10.9,9.9-16.1c0.5,0.3,1,0.7,1.6,0.9c5.4,2.7,12,0.4,14.6-5.1c2.3-4.7,0.9-10.2-3-13.3
			C84.7,104.7,88.8,100.2,93,95.8z M81.6,391.6c0.5-0.4,1-0.8,1.4-1.3c4-4.5,3.7-11.4-0.8-15.5c-3.9-3.5-9.7-3.7-13.8-0.7
			c-2.5-3.6-4.8-7.3-7.1-11L164.5,310l61.6-43.8c0.7,1.1,1.6,2.1,2.5,3l-58.8,47.5l-76.4,87.6C89.3,400.4,85.4,396.1,81.6,391.6z
			 M94.4,405.6l87.3-76.6l49.2-57.4c1.2,1.1,2.6,2.1,4,2.9l-43.4,61.9l-49.3,105.4c-6.2-3.5-12.2-7.3-18-11.3
			c0.3-0.5,0.7-0.9,0.9-1.4c2.8-5.4,0.6-12-4.8-14.7c-4.7-2.4-10.2-1.1-13.4,2.8C102.6,413.4,98.4,409.6,94.4,405.6z M231.6,469.2
			c0-0.4,0.1-0.8,0.1-1.2c-0.2-6-5.3-10.7-11.4-10.5c-5.1,0.2-9.2,3.9-10.2,8.7c-4.8-0.9-9.7-1.9-14.4-3.1l36.1-110.6l13-74.3
			c1.4,0.2,2.8,0.4,4.3,0.4l-7.6,75.2l8.6,116.2c0,0,0,0-0.1,0C243.8,470,237.7,469.7,231.6,469.2z M394.1,416.2
			c-0.3-0.4-0.6-0.8-1-1.2c-4.4-4.1-11.3-3.9-15.5,0.5c-3.7,4-3.9,9.9-0.7,14.1c-4.6,3.3-9.3,6.4-14.2,9.3l-52.6-103.7l-43.4-61.8
			c1.2-0.8,2.3-1.8,3.4-2.8l48,58.4l88.3,75.6C402.5,408.7,398.4,412.5,394.1,416.2z M407.5,403.6L330.2,317l-57.8-48.7
			c1-1.2,2-2.6,2.8-4l62.2,43.1L442.8,356c-3.2,5.9-6.7,11.6-10.5,17.1c-0.3-0.3-0.7-0.5-1.1-0.7c-5.3-2.9-12-0.9-14.8,4.4
			c-2.6,4.7-1.3,10.5,2.8,13.7C415.5,395.1,411.6,399.4,407.5,403.6z"/>
	</g>
</g>
</svg>
