<?xml version="1.0" encoding="utf-8"?>
<!-- Generator: Adobe Illustrator 23.1.0, SVG Export Plug-In . SVG Version: 6.00 Build 0)  -->
<svg version="1.1" xmlns="http://www.w3.org/2000/svg" xmlns:xlink="http://www.w3.org/1999/xlink" x="0px" y="0px"
	 viewBox="0 0 1170 1170" enable-background="new 0 0 1170 1170" xml:space="preserve">
	 <style>


.turn-01, .turn-02, .turn-03, .turn-04, .turn-05, .turn-06{
  animation-duration: 1s;
  animation-iteration-count: infinite;
  animation-timing-function: ease-in-out;
  transform-origin: 50% 50%;
}

.turn-01 { animation-name: turnOne;}
.turn-02 { animation-name: turnTwo;}
.turn-03 { animation-name: turnThree;}
.turn-04 { animation-name: turnFour;}
.turn-05 { animation-name: turnFive;}

@keyframes turnOne {
  0% {transform: rotate(0deg);}
  100% {transform: rotate(360deg);}
}
@keyframes turnTwo {
  0% {transform: rotate(0deg);}
  100% {transform: rotate(360deg);}
}
@keyframes turnThree {
  0% {transform: rotate(0deg);}
  100% {transform: rotate(540deg);}
}
@keyframes turnFour{
  0% {transform: rotate(0deg);}
  100% {transform: rotate(720deg);}
}
@keyframes turnFive {
  0% {transform: rotate(0deg);}
  100% {transform: rotate(900deg);}
}
</style>
<g id="Layer_1" >
	<path fill="#FFDF02" d="M278.653,260.233c0,0,5.307-22.634,26.764-20.693c0,0,13.671,9.386,52.795,24.038l3.449,4.461
		c0,0,5.214,9.51,28.086,69.512l64.66,179.501c0,0,29.872-1.002,105.528-33.125c0,0,143.485-59.621,204.581-84.764
		c0,0,47.632-20.435,80.953-16.976c0.31,0.334,24.242,0.435,37.523,20.878c11.441,11.11,7.806,70.937,7.806,70.937
		s-7.569-16.242-26.248-21.044c-2.245-0.258-15.819-2.024-44.431,7.982l-65.64,22.954l-74.561,29.852l-85.248,31.7
		c0,0-23.563,8.24-58.908,20.6l-30.295,10.594c0,0,43.409,37.709,61.665,52.103c18.256,14.394,97.082,83.162,97.082,83.162
		l87.995,78.784c0,0,102.968,99.993,103.298,122.544c0,0,1.848,10.687-20.62,16.655c0,0-21.181,1.609-38.595-0.089
		c-4.431-0.432-8.459-2.743-11.16-6.282c-8.12-10.64-26.136-33.982-32.696-40.352l-50.389-52.268l-70.328-66.073l-96.576-87.117
		l-28.52-22.138c0,0,77.866,195.66,72.9,203.064c0,0,2.354,6.732-12.205,13.712c0,0-26.341,11.1-49.057,0.155
		c0,0-26.248-21.044-41.137-36.615c-17.181-17.283-35.057-35.647-44.586-41.075c-6.71-5.538-28.437-16.5-28.437-16.5
		s-15.768-7.721-17.925,8.157c-0.366,2.978,0.468,5.802,2.943,8.415c0,0-12.453-3.201-21.705-18.854c0,0-14.466-25.164,3.294-44.596
		c0,0,11.028-17.079,44.349-13.62c15.752,3.672,44.551,14.406,69.657,58.753l-57.514-153.666l-12.866-31.39
		c0,0-5.638,0.083-24.317-4.719c0,0-23.728-3.036-32.474-22.644c0,0-13.878-23.48-1.084-35.51l10.098-3.531l5.638-0.083
		l13.041,4.884l-45.66-114.367L278.653,260.233z"/>
</g>
<g id="Layer_2" class="turn-01">
	<path fill="#FFDF02" d="M64.149,351.377c11.578-22.652,25.693-44.137,41.366-64.499c15.655-20.402,33.027-39.577,51.581-57.635
		c37.259-35.954,79.447-67.214,125.058-92.87c45.577-25.732,94.651-45.825,145.691-59.466C478.87,63.24,531.882,56.097,585,55.985
		c53.119,0.068,106.138,7.2,157.172,20.853c51.045,13.64,100.137,33.706,145.718,59.447c45.619,25.657,87.813,56.923,125.069,92.892
		c4.571,4.601,9.173,9.139,13.678,13.768l6.652,7.049c2.208,2.355,4.45,4.663,6.546,7.13c8.538,9.689,16.93,19.449,24.689,29.718
		c15.667,20.371,29.769,41.87,41.328,64.536c-17.816-18.168-36.145-35.268-55.211-51.266c-9.55-7.976-19.232-15.719-29.102-23.162
		l-14.887-11.003c-5.019-3.58-10.111-7.053-15.141-10.571c-40.632-27.706-83.549-51.206-127.877-70.574
		c-44.357-19.31-90.24-34.306-136.947-44.418c-46.7-10.133-94.197-15.381-141.686-15.512c-47.489,0.087-94.995,5.324-141.702,15.444
		c-46.711,10.11-92.613,25.079-136.974,44.398c-44.336,19.368-87.259,42.874-127.888,70.595
		c-20.34,13.832-40.026,28.801-59.114,44.766C100.262,316.082,81.945,333.195,64.149,351.377z"/>
</g>
</svg>
