<svg width="175" height="112" viewBox="0 0 175 112" fill="none" xmlns="http://www.w3.org/2000/svg">
<path d="M174.39 18L151.52 0.5L148.46 12.57H147.94L122.09 13.22C118.919 13.3488 115.777 13.8797 112.74 14.8C98.06 21.1734 88.9733 30.24 85.48 42L84.79 44.31C84.1168 46.6539 83.7801 49.0815 83.79 51.52C84.99 65.3134 92.61 72.1034 106.65 71.89L118.16 71.71C124.233 72.4834 126.48 75.5167 124.9 80.81L123.9 83.13C121.193 87.7967 116.673 90.1667 110.34 90.24L90.78 90.54L65.37 110.54L65.29 110.83L107.86 110.17C111.028 110.046 114.167 109.515 117.2 108.59C131.867 102.23 140.957 93.17 144.47 81.41L145.16 79.1C145.823 76.7576 146.16 74.3346 146.16 71.9C144.96 58.1 137.337 51.31 123.29 51.53L113.96 51.67L112.41 57.47L95.41 44.14L120.83 25.83L118.83 33.22H119.54L143.5 31.98L140.71 42.98L174.39 18Z" fill="white"/>
<path d="M47.47 15.81C32.7833 22.17 23.6933 31.2333 20.2 43L19.51 45.31C18.8472 47.656 18.5107 50.0821 18.51 52.52C19.71 66.32 27.3333 73.11 41.38 72.89L52.88 72.71C58.9467 73.4833 61.1933 76.5166 59.62 81.81L58.62 84.13C55.9 88.7966 51.3767 91.1666 45.05 91.24L25.49 91.54L0.09 111.54L0 111.83L42.57 111.17C45.7415 111.047 48.884 110.515 51.92 109.59C53.99 108.69 55.92 107.72 57.78 106.71L58.11 105.61L73.65 93.4C76.1205 90.0837 77.992 86.361 79.18 82.4L79.87 80.08C80.5432 77.7396 80.8799 75.3153 80.87 72.88C80.711 70.9074 80.3763 68.953 79.87 67.04C78.7204 65.0636 77.7979 62.9636 77.12 60.78C73.4067 55.1133 67.0433 52.3433 58.03 52.47L46.52 52.65C40.4467 51.8766 38.2 48.8433 39.78 43.55L40.78 41.23C43.4933 36.5633 48.0133 34.1933 54.34 34.12L79.71 33.73C83.3367 25.8166 89.2533 19.1066 97.46 13.6L56.81 14.23C53.6418 14.3543 50.5028 14.8853 47.47 15.81Z" fill="url(#paint0_linear)"/>
<defs>
<linearGradient id="paint0_linear" x1="0" y1="10591" x2="9495.53" y2="10591" gradientUnits="userSpaceOnUse">
<stop stop-color="#1EA5DE"/>
<stop offset="0.37" stop-color="#0F7FBE"/>
<stop offset="1" stop-color="#194886"/>
</linearGradient>
</defs>
</svg>
