<svg xmlns="http://www.w3.org/2000/svg" xmlns:xlink="http://www.w3.org/1999/xlink" version="1.1" id="Layer_2" x="0px" y="0px" viewBox="0 0 25 25" enable-background="new 0 0 25 25" xml:space="preserve">
<g id="Layer_10">
	<g>
		<g>
			
				<line fill="none" stroke="#707d9b" stroke-width="1.0166" stroke-miterlimit="10" x1="13.728" y1="6.492" x2="17.373" y2="2.004"/>
			
				<line fill="none" stroke="#707d9b" stroke-width="1.0166" stroke-miterlimit="10" x1="11.273" y1="6.492" x2="7.629" y2="2.004"/>
			<circle fill="none" stroke="#707d9b" stroke-width="1.0166" stroke-miterlimit="10" cx="17.387" cy="1.975" r="0.241"/>
			<circle fill="none" stroke="#707d9b" stroke-width="1.0166" stroke-miterlimit="10" cx="7.613" cy="1.975" r="0.241"/>
		</g>
		<path fill="#707d9b" d="M24.419,5.344c-0.12-0.25-0.294-0.349-0.5-0.377c-7.587,0-15.174,0-22.761,0    c-0.139,0.038-0.28,0.05-0.394,0.202C0.585,5.407,0.5,5.685,0.5,6.025c0.001,5.393,0.001,10.786,0.001,16.179    c0,0.086-0.002,0.173,0.013,0.258c0.081,0.45,0.266,0.751,0.622,0.803c7.594,0,15.189,0,22.783,0    c0.205-0.029,0.38-0.126,0.5-0.375c0.054-0.112,0.043-0.243,0.081-0.357c0-5.601,0-11.203,0-16.804    C24.466,5.604,24.477,5.465,24.419,5.344z M7.627,17H3.501v-6.621h1.493v5.364h2.633V17z M10.014,17H8.521v-6.621h1.493V17z     M14.621,17h-1.749l-2.122-6.621h1.641l0.806,2.8c0.226,0.796,0.432,1.542,0.589,2.368h0.029c0.167-0.796,0.373-1.582,0.599-2.338    l0.845-2.829h1.592L14.621,17z M21.783,17h-4.214v-6.621h4.077v1.228h-2.584v1.375h2.436V14.2h-2.436v1.572h2.721V17z"/>
	</g>
</g>
</svg>