<svg width="14" height="17" viewBox="0 0 14 17" fill="none" xmlns="http://www.w3.org/2000/svg">
<path d="M11.6584 5.71397H10.8593V4.12159C10.8593 1.9241 9.06923 0.140625 6.86366 0.140625C4.65809 0.140625 2.86806 1.9241 2.86806 4.12159V5.71397H2.06894C1.18991 5.71397 0.470703 6.43055 0.470703 7.30636V15.2683C0.470703 16.1441 1.18991 16.8607 2.06894 16.8607H11.6584C12.5374 16.8607 13.2566 16.1441 13.2566 15.2683V7.30636C13.2566 6.43055 12.5374 5.71397 11.6584 5.71397ZM6.86366 12.8797C5.98463 12.8797 5.26542 12.1631 5.26542 11.2873C5.26542 10.4115 5.98463 9.69494 6.86366 9.69494C7.74269 9.69494 8.4619 10.4115 8.4619 11.2873C8.4619 12.1631 7.74269 12.8797 6.86366 12.8797ZM9.34093 5.71397H4.38639V4.12159C4.38639 2.7601 5.49717 1.65339 6.86366 1.65339C8.23016 1.65339 9.34093 2.7601 9.34093 4.12159V5.71397Z" fill="#4F5267"/>
</svg>
