<?xml version="1.0" encoding="utf-8"?>
<!-- Generator: Adobe Illustrator 23.1.0, SVG Export Plug-In . SVG Version: 6.00 Build 0)  -->
<svg version="1.1" id="Layer_1" xmlns="http://www.w3.org/2000/svg" xmlns:xlink="http://www.w3.org/1999/xlink" x="0px" y="0px"
	 viewBox="0 0 1080 1080" enable-background="new 0 0 1080 1080" xml:space="preserve">
<g>
	<g>
		<g>
			<g>
				<g>
					<path fill="#030313" d="M62.031,399.948c0,0,2.381-10.154,12.007-9.283c0,0,6.133,4.211,23.685,10.784l1.547,2.001
						c0,0,2.339,4.266,12.6,31.184l29.007,80.526c0,0,13.401-0.449,47.341-14.86c0,0,64.369-26.747,91.778-38.026
						c0,0,21.368-9.167,36.316-7.616c0.139,0.15,10.875,0.195,16.833,9.366c5.133,4.984,3.502,31.823,3.502,31.823
						s-3.395-7.286-11.775-9.44c-1.007-0.116-7.097-0.908-19.932,3.581l-29.447,10.297l-33.449,13.392L203.8,527.898
						c0,0-10.571,3.697-26.427,9.241l-13.591,4.753c0,0,19.474,16.917,27.664,23.374c8.19,6.457,43.552,37.308,43.552,37.308
						l39.476,35.344c0,0,46.193,44.858,46.341,54.975c0,0,0.829,4.794-9.25,7.472c0,0-9.502,0.722-17.314-0.04
						c-1.988-0.194-3.795-1.231-5.006-2.818c-3.643-4.773-11.725-15.245-14.668-18.103l-22.605-23.448l-31.55-29.641l-43.325-39.082
						l-12.794-9.931c0,0,34.932,87.776,32.704,91.097c0,0,1.056,3.02-5.475,6.152c0,0-11.817,4.98-22.008,0.07
						c0,0-11.775-9.44-18.455-16.426c-7.708-7.754-15.727-15.992-20.002-18.427c-3.01-2.484-12.757-7.402-12.757-7.402
						s-7.074-3.464-8.041,3.659c-0.164,1.336,0.21,2.603,1.32,3.775c0,0-5.586-1.436-9.737-8.458c0,0-6.49-11.289,1.478-20.006
						c0,0,4.947-7.662,19.895-6.11c7.066,1.647,19.986,6.462,31.249,26.357l-25.802-68.936l-5.772-14.082
						c0,0-2.529,0.037-10.909-2.117c0,0-10.645-1.362-14.568-10.158c0,0-6.226-10.534-0.486-15.93l4.53-1.584l2.529-0.037
						l5.85,2.191l-20.484-51.306L62.031,399.948z"/>
				</g>
				<g>
					<path fill="#030313" d="M359.304,536.877v42.953h39.308v-42.953h23.934v110.95h-23.934v-48.976h-39.308v48.976H335.37v-110.95
						H359.304z"/>
					<path fill="#030313" d="M514.154,536.877v18.862h-43.271v26.469h37.882v17.594h-37.882v29.164h44.063v18.861h-67.997v-110.95
						H514.154z"/>
					<path fill="#030313" d="M557.736,536.877v91.93h43.271v19.02h-67.205v-110.95H557.736z"/>
					<path fill="#030313" d="M657.113,534.341c35.979,0,50.878,22.349,50.878,58.011c0,33.76-19.496,58.012-50.878,58.012
						c-33.76,0-50.878-24.251-50.878-58.012C606.235,556.69,625.731,534.341,657.113,534.341z M657.113,630.392
						c15.216,0,26.152-12.205,26.152-38.04c0-27.104-10.936-38.04-26.152-38.04s-26.152,10.936-26.152,38.04
						C630.961,618.187,643.007,630.392,657.113,630.392z"/>
					<g>
						<g>
							<path fill="#242731" d="M764.884,536.877l21.239,42.003c3.012,6.023,4.914,10.619,6.182,13.789
								c1.268-3.17,3.328-7.608,6.657-13.789l22.031-42.003h15.691l-37.722,67.204v43.746h-13.79v-43.746l-36.613-67.204H764.884z"
								/>
						</g>
					</g>
					<g>
						<g>
							<path fill="#242731" d="M907.372,647.827l-9.352-27.896h-45.648l-9.827,27.896h-14.107l41.527-110.95h13.156l38.833,110.95
								H907.372z M856.493,608.202h37.564l-12.363-36.93c-2.378-7.133-4.28-13.948-5.707-19.496
								c-1.585,5.547-3.803,12.205-6.34,19.496L856.493,608.202z"/>
						</g>
					</g>
					<g>
						<g>
							<path fill="#242731" d="M986.299,616.444c-4.12-13.473-9.827-16.484-21.397-16.484c-6.34,0-9.669,0.158-12.838,0.475v47.392
								h-13.79V537.194c3.169-0.317,15.216-1.268,27.895-1.268c23.458,0,37.565,8.242,37.565,29.64
								c0,13.631-7.925,22.982-18.228,27.579c6.816,3.17,10.936,9.51,14.265,20.13l10.619,34.553h-14.582L986.299,616.444z
								 M952.064,589.182c3.169,0.317,6.498,0.317,12.838,0.317c13.79,0,24.726-7.291,24.726-22.19
								c0-16.008-12.046-19.971-24.726-19.971c-6.34,0-9.669,0.317-12.838,0.634V589.182z"/>
						</g>
					</g>
				</g>
				<g>
					<g>
						<path fill="#030313" d="M372.607,518.53c6.317-12.846,14.117-25.034,22.816-36.591c8.687-11.582,18.37-22.468,28.733-32.728
							c20.816-20.423,44.475-38.196,70.115-52.781c25.619-14.631,53.258-26.06,82.034-33.82
							c28.768-7.775,58.686-11.84,88.667-11.904c29.981,0.036,59.904,4.095,88.677,11.861c28.779,7.76,56.43,19.171,82.051,33.808
							c25.644,14.586,49.308,32.363,70.122,52.794c10.359,10.268,20.041,21.158,28.723,32.747
							c8.695,11.563,16.487,23.759,22.792,36.613c-10.183-10.067-20.595-19.536-31.397-28.389
							c-5.413-4.41-10.886-8.697-16.465-12.809l-8.406-6.083c-2.832-1.979-5.705-3.897-8.542-5.84
							c-22.907-15.311-47.018-28.274-71.862-38.962c-49.707-21.352-102.704-32.937-155.693-33.044
							c-52.992,0.057-106.002,11.647-155.72,32.99c-24.849,10.688-48.965,23.656-71.869,38.975
							c-11.469,7.641-22.587,15.92-33.402,24.752C393.183,498.977,382.779,508.455,372.607,518.53z"/>
					</g>
				</g>
			</g>
		</g>
	</g>
</g>
</svg>
