<?xml version="1.0" encoding="utf-8"?>
<!-- Generator: Adobe Illustrator 23.1.0, SVG Export Plug-In . SVG Version: 6.00 Build 0)  -->
<svg version="1.1" id="Layer_1" xmlns="http://www.w3.org/2000/svg" xmlns:xlink="http://www.w3.org/1999/xlink" x="0px" y="0px"
	 viewBox="0 0 24 24" style="enable-background:new 0 0 24 24;" xml:space="preserve">
<style type="text/css">
	.st0{fill:#FFF200;}
</style>
<g>
	<rect x="-0.5" y="-0.5" width="25.1" height="25.1"/>
	<g>
		<path class="st0" d="M3,2.4c0,0,0.2-0.7,0.8-0.6c0,0,0.4,0.3,1.6,0.7l0.1,0.1c0,0,0.2,0.3,0.8,2L8.2,10c0,0,0.9,0,3.1-1
			c0,0,4.2-1.8,6-2.5c0,0,1.4-0.6,2.4-0.5c0,0,0.7,0,1.1,0.6c0.3,0.3,0.2,2.1,0.2,2.1s-0.2-0.5-0.8-0.6c-0.1,0-0.5-0.1-1.3,0.2
			L17.1,9l-2.2,0.9l-2.5,0.9c0,0-0.7,0.2-1.7,0.6l-0.9,0.3c0,0,1.3,1.1,1.8,1.5c0.5,0.4,2.9,2.5,2.9,2.5L17,18c0,0,3,2.9,3,3.6
			c0,0,0.1,0.3-0.6,0.5c0,0-0.6,0-1.1,0c-0.1,0-0.2-0.1-0.3-0.2c-0.2-0.3-0.8-1-1-1.2l-1.5-1.5l-2.1-1.9l-2.8-2.6L9.8,14
			c0,0,2.3,5.8,2.1,6c0,0,0.1,0.2-0.4,0.4c0,0-0.8,0.3-1.4,0c0,0-0.8-0.6-1.2-1.1c-0.5-0.5-1-1.1-1.3-1.2c-0.2-0.2-0.8-0.5-0.8-0.5
			s-0.5-0.2-0.5,0.2c0,0.1,0,0.2,0.1,0.2c0,0-0.4-0.1-0.6-0.6c0,0-0.4-0.7,0.1-1.3c0,0,0.3-0.5,1.3-0.4c0.5,0.1,1.3,0.4,2.1,1.7
			l-1.7-4.5L7,12.1c0,0-0.2,0-0.7-0.1c0,0-0.7-0.1-1-0.7c0,0-0.4-0.7,0-1l0.3-0.1l0.2,0l0.4,0.1L4.8,7L3,2.4z"/>
	</g>
</g>
</svg>
