<?xml version="1.0" encoding="utf-8"?>
<!-- Generator: Adobe Illustrator 23.1.0, SVG Export Plug-In . SVG Version: 6.00 Build 0)  -->
<svg version="1.1" id="Layer_1" xmlns="http://www.w3.org/2000/svg" xmlns:xlink="http://www.w3.org/1999/xlink" x="0px" y="0px"
	 viewBox="0 0 497 500" style="enable-background:new 0 0 497 500;" xml:space="preserve">
<style type="text/css">
	.st0{fill:#FFF200;}
</style>
<g>
	<g>
		<path class="st0" d="M248.5,497.2c-66,0-128.1-25.7-174.8-72.4C27,378.1,1.3,316,1.3,250c0-66,25.7-128.1,72.4-174.8
			C120.4,28.5,182.5,2.8,248.5,2.8s128.1,25.7,174.8,72.4C470,121.9,495.7,184,495.7,250c0,66-25.7,128.1-72.4,174.8
			C376.6,471.5,314.5,497.2,248.5,497.2z M248.5,14.8C118.8,14.8,13.3,120.3,13.3,250c0,129.7,105.5,235.2,235.2,235.2
			S483.7,379.7,483.7,250C483.7,120.3,378.2,14.8,248.5,14.8z"/>
	</g>
	<path class="st0" d="M248.5,50.2C138.1,50.2,48.7,139.6,48.7,250s89.5,199.8,199.8,199.8S448.3,360.4,448.3,250
		S358.9,50.2,248.5,50.2z M374.1,214.3c-3.2,2.3-6.4,4.6-9.6,7c-21,15.3-42.1,30.6-63.1,45.9c0.9,2.7,1.7,5.4,2.6,8
		c8.5,26.1,16.9,52.1,25.4,78.2c1.3,4-3.8,8.2-7.3,5.6c-3.2-2.3-6.4-4.6-9.6-7c-21.3-15.5-42.6-31-64-46.5c-2.3,1.7-4.7,3.4-7,5.1
		c-22.2,16.1-44.3,32.2-66.5,48.3c-3.6,2.6-8.6-1.7-7.3-5.6c1.2-3.7,2.4-7.5,3.7-11.2c8.1-25,16.2-50,24.4-74.9
		c-2.1-1.5-4.2-3-6.2-4.5c-22.2-16.1-44.3-32.2-66.5-48.3c-3.8-2.8-2.8-9.3,2.5-9.3c3.9,0,7.9,0,11.8,0c26.2,0,52.4,0,78.6,0
		c0.8-2.5,1.6-5.1,2.5-7.6c8.4-25.8,16.8-51.6,25.1-77.4c0.1-1.8,1.3-3.1,2.8-3.8c0.7-0.3,1.4-0.5,2.2-0.5c0,0,0.1,0,0.1,0
		c0.1,0,0.2,0,0.2,0c0.7,0,1.4,0.2,2.1,0.5c1.5,0.7,2.7,2,2.8,3.8c1.1,3.5,2.3,7,3.4,10.5c8.1,24.8,16.1,49.7,24.2,74.5
		c2.7,0,5.5,0,8.2,0c27.4,0,54.8,0,82.2,0C376.9,205,377.9,211.6,374.1,214.3z M407.2,217.4c-3.4-16.1-9.1-31.7-17.1-46.1
		c-28.5-51.1-83.2-83-141.6-83.3c-6.4,0-6.4-10,0-10c17.8,0.1,35.6,2.7,52.5,8.2c58.4,18.8,103.2,68.6,115.8,128.5
		C418.2,221,408.5,223.7,407.2,217.4z M410.3,257.3c0.4-9.6,0-19.1-1.2-28.6c-0.8-6.4,9.2-6.3,10,0c1.2,9.5,1.5,19,1.2,28.6
		C420.1,263.7,410.1,263.8,410.3,257.3z"/>
</g>
</svg>
