<svg width="27" height="28" viewBox="0 0 27 28" fill="none" xmlns="http://www.w3.org/2000/svg">
<path d="M25.5534 5.21121C25.5534 5.21121 24.1777 2.46158 23.7633 2.36442L23.6678 0.606996L22.9336 2.17355L22.741 0.319824L21.4951 2.07811C21.4951 2.07811 17.9674 2.51145 15.8274 7.51632C15.0252 7.65905 14.0751 7.75191 13.9229 7.42948C13.9229 7.42948 15.3992 5.76578 15.4361 5.38231C15.4361 5.38231 16.2607 5.29289 16.4584 5.27655C16.5599 5.26537 16.4438 5.08998 16.5513 4.70909C16.5513 4.70909 16.768 4.63858 16.8101 4.56292C16.9322 4.33937 16.6485 3.80544 16.6743 3.5518C16.694 3.35663 17.1876 3.38758 17.3182 3.24399C17.43 3.12534 17.4911 2.69028 16.8299 2.83645C16.8299 2.83645 16.0088 0.841721 14.1413 2.01878C14.1413 2.01878 13.2953 2.71436 13.7062 3.71258C13.7062 3.71258 9.17339 4.4993 9.40639 4.95929C9.40639 4.95929 6.76338 5.82252 7.42714 6.08734C7.42714 6.08734 7.5905 6.23265 7.77364 6.30487C7.77364 6.30487 6.37647 7.81639 7.48647 8.66157C7.48647 8.66157 7.56385 8.73981 7.72377 8.84815C7.14857 8.87996 6.55101 9.05364 5.95517 9.49471C5.95517 9.49471 -0.183777 9.55834 0.455912 17.551C0.455912 17.551 3.14106 16.0163 3.90886 11.222C3.90886 11.222 4.35681 9.94353 4.86753 10.3898C4.86753 10.3898 3.33279 11.7964 4.48492 15.313C4.48492 15.313 4.35767 17.1048 2.37498 17.8726C2.37498 17.8726 1.73615 18.1297 1.8634 20.6222C1.8634 20.6222 0.968351 24.3296 1.8634 24.9711C1.8634 24.9711 1.09474 26.6992 2.56585 26.6992C2.56585 26.6992 3.71626 26.891 3.52453 25.9959C3.52453 25.9959 3.01295 25.1009 2.69224 25.0373C2.69224 25.0373 2.81949 23.886 2.30963 23.6943L2.56585 21.2017C2.56585 21.2017 3.26831 20.3703 3.58729 19.029C3.58729 19.029 6.24062 18.3584 6.81669 16.5683C6.81669 16.5683 7.80717 17.3025 6.97747 19.0608C6.97747 19.0608 6.33864 19.924 7.64811 20.8509C7.64811 20.8509 9.43907 22.0649 9.69443 22.8654C9.69443 22.8654 9.69443 23.5679 10.3969 23.5997C10.3969 23.5997 10.6858 23.9195 10.2051 24.0803C10.2051 24.0803 9.72452 24.6237 10.844 25.2625C10.844 25.2625 12.187 26.0948 11.9634 24.9126C11.9634 24.9126 11.451 22.641 10.0461 21.9067C10.0461 21.9067 8.19236 19.8613 9.02378 18.8708C9.02378 18.8708 10.1106 17.8141 10.206 16.729C10.206 16.729 15.0028 16.9844 15.8979 16.2811C15.8979 16.2811 16.1214 17.4315 17.2073 17.4315C17.2073 17.4315 16.504 19.924 16.9193 21.1389L16.7276 24.0175C16.7276 24.0175 16.0561 24.6873 16.5995 25.425C16.5995 25.425 16.8875 25.7758 16.6957 26.0965C16.6957 26.0965 16.1825 27.2151 17.9098 27.5995C17.9098 27.5995 19.0284 27.7912 18.773 26.8961C18.773 26.8961 18.0044 25.8094 17.7825 25.3614C17.7825 25.3614 17.2701 21.9403 18.1333 21.1415C18.1333 21.1415 18.7412 21.0143 18.614 19.2242C18.614 19.2242 18.4222 18.1056 20.2441 18.7762C20.2441 18.7762 22.195 19.575 22.6103 23.1569C22.6103 23.1569 22.7702 23.3804 23.0582 23.4759C23.0582 23.4759 23.1537 23.6685 22.7074 23.8267C22.7074 23.8267 21.9388 24.5618 23.5071 25.425C23.5071 25.425 24.4657 25.6176 24.2749 24.8808L22.7109 19.7349C22.7109 19.7349 22.3902 18.3601 21.3679 17.9448C21.3679 17.9448 19.3843 17.2742 20.2158 16.1856C20.2158 16.1856 22.2311 11.2616 21.4315 8.35376C21.4315 8.35376 21.048 6.50004 22.0377 6.30831C22.0377 6.30831 22.3584 6.21287 22.7719 6.30831C22.7719 6.30831 23.6988 7.45872 24.6575 7.13973C24.6575 7.13973 25.2335 7.87486 25.8715 7.39509C25.8732 7.38649 26.7992 6.49144 25.5534 5.21121ZM15.1249 8.81118C15.0123 8.92811 14.8781 9.04504 14.7122 9.15595L14.4861 8.91951L15.1249 8.81118Z" fill="#AF633E"/>
</svg>
