<?xml version="1.0" encoding="iso-8859-1"?>
<!-- Generator: Adobe Illustrator 19.0.0, SVG Export Plug-In . SVG Version: 6.00 Build 0)  -->
<svg version="1.1" id="Layer_1" xmlns="http://www.w3.org/2000/svg" xmlns:xlink="http://www.w3.org/1999/xlink" x="0px" y="0px"
	 viewBox="0 0 512.001 512.001" style="enable-background:new 0 0 512.001 512.001;" xml:space="preserve">
<path style="fill:#636108;" d="M72.348,467.479v33.391c0,6.147-4.983,11.13-11.13,11.13s-11.13-4.983-11.13-11.13v-33.391
	c0-6.147,4.983-11.13,11.13-11.13S72.348,461.332,72.348,467.479z"/>
<path style="fill:#999B2D;" d="M512,500.87c0,6.147-4.983,11.13-11.13,11.13H11.13c-6.147,0-11.13-4.983-11.13-11.13
	c0-6.147,4.983-11.13,11.13-11.13H500.87C507.017,489.74,512,494.723,512,500.87z"/>
<path style="fill:#D3C58B;" d="M61.217,467.479C27.408,467.479,0,440.071,0,406.261s27.408-61.217,61.217-61.217
	s61.217,27.408,61.217,61.217S95.027,467.479,61.217,467.479z"/>
<path style="fill:#E8DEB3;" d="M44.522,389.566c0,6.147-4.983,11.13-11.13,11.13s-11.13-4.983-11.13-11.13s4.983-11.13,11.13-11.13
	S44.522,383.418,44.522,389.566z M66.783,378.435c-6.147,0-11.13,4.983-11.13,11.13s4.983,11.13,11.13,11.13
	c6.147,0,11.13-4.983,11.13-11.13S72.93,378.435,66.783,378.435z M33.391,411.827c-6.147,0-11.13,4.983-11.13,11.13
	c0,6.147,4.983,11.13,11.13,11.13s11.13-4.983,11.13-11.13C44.522,416.81,39.539,411.827,33.391,411.827z"/>
<path style="fill:#636363;" d="M455.907,149.338L384.57,395.197c-1.412,4.868-5.859,8.032-10.685,8.032
	c-1.026,0-2.07-0.142-3.107-0.443c-5.904-1.713-9.301-7.887-7.588-13.792l71.337-245.859c1.713-5.904,7.888-9.301,13.792-7.588
	C454.223,137.259,457.62,143.433,455.907,149.338z"/>
<path style="fill:#B5B5B5;" d="M384.57,395.197c-7.456,25.698-24.474,46.954-47.917,59.852
	c-15.002,8.254-31.488,12.454-48.147,12.454c-9.375,0-18.803-1.329-28.056-4.014l-21.379-6.203
	c-29.471-8.552-46.491-39.485-37.939-68.956l0,0c8.553-29.471,39.485-46.49,68.956-37.939l106.896,31.016
	C382.886,383.118,386.283,389.293,384.57,395.197z"/>
<path style="fill:#C4C4C4;" d="M270.086,350.389l93.714,27.192c-7.602,8.682-16.737,16.065-27.147,21.792
	c-15,8.254-31.488,12.454-48.147,12.454c-9.375,0-18.803-1.329-28.056-4.014l-21.379-6.203
	c-14.343-4.162-25.722-13.633-32.654-25.647C218.935,354.336,245.034,343.122,270.086,350.389z"/>
<path style="fill:#B94B00;" d="M441.381,161.676L441.381,161.676c-17.711-5.139-27.903-23.662-22.764-41.374l27.915-96.206
	c5.139-17.711,23.662-27.903,41.374-22.764l0,0c17.711,5.139,27.903,23.662,22.764,41.374l-27.915,96.206
	C477.616,156.623,459.093,166.815,441.381,161.676z"/>
<path style="fill:#EA5F00;" d="M488.408,9.315l-27.915,96.206c-5.139,17.711-23.662,27.903-41.374,22.764l0,0
	c-0.599-0.174-1.188-0.365-1.769-0.57c0.141-2.461,0.55-4.944,1.267-7.413l27.915-96.206c5.139-17.711,23.662-27.903,41.374-22.764
	l0,0c0.599,0.174,1.188,0.365,1.769,0.57C489.532,4.363,489.124,6.846,488.408,9.315z"/>
<g>
</g>
<g>
</g>
<g>
</g>
<g>
</g>
<g>
</g>
<g>
</g>
<g>
</g>
<g>
</g>
<g>
</g>
<g>
</g>
<g>
</g>
<g>
</g>
<g>
</g>
<g>
</g>
<g>
</g>
</svg>
