<svg width="33" height="33" viewBox="0 0 33 33" fill="none" xmlns="http://www.w3.org/2000/svg">
<path d="M17.6289 7.67908L16.1289 9.67908L14.6289 7.67908H17.6289Z" fill="#2F4054"/>
<path d="M10.6288 24.1791V23.6791L9.07634 19.4097C8.63194 18.1881 8.51581 16.8713 8.73954 15.5907C8.96328 14.3102 9.51905 13.1107 10.3514 12.1122L11.1288 11.1791H11.6913C12.007 11.1792 12.3139 11.0753 12.5646 10.8834C12.8153 10.6916 12.9958 10.4225 13.0782 10.1178C13.112 9.99526 13.129 9.8687 13.1288 9.74158V7.35095L16.1289 7.49908V11.1791H17.6289L17.2432 12.5291C16.8482 13.912 16.9857 15.3927 17.6289 16.6791C17.3005 17.0074 17.0401 17.3971 16.8624 17.8261C16.6847 18.255 16.5932 18.7148 16.5932 19.1791C16.5932 19.6434 16.6847 20.1031 16.8624 20.5321C17.0401 20.961 17.3005 21.3508 17.6289 21.6791L20.9201 23.4028L10.6288 24.1791Z" fill="#F4CEAF"/>
<path d="M31.1289 27.2454C31.1289 27.6964 31.0401 28.1429 30.8676 28.5595C30.695 28.9761 30.4421 29.3547 30.1232 29.6736C29.8044 29.9924 29.4258 30.2453 29.0092 30.4179C28.5926 30.5904 28.1461 30.6792 27.6951 30.6792H9.27825C7.52361 30.679 5.78044 30.3963 4.11574 29.8417C3.46125 29.6234 2.90578 29.1794 2.54868 28.5891C2.19158 27.9988 2.05617 27.3007 2.16667 26.6196C2.27716 25.9386 2.62636 25.3191 3.15178 24.872C3.6772 24.4249 4.34457 24.1793 5.03449 24.1792H10.6289V23.6792H11.9745C12.9793 23.6791 13.9726 23.4658 14.8888 23.0534C15.805 22.641 16.6233 22.0388 17.2895 21.2867C17.3929 21.4256 17.5064 21.5567 17.6289 21.6792L26.1126 26.1229L25.7332 24.796L24.6914 21.1479L26.9076 20.0398L30.5245 25.3004C30.9181 25.8727 31.1288 26.5509 31.1289 27.2454Z" fill="#396795"/>
<path d="M27.1289 17.7522C27.1301 17.952 27.0908 18.1499 27.0135 18.3341C26.9361 18.5183 26.8223 18.685 26.6789 18.8241C26.3978 19.0983 26.021 19.2525 25.6283 19.2541C25.3955 19.2536 25.166 19.1986 24.9583 19.0934L22.0783 17.6534L19.1289 16.1791L17.6289 16.6791L15.1289 14.1791L17.6289 11.1791L20.1289 11.6791L21.7952 13.5541L24.1289 16.1791L23.1758 12.6847L22.6289 10.6791L20.6289 10.1791L21.6289 8.17908H22.6289L23.6289 8.67908L24.1289 10.6791L26.0627 13.9016C26.7603 15.0648 27.1289 16.3958 27.1289 17.7522Z" fill="#F4CEAF"/>
<path d="M21.6289 6.67914V8.17914L20.6289 10.1791L19.1289 8.67914L16.6289 7.01227L15.3789 6.17914L11.6289 7.17914V11.6791L8.62891 17.1791L9.03641 7.80852C9.09766 6.39784 9.38136 5.00568 9.87703 3.68352C10.0481 3.22583 10.3808 2.84666 10.8125 2.61771C11.2441 2.38876 11.7447 2.3259 12.2195 2.44101C12.3425 2.47099 12.4624 2.51242 12.5777 2.56476L16.6289 4.40601L21.6289 6.67914Z" fill="#F4CEAF"/>
<path d="M16.6289 4.40604V7.0123L15.3789 6.17917L11.6289 7.17917V9.17729C11.3036 8.74565 11.1281 8.21965 11.1289 7.67917V5.17917C11.1288 4.98761 11.1424 4.79628 11.1695 4.60666C11.2869 3.7935 11.6538 3.03682 12.2195 2.44104C12.3425 2.47101 12.4624 2.51244 12.5777 2.56479L16.6289 4.40604Z" fill="#F2C194"/>
<path d="M17.6289 16.6791C17.0292 17.2788 16.6651 18.074 16.6028 18.9198C16.5405 19.7655 16.7842 20.6055 17.2895 21.2866C16.6233 22.0387 15.805 22.6409 14.8888 23.0533C13.9726 23.4658 12.9792 23.6791 11.9745 23.6791H10.6288L9.07634 19.4097C8.63194 18.1881 8.51581 16.8713 8.73954 15.5907C8.96328 14.3102 9.51905 13.1108 10.3514 12.1122L11.1288 11.1791H11.6913C11.8398 11.1793 11.9875 11.1563 12.1288 11.111V12.1791C12.1287 12.3105 12.1544 12.4406 12.2046 12.562C12.2548 12.6834 12.3285 12.7937 12.4213 12.8866C12.5142 12.9795 12.6245 13.0531 12.746 13.1033C12.8674 13.1535 12.9975 13.1793 13.1289 13.1791C13.5946 13.1791 14.0539 13.0707 14.4705 12.8624C14.8871 12.6541 15.2494 12.3517 15.5288 11.9791L16.1289 11.1791H17.6289L17.2432 12.5291C16.8482 13.912 16.9857 15.3927 17.6289 16.6791Z" fill="#8ACCE7"/>
<path d="M18.6289 8.67908C19.4573 8.67908 20.1289 8.0075 20.1289 7.17908C20.1289 6.35065 19.4573 5.67908 18.6289 5.67908C17.8005 5.67908 17.1289 6.35065 17.1289 7.17908C17.1289 8.0075 17.8005 8.67908 18.6289 8.67908Z" fill="#262D43"/>
<path d="M18.629 5.17908C18.629 5.87135 18.4237 6.54809 18.0391 7.12371C17.6545 7.69933 17.1079 8.14797 16.4683 8.41291C15.8287 8.67784 15.125 8.74717 14.446 8.61212C13.767 8.47707 13.1433 8.14371 12.6538 7.6542C12.1643 7.16469 11.831 6.54101 11.6959 5.86203C11.5609 5.18306 11.6302 4.47928 11.8951 3.83971C12.1601 3.20013 12.6087 2.65349 13.1843 2.2689C13.7599 1.88431 14.4367 1.67905 15.129 1.67908C16.0571 1.67941 16.9472 2.04827 17.6035 2.70457C18.2598 3.36088 18.6286 4.25092 18.629 5.17908Z" fill="#2F4054"/>
<path d="M23.1289 30.0608C23.1292 30.2729 23.0878 30.4829 23.007 30.679H21.5107C21.6499 30.679 21.7851 30.632 21.8942 30.5457C22.0034 30.4593 22.0802 30.3386 22.1123 30.2032C22.1443 30.0677 22.1297 29.9254 22.0708 29.7993C22.0119 29.6732 21.9121 29.5707 21.7876 29.5083L17.3939 27.3115C17.1213 27.1755 16.821 27.1045 16.5164 27.1039C16.0786 27.102 15.653 27.2483 15.3089 27.519L15.1114 27.674L11.6114 26.7196C10.3025 26.3615 8.93589 26.2645 7.58951 26.434L5.62888 26.679L5.50513 25.6865L7.46576 25.4415C8.94166 25.256 10.4396 25.3624 11.8745 25.7546L14.9033 26.5808C15.3828 26.2676 15.9436 26.1018 16.5164 26.1039C16.9763 26.1046 17.4298 26.2118 17.8414 26.4171L22.2345 28.614C22.504 28.7474 22.7306 28.9537 22.8887 29.2094C23.0468 29.4652 23.13 29.7602 23.1289 30.0608Z" fill="#26507A"/>
<path d="M26.679 18.8239C26.3978 19.0982 26.0211 19.2524 25.6284 19.254C25.3956 19.2535 25.1661 19.1985 24.9584 19.0933L22.0784 17.6533C22.0334 17.4884 22.0031 17.3198 21.9877 17.1496L21.7146 14.1471C21.6965 13.9458 21.7241 13.7431 21.7952 13.554L24.129 16.179L23.1759 12.6846C23.4234 12.707 23.6599 12.7972 23.8594 12.9455C24.0589 13.0937 24.2136 13.2941 24.3065 13.5246L26.0727 17.9415L26.679 18.8239Z" fill="#F2C194"/>
<path d="M26.9076 20.0396L24.6914 21.1478L24.1289 19.179C23.683 19.0304 23.2901 18.755 22.9983 18.3866C22.7065 18.0182 22.5284 17.5727 22.4858 17.1046L22.2126 14.1021C22.1945 13.8997 22.2497 13.6975 22.3682 13.5324C22.4868 13.3674 22.6608 13.2504 22.8584 13.203C23.056 13.1555 23.2641 13.1807 23.4447 13.274C23.6253 13.3672 23.7663 13.5223 23.842 13.7109L25.6289 18.179L26.9076 20.0396Z" fill="#F4CEAF"/>
<path d="M22.1289 30.061C22.1287 30.2249 22.0635 30.382 21.9477 30.4979C21.8318 30.6138 21.6747 30.679 21.5108 30.6791H14.1289V27.4066L15.1289 27.6791C15.42 27.3877 15.7955 27.1954 16.202 27.1294C16.6086 27.0635 17.0256 27.1272 17.3939 27.3116L21.787 29.5085C21.8897 29.5598 21.9761 29.6386 22.0365 29.7362C22.0968 29.8338 22.1288 29.9463 22.1289 30.061Z" fill="#F4CEAF"/>
<path d="M16.129 7.49908V10.1791H13.629C13.4438 10.1792 13.2591 10.1586 13.0784 10.1178C13.1121 9.99526 13.1291 9.8687 13.129 9.74158V7.35095L16.129 7.49908Z" fill="#F2C194"/>
<path d="M16.1289 6.17908V9.67908H13.6289C13.0985 9.67901 12.5898 9.46827 12.2148 9.09322C11.8397 8.71816 11.629 8.20949 11.6289 7.67908V5.17908C11.6287 5.01177 11.6406 4.84467 11.6645 4.67908H14.6289C15.0267 4.67918 15.4082 4.83725 15.6895 5.11853C15.9707 5.39981 16.1288 5.78128 16.1289 6.17908Z" fill="#F4CEAF"/>
<path d="M12.6289 6.67908C12.905 6.67908 13.1289 6.45522 13.1289 6.17908C13.1289 5.90293 12.905 5.67908 12.6289 5.67908C12.3528 5.67908 12.1289 5.90293 12.1289 6.17908C12.1289 6.45522 12.3528 6.67908 12.6289 6.67908Z" fill="#2F4054"/>
<path d="M14.1289 6.67908C14.405 6.67908 14.6289 6.45522 14.6289 6.17908C14.6289 5.90293 14.405 5.67908 14.1289 5.67908C13.8528 5.67908 13.6289 5.90293 13.6289 6.17908C13.6289 6.45522 13.8528 6.67908 14.1289 6.67908Z" fill="#2F4054"/>
<path d="M16.1289 6.17908C16.1289 5.91386 16.2343 5.65951 16.4218 5.47197C16.6093 5.28443 16.8637 5.17908 17.1289 5.17908C17.3941 5.17908 17.6485 5.28443 17.836 5.47197C18.0236 5.65951 18.1289 5.91386 18.1289 6.17908V7.17908C18.1289 7.44429 18.0236 7.69865 17.836 7.88618C17.6485 8.07372 17.3941 8.17908 17.1289 8.17908H16.1289V6.17908Z" fill="#F2C194"/>
<path d="M28.5925 26.2934L28.1288 27.179L26.1125 26.1228L25.7332 24.7959L28.5925 26.2934Z" fill="#26507A"/>
</svg>
