<svg width="31" height="31" viewBox="0 0 31 31" fill="none" xmlns="http://www.w3.org/2000/svg">
<g clip-path="url(#clip0)">
<path d="M20.2002 6.10681C20.2002 6.10681 21.2557 6.66558 21.3799 6.72769C21.3799 6.72769 21.8145 7.03809 22.249 7.65897C22.249 7.65897 22.9941 8.59025 23.3045 9.21113C23.6149 9.832 23.8632 10.4528 23.9874 10.6391C24.1116 10.8253 24.2358 11.322 23.9874 11.7566C23.739 12.1912 23.0561 12.8121 23.0561 12.8121L22.249 12.9362C22.249 12.9362 21.504 12.9362 21.1314 12.5016L22.0006 12.1912L22.8698 11.5083C22.8698 11.5083 23.3044 11.322 23.1802 11.0736C23.0561 10.7632 22.8077 10.4528 22.8077 10.4528C22.8077 10.4528 22.0006 9.52148 21.8764 9.45937C21.7523 9.39727 21.0072 8.65224 20.883 8.34183C20.883 8.34183 20.5105 7.90722 20.138 7.90722C19.7655 7.90722 19.2067 7.72096 19.2067 7.72096L18.6479 6.97593L20.2002 6.10681Z" fill="#FFD15C"/>
<path d="M21.5039 12.6878C22.3954 12.6878 23.1182 11.965 23.1182 11.0735C23.1182 10.182 22.3954 9.45923 21.5039 9.45923C20.6124 9.45923 19.8896 10.182 19.8896 11.0735C19.8896 11.965 20.6124 12.6878 21.5039 12.6878Z" fill="#E8EAE8"/>
<path d="M21.6903 11.6947L21.5662 11.0738L22.0628 10.7013L22.4974 11.0738L22.3112 11.6947H21.6903Z" fill="#2F4251"/>
<path d="M20.4487 12.1913L20.9454 12.5638L21.4421 12.5018L21.2559 12.1292L20.635 11.943L20.4487 12.1913Z" fill="#2F4251"/>
<path d="M20.4486 11.2602L20.8832 10.8256L20.759 10.2668H20.3244L20.1382 10.8877L20.4486 11.2602Z" fill="#2F4251"/>
<path d="M21.3799 9.89424L21.9387 10.0805L22.3733 9.83214L21.9387 9.52173H21.3799V9.89424Z" fill="#2F4251"/>
<path d="M22.932 10.3289H22.8699L22.932 10.8876L23.1182 11.2601C23.1182 11.198 23.1182 11.136 23.1182 11.136C23.1182 10.8256 23.0561 10.5151 22.932 10.3289Z" fill="#2F4251"/>
<path d="M22.8078 12.0671V11.943L22.4974 12.1292L22.0627 12.5639H22.1249C22.4353 12.5018 22.6215 12.3155 22.8078 12.0671Z" fill="#2F4251"/>
<path d="M8.52804 9.39755L8.34179 9.45966C8.34179 9.45966 8.34179 9.08714 7.59676 8.21796C7.59676 8.21796 7.1001 6.79002 7.03799 6.4175C7.03799 6.1071 7.1001 6.04499 7.1001 6.04499C7.1001 6.04499 7.28635 5.48622 7.22425 4.98956C7.16214 4.55494 7.16214 4.05827 7.16214 4.05827C7.16214 4.05827 7.03799 3.87202 6.91378 4.05827C6.78963 4.24453 6.78963 4.55494 6.78963 4.55494C6.78963 4.55494 6.78963 4.86535 6.85174 4.92745C6.85174 4.92745 6.72758 4.92745 6.66548 4.74119C6.60337 4.55494 6.66548 4.43079 6.66548 4.43079C6.66548 4.43079 6.72758 4.18242 6.72758 4.12038C6.72758 4.05833 6.91384 3.68576 6.91384 3.68576C6.91384 3.68576 6.97595 3.62365 6.91384 3.4995C6.91384 3.4995 6.85173 3.4374 6.78969 3.4995C6.78969 3.4995 6.78969 3.37535 6.72758 3.31325C6.60343 3.25114 6.60343 3.31325 6.60343 3.31325L6.47928 3.4995C6.47928 3.4995 6.35513 3.31325 6.23092 3.4374C6.16881 3.56155 5.92051 3.87202 5.85841 3.99617C5.85841 3.99617 5.61004 4.24453 5.548 4.74119V5.0516C5.548 5.0516 5.48589 5.23786 5.6101 5.48622C5.6101 5.48622 5.73425 6.04499 5.85846 6.23125C5.98262 6.4175 5.98262 6.60376 5.98262 6.60376L6.16887 7.47294C6.16887 7.47294 6.54138 9.2734 6.72764 9.70802C6.9139 10.2047 7.22431 10.9497 7.22431 10.9497C7.22431 10.9497 7.41056 11.5085 8.09348 11.3843C8.77641 11.1981 9.95605 10.8256 10.2665 10.1426C10.5769 9.52176 10.0181 9.27346 10.0181 9.27346L8.52804 9.39755Z" fill="#FFD15C"/>
<path d="M15.1091 17.9652C15.1091 17.9652 15.73 20.5106 16.475 21.0694C17.2201 21.6282 17.2822 22.3732 17.2822 22.3732C17.2822 22.3732 17.6547 23.3666 18.7722 23.7391L19.4551 24.1116L20.2623 22.1249C20.2623 22.1249 19.7035 22.0008 19.5172 21.504C19.331 21.0073 19.1447 20.0761 19.1447 20.0761C19.1447 20.0761 19.0206 19.0207 18.8964 18.5239C18.7722 18.0893 18.2755 17.5927 18.2755 17.5927L15.1091 17.9652Z" fill="#F5B54C"/>
<path d="M18.6479 23.6771C18.6479 23.6771 19.3309 23.615 19.6413 22.9321C19.9517 22.3112 19.9517 22.125 19.7655 21.9387C19.7655 21.9387 20.3864 22.1871 20.5726 22.3112C20.5726 22.3112 21.4418 22.9321 21.8764 23.7392C22.1248 24.2358 22.5593 24.8567 22.8698 25.2292C22.994 25.4155 23.1182 25.6017 23.2423 25.788C23.3665 25.9743 23.6148 26.2847 23.9252 26.4089C23.9252 26.4089 24.3599 27.278 24.1115 27.5885C23.8631 27.8989 23.5527 28.2094 23.5527 28.2094L23.1802 28.2715L22.6835 27.899C22.6835 27.4023 22.311 26.8435 21.7523 26.2227C21.566 26.0364 21.3797 25.8502 21.1314 25.726C20.6347 25.3535 19.7034 24.6085 19.5792 24.4843C19.455 24.1738 18.6479 23.6771 18.6479 23.6771Z" fill="#F26F5A"/>
<path d="M24.422 26.9676L24.7945 26.533C24.7945 26.533 25.167 26.6571 25.167 27.2159L25.3533 27.4021L25.2291 27.6505H24.9187V27.8989L25.105 28.023L24.9187 28.2093L24.6083 28.2714C24.6083 28.2714 24.1737 28.9543 24.1737 29.1406C24.1116 29.3889 24.2358 29.451 24.2358 29.451L24.1737 29.6372H24.0496L23.9875 29.8235L24.1116 29.9476L23.9875 30.1339H23.8012L23.6771 30.258L23.8012 30.3822L23.4908 30.5063L23.3666 30.4442L23.2425 30.5684L23.3046 30.6925L23.1183 30.8167L22.9942 30.7546C22.9942 30.7546 22.6838 30.9408 22.5596 30.8787L22.9942 30.0096L24.422 26.9676Z" fill="#425A6B"/>
<path d="M22.4973 27.4024C22.4973 27.4024 22.6836 27.5886 22.6836 27.7128C22.6836 27.7128 23.1182 27.5886 23.1802 27.8369C23.1802 27.8369 23.8632 27.5886 23.8632 27.216C23.8632 26.9056 23.8011 26.5952 23.8011 26.5952L23.8632 26.2227C23.8632 26.2227 24.2978 26.2227 24.3598 26.2848C24.4219 26.3469 24.6082 26.4089 24.7323 26.4089C24.7323 26.4089 24.9807 27.1539 24.6702 27.6506C24.3598 28.1473 24.0494 28.644 23.9252 29.0786C23.8011 29.5131 23.4906 30.4445 22.5593 30.7549C22.5593 30.7549 22.373 30.6928 22.5593 30.2582C22.7456 29.8857 22.7456 28.8303 22.7456 28.8303C22.7456 28.8303 22.6835 27.9611 22.373 27.3402C22.3732 27.3403 22.4352 27.3403 22.4973 27.4024Z" fill="#E8EAE8"/>
<path d="M16.2888 17.9031C16.2888 17.9031 16.8476 18.7102 17.2201 18.6481C17.5926 18.586 17.5926 18.3997 17.5926 18.3997L18.9585 18.5239L18.5239 17.2201L17.6547 17.3442L16.2888 17.9031Z" fill="#344A5E"/>
<path d="M15.6678 15.1094L14.4882 15.3577C14.4882 15.3577 12.6256 16.5994 12.191 16.9099C12.191 16.9099 10.8251 17.5928 11.0113 18.7725C11.1355 19.9521 11.0735 20.3246 11.0735 20.3246H13.4327C13.4327 20.3246 13.3706 19.5175 13.3085 19.3312C13.3085 19.3312 14.7365 18.7104 15.2332 18.7104C16.6611 18.7104 17.5924 17.7791 17.5924 17.7791L15.6678 15.1094Z" fill="#FFD15C"/>
<path d="M14.4883 15.3576C14.4883 15.3576 15.4196 15.8543 15.9784 16.5993C16.5371 17.3443 16.7234 17.5927 16.7234 17.5927C16.7234 17.5927 17.4684 18.5861 17.2201 18.6481C17.2201 18.6481 17.4063 18.7102 17.5305 18.524C17.7167 18.3377 18.5239 17.7169 18.648 17.5927C18.7722 17.4686 19.7034 16.6614 19.7034 15.668C19.7034 14.6747 19.6413 13.9917 19.4551 13.7434C19.2067 13.495 18.3375 13.2467 18.3375 13.2467L15.8542 13.9297L14.4263 14.9231C14.4883 14.861 14.6746 14.9231 14.4883 15.3576Z" fill="#425A6B"/>
<path d="M17.4684 13.4951L15.8542 13.9297L14.4263 14.9231C14.4263 14.9231 14.6125 14.9231 14.4263 15.3577C14.6125 15.2336 14.9229 15.0473 15.2954 14.9852C15.7921 14.9231 16.1646 14.4886 16.1646 14.4886C16.1646 14.4886 16.3509 14.1161 17.0338 13.8677C17.3443 13.8056 17.4684 13.6193 17.4684 13.4951Z" fill="#344A5E"/>
<path d="M14.7367 3.80957L14.6746 4.36834V7.2243H12.6879L12.1292 5.11337L13.8055 3.00244C13.7434 3.06455 14.6125 3.12665 14.7367 3.80957Z" fill="#F5B54C"/>
<path d="M11.1977 2.5681L11.1356 2.94061C11.1356 2.94061 11.0735 3.12687 11.1977 3.25102C11.2599 3.37517 11.3219 3.62354 11.3219 3.62354C11.3219 3.62354 11.0735 3.99605 11.3219 4.1202L11.4461 4.1823C11.4461 4.1823 11.3839 4.49271 11.5082 4.55482C11.5703 4.61692 11.5703 4.61692 11.5703 4.61692L11.5082 4.67903C11.5082 4.74113 11.5703 4.92739 11.5082 5.17569C11.5082 5.17569 11.4461 5.67236 12.129 5.67236C12.812 5.67236 13.9916 4.92733 14.24 3.68564L14.0537 2.31974L13.557 1.45056H12.0669C12.0669 1.45056 11.1977 1.63682 11.1977 2.5681Z" fill="#FFD15C"/>
<path d="M14.9848 3.00277C14.9848 3.93405 14.6744 4.43072 14.6744 4.43072C14.2398 4.12031 14.4261 3.93405 14.3019 3.31318C14.2398 3.06481 14.1157 2.94066 13.9915 3.00277C13.7431 3.00277 13.619 3.25113 13.619 3.43739V3.8099L13.3085 3.68569C13.3085 3.62358 13.3085 3.49943 13.3085 3.37528C13.3085 3.12692 13.0602 2.56815 13.0602 2.56815C13.0602 2.56815 12.7498 2.63025 12.8739 2.00938C12.9981 1.45061 12.0668 1.76102 12.0668 1.76102C11.3218 1.82312 11.2597 2.50604 11.2597 2.50604C11.1355 2.25768 11.1975 2.07143 11.2597 1.88517C11.2597 1.94727 11.1975 2.00932 11.1355 2.07143C11.1355 2.07143 11.1355 1.82306 11.3218 1.63681L11.3839 1.5747C11.3218 1.5747 11.1976 1.63681 11.1355 1.76096C11.1355 1.76096 11.2597 1.5747 11.4459 1.5126C11.6322 1.32634 11.8184 1.20219 11.9426 1.14009C11.9426 1.14009 11.9426 1.14009 11.8805 1.14009C11.8805 1.14009 11.8805 1.14009 11.9426 1.14009C12.0667 1.07798 12.1288 1.07798 12.1288 1.07798C12.0667 1.01588 12.0047 0.891724 12.0047 0.891724C12.0668 0.953829 12.1909 1.07798 12.253 1.07798C12.1909 1.01588 12.1289 0.953829 12.1289 0.891724C12.191 0.953829 12.3151 1.01588 12.3151 1.01588C13.8052 0.643362 14.4261 1.63675 14.4261 1.63675C14.8607 1.76102 14.9848 2.07148 14.9848 3.00277Z" fill="#425A6B"/>
<path d="M14.178 2.75431C13.9917 2.6922 13.7434 3.00267 13.7434 3.00267L13.6812 3.18893C13.6812 3.18893 13.6812 3.18893 13.6812 3.25103C13.6812 3.43729 13.6191 3.68565 13.6191 3.8719C13.8675 4.05816 13.9917 3.8098 13.9917 3.8098C14.24 3.8098 14.3021 3.43729 14.3642 3.31314C14.4884 3.12682 14.4263 2.81641 14.178 2.75431Z" fill="#FFD15C"/>
<path d="M18.9585 12.0671C19.1448 12.1292 19.1448 12.5017 19.1448 12.5017C19.1448 12.5017 19.1448 12.6259 19.2069 12.688C19.269 12.7501 19.2069 12.9364 19.2069 12.9364V12.9984C19.2069 12.9984 19.269 13.0605 19.331 13.1226C19.3931 13.2467 19.2069 13.1847 19.2069 13.1847C19.2069 13.1847 19.331 13.1847 19.331 13.3709C19.331 13.6193 19.4552 13.6813 19.4552 13.6813C19.4552 13.6813 17.4064 13.8055 17.0338 13.8676C16.5992 13.9297 15.1713 14.6747 15.1713 14.6747C15.1713 14.6747 14.5504 14.9851 14.4884 14.7989C14.4884 14.7989 14.3642 14.4264 14.4884 14.3643C14.6125 14.3021 14.4263 14.1159 14.4263 14.1159C14.4263 14.1159 14.4263 13.9917 14.4884 13.9296C14.5505 13.8675 14.3642 13.8675 14.3642 13.8675C14.3642 13.8675 14.2401 13.7434 14.3021 13.6192C14.3021 13.6192 14.3021 13.495 14.1779 13.3708C14.0538 13.2467 14.1158 13.1224 14.1158 13.1224C14.1158 13.1224 13.9296 12.8741 13.9917 12.7499C13.9917 12.7499 13.4329 11.8808 13.3088 11.5703C13.1846 11.2598 13.1846 11.0736 13.1846 11.0736C13.1846 11.0736 12.1292 9.64567 11.7567 9.33521C11.3842 9.02474 11.3221 9.14895 11.3221 9.14895L9.95609 10.5771C9.95609 10.5771 9.95609 10.3287 9.45943 10.0183C9.02481 9.7079 8.27979 9.39743 8.27979 9.39743L9.21107 8.52825C9.21107 8.52825 9.52148 8.15574 9.64569 7.84533C9.70779 7.53492 10.4528 6.7899 11.0736 6.7899C11.0736 6.7899 11.5083 6.35528 11.6945 6.41738C11.6945 6.41738 11.8187 6.29323 11.8808 6.29323C11.8808 6.29323 12.0049 5.79657 12.1912 5.85861C12.1912 5.85861 12.3153 5.42399 12.5016 5.67236C12.5016 5.67236 12.5637 6.35528 13.1225 6.60364C13.6812 6.91405 13.8675 6.97615 14.1158 6.47949C14.24 5.92072 14.24 5.92072 14.24 5.92072L14.7367 4.43066C14.7367 4.43066 14.7988 4.55482 14.985 4.61692C15.1713 4.61692 15.4196 4.61692 15.4817 4.74107C15.4817 4.74107 15.5438 4.80318 15.6058 4.74107C15.6679 4.67897 15.7921 4.74107 15.7921 4.74107C15.7921 4.74107 16.1025 4.74107 16.1646 4.80318C16.1646 4.80318 17.0959 4.92733 17.3443 4.80318C17.5305 4.67903 17.5305 4.74107 17.7168 4.86528C17.903 4.98943 18.0272 4.98943 18.0893 4.92739C18.1514 4.86528 18.2134 4.86528 18.2134 4.92739C18.2134 4.98949 18.2134 5.05154 18.2755 5.05154C18.3376 5.05154 18.3997 5.17569 18.3997 5.17569C18.3997 5.17569 18.4618 5.2378 18.648 5.2378C18.8343 5.2378 18.8343 5.36195 18.8343 5.36195C18.8343 5.36195 18.8964 5.42405 18.8964 5.36195C18.9585 5.29984 18.9585 5.42405 18.9585 5.42405L20.2623 6.10697C20.2623 6.10697 20.3244 6.47949 20.0761 7.03826C19.7656 7.53492 19.4552 7.78328 19.4552 7.78328L19.1448 7.65913C19.1448 7.65913 18.8964 7.47287 18.7723 7.53498C18.7102 7.59708 18.6481 7.53498 18.586 7.47287C18.5239 7.41077 18.3997 7.41077 18.3376 7.53498C18.3376 7.53498 18.5239 8.90088 18.5239 9.33544C18.586 9.83211 18.7102 11.198 18.8343 11.2601L18.9585 12.0671Z" fill="#67C5B8"/>
<path d="M9.70773 9.70779C9.33522 9.45943 8.83855 9.21112 8.59019 9.08691L8.27979 9.39732C8.27979 9.39732 9.02481 9.70773 9.45943 10.0182C9.89405 10.3286 9.95609 10.577 9.95609 10.577L10.2665 10.2666C10.2044 10.1423 10.0181 9.95609 9.70773 9.70779Z" fill="white"/>
<path d="M20.2001 6.10681C20.2001 6.10681 20.2622 6.47932 20.0138 7.03809C19.7655 7.53476 19.4551 7.78312 19.4551 7.78312" fill="#F26F5A"/>
<path d="M19.8276 5.85852V6.10688C19.8276 6.10688 19.8276 6.41729 19.6413 6.85191C19.455 7.28653 19.2067 7.53483 19.2067 7.53483L19.0825 7.65898H19.1446L19.5171 7.78313C19.5171 7.78313 19.8276 7.53477 20.0759 6.976C20.3243 6.41723 20.2622 6.04472 20.2622 6.04472L19.8276 5.85852Z" fill="white"/>
<path d="M11.0116 19.7036C11.0116 19.7036 11.0116 19.5795 11.0737 19.5174C11.1358 19.5174 12.5017 19.3311 12.9984 19.5795C13.4951 19.7657 13.3709 19.952 13.433 20.0141C13.433 20.1382 13.4951 20.3245 13.4951 20.4487C13.4951 20.4487 13.8055 21.1316 13.1226 22.4975C12.4397 23.8634 12.0051 25.726 12.0672 26.2227L11.8809 26.8435L10.2667 26.6573L9.9563 26.0985C9.9563 26.0985 10.7634 25.1672 10.8876 23.8634C11.0117 22.5596 11.1359 20.6971 11.1359 20.5108C11.0116 20.3245 11.0116 19.7036 11.0116 19.7036Z" fill="#F26F5A"/>
<path d="M7.03809 28.2714C7.03809 28.2714 7.10019 28.3955 7.28645 28.4576V28.6439L8.03147 28.706V28.5818H8.21773V28.7681H8.59024V28.5818C8.59024 28.5818 8.90065 28.5818 9.02486 28.5818L9.08697 28.7681H9.39737L9.52153 28.5197H9.64568L9.70778 28.6439H9.83193L9.95609 28.3955C9.95609 28.3955 10.5149 28.1472 10.7632 28.1472L10.8253 28.2713L11.0116 28.2092L10.9495 28.0229H11.0736V28.2713L11.4461 28.2092V27.9608L11.6945 27.8987L11.7566 28.1471L11.9429 28.085V27.8366L12.2533 27.5262C12.2533 27.5262 12.1912 26.7191 12.067 26.5328C11.9429 26.2845 11.0736 27.2158 11.0736 27.2158L9.21106 27.7745C9.21106 27.7747 7.28645 28.023 7.03809 28.2714Z" fill="#425A6B"/>
<path d="M7.03809 28.2715C7.03809 28.2715 7.03809 27.9611 7.28645 27.899C7.53481 27.8369 8.09358 27.6506 8.34188 27.4023C8.59024 27.154 9.39732 26.5952 9.39732 26.5952C9.39732 26.5952 9.76983 26.2227 9.76983 25.6018C9.76983 25.6018 9.89398 25.4156 9.95609 25.6018C10.0182 25.7881 9.95609 25.8502 10.1423 25.7881C10.3286 25.726 10.639 25.9122 10.577 26.2227L10.5149 26.3468C10.5149 26.3468 11.4461 26.9056 11.5703 26.471C11.7565 26.0364 11.8807 25.8501 11.8807 25.8501C11.8807 25.8501 12.2532 26.3468 12.067 26.7193C12.067 26.7193 11.2598 27.5885 10.4528 27.961C10.0802 28.1472 9.33521 28.4577 8.52808 28.3956C7.84522 28.3957 7.03809 28.2715 7.03809 28.2715Z" fill="#E8EAE8"/>
<path d="M23.1182 11.4464C23.1182 11.4464 22.8078 11.6327 22.6836 11.9431C22.5595 12.2535 22.1248 12.564 22.1248 12.564C22.1248 12.564 21.8144 12.8123 22.0007 13.0606C22.0007 13.0606 22.0628 13.1848 22.3111 12.9365C22.5595 12.6881 22.7457 12.5018 22.994 12.5018" fill="#FFD15C"/>
<path d="M23.3044 9.21127C23.2423 9.08711 23.1182 8.90086 23.0561 8.7146H21.2556C21.504 9.02501 21.8144 9.33547 21.9385 9.39752C22.0627 9.45963 22.8698 10.3909 22.8698 10.3909C22.8698 10.3909 23.1802 10.7013 23.2423 11.0118C23.2423 11.0739 23.2423 11.1359 23.2423 11.198H24.1736C24.1736 10.9497 24.1115 10.7014 24.0495 10.5772C23.8632 10.453 23.6148 9.89425 23.3044 9.21127Z" fill="#FFD15C"/>
<path d="M12.4395 5.61025C12.4395 5.61025 12.5636 6.29317 12.9982 6.54153C13.4949 6.78989 13.8054 6.91405 13.9295 6.60364C14.0537 6.29323 14.2399 5.61025 14.3641 5.36195C14.4262 5.11359 14.6125 4.67903 14.6125 4.67903C14.6125 4.67903 14.7366 4.55487 14.5504 4.43066C14.5504 4.43066 14.8608 4.49277 14.7987 4.74107C14.7987 4.74107 14.5504 5.29984 14.4262 5.61025C14.4262 5.61025 14.24 6.16902 14.1779 6.35528C14.1158 6.54153 14.0537 6.85194 13.8054 6.97615C13.6812 7.03826 13.6191 7.03826 13.4949 7.03826C12.9983 6.9141 12.5637 6.54159 12.4395 6.04487C12.4395 5.7344 12.4395 5.61025 12.4395 5.61025Z" fill="#F3F3F3"/>
</g>
<defs>
<clipPath id="clip0">
<rect width="30" height="30" fill="white" transform="translate(0.442871 0.891724)"/>
</clipPath>
</defs>
</svg>
