<svg width="31" height="31" viewBox="0 0 31 31" fill="none" xmlns="http://www.w3.org/2000/svg">
<path d="M13.6028 17.8281L10.7903 19.2344L9.85278 25.3281L7.50903 25.7969L8.32759 18.4287C8.36387 18.1033 8.4847 17.793 8.67805 17.5287C8.8714 17.2644 9.13055 17.0554 9.42974 16.9223L9.46138 16.9082L12.6653 15.4844L13.6028 17.8281Z" fill="#FEC9A3"/>
<path d="M13.6028 17.8281L10.7903 19.2344L9.46143 16.9082L12.6653 15.4844L13.6028 17.8281Z" fill="#F35244"/>
<path d="M18.6067 16.4219H14.0715L16.4153 23.9219L14.5403 24.3906L11.5772 16.348C11.4638 16.0404 11.4265 15.71 11.4683 15.3848C11.5101 15.0596 11.6299 14.7494 11.8174 14.4805C12.0049 14.2115 12.2546 13.9919 12.5453 13.8402C12.8359 13.6886 13.1589 13.6094 13.4868 13.6094H20.634C20.741 13.9306 20.7702 14.2726 20.7191 14.6073C20.668 14.942 20.5381 15.2598 20.3401 15.5345C20.1421 15.8091 19.8817 16.0328 19.5804 16.1871C19.279 16.3414 18.9452 16.4219 18.6067 16.4219Z" fill="#FEC9A3"/>
<path d="M25.7903 10.5531V15.9531H23.4465V15.0156L22.9778 15.4844L22.509 15.0156L23.4465 13.1406V10.3281L22.0403 8.92188H19.0713L20.634 13.6094H15.4778L14.8479 11.4057L14.5403 10.3281L13.134 9.39062H11.7278L10.8817 11.9295C10.8214 12.11 10.7251 12.2765 10.5987 12.4187L7.04028 16.4219L5.16528 15.0156L5.9856 14.0781H5.16528L5.63403 13.1406H6.80591L8.44653 11.2656L9.84985 7.75703C9.98908 7.40901 10.2294 7.1107 10.5398 6.90057C10.8502 6.69043 11.2164 6.57812 11.5913 6.57813H22.0075C22.3118 6.5781 22.6126 6.6439 22.8891 6.77104C23.1656 6.89817 23.4113 7.08361 23.6094 7.31465L25.3391 9.33262C25.6303 9.67259 25.7903 10.1055 25.7903 10.5531Z" fill="#FEC9A3"/>
<path d="M25.7903 10.5531V15.9531H23.4465V15.0156L22.9778 15.4844L22.509 15.0156L23.4465 13.1406V10.3281L22.0403 8.92188H19.0713L20.634 13.6094H15.4778L14.8479 11.4057C16.249 9.93876 17.4813 8.31948 18.5217 6.57813H22.0075C22.3118 6.5781 22.6126 6.6439 22.8891 6.77104C23.1656 6.89817 23.4113 7.08361 23.6094 7.31465L25.3391 9.33262C25.6303 9.67259 25.7903 10.1055 25.7903 10.5531Z" fill="#FEC093"/>
<path d="M16.4153 6.57812H14.0715V3.29688H17.8215V5.17188C17.8215 5.54484 17.6734 5.90252 17.4097 6.16624C17.1459 6.42997 16.7882 6.57812 16.4153 6.57812Z" fill="#FEC9A3"/>
<path d="M17.8215 3.29688H15.4778L14.0715 4.23438V2.35938C14.0715 2.11073 14.1703 1.87228 14.3461 1.69646C14.5219 1.52065 14.7604 1.42188 15.009 1.42188H17.8215C18.0702 1.42188 18.3086 1.52065 18.4844 1.69646C18.6603 1.87228 18.759 2.11073 18.759 2.35938C18.759 2.60802 18.6603 2.84647 18.4844 3.02229C18.3086 3.1981 18.0702 3.29688 17.8215 3.29688Z" fill="#FFB531"/>
<path d="M18.6067 16.4219H14.0715V13.6094H20.634C20.7411 13.9306 20.7702 14.2726 20.7191 14.6073C20.668 14.942 20.5381 15.2598 20.3402 15.5345C20.1422 15.8091 19.8818 16.0328 19.5804 16.1871C19.279 16.3414 18.9453 16.4219 18.6067 16.4219Z" fill="#F35244"/>
<path d="M26.7278 22.4934C26.7264 22.8437 26.6375 23.188 26.4693 23.4953C26.3011 23.8026 26.0588 24.063 25.7645 24.2529C24.5552 25.04 23.2007 25.5773 21.7807 25.8332L7.39946 28.4348C6.75775 28.551 6.1069 28.6095 5.45474 28.6094C5.4061 28.6094 5.35747 28.6088 5.30884 28.6082C4.56632 28.5983 3.82675 28.5127 3.10161 28.3527C2.69232 28.2652 2.31775 28.0594 2.02442 27.7609C1.73108 27.4623 1.5319 27.0842 1.45161 26.6734C1.42739 26.5463 1.41522 26.4173 1.41528 26.2879C1.4167 25.9376 1.50554 25.5932 1.67375 25.2859C1.84197 24.9787 2.08423 24.7182 2.37856 24.5283C3.58784 23.7412 4.94234 23.2039 6.36235 22.948L16.4557 21.1223L20.7436 20.3465C22.1675 20.0887 23.6284 20.1166 25.0415 20.4285C25.4507 20.516 25.8253 20.7218 26.1187 21.0204C26.412 21.3189 26.6112 21.697 26.6915 22.1078C26.7157 22.2349 26.7278 22.364 26.7278 22.4934Z" fill="#60D1E0"/>
<path d="M26.7278 22.4934C26.7264 22.8437 26.6375 23.188 26.4693 23.4953C26.3011 23.8026 26.0588 24.063 25.7645 24.2529C24.5552 25.04 23.2007 25.5773 21.7807 25.8332L7.39946 28.4348C6.75775 28.551 6.1069 28.6095 5.45474 28.6094C5.4061 28.6094 5.35747 28.6088 5.30884 28.6082C9.30786 27.1064 13.2237 24.7146 16.4557 21.1223L20.7436 20.3465C22.1675 20.0887 23.6284 20.1166 25.0415 20.4285C25.4507 20.516 25.8253 20.7218 26.1186 21.0204C26.412 21.3189 26.6112 21.697 26.6915 22.1078C26.7157 22.2349 26.7278 22.364 26.7278 22.4934Z" fill="#5AC6D4"/>
<path d="M28.6028 22.5156C28.6028 24.1318 27.9608 25.6818 26.818 26.8246C25.6752 27.9674 24.1252 28.6094 22.509 28.6094H6.10278C6.54684 27.8693 7.1375 27.2278 7.83849 26.7243C8.53949 26.2208 9.33601 25.8659 10.1792 25.6814L20.4817 23.4279C21.0304 23.3079 21.5331 23.033 21.9301 22.6358C22.3272 22.2386 22.6019 21.7357 22.7217 21.187C22.8414 20.6383 22.8012 20.0667 22.6057 19.5402C22.4102 19.0137 22.0678 18.5543 21.619 18.2166C21.326 17.9963 21.1028 17.8281 21.1028 17.8281H23.9153C25.1585 17.8281 26.3508 18.322 27.2298 19.2011C28.1089 20.0801 28.6028 21.2724 28.6028 22.5156Z" fill="#348FD9"/>
<path d="M24.3389 23.343C23.9653 23.942 23.4761 24.4604 22.8998 24.8681C22.3235 25.2757 21.6718 25.5644 20.9826 25.7172L13.4785 27.3104C12.6463 27.4852 11.9011 27.9446 11.3709 28.6094H10.2061C10.2922 28.4963 10.3625 28.4026 10.4035 28.3446C11.0707 27.3419 12.1048 26.6413 13.2834 26.3934L20.7852 24.8008C21.3515 24.6748 21.887 24.4372 22.3604 24.1019C22.8338 23.7665 23.2357 23.3403 23.5426 22.8479L24.3389 23.343Z" fill="#2D7DBF"/>
<path d="M24.7585 22.5125L23.8877 22.1653C24.024 21.8232 24.1161 21.4651 24.1618 21.0997L25.0921 21.216C25.0365 21.6606 24.9244 22.0963 24.7585 22.5125Z" fill="#2D7DBF"/>
<path d="M22.9094 27.1667C22.0123 27.5278 21.0798 27.7941 20.1273 27.9613C19.2226 28.1246 18.3283 28.341 17.449 28.6093H14.3916L15.802 28.1634L16.6574 27.8781C17.737 27.5207 18.8405 27.2403 19.9598 27.039C20.8474 26.882 21.7166 26.6342 22.5537 26.2996L22.9094 27.1667Z" fill="#2D7DBF"/>
<path d="M23.7607 26.7732L23.3279 25.9416C25.1105 25.0139 26.0851 23.7106 26.2246 22.068L27.1587 22.1473C26.9903 24.131 25.8471 25.6874 23.7607 26.7732Z" fill="#2D7DBF"/>
</svg>
