<svg width="22" height="22" viewBox="0 0 22 22" fill="none" xmlns="http://www.w3.org/2000/svg">
<path d="M12.9592 18.7509C11.9993 15.7311 9.32583 9.56514 6.33902 4.07068C6.1456 4.19999 5.95831 4.33258 5.7848 4.47064C4.6744 5.35459 4.0703 6.33787 4.15716 7.11219C4.73391 8.61753 5.36055 9.98283 6.22393 11.863C6.95231 13.4488 7.85617 15.4171 9.06831 18.1972C10.3489 18.7523 11.6753 18.9229 12.9592 18.7509Z" fill="#5E93D1"/>
<path d="M16.6594 17.1941C16.4255 12.9562 14.2283 5.64025 10.0681 2.53748C9.00562 2.75124 7.98908 3.13108 7.10229 3.61046C10.1502 9.21257 12.884 15.5337 13.8376 18.5754C14.8313 18.3161 15.7868 17.8516 16.6594 17.1941Z" fill="#5E93D1"/>
<path d="M4.84774 10.9975C4.32656 9.85389 3.89334 8.87301 3.48944 7.85254C3.05053 8.45708 2.40245 8.931 1.04262 9.33446C0.925339 9.95957 0.86145 10.6035 0.86145 11.2625C0.86145 11.5627 0.876985 11.8587 0.901928 12.1524C1.87952 12.143 2.76609 11.8014 4.35675 11.1866C4.51297 11.1264 4.67751 11.063 4.84774 10.9975Z" fill="#4B97F1"/>
<path d="M6.31122 14.1945C5.98325 13.4732 5.68656 12.8271 5.41437 12.2348C5.34698 12.088 5.28353 11.9499 5.21877 11.8092C5.03082 11.8812 4.84878 11.9514 4.67768 12.0175C3.04172 12.6496 2.10723 13.0098 1.01587 13.041C1.30796 14.7343 2.00899 16.2871 3.01481 17.5942C4.17685 15.9644 5.13453 14.9728 6.31122 14.1945Z" fill="#4B97F1"/>
<path d="M19.6872 13.4437C19.0466 11.1507 16.647 5.74115 14.5109 2.77359C13.4834 2.40075 12.3754 2.28829 11.278 2.37034C15.0684 5.72233 17.1046 12.1609 17.5008 16.4774C18.3526 15.6593 19.0976 14.6405 19.6872 13.4437Z" fill="#5E93D1"/>
<path d="M20.5287 13.7537C19.75 15.3636 18.7109 16.6828 17.5117 17.6667C17.4533 17.7781 17.3511 17.8627 17.2253 17.8936C15.6681 19.0777 13.8648 19.7155 12.0181 19.7155C10.9116 19.7155 9.79031 19.4842 8.69741 19.0079C7.93293 19.2086 7.23671 19.7315 6.62561 20.5677C8.01979 21.2629 9.59076 21.6558 11.2543 21.6558C16.1764 21.6558 20.2968 18.2321 21.3713 13.6371C20.9954 13.6485 20.649 13.6782 20.5287 13.7537Z" fill="#3D70E4"/>
<path d="M5.86283 20.0999C6.51857 19.1831 7.27736 18.5681 8.12192 18.2563C7.58455 17.0273 7.1091 15.96 6.68354 15.017C5.62565 15.7392 4.76862 16.6542 3.66806 18.2123C3.6475 18.2416 3.62365 18.2668 3.59827 18.2891C4.25466 19.0043 5.00973 19.627 5.84226 20.136C5.84904 20.1242 5.85451 20.1112 5.86283 20.0999Z" fill="#4B97F1"/>
<path d="M3.32512 6.30008L3.36625 6.21278C3.37063 6.20359 3.37675 6.19593 3.38179 6.18696C3.63581 5.37588 4.2712 4.53657 5.23019 3.7734C5.53958 3.52725 5.88462 3.29182 6.25351 3.06909C6.26445 3.06165 6.27408 3.05311 6.2859 3.04677C6.29071 3.04414 6.29596 3.04283 6.30078 3.04042C8.26208 1.87007 10.9631 1.1104 13.5437 1.59001C13.2997 1.33774 13.0645 1.13491 12.8411 0.989846C12.3239 0.910641 11.7941 0.869507 11.2546 0.869507C6.53773 0.869507 2.55736 4.01276 1.28723 8.31784C2.59499 7.84611 2.84551 7.3188 3.32512 6.30008Z" fill="#3D70E4"/>
<path d="M15.0838 2.05983C15.1486 2.11125 15.1967 2.1782 15.2249 2.25391C15.8758 3.15295 16.5318 4.23731 17.1534 5.38403C17.8468 4.79219 18.4465 4.50097 18.9911 4.32527C17.807 3.0057 16.2898 1.99244 14.572 1.41394C14.7416 1.61392 14.9123 1.83009 15.0838 2.05983Z" fill="#4B97F1"/>
<path d="M21.5409 12.7412C21.6098 12.2581 21.6474 11.7647 21.6474 11.2623C21.6474 10.6153 21.5855 9.98343 21.4722 9.36926C20.5801 9.37058 20.4528 9.39136 19.2538 9.7445C19.7765 10.9656 20.1905 12.0589 20.4392 12.8484C20.7416 12.7711 21.1162 12.7484 21.5409 12.7412Z" fill="#4B97F1"/>
<path d="M17.5751 6.18009C18.049 7.09642 18.4953 8.03069 18.8942 8.92251C20.1904 8.54005 20.4177 8.48732 21.2673 8.4801C20.9227 7.23689 20.3547 6.08688 19.6062 5.078C18.969 5.23685 18.384 5.4865 17.6595 6.12342C17.6331 6.14618 17.6044 6.16434 17.5751 6.18009Z" fill="#4B97F1"/>
</svg>
