<svg width="32" height="32" viewBox="0 0 32 32" fill="none" xmlns="http://www.w3.org/2000/svg">
<g clip-path="url(#clip0)">
<path d="M28.2956 31.0722C30.2866 31.0722 31.9007 29.4581 31.9007 27.4671C31.9007 25.476 30.2866 23.8619 28.2956 23.8619C26.3045 23.8619 24.6904 25.476 24.6904 27.4671C24.6904 29.4581 26.3045 31.0722 28.2956 31.0722Z" fill="#E5E1E5"/>
<path d="M28.9123 23.9155C29.6108 24.573 30.0477 25.5055 30.0477 26.5405C30.0477 28.5315 28.4336 30.1456 26.4425 30.1456C26.2322 30.1456 26.0264 30.1266 25.8259 30.092C26.4712 30.6994 27.3397 31.0722 28.2957 31.0722C30.2867 31.0722 31.9008 29.4582 31.9008 27.4671C31.9008 25.6863 30.6094 24.2082 28.9123 23.9155Z" fill="#C9BFC8"/>
<path d="M10.9691 17.1805L10.3799 20.0584C10.3294 20.3049 10.1602 20.5103 9.92796 20.6068L3.93921 23.096V25.7961L12.2125 22.514C12.6141 22.3547 12.9296 22.0328 13.0811 21.628L14.0091 19.1473L10.9691 17.1805Z" fill="#FED2A4"/>
<path d="M10.9691 17.1805L10.9198 17.421L12.156 18.2208L11.228 20.7015C11.0765 21.1063 10.761 21.4281 10.3594 21.5875L3.93921 24.1343V25.7961L12.2125 22.5139C12.6141 22.3546 12.9296 22.0328 13.0811 21.6279L14.0091 19.1472L10.9691 17.1805Z" fill="#FFBD86"/>
<path d="M11.4138 14.4474L16.3949 16.5376L20.1239 19.3468C20.5782 19.6891 20.8755 20.2001 20.9487 20.7645L21.8902 28.0319H19.1931L17.8163 21.0323L11.9225 18.1142L11.4138 14.4474Z" fill="#FED2A4"/>
<path d="M20.9486 20.7645C20.8755 20.2001 20.5782 19.6891 20.1239 19.3468L16.3949 16.5376L11.4138 14.4474L11.5055 15.1088L14.9105 16.5376L18.6394 19.3468C19.0937 19.6891 19.3911 20.2001 19.4642 20.7645L20.4058 28.0319H21.8902L20.9486 20.7645Z" fill="#FFBD86"/>
<path d="M16.395 16.5375L19.7335 8.62414C20.0275 7.92737 19.7198 7.12264 19.0362 6.80005L17.3877 6.02214C16.4778 5.5928 15.3933 5.82052 14.7333 6.57948C14.3915 6.97255 14.1209 7.42211 13.9337 7.90805L11.4138 14.4473L16.395 16.5375Z" fill="#FE9738"/>
<path d="M19.0362 6.80007L17.3877 6.02216C17.2053 5.93631 17.0121 5.87522 16.8138 5.84076C16.6268 5.80831 16.4371 5.79953 16.2484 5.81473C16.2617 6.91045 17.0081 7.90202 18.1206 8.17836C18.1221 8.17872 18.1236 8.17908 18.1251 8.17951C18.3519 8.23539 18.4784 8.47649 18.3875 8.69173L17.1024 11.738C16.1994 13.8782 13.7342 14.8833 11.5922 13.9844L11.4584 14.3316L11.4138 14.4473L16.3949 16.5376L19.7335 8.62416C20.0275 7.92739 19.7198 7.12266 19.0362 6.80007Z" fill="#FE860A"/>
<path d="M19.6743 8.76428L21.2685 9.83735H25.4324C26.0118 9.83735 26.4996 10.2714 26.5673 10.8472C26.6452 11.5103 26.1414 12.0988 25.4747 12.1235L21.1841 12.2825C20.925 12.2921 20.6694 12.2202 20.4532 12.077L18.752 10.9501L19.6743 8.76428Z" fill="#FED2A4"/>
<path d="M19.1931 28.0319H21.8902L23.2714 29.2923C23.4839 29.4863 23.605 29.7608 23.605 30.0486C23.605 30.6139 23.1471 31.0722 22.5822 31.0722H20.4052C19.7358 31.0722 19.1931 30.5291 19.1931 29.8592V28.0319Z" fill="#0067C5"/>
<path d="M23.2713 29.2922L21.8902 28.0317H20.3784L21.7596 29.2922C21.9721 29.4861 22.0932 29.7607 22.0932 30.0485C22.0932 30.6138 21.6353 31.072 21.0703 31.072H22.5821C23.147 31.072 23.605 30.6138 23.605 30.0485C23.605 29.7607 23.4839 29.4862 23.2713 29.2922Z" fill="#0055A3"/>
<path d="M3.93912 23.097V25.7959L2.6795 27.178C2.48569 27.3907 2.21136 27.5119 1.9237 27.5119C1.35886 27.5119 0.900879 27.0536 0.900879 26.4883V23.9489C0.900879 23.4784 1.28202 23.097 1.75217 23.097H3.93912Z" fill="#0067C5"/>
<path d="M1.92376 25.8407C1.35886 25.8407 0.900879 25.3825 0.900879 24.8172V26.4884C0.900879 27.0536 1.35886 27.5119 1.92376 27.5119C2.21142 27.5119 2.48575 27.3908 2.67956 27.1781L3.93918 25.796V24.1248L2.67956 25.5069C2.48575 25.7196 2.21136 25.8407 1.92376 25.8407Z" fill="#0055A3"/>
<path d="M12.3662 10.1251L11.1747 10.1705L8.59948 12.7148C8.1056 13.2027 7.31038 13.2002 6.81959 12.7091C6.31869 12.2079 6.32771 11.3929 6.83951 10.9028L9.53336 8.32357C9.8617 8.00921 10.292 7.82309 10.7459 7.79905L12.3703 7.71301L12.3662 10.1251Z" fill="#FED2A4"/>
<path d="M12.3704 7.71315L12.3662 10.1251L14.3632 10.049C14.7507 10.0343 15.078 9.75642 15.1554 9.37637L15.3835 8.25649C15.4568 7.89685 15.1706 7.56493 14.8041 7.5843L12.3704 7.71315Z" fill="#FE860A"/>
<path d="M21.2687 9.83748L19.6744 8.7644L18.7522 10.9504L20.4534 12.0773C20.5601 12.1479 20.6764 12.201 20.798 12.2357L21.2687 9.83748Z" fill="#FE9738"/>
<path d="M19.7428 17.9804L16.3949 16.5376L11.4138 14.4474L9.38064 19.4303C9.26584 19.7116 9.33021 20.0344 9.54424 20.2503L11.8302 22.5561C12.183 22.912 12.7781 22.8344 13.0277 22.3999L14.2415 20.2867L16.512 21.8752C16.8176 22.089 17.2335 22.0492 17.4928 21.7812L19.9877 19.2041C20.3568 18.8227 20.2302 18.1905 19.7428 17.9804Z" fill="#0067C5"/>
<path d="M19.7428 17.9804L19.4856 17.8696L18.7758 18.6028C17.7772 19.6343 16.1772 19.7876 15.0008 18.9646L16.3949 16.5376L14.7906 15.8644L13.1247 18.7646C12.36 20.0959 10.5378 20.3339 9.45681 19.2435L9.38064 19.4302C9.26585 19.7116 9.33021 20.0343 9.54412 20.2501L11.8303 22.5562C12.1832 22.9122 12.778 22.8345 13.0276 22.3999L14.2415 20.2866L16.5119 21.8751C16.8176 22.089 17.2334 22.0491 17.4928 21.7811L19.9874 19.2043C20.3565 18.823 20.23 18.1904 19.7428 17.9804Z" fill="#0055A3"/>
<path d="M17.9586 6.83459C16.6362 6.50607 15.8307 5.16701 16.1594 3.8437L16.5561 2.24635C16.8849 0.923039 18.2234 0.116616 19.5457 0.445143C20.8681 0.77367 21.6736 2.11272 21.3449 3.43604L20.9482 5.03338C20.6194 6.3567 19.2809 7.16312 17.9586 6.83459Z" fill="#FED2A4"/>
<path d="M21.382 3.2614C21.3717 3.31952 21.3596 3.37765 21.3451 3.43577L21.1465 4.23378V4.23438L20.9479 5.0336C20.6688 6.15675 19.6619 6.90753 18.5551 6.90753C18.3583 6.90753 18.1585 6.88392 17.9587 6.83427C17.2763 6.66534 16.732 6.22638 16.4099 5.65966C16.6006 5.76743 16.8089 5.8528 17.0317 5.9079C18.3541 6.23667 19.6928 5.43019 20.0215 4.10663L20.1402 3.62952L20.4181 2.5094C20.5719 1.89122 20.4775 1.27001 20.1989 0.749307C20.1886 0.730537 20.1784 0.711768 20.1681 0.693604C20.1814 0.701475 20.1947 0.70874 20.208 0.717217C21.0726 1.22823 21.5606 2.23634 21.382 3.2614Z" fill="#FFBD86"/>
<path d="M19.5456 0.445143C18.2232 0.116616 16.8848 0.923039 16.5561 2.24635L16.3577 3.04503L17.2102 3.61096C17.4709 3.784 17.8192 3.73938 18.0277 3.50621L18.3471 3.14923C18.5486 2.92405 18.8817 2.87374 19.1408 3.0294L21.1464 4.23471L21.3448 3.43604C21.6736 2.11272 20.868 0.77367 19.5456 0.445143Z" fill="#685E68"/>
<path d="M21.382 3.2614C21.3717 3.31952 21.3596 3.37765 21.345 3.43577L21.1464 4.23378V4.23438L20.1401 3.62952L20.418 2.5094C20.5718 1.89122 20.4774 1.27001 20.1989 0.749307C20.1886 0.730537 20.1783 0.711768 20.168 0.693604C20.1813 0.701475 20.1946 0.70874 20.2079 0.717217C21.0726 1.22823 21.5606 2.23634 21.382 3.2614Z" fill="#554E56"/>
</g>
<defs>
<clipPath id="clip0">
<rect width="31" height="31" fill="white" transform="translate(0.900879 0.221924)"/>
</clipPath>
</defs>
</svg>
