<svg width="30" height="30" viewBox="0 0 30 30" fill="none" xmlns="http://www.w3.org/2000/svg">
<g clip-path="url(#clip0)">
<path d="M14.9176 24.0778L29.1784 2.55328C29.6687 1.8133 29.4603 0.815458 28.7149 0.333514C27.9829 -0.13973 27.003 0.0616388 26.5193 0.792499L11.5701 23.3796C7.71368 24.146 3.42675 22.0162 3.12304 21.7782C2.7348 21.4741 0.00529563 22.8995 0.504639 25.8278C1.00398 28.7562 10.3433 29.6902 13.161 28.375C14.7697 27.6241 15.0086 25.6414 14.9176 24.0778Z" fill="#FFC764"/>
<path d="M14.1888 19.423L11.5701 23.3797C7.71362 24.146 3.42669 22.0162 3.12304 21.7783C2.7348 21.4741 0.00529557 22.8995 0.504639 25.8279C1.00398 28.7562 10.3433 29.6902 13.161 28.375C14.7697 27.6241 15.0086 25.6414 14.9176 24.0778L16.8335 21.1861L14.1888 19.423Z" fill="#80E5FF"/>
<path d="M7.9385 19.1535C9.80773 19.1535 11.323 17.6382 11.323 15.7689C11.323 13.8997 9.80773 12.3844 7.9385 12.3844C6.06927 12.3844 4.55396 13.8997 4.55396 15.7689C4.55396 17.6382 6.06927 19.1535 7.9385 19.1535Z" fill="#FF637D"/>
<path d="M7.40198 16.5728C8.06349 17.0043 8.90515 16.525 8.90515 15.7687C8.90515 14.9119 7.8652 14.4753 7.25517 15.0853C6.82211 15.5185 6.89853 16.2409 7.40198 16.5728Z" fill="#545178"/>
</g>
<defs>
<clipPath id="clip0">
<rect width="29" height="29" fill="white" transform="translate(0.443848 0.0180664)"/>
</clipPath>
</defs>
</svg>
