<svg width="19" height="17" viewBox="0 0 19 17" fill="none" xmlns="http://www.w3.org/2000/svg">
<g clip-path="url(#clip0)">
<path d="M18.4898 5.85331L9.93384 4.58395L8.89321 4.42956L7.91235 2.5569L9.93384 0.448833L10.3547 0.0098877C14.1684 0.174907 17.3557 2.57184 18.4898 5.85331Z" fill="#FED843"/>
<path d="M18.4898 5.85331L9.93384 4.58395V0.448833L10.3547 0.0098877C14.1684 0.174907 17.3557 2.57184 18.4898 5.85331Z" fill="#FF9100"/>
<path d="M18.9338 8.49997C18.9338 9.59368 18.7159 10.6386 18.319 11.5981L10.4615 8.15067L9.93384 7.67686L8.65063 6.52438L8.89321 4.42926C9.23353 4.33032 9.58052 4.24598 9.93384 4.17791C12.8152 3.62176 15.9206 4.15401 18.4898 5.85301C18.7777 6.68575 18.9338 7.57526 18.9338 8.49997Z" fill="#7ED8F6"/>
<path d="M18.9338 8.49997C18.9338 9.59368 18.7159 10.6386 18.319 11.5981L10.4615 8.15067L9.93384 7.67686V4.17791C12.8152 3.62176 15.9206 4.15401 18.4898 5.85301C18.7777 6.68575 18.9338 7.57526 18.9338 8.49997Z" fill="#6AA9FF"/>
<path d="M18.319 11.5982C17.0105 14.7628 13.754 17 9.93393 17C7.3524 17 5.02787 15.978 3.38818 14.3384L9.93393 11.1423L15.1416 8.59961C16.5229 9.23412 17.6462 10.2943 18.319 11.5982Z" fill="#D5E8FE"/>
<path d="M18.319 11.5982C17.0104 14.7628 13.7539 17 9.93384 17V11.1423L15.1415 8.59961C16.5228 9.23412 17.6461 10.2943 18.319 11.5982Z" fill="#B5DBFF"/>
<path d="M5.0184 1.37549C2.5576 2.89108 0.933838 5.5134 0.933838 8.50002C0.933838 8.70465 0.941924 8.90745 0.956936 9.10843L4.41431 11.3555L6.87992 10.2923L5.0184 1.37549Z" fill="#6AA9FF"/>
<path d="M10.4614 8.1507L9.93369 9.29256L9.5628 10.0954L6.87967 10.2923C4.82222 7.70864 4.17584 4.42116 5.01815 1.37561C6.43038 0.505684 8.11823 0 9.93369 0C10.075 0 10.2153 0.00332031 10.3545 0.00962891C10.204 0.189258 10.0634 0.376523 9.93369 0.571094C9.26608 1.56951 8.87901 2.75187 8.87901 4.01758C8.87901 4.1557 8.88393 4.29316 8.89307 4.4293C8.9669 5.53961 9.33885 6.57488 9.93369 7.46439C10.0937 7.70445 10.2701 7.93355 10.4614 8.1507Z" fill="#EDF5FF"/>
<path d="M10.3547 0.00962891C10.2042 0.189258 10.0636 0.376523 9.93384 0.571094V0C10.0752 0 10.2154 0.00332031 10.3547 0.00962891Z" fill="#D5E8FE"/>
<path d="M10.4615 8.15066L9.93384 9.29252V7.46436C10.0938 7.70441 10.2703 7.93352 10.4615 8.15066Z" fill="#D5E8FE"/>
<path d="M15.1415 8.59963C14.0404 10.725 12.1975 12.4482 9.93383 13.4665C7.87504 14.3927 5.5883 14.679 3.38809 14.3385C2.00363 12.9542 1.10785 11.13 0.957031 9.1083C2.67104 10.382 4.86419 10.7769 6.87981 10.2923C8.04524 10.0121 9.09219 9.4493 9.93383 8.68596C10.1202 8.51729 10.2963 8.33832 10.4615 8.15072C11.0029 8.02057 11.5696 7.95117 12.1532 7.95117C13.2238 7.95117 14.238 8.18426 15.1415 8.59963Z" fill="#FED843"/>
<path d="M15.1415 8.59963C14.0404 10.725 12.1975 12.4482 9.93384 13.4665V8.68596C10.1202 8.51728 10.2963 8.33832 10.4615 8.15072C11.0029 8.02057 11.5697 7.95117 12.1533 7.95117C13.2238 7.95117 14.238 8.18426 15.1415 8.59963Z" fill="#FF9100"/>
</g>
<defs>
<clipPath id="clip0">
<rect width="18" height="17" fill="white" transform="translate(0.933838)"/>
</clipPath>
</defs>
</svg>
