<svg width="22" height="22" viewBox="0 0 22 22" fill="none" xmlns="http://www.w3.org/2000/svg">
<path d="M7.4375 0.5C7.12586 0.5 6.875 0.750875 6.875 1.0625V1.4375C6.875 1.74912 7.12586 2 7.4375 2C7.74914 2 8 1.74912 8 1.4375C8 1.74912 8.25086 2 8.5625 2C8.87414 2 9.125 1.74912 9.125 1.4375C9.125 1.74912 9.37659 2 9.68823 2C9.99987 2 10.2507 1.74912 10.2507 1.4375V1.0625C10.2507 0.750875 9.99987 0.5 9.68823 0.5C9.37659 0.5 9.125 0.750875 9.125 1.0625C9.125 0.750875 8.87414 0.5 8.5625 0.5C8.25086 0.5 8 0.750875 8 1.0625C8 0.750875 7.74914 0.5 7.4375 0.5ZM12.3132 0.5C12.0016 0.5 11.7507 0.750875 11.7507 1.0625V1.4375C11.7507 1.74912 12.0016 2 12.3132 2C12.6249 2 12.8757 1.74912 12.8757 1.4375C12.8757 1.74912 13.1266 2 13.4382 2C13.7499 2 14.0007 1.74912 14.0007 1.4375C14.0007 1.74912 14.2516 2 14.5632 2C14.8749 2 15.1257 1.74912 15.1257 1.4375V1.0625C15.1257 0.750875 14.8749 0.5 14.5632 0.5C14.2516 0.5 14.0007 0.750875 14.0007 1.0625C14.0007 0.750875 13.7499 0.5 13.4382 0.5C13.1266 0.5 12.8757 0.750875 12.8757 1.0625C12.8757 0.750875 12.6249 0.5 12.3132 0.5ZM6.12573 0.874268C5.50894 0.874268 4.99853 1.38397 4.99853 2.00073V9.18433L7.24927 7.88135V2.35522C6.82454 2.26702 6.49927 1.8875 6.49927 1.43896V1.0625C6.49927 1.02318 6.50614 0.98565 6.51099 0.94751C6.39021 0.902496 6.26137 0.874268 6.12573 0.874268ZM11.0007 0.874268C10.864 0.874268 10.7342 0.903243 10.6125 0.948975C10.6173 0.98665 10.6243 1.02368 10.6243 1.0625V1.43896C10.6243 1.8875 10.3014 2.26702 9.8772 2.35522V6.36011L12.125 5.05786V2.35522C11.7003 2.26702 11.3743 1.8875 11.3743 1.43896V1.0625C11.3743 1.02342 11.3819 0.98616 11.3867 0.948242C11.2656 0.903025 11.1367 0.874268 11.0007 0.874268ZM15.8757 0.874268C15.7398 0.874268 15.6108 0.903025 15.4897 0.948242C15.4946 0.98616 15.5022 1.02342 15.5022 1.0625V1.43896C15.5022 1.8875 15.1769 2.26702 14.7522 2.35522V4.28076C14.7783 4.28724 14.8095 4.29247 14.8342 4.29907C15.0969 4.36912 15.2963 4.4957 15.5132 4.60889L16.9993 3.74829V2.00073C16.9993 1.38397 16.4925 0.874268 15.8757 0.874268ZM20.2944 2.84009C20.2427 2.83525 20.1899 2.83627 20.137 2.84448C20.0664 2.85544 19.995 2.87954 19.9253 2.91992L15.5571 5.44971C15.2477 5.27114 14.933 5.10136 14.6409 5.02344C14.2746 4.92575 13.9365 4.87551 13.614 5.06226L1.01782 12.3564C0.590879 12.6037 0.497179 13.0894 0.500732 13.6133C0.50429 14.1372 0.6495 14.7468 0.984863 15.3293C1.32023 15.9119 1.77378 16.3457 2.22485 16.6111C2.67593 16.8765 3.14321 17.0356 3.57031 16.7883L16.1665 9.49414C16.4462 9.33221 16.622 9.04794 16.7363 8.68335C16.827 8.39439 16.8247 8.0089 16.8059 7.61475L21.1711 5.08423C21.4501 4.92272 21.5129 4.61457 21.4978 4.36206C21.4827 4.10955 21.3974 3.85129 21.2517 3.59814C21.106 3.345 20.9257 3.1394 20.7148 2.99976C20.5962 2.92121 20.4497 2.85459 20.2944 2.84009ZM2.375 6.125C1.87771 6.12502 1.4008 6.32257 1.04917 6.6742C0.697542 7.02583 0.5 7.50273 0.5 8C0.5 8.49727 0.697542 8.97417 1.04917 9.3258C1.4008 9.67743 1.87771 9.87498 2.375 9.875C2.87229 9.87498 3.3492 9.67743 3.70083 9.3258C4.05246 8.97417 4.25 8.49727 4.25 8C4.25 7.50273 4.05246 7.02583 3.70083 6.6742C3.3492 6.32257 2.87229 6.12502 2.375 6.125ZM16.9993 9.75928C16.8733 9.90689 16.7227 10.0386 16.5422 10.1431L14.7522 11.1794V16.9985C14.7519 17.0478 14.7614 17.0967 14.78 17.1424C14.7986 17.188 14.8261 17.2296 14.8607 17.2646C14.8954 17.2996 14.9367 17.3275 14.9822 17.3465C15.0276 17.3656 15.0764 17.3755 15.1257 17.3757H16.6257C16.675 17.3755 16.7238 17.3656 16.7693 17.3465C16.8148 17.3275 16.856 17.2996 16.8907 17.2646C16.9254 17.2296 16.9529 17.188 16.9715 17.1424C16.9901 17.0967 16.9995 17.0478 16.9993 16.9985V9.75928ZM12.125 12.7014L9.8772 14.0029V16.9985C9.87691 17.0478 9.88635 17.0967 9.90498 17.1424C9.9236 17.188 9.95105 17.2296 9.98574 17.2646C10.0204 17.2996 10.0617 17.3275 10.1072 17.3465C10.1526 17.3656 10.2014 17.3755 10.2507 17.3757H11.7515C11.8008 17.3755 11.8496 17.3656 11.895 17.3465C11.9405 17.3275 11.9818 17.2996 12.0165 17.2646C12.0511 17.2296 12.0786 17.188 12.0972 17.1424C12.1158 17.0967 12.1253 17.0478 12.125 16.9985V12.7014ZM7.24927 15.5242L4.99853 16.8279V16.9985C4.99825 17.0481 5.00779 17.0972 5.0266 17.143C5.0454 17.1889 5.07311 17.2306 5.10812 17.2656C5.14312 17.3007 5.18473 17.3285 5.23054 17.3474C5.27635 17.3663 5.32545 17.3759 5.375 17.3757H6.87573C6.92504 17.3755 6.97382 17.3656 7.01929 17.3465C7.06476 17.3275 7.10602 17.2996 7.14072 17.2646C7.17541 17.2296 7.20286 17.188 7.22148 17.1424C7.24011 17.0967 7.24955 17.0478 7.24927 16.9985V15.5242ZM4.625 17.7493C4.53949 17.7492 4.45653 17.7784 4.38989 17.832L0.641357 20.8328C0.58102 20.8813 0.53719 20.9473 0.515883 21.0218C0.494576 21.0962 0.496839 21.1754 0.52236 21.2486C0.547881 21.3217 0.595409 21.3851 0.658418 21.4301C0.721427 21.4751 0.796828 21.4995 0.874268 21.5H21.1272C21.2046 21.4994 21.2799 21.4749 21.3428 21.4298C21.4057 21.3847 21.4531 21.3213 21.4785 21.2482C21.5039 21.1751 21.5061 21.096 21.4848 21.0216C21.4635 20.9472 21.4197 20.8813 21.3594 20.8328L17.6086 17.832C17.5428 17.7791 17.461 17.7499 17.3765 17.7493H4.625Z" fill="#25A3DE"/>
</svg>
