<?xml version="1.0" encoding="iso-8859-1"?>
<!-- Generator: Adobe Illustrator 19.0.0, SVG Export Plug-In . SVG Version: 6.00 Build 0)  -->
<svg version="1.1" id="Layer_1" xmlns="http://www.w3.org/2000/svg" xmlns:xlink="http://www.w3.org/1999/xlink" x="0px" y="0px"
	 viewBox="0 0 512 512" style="enable-background:new 0 0 512 512;" xml:space="preserve">
<g>
	<path style="fill:#FDC00F;" d="M256,512C114.616,512,0,397.384,0,256S114.616,0,256,0s256,114.616,256,256S397.384,512,256,512
		L256,512z"/>
	<path style="fill:#EB9900;" d="M256,512c141.384,0,256-114.616,256-256c0-7.516-0.394-14.935-1.024-22.287
		c-0.476-0.41-131.072-131.379-132.557-132.142c-1.311-2.565-3.948-4.342-7.025-4.342H243.86H114.022
		c-4.372,0-7.916,3.543-7.916,7.916v309.617l93.097,90.829C217.477,509.742,236.472,512,256,512L256,512z"/>
	<path style="fill:#FC611F;" d="M371.389,97.234H114.022c-4.372,0-7.916,3.543-7.916,7.916v309.617H379.31V105.149
		C379.305,100.777,375.762,97.234,371.389,97.234L371.389,97.234z"/>
	<path style="fill:#E64500;" d="M371.389,97.234H243.86v317.537h135.444V105.149C379.305,100.777,375.762,97.234,371.389,97.234
		L371.389,97.234z"/>
	<polygon style="fill:#E64500;" points="362.035,308.07 125.691,308.07 125.691,160.374 362.035,160.374 	"/>
	<polygon style="fill:#FFFFFF;" points="362.035,308.07 125.691,308.07 125.691,166.164 362.035,166.164 	"/>
	<polygon style="fill:#D7ECED;" points="362.035,308.07 243.86,308.07 243.86,166.164 362.035,166.164 	"/>
	<circle style="fill:#2D5872;" cx="243.86" cy="128.461" r="21.304"/>
	<path style="fill:#0F303F;" d="M243.86,107.146v42.609c11.766,0,21.304-9.539,21.304-21.304S255.626,107.146,243.86,107.146z"/>
	<circle style="fill:#2D5872;" cx="196.659" cy="128.461" r="11.914"/>
	<circle style="fill:#0F303F;" cx="291.072" cy="128.461" r="11.914"/>
	<polygon style="fill:#2D5872;" points="196.649,174.213 135.363,174.213 135.363,298.148 196.649,298.148 	"/>
	<polygon style="fill:#2D5872;" points="243.86,174.213 213.217,174.213 213.217,298.148 243.86,298.148 	"/>
	<polygon style="fill:#26516A;" points="274.504,174.213 243.86,174.213 243.86,298.148 274.504,298.148 	"/>
	<polygon style="fill:#26516A;" points="348.447,174.213 287.165,174.213 287.165,298.148 348.447,298.148 	"/>
	<path style="fill:#FC611F;" d="M410.793,330.225H379.31v62.966h31.483c17.387,0,31.483-14.095,31.483-31.483
		C442.276,344.32,428.18,330.225,410.793,330.225z"/>
	<path style="fill:#E64500;" d="M379.305,393.195h31.483c17.388,0,31.483-14.095,31.483-31.483h-62.966V393.195z"/>
	<rect x="398.49" y="176.722" style="fill:#2D5872;" width="13.532" height="153.6"/>
	<rect x="405.248" y="176.722" style="fill:#0F303F;" width="6.764" height="153.6"/>
	<circle style="fill:#FC611F;" cx="405.248" cy="176.722" r="15.14"/>
	<path style="fill:#E64500;" d="M405.263,161.582v30.275c8.361,0,15.14-6.779,15.14-15.14
		C420.398,168.361,413.624,161.582,405.263,161.582z"/>
	<rect x="379.29" y="330.24" style="fill:#2D5872;" width="8.765" height="62.966"/>
	<rect x="379.29" y="361.728" style="fill:#0F303F;" width="8.765" height="31.483"/>
	<circle style="fill:#FC611F;" cx="243.86" cy="364.646" r="16.778"/>
	<path style="fill:#E64500;" d="M243.86,347.889c-9.267,0-16.778,7.511-16.778,16.778s7.511,16.778,16.778,16.778V347.889z"/>
	<path style="fill:#0F303F;" d="M253.025,359.388c-1.833-3.18-5.233-5.345-9.165-5.345c-3.932,0-7.332,2.166-9.165,5.345h-1.454
		v5.279c0,5.868,4.756,10.619,10.619,10.619c5.862,0,10.619-4.757,10.619-10.619v-5.279H253.025z"/>
	<circle style="fill:#2D5872;" cx="243.86" cy="359.373" r="10.619"/>
	<circle style="fill:#E64500;" cx="199.987" cy="364.646" r="16.778"/>
	<path style="fill:#0F303F;" d="M209.132,359.388c-1.833-3.18-5.233-5.345-9.165-5.345c-3.932,0-7.332,2.166-9.165,5.345h-1.454
		v5.279c0,5.868,4.756,10.619,10.619,10.619c5.868,0,10.619-4.757,10.619-10.619v-5.279H209.132z"/>
	<circle style="fill:#2D5872;" cx="199.987" cy="359.373" r="10.619"/>
	<circle style="fill:#FC611F;" cx="287.744" cy="364.646" r="16.778"/>
	<path style="fill:#0F303F;" d="M278.589,359.388c1.833-3.18,5.233-5.345,9.165-5.345c3.932,0,7.332,2.166,9.165,5.345h1.454v5.279
		c0,5.868-4.756,10.619-10.619,10.619c-5.868,0-10.619-4.757-10.619-10.619v-5.279H278.589z"/>
	<circle style="fill:#2D5872;" cx="287.744" cy="359.373" r="10.619"/>
	<path style="fill:#FDC00F;" d="M188.749,216.305c-10.102,0-12.339,4.47-20.721,4.47c-7.711,0-8.463-3.768-18.883-4.378v-0.092
		h-5.883v16.538h5.883v-7.327c10.419,0.609,11.172,4.378,18.883,4.378c3.763,0,6.292-0.906,8.847-1.9
		c-1.751,10.097-27.622,19.635-24.653,38.19c8.381,0,14.607,0,23.547,0c-8.745-20.685,12.979-25.989,12.979-40.52l-0.015-0.241
		h0.015V216.305z"/>
	<path style="fill:#FDC00F;" d="M266.604,216.305c-10.102,0-12.339,4.47-20.721,4.47c-7.711,0-8.463-3.768-18.883-4.378v-0.092
		h-5.883v16.538H227v-7.327c10.419,0.609,11.172,4.378,18.883,4.378c3.763,0,6.292-0.906,8.847-1.9
		c-1.751,10.097-27.622,19.635-24.653,38.19c8.381,0,14.607,0,23.547,0c-8.745-20.685,12.979-25.989,12.979-40.52l-0.015-0.241
		h0.015V216.305z"/>
	<path style="fill:#FDC00F;" d="M340.547,216.305c-10.102,0-12.339,4.47-20.721,4.47c-7.711,0-8.463-3.768-18.883-4.378v-0.092
		h-5.878v16.538h5.883v-7.327c10.419,0.609,11.172,4.378,18.883,4.378c3.763,0,6.292-0.906,8.847-1.9
		c-1.751,10.097-27.622,19.635-24.653,38.19c8.381,0,14.607,0,23.547,0c-8.745-20.685,12.979-25.989,12.979-40.52l-0.015-0.241
		h0.015v-9.119H340.547z"/>
</g>
<g>
</g>
<g>
</g>
<g>
</g>
<g>
</g>
<g>
</g>
<g>
</g>
<g>
</g>
<g>
</g>
<g>
</g>
<g>
</g>
<g>
</g>
<g>
</g>
<g>
</g>
<g>
</g>
<g>
</g>
</svg>
