<svg width="29" height="28" viewBox="0 0 29 28" fill="none" xmlns="http://www.w3.org/2000/svg">
<g clip-path="url(#clip0)">
<path d="M0.347656 0H27.9102C28.0309 0 28.1289 0.098053 28.1289 0.21875V27.7812C28.1289 27.9019 28.0309 28 27.9102 28H0.347656C0.226959 28 0.128906 27.9019 0.128906 27.7812V0.21875C0.128906 0.098053 0.226959 0 0.347656 0Z" fill="#965353"/>
<path d="M27.0352 1.09375H14.7852V26.9062H27.0352V1.09375Z" fill="#FFD2A6"/>
<path d="M13.4727 1.09375H1.22266V26.9062H13.4727V1.09375Z" fill="#FFD2A6"/>
<path d="M14.1289 5.6875C14.3703 5.6875 14.5664 5.88361 14.5664 6.125V9.625C14.5664 9.86639 14.3703 10.0625 14.1289 10.0625C13.8875 10.0625 13.6914 9.86639 13.6914 9.625V6.125C13.6914 5.88361 13.8875 5.6875 14.1289 5.6875Z" fill="#E6E9ED"/>
<path d="M14.1289 17.9375C14.3703 17.9375 14.5664 18.1336 14.5664 18.375V21.875C14.5664 22.1164 14.3703 22.3125 14.1289 22.3125C13.8875 22.3125 13.6914 22.1164 13.6914 21.875V18.375C13.6914 18.1336 13.8875 17.9375 14.1289 17.9375Z" fill="#E6E9ED"/>
<path d="M4.72266 14C4.72266 15.4496 5.89801 16.625 7.34766 16.625C8.7973 16.625 9.97266 15.4496 9.97266 14C9.97266 12.5504 8.7973 11.375 7.34766 11.375C5.89801 11.375 4.72266 12.5504 4.72266 14Z" fill="#965353"/>
<path d="M6.25391 14C6.25391 14.6041 6.74353 15.0938 7.34766 15.0938C7.95178 15.0938 8.44141 14.6041 8.44141 14C8.44141 13.3959 7.95178 12.9062 7.34766 12.9062C6.74353 12.9062 6.25391 13.3959 6.25391 14Z" fill="#773E3E"/>
<path d="M18.2852 14C18.2852 15.4496 19.4605 16.625 20.9102 16.625C22.3598 16.625 23.5352 15.4496 23.5352 14C23.5352 12.5504 22.3598 11.375 20.9102 11.375C19.4605 11.375 18.2852 12.5504 18.2852 14Z" fill="#965353"/>
<path d="M19.8164 14C19.8164 14.6041 20.306 15.0938 20.9102 15.0938C21.5143 15.0938 22.0039 14.6041 22.0039 14C22.0039 13.3959 21.5143 12.9062 20.9102 12.9062C20.306 12.9062 19.8164 13.3959 19.8164 14Z" fill="#773E3E"/>
<path d="M24.4102 8.96875L25.2852 5.03125H23.5352L24.4102 8.96875Z" fill="#656D78"/>
<path d="M17.4102 8.96875L18.2852 5.03125H16.5352L17.4102 8.96875Z" fill="#656D78"/>
<path d="M20.9102 8.9679L21.7852 5.0304H20.0352L20.9102 8.9679Z" fill="#F5F7FA"/>
<path d="M10.8477 8.96875L11.7227 5.03125H9.97266L10.8477 8.96875Z" fill="#F5F7FA"/>
<path d="M3.84766 8.96875L4.72266 5.03125H2.97266L3.84766 8.96875Z" fill="#F5F7FA"/>
<path d="M7.34766 8.9679L8.22266 5.0304H6.47266L7.34766 8.9679Z" fill="#656D78"/>
<path d="M3.84766 19.0312L2.97266 22.9688H4.72266L3.84766 19.0312Z" fill="#656D78"/>
<path d="M10.8477 19.0312L9.97266 22.9688H11.7227L10.8477 19.0312Z" fill="#656D78"/>
<path d="M7.34766 19.0321L6.47266 22.9696H8.22266L7.34766 19.0321Z" fill="#F5F7FA"/>
<path d="M17.4102 19.0312L16.5352 22.9688H18.2852L17.4102 19.0312Z" fill="#F5F7FA"/>
<path d="M24.4102 19.0312L23.5352 22.9688H25.2852L24.4102 19.0312Z" fill="#F5F7FA"/>
<path d="M20.9102 19.0321L20.0352 22.9696H21.7852L20.9102 19.0321Z" fill="#656D78"/>
<path d="M23.5352 3.71875C23.5352 4.20197 23.9269 4.59375 24.4102 4.59375C24.8934 4.59375 25.2852 4.20197 25.2852 3.71875C25.2852 3.23553 24.8934 2.84375 24.4102 2.84375C23.9269 2.84375 23.5352 3.23553 23.5352 3.71875Z" fill="#F5F7FA"/>
<path d="M16.5352 3.71875C16.5352 4.20197 16.9269 4.59375 17.4102 4.59375C17.8934 4.59375 18.2852 4.20197 18.2852 3.71875C18.2852 3.23553 17.8934 2.84375 17.4102 2.84375C16.9269 2.84375 16.5352 3.23553 16.5352 3.71875Z" fill="#F5F7FA"/>
<path d="M9.97266 24.2812C9.97266 24.7645 10.3644 25.1562 10.8477 25.1562C11.3309 25.1562 11.7227 24.7645 11.7227 24.2812C11.7227 23.798 11.3309 23.4062 10.8477 23.4062C10.3644 23.4062 9.97266 23.798 9.97266 24.2812Z" fill="#F5F7FA"/>
<path d="M20.0352 24.2812C20.0352 24.7645 20.4269 25.1562 20.9102 25.1562C21.3934 25.1562 21.7852 24.7645 21.7852 24.2812C21.7852 23.798 21.3934 23.4062 20.9102 23.4062C20.4269 23.4062 20.0352 23.798 20.0352 24.2812Z" fill="#F5F7FA"/>
<path d="M20.0352 3.71875C20.0352 4.20197 20.4269 4.59375 20.9102 4.59375C21.3934 4.59375 21.7852 4.20197 21.7852 3.71875C21.7852 3.23553 21.3934 2.84375 20.9102 2.84375C20.4269 2.84375 20.0352 3.23553 20.0352 3.71875Z" fill="#656D78"/>
<path d="M6.47266 24.2812C6.47266 24.7645 6.86444 25.1562 7.34766 25.1562C7.83087 25.1562 8.22266 24.7645 8.22266 24.2812C8.22266 23.798 7.83087 23.4062 7.34766 23.4062C6.86444 23.4062 6.47266 23.798 6.47266 24.2812Z" fill="#656D78"/>
<path d="M16.5352 24.2812C16.5352 24.7645 16.9269 25.1562 17.4102 25.1562C17.8934 25.1562 18.2852 24.7645 18.2852 24.2812C18.2852 23.798 17.8934 23.4062 17.4102 23.4062C16.9269 23.4062 16.5352 23.798 16.5352 24.2812Z" fill="#656D78"/>
<path d="M9.97266 3.71875C9.97266 4.20197 10.3644 4.59375 10.8477 4.59375C11.3309 4.59375 11.7227 4.20197 11.7227 3.71875C11.7227 3.23553 11.3309 2.84375 10.8477 2.84375C10.3644 2.84375 9.97266 3.23553 9.97266 3.71875Z" fill="#656D78"/>
<path d="M2.97266 3.71875C2.97266 4.20197 3.36444 4.59375 3.84766 4.59375C4.33087 4.59375 4.72266 4.20197 4.72266 3.71875C4.72266 3.23553 4.33087 2.84375 3.84766 2.84375C3.36444 2.84375 2.97266 3.23553 2.97266 3.71875Z" fill="#656D78"/>
<path d="M10.8477 26.25C11.9331 26.25 12.8164 25.3667 12.8164 24.2812C12.8164 24.1606 12.7184 24.0625 12.5977 24.0625C12.477 24.0625 12.3789 24.1606 12.3789 24.2812C12.3789 25.1257 11.6921 25.8125 10.8477 25.8125C10.0032 25.8125 9.31641 25.1257 9.31641 24.2812C9.31641 24.1606 9.21835 24.0625 9.09766 24.0625C8.97696 24.0625 8.87891 24.1606 8.87891 24.2812C8.87891 25.3667 9.76224 26.25 10.8477 26.25Z" fill="#F7C292"/>
<path d="M7.34766 26.25C8.43307 26.25 9.31641 25.3667 9.31641 24.2812C9.31641 24.1606 9.21835 24.0625 9.09766 24.0625C8.97696 24.0625 8.87891 24.1606 8.87891 24.2812C8.87891 25.1257 8.19211 25.8125 7.34766 25.8125C6.5032 25.8125 5.81641 25.1257 5.81641 24.2812C5.81641 24.1606 5.71835 24.0625 5.59766 24.0625C5.47696 24.0625 5.37891 24.1606 5.37891 24.2812C5.37891 25.3667 6.26224 26.25 7.34766 26.25Z" fill="#F7C292"/>
<path d="M3.84766 26.25C4.93307 26.25 5.81641 25.3667 5.81641 24.2812C5.81641 24.1606 5.71835 24.0625 5.59766 24.0625C5.47696 24.0625 5.37891 24.1606 5.37891 24.2812C5.37891 25.1257 4.69211 25.8125 3.84766 25.8125C3.0032 25.8125 2.31641 25.1257 2.31641 24.2812C2.31641 24.1606 2.21835 24.0625 2.09766 24.0625C1.97696 24.0625 1.87891 24.1606 1.87891 24.2812C1.87891 25.3667 2.76224 26.25 3.84766 26.25Z" fill="#F7C292"/>
<path d="M2.09766 3.9375C2.21835 3.9375 2.31641 3.83945 2.31641 3.71875C2.31641 2.8743 3.0032 2.1875 3.84766 2.1875C4.69211 2.1875 5.37891 2.8743 5.37891 3.71875C5.37891 3.83945 5.47696 3.9375 5.59766 3.9375C5.71835 3.9375 5.81641 3.83945 5.81641 3.71875C5.81641 2.63333 4.93307 1.75 3.84766 1.75C2.76224 1.75 1.87891 2.63333 1.87891 3.71875C1.87891 3.83945 1.97696 3.9375 2.09766 3.9375Z" fill="#F7C292"/>
<path d="M5.59766 3.9375C5.71835 3.9375 5.81641 3.83945 5.81641 3.71875C5.81641 2.8743 6.5032 2.1875 7.34766 2.1875C8.19211 2.1875 8.87891 2.8743 8.87891 3.71875C8.87891 3.83945 8.97696 3.9375 9.09766 3.9375C9.21835 3.9375 9.31641 3.83945 9.31641 3.71875C9.31641 2.63333 8.43307 1.75 7.34766 1.75C6.26224 1.75 5.37891 2.63333 5.37891 3.71875C5.37891 3.83945 5.47696 3.9375 5.59766 3.9375Z" fill="#F7C292"/>
<path d="M9.09766 3.9375C9.21835 3.9375 9.31641 3.83945 9.31641 3.71875C9.31641 2.8743 10.0032 2.1875 10.8477 2.1875C11.6921 2.1875 12.3789 2.8743 12.3789 3.71875C12.3789 3.83945 12.477 3.9375 12.5977 3.9375C12.7184 3.9375 12.8164 3.83945 12.8164 3.71875C12.8164 2.63333 11.9331 1.75 10.8477 1.75C9.76224 1.75 8.87891 2.63333 8.87891 3.71875C8.87891 3.83945 8.97696 3.9375 9.09766 3.9375Z" fill="#F7C292"/>
<path d="M24.4102 26.25C25.4956 26.25 26.3789 25.3667 26.3789 24.2812C26.3789 24.1606 26.2809 24.0625 26.1602 24.0625C26.0395 24.0625 25.9414 24.1606 25.9414 24.2812C25.9414 25.1257 25.2546 25.8125 24.4102 25.8125C23.5657 25.8125 22.8789 25.1257 22.8789 24.2812C22.8789 24.1606 22.7809 24.0625 22.6602 24.0625C22.5395 24.0625 22.4414 24.1606 22.4414 24.2812C22.4414 25.3667 23.3247 26.25 24.4102 26.25Z" fill="#F7C292"/>
<path d="M20.9102 26.25C21.9956 26.25 22.8789 25.3667 22.8789 24.2812C22.8789 24.1606 22.7809 24.0625 22.6602 24.0625C22.5395 24.0625 22.4414 24.1606 22.4414 24.2812C22.4414 25.1257 21.7546 25.8125 20.9102 25.8125C20.0657 25.8125 19.3789 25.1257 19.3789 24.2812C19.3789 24.1606 19.2809 24.0625 19.1602 24.0625C19.0395 24.0625 18.9414 24.1606 18.9414 24.2812C18.9414 25.3667 19.8247 26.25 20.9102 26.25Z" fill="#F7C292"/>
<path d="M17.4102 26.25C18.4956 26.25 19.3789 25.3667 19.3789 24.2812C19.3789 24.1606 19.2809 24.0625 19.1602 24.0625C19.0395 24.0625 18.9414 24.1606 18.9414 24.2812C18.9414 25.1257 18.2546 25.8125 17.4102 25.8125C16.5657 25.8125 15.8789 25.1257 15.8789 24.2812C15.8789 24.1606 15.7809 24.0625 15.6602 24.0625C15.5395 24.0625 15.4414 24.1606 15.4414 24.2812C15.4414 25.3667 16.3247 26.25 17.4102 26.25Z" fill="#F7C292"/>
<path d="M15.6602 3.9375C15.7809 3.9375 15.8789 3.83945 15.8789 3.71875C15.8789 2.8743 16.5657 2.1875 17.4102 2.1875C18.2546 2.1875 18.9414 2.8743 18.9414 3.71875C18.9414 3.83945 19.0395 3.9375 19.1602 3.9375C19.2809 3.9375 19.3789 3.83945 19.3789 3.71875C19.3789 2.63333 18.4956 1.75 17.4102 1.75C16.3247 1.75 15.4414 2.63333 15.4414 3.71875C15.4414 3.83945 15.5395 3.9375 15.6602 3.9375Z" fill="#F7C292"/>
<path d="M19.1602 3.9375C19.2809 3.9375 19.3789 3.83945 19.3789 3.71875C19.3789 2.8743 20.0657 2.1875 20.9102 2.1875C21.7546 2.1875 22.4414 2.8743 22.4414 3.71875C22.4414 3.83945 22.5395 3.9375 22.6602 3.9375C22.7809 3.9375 22.8789 3.83945 22.8789 3.71875C22.8789 2.63333 21.9956 1.75 20.9102 1.75C19.8247 1.75 18.9414 2.63333 18.9414 3.71875C18.9414 3.83945 19.0395 3.9375 19.1602 3.9375Z" fill="#F7C292"/>
<path d="M22.6602 3.9375C22.7809 3.9375 22.8789 3.83945 22.8789 3.71875C22.8789 2.8743 23.5657 2.1875 24.4102 2.1875C25.2546 2.1875 25.9414 2.8743 25.9414 3.71875C25.9414 3.83945 26.0395 3.9375 26.1602 3.9375C26.2809 3.9375 26.3789 3.83945 26.3789 3.71875C26.3789 2.63333 25.4956 1.75 24.4102 1.75C23.3247 1.75 22.4414 2.63333 22.4414 3.71875C22.4414 3.83945 22.5395 3.9375 22.6602 3.9375Z" fill="#F7C292"/>
</g>
<defs>
<clipPath id="clip0">
<rect width="28" height="28" fill="white" transform="matrix(-1 0 0 1 28.1289 0)"/>
</clipPath>
</defs>
</svg>
