<svg width="25" height="25" viewBox="0 0 25 25" fill="none" xmlns="http://www.w3.org/2000/svg">
<path d="M21.2894 5.85938H3.7113C3.30647 5.85938 2.97888 6.18696 2.97888 6.5918V19.7543C2.97888 20.1591 3.30647 20.4867 3.7113 20.4867C4.11614 20.4867 4.44373 20.1591 4.44373 19.7543V16.1133H20.557V19.9396C20.557 20.3444 20.8846 20.672 21.2894 20.672C21.6943 20.672 22.0219 20.3444 22.0219 19.9396V6.5918C22.0219 6.18696 21.6943 5.85938 21.2894 5.85938ZM17.6273 8.78906H16.1625V7.32422H17.6273V8.78906ZM19.0922 7.32422H20.557V8.78906H19.0922V7.32422ZM14.6976 8.78906H13.2328V7.32422H14.6976V8.78906ZM13.2328 10.2539H14.6976V11.7188H13.2328V10.2539ZM11.7679 11.7188H10.3031V10.2539H11.7679V11.7188ZM11.7679 8.78906H10.3031V7.32422H11.7679V8.78906ZM8.83826 8.78906H7.37341V7.32422H8.83826V8.78906ZM5.90857 8.78906H4.44373V7.32422H5.90857V8.78906ZM4.44373 10.2539H5.90857V11.7188H4.44373V10.2539ZM7.37341 10.2539H8.83826V11.7188H7.37341V10.2539ZM8.83826 13.1836V14.6484H7.37341V13.1836H8.83826ZM10.3031 13.1836H11.7679V14.6484H10.3031V13.1836ZM13.2328 13.1836H14.6976V14.6484H13.2328V13.1836ZM16.1625 13.1836H17.6273V14.6484H16.1625V13.1836ZM16.1625 11.7188V10.2539H17.6273V11.7188H16.1625ZM19.0922 10.2539H20.557V11.7188H19.0922V10.2539ZM4.44373 13.1836H5.90857V14.6484H4.44373V13.1836ZM19.0922 14.6484V13.1836H20.557V14.6484H19.0922Z" fill="#D9F2FF"/>
<path d="M12.5004 4.39453C11.2887 4.39453 10.3031 3.40889 10.3031 2.19727C10.3031 0.985645 11.2887 0 12.5004 0C13.712 0 14.6976 0.985645 14.6976 2.19727C14.6976 3.40889 13.712 4.39453 12.5004 4.39453Z" fill="#FF641A"/>
<path d="M14.6976 2.19727C14.6976 0.985645 13.712 0 12.5004 0V4.39453C13.712 4.39453 14.6976 3.40889 14.6976 2.19727Z" fill="#F03800"/>
<path d="M21.2894 20.672C21.6943 20.672 22.0219 20.3444 22.0219 19.9396V6.5918C22.0219 6.18696 21.6943 5.85938 21.2894 5.85938H12.5004V16.1133H20.557V19.9396C20.557 20.3444 20.8846 20.672 21.2894 20.672ZM19.0922 7.32422H20.557V8.78906H19.0922V7.32422ZM19.0922 10.2539H20.557V11.7188H19.0922V10.2539ZM14.6976 14.6484H13.2328V13.1836H14.6976V14.6484ZM14.6976 11.7188H13.2328V10.2539H14.6976V11.7188ZM14.6976 8.78906H13.2328V7.32422H14.6976V8.78906ZM17.6273 14.6484H16.1625V13.1836H17.6273V14.6484ZM17.6273 11.7188H16.1625V10.2539H17.6273V11.7188ZM17.6273 8.78906H16.1625V7.32422H17.6273V8.78906ZM19.0922 14.6484V13.1836H20.557V14.6484H19.0922Z" fill="#C4E1FF"/>
<path d="M24.9997 23.5263C24.9997 24.3471 24.2674 25.0075 23.4467 24.9936C18.3027 24.9062 16.0739 23.9413 13.7214 22.9229C13.2393 22.7141 12.7522 22.503 12.2308 22.2978C11.9511 22.1869 11.7666 21.9165 11.7673 21.6154C11.7681 21.3143 11.9526 21.0439 12.233 20.9337C14.6125 20.0028 17.7598 19.1412 24.2604 19.1406C24.663 19.1406 24.9997 19.4704 24.9997 19.873V23.5263Z" fill="#FF9100"/>
<path d="M24.9998 24.2676C24.9998 24.6724 24.6722 25 24.2674 25H0.732788C0.327954 25 0.000366211 24.6724 0.000366211 24.2676V19.873C0.000366211 19.4682 0.327954 19.1406 0.732788 19.1406C7.23806 19.1406 10.3863 20.0025 12.7666 20.9338C13.3052 21.1462 13.8073 21.3637 14.303 21.5782C16.7301 22.629 19.0648 23.6188 24.9998 23.5295V24.2676H24.9998Z" fill="#FFCD00"/>
<path d="M12.5004 25H24.2674C24.6722 25 24.9998 24.6724 24.9998 24.2676V23.5295C19.0648 23.6188 16.7301 22.629 14.303 21.5782C13.8073 21.3636 13.3052 21.1462 12.7666 20.9338C12.679 20.8995 12.5902 20.8653 12.5004 20.8313V25Z" fill="#FFB100"/>
</svg>
