<svg width="24" height="24" viewBox="0 0 24 24" fill="none" xmlns="http://www.w3.org/2000/svg">
  <path fill-rule="evenodd" clip-rule="evenodd"
        d="M12 0C5.373 0 0 5.373 0 12C0 18.627 5.373 24 12 24C18.627 24 24 18.627 24 12C24 5.373 18.627 0 12 0ZM12.75 12.75C11.922 12.75 11.25 12.078 11.25 11.25C11.25 10.422 11.922 9.75 12.75 9.75C13.578 9.75 14.25 10.422 14.25 11.25C14.25 12.078 13.578 12.75 12.75 12.75ZM14.25 6.75C13.422 6.75 12.75 6.078 12.75 5.25C12.75 4.422 13.422 3.75 14.25 3.75C15.078 3.75 15.75 4.422 15.75 5.25C15.75 6.078 15.078 6.75 14.25 6.75ZM18.75 11.25C17.922 11.25 17.25 10.578 17.25 9.75C17.25 8.922 17.922 8.25 18.75 8.25C19.578 8.25 20.25 8.922 20.25 9.75C20.25 10.578 19.578 11.25 18.75 11.25Z"
        fill="#707D9B"/>
</svg>
