<svg width="37" height="25" viewBox="0 0 37 25" fill="none" xmlns="http://www.w3.org/2000/svg">
<path d="M5.22736 22.4107V24.4878C5.22736 24.6997 5.05556 24.8715 4.84361 24.8715H0.82637C0.614426 24.8715 0.442627 24.6997 0.442627 24.4878V22.4107C0.442627 22.1987 0.614426 22.0269 0.82637 22.0269H4.84361C5.05556 22.0269 5.22736 22.1987 5.22736 22.4107ZM32.0915 14.5543C23.0113 16.1462 13.7246 16.1462 4.64427 14.5543V20.8757H1.02569V1.74966C1.02569 1.32578 1.36931 0.982178 1.79318 0.982178H3.87678C4.30067 0.982178 4.64427 1.32578 4.64427 1.74966V3.8295C13.6692 5.54365 23.0671 5.54367 32.0915 3.82955V1.74966C32.0915 1.32578 32.4352 0.982178 32.859 0.982178H34.9426C35.3665 0.982178 35.7101 1.32578 35.7101 1.74966V20.8757H32.0915V14.5543ZM6.77399 6.14006C6.06209 6.02975 5.35217 5.90959 4.64427 5.77878V10.935C5.35287 11.0652 6.06284 11.1846 6.77399 11.2945V6.14006ZM11.0278 6.67497C10.2479 6.5993 9.46945 6.51242 8.69271 6.41258V11.5667C9.46999 11.6665 10.2485 11.7529 11.0278 11.8286V6.67497ZM15.2816 6.96716C14.5024 6.93556 13.724 6.89244 12.9465 6.83689V11.9908C13.7243 12.0465 14.5027 12.0895 15.2816 12.1212V6.96716ZM19.5353 7.02089C19.1462 7.02686 18.7572 7.03675 18.368 7.03675C17.9787 7.03675 17.5895 7.02686 17.2003 7.02089V12.1751C17.9786 12.1871 18.757 12.1871 19.5353 12.1751V7.02089ZM23.7891 6.83691C23.0115 6.89244 22.2332 6.93559 21.4541 6.96718V12.1212C22.2329 12.0895 23.0113 12.0465 23.7891 11.9908V6.83691ZM28.0433 6.41258C27.2664 6.51245 26.4879 6.59934 25.7078 6.67502V11.8286C26.4873 11.7528 27.2659 11.6665 28.0433 11.5666V6.41258ZM32.0915 10.9349V5.77878C31.3837 5.90957 30.6738 6.02975 29.962 6.14004V11.2944C30.6731 11.1845 31.383 11.0652 32.0915 10.9349ZM35.9095 22.0269H31.8922C31.6803 22.0269 31.5085 22.1987 31.5085 22.4107V24.4878C31.5085 24.6997 31.6803 24.8715 31.8922 24.8715H35.9095C36.1214 24.8715 36.2932 24.6997 36.2932 24.4878V22.4107C36.2932 22.1987 36.1214 22.0269 35.9095 22.0269Z" fill="#25A3DE"/>
<rect x="0.442627" y="21.9738" width="4.96136" height="2.89768" fill="#0055A3"/>
<rect x="31.3318" y="21.9738" width="4.96136" height="2.89768" fill="#0055A3"/>
</svg>
