<svg width="29" height="30" viewBox="0 0 29 30" fill="none" xmlns="http://www.w3.org/2000/svg">
<path d="M14.4921 2.42342C14.3418 2.42721 14.1938 2.38618 14.0669 2.30556C13.94 2.22495 13.8399 2.10839 13.7795 1.97073C13.719 1.83307 13.7009 1.68053 13.7275 1.53254C13.754 1.38455 13.8239 1.24781 13.9284 1.13971C14.0329 1.03161 14.1672 0.957053 14.3142 0.925529C14.4612 0.894006 14.6143 0.906941 14.7539 0.962689C14.8936 1.01844 15.0134 1.11448 15.0983 1.23858C15.1832 1.36268 15.2292 1.50923 15.2305 1.65957C15.2323 1.8583 15.1558 2.04976 15.0177 2.19265C14.8796 2.33554 14.6908 2.41842 14.4921 2.42342Z" fill="#707D9B"/>
<path d="M15.3388 3.78248L17.2039 1.01989L16.9047 0.892578L15.1415 2.71627H14.4922H13.8429L12.0797 0.892578L11.7805 1.01989L13.6456 3.78248L13.6329 5.6571L13.0854 10.2116H13.5978L14.4922 6.42413L15.3865 10.2116H15.8989L15.3515 5.6571L15.3388 3.78248Z" fill="#707D9B"/>
<path d="M14.508 28.0125C14.6581 28.0118 14.8049 28.0558 14.93 28.1388C15.0551 28.2218 15.1526 28.3401 15.2104 28.4786C15.2681 28.6171 15.2834 28.7697 15.2542 28.9169C15.2251 29.0642 15.1529 29.1994 15.0468 29.3056C14.9406 29.4117 14.8054 29.4839 14.6581 29.513C14.5109 29.5421 14.3583 29.5269 14.2198 29.4692C14.0813 29.4114 13.963 29.3138 13.88 29.1888C13.797 29.0637 13.753 28.9168 13.7537 28.7668C13.7545 28.567 13.8342 28.3756 13.9755 28.2343C14.1168 28.093 14.3082 28.0133 14.508 28.0125Z" fill="#707D9B"/>
<path d="M13.6456 26.6439L11.7805 29.4065L12.0797 29.537L13.8429 27.7101H14.4922H15.1415L16.9047 29.537L17.2039 29.4065L15.3388 26.6439L15.3515 24.7693L15.8989 20.2148H15.3865L14.4922 24.0023L13.5978 20.2148H13.0854L13.6329 24.7693L13.6456 26.6439Z" fill="#707D9B"/>
<path d="M5.431 6.17597C5.32517 6.28217 5.1902 6.35457 5.04319 6.38401C4.89618 6.41345 4.74374 6.39861 4.60518 6.34135C4.46661 6.2841 4.34815 6.18701 4.2648 6.06238C4.18145 5.93776 4.13696 5.7912 4.13696 5.64128C4.13696 5.49135 4.18145 5.34479 4.2648 5.22017C4.34815 5.09554 4.46661 4.99845 4.60518 4.9412C4.74374 4.88394 4.89618 4.8691 5.04319 4.89854C5.1902 4.92798 5.32517 5.00038 5.431 5.10658C5.57249 5.24856 5.65193 5.44083 5.65193 5.64128C5.65193 5.84172 5.57249 6.03399 5.431 6.17597Z" fill="#707D9B"/>
<path d="M7.00955 6.53233L6.37301 3.25732L6.07065 3.37827L6.11521 5.91807L5.6569 6.37638H5.65372L5.19859 6.83469L2.65878 6.79332L2.53784 7.09567L5.81285 7.72903L7.12731 9.06259L9.95993 12.6718L10.3228 12.309L8.27945 8.99894L11.5895 11.0454L11.9523 10.6826L8.34311 7.84679L7.00955 6.53233Z" fill="#707D9B"/>
<path d="M23.5532 24.2506C23.659 24.1444 23.794 24.072 23.941 24.0426C24.088 24.0131 24.2405 24.028 24.379 24.0852C24.5176 24.1425 24.6361 24.2396 24.7194 24.3642C24.8028 24.4888 24.8472 24.6354 24.8472 24.7853C24.8472 24.9352 24.8028 25.0818 24.7194 25.2064C24.6361 25.3311 24.5176 25.4281 24.379 25.4854C24.2405 25.5426 24.088 25.5575 23.941 25.5281C23.794 25.4986 23.659 25.4262 23.5532 25.32C23.4117 25.178 23.3323 24.9858 23.3323 24.7853C23.3323 24.5849 23.4117 24.3926 23.5532 24.2506Z" fill="#707D9B"/>
<path d="M21.9747 23.8941L22.6113 27.1691L22.9136 27.0482L22.8691 24.5084L23.3274 24.05L23.7857 23.5917L26.3255 23.6331L26.4464 23.3308L23.1714 22.6974L21.857 21.3638L19.0244 17.7546L18.6615 18.1175L20.708 21.4275L17.3948 19.381L17.032 19.7438L20.6412 22.5796L21.9747 23.8941Z" fill="#707D9B"/>
<path d="M1.69441 15.2306C1.69441 15.3805 1.64999 15.5269 1.56676 15.6515C1.48352 15.776 1.36522 15.8731 1.22681 15.9305C1.08839 15.9878 0.936089 16.0028 0.789151 15.9736C0.642213 15.9443 0.507242 15.8722 0.401306 15.7663C0.29537 15.6603 0.223226 15.5254 0.193999 15.3784C0.164771 15.2315 0.179772 15.0792 0.237104 14.9408C0.294436 14.8023 0.391525 14.684 0.516093 14.6008C0.640661 14.5176 0.787113 14.4732 0.936929 14.4732C1.03652 14.4727 1.13521 14.492 1.2273 14.53C1.3194 14.5679 1.40307 14.6237 1.47349 14.6941C1.54391 14.7645 1.59969 14.8482 1.63761 14.9403C1.67553 15.0324 1.69484 15.131 1.69441 15.2306Z" fill="#707D9B"/>
<path d="M3.06301 14.3683L0.300413 12.5L0.169922 12.7992L1.9968 14.5656V15.2117V15.2149V15.8609L0.169922 17.6273L0.300413 17.9265L3.06301 16.0615L4.93444 16.0742L9.49208 16.6216V16.1092L5.70466 15.2149L9.49208 14.3205V13.8049L4.93444 14.3523L3.06301 14.3683Z" fill="#707D9B"/>
<path d="M27.2898 15.1957C27.2898 15.0458 27.3343 14.8992 27.4177 14.7745C27.5011 14.6499 27.6196 14.5528 27.7582 14.4956C27.8967 14.4383 28.0492 14.4235 28.1962 14.453C28.3433 14.4825 28.4782 14.555 28.584 14.6612C28.6898 14.7675 28.7617 14.9027 28.7906 15.0499C28.8195 15.197 28.804 15.3494 28.7462 15.4878C28.6884 15.6262 28.5908 15.7442 28.4658 15.8271C28.3408 15.9099 28.1941 15.9538 28.0441 15.9532C27.9448 15.9532 27.8464 15.9336 27.7547 15.8955C27.663 15.8574 27.5797 15.8015 27.5096 15.7311C27.4395 15.6608 27.384 15.5772 27.3463 15.4853C27.3086 15.3935 27.2894 15.295 27.2898 15.1957Z" fill="#707D9B"/>
<path d="M25.9213 16.0615L28.6839 17.9265L28.8144 17.6273L26.9875 15.8609V15.2149V15.2117V14.5656L28.8144 12.7992L28.6839 12.5L25.9213 14.3683L24.0498 14.3523L19.4922 13.8049V14.3205L23.2796 15.2149L19.4922 16.1092V16.6216L24.0498 16.0742L25.9213 16.0615Z" fill="#707D9B"/>
<path d="M5.45331 24.276C5.55951 24.3818 5.63192 24.5168 5.66136 24.6638C5.6908 24.8108 5.67595 24.9632 5.61869 25.1018C5.56144 25.2404 5.46435 25.3588 5.33973 25.4422C5.2151 25.5255 5.06855 25.57 4.91862 25.57C4.76869 25.57 4.62213 25.5255 4.49751 25.4422C4.37289 25.3588 4.2758 25.2404 4.21854 25.1018C4.16129 24.9632 4.14644 24.8108 4.17588 24.6638C4.20532 24.5168 4.27772 24.3818 4.38392 24.276C4.45401 24.2055 4.53733 24.1496 4.62909 24.1115C4.72085 24.0733 4.81925 24.0537 4.91862 24.0537C5.01799 24.0537 5.11638 24.0733 5.20814 24.1115C5.2999 24.1496 5.38322 24.2055 5.45331 24.276Z" fill="#707D9B"/>
<path d="M5.80967 22.6974L2.53784 23.3308L2.65878 23.6331L5.19859 23.5917L5.65372 24.05H5.6569L6.11521 24.5084L6.07065 27.0482L6.37301 27.1691L7.00955 23.8941L8.34311 22.5796L11.9523 19.7438L11.5895 19.381L8.27627 21.4275L10.3228 18.1175L9.95993 17.7546L7.12731 21.3638L5.80967 22.6974Z" fill="#707D9B"/>
<path d="M23.5309 6.15046C23.3895 6.00865 23.3102 5.81648 23.3105 5.61623C23.3108 5.41598 23.3907 5.22405 23.5325 5.08266C23.6743 4.94127 23.8665 4.86201 24.0667 4.86231C24.267 4.8626 24.4589 4.94244 24.6003 5.08425C24.6703 5.15447 24.7258 5.23779 24.7636 5.32945C24.8014 5.42111 24.8208 5.51933 24.8206 5.61848C24.8205 5.71763 24.8008 5.81579 24.7627 5.90734C24.7247 5.99889 24.6689 6.08204 24.5987 6.15205C24.5285 6.22206 24.4452 6.27755 24.3535 6.31536C24.2618 6.35317 24.1636 6.37255 24.0645 6.3724C23.9653 6.37225 23.8672 6.35258 23.7756 6.3145C23.6841 6.27642 23.6009 6.22068 23.5309 6.15046Z" fill="#707D9B"/>
<path d="M23.1714 7.72903L26.4464 7.09567L26.3255 6.79332L23.7857 6.83469L23.3274 6.37638L22.8691 5.91807L22.9136 3.37827L22.6113 3.25732L21.9747 6.53233L20.6412 7.84679L17.032 10.6826L17.3948 11.0454L20.708 8.99894L18.6615 12.309L19.0244 12.6718L21.857 9.06259L23.1714 7.72903Z" fill="#707D9B"/>
</svg>
