<svg width="29" height="29" viewBox="0 0 29 29" fill="none" xmlns="http://www.w3.org/2000/svg">
<g clip-path="url(#clip0)">
<path d="M27.1744 26.999C26.9285 27.0975 26.6657 27.1467 26.387 27.1467H4.94946C2.6854 27.1467 0.8479 25.3092 0.8479 23.0452V3.35767C0.8479 2.89824 1.20878 2.53735 1.66821 2.53735H23.1057C23.5651 2.53735 23.926 2.89824 23.926 3.35767V7.45923L25.5667 23.0452L27.1744 26.999Z" fill="#F0F7FF"/>
<path d="M12.387 27.1467H26.387C26.6658 27.1467 26.9285 27.0975 27.1744 26.999L25.5667 23.0452L23.926 7.45923V3.35767C23.926 2.89824 23.5651 2.53735 23.1057 2.53735H12.387V27.1467Z" fill="#DFE7F4"/>
<path d="M28.0276 7.45923C28.4806 7.45923 28.8479 7.82651 28.8479 8.27954V24.6858C28.8479 25.7685 28.1425 26.6873 27.1744 26.999C26.8428 27.1317 26.4806 27.1751 26.0898 27.1288C24.8358 26.9803 23.926 25.8368 23.926 24.574V7.45923H28.0276Z" fill="#C7CFE1"/>
<path d="M9.87134 17.303H4.94946C4.49605 17.303 4.12915 16.9361 4.12915 16.4827V13.2014C4.12915 12.748 4.49605 12.3811 4.94946 12.3811H9.87134C10.3248 12.3811 10.6917 12.748 10.6917 13.2014V16.4827C10.6917 16.9361 10.3248 17.303 9.87134 17.303Z" fill="#7ED8F6"/>
<path d="M19.8245 10.7405H4.94946C4.49605 10.7405 4.12915 10.3736 4.12915 9.92017V6.63892C4.12915 6.1855 4.49605 5.8186 4.94946 5.8186H19.8245C20.2779 5.8186 20.6448 6.1855 20.6448 6.63892V9.92017C20.6448 10.3736 20.2779 10.7405 19.8245 10.7405Z" fill="#7ED8F6"/>
<path d="M19.8245 17.303H13.2073C12.7539 17.303 12.387 16.9361 12.387 16.4827C12.387 16.0293 12.7539 15.6624 13.2073 15.6624H19.8245C20.2779 15.6624 20.6448 16.0293 20.6448 16.4827C20.6448 16.9361 20.2779 17.303 19.8245 17.303Z" fill="#6AA9FF"/>
<path d="M19.8245 20.5842H4.94946C4.49605 20.5842 4.12915 20.2173 4.12915 19.7639C4.12915 19.3105 4.49605 18.9436 4.94946 18.9436H19.8245C20.2779 18.9436 20.6448 19.3105 20.6448 19.7639C20.6448 20.2173 20.2779 20.5842 19.8245 20.5842Z" fill="#7ED8F6"/>
<path d="M19.8245 23.8655H4.94946C4.49605 23.8655 4.12915 23.4986 4.12915 23.0452C4.12915 22.5918 4.49605 22.2249 4.94946 22.2249H19.8245C20.2779 22.2249 20.6448 22.5918 20.6448 23.0452C20.6448 23.4986 20.2779 23.8655 19.8245 23.8655Z" fill="#7ED8F6"/>
<path d="M19.8245 14.0217H13.2073C12.7539 14.0217 12.387 13.6548 12.387 13.2014C12.387 12.748 12.7539 12.3811 13.2073 12.3811H19.8245C20.2779 12.3811 20.6448 12.748 20.6448 13.2014C20.6448 13.6548 20.2779 14.0217 19.8245 14.0217Z" fill="#6AA9FF"/>
<path d="M12.387 23.8655H19.8245C20.2779 23.8655 20.6448 23.4986 20.6448 23.0452C20.6448 22.5918 20.2779 22.2249 19.8245 22.2249H12.387V23.8655Z" fill="#6AA9FF"/>
<path d="M12.387 20.5842H19.8245C20.2779 20.5842 20.6448 20.2173 20.6448 19.7639C20.6448 19.3105 20.2779 18.9436 19.8245 18.9436H12.387V20.5842Z" fill="#6AA9FF"/>
<path d="M12.387 10.7405H19.8245C20.2779 10.7405 20.6448 10.3736 20.6448 9.92017V6.63892C20.6448 6.1855 20.2779 5.8186 19.8245 5.8186H12.387V10.7405Z" fill="#6AA9FF"/>
</g>
<defs>
<clipPath id="clip0">
<rect width="28" height="28" fill="white" transform="translate(0.8479 0.842041)"/>
</clipPath>
</defs>
</svg>
