<svg width="26" height="22" viewBox="0 0 26 22" fill="none" xmlns="http://www.w3.org/2000/svg">
<path d="M5.56997 21.5001C2.77044 21.5001 0.500977 19.2306 0.500977 16.4311C0.500977 13.6316 2.77044 11.3621 5.56997 11.3621C8.3695 11.3621 10.639 13.6316 10.639 16.4311C10.639 19.2306 8.3695 21.5001 5.56997 21.5001ZM5.56997 20.0518C7.56963 20.0518 9.19068 18.4308 9.19068 16.4311C9.19068 14.4315 7.56963 12.8104 5.56997 12.8104C3.57031 12.8104 1.94926 14.4315 1.94926 16.4311C1.94926 18.4308 3.57031 20.0518 5.56997 20.0518ZM20.0528 21.5001C17.2533 21.5001 14.9838 19.2306 14.9838 16.4311C14.9838 13.6316 17.2533 11.3621 20.0528 11.3621C22.8523 11.3621 25.1218 13.6316 25.1218 16.4311C25.1218 19.2306 22.8523 21.5001 20.0528 21.5001ZM20.0528 20.0518C22.0525 20.0518 23.6735 18.4308 23.6735 16.4311C23.6735 14.4315 22.0525 12.8104 20.0528 12.8104C18.0531 12.8104 16.4321 14.4315 16.4321 16.4311C16.4321 18.4308 18.0531 20.0518 20.0528 20.0518ZM20.7769 5.56899C19.3772 5.56899 18.2424 4.43426 18.2424 3.0345C18.2424 1.63473 19.3772 0.5 20.7769 0.5C22.1767 0.5 23.3114 1.63473 23.3114 3.0345C23.3114 4.43426 22.1767 5.56899 20.7769 5.56899ZM20.7769 4.12071C21.3768 4.12071 21.8632 3.63439 21.8632 3.0345C21.8632 2.4346 21.3768 1.94828 20.7769 1.94828C20.177 1.94828 19.6907 2.4346 19.6907 3.0345C19.6907 3.63439 20.177 4.12071 20.7769 4.12071ZM10.2798 9.67331L13.3472 13.0474C13.4684 13.1807 13.5355 13.3544 13.5355 13.5346V17.8794C13.5355 18.2793 13.2113 18.6035 12.8114 18.6035C12.4115 18.6035 12.0872 18.2793 12.0872 17.8794V13.8145L8.65486 10.0389C8.36133 9.716 8.41792 9.20877 8.77541 8.95853L16.0168 3.88954C16.3866 3.63071 16.9004 3.76952 17.0896 4.17932L19.0678 8.46556H22.5873C22.9872 8.46556 23.3114 8.78977 23.3114 9.1897C23.3114 9.58963 22.9872 9.91384 22.5873 9.91384H18.6045C18.3221 9.91384 18.0654 9.74961 17.947 9.49316L16.1376 5.57282L10.2798 9.67331Z" fill="#707D9B"/>
</svg>
