<svg width="28" height="27" viewBox="0 0 28 27" fill="none" xmlns="http://www.w3.org/2000/svg">
<g clip-path="url(#clip0)">
<path d="M13.5424 26.9997C20.9979 26.9997 27.0418 20.9558 27.0418 13.5003C27.0418 6.04475 20.9979 0.000854492 13.5424 0.000854492C6.08686 0.000854492 0.0429688 6.04475 0.0429688 13.5003C0.0429688 20.9558 6.08686 26.9997 13.5424 26.9997Z" fill="#FBC56D"/>
<path d="M26.7333 10.6176C19.4681 9.87391 12.1518 9.69957 4.87185 10.2276C3.3638 10.3368 1.85581 10.4617 0.351562 10.6171C1.67219 4.54695 7.0763 0.000610352 13.5424 0.000610352C20.0086 0.000610352 25.4132 4.54695 26.7333 10.6176Z" fill="#FEF1DA"/>
<path d="M26.7333 16.3824C25.4133 22.4531 20.0086 26.9995 13.5424 26.9995C7.0763 26.9995 1.67219 22.4531 0.351562 16.383C1.85581 16.5383 3.3638 16.6633 4.87185 16.7725C12.1517 17.3005 19.468 17.1262 26.7333 16.3824Z" fill="#FEF1DA"/>
<path d="M27.0419 13.4999C27.0419 20.9553 20.9978 26.9994 13.5425 26.9994C12.5673 26.9994 11.6161 26.8962 10.6997 26.6989C11.2794 26.7755 11.8704 26.8146 12.4707 26.8146C19.9261 26.8146 25.9701 20.7706 25.9701 13.3152C25.9701 6.83494 21.4042 1.4216 15.314 0.116211C21.9322 0.983217 27.0419 6.64483 27.0419 13.4999Z" fill="#FDDEB0"/>
<path d="M4.97337 23.192C5.1331 23.5706 5.29985 23.9493 5.4753 24.3246C2.17787 21.8638 0.0429688 17.9313 0.0429688 13.5001C0.0429688 9.1336 2.11596 5.25161 5.33191 2.78369C3.03348 7.55763 2.23709 13.197 3.38875 18.2708C3.77066 19.9532 4.30248 21.6025 4.97337 23.192Z" fill="#FDD79B"/>
<path d="M27.0418 13.5001C27.0418 17.9313 24.9069 21.8638 21.6094 24.3246C21.7848 23.9493 21.9516 23.5706 22.1113 23.192C22.7822 21.6025 23.314 19.9532 23.6959 18.2708C24.8476 13.197 24.0512 7.55768 21.7528 2.78369C24.9688 5.25161 27.0418 9.1336 27.0418 13.5001Z" fill="#FDD79B"/>
<path d="M27.0428 13.5C27.0433 13.6233 27.0412 13.7456 27.0368 13.8721C27.0053 14.7728 26.9016 15.6653 26.6973 16.5437C26.6577 16.7143 26.6153 16.8838 26.5691 17.0517C26.4969 17.3135 26.4203 17.5721 26.3322 17.8296C26.2111 18.1931 26.066 18.5521 25.9156 18.9052C25.8102 19.1524 25.6956 19.3958 25.5728 19.6348C25.487 19.8016 24.4195 20.3172 23.8513 20.5784C25.1926 18.4815 25.9699 15.9891 25.9699 13.3153C25.9699 10.8583 25.3132 8.55391 24.1658 6.56946C24.6259 6.78836 25.0774 7.02197 25.5201 7.26861C25.7004 7.61413 25.8645 7.9656 26.015 8.32736C26.1867 8.74074 26.3404 9.16937 26.4691 9.59799C26.7886 10.6595 26.9792 11.7894 27.0281 12.8895C27.0374 13.0942 27.0423 13.2952 27.0428 13.5Z" fill="#FECA9C"/>
<path d="M3.83466 6.24784C3.05835 6.57543 2.28427 6.93175 1.53296 7.32995C3.77269 2.97757 8.3098 0.000610352 13.5423 0.000610352C18.7497 0.000610352 23.2689 2.94931 25.5201 7.26857C20.4973 4.46874 14.2903 3.40725 8.75583 4.66323C7.07339 5.04513 5.42412 5.57695 3.83466 6.24784Z" fill="#FDD79B"/>
<path d="M16.6903 0.369916C16.6832 0.40683 16.6762 0.444324 16.6691 0.482346C16.2269 0.337326 15.7749 0.215088 15.3137 0.116211C15.7804 0.177594 16.2399 0.262338 16.6903 0.369916Z" fill="#FECA9C"/>
<path d="M3.83466 6.24794C3.05835 6.57553 2.28427 6.93185 1.53296 7.33005C3.30879 3.87943 6.52854 1.29307 10.3942 0.370117C10.6116 1.51635 10.9228 3.05097 11.2422 4.25754V4.25806C10.4029 4.34334 9.57173 4.47807 8.75583 4.66333C7.07339 5.04523 5.42412 5.57706 3.83466 6.24794Z" fill="#FBC56D"/>
<path d="M25.5202 7.26867C22.5769 5.62758 19.2268 4.58402 15.8435 4.25427C16.1624 3.04829 16.4737 1.5153 16.6904 0.370117C20.5327 1.28764 23.7378 3.84848 25.5202 7.26867Z" fill="#FBC56D"/>
<path d="M25.5201 7.26867C25.0774 7.02203 24.626 6.78847 24.1659 6.56899C22.5165 3.71643 19.8536 1.52342 16.6692 0.482547C16.6763 0.444525 16.6833 0.407031 16.6904 0.370117C16.692 0.370645 16.6937 0.370645 16.6953 0.371225C16.792 0.394586 16.8887 0.418475 16.9843 0.443998C17.505 0.583059 18.0182 0.750912 18.5195 0.949141C18.7748 1.05007 19.027 1.15887 19.2756 1.27557C19.6863 1.46842 20.0686 1.67303 20.4599 1.90585C21.2214 2.35894 21.9182 2.88665 22.5829 3.47528C22.7833 3.65278 22.9762 3.83877 23.1634 4.0302C23.6386 4.5162 24.0768 5.03474 24.4788 5.58518C24.6456 5.81368 24.8042 6.04819 24.9552 6.28744C25.1566 6.60648 25.3501 6.92801 25.5185 7.26487C25.519 7.26598 25.5195 7.26756 25.5201 7.26867Z" fill="#FEA95C"/>
<path d="M3.83466 20.7523C3.05835 20.4247 2.28427 20.0684 1.53296 19.6702C3.77275 24.0226 8.30985 26.9995 13.5423 26.9995C18.7497 26.9995 23.2689 24.0508 25.5201 19.7315C20.4973 22.5314 14.2903 23.5929 8.75583 22.3369C7.07339 21.955 5.42412 21.4232 3.83466 20.7523Z" fill="#FDD79B"/>
<path d="M16.6905 26.63C15.6806 26.8717 14.6262 26.9994 13.5425 26.9994C12.5673 26.9994 11.6161 26.8962 10.6997 26.699C11.2794 26.7756 11.8704 26.8147 12.4707 26.8147C13.9119 26.8147 15.3004 26.5887 16.6025 26.1704C16.6335 26.329 16.6628 26.4828 16.6905 26.63Z" fill="#FEA95C"/>
<path d="M3.83466 20.7523C3.05835 20.4247 2.28427 20.0684 1.53296 19.6702C3.30879 23.1208 6.52854 25.7071 10.3942 26.6301C10.6116 25.4839 10.9228 23.9492 11.2422 22.7427V22.7422C10.4029 22.6569 9.57173 22.5221 8.75583 22.3369C7.07339 21.955 5.42412 21.4232 3.83466 20.7523Z" fill="#FBC56D"/>
<path d="M25.5202 19.7314C22.5769 21.3725 19.2268 22.4161 15.8435 22.7458C16.1624 23.9518 16.4737 25.4848 16.6904 26.63C20.5327 25.7125 23.7378 23.1516 25.5202 19.7314Z" fill="#FBC56D"/>
<path d="M25.5201 19.7314C25.5179 19.7358 25.5158 19.7407 25.513 19.7451C25.4875 19.7939 25.4614 19.8428 25.4354 19.8912C25.4071 19.9444 25.3783 19.9971 25.349 20.0498C25.2509 20.2257 25.1538 20.3935 25.048 20.5637C24.9626 20.7012 24.8768 20.8377 24.7862 20.9722C24.4135 21.5254 24.028 22.0365 23.5768 22.5303C23.1333 23.0158 22.6612 23.4726 22.1569 23.8938C21.777 24.2111 21.3757 24.5058 20.964 24.7776C20.5601 25.0442 20.1434 25.294 19.7096 25.511C19.2923 25.7196 18.8814 25.9186 18.4416 26.0825C18.3189 26.1283 18.1972 26.1761 18.0734 26.2199C17.6211 26.38 17.158 26.5203 16.6903 26.6301C16.6626 26.4829 16.6332 26.3291 16.6023 26.1705C19.6211 25.2014 22.1764 23.1979 23.8518 20.5779C24.42 20.3165 24.9768 20.0346 25.5201 19.7314Z" fill="#FEA95C"/>
<path d="M19.8948 13.6134C19.499 12.9796 18.8201 12.5356 18.0981 12.3667C17.4484 12.2146 16.7793 12.2818 16.1904 12.4633C16.1888 12.4638 16.1871 12.4643 16.1854 12.4648C16.0996 12.4914 16.0366 12.3847 16.1023 12.3233C16.1109 12.3152 16.1195 12.3072 16.1279 12.2991C16.573 11.8727 16.957 11.3208 17.1402 10.6793C17.3437 9.96619 17.286 9.15708 16.9247 8.50297C16.7095 8.11337 16.3777 7.80614 15.9622 7.64208C15.5667 7.48593 15.1158 7.43884 14.6961 7.50513C14.2032 7.58302 13.8675 7.84579 13.5425 8.20686C13.2175 7.84584 12.8819 7.58302 12.389 7.50513C11.9693 7.43884 11.5184 7.48593 11.1229 7.64208C10.7073 7.80614 10.3756 8.11337 10.1603 8.50297C9.79903 9.15708 9.74128 9.96619 9.94484 10.6793C10.128 11.3209 10.5121 11.8728 10.9571 12.2991C10.9656 12.3071 10.9741 12.3152 10.9827 12.3233C11.0484 12.3846 10.9854 12.4914 10.8996 12.4648C10.898 12.4643 10.8963 12.4638 10.8946 12.4633C10.3057 12.2818 9.63666 12.2146 8.98697 12.3667C8.26493 12.5356 7.58603 12.9796 7.19026 13.6134C6.95448 13.991 6.84743 14.4303 6.90623 14.8731C6.96218 15.2946 7.14032 15.7115 7.40235 16.046C7.71011 16.4388 8.10298 16.6042 8.57654 16.7127C8.41918 17.1722 8.35279 17.5933 8.52449 18.0619C8.67067 18.4609 8.93118 18.8319 9.25998 19.1016C9.60539 19.3849 10.0352 19.5253 10.4804 19.5239C11.2276 19.5214 11.9627 19.1784 12.4867 18.6536C12.9582 18.1816 13.2537 17.5776 13.4096 16.9813C13.4285 16.9092 13.4451 16.8342 13.4597 16.757C13.4772 16.6647 13.608 16.6647 13.6254 16.757C13.64 16.8342 13.6567 16.9092 13.6755 16.9813C13.8315 17.5776 14.127 18.1815 14.5985 18.6536C15.1225 19.1783 15.8576 19.5214 16.6048 19.5239C17.05 19.5253 17.4797 19.3849 17.8252 19.1016C18.154 18.8319 18.4145 18.4609 18.5607 18.0619C18.7324 17.5934 18.666 17.1723 18.5086 16.7127C18.9822 16.6042 19.3751 16.4388 19.6828 16.046C19.9449 15.7115 20.1231 15.2946 20.179 14.8731C20.2376 14.4303 20.1305 13.9909 19.8948 13.6134Z" fill="#BBEC6C"/>
<path d="M19.8949 13.6134C19.499 12.9796 18.8201 12.5355 18.0981 12.3666C17.9773 12.3385 17.856 12.3178 17.7347 12.3041C18.1282 12.4176 18.4489 12.6905 18.6783 13.0237C19.1973 13.7778 19.293 14.954 18.5339 15.5906C18.2924 15.7931 17.9598 15.8671 17.7612 16.1233C17.543 16.4046 17.5697 16.6579 17.6056 16.996C17.6615 17.5228 17.5453 18.0824 17.222 18.5169C16.8587 19.0052 16.3003 19.2804 15.698 19.2778C15.6251 19.2774 15.5522 19.274 15.4797 19.2671C15.8331 19.4297 16.2174 19.5226 16.6049 19.5238C17.0499 19.5254 17.4798 19.3847 17.825 19.1014C18.154 18.8318 18.4145 18.4606 18.5605 18.0619C18.7322 17.5932 18.6659 17.1722 18.5086 16.7126C18.9821 16.6043 19.3749 16.4386 19.6829 16.0458C19.9449 15.7116 20.1228 15.2947 20.1789 14.8732C20.2376 14.4302 20.1307 13.9912 19.8949 13.6134Z" fill="#A2E62E"/>
</g>
<defs>
<clipPath id="clip0">
<rect width="27" height="27" fill="white" transform="translate(0.0429688)"/>
</clipPath>
</defs>
</svg>
