<svg width="27" height="24" viewBox="0 0 27 24" fill="none" xmlns="http://www.w3.org/2000/svg">
<path fill-rule="evenodd" clip-rule="evenodd" d="M7.39337 17.0764C8.83583 17.9092 10.6803 17.415 11.5131 15.9725L20.5607 0.301687C20.7272 0.013194 21.0961 -0.0856509 21.3846 0.0809104C21.6731 0.247472 21.772 0.616366 21.6054 0.904858L10.4467 20.2323C9.61393 21.6747 7.76946 22.1689 6.32699 21.3361L3.19282 19.5266L5.30392 15.8701L7.39337 17.0764ZM2.1481 18.9234L1.10337 18.3203C0.526388 17.9872 0.328698 17.2494 0.661821 16.6724L1.56658 15.1053C1.8997 14.5283 2.63749 14.3306 3.21447 14.6637L4.2592 15.2669L2.1481 18.9234ZM15.2777 22.0158C15.6108 22.0158 15.8809 22.2858 15.8809 22.6189V23.2221C15.8809 23.5552 15.6108 23.8253 15.2777 23.8253H11.6587C11.3256 23.8253 11.0555 23.5552 11.0555 23.2221V22.6189C11.0555 22.2858 11.3256 22.0158 11.6587 22.0158H15.2777ZM14.6511 14.8872L15.2779 15.9725L15.3227 16.0476C16.1601 17.4072 17.9163 17.8778 19.3214 17.119L19.3976 17.0764L21.4871 15.8701L23.5982 19.5266L20.464 21.3361L20.3877 21.3787C18.9827 22.1375 17.2265 21.6669 16.389 20.3073L16.3443 20.2323L13.9547 16.0935L14.6511 14.8872ZM25.191 15.0506L25.2244 15.1053L26.1292 16.6724L26.1598 16.7287C26.4395 17.2776 26.259 17.9513 25.7423 18.2868L25.6876 18.3203L24.6429 18.9234L22.5318 15.2669L23.5765 14.6637L23.6329 14.6332C24.1818 14.3534 24.8555 14.5339 25.191 15.0506ZM6.20519 0.261772L6.23033 0.301687L12.91 11.8713L12.2134 13.0777L5.18561 0.904858L5.16361 0.863128C5.02889 0.581692 5.13163 0.23954 5.40638 0.0809104C5.68114 -0.0777194 6.02882 0.0043821 6.20519 0.261772Z" fill="#707D9B"/>
</svg>
