<svg width="32" height="23" viewBox="0 0 32 23" fill="none" xmlns="http://www.w3.org/2000/svg">
  <path
    d="M31.9022 1.40201C31.8659 1.40438 31.8302 1.40948 31.8004 1.42509C31.2755 1.69704 30.7167 1.81484 30.129 1.80839C29.9467 1.80636 29.764 1.78089 29.5827 1.78802C29.3705 1.79651 29.1794 1.80568 28.9947 1.64543C28.8545 1.52423 28.6596 1.45463 28.478 1.39556C28.0573 1.2584 28.0543 1.26688 28.1789 0.843862C28.239 0.640159 28.3018 0.437135 28.3558 0.231735C28.3646 0.198464 28.367 0.163155 28.367 0.127847C28.3676 0.0697914 28.3524 0.013773 28.3337 0.00256939C28.315 -0.00863426 28.262 0.0178473 28.2155 0.0616434C28.1222 0.149915 28.0291 0.238525 27.9324 0.322722C27.7226 0.505715 27.5155 0.693801 27.2917 0.857442C27.23 0.902256 27.102 0.892411 27.0188 0.864571C26.8022 0.792257 26.6009 0.671394 26.3819 0.613338C25.2826 0.321704 24.1564 0.299636 23.0293 0.320346C22.977 0.321364 22.925 0.359728 22.8707 0.401827C22.8201 0.441209 22.7247 0.470067 22.6609 0.468709C22.4273 0.464296 22.1659 0.451055 21.9086 0.478215C21.7042 0.499943 21.51 0.607567 21.3076 0.662906C20.7631 0.811269 20.2097 0.929756 19.6733 1.1029C19.2241 1.24787 18.7559 1.3942 18.3655 1.64679C17.8854 1.95744 17.4016 2.16861 16.8343 2.24873C16.227 2.33463 16.6486 2.46024 16.6486 2.46024C16.4874 2.49385 16.3254 2.56685 16.158 2.60148C16.0952 2.61438 16.0752 2.66564 16.1136 2.68975C16.1516 2.71385 16.177 2.7624 16.1703 2.78515C16.1635 2.80789 16.1068 2.82283 16.0436 2.81231C15.7323 2.76002 15.4213 2.71012 15.112 2.65817C15.0489 2.64765 15.0438 2.66394 15.1008 2.69348C15.3381 2.81604 15.5856 2.94472 15.8596 3.08629C15.9166 3.11583 15.9119 3.15113 15.8494 3.16505C15.7595 3.18508 15.6746 3.2041 15.5704 3.22752C15.5079 3.24144 15.5089 3.25027 15.5731 3.24721C15.7503 3.23839 15.8946 3.23126 16.0314 3.22447C16.0952 3.22141 16.1512 3.23737 16.156 3.26045C16.1608 3.28354 16.1173 3.3236 16.0589 3.35008C15.5143 3.59622 14.9728 3.84135 14.4755 4.0661C14.4171 4.09258 14.4215 4.1082 14.485 4.10107C14.5016 4.09937 14.5192 4.09733 14.5376 4.0953C14.6014 4.08817 14.6567 4.0919 14.6612 4.10378C14.6656 4.11567 14.6235 4.14894 14.5668 4.17881C14.3427 4.29696 14.1186 4.41477 13.8946 4.53292C13.8379 4.56279 13.7971 4.59607 13.8032 4.60761C13.8093 4.61915 13.8664 4.62492 13.9302 4.62085L13.9968 4.61678C14.0606 4.6127 14.0728 4.64326 14.0205 4.68026C13.8817 4.77804 13.735 4.84289 13.5832 4.89449C12.7206 5.18578 11.8562 5.47165 10.9921 5.75921C10.9657 5.76803 10.9249 5.76668 10.9144 5.78399C10.7535 6.05118 10.5314 5.9035 10.3383 5.85834C10.1892 5.82371 10.0466 5.76124 9.90301 5.70353C9.84359 5.67942 9.78961 5.67467 9.78282 5.69097C9.77603 5.70726 9.81779 5.74257 9.87584 5.76973C10.0717 5.86106 10.2676 5.95205 10.4639 6.04337C10.5219 6.07053 10.5453 6.13843 10.5155 6.19513C10.343 6.52004 10.3043 6.51291 9.85989 6.45825C9.74174 6.44365 9.62257 6.43856 9.51801 6.4338C9.45418 6.43109 9.38187 6.47658 9.37236 6.53973C9.34316 6.73053 9.46538 6.80013 9.5944 6.86192C9.65211 6.88942 9.6881 6.96818 9.64328 7.01368C9.5764 7.08192 9.43109 7.07105 8.87465 7.01232C8.81082 7.00553 8.8098 7.01266 8.87193 7.02794C9.34554 7.14574 9.79165 7.25676 10.2364 7.36744C10.2985 7.38306 10.3461 7.41599 10.3423 7.44145C10.3386 7.46692 10.308 7.50935 10.2744 7.53617C10.2408 7.56299 10.2649 7.59253 10.3281 7.60238C10.4347 7.61867 10.5413 7.63497 10.6479 7.65127C10.7114 7.66111 10.7633 7.68793 10.764 7.71136C10.7647 7.73478 10.7141 7.76194 10.6509 7.77213C10.4849 7.79861 10.3189 7.82509 10.1529 7.85157C10.0897 7.86176 10.0378 7.87907 10.0368 7.89062C10.0358 7.90216 10.0867 7.91642 10.1505 7.92219C10.2941 7.93543 10.4377 7.94833 10.5813 7.96157C10.6452 7.96734 10.6991 7.99213 10.7022 8.01657C10.7053 8.04102 10.6581 8.07633 10.597 8.09534C10.4082 8.15407 10.2198 8.21281 10.031 8.27154C9.96989 8.29055 9.92711 8.31839 9.93526 8.33401C9.94341 8.34963 9.89893 8.37068 9.83578 8.38188C9.70881 8.40361 9.58319 8.42534 9.46335 8.44605C9.4002 8.45691 9.39205 8.49493 9.44977 8.52277C9.77739 8.68064 10.1315 8.59407 10.5331 8.54484C10.5966 8.53703 10.6037 8.55842 10.5481 8.59067C10.0283 8.89521 9.56825 9.1641 9.11637 9.42891C9.06103 9.46116 9.06681 9.49885 9.12961 9.51311C9.15508 9.51888 9.18054 9.52465 9.20634 9.53076C9.26881 9.54502 9.31736 9.57286 9.31464 9.59323C9.31227 9.6136 9.25863 9.63906 9.19548 9.64993C8.95036 9.69237 8.70218 9.73548 8.43125 9.78268C8.36811 9.79354 8.36878 9.80644 8.43261 9.81119C8.59897 9.82342 8.74428 9.83428 8.88551 9.84447C8.94934 9.84922 9.00094 9.86619 9.0006 9.88249C9.00026 9.89879 8.94934 9.92255 8.88653 9.93545C8.82202 9.94869 8.75684 9.96193 8.69131 9.97551C8.62851 9.98841 8.60236 10.0129 8.63258 10.0302C8.6628 10.0475 8.68554 10.0787 8.68317 10.0998C8.68079 10.1208 8.62681 10.1402 8.56298 10.1432C8.18172 10.1612 7.80079 10.1792 7.41953 10.1972C7.3557 10.2003 7.34722 10.2312 7.40493 10.259C7.5465 10.3272 7.69181 10.3598 7.83135 10.4091C7.90332 10.4345 7.98684 10.5051 8.00653 10.5727C8.01332 10.5961 7.99295 10.6274 7.96851 10.6569C7.93456 10.6976 7.93727 10.7703 7.97598 10.8212C8.03777 10.902 8.10737 10.9937 8.18545 11.0959C8.22416 11.1468 8.20379 11.1906 8.13996 11.1933C8.12027 11.1943 8.10159 11.195 8.08394 11.1957C8.02011 11.1984 7.96545 11.213 7.96206 11.2276C7.95866 11.2422 8.00484 11.2721 8.06493 11.2942C8.31005 11.3834 8.55415 11.4727 8.79452 11.5603C8.85462 11.5821 8.85597 11.6204 8.79724 11.6462C8.78604 11.651 8.77483 11.655 8.76261 11.6605C8.70388 11.6863 8.70829 11.7019 8.77212 11.6982C8.83492 11.6944 8.89264 11.688 8.949 11.6849C9.01282 11.6812 9.02912 11.708 8.98227 11.7515C8.63224 12.076 8.21431 12.3639 7.76005 12.3826C7.69623 12.3853 7.69623 12.5221 7.76005 12.5221H8.21465C8.24554 12.5221 8.26625 12.496 8.27644 12.4722C8.28255 12.4753 8.28323 12.4753 8.29138 12.4794C8.32567 12.4967 8.35928 12.4675 8.39085 12.4634C8.56061 12.4424 8.72866 12.3853 8.89671 12.3514C8.95952 12.3388 9.01283 12.3283 9.01588 12.3408C9.01894 12.3531 8.97208 12.3745 8.91131 12.3948C8.81761 12.4264 8.72017 12.4563 8.60915 12.4936C8.54838 12.514 8.5511 12.5327 8.61493 12.5371C8.7032 12.5432 8.78264 12.5479 8.86786 12.5537C8.93168 12.5581 8.94221 12.5928 8.89128 12.6318C8.85903 12.6559 8.8278 12.6797 8.79317 12.7061C8.74224 12.7449 8.75039 12.7601 8.81116 12.7401C8.88755 12.715 8.95273 12.6932 9.01418 12.6736C9.07495 12.6532 9.09125 12.6776 9.0444 12.7211C8.73239 13.011 8.26048 13.0803 7.99771 13.4548C7.96104 13.5067 7.98718 13.5396 8.04863 13.522C8.11348 13.5033 8.17425 13.4863 8.23332 13.4694C8.29511 13.4517 8.34841 13.449 8.35317 13.4632C8.35758 13.4775 8.31718 13.5165 8.26252 13.5508C8.02555 13.6975 7.78857 13.8442 7.5516 13.9912C7.49728 14.0248 7.45959 14.0642 7.4674 14.0788C7.47521 14.0934 7.53021 14.0859 7.58928 14.0618L8.18885 13.8184C8.24826 13.7946 8.29851 13.781 8.30122 13.7878C8.3036 13.7949 8.26354 13.8306 8.21091 13.8673C7.89212 14.091 7.57061 14.3161 7.22296 14.5598C7.17067 14.5962 7.17984 14.6233 7.24333 14.6131C7.60728 14.5544 7.93693 14.3572 8.30394 14.4899C8.36403 14.5113 8.36946 14.5704 8.32024 14.6111C8.29104 14.6349 8.26354 14.658 8.23604 14.6804C8.18647 14.7211 8.19801 14.7472 8.2615 14.7391C8.3586 14.7259 8.44993 14.7136 8.53922 14.7018C8.6027 14.6933 8.65804 14.7007 8.6628 14.7181C8.66755 14.7354 8.63122 14.7826 8.58165 14.8236C8.54906 14.8498 8.51681 14.8763 8.48422 14.9027C8.43465 14.9431 8.39934 14.9876 8.40613 15.0019C8.41292 15.0161 8.46724 15.0114 8.52767 14.991C8.65804 14.9469 8.78875 14.9031 8.91912 14.8589C8.97989 14.8386 9.03693 14.8386 9.04644 14.8593C9.05594 14.8803 9.01792 14.9211 8.96156 14.9513C8.64344 15.1217 8.32533 15.2918 8.00721 15.4622C7.95085 15.4925 7.90774 15.5234 7.91113 15.5308C7.91453 15.538 7.96545 15.5254 8.02487 15.502C8.39459 15.3546 8.76872 15.2063 9.18971 15.0392C9.24912 15.0155 9.27017 15.0406 9.23656 15.0952C9.19344 15.1655 9.15915 15.2209 9.12893 15.2701C9.09532 15.3247 9.07869 15.3784 9.09125 15.3903C9.10415 15.4018 9.16187 15.3903 9.21992 15.3638C9.48168 15.2443 9.74344 15.1258 10.0049 15.0063C10.0629 14.9801 10.1155 14.9679 10.1216 14.9795C10.1278 14.9907 10.1023 15.0423 10.0643 15.0939C10.0259 15.1458 9.98652 15.1995 9.94578 15.2551C9.90776 15.3068 9.92372 15.3254 9.98109 15.2969C10.1488 15.2137 10.3053 15.136 10.4598 15.0593C10.5172 15.0307 10.5759 15.0195 10.5912 15.0345C10.6065 15.0497 10.6027 15.1109 10.583 15.1716C10.5698 15.2137 10.5538 15.2524 10.5253 15.2772C10.0459 15.6911 9.31566 15.8503 9.04779 16.4726C6.74052 21.8419 0 18.1654 0 18.1654C0 18.1654 2.33206 25.4885 10.5056 21.8707C18.6795 18.2526 26.5038 22.2411 26.5038 22.2411C28.422 19.1241 26.3744 16.2767 26.3744 16.2767C25.9181 15.6065 25.5104 14.9167 25.4102 14.1012C25.3202 13.3743 25.2299 12.6393 25.2476 11.9107C25.2591 11.4232 25.4554 10.9397 25.5745 10.4559C25.6234 10.2573 25.7748 10.1925 25.949 10.2614C26.0597 10.3052 26.1721 10.3992 26.2335 10.5007C26.4671 10.8878 26.6182 11.3444 26.9166 11.6676C27.2717 12.054 27.4197 12.4376 27.3495 12.9448C27.2965 13.3319 27.6306 13.7997 28.0118 13.8445C28.2879 13.8774 28.5425 13.8988 28.7492 14.1093C28.7842 14.1446 28.8738 14.1304 28.939 14.131C29.086 14.1327 29.2361 14.1093 29.379 14.1321C29.6836 14.1803 29.9735 14.1908 30.2437 14.0014C30.2964 13.965 30.2926 13.8992 30.24 13.8622C30.2162 13.8445 30.1928 13.8279 30.169 13.8116C30.1174 13.7742 30.1205 13.7196 30.1775 13.6894C30.4481 13.5451 30.7034 13.4133 30.9499 13.2674C31.0022 13.2348 31.0358 13.1339 31.0358 13.065C31.0358 13.0589 31.0338 13.0521 31.03 13.045C31.0246 13.0344 31.0236 12.9747 31.0046 12.9146C30.9934 12.8793 30.975 12.846 30.9496 12.8155C30.916 12.7757 30.8834 12.7364 30.8518 12.6956C30.8124 12.6454 30.8178 12.5629 30.8603 12.515C30.9343 12.4328 31.0076 12.3503 31.0718 12.258C31.081 12.2451 31.0888 12.2322 31.0952 12.2193C31.1064 12.1972 31.1302 12.1582 31.1455 12.131C31.1607 12.1039 31.1879 12.0512 31.1981 12.0112C31.2045 11.9884 31.2076 11.9637 31.2076 11.9375C31.2076 11.9141 31.2042 11.89 31.1981 11.8669C31.1876 11.8289 31.1601 11.7498 31.1468 11.6873C31.1074 11.5012 31.0626 11.2802 30.9998 11.064C30.6304 9.78607 30.4145 8.48441 30.3952 7.15355C30.3931 7.00417 30.4593 6.85479 30.4814 6.70371C30.5299 6.37235 30.6535 6.0247 30.5972 5.71032C30.4804 5.05847 30.2719 4.42224 30.0903 3.78261C29.9701 3.36095 30.0526 3.0761 30.4186 2.83675C30.6277 2.69959 30.8464 2.56719 31.0776 2.47518C31.5026 2.30611 31.744 1.96219 31.9742 1.60299C31.9922 1.57515 31.9973 1.53917 31.9997 1.50148C32.0044 1.44241 31.9599 1.39793 31.9022 1.40201Z"
    fill="#707D9B"/>
</svg>
