<svg width="43" height="43" viewBox="0 0 43 43" fill="none" xmlns="http://www.w3.org/2000/svg">
<g filter="url(#filter0_d_876_963)">
<g clip-path="url(#clip0_876_963)">
<path d="M35.4198 10.0809C35.1104 7.1813 32.8204 4.89081 29.9206 4.5816C22.6486 3.80548 15.3553 3.80548 8.08357 4.5816C5.18374 4.89107 2.89351 7.1813 2.58404 10.0809C1.80792 17.3526 1.80792 24.6461 2.58404 31.9179C2.89351 34.8177 5.18374 37.1079 8.08331 37.4174C15.355 38.1935 22.6486 38.1935 29.9206 37.4174C32.8204 37.1079 35.1104 34.8177 35.4198 31.9179C36.196 24.6461 36.196 17.3529 35.4198 10.0809Z" fill="url(#paint0_radial_876_963)"/>
<path d="M33.5699 11.3105C33.2954 8.73749 31.2633 6.7051 28.6901 6.4304C22.2373 5.74195 15.7652 5.74195 9.31243 6.4304C6.73945 6.7051 4.70705 8.73749 4.43235 11.3105C3.7439 17.7633 3.7439 24.2353 4.43235 30.6879C4.70705 33.2611 6.73945 35.2935 9.31243 35.5679C15.7652 36.2566 22.2373 36.2566 28.6898 35.5679C31.263 35.2935 33.2954 33.2611 33.5699 30.6879C34.2586 24.2353 34.2586 17.7633 33.5699 11.3105Z" fill="url(#paint1_linear_876_963)"/>
<path d="M2.50977 31.2129C2.53311 31.4479 2.55724 31.6829 2.5824 31.9179C2.89186 34.8175 5.1821 37.1077 8.08192 37.4172C15.3537 38.1933 22.6472 38.1933 29.9189 37.4172C32.8187 37.1077 35.1087 34.8175 35.4182 31.9179C35.4433 31.6829 35.4675 31.4479 35.4911 31.2129H2.50977Z" fill="url(#paint2_linear_876_963)"/>
<path d="M35.4197 31.9178C35.8368 28.0105 36.0293 24.0969 35.9982 20.1839L28.2266 12.4123C27.2557 11.3039 25.8375 10.6121 24.1711 10.5521C20.7442 10.4287 17.3064 10.4349 13.879 10.5527C11.0323 10.6507 9.04169 12.564 8.53119 15.3762C8.44118 15.8727 8.38722 16.3756 8.31641 16.8758V25.12C8.35558 25.3872 8.41316 25.6531 8.43106 25.9218C8.5452 27.6323 9.24817 29.0974 10.3737 30.0885L18.2823 37.9968C22.1634 38.0241 26.0448 37.8311 29.9205 37.4173C32.8203 37.1079 35.1103 34.8176 35.4197 31.9178Z" fill="url(#paint3_linear_876_963)"/>
<path d="M35.4206 31.9181C35.1114 34.8174 32.8206 37.1081 29.9213 37.4173C26.0461 37.8308 22.164 38.0241 18.2833 37.9968L10.3867 30.1002C11.3021 30.9015 12.4954 31.3894 13.88 31.4416C17.3067 31.5702 20.7453 31.5668 24.172 31.4434C27.2713 31.3313 29.514 29.0374 29.6108 25.9381C29.714 22.6474 29.714 19.3481 29.6108 16.0574C29.5667 14.6276 29.0648 13.3695 28.2326 12.4175L35.9993 20.1842C36.0299 24.0967 35.8374 28.0107 35.4206 31.9181Z" fill="url(#paint4_linear_876_963)"/>
<path d="M23.0143 17.3179C22.0188 16.2339 20.5902 15.5537 19.0025 15.5537C15.995 15.5537 13.5566 17.9921 13.5566 20.9995C13.5566 22.5873 14.2368 24.0158 15.3208 25.0114L27.9206 37.6112C28.5875 37.5531 29.2544 37.4885 29.9208 37.4174C32.8207 37.108 35.1109 34.8177 35.4204 31.9179C35.4914 31.2515 35.556 30.5846 35.6141 29.9177L23.0143 17.3179Z" fill="url(#paint5_linear_876_963)"/>
<path d="M35.9366 24.662L25.7962 14.5218C25.5596 14.2113 25.1869 14.0098 24.7664 14.0098C24.051 14.0098 23.4707 14.5898 23.4707 15.3055C23.4707 15.726 23.6723 16.0987 23.9828 16.3353L35.7553 28.1081C35.8352 26.9598 35.8957 25.8109 35.9366 24.662Z" fill="url(#paint6_linear_876_963)"/>
<path d="M8.31641 16.8758C8.38722 16.3756 8.44118 15.8727 8.53119 15.3762C9.04143 12.564 11.0323 10.6507 13.879 10.5527C17.3064 10.4349 20.7442 10.4287 24.1711 10.5521C27.2694 10.6637 29.5132 12.9578 29.61 16.0571C29.7129 19.3481 29.7129 22.6471 29.61 25.9381C29.5132 29.0374 27.2702 31.3313 24.1714 31.4431C20.7445 31.5668 17.3059 31.57 13.8792 31.4413C10.7804 31.3248 8.63832 29.0255 8.43106 25.9215C8.41316 25.6531 8.35558 25.3869 8.31641 25.1197C8.31641 22.3717 8.31641 19.6236 8.31641 16.8758ZM19.0047 29.6063C20.573 29.6063 22.1429 29.6533 23.7092 29.5954C26.1649 29.5044 27.6754 28.0388 27.7327 25.5854C27.8038 22.5283 27.8038 19.4672 27.7327 16.4099C27.6754 13.957 26.1639 12.4572 23.7092 12.405C20.5935 12.3391 17.4745 12.3397 14.3589 12.405C11.9228 12.4561 10.4079 13.9256 10.3418 16.3515C10.2577 19.4472 10.2577 22.5483 10.3418 25.644C10.4079 28.0696 11.9228 29.5051 14.3591 29.5954C15.9056 29.653 17.4561 29.6063 19.0047 29.6063Z" fill="url(#paint7_linear_876_963)"/>
<path d="M8.31641 16.8758C8.38722 16.3756 8.44118 15.8727 8.53119 15.3762C9.04143 12.564 11.0323 10.6507 13.879 10.5527C17.3064 10.4349 20.7442 10.4287 24.1711 10.5521C27.2694 10.6637 29.5132 12.9578 29.61 16.0571C29.7129 19.3481 29.7129 22.6471 29.61 25.9381C29.5132 29.0374 27.2702 31.3313 24.1714 31.4431C20.7445 31.5668 17.3059 31.57 13.8792 31.4413C10.7804 31.3248 8.63832 29.0255 8.43106 25.9215C8.41316 25.6531 8.35558 25.3869 8.31641 25.1197C8.31641 22.3717 8.31641 19.6236 8.31641 16.8758ZM19.0047 29.6063C20.573 29.6063 22.1429 29.6533 23.7092 29.5954C26.1649 29.5044 27.6754 28.0388 27.7327 25.5854C27.8038 22.5283 27.8038 19.4672 27.7327 16.4099C27.6754 13.957 26.1639 12.4572 23.7092 12.405C20.5935 12.3391 17.4745 12.3397 14.3589 12.405C11.9228 12.4561 10.4079 13.9256 10.3418 16.3515C10.2577 19.4472 10.2577 22.5483 10.3418 25.644C10.4079 28.0696 11.9228 29.5051 14.3591 29.5954C15.9056 29.653 17.4561 29.6063 19.0047 29.6063Z" fill="white"/>
<path d="M19.0025 15.5537C15.995 15.5537 13.5566 17.9918 13.5566 20.9993C13.5566 24.007 15.995 26.4451 19.0025 26.4451C22.0102 26.4451 24.4483 24.007 24.4483 20.9993C24.4483 17.9918 22.0102 15.5537 19.0025 15.5537ZM19.0025 24.5702C17.0303 24.5702 15.4316 22.9715 15.4316 20.9993C15.4316 19.0271 17.0303 17.4284 19.0025 17.4284C20.9747 17.4284 22.5734 19.0271 22.5734 20.9993C22.5734 22.9715 20.9747 24.5702 19.0025 24.5702Z" fill="white"/>
<path d="M26.0618 15.3055C26.0618 16.0209 25.4818 16.6009 24.7664 16.6009C24.051 16.6009 23.4707 16.0209 23.4707 15.3055C23.4707 14.5898 24.051 14.0098 24.7664 14.0098C25.4818 14.0098 26.0618 14.5898 26.0618 15.3055Z" fill="white"/>
</g>
</g>
<defs>
<filter id="filter0_d_876_963" x="0.95" y="0.739512" width="42" height="42" filterUnits="userSpaceOnUse" color-interpolation-filters="sRGB">
<feFlood flood-opacity="0" result="BackgroundImageFix"/>
<feColorMatrix in="SourceAlpha" type="matrix" values="0 0 0 0 0 0 0 0 0 0 0 0 0 0 0 0 0 0 127 0" result="hardAlpha"/>
<feOffset dx="2.95" dy="0.74"/>
<feGaussianBlur stdDeviation="2"/>
<feComposite in2="hardAlpha" operator="out"/>
<feColorMatrix type="matrix" values="0 0 0 0 0 0 0 0 0 0 0 0 0 0 0 0 0 0 0.25 0"/>
<feBlend mode="normal" in2="BackgroundImageFix" result="effect1_dropShadow_876_963"/>
<feBlend mode="normal" in="SourceGraphic" in2="effect1_dropShadow_876_963" result="shape"/>
</filter>
<radialGradient id="paint0_radial_876_963" cx="0" cy="0" r="1" gradientUnits="userSpaceOnUse" gradientTransform="translate(8.97176 33.7128) scale(37.496)">
<stop stop-color="#FAE100"/>
<stop offset="0.0544" stop-color="#FADC04"/>
<stop offset="0.1167" stop-color="#FBCE0E"/>
<stop offset="0.1829" stop-color="#FCB720"/>
<stop offset="0.2514" stop-color="#FE9838"/>
<stop offset="0.3054" stop-color="#FF7950"/>
<stop offset="0.4922" stop-color="#FF1C74"/>
<stop offset="1" stop-color="#6C1CD1"/>
</radialGradient>
<linearGradient id="paint1_linear_876_963" x1="15.0416" y1="18.772" x2="-42.5584" y2="-13.628" gradientUnits="userSpaceOnUse">
<stop stop-color="#A1B5D8" stop-opacity="0"/>
<stop offset="0.3094" stop-color="#90A2BD" stop-opacity="0.309804"/>
<stop offset="0.7554" stop-color="#7C8B9C" stop-opacity="0.756863"/>
<stop offset="1" stop-color="#748290"/>
</linearGradient>
<linearGradient id="paint2_linear_876_963" x1="19.0003" y1="34.0127" x2="19.0003" y2="39.3124" gradientUnits="userSpaceOnUse">
<stop stop-color="#FAE100" stop-opacity="0"/>
<stop offset="0.3068" stop-color="#FCA800" stop-opacity="0.305882"/>
<stop offset="0.6275" stop-color="#FE7300" stop-opacity="0.627451"/>
<stop offset="0.8685" stop-color="#FF5200" stop-opacity="0.866667"/>
<stop offset="1" stop-color="#FF4500"/>
</linearGradient>
<linearGradient id="paint3_linear_876_963" x1="17.0676" y1="19.0171" x2="8.65314" y2="10.6026" gradientUnits="userSpaceOnUse">
<stop stop-color="#833AB4" stop-opacity="0"/>
<stop offset="1" stop-color="#833AB4"/>
</linearGradient>
<linearGradient id="paint4_linear_876_963" x1="25.3046" y1="35.0966" x2="21.1048" y2="15.2976" gradientUnits="userSpaceOnUse">
<stop stop-color="#833AB4" stop-opacity="0"/>
<stop offset="1" stop-color="#833AB4"/>
</linearGradient>
<linearGradient id="paint5_linear_876_963" x1="26.9025" y1="28.8995" x2="10.0337" y2="12.0308" gradientUnits="userSpaceOnUse">
<stop stop-color="#833AB4" stop-opacity="0"/>
<stop offset="1" stop-color="#833AB4"/>
</linearGradient>
<linearGradient id="paint6_linear_876_963" x1="28.1538" y1="18.6928" x2="22.5756" y2="13.1146" gradientUnits="userSpaceOnUse">
<stop stop-color="#833AB4" stop-opacity="0"/>
<stop offset="1" stop-color="#833AB4"/>
</linearGradient>
<linearGradient id="paint7_linear_876_963" x1="25.7526" y1="14.2957" x2="11.9988" y2="28.0495" gradientUnits="userSpaceOnUse">
<stop stop-color="#833AB4"/>
<stop offset="0.0922" stop-color="#9C3495"/>
<stop offset="0.2927" stop-color="#DC2546"/>
<stop offset="0.392" stop-color="#FD1D1D"/>
<stop offset="0.5589" stop-color="#FC6831"/>
<stop offset="0.6887" stop-color="#FC9B40"/>
<stop offset="0.7521" stop-color="#FCAF45"/>
<stop offset="0.7806" stop-color="#FDB750"/>
<stop offset="0.8656" stop-color="#FECB6A"/>
<stop offset="0.9415" stop-color="#FFD87A"/>
<stop offset="1" stop-color="#FFDC80"/>
</linearGradient>
<clipPath id="clip0_876_963">
<rect x="2" y="3.99951" width="34" height="34" rx="17" fill="white"/>
</clipPath>
</defs>
</svg>
