<svg width="26" height="25" viewBox="0 0 26 25" fill="none" xmlns="http://www.w3.org/2000/svg">
<path d="M23.9258 7.68604L22.5748 9.375L21.7989 10.3452C21.5687 10.6328 21.2805 10.8687 20.953 11.0374C20.6256 11.206 20.2662 11.3038 19.8984 11.3241C19.5306 11.3445 19.1626 11.2871 18.8185 11.1556C18.4744 11.0241 18.1619 10.8215 17.9014 10.561L16.7154 9.375V12.8906H8.90289V9.375L7.71685 10.561C7.45636 10.8215 7.14386 11.0241 6.79976 11.1556C6.45566 11.2871 6.08769 11.3445 5.71989 11.3241C5.35209 11.3038 4.99271 11.206 4.66524 11.0374C4.33776 10.8687 4.04954 10.6328 3.81939 10.3452L3.04351 9.375L1.69244 7.68604C1.64305 7.62427 1.61426 7.54858 1.61013 7.4696C1.60601 7.39063 1.62675 7.31235 1.66944 7.24577C1.71213 7.1792 1.77462 7.12769 1.84812 7.0985C1.92162 7.0693 2.00242 7.06388 2.07916 7.08301L3.43414 7.42188L3.69146 6.90771C3.74005 6.81039 3.82009 6.73233 3.9186 6.68619C4.01711 6.64005 4.12832 6.62854 4.23419 6.65353C4.34006 6.67851 4.43439 6.73852 4.50188 6.82384C4.56937 6.90915 4.60606 7.01476 4.60601 7.12354V8.20312L5.77789 8.98438L8.10211 6.66016C8.35603 6.40624 8.65748 6.20483 8.98925 6.06743C9.32102 5.93003 9.6766 5.85933 10.0357 5.85938H15.5826C15.9417 5.85933 16.2973 5.93003 16.629 6.06743C16.9608 6.20483 17.2623 6.40624 17.5162 6.66016L19.8404 8.98438L21.0123 8.20312V7.12354C21.0122 7.01476 21.0489 6.90915 21.1164 6.82384C21.1839 6.73852 21.2782 6.67851 21.3841 6.65353C21.49 6.62854 21.6012 6.64005 21.6997 6.68619C21.7982 6.73233 21.8782 6.81039 21.9268 6.90771L22.1841 7.42188L23.5391 7.08301C23.569 7.07543 23.5996 7.07166 23.6304 7.07178C23.7017 7.07175 23.7714 7.09185 23.8317 7.12975C23.8921 7.16766 23.9404 7.22182 23.9713 7.28601C24.0022 7.3502 24.0143 7.4218 24.0062 7.49258C23.9982 7.56335 23.9703 7.63041 23.9258 7.68604Z" fill="#FFCEB6"/>
<path d="M22.5747 9.375L21.7988 10.3452C21.5687 10.6328 21.2805 10.8687 20.953 11.0374C20.6255 11.206 20.2661 11.3038 19.8983 11.3241C19.5305 11.3445 19.1626 11.2871 18.8185 11.1556C18.4744 11.0241 18.1619 10.8215 17.9014 10.561L16.7153 9.375V12.8906H8.90283V9.375L7.7168 10.561C7.4563 10.8215 7.1438 11.0241 6.7997 11.1556C6.4556 11.2871 6.08764 11.3445 5.71984 11.3241C5.35203 11.3038 4.99266 11.206 4.66518 11.0374C4.3377 10.8687 4.04948 10.6328 3.81934 10.3452L3.04346 9.375L4.60596 8.20312L5.77783 8.98438L8.10205 6.66016C8.35597 6.40624 8.65742 6.20483 8.98919 6.06743C9.32096 5.93003 9.67655 5.85933 10.0356 5.85938H15.5825C15.9416 5.85933 16.2972 5.93003 16.629 6.06743C16.9607 6.20483 17.2622 6.40624 17.5161 6.66016L19.8403 8.98438L21.0122 8.20312L22.5747 9.375Z" fill="#548AFF"/>
<path d="M14.7622 5.85938V8.20312L12.8091 10.5469L10.856 8.20312V5.85938H14.7622Z" fill="#91C0FF"/>
<path d="M12.8091 6.25C12.3947 6.25 11.9973 6.08538 11.7042 5.79235C11.4112 5.49933 11.2466 5.1019 11.2466 4.6875V3.90625L12.4185 2.73438H14.3716V4.6875C14.3716 5.1019 14.207 5.49933 13.9139 5.79235C13.6209 6.08538 13.2235 6.25 12.8091 6.25Z" fill="#FFCEB6"/>
<path d="M14.3716 2.73438L14.7525 2.54393C14.8728 2.48378 14.974 2.39131 15.0447 2.2769C15.1154 2.16248 15.1528 2.03064 15.1528 1.89614C15.1528 1.80102 15.1341 1.70684 15.0977 1.61897C15.0613 1.5311 15.008 1.45126 14.9407 1.38401C14.8735 1.31675 14.7936 1.2634 14.7057 1.22701C14.6179 1.19061 14.5237 1.17187 14.4286 1.17188H12.8091C12.3947 1.17188 11.9973 1.33649 11.7042 1.62952C11.4112 1.92255 11.2466 2.31997 11.2466 2.73438V3.90625L12.4185 2.73438H14.3716Z" fill="#C47220"/>
<path d="M14.7622 8.20312L13.6353 9.55518L12.8091 10.5469L11.9829 9.55518L10.856 8.20312L12.8091 6.25L14.7622 8.20312Z" fill="#7DAFFF"/>
<path d="M13.1997 7.8125L13.6352 9.55518L12.8091 10.5469L11.9829 9.55518L12.4185 7.8125H13.1997Z" fill="#EF5E3B"/>
<path d="M12.4185 7.8125L12.0278 7.03125L12.8091 6.25L13.5903 7.03125L13.1997 7.8125H12.4185Z" fill="#E04F2B"/>
<path d="M5.38721 12.8906H20.231V14.4531H5.38721V12.8906Z" fill="#EA964B"/>
<path d="M19.4497 14.4531V15.625L17.4966 18.3594H8.12158L6.16846 15.625V14.4531H19.4497Z" fill="#C47220"/>
<path d="M8.12158 18.3594H17.4966V24.2188H8.12158V18.3594Z" fill="#DB8638"/>
<path d="M9.68408 19.9219H15.9341V24.2188H9.68408V19.9219Z" fill="#F7A156"/>
</svg>
