<svg width="35" height="34" viewBox="0 0 35 34" fill="none" xmlns="http://www.w3.org/2000/svg">
<g clip-path="url(#clip0)">
<path d="M0.00537109 24.7393H34.0028V33.0027H0.00537109V24.7393Z" fill="#00D7DF"/>
<path d="M12.9954 24.7393H34.0028V33.0027H12.9954V24.7393Z" fill="#00B6D2"/>
<path d="M0.00292969 32.0055H34.0003V33.9974H0.00292969V32.0055Z" fill="#79E1E6"/>
<path d="M0.00292969 23.7432H34.0003V25.7351H0.00292969V23.7432Z" fill="#79E1E6"/>
<path d="M12.9954 32.0055H34.0002V33.9974H12.9954V32.0055Z" fill="#00D7DF"/>
<path d="M12.9954 23.7432H34.0002V25.7351H12.9954V23.7432Z" fill="#00D7DF"/>
<path d="M15.7277 12.5642C14.08 12.5642 12.7394 13.9048 12.7394 15.5525V16.8806H14.7316V15.5525C14.7316 15.0033 15.1783 14.5564 15.7277 14.5564C16.2771 14.5564 16.7238 15.0033 16.7238 15.5525V19.8689H8.82664V15.5525C8.82664 13.9048 7.48633 12.5642 5.83862 12.5642C4.19092 12.5642 2.85034 13.9048 2.85034 15.5525V16.8806H4.84253V15.5525C4.84253 15.0033 5.28922 14.5564 5.83862 14.5564C6.38777 14.5564 6.83472 15.0033 6.83472 15.5525V28.8337H8.82664V25.735H16.7238V28.8337H18.716V15.5525C18.716 13.9048 17.3754 12.5642 15.7277 12.5642ZM8.8269 23.743V21.8611H16.7238V23.743H8.8269Z" fill="#BCDBFD"/>
<path d="M15.7278 12.5642C14.0801 12.5642 12.7395 13.9048 12.7395 15.5525V16.8806H14.7317V15.5525C14.7317 15.0033 15.1784 14.5564 15.7278 14.5564C16.2772 14.5564 16.7239 15.0033 16.7239 15.5525V19.8689H12.9955V21.8611H16.7239V23.743H12.9955V25.735H16.7239V28.8337H18.7161V15.5525C18.7161 13.9048 17.3755 12.5642 15.7278 12.5642Z" fill="#9BBAD9"/>
<path d="M0.00292969 27.8376H34.0003V29.8296H0.00292969V27.8376Z" fill="#79E1E6"/>
<path d="M12.9954 27.8376H34.0002V29.8296H12.9954V27.8376Z" fill="#00D7DF"/>
</g>
<defs>
<clipPath id="clip0">
<rect width="34" height="34" fill="white" transform="translate(0.00292969)"/>
</clipPath>
</defs>
</svg>
