<svg width="35" height="22" viewBox="0 0 35 22" fill="none" xmlns="http://www.w3.org/2000/svg">
<path d="M15.4278 2.25625C15.4278 1.6878 15.202 1.1426 14.8 0.740651C14.3981 0.338699 13.8529 0.112915 13.2844 0.112915C12.716 0.112915 12.1708 0.338699 11.7689 0.740651C11.3669 1.1426 11.1411 1.6878 11.1411 2.25625C11.1411 2.82469 11.3669 3.36982 11.7689 3.77177C12.1708 4.17373 12.716 4.39958 13.2844 4.39958C13.8529 4.39958 14.3981 4.17373 14.8 3.77177C15.202 3.36982 15.4278 2.82469 15.4278 2.25625Z" fill="#F7D958"/>
<path d="M1.37638 9.52239C1.32147 9.49284 1.25795 9.48351 1.19686 9.496C1.13578 9.50848 1.08101 9.54198 1.04211 9.5907C1.0032 9.63941 0.982617 9.70025 0.983947 9.76258C0.985278 9.82491 1.00844 9.88477 1.04939 9.93178C3.33638 12.554 6.39156 14.3889 9.78088 15.1758L13.3479 11.9832H11.118C7.71703 11.9832 4.36945 11.1375 1.37651 9.52239H1.37638Z" fill="#EF5050"/>
<path d="M15.852 4.59578L23.3378 7.47722C23.3822 7.4943 23.4219 7.52174 23.4535 7.55729C23.4851 7.59283 23.5077 7.63545 23.5195 7.68154C23.5313 7.72763 23.5319 7.77587 23.5212 7.82222C23.5105 7.86858 23.4888 7.91171 23.4581 7.94799L20.5943 11.3236C20.5452 11.3816 20.4757 11.4186 20.4002 11.4271C20.3247 11.4355 20.2488 11.4148 20.1881 11.3691L15.8367 8.09747C15.7735 8.05068 15.6944 8.03083 15.6166 8.04214C15.5388 8.05346 15.4686 8.0951 15.4213 8.15795C15.3741 8.22079 15.3536 8.29977 15.3643 8.37766C15.3751 8.45555 15.4162 8.52601 15.4787 8.57373L16.3907 9.25947L14.0544 11.3504L12.7313 7.63969C12.5772 7.20739 12.5503 6.73992 12.6539 6.29281C12.7575 5.84571 12.9873 5.43772 13.3158 5.11727C13.6444 4.79681 14.0579 4.57735 14.5075 4.48493C14.9571 4.39251 15.4237 4.43099 15.852 4.59585L15.852 4.59578Z" fill="#F7D958"/>
<path d="M23.1355 4.0233C23.2623 3.90982 23.4278 3.84923 23.598 3.85389C23.7682 3.85855 23.9301 3.92814 24.0506 4.04838C24.1711 4.16862 24.241 4.33044 24.2461 4.50059C24.2511 4.67075 24.1908 4.83632 24.0776 4.96346L22.6439 6.57204L20.9963 5.93784L23.1355 4.0233Z" fill="#046699"/>
<path d="M6.65377 19.1969C6.62519 19.1681 6.60278 19.1338 6.58791 19.0961C6.57304 19.0584 6.56602 19.0181 6.56728 18.9776C6.56855 18.9371 6.57807 18.8972 6.59526 18.8605C6.61246 18.8238 6.63696 18.791 6.66728 18.764L16.8779 9.62524L18.7019 10.9966L9.37264 21.4638C9.34573 21.4941 9.31291 21.5186 9.2762 21.5358C9.23949 21.553 9.19965 21.5625 9.15913 21.5638C9.11861 21.565 9.07826 21.558 9.04055 21.5432C9.00284 21.5283 8.96856 21.5058 8.93981 21.4772L6.65377 19.1969Z" fill="#046699"/>
<path d="M33.9579 9.52246C30.9649 11.1376 27.6174 11.9832 24.2164 11.9832H18.6186L15.3909 15.6046H21.8103C24.1741 15.6046 26.5105 15.0983 28.6623 14.1198C30.8141 13.1413 32.7313 11.7133 34.285 9.93178C34.326 9.88477 34.3491 9.82491 34.3505 9.76258C34.3518 9.70025 34.3312 9.63942 34.2923 9.5907C34.2534 9.54198 34.1986 9.50848 34.1376 9.496C34.0765 9.48351 34.0129 9.49284 33.958 9.52239L33.9579 9.52246Z" fill="#EF5050"/>
</svg>
