<svg width="24" height="24" viewBox="0 0 24 24" fill="none" xmlns="http://www.w3.org/2000/svg">
  <path fill-rule="evenodd" clip-rule="evenodd"
        d="M23.4119 10.8128L19.8674 10.0193L9.41544 18.0518L8.34594 16.9823L19.0649 8.7458L18.7439 5.9153C18.7049 5.5673 18.4304 5.2928 18.0839 5.2553L15.0584 4.9118L7.00344 15.6413L5.93394 14.5703L14.0729 3.7268L13.7279 0.665298C13.7069 0.459798 13.5974 0.272298 13.4324 0.149298C13.2674 0.0262975 13.0574 -0.0247025 12.8534 0.0112975L8.61144 0.761298C8.33994 0.809298 8.11794 0.999797 8.02944 1.2608L3.84294 13.7903L2.59644 15.0368L8.95944 21.3998L10.2044 20.1548L22.7339 15.9683C22.9889 15.8828 23.1794 15.6683 23.2319 15.4043L23.9819 11.6933C24.0644 11.2943 23.8109 10.9028 23.4119 10.8128Z"
        fill="#707D9B"/>
  <path fill-rule="evenodd" clip-rule="evenodd"
        d="M1.53596 16.0988L1.31696 16.3178C-0.436544 18.0728 -0.436544 20.9258 1.31696 22.6808C2.16596 23.5313 3.29696 23.9993 4.49846 23.9993C5.69996 23.9993 6.83096 23.5298 7.67996 22.6808L7.89896 22.4618L1.53596 16.0988Z"
        fill="#707D9B"/>
</svg>
