<svg width="24" height="20" viewBox="0 0 24 20" fill="none" xmlns="http://www.w3.org/2000/svg">
  <path fill-rule="evenodd" clip-rule="evenodd"
        d="M9.58557 17.733C9.55557 17.6532 9.54523 17.5853 9.55541 17.5304C9.56553 17.4758 9.53065 17.4306 9.45065 17.3958C9.37065 17.3609 9.33073 17.3333 9.33073 17.3136C9.33073 17.2936 9.27339 17.2786 9.15845 17.2687C9.04357 17.2587 8.98623 17.2536 8.98623 17.2536H8.79161H8.62689H4.31339C3.6544 17.2536 3.0902 17.0192 2.62085 16.5496C2.15161 16.0803 1.91701 15.5162 1.91701 14.8573V4.31318C1.91701 3.65419 2.15155 3.0902 2.62085 2.6209C3.0902 2.15155 3.6544 1.9168 4.31339 1.9168H9.1061C9.23593 1.9168 9.33802 1.88459 9.41309 1.81954C9.48784 1.75465 9.53768 1.65723 9.56275 1.52745C9.58772 1.39767 9.60278 1.28047 9.60782 1.17561C9.61275 1.07085 9.61033 0.938439 9.60026 0.778702C9.59035 0.619016 9.58536 0.519187 9.58536 0.479056C9.58536 0.349272 9.53789 0.237167 9.4431 0.142111C9.3482 0.0474754 9.23593 0 9.10615 0H4.31339C3.1253 0 2.10927 0.421875 1.26547 1.26557C0.421875 2.10927 0 3.12514 0 4.31334V14.8573C0 16.0454 0.421875 17.0615 1.26547 17.9049C2.10927 18.749 3.1253 19.1709 4.31339 19.1709H9.10631C9.23614 19.1709 9.33828 19.1383 9.4133 19.0736C9.48805 19.0086 9.53789 18.9113 9.56296 18.7814C9.58793 18.6518 9.60299 18.534 9.60803 18.4295C9.61296 18.3247 9.61054 18.1925 9.60047 18.0328C9.59045 17.8729 9.58557 17.7731 9.58557 17.733Z"
        fill="#FF6767"/>
  <path fill-rule="evenodd" clip-rule="evenodd"
        d="M23.1999 8.91142L15.0523 0.763542C14.8627 0.57406 14.638 0.479004 14.3784 0.479004C14.1187 0.479004 13.894 0.57406 13.7042 0.763542C13.5145 0.953286 13.4197 1.17818 13.4197 1.43764V5.75113H6.70986C6.45008 5.75113 6.2255 5.84619 6.03576 6.03567C5.84601 6.22542 5.75122 6.45015 5.75122 6.70977V12.4612C5.75122 12.7207 5.84601 12.9455 6.03576 13.1351C6.22571 13.3245 6.45024 13.4198 6.70986 13.4198H13.4197V17.7332C13.4197 17.9927 13.5145 18.2176 13.7043 18.4072C13.894 18.5969 14.1187 18.6919 14.3784 18.6919C14.638 18.6919 14.8627 18.5969 15.0524 18.4072L23.1999 10.2597C23.3897 10.0698 23.4845 9.84535 23.4845 9.58568C23.4845 9.32611 23.3897 9.10117 23.1999 8.91142Z"
        fill="#FF6767"/>
</svg>
