<svg width="21" height="21" viewBox="0 0 21 21" fill="none" xmlns="http://www.w3.org/2000/svg">
<g clip-path="url(#clip0)">
<path d="M8.69531 14.8135V15.9854C8.69531 17.3213 6.80859 18.3291 4.34766 18.3291C1.88672 18.3291 0 17.3213 0 15.9854V14.8135H8.69531Z" fill="#FEA832"/>
<path d="M8.69531 14.8135V15.9854C8.69531 17.3213 6.80859 18.3291 4.34766 18.3291V14.8135H8.69531Z" fill="#FE9923"/>
<path d="M8.69531 13.6416V14.8135C8.69531 16.1494 6.80859 17.1572 4.34766 17.1572C1.88672 17.1572 0 16.1494 0 14.8135V13.6416H8.69531Z" fill="#FEA832"/>
<path d="M8.69531 13.6416V14.8135C8.69531 16.1494 6.80859 17.1572 4.34766 17.1572V13.6416H8.69531Z" fill="#FE9923"/>
<path d="M8.69531 13.6416V14.8135C8.69531 16.1494 6.80859 17.1572 4.34766 17.1572C1.88672 17.1572 0 16.1494 0 14.8135V13.6416H8.69531Z" fill="#FEDB41"/>
<path d="M8.69531 13.6416V14.8135C8.69531 16.1494 6.80859 17.1572 4.34766 17.1572V13.6416H8.69531Z" fill="#FFCC33"/>
<path d="M8.69531 12.4697V13.6416C8.69531 14.9775 6.80859 15.9854 4.34766 15.9854C1.88672 15.9854 0 14.9775 0 13.6416V12.4697H8.69531Z" fill="#FEA832"/>
<path d="M8.69531 12.4697V13.6416C8.69531 14.9775 6.80859 15.9854 4.34766 15.9854V12.4697H8.69531Z" fill="#FE9923"/>
<path d="M8.69531 11.2979V12.4697C8.69531 13.8057 6.80859 14.8135 4.34766 14.8135C1.88672 14.8135 0 13.8057 0 12.4697V11.2979H8.69531Z" fill="#FEDB41"/>
<path d="M8.69531 11.2979V12.4697C8.69531 13.8057 6.80859 14.8135 4.34766 14.8135V11.2979H8.69531Z" fill="#FFCC33"/>
<path d="M8.69531 10.126V11.2979C8.69531 12.6338 6.80859 13.6416 4.34766 13.6416C1.88672 13.6416 0 12.6338 0 11.2979V10.126H8.69531Z" fill="#FEA832"/>
<path d="M8.69531 10.126V11.2979C8.69531 12.6338 6.80859 13.6416 4.34766 13.6416V10.126H8.69531Z" fill="#FE9923"/>
<path d="M8.69531 8.9541V10.126C8.69531 11.4619 6.80859 12.4697 4.34766 12.4697C1.88672 12.4697 0 11.4619 0 10.126V8.9541H8.69531Z" fill="#FEDB41"/>
<path d="M8.69531 8.9541V10.126C8.69531 11.4619 6.80859 12.4697 4.34766 12.4697V8.9541H8.69531Z" fill="#FFCC33"/>
<path d="M8.69531 7.78223V8.9541C8.69531 10.29 6.80859 11.2979 4.34766 11.2979C1.88672 11.2979 0 10.29 0 8.9541V7.78223H8.69531Z" fill="#FEA832"/>
<path d="M8.69531 7.78223V8.9541C8.69531 10.29 6.80859 11.2979 4.34766 11.2979V7.78223H8.69531Z" fill="#FE9923"/>
<path d="M8.69531 6.61035V7.78223C8.69531 9.11816 6.80859 10.126 4.34766 10.126C1.88672 10.126 0 9.11816 0 7.78223V6.61035H8.69531Z" fill="#FEDB41"/>
<path d="M8.69531 6.61035V7.78223C8.69531 9.11816 6.80859 10.126 4.34766 10.126V6.61035H8.69531Z" fill="#FFCC33"/>
<path d="M8.69531 5.43848V6.61035C8.69531 7.94629 6.80859 8.9541 4.34766 8.9541C1.88672 8.9541 0 7.94629 0 6.61035V5.43848H8.69531Z" fill="#FEA832"/>
<path d="M8.69531 5.43848V6.61035C8.69531 7.94629 6.80859 8.9541 4.34766 8.9541V5.43848H8.69531Z" fill="#FE9923"/>
<path d="M8.69531 4.2666V5.43848C8.69531 6.77441 6.80859 7.78223 4.34766 7.78223C1.88672 7.78223 0 6.77441 0 5.43848V4.2666H8.69531Z" fill="#FEDB41"/>
<path d="M8.69531 4.2666V5.43848C8.69531 6.77441 6.80859 7.78223 4.34766 7.78223V4.2666H8.69531Z" fill="#FFCC33"/>
<path d="M8.69531 3.09473V4.2666C8.69531 5.60254 6.80859 6.61035 4.34766 6.61035C1.88672 6.61035 0 5.60254 0 4.2666V3.09473H8.69531Z" fill="#FEA832"/>
<path d="M8.69531 3.09473V4.2666C8.69531 5.60254 6.80859 6.61035 4.34766 6.61035V3.09473H8.69531Z" fill="#FE9923"/>
<path d="M4.34766 0.750977C1.88672 0.750977 0 1.75879 0 3.09473C0 4.43066 1.88672 5.43848 4.34766 5.43848C6.80859 5.43848 8.69531 4.43066 8.69531 3.09473C8.69531 1.75879 6.80859 0.750977 4.34766 0.750977Z" fill="#FEDB41"/>
<path d="M8.69531 3.09473C8.69531 4.43066 6.80859 5.43848 4.34766 5.43848V0.750977C6.80859 0.750977 8.69531 1.75879 8.69531 3.09473Z" fill="#FFCC33"/>
<path d="M17.3086 14.8135V15.9854C17.3086 17.3213 15.4629 18.3291 13.002 18.3291C10.541 18.3291 8.69531 17.3213 8.69531 15.9854V14.8135H17.3086Z" fill="#FEA832"/>
<path d="M17.3086 14.8135V15.9854C17.3086 17.3213 15.4629 18.3291 13.002 18.3291V14.8135H17.3086Z" fill="#FE9923"/>
<path d="M17.3086 13.6416V14.8135C17.3086 16.1494 15.4629 17.1572 13.002 17.1572C10.541 17.1572 8.69531 16.1494 8.69531 14.8135V13.6416H17.3086Z" fill="#FEDB41"/>
<path d="M17.3086 13.6416V14.8135C17.3086 16.1494 15.4629 17.1572 13.002 17.1572V13.6416H17.3086Z" fill="#FFCC33"/>
<path d="M17.3086 12.4697V13.6416C17.3086 14.9775 15.4629 15.9854 13.002 15.9854C10.541 15.9854 8.69531 14.9775 8.69531 13.6416V12.4697H17.3086Z" fill="#FEA832"/>
<path d="M17.3086 12.4697V13.6416C17.3086 14.9775 15.4629 15.9854 13.002 15.9854V12.4697H17.3086Z" fill="#FE9923"/>
<path d="M17.3086 11.2979V12.4697C17.3086 13.8057 15.4629 14.8135 13.002 14.8135C10.541 14.8135 8.69531 13.8057 8.69531 12.4697V11.2979H17.3086Z" fill="#FEDB41"/>
<path d="M17.3086 11.2979V12.4697C17.3086 13.8057 15.4629 14.8135 13.002 14.8135V11.2979H17.3086Z" fill="#FFCC33"/>
<path d="M17.3086 10.126V11.2979C17.3086 12.6338 15.4629 13.6416 13.002 13.6416C10.541 13.6416 8.69531 12.6338 8.69531 11.2979V10.126H17.3086Z" fill="#FEA832"/>
<path d="M17.3086 10.126V11.2979C17.3086 12.6338 15.4629 13.6416 13.002 13.6416V10.126H17.3086Z" fill="#FE9923"/>
<path d="M17.3086 8.9541V10.126C17.3086 11.4619 15.4629 12.4697 13.002 12.4697C10.541 12.4697 8.69531 11.4619 8.69531 10.126V8.9541H17.3086Z" fill="#FEDB41"/>
<path d="M17.3086 8.9541V10.126C17.3086 11.4619 15.4629 12.4697 13.002 12.4697V8.9541H17.3086Z" fill="#FFCC33"/>
<path d="M17.3086 7.78223V8.9541C17.3086 10.29 15.4629 11.2979 13.002 11.2979C10.541 11.2979 8.69531 10.29 8.69531 8.9541V7.78223H17.3086Z" fill="#FEA832"/>
<path d="M17.3086 7.78223V8.9541C17.3086 10.29 15.4629 11.2979 13.002 11.2979V7.78223H17.3086Z" fill="#FE9923"/>
<path d="M17.3086 6.61035V7.78223C17.3086 9.11816 15.4629 10.126 13.002 10.126C10.541 10.126 8.69531 9.11816 8.69531 7.78223V6.61035H17.3086Z" fill="#FEDB41"/>
<path d="M17.3086 6.61035V7.78223C17.3086 9.11816 15.4629 10.126 13.002 10.126V6.61035H17.3086Z" fill="#FFCC33"/>
<path d="M17.3086 5.43848V6.61035C17.3086 7.94629 15.4629 8.9541 13.002 8.9541C10.541 8.9541 8.69531 7.94629 8.69531 6.61035V5.43848H17.3086Z" fill="#FEA832"/>
<path d="M17.3086 5.43848V6.61035C17.3086 7.94629 15.4629 8.9541 13.002 8.9541V5.43848H17.3086Z" fill="#FE9923"/>
<path d="M13.002 3.09473C10.541 3.09473 8.69531 4.10254 8.69531 5.43848C8.69531 6.77441 10.541 7.78223 13.002 7.78223C15.4629 7.78223 17.3086 6.77441 17.3086 5.43848C17.3086 4.10254 15.4629 3.09473 13.002 3.09473Z" fill="#FEDB41"/>
<path d="M17.3086 5.43848C17.3086 6.77441 15.4629 7.78223 13.002 7.78223V3.09473C15.4629 3.09473 17.3086 4.10254 17.3086 5.43848Z" fill="#FFCC33"/>
<path d="M16.0781 9.9502C13.3587 9.9502 11.1562 12.0479 11.1562 14.6377C11.1562 17.2276 13.3587 19.3252 16.0781 19.3252C18.7975 19.3252 21 17.2276 21 14.6377C21 12.0479 18.7975 9.9502 16.0781 9.9502Z" fill="#FEA832"/>
<path d="M21 14.6377C21 17.2276 18.7975 19.3252 16.0781 19.3252V9.9502C18.7975 9.9502 21 12.0479 21 14.6377Z" fill="#FE9923"/>
<path d="M16.0781 11.1221C14.0478 11.1221 12.3867 12.7041 12.3867 14.6377C12.3867 16.5713 14.0478 18.1533 16.0781 18.1533C18.1084 18.1533 19.7695 16.5713 19.7695 14.6377C19.7695 12.7041 18.1084 11.1221 16.0781 11.1221Z" fill="#FEDB41"/>
<path d="M19.7695 14.6377C19.7695 16.5713 18.1084 18.1533 16.0781 18.1533V11.1221C18.1084 11.1221 19.7695 12.7041 19.7695 14.6377Z" fill="#FFCC33"/>
</g>
<defs>
<clipPath id="clip0">
<rect width="21" height="20" fill="white" transform="translate(0 0.0380859)"/>
</clipPath>
</defs>
</svg>
