<svg width="22" height="22" viewBox="0 0 22 22" fill="none" xmlns="http://www.w3.org/2000/svg">
<path d="M9.2672 21.4999C7.03861 21.4999 5.5603 20.8304 5.5603 20.3878V19.9726C6.39991 20.4897 7.83708 20.7585 9.2672 20.7585C10.6973 20.7585 12.1341 20.4908 12.9741 19.9734V20.3878C12.9741 20.8297 11.4954 21.4999 9.2672 21.4999ZM9.2672 20.0171C7.03861 20.0171 5.5603 19.3476 5.5603 18.905C5.5603 18.4624 7.03861 17.793 9.2672 17.793C11.4958 17.793 12.9741 18.4624 12.9741 18.905C12.9741 19.3476 11.4954 20.0171 9.2672 20.0171Z" fill="#707D9B"/>
<path d="M17.7931 14.8276C20.0213 14.8276 21.5 15.4971 21.5 15.9397C21.4955 16.3845 20.0172 17.0518 17.7931 17.0518C15.5689 17.0518 14.0862 16.3823 14.0862 15.9397C14.0862 15.4971 15.5645 14.8276 17.7931 14.8276ZM17.7931 18.5345C15.5645 18.5345 14.0862 17.8651 14.0862 17.4225V17.0073C14.9258 17.5244 16.363 17.7932 17.7931 17.7932C19.2232 17.7932 20.6604 17.5251 21.5 17.008V17.4225C21.5 17.8643 20.0213 18.5345 17.7931 18.5345Z" fill="#707D9B"/>
<path d="M3.7069 3.33618C5.93511 3.33618 7.41379 4.00565 7.41379 4.44825C7.41379 4.89085 5.93548 5.56032 3.7069 5.56032C1.47831 5.56032 0 4.89011 0 4.44825C0 4.00639 1.47831 3.33618 3.7069 3.33618ZM0 5.51584C0.839612 6.03295 2.27678 6.3017 3.7069 6.3017C5.13702 6.3017 6.57381 6.03406 7.41379 5.51658V6.67239C7.41379 7.11462 5.93548 7.78446 3.7069 7.78446C1.47831 7.78446 0 7.11425 0 6.67239V5.51584ZM0 7.73997C0.839612 8.25709 2.27678 8.52584 3.7069 8.52584C5.13702 8.52584 6.57381 8.2582 7.41379 7.74072V8.89653C7.41379 9.33876 5.93548 10.0086 3.7069 10.0086C1.47831 10.0086 0 9.33839 0 8.89653V7.73997ZM0 9.96411C0.839612 10.4812 2.27678 10.75 3.7069 10.75C5.13702 10.75 6.57381 10.4823 7.41379 9.96485V11.1207C7.41379 11.5629 5.93548 12.2327 3.7069 12.2327C1.47831 12.2327 0 11.5625 0 11.1207V9.96411ZM0 12.1883C0.839612 12.7054 2.27678 12.9741 3.7069 12.9741C5.13702 12.9741 6.57381 12.7065 7.41379 12.189V13.3448C7.41379 13.787 5.93548 14.4569 3.7069 14.4569C1.47831 14.4569 0 13.7867 0 13.3448V12.1883ZM3.7069 16.681C1.47831 16.681 0 16.0108 0 15.5689V14.4124C0.839612 14.9295 2.27678 15.1983 3.7069 15.1983C5.13702 15.1983 6.57381 14.9306 7.41379 14.4131V15.5689C7.41379 16.0108 5.93511 16.681 3.7069 16.681Z" fill="#707D9B"/>
<path d="M13.3448 13.3448C11.1162 13.3448 9.63794 12.6754 9.63794 12.2328V11.0762C10.4776 11.5933 11.9147 11.8621 13.3448 11.8621C14.775 11.8621 16.2118 11.5944 17.0517 11.0769V12.2328C17.0517 12.6746 15.5731 13.3448 13.3448 13.3448ZM13.3448 0C15.5731 0 17.0517 0.669466 17.0517 1.11207C17.0517 1.55467 15.5731 2.22414 13.3448 2.22414C11.1166 2.22414 9.63794 1.55393 9.63794 1.11207C9.63794 0.670207 11.1162 0 13.3448 0ZM9.63794 2.17966C10.4776 2.69677 11.9147 2.96552 13.3448 2.96552C14.775 2.96552 16.2118 2.69788 17.0517 2.1804V3.33621C17.0517 3.77844 15.5734 4.44828 13.3448 4.44828C11.1162 4.44828 9.63794 3.77881 9.63794 3.33621V2.17966ZM9.63794 4.40379C10.4776 4.92091 11.9147 5.18966 13.3448 5.18966C14.775 5.18966 16.2118 4.92202 17.0517 4.40453V5.56034C17.0517 6.00258 15.5734 6.67241 13.3448 6.67241C11.1162 6.67241 9.63794 6.00295 9.63794 5.56034V4.40379ZM9.63794 6.62793C10.4776 7.14504 11.9147 7.41379 13.3448 7.41379C14.775 7.41379 16.2118 7.14616 17.0517 6.62867V7.78448C17.0517 8.22672 15.5734 8.89655 13.3448 8.89655C11.1162 8.89655 9.63794 8.22709 9.63794 7.78448V6.62793ZM9.63794 8.85207C10.4776 9.36918 11.9147 9.63793 13.3448 9.63793C14.775 9.63793 16.2118 9.37029 17.0517 8.85281V10.0086C17.0517 10.4509 15.5734 11.1207 13.3448 11.1207C11.1162 11.1207 9.63794 10.4512 9.63794 10.0086V8.85207Z" fill="#707D9B"/>
</svg>
