<svg width="27" height="26" viewBox="0 0 27 26" fill="none" xmlns="http://www.w3.org/2000/svg">
<path d="M22.7523 15.9673C21.2372 20.9512 17.6929 25.5356 13.4752 25.5356C9.25388 25.5356 5.70909 20.9512 4.19403 15.9673L0.500732 6.86037C0.500732 6.86037 5.7664 2.99938 10.58 2.69894C10.6451 1.2877 10.7779 0.00131425 13.4713 0C16.1689 0.00131425 16.3011 1.2877 16.3666 2.69894C21.1801 2.99938 26.4455 6.86037 26.4455 6.86037L22.7523 15.9673ZM5.40209 16.9254C6.5581 20.9528 9.70073 23.9632 13.4676 23.9632C17.2332 23.9632 20.375 20.9544 21.5321 16.9293C20.6923 17.1727 19.6751 17.4175 19.6751 17.4175C20.9318 14.9927 22.6697 10.4732 19.351 7.7785C16.2956 5.29826 13.4758 9.08723 13.4758 9.08723C13.4716 9.08723 10.652 5.29826 7.59688 7.7785C4.27709 10.4735 6.01505 14.9929 7.272 17.4177C7.272 17.4177 6.24478 17.1699 5.40209 16.9254ZM10.7913 20.8671C10.8867 20.6397 11.5325 20.216 12.2183 20.1093C12.9766 19.9897 13.3241 20.1482 13.4626 20.328C13.6009 20.1482 13.9489 19.9897 14.707 20.1093C15.403 20.2181 16.0593 20.6534 16.1374 20.8779C15.3549 20.6629 14.4323 20.5385 13.444 20.5385C12.4735 20.5385 11.5654 20.6587 10.7913 20.8671ZM15.4067 21.3018C15.1359 21.7905 14.3705 22.1416 13.4676 22.1416C12.5726 22.1416 11.8117 21.7957 11.5349 21.3137C12.0238 21.4898 12.7038 21.5997 13.4558 21.5997C14.2233 21.5997 14.9159 21.4853 15.4067 21.3018ZM7.72673 12.7958C8.02979 12.2015 8.92874 11.7373 10.0062 11.7123C11.1522 11.6858 11.9186 12.442 11.9565 12.5151C11.4182 12.3939 10.7566 12.3345 10.0432 12.3594C9.12692 12.391 8.30473 12.5561 7.72673 12.7958ZM10.7926 14.32C11.7667 14.7821 11.3196 15.2986 10.4956 14.897C9.85423 14.5839 9.22523 14.3687 8.68455 14.2609C8.74842 14.2096 9.75671 13.8303 10.7926 14.32ZM19.2164 12.7958C18.6381 12.5563 17.8159 12.3912 16.8996 12.3594C16.1865 12.3345 15.5249 12.3939 14.9866 12.5151C15.0242 12.4422 15.7909 11.686 16.9367 11.7123C18.0144 11.737 18.9131 12.2015 19.2164 12.7958ZM16.1505 14.32C17.1864 13.8303 18.1942 14.2096 18.2586 14.2609C17.7174 14.3687 17.0889 14.5839 16.4473 14.897C15.6235 15.2986 15.1764 14.7821 16.1505 14.32Z" fill="#707D9B"/>
</svg>
