<svg width="41" height="41" viewBox="0 0 41 41" fill="none" xmlns="http://www.w3.org/2000/svg">
<g filter="url(#filter0_d_30046_14609)">
<path d="M17.1216 37.2432C26.5776 37.2432 34.2432 29.5776 34.2432 20.1216C34.2432 10.6656 26.5776 3 17.1216 3C7.6656 3 0 10.6656 0 20.1216C0 29.5776 7.6656 37.2432 17.1216 37.2432Z" fill="url(#paint0_linear_30046_14609)"/>
</g>
<path fill-rule="evenodd" clip-rule="evenodd" d="M7.75092 19.9408C12.7422 17.7662 16.0705 16.3325 17.7358 15.6399C22.4907 13.6622 23.4787 13.3186 24.1226 13.3072C24.2643 13.3048 24.581 13.3399 24.7861 13.5064C25.0904 13.7533 25.0921 14.2893 25.0584 14.644C24.8007 17.3514 23.6858 23.9213 23.1186 26.9536C22.8785 28.2366 22.4059 28.6669 21.9485 28.7089C20.9542 28.8004 20.1992 28.0518 19.2362 27.4206C17.7293 26.4328 16.8779 25.8178 15.4152 24.854C13.7247 23.74 14.8206 23.1278 15.784 22.1271C16.0361 21.8653 20.4169 17.8806 20.5017 17.5191C20.5123 17.4739 20.5222 17.3053 20.422 17.2164C20.3219 17.1274 20.1742 17.1578 20.0676 17.182C19.9164 17.2163 17.5091 18.8075 12.8456 21.9555C12.1623 22.4247 11.5434 22.6533 10.9888 22.6413C10.3775 22.6281 9.20157 22.2957 8.32737 22.0115C7.25513 21.663 6.40293 21.4787 6.47716 20.8868C6.51582 20.5784 6.94038 20.2631 7.75092 19.9408Z" fill="white"/>
<defs>
<filter id="filter0_d_30046_14609" x="0" y="0.78633" width="40.1473" height="40.1463" filterUnits="userSpaceOnUse" color-interpolation-filters="sRGB">
<feFlood flood-opacity="0" result="BackgroundImageFix"/>
<feColorMatrix in="SourceAlpha" type="matrix" values="0 0 0 0 0 0 0 0 0 0 0 0 0 0 0 0 0 0 127 0" result="hardAlpha"/>
<feOffset dx="2.95156" dy="0.73789"/>
<feGaussianBlur stdDeviation="1.47578"/>
<feComposite in2="hardAlpha" operator="out"/>
<feColorMatrix type="matrix" values="0 0 0 0 0 0 0 0 0 0 0 0 0 0 0 0 0 0 0.25 0"/>
<feBlend mode="normal" in2="BackgroundImageFix" result="effect1_dropShadow_30046_14609"/>
<feBlend mode="normal" in="SourceGraphic" in2="effect1_dropShadow_30046_14609" result="shape"/>
</filter>
<linearGradient id="paint0_linear_30046_14609" x1="17.1216" y1="3" x2="17.1216" y2="36.9757" gradientUnits="userSpaceOnUse">
<stop stop-color="#2AABEE"/>
<stop offset="1" stop-color="#229ED9"/>
</linearGradient>
</defs>
</svg>
