<svg width="20" height="22" viewBox="0 0 20 22" fill="none" xmlns="http://www.w3.org/2000/svg">
<path d="M7.39833 14.9536L3.65006 20.0955C3.63496 20.1162 3.62421 20.1398 3.61846 20.1648C3.61271 20.1898 3.61208 20.2156 3.61661 20.2409C3.62113 20.2661 3.63072 20.2902 3.64479 20.3116C3.65886 20.333 3.67713 20.3514 3.69849 20.3655L5.3597 21.4683C5.38106 21.4825 5.40506 21.4922 5.43027 21.4968C5.45548 21.5015 5.48137 21.501 5.50638 21.4954C5.53138 21.4897 5.55499 21.4791 5.57578 21.4641C5.59657 21.4491 5.61411 21.4301 5.62734 21.4081L8.91068 15.9575C8.93351 15.919 8.94183 15.8736 8.93415 15.8295C8.92648 15.7854 8.90331 15.7455 8.86882 15.717C10.6319 14.2323 13.0525 13.32 14.9417 12.6103L15.0989 12.5513C16.4785 11.9756 17.6531 10.9984 18.4702 9.74663C20.4717 6.73135 20.0681 2.92935 17.5704 1.27136C15.0721 -0.38698 11.412 0.717439 9.41067 3.7326C8.57265 4.97047 8.12955 6.43329 8.13983 7.9281C8.13487 7.9283 8.1416 8.09695 8.1416 8.09695C8.22098 10.1132 8.31994 12.6978 7.63626 14.8988C7.59657 14.8781 7.5508 14.8722 7.50718 14.8823C7.46356 14.8923 7.42496 14.9176 7.39833 14.9536ZM10.3104 12.2077C10.8184 12.5436 11.3882 12.7747 11.9865 12.8877C10.7464 13.4139 9.57847 14.0963 8.51115 14.9183C8.85417 13.6158 9.0296 12.2749 9.03319 10.928C9.36969 11.4352 9.80389 11.8703 10.3104 12.2077ZM4.93735 6.16189C4.56394 6.53566 4.09003 6.79294 3.57317 6.90248C3.54745 6.61964 3.58423 6.3346 3.68091 6.06756C3.77759 5.80051 3.9318 5.55799 4.13262 5.35716C4.33344 5.15634 4.57597 5.00213 4.84301 4.90545C5.11006 4.80877 5.39509 4.77198 5.67793 4.79771C5.56841 5.31457 5.31112 5.78849 4.93735 6.16189ZM0.267578 4.48444C0.668948 4.51768 1.07274 4.46309 1.45088 4.32447C1.82901 4.18585 2.17242 3.96652 2.4572 3.68174C2.74199 3.39696 2.96132 3.05357 3.09995 2.67543C3.23858 2.2973 3.29317 1.89351 3.25994 1.49213C3.89393 1.55301 4.48698 1.83261 4.93734 2.28297C5.3877 2.73333 5.66731 3.32638 5.72818 3.96038C5.32682 3.92716 4.92303 3.98177 4.54491 4.1204C4.16678 4.25904 3.82339 4.47837 3.53862 4.76315C3.25384 5.04793 3.03451 5.39133 2.89588 5.76945C2.75725 6.14758 2.70265 6.55136 2.73587 6.95273C2.10186 6.89187 1.50879 6.61227 1.05842 6.16189C0.608043 5.71152 0.32844 5.11845 0.267578 4.48444ZM1.86317 3.08776C1.66234 3.28857 1.41981 3.44277 1.15277 3.53944C0.885718 3.63611 0.600682 3.67288 0.317845 3.64715C0.427616 3.13038 0.684862 2.65652 1.05843 2.28295C1.432 1.90939 1.90586 1.65215 2.42263 1.54238C2.44834 1.82523 2.41156 2.11027 2.31488 2.37733C2.2182 2.64438 2.06399 2.88692 1.86317 3.08776Z" fill="#707D9B"/>
</svg>
