<svg width="19" height="24" viewBox="0 0 19 24" fill="none" xmlns="http://www.w3.org/2000/svg">
  <path fill-rule="evenodd" clip-rule="evenodd"
        d="M12.6409 22.9797C13.5044 21.2407 14.5334 18.2796 13.0959 17.0027C11.7709 17.2031 10.6994 17.2043 9.82763 17.0072C7.63237 16.5109 6.9375 14.7596 7.54189 12.5168C4.58832 15.2346 4.46363 19.2421 5.55856 23.1009C5.73641 23.7278 5.03958 24.2412 4.49998 23.879C4.31622 23.7557 0 20.8061 0 16.2639C0 8.82279 8.37812 8.50264 8.37812 0.703856C8.37812 0.108121 9.07136 -0.217938 9.52504 0.165253C12.8729 2.99311 18.9649 9.79085 18.6231 16.0429C18.4536 19.1424 16.7813 21.7788 13.6526 23.879C13.0608 24.2762 12.3219 23.6221 12.6409 22.9797Z"
        fill="#19233C"/>
</svg>
