<svg width="27" height="30" viewBox="0 0 27 30" fill="none" xmlns="http://www.w3.org/2000/svg">
<path d="M25.8957 26.7983H24.8095V9.65918H23.9042V26.7983H22.8179C22.5766 26.7983 22.3955 26.9793 22.3955 27.2207C22.3955 27.4621 22.5766 27.6432 22.8179 27.6432H23.9042V29.3933C23.9042 29.6347 24.0853 29.8761 24.387 29.8761C24.6284 29.8761 24.8698 29.695 24.8698 29.3933V27.6432H25.9561C26.1975 27.6432 26.3785 27.4621 26.3785 27.2207C26.3182 26.9793 26.1371 26.7983 25.8957 26.7983Z" fill="#707D9B"/>
<path d="M3.98901 26.7983H2.90273V9.65918H1.99749V26.7983H0.911212C0.669816 26.7983 0.48877 26.9793 0.48877 27.2207C0.48877 27.4621 0.669816 27.6432 0.911212 27.6432H1.99749V29.3933C1.99749 29.6347 2.17854 29.8761 2.48028 29.8761C2.72168 29.8761 2.96308 29.695 2.96308 29.3933V27.6432H4.04936C4.29075 27.6432 4.4718 27.4621 4.4718 27.2207C4.41145 26.9793 4.2304 26.7983 3.98901 26.7983Z" fill="#707D9B"/>
<path d="M10.0841 0.908691C8.87716 0.908691 7.97192 1.81393 7.97192 2.90021V27.8243C7.97192 28.9106 8.87716 29.8158 9.96344 29.8158H10.0238C11.1101 29.8158 12.0153 28.9106 12.0153 27.8243V2.90021C12.0757 1.81393 11.1704 0.908691 10.0841 0.908691ZM10.0238 18.2892C9.2996 18.2892 8.75646 17.0219 8.75646 15.3924C8.75646 13.8234 9.2996 12.4957 10.0238 12.4957C10.6876 12.4957 11.2911 13.763 11.2911 15.3924C11.2911 16.9615 10.748 18.2892 10.0238 18.2892Z" fill="#707D9B"/>
<path d="M16.7831 0.908691C15.6364 0.908691 14.7312 1.81393 14.7312 2.96055V27.8847C14.7312 28.9709 15.6364 29.8762 16.7227 29.8762H16.7831C17.8693 29.8762 18.7746 28.9709 18.7746 27.8847V2.90021C18.8349 1.81393 17.9297 0.908691 16.7831 0.908691ZM16.7831 18.2892C16.1192 18.2892 15.5157 17.0219 15.5157 15.3924C15.5157 13.8234 16.0589 12.4957 16.7831 12.4957C17.5073 12.4957 18.0504 13.763 18.0504 15.3924C18.0504 16.9615 17.4469 18.2892 16.7831 18.2892Z" fill="#707D9B"/>
<path d="M22.9386 8.45231C23.8439 8.45231 24.7491 8.45231 25.775 8.45231C26.0164 8.45231 26.2578 8.21091 26.2578 7.96952C26.2578 7.72812 26.0164 7.48672 25.775 7.48672H25.7147C25.7147 7.30568 25.7147 1.99497 25.7147 2.29672C25.7147 1.51218 25.1112 0.908691 24.3267 0.908691C23.5421 0.908691 22.9386 1.51218 22.9386 2.29672C22.9386 2.41741 22.9386 7.66777 22.9386 7.48672H22.8783C22.6369 7.48672 22.3955 7.72812 22.3955 7.96952C22.4559 8.21091 22.6369 8.45231 22.9386 8.45231Z" fill="#707D9B"/>
<path d="M1.03113 8.45231C1.15183 8.45231 4.04858 8.45231 3.86753 8.45231C4.10893 8.45231 4.35032 8.21091 4.35032 7.96952C4.35032 7.72812 4.10893 7.48672 3.86753 7.48672H3.80718V2.29672C3.80718 1.51218 3.20369 0.908691 2.41916 0.908691C1.69497 0.908691 1.09148 1.51218 1.09148 2.29672V7.48672H1.03113C0.789736 7.48672 0.54834 7.72812 0.54834 7.96952C0.54834 8.21091 0.789736 8.45231 1.03113 8.45231Z" fill="#707D9B"/>
</svg>
