<svg width="30" height="30" viewBox="0 0 30 30" fill="none" xmlns="http://www.w3.org/2000/svg">
<g clip-path="url(#clip0)">
<path d="M14.6489 30C22.6571 30 29.1489 23.2843 29.1489 15C29.1489 6.71573 22.6571 0 14.6489 0C6.6408 0 0.148926 6.71573 0.148926 15C0.148926 23.2843 6.6408 30 14.6489 30Z" fill="#FC4581"/>
<path d="M29.0386 16.8446C28.8335 18.569 28.3447 20.2032 27.6225 21.695C27.5461 21.8538 27.4668 22.0108 27.3841 22.1661C26.2552 24.3059 24.637 26.13 22.6852 27.4764C19.268 27.8069 13.6691 28.4362 9.30553 28.9378C6.05719 27.6053 3.38432 25.0928 1.78252 21.9118L0.36084 12.4243C0.445801 11.9128 0.555684 11.4094 0.689922 10.9173C0.772617 10.6137 0.863809 10.3143 0.964629 10.019C2.034 6.86609 4.09346 4.19539 6.7567 2.40417C8.77934 2.97078 11.1979 4.23171 13.2913 6.94636C14.0639 7.94773 15.0914 8.69832 16.2468 9.13894C16.4077 9.20046 18.8529 10.0782 19.1882 10.2563C19.242 10.2844 20.7894 11.2612 21.4091 11.9216C21.7494 12.2738 22.0505 12.6784 22.3057 13.0999C22.9678 14.1944 24.0525 14.9497 25.2816 15.1759C26.4184 15.385 27.8225 15.8462 29.0386 16.8446C27.8225 15.8462 28.8335 18.569 29.0386 16.8446Z" fill="#D0E1FC"/>
<path d="M27.6225 21.695C27.546 21.8538 27.4667 22.0108 27.384 22.1661C26.2552 24.306 24.6369 26.13 22.6851 27.4765C20.3849 29.0644 17.6214 29.9895 14.6489 29.9895C12.7617 29.9895 10.9588 29.6163 9.30545 28.9378C6.05711 27.6054 3.38424 25.0929 1.78244 21.9118C0.738555 19.8405 0.148926 17.4862 0.148926 14.9896C0.148926 14.1147 0.221426 13.2575 0.360762 12.4243C0.445723 11.9128 0.555605 11.4095 0.689844 10.9173C1.0059 10.6103 1.34234 10.3337 1.69521 10.0882C3.03307 9.15889 4.60484 8.67432 6.18852 8.67432C7.92455 8.67432 9.67418 9.25615 11.1457 10.4708C11.8792 11.0761 12.6031 11.8114 13.2913 12.7044C13.6724 13.1989 14.1165 13.6325 14.607 13.997C14.9984 14.2894 15.4204 14.5372 15.8644 14.7382C15.997 14.7979 18.5124 15.6815 18.8018 15.8198C20.0995 16.4397 21.4192 17.3937 22.3056 18.8585C22.3062 18.8597 22.3067 18.8603 22.3073 18.8614C22.9694 19.9536 24.0535 20.7077 25.2815 20.9339C25.6871 21.0083 26.1266 21.1155 26.5797 21.2673C26.9224 21.3815 27.273 21.5222 27.6225 21.695Z" fill="#BFD6F7"/>
<path d="M27.384 22.1661C26.2552 24.306 24.6369 26.13 22.6851 27.4765C20.3849 29.0644 17.6214 29.9895 14.6489 29.9895C12.7617 29.9895 10.9588 29.6163 9.30545 28.9378C6.05711 27.6054 3.38424 25.0929 1.78244 21.9118C0.738555 19.8405 0.148926 17.4862 0.148926 14.9896C0.148926 14.1147 0.221426 13.2575 0.360762 12.4243C0.445723 11.9128 0.555605 11.4095 0.689844 10.9173C0.772539 10.6138 0.86373 10.3144 0.964551 10.019C1.18205 10.0354 1.42674 10.0577 1.69521 10.0882C4.06902 10.3612 8.27289 11.2993 11.6849 14.4903C12.1035 14.8817 12.5096 15.3065 12.8993 15.7688C13.1412 16.0548 13.3756 16.3548 13.6033 16.67C13.6033 16.67 17.2204 18.736 18.0383 18.8415C18.6257 18.9177 19.2668 18.9329 19.959 18.8591C19.959 18.8591 20.9122 18.5925 22.3073 18.8614C23.5115 19.0923 25.0453 19.7222 26.5797 21.2673C26.8488 21.538 27.1172 21.8362 27.384 22.1661Z" fill="white"/>
<path d="M3.39941 20.1402C3.39941 20.1402 10.6469 17.1778 16.5388 21.5821C16.5388 21.5821 10.1396 19.2744 3.39941 20.1402Z" fill="#D0E1FC"/>
<path d="M15.645 23.6524C15.645 23.6524 17.1202 20.8887 21.1348 22.9102C21.1349 22.9102 17.9785 21.9629 15.645 23.6524Z" fill="#D0E1FC"/>
<path d="M2.94629 13.7402C2.94629 13.7402 6.64673 11.7956 8.21387 15.9612C8.21387 15.9612 10.3662 15.2953 11.1025 17.1545C11.1025 17.1545 9.74316 15.791 7.64746 16.9336C7.64746 16.9336 7.21795 13.3491 2.94629 13.7402Z" fill="#D0E1FC"/>
<path d="M19.7981 5.10743L15.0393 5.48014L15.4938 4.69264C15.5824 4.5393 15.7423 4.44543 15.9149 4.44543H20.022V4.85483C20.0221 4.98637 19.9248 5.09612 19.7981 5.10743Z" fill="#A65C3B"/>
<path d="M17.2591 4.96899L17.363 4.98686C17.6133 5.02999 17.7754 5.28405 17.7154 5.53911L17.5526 6.23034L16.6902 6.0818L16.7527 5.37329C16.7758 5.1119 17.0088 4.92586 17.2591 4.96899Z" fill="#FCC8BC"/>
<path d="M15.4921 19.1062C15.4921 19.1062 15.0978 18.261 15.0089 17.0661C14.9434 16.1868 14.8188 15.3133 14.6136 14.4575L14.0706 12.1931L14.339 10.5266L15.492 9.98389C15.492 9.98389 16.7555 11.8035 16.308 14.8568L16.404 18.8901L15.4921 19.1062Z" fill="#934CF5"/>
<path d="M15.5184 8.66805L14.3462 6.67533C14.1838 6.3993 14.2685 6.03936 14.5353 5.87137L14.582 5.84195C14.8489 5.67397 15.1968 5.76156 15.3592 6.0376L16.5314 8.03032C16.6938 8.30635 16.6092 8.66629 16.3423 8.83428L16.2956 8.8637C16.0288 9.03168 15.6808 8.94409 15.5184 8.66805Z" fill="#A81A1A"/>
<path d="M15.8284 8.41896L16.5112 6.1958C16.6058 5.88783 16.9238 5.7175 17.2215 5.81535L17.2737 5.83246C17.5714 5.93031 17.736 6.25925 17.6414 6.56722L16.9586 8.79038C16.8641 9.09835 16.5461 9.26869 16.2484 9.17083L16.1962 9.15372C15.8986 9.05587 15.7339 8.72693 15.8284 8.41896Z" fill="#BC1B1B"/>
<path d="M15.3923 4.03318C15.2232 4.87617 14.5264 5.43908 13.8355 5.29095C13.4372 5.20529 13.128 4.90166 12.97 4.49795C12.8541 4.20216 12.8196 3.85259 12.8913 3.49617C13.0604 2.65365 13.7572 2.09027 14.4481 2.23886C14.888 2.33332 15.2192 2.69343 15.3579 3.16054C15.4371 3.42674 15.4536 3.7272 15.3923 4.03318Z" fill="#FCC8BC"/>
<path d="M18.0222 23.2748L6.50223 21.8255C6.3659 21.8084 6.26825 21.681 6.28326 21.5397C6.29838 21.3973 6.4222 21.2946 6.55989 21.3102L18.7253 22.6913C18.6869 23.0533 18.3721 23.3145 18.0222 23.2748Z" fill="#32314B"/>
<path d="M22.3665 22.404L10.7851 21.6419C10.6481 21.6329 10.5435 21.5115 10.5506 21.3696C10.5578 21.2265 10.6758 21.1166 10.814 21.124L23.036 21.7797C23.0178 22.1434 22.7181 22.4228 22.3665 22.404Z" fill="#32314B"/>
<path d="M12.1206 10.6801L11.7894 15.6837C11.7707 15.8501 11.7173 16.0106 11.6309 16.1522C11.371 16.5788 10.8037 17.6934 10.8037 19.2991L11.5868 19.7389L13.0412 16.1121L14.5627 12.434L15.2339 10.4958L12.1206 10.6801Z" fill="#AA60FA"/>
<path d="M12.2803 11.3237L11.4751 8.07636C11.4751 8.07636 10.6696 5.76613 11.9226 5.07947C11.9226 5.07947 14.8313 5.15529 15.2341 6.13966C15.2341 6.13966 14.318 8.49226 15.4921 9.98388C15.492 9.98394 14.5626 12.4116 12.2803 11.3237Z" fill="#AA60FA"/>
<path d="M12.5035 6.61732L15.4415 6.01404C15.5549 5.99072 15.6367 5.88777 15.6367 5.76807V5.33037C15.6367 5.19186 15.5281 5.07959 15.3942 5.07959H12.8319C12.6505 5.07959 12.5034 5.23176 12.5034 5.41943V6.61732H12.5035Z" fill="#9E4830"/>
<path d="M20.0222 4.44543H24.0273V4.8328H20.0222V4.44543Z" fill="#4F4F74"/>
<path d="M23.3113 4.02258H24.0273V4.4454H23.3113V4.02258Z" fill="#32314B"/>
<path d="M12.2319 21.0505H11.9997L11.9065 19.349L10.5799 19.3223L10.3842 21.7454C10.3691 21.9318 10.5113 22.0916 10.6921 22.0916H11.4302H12.0567H12.7951V21.633C12.795 21.3113 12.5429 21.0505 12.2319 21.0505Z" fill="#DB1B1B"/>
<path d="M17.0467 20.7733H16.8144L16.5244 18.8594L15.1978 18.8326L15.1989 21.4682C15.1838 21.6546 15.326 21.8144 15.5067 21.8144H16.2449H16.8714H17.6098V21.3558C17.6098 21.0341 17.3577 20.7733 17.0467 20.7733Z" fill="#DB1B1B"/>
<path d="M14.8346 6.94537L13.7382 7.22146C13.4201 7.30162 13.0993 7.09977 13.0219 6.77059C12.9444 6.44147 13.1395 6.10965 13.4577 6.02949L14.554 5.7534C14.8722 5.67324 15.193 5.8751 15.2704 6.20428C15.3479 6.5334 15.1527 6.86522 14.8346 6.94537Z" fill="#BC1B1B"/>
<path d="M13.2911 7.1753L11.2321 6.22427C10.9469 6.09255 10.8189 5.74655 10.9462 5.45147L10.9686 5.39979C11.0959 5.10472 11.4304 4.97235 11.7156 5.10407L13.7746 6.05511C14.0598 6.18683 14.1878 6.53282 14.0605 6.8279L14.0381 6.87958C13.9108 7.17466 13.5764 7.30708 13.2911 7.1753Z" fill="#DB1B1B"/>
<path d="M15.3577 3.0932C15.0579 3.49873 14.2673 4.35402 12.8496 4.49793C12.7279 4.18721 12.6917 3.82012 12.7669 3.4457C12.9446 2.56076 13.6765 1.96902 14.4022 2.12506C14.8642 2.22432 15.212 2.6026 15.3577 3.0932Z" fill="#DB1B1B"/>
</g>
<defs>
<clipPath id="clip0">
<rect width="29" height="30" fill="white" transform="translate(0.148926)"/>
</clipPath>
</defs>
</svg>
