<svg width="34" height="34" viewBox="0 0 34 34" fill="none" xmlns="http://www.w3.org/2000/svg">
<path fill-rule="evenodd" clip-rule="evenodd" d="M29.0407 4.93804C25.8455 1.75665 21.5935 0 17.065 0C7.73171 0 0.146341 7.56087 0.138211 16.846C0.138211 19.8169 0.918699 22.715 2.39837 25.265L0 33.9996L8.97561 31.6601C11.4472 33.0039 14.2276 33.7082 17.065 33.7082H17.0732C26.3984 33.7082 33.9919 26.1473 34 16.8622C34 12.3532 32.2358 8.11944 29.0407 4.93804Z" fill="#42E55F"/>
<path fill-rule="evenodd" clip-rule="evenodd" d="M29.0407 4.93804C25.8455 1.75665 21.5935 0 17.065 0C7.73171 0 0.146341 7.56087 0.138211 16.846C0.138211 19.8169 0.918699 22.715 2.39837 25.265L0 33.9996L8.97561 31.6601C11.4472 33.0039 14.2276 33.7082 17.065 33.7082H17.0732C26.3984 33.7082 33.9919 26.1473 34 16.8622C34 12.3532 32.2358 8.11944 29.0407 4.93804ZM17.0732 30.8587C14.5447 30.8587 12.065 30.1787 9.91057 28.9078L9.39837 28.6083L4.07317 30.0006L5.49593 24.8359L5.1626 24.3097C3.7561 22.0836 3.00813 19.5012 3.00813 16.8541C3.00813 9.13133 9.3252 2.84949 17.0813 2.84949C20.8374 2.84949 24.374 4.30662 27.0244 6.95373C29.6829 9.60085 31.1463 13.1222 31.1382 16.8622C31.1301 24.5769 24.8211 30.8587 17.0732 30.8587ZM24.7886 20.3755C24.3659 20.165 22.2846 19.145 21.9024 19.0074C21.5122 18.8698 21.2358 18.7969 20.9512 19.2179C20.6667 19.6388 19.8618 20.586 19.6098 20.8693C19.3659 21.1526 19.1138 21.185 18.6911 20.9745C18.2683 20.7641 16.9024 20.3188 15.2927 18.886C14.0325 17.7689 13.187 16.3927 12.9431 15.9717C12.6992 15.5508 12.9187 15.3241 13.1301 15.1136C13.3171 14.9275 13.5528 14.6198 13.7642 14.377C13.9756 14.1341 14.0488 13.956 14.187 13.6727C14.3252 13.3894 14.2602 13.1465 14.1545 12.936C14.0488 12.7256 13.2033 10.6532 12.8537 9.81132C12.5122 8.99371 12.1626 9.09895 11.9024 9.09085C11.6585 9.07466 11.374 9.07466 11.0894 9.07466C10.8049 9.07466 10.3496 9.1799 9.95935 9.60085C9.5691 10.0218 8.47967 11.0418 8.47967 13.1141C8.47967 15.1865 9.99187 17.186 10.2033 17.4693C10.4146 17.7527 13.187 22.0026 17.4309 23.824C18.439 24.2612 19.2276 24.5202 19.8455 24.7145C20.8618 25.0383 21.7805 24.9897 22.5122 24.8845C23.3252 24.7631 25.0163 23.8645 25.3659 22.885C25.7154 21.9055 25.7154 21.0555 25.6098 20.8855C25.4878 20.6912 25.2114 20.586 24.7886 20.3755Z" fill="white"/>
</svg>
