<svg width="30" height="30" viewBox="0 0 30 30" fill="none" xmlns="http://www.w3.org/2000/svg">
<path d="M29.983 14.2822C29.9812 14.2447 29.9795 14.2066 29.9771 14.1691C29.9766 14.1469 29.9748 14.1246 29.9736 14.1018C29.9648 13.9523 29.9537 13.8029 29.9408 13.6535C29.9256 13.4824 29.9074 13.3119 29.8869 13.142C29.8793 13.0811 29.8717 13.0195 29.8629 12.9586C29.8547 12.8977 29.8465 12.8367 29.8371 12.7764C29.8184 12.6492 29.7984 12.5221 29.7762 12.3961C29.7668 12.341 29.7568 12.2859 29.7463 12.2314C29.7352 12.1711 29.724 12.1107 29.7117 12.051C29.7 11.9906 29.6877 11.9309 29.6748 11.8711C29.6514 11.7592 29.6268 11.6479 29.6004 11.5371C29.5852 11.4738 29.5699 11.4105 29.5547 11.3473C29.4492 10.9242 29.3256 10.507 29.1838 10.0963C29.1639 10.0377 29.1434 9.97969 29.1223 9.92168C29.0631 9.75527 29.0004 9.58945 28.9342 9.42539C28.9119 9.36914 28.8891 9.31289 28.8656 9.25664C28.8457 9.20801 28.8252 9.15996 28.8047 9.11133C28.7818 9.05742 28.7584 9.00352 28.7344 8.9502C28.7133 8.90215 28.6922 8.85469 28.6705 8.80723C28.6535 8.76914 28.6359 8.73164 28.6184 8.69355C28.6125 8.67949 28.6055 8.66602 28.599 8.65195C28.5803 8.61211 28.5615 8.57168 28.5422 8.53184C28.4988 8.43984 28.4537 8.34902 28.408 8.25879C28.3816 8.20547 28.3541 8.15273 28.3266 8.09941C28.2639 7.97812 28.1988 7.85742 28.132 7.73789C28.115 7.70625 28.098 7.6752 28.0799 7.64414C28.0658 7.61836 28.0512 7.59316 28.0365 7.56797H28.0359C28.0154 7.53164 27.9955 7.49531 27.9744 7.45957C27.9422 7.40508 27.9105 7.35117 27.8783 7.29785C27.7652 7.10918 27.6475 6.92285 27.5256 6.73887C27.4629 6.64453 27.4002 6.55137 27.3352 6.4582C27.2924 6.39609 27.249 6.33516 27.2051 6.27422C27.1687 6.22324 27.1318 6.17227 27.0943 6.12188C27.0785 6.09961 27.0621 6.07793 27.0457 6.05625C26.9854 5.9748 26.9238 5.89453 26.8617 5.81484C26.7861 5.71758 26.7088 5.6209 26.6303 5.5248C26.6104 5.50078 26.5904 5.47617 26.5699 5.45156C26.3883 5.23184 26.2002 5.01738 26.0051 4.80703C25.9775 4.77773 25.95 4.74785 25.9219 4.71797L25.9166 4.7127C25.8773 4.67109 25.8381 4.62949 25.7977 4.58848C25.735 4.52285 25.6711 4.45781 25.6066 4.39336C25.5604 4.34707 25.5141 4.30137 25.4672 4.25625C25.4396 4.22871 25.4115 4.20176 25.3834 4.1748C25.3412 4.13379 25.2984 4.09336 25.2551 4.05293C25.2035 4.0043 25.1514 3.95625 25.0992 3.90879C25.0418 3.85605 24.9838 3.80449 24.9258 3.75293C24.8637 3.69785 24.8016 3.64336 24.7383 3.59004C24.6979 3.5543 24.6562 3.51973 24.6146 3.48516C24.566 3.44414 24.5168 3.40371 24.4676 3.36328C24.4184 3.32285 24.3691 3.28301 24.3193 3.24375C24.2789 3.21152 24.2379 3.1793 24.1969 3.14707C24.1535 3.11367 24.1102 3.07969 24.0662 3.04688C24.0381 3.0252 24.01 3.0041 23.9818 2.98301C23.9479 2.95723 23.9139 2.93145 23.8793 2.90625C23.8623 2.89395 23.8453 2.88164 23.8283 2.86875C23.7943 2.84473 23.7609 2.82012 23.7264 2.79551C23.6707 2.75508 23.615 2.71582 23.5582 2.67656C23.4551 2.60391 23.3508 2.53359 23.2453 2.46387C23.185 2.42402 23.1246 2.38477 23.0637 2.34609C23.0086 2.31094 22.9535 2.27578 22.8984 2.2418C22.8844 2.23242 22.8691 2.22305 22.8545 2.21426C22.8094 2.18613 22.7637 2.15918 22.7186 2.13164C22.7004 2.12051 22.6822 2.10996 22.6641 2.09883C22.6084 2.06543 22.5527 2.03262 22.4965 2.00039C22.4344 1.96406 22.3723 1.92891 22.309 1.89375C22.2803 1.87734 22.2516 1.86152 22.2223 1.8457C22.0582 1.75488 21.8924 1.66758 21.7242 1.58379C21.6844 1.56328 21.6445 1.54336 21.6041 1.52402C21.5643 1.5041 21.5244 1.48477 21.484 1.46543C21.4436 1.44609 21.4037 1.42676 21.3633 1.40801C21.3229 1.38867 21.2824 1.36992 21.242 1.35176C21.0217 1.25098 20.799 1.15547 20.5746 1.06582C20.5184 1.04297 20.4615 1.0207 20.4047 0.999023C20.3479 0.977344 20.291 0.955664 20.2342 0.93457C20.1908 0.918164 20.1475 0.902344 20.1035 0.886523C20.0262 0.858398 19.9488 0.831445 19.8709 0.805078C19.8199 0.7875 19.7689 0.770508 19.718 0.753516C19.3893 0.644531 19.0564 0.547852 18.7201 0.462305C18.6756 0.451172 18.6305 0.440039 18.5854 0.428906C18.5344 0.416602 18.484 0.404297 18.4324 0.392578C18.3896 0.382031 18.3469 0.372656 18.3035 0.362695C18.2455 0.349805 18.1875 0.3375 18.1289 0.325195C18.0885 0.316406 18.048 0.308203 18.007 0.3C17.976 0.293555 17.9455 0.287695 17.9145 0.281836C17.598 0.219141 17.2793 0.167578 16.9576 0.125977C16.9143 0.120117 16.8703 0.114844 16.8264 0.10957C16.6869 0.0925781 16.5475 0.0779297 16.4074 0.0650391C16.4062 0.0644531 16.4057 0.0644531 16.4051 0.0650391C16.3564 0.0597656 16.3072 0.0556641 16.258 0.0521484C16.132 0.0410156 16.0055 0.0322266 15.8789 0.0257812C15.849 0.0234375 15.8186 0.0216797 15.7887 0.0205078C15.7588 0.01875 15.7289 0.0175781 15.6984 0.0164062C15.6873 0.0158203 15.6768 0.0152344 15.6656 0.0152344C15.5965 0.0117187 15.5273 0.009375 15.4582 0.00703125C15.4488 0.00644531 15.4389 0.00644531 15.4289 0.00644531C15.3586 0.00410156 15.2883 0.00234375 15.2174 0.00175781C15.1453 0.000585937 15.0727 0 15 0C14.7059 0 14.4129 0.00820312 14.1211 0.0257812C12.0363 0.144727 10.0318 0.689648 8.2084 1.61777C8.15684 1.64414 8.10586 1.67051 8.05488 1.69746C7.90137 1.77715 7.74844 1.86035 7.59785 1.94648C7.28965 2.12168 6.9873 2.30801 6.69141 2.50547C6.54727 2.60215 6.40488 2.70117 6.26367 2.80254C5.60449 3.27656 4.97871 3.80801 4.39336 4.39336C3.78398 5.00273 3.2332 5.65605 2.74453 6.34512C2.6373 6.4957 2.53359 6.64805 2.43223 6.80215C2.10996 7.29434 1.81816 7.80293 1.55801 8.32676C0.658008 10.135 0.132422 12.1178 0.0222656 14.1779C0.00761719 14.451 0 14.7246 0 15C0 15.3135 0.009375 15.6252 0.0287109 15.9357C0.0380859 16.0951 0.0503906 16.2539 0.065625 16.4127C0.22207 18.1037 0.660352 19.735 1.35645 21.2525C1.4373 21.4283 1.52109 21.6023 1.60898 21.7746C1.87324 22.2961 2.16914 22.8029 2.49492 23.2928C3.04336 24.116 3.67793 24.8912 4.39336 25.6066C5.13164 26.3449 5.93379 26.9971 6.78633 27.5566C7.27793 27.8801 7.78652 28.173 8.31035 28.4338C8.45801 28.5076 8.60684 28.5791 8.75684 28.6477C10.2814 29.3461 11.9215 29.7838 13.6207 29.9373C13.7994 29.9543 13.9787 29.9672 14.1586 29.9766C14.4375 29.9924 14.7182 30 15 30C15.0932 30 15.1857 29.9994 15.2783 29.9971C15.327 29.9965 15.3756 29.9953 15.4236 29.9936C15.4283 29.9941 15.433 29.9941 15.4377 29.9936C15.4559 29.993 15.474 29.993 15.4922 29.9918C15.4951 29.9918 15.4986 29.9918 15.5016 29.9912C15.5637 29.9895 15.6258 29.9871 15.6879 29.9842C15.7553 29.9813 15.8227 29.9777 15.8895 29.9736C15.8982 29.9736 15.907 29.973 15.9164 29.9725C15.9844 29.9684 16.0523 29.9643 16.1197 29.959C16.2434 29.9496 16.367 29.9391 16.49 29.9273C16.5545 29.9209 16.6195 29.9145 16.684 29.9068C16.7479 29.8998 16.8117 29.8922 16.875 29.8846C16.9307 29.8781 16.9857 29.8705 17.0414 29.8629C17.0795 29.8582 17.117 29.8529 17.1551 29.8471C17.1814 29.8436 17.2078 29.8395 17.2342 29.8354C17.2916 29.8271 17.349 29.8184 17.4059 29.809C17.4492 29.8025 17.492 29.7955 17.5348 29.7879C17.567 29.7826 17.5998 29.7768 17.632 29.7709C17.6379 29.7703 17.6437 29.7691 17.6496 29.768C17.683 29.7621 17.7164 29.7563 17.7492 29.7498C17.7615 29.748 17.7738 29.7457 17.7861 29.7428C17.8189 29.7369 17.8512 29.7311 17.8834 29.724C17.8904 29.7234 17.8975 29.7223 17.9045 29.7199C17.9303 29.7152 17.9561 29.7105 17.9813 29.7053C18.0311 29.6953 18.0797 29.6854 18.1289 29.6748C18.2842 29.6426 18.4383 29.6074 18.5918 29.5693C18.6445 29.557 18.6967 29.5436 18.7488 29.5301C18.7799 29.5225 18.8109 29.5143 18.842 29.5061C18.883 29.4955 18.9234 29.4844 18.9645 29.4732C18.9656 29.4732 18.9662 29.4727 18.9674 29.4727C19.0166 29.4592 19.0664 29.4457 19.1156 29.4311C19.159 29.4188 19.2029 29.4064 19.2463 29.3936C19.3295 29.3689 19.4133 29.3438 19.4959 29.318C19.551 29.301 19.6055 29.2834 19.66 29.2652C19.7197 29.2459 19.7795 29.226 19.8393 29.2055C19.8691 29.1955 19.899 29.1855 19.9289 29.175C19.9588 29.165 19.9887 29.1545 20.0186 29.1434C20.0777 29.1223 20.1375 29.1012 20.1967 29.0789C20.2559 29.0572 20.3145 29.0355 20.3736 29.0127C20.4322 28.9898 20.4914 28.967 20.55 28.9436C20.6086 28.9201 20.6672 28.8967 20.7252 28.8727C20.7838 28.8486 20.8418 28.824 20.8998 28.7994C20.9033 28.7982 20.9074 28.7965 20.9115 28.7947C20.9818 28.7643 21.0521 28.7338 21.1225 28.7021C21.1248 28.7016 21.1271 28.7004 21.1295 28.6992C21.1992 28.6676 21.2684 28.6359 21.3375 28.6037C21.4787 28.5375 21.6187 28.4695 21.7576 28.3992C21.8227 28.3664 21.8877 28.333 21.9527 28.299C22.0031 28.2727 22.0535 28.2457 22.1033 28.2188C22.251 28.1402 22.3963 28.0582 22.5404 27.9744C22.6002 27.9393 22.6594 27.9041 22.7186 27.8684C22.8539 27.7875 22.9875 27.7037 23.1199 27.6182C23.1727 27.5842 23.2248 27.5496 23.277 27.515C23.4152 27.4236 23.5523 27.3293 23.6877 27.232C23.7727 27.1717 23.8564 27.1102 23.9402 27.048C24.024 26.9859 24.1066 26.9232 24.1887 26.8588L24.2871 26.7814C24.3363 26.7428 24.3855 26.7035 24.4342 26.6637C24.4752 26.6309 24.5156 26.5975 24.5555 26.5641C24.6029 26.5248 24.6498 26.4855 24.6967 26.4457C25.0096 26.1803 25.3131 25.9002 25.6066 25.6066C25.6752 25.5381 25.7432 25.4689 25.81 25.3992C25.8504 25.3576 25.8902 25.3154 25.9295 25.2732C26.0068 25.1918 26.0818 25.1098 26.1568 25.0271C26.2277 24.948 26.298 24.8689 26.3672 24.7887C26.3742 24.7805 26.3812 24.7723 26.3883 24.7641C26.4299 24.716 26.4709 24.6674 26.5113 24.6187C26.5734 24.5449 26.635 24.4705 26.6953 24.3955C26.7205 24.3639 26.7457 24.3322 26.7709 24.3006C26.8066 24.2555 26.8418 24.2109 26.877 24.1652C26.9121 24.1201 26.9473 24.0744 26.9818 24.0281C27.0398 23.952 27.0967 23.8752 27.1523 23.7984C27.1811 23.7586 27.2098 23.7193 27.2379 23.6795C27.2402 23.6771 27.242 23.6742 27.2443 23.6707C27.3059 23.5846 27.3668 23.4967 27.4266 23.4088C27.4658 23.352 27.5039 23.2945 27.5414 23.2371C27.5432 23.2348 27.5449 23.2324 27.5467 23.2295C27.5484 23.2266 27.5508 23.2236 27.552 23.2207C27.576 23.185 27.5994 23.1498 27.6223 23.1135C27.6305 23.1006 27.6393 23.0877 27.6475 23.0742C27.6938 23.0016 27.74 22.9283 27.7857 22.8545C27.8238 22.7924 27.8613 22.7303 27.8988 22.6676C27.9135 22.643 27.9281 22.6178 27.9428 22.5926C27.965 22.5551 27.9873 22.5176 28.009 22.4801C28.1197 22.2891 28.2252 22.0957 28.3266 21.9006C28.36 21.8361 28.3928 21.7717 28.425 21.7066C28.4754 21.6064 28.5246 21.5063 28.5721 21.4049C28.6107 21.3223 28.6494 21.2396 28.6869 21.1564C28.7074 21.1113 28.7268 21.0668 28.7467 21.0217C28.7707 20.9678 28.7936 20.9133 28.8164 20.8594C28.9195 20.6186 29.015 20.3742 29.1041 20.1281C29.1199 20.0859 29.1352 20.0432 29.1498 20.0004C29.2072 19.8393 29.2611 19.6764 29.3121 19.5129C29.3297 19.4584 29.3461 19.4039 29.3625 19.3494C29.3783 19.2979 29.3936 19.2463 29.4088 19.1947C29.4293 19.1244 29.4492 19.0535 29.4686 18.9826C29.4715 18.9721 29.4744 18.9615 29.4768 18.951C29.4926 18.8936 29.5078 18.8361 29.5225 18.7781C29.5266 18.7635 29.5307 18.7488 29.5336 18.7342C29.5459 18.6873 29.5582 18.6398 29.5693 18.5924C29.577 18.5613 29.5846 18.5297 29.5922 18.4986C29.659 18.2174 29.7182 17.9332 29.768 17.6473C29.7756 17.6039 29.7838 17.56 29.7908 17.516C29.7973 17.4791 29.8031 17.4428 29.809 17.4059C29.8189 17.3455 29.8283 17.2846 29.8371 17.2236C29.8465 17.1633 29.8547 17.1023 29.8629 17.0414C29.8752 16.9523 29.8863 16.8639 29.8963 16.7748C29.9021 16.7262 29.9074 16.677 29.9127 16.6277C29.9197 16.5645 29.9262 16.5006 29.932 16.4367C29.9355 16.4045 29.9385 16.3723 29.9408 16.3406C29.9438 16.309 29.9461 16.2768 29.949 16.2445C29.9537 16.1877 29.9578 16.1309 29.9619 16.074C29.9643 16.0494 29.966 16.0242 29.9672 15.9996C29.9701 15.9527 29.973 15.9064 29.9754 15.8596C29.9795 15.7881 29.983 15.7166 29.9859 15.6451C29.9924 15.5021 29.9965 15.3592 29.9982 15.2156C29.9994 15.1436 30 15.0721 30 15V14.9842C30 14.7492 29.9941 14.5154 29.983 14.2822Z" fill="#F1F1F1"/>
<path d="M30 15C30 15.0721 29.9994 15.1436 29.9982 15.2156C29.9965 15.3592 29.9924 15.5021 29.9859 15.6451C29.983 15.7166 29.9795 15.7881 29.9754 15.8596C29.973 15.9064 29.9701 15.9527 29.9672 15.9996C29.966 16.0242 29.9643 16.0494 29.9619 16.074C29.9578 16.1309 29.9537 16.1877 29.949 16.2445C29.9461 16.2768 29.9437 16.309 29.9408 16.3406C29.9385 16.3723 29.9355 16.4045 29.932 16.4367C29.9262 16.5006 29.9197 16.5645 29.9127 16.6277C29.9074 16.677 29.9021 16.7262 29.8963 16.7748C29.8863 16.8639 29.8752 16.9523 29.8629 17.0414C29.8547 17.1023 29.8465 17.1633 29.8371 17.2236C29.8283 17.2846 29.8189 17.3455 29.809 17.4059C29.8031 17.4428 29.7973 17.4791 29.7908 17.516C29.7838 17.56 29.7756 17.6039 29.768 17.6473C29.7182 17.9332 29.659 18.2174 29.5922 18.4986C29.5846 18.5297 29.577 18.5613 29.5693 18.5924C29.5582 18.6398 29.5459 18.6873 29.5336 18.7342C29.5307 18.7488 29.5266 18.7635 29.5225 18.7781C29.5078 18.8361 29.4926 18.8936 29.4768 18.951C29.4744 18.9615 29.4715 18.9721 29.4686 18.9826C29.4492 19.0535 29.4293 19.1244 29.4088 19.1947C29.3936 19.2463 29.3783 19.2979 29.3625 19.3494C29.3461 19.4039 29.3297 19.4584 29.3121 19.5129C29.2611 19.6764 29.2072 19.8393 29.1498 20.0004C29.1352 20.0432 29.1199 20.0859 29.1041 20.1281C29.015 20.3742 28.9195 20.6186 28.8164 20.8594C28.7941 20.9139 28.7707 20.9678 28.7467 21.0217C28.7268 21.0668 28.7074 21.1113 28.6869 21.1564C28.6494 21.2396 28.6107 21.3223 28.5721 21.4049C28.5246 21.5063 28.4754 21.6064 28.425 21.7066C28.3928 21.7717 28.36 21.8361 28.3266 21.9006C28.2252 22.0957 28.1197 22.2891 28.009 22.4801C27.9727 22.5428 27.9357 22.6055 27.8988 22.6676C27.8613 22.7303 27.8238 22.7924 27.7857 22.8545C27.74 22.9283 27.6938 23.0016 27.6475 23.0742C27.6393 23.0877 27.6305 23.1006 27.6223 23.1135C27.5994 23.1498 27.576 23.185 27.552 23.2207C27.5508 23.2236 27.5484 23.2266 27.5467 23.2295C27.5449 23.2324 27.5432 23.2348 27.5414 23.2371C27.5039 23.2945 27.4658 23.352 27.4266 23.4088C27.3668 23.4967 27.3059 23.5846 27.2443 23.6707C27.242 23.6742 27.2402 23.6771 27.2379 23.6795C27.2098 23.7193 27.1811 23.7586 27.1523 23.7984C27.0967 23.8752 27.0398 23.952 26.9818 24.0281C26.9473 24.0744 26.9121 24.1201 26.877 24.1652C26.8418 24.2109 26.8066 24.2555 26.7709 24.3006C26.7457 24.3322 26.7205 24.3639 26.6953 24.3955C26.635 24.4705 26.5734 24.5449 26.5113 24.6187C26.4709 24.6674 26.4299 24.716 26.3883 24.7641C26.3812 24.7723 26.3742 24.7805 26.3672 24.7887C26.298 24.8689 26.2277 24.948 26.1568 25.0271C26.0818 25.1098 26.0068 25.1918 25.9295 25.2732C25.8902 25.3154 25.8504 25.3576 25.81 25.3992C25.7432 25.4689 25.6752 25.5381 25.6066 25.6066C25.3131 25.9002 25.0096 26.1803 24.6967 26.4457C24.6498 26.4855 24.6029 26.5248 24.5555 26.5641C24.5156 26.5975 24.4752 26.6309 24.4342 26.6637C24.3855 26.7035 24.3363 26.7428 24.2871 26.7814L24.1887 26.8588C24.1066 26.9232 24.024 26.9859 23.9402 27.048C23.8564 27.1102 23.7727 27.1717 23.6877 27.232C23.5523 27.3293 23.4152 27.4236 23.277 27.515C23.2248 27.5496 23.1727 27.5842 23.1199 27.6182C22.9875 27.7037 22.8539 27.7875 22.7186 27.8684C22.6594 27.9041 22.6002 27.9393 22.5404 27.9744C22.3963 28.0582 22.251 28.1402 22.1033 28.2188C22.0535 28.2457 22.0031 28.2727 21.9527 28.299C21.8877 28.333 21.8227 28.3664 21.7576 28.3992C21.6187 28.4701 21.4787 28.5381 21.3375 28.6037C21.2684 28.6359 21.1992 28.6676 21.1295 28.6992C21.1271 28.7004 21.1248 28.7016 21.1225 28.7021C21.0521 28.7338 20.9818 28.7643 20.9115 28.7947C20.9074 28.7965 20.9033 28.7982 20.8998 28.7994C20.8418 28.824 20.7838 28.8486 20.7252 28.8727C20.6672 28.8967 20.6086 28.9201 20.55 28.9436C20.4914 28.967 20.4322 28.9898 20.3736 29.0127C20.3145 29.0355 20.2559 29.0572 20.1967 29.0789C20.1375 29.1012 20.0777 29.1223 20.0186 29.1434C19.9887 29.1545 19.9588 29.165 19.9289 29.175C19.899 29.1855 19.8691 29.1955 19.8393 29.2055C19.7795 29.226 19.7197 29.2459 19.66 29.2652C19.6055 29.2834 19.551 29.301 19.4959 29.318C19.4133 29.3438 19.3295 29.3689 19.2463 29.3936C19.2029 29.4064 19.159 29.4188 19.1156 29.4311C19.0664 29.4457 19.0166 29.4592 18.9674 29.4727C18.9662 29.4727 18.9656 29.4732 18.9645 29.4732C18.9234 29.4844 18.883 29.4955 18.842 29.5061C18.8109 29.5143 18.7799 29.5225 18.7488 29.5301C18.6967 29.5436 18.6445 29.557 18.5918 29.5693C18.4383 29.6074 18.2842 29.6426 18.1289 29.6748C18.0797 29.6854 18.0311 29.6953 17.9813 29.7053C17.9561 29.7105 17.9303 29.7152 17.9045 29.7199C17.8975 29.7223 17.8904 29.7234 17.8834 29.724C17.8512 29.7311 17.8189 29.7369 17.7861 29.7428C17.7738 29.7457 17.7615 29.748 17.7492 29.7498C17.7164 29.7563 17.683 29.7621 17.6496 29.768C17.6437 29.7691 17.6379 29.7703 17.632 29.7709C17.5998 29.7768 17.567 29.7826 17.5348 29.7879C17.492 29.7955 17.4492 29.8025 17.4059 29.809C17.349 29.8184 17.2916 29.8271 17.2342 29.8354C17.2078 29.8395 17.1814 29.8436 17.1551 29.8471C17.117 29.8529 17.0795 29.8582 17.0414 29.8629C16.9857 29.8705 16.9307 29.8781 16.875 29.8846C16.8117 29.8922 16.7479 29.8998 16.684 29.9068C16.6195 29.9145 16.5545 29.9209 16.49 29.9273C16.367 29.9391 16.2434 29.9496 16.1197 29.959C16.0523 29.9643 15.9844 29.9684 15.9164 29.9725C15.907 29.973 15.8982 29.9736 15.8895 29.9736C15.8227 29.9777 15.7553 29.9813 15.6879 29.9842C15.6258 29.9871 15.5637 29.9895 15.5016 29.9912C15.4986 29.9918 15.4951 29.9918 15.4922 29.9918C15.474 29.993 15.4559 29.993 15.4377 29.9936C15.433 29.9941 15.4283 29.9941 15.4236 29.9936C15.3756 29.9953 15.327 29.9965 15.2783 29.9971C15.1857 29.9994 15.0932 30 15 30V0C15.0727 0 15.1453 0.000585937 15.2174 0.00175781C15.3785 0.00351562 15.5385 0.00878906 15.6984 0.0164062C15.7289 0.0175781 15.7588 0.01875 15.7887 0.0205078C15.8186 0.0216797 15.849 0.0234375 15.8789 0.0257812C16.0055 0.0322266 16.132 0.0410156 16.258 0.0521484C16.3072 0.0556641 16.3564 0.0597656 16.4051 0.0650391C16.4057 0.0644531 16.4062 0.0644531 16.4074 0.0650391C16.5475 0.0779297 16.6869 0.0925781 16.8264 0.10957C16.8703 0.114844 16.9143 0.120117 16.9576 0.125977C17.2793 0.167578 17.598 0.219141 17.9145 0.281836C17.9455 0.287695 17.976 0.293555 18.007 0.3C18.048 0.308203 18.0885 0.316406 18.1289 0.325195C18.1875 0.3375 18.2455 0.349805 18.3035 0.362695C18.3469 0.372656 18.3896 0.382031 18.4324 0.392578C18.484 0.404297 18.5344 0.416602 18.5854 0.428906C18.6305 0.440039 18.6756 0.451172 18.7201 0.462305C19.0564 0.547852 19.3893 0.644531 19.718 0.753516C19.7689 0.770508 19.8199 0.7875 19.8709 0.805078C19.9488 0.831445 20.0262 0.858398 20.1035 0.886523C20.1475 0.902344 20.1908 0.918164 20.2342 0.93457C20.291 0.955664 20.3479 0.977344 20.4047 0.999023C20.4615 1.0207 20.5184 1.04297 20.5746 1.06582C20.799 1.15547 21.0217 1.25098 21.242 1.35176C21.2824 1.36992 21.3229 1.38867 21.3633 1.40801C21.4037 1.42676 21.4436 1.44609 21.484 1.46543C21.5244 1.48477 21.5643 1.5041 21.6041 1.52402C21.6445 1.54336 21.6844 1.56328 21.7242 1.58379C21.8924 1.66758 22.0582 1.75488 22.2223 1.8457C22.2516 1.86152 22.2803 1.87734 22.309 1.89375C22.3723 1.92891 22.4344 1.96406 22.4965 2.00039C22.5527 2.03262 22.6084 2.06543 22.6641 2.09883C22.7279 2.13691 22.7912 2.175 22.8545 2.21426C22.8691 2.22305 22.8844 2.23242 22.8984 2.2418C22.9535 2.27578 23.0086 2.31094 23.0637 2.34609C23.1246 2.38477 23.185 2.42402 23.2453 2.46387C23.3508 2.53359 23.4551 2.60391 23.5582 2.67656C23.615 2.71582 23.6707 2.75508 23.7264 2.79551C23.7609 2.82012 23.7943 2.84473 23.8283 2.86875C23.8453 2.88164 23.8623 2.89395 23.8793 2.90625C23.9139 2.93145 23.9479 2.95723 23.9818 2.98301C24.01 3.0041 24.0381 3.0252 24.0662 3.04688C24.1102 3.07969 24.1535 3.11367 24.1969 3.14707C24.2379 3.1793 24.2789 3.21152 24.3193 3.24375C24.3691 3.28301 24.4184 3.32285 24.4676 3.36328C24.5168 3.40371 24.566 3.44414 24.6146 3.48516C24.6562 3.51973 24.6979 3.5543 24.7383 3.59004C24.8016 3.64336 24.8637 3.69785 24.9258 3.75293C24.9838 3.80449 25.0418 3.85605 25.0992 3.90879C25.1514 3.95625 25.2035 4.0043 25.2551 4.05293C25.2984 4.09336 25.3412 4.13379 25.3834 4.1748C25.4115 4.20176 25.4396 4.22871 25.4672 4.25625C25.5141 4.30137 25.5604 4.34707 25.6066 4.39336C25.6711 4.45781 25.735 4.52285 25.7977 4.58848C25.8381 4.62949 25.8773 4.67109 25.9166 4.7127L25.9219 4.71797C25.95 4.74785 25.9775 4.77773 26.0051 4.80703C26.2002 5.01738 26.3883 5.23184 26.5699 5.45156C26.5904 5.47617 26.6104 5.50078 26.6303 5.5248C26.7088 5.6209 26.7861 5.71758 26.8617 5.81484C26.9238 5.89453 26.9854 5.9748 27.0457 6.05625C27.0621 6.07793 27.0785 6.09961 27.0943 6.12188C27.1318 6.17227 27.1687 6.22324 27.2051 6.27422C27.249 6.33516 27.2924 6.39609 27.3352 6.4582C27.4002 6.55137 27.4629 6.64453 27.5256 6.73887C27.6475 6.92285 27.7652 7.10918 27.8783 7.29785C27.9105 7.35117 27.9422 7.40508 27.9744 7.45957C28.0102 7.52051 28.0453 7.58203 28.0799 7.64414C28.098 7.6752 28.115 7.70625 28.132 7.73789C28.1988 7.85742 28.2639 7.97812 28.3266 8.09941C28.3541 8.15273 28.3816 8.20547 28.408 8.25879C28.4537 8.34902 28.4988 8.43984 28.5422 8.53184C28.5615 8.57168 28.5803 8.61211 28.599 8.65195C28.6055 8.66602 28.6125 8.67949 28.6184 8.69355C28.6359 8.73164 28.6535 8.76914 28.6705 8.80723C28.6922 8.85469 28.7133 8.90215 28.7344 8.9502C28.7584 9.00352 28.7818 9.05742 28.8047 9.11133C28.8252 9.15996 28.8457 9.20801 28.8656 9.25664C28.8891 9.31289 28.9119 9.36914 28.9342 9.42539C29.0004 9.58945 29.0631 9.75527 29.1223 9.92168C29.1434 9.97969 29.1639 10.0377 29.1838 10.0963C29.3256 10.507 29.4492 10.9242 29.5547 11.3473C29.5699 11.4105 29.5852 11.4738 29.6004 11.5371C29.6268 11.6479 29.6514 11.7592 29.6748 11.8711C29.6877 11.9309 29.7 11.9906 29.7117 12.051C29.724 12.1107 29.7352 12.1711 29.7463 12.2314C29.7568 12.2859 29.7668 12.341 29.7762 12.3961C29.7984 12.5221 29.8184 12.6492 29.8371 12.7764C29.8465 12.8367 29.8547 12.8977 29.8629 12.9586C29.8717 13.0195 29.8793 13.0811 29.8869 13.142C29.9074 13.3119 29.9256 13.4824 29.9408 13.6535C29.9537 13.8029 29.9648 13.9523 29.9736 14.1018C29.9748 14.1246 29.9766 14.1469 29.9771 14.1691C29.9795 14.2066 29.9812 14.2447 29.983 14.2822C29.9941 14.5207 30 14.7598 30 15Z" fill="#E1E1E4"/>
<path d="M29.983 14.2822C29.9812 14.2447 29.9795 14.2066 29.9771 14.1691C29.9766 14.1469 29.9748 14.1246 29.9736 14.1018C29.9648 13.9523 29.9537 13.8029 29.9408 13.6535C29.9256 13.4824 29.9074 13.3119 29.8869 13.142C29.8793 13.0811 29.8717 13.0195 29.8629 12.9586C29.8547 12.8977 29.8465 12.8367 29.8371 12.7764C29.8184 12.6492 29.7984 12.5221 29.7762 12.3961C29.7668 12.341 29.7568 12.2859 29.7463 12.2314C29.7352 12.1711 29.724 12.1107 29.7117 12.051C29.7 11.9906 29.6877 11.9309 29.6748 11.8711C29.6514 11.7592 29.6268 11.6479 29.6004 11.5371C29.5852 11.4738 29.5699 11.4105 29.5547 11.3473C29.4492 10.9242 29.3256 10.507 29.1838 10.0963C29.1639 10.0377 29.1434 9.97969 29.1223 9.92168C29.0631 9.75527 29.0004 9.58945 28.9342 9.42539C28.9119 9.36914 28.8891 9.31289 28.8656 9.25664C28.8457 9.20801 28.8252 9.15996 28.8047 9.11133C28.7818 9.05742 28.7584 9.00352 28.7344 8.9502C28.7133 8.90215 28.6922 8.85469 28.6705 8.80723C28.6535 8.76914 28.6359 8.73164 28.6184 8.69355C28.6125 8.67949 28.6055 8.66602 28.599 8.65195C28.5803 8.61211 28.5615 8.57168 28.5422 8.53184C28.4988 8.43984 28.4537 8.34902 28.408 8.25879C28.3816 8.20547 28.3541 8.15273 28.3266 8.09941C28.2639 7.97812 28.1988 7.85742 28.132 7.73789C28.115 7.70625 28.098 7.6752 28.0799 7.64414C28.0453 7.58203 28.0102 7.52051 27.9744 7.45957C27.9422 7.40508 27.9105 7.35117 27.8783 7.29785C27.7652 7.10918 27.6475 6.92285 27.5256 6.73887L23.6461 8.98301C22.9295 7.95586 22.0342 7.06172 21.0059 6.34629L23.2453 2.46387C23.185 2.42402 23.1246 2.38477 23.0637 2.34609C23.0086 2.31094 22.9535 2.27578 22.8984 2.2418C22.8844 2.23242 22.8691 2.22305 22.8545 2.21426C22.7912 2.175 22.7279 2.13691 22.6641 2.09883C22.6084 2.06543 22.5527 2.03262 22.4965 2.00039C22.4344 1.96406 22.3723 1.92891 22.309 1.89375C22.2803 1.87734 22.2516 1.86152 22.2223 1.8457C22.0582 1.75488 21.8924 1.66758 21.7242 1.58379C21.6844 1.56328 21.6445 1.54336 21.6041 1.52402C21.5643 1.5041 21.5244 1.48477 21.484 1.46543C21.4436 1.44609 21.4037 1.42676 21.3633 1.40801C21.3229 1.38867 21.2824 1.36992 21.242 1.35176C21.0217 1.25098 20.799 1.15547 20.5746 1.06582C20.5184 1.04297 20.4615 1.0207 20.4047 0.999023C20.3479 0.977344 20.291 0.955664 20.2342 0.93457C20.1908 0.918164 20.1475 0.902344 20.1035 0.886523C20.0262 0.858398 19.9488 0.831445 19.8709 0.805078C19.8199 0.7875 19.7689 0.770508 19.718 0.753516C19.3893 0.644531 19.0564 0.547852 18.7201 0.462305C18.6756 0.451172 18.6305 0.440039 18.5854 0.428906C18.5344 0.416602 18.484 0.404297 18.4324 0.392578C18.3896 0.382031 18.3469 0.372656 18.3035 0.362695C18.2455 0.349805 18.1875 0.3375 18.1289 0.325195C18.0885 0.316406 18.048 0.308203 18.007 0.3C17.976 0.293555 17.9455 0.287695 17.9145 0.281836C17.598 0.219141 17.2793 0.167578 16.9576 0.125977C16.9143 0.120117 16.8703 0.114844 16.8264 0.10957C16.6869 0.0925781 16.5475 0.0779297 16.4074 0.0650391C16.4062 0.0644531 16.4057 0.0644531 16.4051 0.0650391C16.3564 0.0597656 16.3072 0.0556641 16.258 0.0521484C16.132 0.0410156 16.0055 0.0322266 15.8789 0.0257812C15.849 0.0234375 15.8186 0.0216797 15.7887 0.0205078C15.7588 0.01875 15.7289 0.0175781 15.6984 0.0164062C15.6088 0.0123047 15.5191 0.00878906 15.4289 0.00644531C15.3938 0.00527344 15.3586 0.00410156 15.3234 0.00351562C15.2883 0.00292969 15.2525 0.00234375 15.2174 0.00175781C15.1453 0.000585937 15.0727 0 15 0C14.7059 0 14.4129 0.00820312 14.1211 0.0257812V4.49883C12.8227 4.60664 11.5898 4.95059 10.4666 5.48789L8.2084 1.61777C8.15684 1.64414 8.10586 1.67051 8.05488 1.69746C7.90137 1.77773 7.74961 1.86211 7.59844 1.94766L7.59785 1.94648C7.28965 2.12168 6.9873 2.30801 6.69141 2.50547C6.54727 2.60215 6.40488 2.70117 6.26367 2.80254C5.60449 3.27656 4.97871 3.80801 4.39336 4.39336C3.78398 5.00273 3.2332 5.65605 2.74453 6.34512C2.6373 6.4957 2.53359 6.64805 2.43223 6.80215C2.10996 7.29434 1.81816 7.80293 1.55801 8.32676L5.44863 10.5516C4.92832 11.6637 4.59668 12.8801 4.49531 14.1609L0.0222656 14.1779C0.00761719 14.451 0 14.7246 0 15C0 15.3135 0.009375 15.6252 0.0287109 15.9357C0.0380859 16.0951 0.0503906 16.2539 0.065625 16.4127C0.22207 18.1037 0.660352 19.735 1.35645 21.2525C1.4373 21.4283 1.52109 21.6023 1.60898 21.7746C1.87324 22.2961 2.16914 22.8029 2.49492 23.2928L6.36914 21.0387C7.08867 22.0641 7.98574 22.9559 9.01582 23.6689L6.78633 27.5566C7.27793 27.8801 7.78652 28.173 8.31035 28.4338C8.45801 28.5076 8.60684 28.5791 8.75684 28.6477C10.2814 29.3461 11.9215 29.7838 13.6207 29.9373C13.7994 29.9543 13.9787 29.9672 14.1586 29.9766C14.4375 29.9924 14.7182 30 15 30C15.0932 30 15.1857 29.9994 15.2783 29.9971C15.327 29.9965 15.3756 29.9953 15.4236 29.9936C15.4283 29.9941 15.433 29.9941 15.4377 29.9936C15.4559 29.993 15.474 29.993 15.4922 29.9918C15.4951 29.9918 15.4986 29.9918 15.5016 29.9912C15.5637 29.9895 15.6258 29.9871 15.6879 29.9842C15.7553 29.9813 15.8227 29.9777 15.8895 29.9736C15.8982 29.9736 15.907 29.973 15.9164 29.9725L15.9053 25.4988C17.185 25.3893 18.4002 25.0506 19.5088 24.5232L21.7576 28.3992C21.8227 28.3664 21.8877 28.333 21.9527 28.299C22.0031 28.2727 22.0535 28.2457 22.1033 28.2188C22.251 28.1402 22.3963 28.0582 22.5404 27.9744C22.6002 27.9393 22.6594 27.9041 22.7186 27.8684C22.8539 27.7875 22.9875 27.7037 23.1199 27.6182C23.1727 27.5842 23.2248 27.5496 23.277 27.515C23.4152 27.4236 23.5523 27.3293 23.6877 27.232C23.7727 27.1717 23.8564 27.1102 23.9402 27.048C24.024 26.9859 24.1066 26.9232 24.1887 26.8588L24.2871 26.7814C24.3363 26.7428 24.3855 26.7035 24.4342 26.6637C24.4752 26.6309 24.5156 26.5975 24.5555 26.5641C24.6029 26.5248 24.6498 26.4855 24.6967 26.4457C25.0096 26.1803 25.3131 25.9002 25.6066 25.6066C25.6752 25.5381 25.7432 25.4689 25.81 25.3992C25.8504 25.3576 25.8902 25.3154 25.9295 25.2732C26.0068 25.1918 26.0818 25.1098 26.1568 25.0271C26.2277 24.948 26.298 24.8689 26.3672 24.7887C26.3742 24.7805 26.3812 24.7723 26.3883 24.7641C26.4299 24.716 26.4709 24.6674 26.5113 24.6187C26.5734 24.5449 26.635 24.4705 26.6953 24.3955C26.7205 24.3639 26.7457 24.3322 26.7709 24.3006C26.8066 24.2555 26.8418 24.2109 26.877 24.1652C26.9121 24.1201 26.9473 24.0744 26.9818 24.0281C27.0398 23.952 27.0967 23.8752 27.1523 23.7984C27.1811 23.7586 27.2098 23.7193 27.2379 23.6795C27.2402 23.6771 27.242 23.6742 27.2443 23.6707C27.3059 23.5846 27.3668 23.4967 27.4266 23.4088C27.4658 23.352 27.5039 23.2945 27.5414 23.2371C27.5432 23.2348 27.5449 23.2324 27.5467 23.2295C27.5484 23.2266 27.5508 23.2236 27.552 23.2207C27.576 23.185 27.5994 23.1498 27.6223 23.1135C27.6305 23.1006 27.6393 23.0877 27.6475 23.0742C27.6938 23.0016 27.74 22.9283 27.7857 22.8545C27.8238 22.7924 27.8613 22.7303 27.8988 22.6676C27.9357 22.6055 27.9727 22.5428 28.009 22.4801C28.1197 22.2891 28.2252 22.0957 28.3266 21.9006C28.36 21.8361 28.3928 21.7717 28.425 21.7066L24.5402 19.4725C25.0629 18.3621 25.3975 17.1457 25.5023 15.8654L29.9754 15.8596C29.9795 15.7881 29.983 15.7166 29.9859 15.6451C29.9924 15.5021 29.9965 15.3592 29.9982 15.2156C29.9994 15.1436 30 15.0721 30 15C30 14.7598 29.9941 14.5207 29.983 14.2822ZM15 23.7803C10.1584 23.7803 6.21973 19.8416 6.21973 15C6.21973 10.1584 10.1584 6.21973 15 6.21973C19.8416 6.21973 23.7803 10.1584 23.7803 15C23.7803 19.8416 19.8416 23.7803 15 23.7803Z" fill="#E70020"/>
<path d="M21.2089 21.2089C19.5503 22.8667 17.3452 23.7803 15 23.7803V6.21973C17.3452 6.21973 19.5503 7.13332 21.2089 8.79111C22.8667 10.4497 23.7803 12.6548 23.7803 15C23.7803 17.3452 22.8667 19.5503 21.2089 21.2089Z" fill="#E1E1E4"/>
<path d="M30 15C30 15.0721 29.9994 15.1436 29.9982 15.2156C29.9965 15.3592 29.9924 15.5021 29.9859 15.6451C29.983 15.7166 29.9795 15.7881 29.9754 15.8596L25.5023 15.8654C25.3975 17.1457 25.0629 18.3621 24.5402 19.4725L28.425 21.7066C28.3928 21.7717 28.36 21.8361 28.3266 21.9006C28.2252 22.0957 28.1197 22.2891 28.009 22.4801C27.9727 22.5428 27.9357 22.6055 27.8988 22.6676C27.8613 22.7303 27.8238 22.7924 27.7857 22.8545C27.74 22.9283 27.6938 23.0016 27.6475 23.0742C27.6393 23.0877 27.6305 23.1006 27.6223 23.1135C27.5994 23.1498 27.576 23.185 27.552 23.2207C27.5508 23.2236 27.5484 23.2266 27.5467 23.2295C27.5449 23.2324 27.5432 23.2348 27.5414 23.2371C27.5039 23.2945 27.4658 23.352 27.4266 23.4088C27.3668 23.4967 27.3059 23.5846 27.2443 23.6707C27.242 23.6742 27.2402 23.6771 27.2379 23.6795C27.2098 23.7193 27.1811 23.7586 27.1523 23.7984C27.0967 23.8752 27.0398 23.952 26.9818 24.0281C26.9473 24.0744 26.9121 24.1201 26.877 24.1652C26.8418 24.2109 26.8066 24.2555 26.7709 24.3006C26.7457 24.3322 26.7205 24.3639 26.6953 24.3955C26.635 24.4705 26.5734 24.5449 26.5113 24.6187C26.4709 24.6674 26.4299 24.716 26.3883 24.7641C26.3812 24.7723 26.3742 24.7805 26.3672 24.7887C26.298 24.8689 26.2277 24.948 26.1568 25.0271C26.0818 25.1098 26.0068 25.1918 25.9295 25.2732C25.8902 25.3154 25.8504 25.3576 25.81 25.3992C25.7432 25.4689 25.6752 25.5381 25.6066 25.6066C25.3131 25.9002 25.0096 26.1803 24.6967 26.4457C24.6498 26.4855 24.6029 26.5248 24.5555 26.5641C24.5156 26.5975 24.4752 26.6309 24.4342 26.6637C24.3855 26.7035 24.3363 26.7428 24.2871 26.7814L24.1887 26.8588C24.1066 26.9232 24.024 26.9859 23.9402 27.048C23.8564 27.1102 23.7727 27.1717 23.6877 27.232C23.5523 27.3293 23.4152 27.4236 23.277 27.515C23.2248 27.5496 23.1727 27.5842 23.1199 27.6182C22.9875 27.7037 22.8539 27.7875 22.7186 27.8684C22.6594 27.9041 22.6002 27.9393 22.5404 27.9744C22.3963 28.0582 22.251 28.1402 22.1033 28.2188C22.0535 28.2457 22.0031 28.2727 21.9527 28.299C21.8877 28.333 21.8227 28.3664 21.7576 28.3992L19.5088 24.5232C18.4002 25.0506 17.185 25.3893 15.9053 25.4988L15.9164 29.9725C15.907 29.973 15.8982 29.9736 15.8895 29.9736C15.8227 29.9777 15.7553 29.9813 15.6879 29.9842C15.6258 29.9871 15.5637 29.9895 15.5016 29.9912C15.4986 29.9918 15.4951 29.9918 15.4922 29.9918C15.474 29.993 15.4559 29.993 15.4377 29.9936C15.433 29.9941 15.4283 29.9941 15.4236 29.9936C15.3756 29.9953 15.327 29.9965 15.2783 29.9971C15.1857 29.9994 15.0932 30 15 30V23.7803C19.8416 23.7803 23.7803 19.8416 23.7803 15C23.7803 10.1584 19.8416 6.21973 15 6.21973V0C15.0727 0 15.1453 0.000585937 15.2174 0.00175781C15.2525 0.00234375 15.2883 0.00292969 15.3234 0.00351562C15.3586 0.00410156 15.3938 0.00527344 15.4289 0.00644531C15.5191 0.00878906 15.6088 0.0123047 15.6984 0.0164062C15.7289 0.0175781 15.7588 0.01875 15.7887 0.0205078C15.8186 0.0216797 15.849 0.0234375 15.8789 0.0257812C16.0055 0.0322266 16.132 0.0410156 16.258 0.0521484C16.3072 0.0556641 16.3564 0.0597656 16.4051 0.0650391C16.4057 0.0644531 16.4062 0.0644531 16.4074 0.0650391C16.5475 0.0779297 16.6869 0.0925781 16.8264 0.10957C16.8703 0.114844 16.9143 0.120117 16.9576 0.125977C17.2793 0.167578 17.598 0.219141 17.9145 0.281836C17.9455 0.287695 17.976 0.293555 18.007 0.3C18.048 0.308203 18.0885 0.316406 18.1289 0.325195C18.1875 0.3375 18.2455 0.349805 18.3035 0.362695C18.3469 0.372656 18.3896 0.382031 18.4324 0.392578C18.484 0.404297 18.5344 0.416602 18.5854 0.428906C18.6305 0.440039 18.6756 0.451172 18.7201 0.462305C19.0564 0.547852 19.3893 0.644531 19.718 0.753516C19.7689 0.770508 19.8199 0.7875 19.8709 0.805078C19.9488 0.831445 20.0262 0.858398 20.1035 0.886523C20.1475 0.902344 20.1908 0.918164 20.2342 0.93457C20.291 0.955664 20.3479 0.977344 20.4047 0.999023C20.4615 1.0207 20.5184 1.04297 20.5746 1.06582C20.799 1.15547 21.0217 1.25098 21.242 1.35176C21.2824 1.36992 21.3229 1.38867 21.3633 1.40801C21.4037 1.42676 21.4436 1.44609 21.484 1.46543C21.5244 1.48477 21.5643 1.5041 21.6041 1.52402C21.6445 1.54336 21.6844 1.56328 21.7242 1.58379C21.8924 1.66758 22.0582 1.75488 22.2223 1.8457C22.2516 1.86152 22.2803 1.87734 22.309 1.89375C22.3723 1.92891 22.4344 1.96406 22.4965 2.00039C22.5527 2.03262 22.6084 2.06543 22.6641 2.09883C22.7279 2.13691 22.7912 2.175 22.8545 2.21426C22.8691 2.22305 22.8844 2.23242 22.8984 2.2418C22.9535 2.27578 23.0086 2.31094 23.0637 2.34609C23.1246 2.38477 23.185 2.42402 23.2453 2.46387L21.0059 6.34629C22.0342 7.06172 22.9295 7.95586 23.6461 8.98301L27.5256 6.73887C27.6475 6.92285 27.7652 7.10918 27.8783 7.29785C27.9105 7.35117 27.9422 7.40508 27.9744 7.45957C28.0102 7.52051 28.0453 7.58203 28.0799 7.64414C28.098 7.6752 28.115 7.70625 28.132 7.73789C28.1988 7.85742 28.2639 7.97812 28.3266 8.09941C28.3541 8.15273 28.3816 8.20547 28.408 8.25879C28.4537 8.34902 28.4988 8.43984 28.5422 8.53184C28.5615 8.57168 28.5803 8.61211 28.599 8.65195C28.6055 8.66602 28.6125 8.67949 28.6184 8.69355C28.6359 8.73164 28.6535 8.76914 28.6705 8.80723C28.6922 8.85469 28.7133 8.90215 28.7344 8.9502C28.7584 9.00352 28.7818 9.05742 28.8047 9.11133C28.8252 9.15996 28.8457 9.20801 28.8656 9.25664C28.8891 9.31289 28.9119 9.36914 28.9342 9.42539C29.0004 9.58945 29.0631 9.75527 29.1223 9.92168C29.1434 9.97969 29.1639 10.0377 29.1838 10.0963C29.3256 10.507 29.4492 10.9242 29.5547 11.3473C29.5699 11.4105 29.5852 11.4738 29.6004 11.5371C29.6268 11.6479 29.6514 11.7592 29.6748 11.8711C29.6877 11.9309 29.7 11.9906 29.7117 12.051C29.724 12.1107 29.7352 12.1711 29.7463 12.2314C29.7568 12.2859 29.7668 12.341 29.7762 12.3961C29.7984 12.5221 29.8184 12.6492 29.8371 12.7764C29.8465 12.8367 29.8547 12.8977 29.8629 12.9586C29.8717 13.0195 29.8793 13.0811 29.8869 13.142C29.9074 13.3119 29.9256 13.4824 29.9408 13.6535C29.9537 13.8029 29.9648 13.9523 29.9736 14.1018C29.9748 14.1246 29.9766 14.1469 29.9771 14.1691C29.9795 14.2066 29.9812 14.2447 29.983 14.2822C29.9941 14.5207 30 14.7598 30 15Z" fill="#990013"/>
<path d="M19.2028 16.6954C18.5433 17.7726 17.6238 18.0046 16.9687 18.0096C16.6282 18.0122 16.2874 17.9527 15.963 17.8359C16.0342 18.1303 16.1256 18.2905 16.2026 18.3445L16.3229 18.4292V19.2188H13.6777V18.4291L13.798 18.3445C13.875 18.2905 13.9664 18.1302 14.0376 17.8358C13.7132 17.9526 13.3725 18.0121 13.0319 18.0095C12.3768 18.0046 11.4574 17.7725 10.7978 16.6954C10.2661 15.8269 10.2521 14.797 10.7592 13.8698C11.1505 13.1541 11.7568 12.5837 12.3431 12.032C12.4463 11.9351 12.5436 11.8434 12.6405 11.7504C13.0039 11.4015 13.3718 11.0651 13.7273 10.74C14.0805 10.4171 14.4457 10.0832 14.8039 9.73916L15.0003 9.55078L15.1966 9.73916C15.5549 10.0832 15.9201 10.4171 16.2732 10.74C16.6288 11.0652 16.9967 11.4015 17.36 11.7504C17.4569 11.8434 17.5543 11.935 17.6574 12.032C18.2437 12.5837 18.8501 13.1541 19.2413 13.8698C19.7485 14.797 19.7345 15.827 19.2028 16.6954Z" fill="#3C3A41"/>
<path d="M19.2025 16.6954C18.5429 17.7726 17.6235 18.0046 16.9684 18.0096C16.6279 18.0122 16.2871 17.9527 15.9626 17.8359C16.0339 18.1303 16.1253 18.2905 16.2022 18.3445L16.3226 18.4292V19.2188H15V9.55078L15.1963 9.73916C15.5545 10.0832 15.9197 10.4171 16.2729 10.74C16.6285 11.0652 16.9963 11.4015 17.3597 11.7504C17.4566 11.8434 17.5539 11.935 17.6571 12.032C18.2434 12.5837 18.8497 13.1541 19.241 13.8698C19.7482 14.797 19.7342 15.827 19.2025 16.6954Z" fill="#17171A"/>
</svg>
