<svg width="30" height="30" viewBox="0 0 30 30" fill="none" xmlns="http://www.w3.org/2000/svg">
<path d="M12.717 6.89044H8.97205C8.48155 6.89044 8.08398 7.28824 8.08398 7.7785V25.4161C8.08398 28.0684 10.3366 30.0922 12.752 29.9967C13.2286 29.978 13.6051 29.5861 13.6051 29.1094V7.7785C13.6051 7.28801 13.2075 6.89044 12.717 6.89044Z" fill="#009959"/>
<path d="M11.9929 0.375223L3.86968 11.2272C3.43961 11.8017 3.82756 12.6474 4.60622 12.6474H13.6049V0.889978C13.6049 0.0465485 12.5269 -0.338202 11.9929 0.375223Z" fill="#00DD80"/>
<path d="M17.2515 0.00324077C16.7749 0.0220091 16.3984 0.413855 16.3984 0.890615V22.2215C16.3984 22.712 16.796 23.1095 17.2865 23.1095H21.0315C21.522 23.1095 21.9195 22.712 21.9195 22.2215V4.58385C21.9195 1.9318 19.6669 -0.0922029 17.2515 0.00324077Z" fill="#FF4C04"/>
<path d="M25.3972 17.3527H16.3984V29.0852C16.3984 29.984 17.4948 30.3138 17.9974 29.6423L26.1337 18.7729C26.5638 18.1984 26.1758 17.3527 25.3972 17.3527Z" fill="#FF7C48"/>
</svg>
