<?xml version="1.0" encoding="utf-8"?>
<!-- Generator: Adobe Illustrator 27.1.0, SVG Export Plug-In . SVG Version: 6.00 Build 0)  -->
<svg version="1.1" id="Layer_1" xmlns="http://www.w3.org/2000/svg" xmlns:xlink="http://www.w3.org/1999/xlink" x="0px" y="0px"
	 viewBox="0 0 144 144" style="enable-background:new 0 0 144 144;" xml:space="preserve">
<style type="text/css">
	.st0{fill:#FFFFFF;}
	.st1{fill:#1A1A1A;}
</style>
<g>
	<g>
		<path class="st0" d="M62.17,125.69c-3.33-2.61-5.35-5.53-7.63-8.15C37.63,98.12,20.8,78.63,3.94,59.16
			c-0.33-0.38-0.7-0.74-0.98-1.16c-0.49-0.72-1.54-1.33-1.12-2.31c0.43-1,1.59-0.7,2.46-0.7c11.66-0.02,23.32,0.02,34.98-0.05
			c2.21-0.01,3.22,0.85,3.82,2.96c6.12,21.54,12.32,43.06,18.49,64.58C61.82,123.32,61.9,124.2,62.17,125.69z"/>
		<path class="st0" d="M67.03,120.95c-1.43-0.81-1.33-1.97-1.59-2.88c-5.71-19.77-11.39-39.54-17.05-59.32
			c-0.99-3.44-0.77-3.76,2.66-3.77c11.46-0.02,22.92,0.02,34.38-0.03c2.44-0.01,3.64,0.46,2.67,3.33
			c-6.82,20.27-13.54,40.58-20.3,60.87C67.63,119.72,67.35,120.24,67.03,120.95z"/>
		<path class="st0" d="M71.72,124.6c-0.35-1.27,0.22-2.17,0.53-3.1c6.87-20.78,13.84-41.53,20.57-62.35
			c1.07-3.3,2.64-4.34,6.04-4.26c9.73,0.23,19.46,0.06,29.2,0.11c1.14,0.01,2.74-0.59,3.29,0.77c0.45,1.1-0.9,1.92-1.6,2.73
			c-13.93,16.09-27.89,32.17-41.84,48.24c-4.58,5.28-9.17,10.56-13.77,15.83C73.49,123.31,73.07,124.31,71.72,124.6z"/>
		<path class="st0" d="M43.01,9.18c6.59,0,13.19,0.03,19.78-0.02c2.18-0.02,2.78,0.59,1.61,2.65C58.02,23,51.69,34.22,45.37,45.43
			c-0.9,1.59-1.69,1.9-2.77,0.15c-6.97-11.31-13.95-22.61-20.97-33.89c-1.35-2.17-0.44-2.54,1.61-2.53
			C29.83,9.21,36.42,9.18,43.01,9.18z"/>
		<path class="st0" d="M19.56,50.3c-5.58,0-11.16-0.05-16.74,0.03c-2.38,0.03-3.43-0.48-2.44-3.15C4.71,35.58,8.92,23.95,13.2,12.34
			c0.27-0.74,0.37-1.82,1.31-1.87c0.89-0.05,1.21,0.98,1.63,1.64C23.4,23.83,30.67,35.57,37.9,47.32c1.52,2.47,1.26,2.94-1.6,2.96
			C30.72,50.33,25.14,50.3,19.56,50.3z"/>
		<path class="st0" d="M68.52,50.29c-5.57,0-11.15-0.03-16.72,0.02c-2.39,0.02-3.24-0.6-1.87-2.99c6.28-11,12.5-22.03,18.72-33.06
			c1.02-1.81,1.77-1.6,2.61,0.14c5.33,11.04,10.68,22.07,16.05,33.08c0.97,2,0.37,2.81-1.76,2.8C79.87,50.28,74.2,50.29,68.52,50.29
			z"/>
		<path class="st0" d="M115.06,50.29c-5.07,0-10.13-0.03-15.2,0.02c-2.32,0.02-2.96-0.71-1.78-2.88
			c6.4-11.74,12.75-23.51,19.13-35.26c0.33-0.6,0.54-1.53,1.33-1.52c1.01,0.01,1.05,1.07,1.31,1.79
			c4.24,11.61,8.43,23.23,12.72,34.82c0.92,2.48-0.08,3.07-2.31,3.05C125.19,50.26,120.12,50.29,115.06,50.29z"/>
		<path class="st0" d="M93.61,9.18c5.47,0,10.94,0.06,16.41-0.03c2.38-0.04,2.9,0.66,1.74,2.81C105.85,22.81,100,33.69,94.13,44.57
			c-0.93,1.73-1.74,2.15-2.77,0.02c-5.29-10.94-10.62-21.86-15.98-32.77c-1.05-2.13-0.24-2.67,1.82-2.65
			C82.67,9.22,88.14,9.18,93.61,9.18z"/>
	</g>
	<g>
		<g>
			<path class="st0" d="M56.32,138.59c-3.15,0-6.36-1.06-9.8-3.23c-5.05-3.19-7.93-7.67-8.55-13.33
				c-1.38-12.56-1.56-25.39-0.55-39.23c1.05-14.37,13.27-22.95,24.47-22.95c2.41,0,4.75,0.39,6.95,1.16
				c2.26,0.79,4.63,1.19,7.06,1.19c1.41,0,2.88-0.13,4.36-0.4c1.62-0.29,3.25-0.49,4.85-0.6c4.14-0.29,7.82-1.51,11.25-3.73
				c3.4-2.2,7.49-3.37,11.81-3.37c6.17,0,12.44,2.4,16.76,6.42c3.35,3.12,5.73,6.76,7.07,10.82c3.76,11.41,6.75,23.39,8.41,33.75
				c1.68,12.55-2.43,20.69-12.19,24.27c-1.47,0.54-2.99,0.81-4.51,0.81c-2.53,0-5.16-0.75-8.02-2.29c-3.61-1.95-6.65-4.54-9.58-7.04
				c-0.61-0.52-1.22-1.04-1.84-1.56c-0.39-0.33-0.77-0.67-1.14-1.02c-2.53-2.43-4.93-3.56-7.53-3.56c-0.85,0-1.76,0.12-2.69,0.36
				c-2.72,0.71-5.5,0.93-8.18,1.14c-0.52,0.04-1.04,0.08-1.56,0.13c-1.36,0.12-2.37,0.63-3.38,1.7c-1.77,1.88-3.25,4.01-4.81,6.26
				c-0.78,1.13-1.59,2.3-2.45,3.43c-1.06,1.41-2.48,3.25-4.14,4.96C64.54,136.66,60.59,138.59,56.32,138.59z M59.79,91.7
				c2.51,0,4.22,1.73,4.36,4.42c0.05,0.95,0.18,1.95,0.39,2.99c0.22,1.08,0.68,1.08,0.92,1.08c0.07,0,0.15-0.01,0.22-0.02
				c0.55-0.07,0.88-0.11,0.75-1.56c-0.61-6.38,0.39-7.67,6.67-8.61c1.47-0.22,1.43-0.56,1.37-1.06c-0.06-0.53-0.1-0.89-1.2-0.89
				c-0.15,0-0.3,0.01-0.46,0.02c-1.2,0.12-2.14,0.21-2.95,0.21c-4.5,0-5-3.2-5.58-6.9c-0.21-1.37-0.7-1.37-0.91-1.37
				c-0.04,0-0.09,0-0.13,0.01c-0.92,0.08-0.9,1.34-0.88,1.59c0.06,0.97,0.18,1.99,0.37,3.12c0.29,1.71-0.24,2.84-0.74,3.48
				c-0.73,0.94-1.82,1.48-3.25,1.61c-1.37,0.12-2.39,0.25-3.31,0.43c-0.7,0.14-1.16,0.71-1.1,1.14c0.04,0.25,0.11,0.77,1.1,0.77
				c0.08,0,0.15,0,0.23-0.01c1.22-0.1,2.15-0.21,2.99-0.36C59.05,91.73,59.42,91.7,59.79,91.7z M106.44,89.98
				c-0.11,0-0.22,0.01-0.34,0.02c-0.75,0.08-1.39,0.43-1.81,0.96c-0.29,0.37-0.61,1-0.49,1.92c0.17,1.3,1.2,2.21,2.51,2.21
				c0.12,0,0.23-0.01,0.35-0.02c0.78-0.1,1.45-0.47,1.9-1.05c0.41-0.53,0.58-1.18,0.5-1.84C108.88,90.91,107.78,89.98,106.44,89.98z
				 M113.87,73.73c-0.11,0-0.23,0.01-0.34,0.02c-1.41,0.19-2.36,1.45-2.19,2.93c0.15,1.38,1.19,2.35,2.51,2.35h0
				c0.12,0,0.24-0.01,0.36-0.02c1.42-0.18,2.37-1.42,2.2-2.88C116.25,74.74,115.18,73.73,113.87,73.73z"/>
			<path class="st1" d="M108.16,56.87c5.53,0,11.07,2.14,14.88,5.68c2.9,2.69,5.08,5.89,6.32,9.66c3.8,11.51,6.69,23.25,8.31,33.32
				c1.53,11.49-2.2,18.22-10.41,21.23c-1.22,0.45-2.41,0.64-3.56,0.64c-2.33,0-4.55-0.8-6.71-1.96c-4.07-2.2-7.44-5.35-10.96-8.29
				c-0.34-0.29-0.68-0.58-1-0.89c-2.79-2.67-5.82-4.33-9.45-4.33c-1.07,0-2.2,0.15-3.38,0.45c-3,0.78-6.17,0.92-9.28,1.2
				c-2.1,0.18-3.73,1.05-5.16,2.56c-2.86,3.03-4.97,6.62-7.45,9.93c-1.23,1.64-2.5,3.23-3.91,4.69c-3.26,3.37-6.55,5.05-10.06,5.05
				c-2.62,0-5.37-0.93-8.32-2.8c-4.14-2.61-6.72-6.25-7.28-11.3c-1.42-12.9-1.49-25.81-0.54-38.72
				c0.91-12.45,11.54-20.38,21.7-20.38c2.06,0,4.09,0.32,6.03,1c2.62,0.92,5.28,1.35,7.98,1.35c1.6,0,3.22-0.15,4.84-0.44
				c1.5-0.27,3.03-0.46,4.55-0.57c4.55-0.32,8.72-1.68,12.56-4.16C100.96,57.78,104.56,56.87,108.16,56.87 M113.85,81.8
				c0.23,0,0.47-0.01,0.71-0.05c2.94-0.38,4.94-2.97,4.6-5.95c-0.33-2.81-2.61-4.85-5.29-4.85c-0.23,0-0.47,0.02-0.7,0.05
				c-2.91,0.39-4.91,3-4.58,5.98C108.9,79.81,111.14,81.8,113.85,81.8 M55.42,94.94c0.15,0,0.31-0.01,0.46-0.02
				c1.08-0.09,2.16-0.21,3.23-0.39c0.24-0.04,0.47-0.06,0.67-0.06c0.99,0,1.53,0.51,1.59,1.79c0.06,1.14,0.21,2.29,0.44,3.41
				c0.43,2.1,1.8,3.29,3.63,3.29c0.19,0,0.38-0.01,0.57-0.04c2.31-0.29,3.41-1.89,3.15-4.57c-0.47-4.89-0.47-4.89,4.33-5.61
				c2.7-0.4,3.98-1.83,3.71-4.13c-0.25-2.15-1.67-3.33-3.95-3.33c-0.24,0-0.48,0.01-0.74,0.04c-1.14,0.11-2.01,0.2-2.68,0.2
				c-2.13,0-2.27-0.88-2.84-4.55c-0.37-2.36-1.71-3.71-3.65-3.71c-0.12,0-0.24,0.01-0.37,0.02c-2.13,0.18-3.56,2.03-3.41,4.52
				c0.07,1.14,0.21,2.29,0.4,3.42c0.21,1.24-0.31,1.76-1.5,1.86c-1.21,0.11-2.41,0.24-3.6,0.47c-2.14,0.42-3.59,2.33-3.31,4.25
				C51.86,93.72,53.36,94.94,55.42,94.94 M106.31,97.86c0.23,0,0.46-0.01,0.69-0.04c3.06-0.38,5.2-3.04,4.8-6
				c-0.36-2.68-2.65-4.61-5.36-4.61c-0.21,0-0.43,0.01-0.64,0.04c-3.06,0.34-5.14,2.96-4.74,5.99
				C101.4,95.94,103.64,97.86,106.31,97.86 M108.16,51.34L108.16,51.34c-4.86,0-9.47,1.32-13.32,3.81
				c-3.03,1.96-6.28,3.03-9.93,3.29c-1.7,0.12-3.43,0.33-5.15,0.64c-1.32,0.24-2.62,0.36-3.87,0.36c-2.15,0-4.16-0.34-6.15-1.04
				c-2.49-0.87-5.13-1.31-7.86-1.31c-12.47,0-26.06,9.54-27.23,25.51c-1.03,14-0.84,27,0.56,39.73c0.72,6.54,4.03,11.71,9.83,15.37
				c3.9,2.46,7.59,3.66,11.28,3.66c4.99,0,9.72-2.27,14.04-6.74c1.77-1.83,3.26-3.75,4.37-5.22c0.88-1.18,1.71-2.37,2.51-3.52
				c1.5-2.17,2.92-4.21,4.55-5.94c0.61-0.64,1.02-0.79,1.61-0.84c0.51-0.04,1.03-0.09,1.54-0.13c2.8-0.23,5.69-0.46,8.65-1.22
				c0.71-0.18,1.38-0.28,2-0.28c1.26,0,3.03,0.32,5.61,2.79c0.41,0.39,0.83,0.77,1.28,1.14c0.61,0.51,1.21,1.03,1.82,1.54
				c3.05,2.6,6.2,5.29,10.07,7.37c3.28,1.77,6.33,2.63,9.34,2.63c1.85,0,3.69-0.33,5.47-0.98c7.66-2.81,16.31-9.8,13.99-27.16
				l-0.01-0.07l-0.01-0.07c-1.68-10.49-4.71-22.63-8.51-34.18c-1.49-4.51-4.12-8.54-7.81-11.98
				C121.98,54.01,115.01,51.34,108.16,51.34L108.16,51.34z M63.94,90.21c0.08-0.1,0.16-0.19,0.23-0.29
				c0.14-0.19,0.29-0.39,0.43-0.63c0.28,0.24,0.59,0.47,0.93,0.67c-0.19,0.19-0.37,0.4-0.54,0.63c-0.08,0.1-0.15,0.2-0.22,0.31
				C64.51,90.65,64.23,90.41,63.94,90.21L63.94,90.21z M63.68,99.14L63.68,99.14L63.68,99.14z"/>
		</g>
	</g>
</g>
</svg>
