<?xml version="1.0" encoding="utf-8"?>
<!-- Generator: Adobe Illustrator 23.0.0, SVG Export Plug-In . SVG Version: 6.00 Build 0)  -->
<svg version="1.1" id="Layer_1" xmlns="http://www.w3.org/2000/svg" xmlns:xlink="http://www.w3.org/1999/xlink" x="0px" y="0px"
	 viewBox="0 0 2893.6 2880" style="enable-background:new 0 0 2893.6 2880;" xml:space="preserve">
<style type="text/css">
	.st0{fill:#EF233E;}
	.st1{fill:#FEFEFE;}
	.st2{fill:#FCFCFC;}
	.st3{fill:#FDFDFD;}
	.st4{fill:#F9F9F9;}
	.st5{fill:#F6F6F6;}
	.st6{fill:#EDEDED;}
	.st7{fill:#EFEFEF;}
	.st8{fill:#F1F1F1;}
	.st9{fill:#F4F4F4;}
	.st10{fill:#F5F5F5;}
	.st11{fill:#E9E9E9;}
	.st12{fill:#E9EAE9;}
	.st13{fill:#EDECED;}
	.st14{fill:#FFFFFF;}
	.st15{display:none;}
	.st16{display:inline;}
	.st17{display:inline;fill:#830402;}
	.st18{fill:#830402;}
	.st19{font-family:'ArialMT';}
	.st20{font-size:320.7431px;}
	.st21{letter-spacing:14.7;}
	.st22{font-size:308.662px;}
</style>
<g>
	<circle class="st0" cx="1745.6" cy="1706" r="183.6"/>
	<g>
		<path class="st0" d="M1604.1,1861.6c-63.1-52.6-88.9-152.3-53.5-230.8c13.8-30.5,14.2-57,4.4-86.4c-1.4-4.2-3.5-9-5-13.5
			c0,0,0-0.1-0.1-0.1c-0.1-0.1-0.2-0.3-0.3-0.4c0-0.1-0.1-0.1-0.1-0.2c-0.1-0.1-0.2-0.2-0.3-0.3c-0.1-0.1-0.1-0.1-0.2-0.2
			c0,0,0,0-0.1-0.1c0,0-0.1,0-0.1,0c-0.1-0.1-0.2-0.1-0.2-0.1c-0.3-0.1-0.5-0.3-0.8-0.4c-2.6-0.9-7.3-2.4-7.5-2.5
			c-9-2.5-9.4-3-18.9-4.1c-3.2-0.4-7-0.5-10.1-0.5c-61.8,0.2-123.6,0.2-185.4,0.2c-198.4,0-396.8-0.1-595.2,0.1
			c-87.3,0.1-163.4,54.2-178.9,134.3c-13.3,68.7-6.3,139-3.4,208.6c5.6,2.5,11.6,1.3,17.4,1.3c268.6,0.1,537.3,0.1,805.9,0
			c5.8,0,11.8,1,17.4-1.2c10.6,0,21.2,0,31.8,0.1c59.3,2.6,118.7,0.6,178,1.1C1602.2,1866.2,1605.1,1865.6,1604.1,1861.6z"/>
		<path class="st0" d="M2170,1521.9c-1.6,0-3.3,0-4.9,0c-61.8,0-123.6,0.1-185.4-0.2c-3,0-6.9-0.1-10.1-0.1
			c-9.3,0.1-10.4-0.9-19.4,1.6l-6.9,4.5c0,0.1-2.1,3-2.2,3c-1.5,4.5-3.6,9.3-5,13.5c-9.8,29.4-9.4,55.9,4.4,86.4
			c35.4,78.5,9.6,178.2-53.5,230.8c-1,4,1.8,4.6,4.9,4.6c59.3-0.5,118.7,1.5,178-1.1c10.6,0,21.2,0,31.8-0.1
			c5.7,2.2,11.6,1.2,17.4,1.2c16.9,0,33.9,0,50.8,0L2170,1521.9L2170,1521.9z"/>
		<path class="st0" d="M2341.7,1656.3c-15.4-80-91.6-134.2-178.9-134.3c-12.8,0-25.5,0-38.2,0c0,0.5,0,1,0,1.5v342.7
			c67.7,0,135.4,0,203.1,0c5.8,0,11.8,1.2,17.4-1.3C2348,1795.2,2354.9,1725,2341.7,1656.3z"/>
		<path class="st0" d="M1610.2,1561.4c-4.5-14.2-2.3-28.4-3.4-42.6c-0.2-2.7-1.9-6.1-4-7.8c-5.7-4.9-7.5-11.4-8.6-18.1
			c-4.8-30.9-19.6-59.7-17.4-92.4c1.1-16.2-11.8-30.3-16.1-45.9c-9.8-35.5-17.7-71.6-26.5-107.3c-5.8-23.6-24.5-36.1-45.4-31.1
			c-22.2,5.3-33.3,24.8-27.5,48.7c8.5,35,17.1,69.9,25.6,104.9c1,4.1,3.6,9.4,2.1,12.3c-6,11.9,2.2,22.2,2,33.1
			c-0.2,12.9,12.4,18.1,14.7,29.6c4.3,22.3,10.4,44.2,15.9,66.3c1.9,7.6,3.4,14.6-0.7,22.2c-4,7.4-1.2,14.3,5.8,18.9
			c1.7,1.1,3.7,2.2,5.1,3.6c6.3,1.2,12.3,3.1,18.4,4.9c0.1-0.4,0.2-0.7,0.4-1.1c3-6.2,13.6-3.8,20.8-5.3c6.8-1.4,14.6-8.6,19.6-4.2
			c4.5,4,4.3,13.4,6.3,20.4c0.2,0.7,1,1.2,2.6,2.9C1602.9,1568.3,1611.6,1565.8,1610.2,1561.4z"/>
		<path class="st0" d="M1627.4,1829.4c-33-34.5-52.7-74.9-52.3-123.3c0.5-67.7,30.8-119.3,90-151c59.3-31.7,118.8-27.4,175.8,8.7
			c5,3.2,9.8,6.8,15.1,10.5c4.4-21.3,8.6-41.9,13.1-62.4c1-4.8,0.2-6.6-5.3-7.1c-8.9-0.9-18.5-1.5-26.3-5.2
			c-13.3-6.3-15.3,0-16.8,10.8c-1.5,10.9-4.2,21.6-6.4,32.3c-13.9-1.9-17.3-8.8-13.2-21.2c2.9-8.9,4.1-18.4,5.9-27.6
			c0.9-4.6,1.3-8.8-1.9-13.3c-6.3-8.9-3.6-17.4,4.4-23.8c4.8-3.8,6.9-8.3,8-13.9c5.4-27.3,10.9-54.6,16.5-81.9
			c0.4-2.1,2.1-5,1.3-6.1c-11.1-15.5-2.9-32.5,2.7-44.3c22.6-47.2,23.1-99.3,36.9-148.3c5.8-20.5,27.4-32.7,48.6-27.9
			c21,4.7,34.6,25.9,30.1,48.3c-7.7,38.7-15.6,77.3-23.8,115.8c-3.9,18.6,3.7,39.1-6,56c-14.8,25.8-14.7,54.7-21.8,82.1
			c-3.6,13.8-8.2,27.8-3.6,42.6c1.1,3.4,0.7,8.6-1.3,11.2c-16.8,22.5-14.1,50.4-22,75.4c-4.7,14.9-1.9,26.3,8.1,39.5
			c50,66.2,42.3,161.1-16.3,220.1c-3,3-5.9,6.1-8.9,9.2c-1.7,5.1-6.3,7.5-10.2,10.6c-3.7,2.4-7.3,4.8-10.9,7.3
			c-2.8,1.9-5.6,3.7-8.4,5.7c-4,2.8-8.4,4.8-12.9,6.5c-7.2,3.2-14.5,5.9-22.1,8c-34.8,10-69.3,9-103.6-2.2
			c-10.4-3.6-19.8-9.5-29.9-13.7c-5.8-2.3-10.8-5.8-15.7-9.5C1639.3,1840.7,1630.2,1838.1,1627.4,1829.4z"/>
		<path class="st0" d="M1669.1,1440.7c-3.1,26.1-6.8,51.4-8.9,76.9c-1.2,13.9-5.3,23.6-21.8,25.5c3.5-29.4,7.1-58.9,10.6-88.4
			c1.4-11.3,4.4-22.2-4.1-32.8c-5.3-6.6-1.5-14.8,4.1-19.6c7-6,8.2-13.4,9.2-21.6c2.9-25.6,6.3-51.1,9.3-76.6
			c0.9-7.8,3.7-15.6-3.2-23c-5-5.4,0.4-12.3,1.1-18.3c1.5-12.5-1.5-26.4,10.2-36.3c2.1-1.8,2.2-6.3,2.6-9.7
			c5.3-43.4,10.6-86.8,15.8-130.2c3.1-26.2,23.9-44.3,47.9-41.4c26.1,3.1,41.9,25,38.4,52.5c-5.6,43.8-11,87.6-15.9,131.5
			c-1.5,13.6,4.1,26.9,1.1,41.2c-3.9,18.8-12.7,36.2-13.3,56.2c-0.8,23.5-5.4,46.8-8.4,70.2c-0.5,4.3-0.2,8.2,1.7,12.4
			c4.6,10.6,4,20.8-4.2,29.9c-5.7,6.3-3.9,14.7-5.1,22c-2.6,16.9-5,34-5.9,51.1c-0.6,11.1-7.1,11-14.6,10.8
			c-10.5-0.4-3.9-7.7-3.6-11.2c1.5-18.4,3.6-36.7,6.3-54.9c1.1-7.1,0.4-10.1-7.7-9.7C1696.8,1447.7,1683.3,1444.9,1669.1,1440.7z"/>
		<path class="st0" d="M1957.6,1080.7c0.3,18.7-18.8,29.4-35.7,19.9c-7.3-4.1-13.8-10.4-23.1-4.7c-1.3,0.8-3.4,0.2-5.1,0.2
			c-12.7,0.2-14.1-15.8-22.1-17.6c-10.1-2.3-19.6-2.5-24-13.2c-2-4.9-4.4-5.8-9.3-5.6c-11.7,0.5-19-6-20.4-17.1
			c-0.8-6.5-3.5-9.6-8.5-12.8c-15-9.5-19.2-22.3-11.8-34.4c7.6-12.4,20.9-14.5,35.9-5.5c4.8,2.9,8.3,4.7,14.5,1
			c10.8-6.5,22.4-2.2,27.7,9.6c2.3,5.2,4.1,6.4,9.8,6.1c12.2-0.7,15.3,10.5,22.3,17.4c4.9,4.8,22.2-0.3,24,10.9
			c2.4,15.3,9.9,24.4,21.4,32.6C1957.1,1070.3,1957.8,1075.8,1957.6,1080.7z"/>
		<path class="st0" d="M1564.8,1185.8c-6.3-3.6-9.7,2-13.9,5.3c-11.8,9.4-23.2,9.4-31.9-0.2c-8.3-9.1-7.2-21.8,3.5-31.6
			c4.8-4.4,6.9-7.8,5.4-15.1c-2-9.8,3.7-17.1,13.8-20.1c0.4-0.1,0.8-0.2,1.3-0.2c12.4,1.3,8.1-11.7,13.8-16.7
			c5.8-5.1,16.8,1,18.9-11.2c2-11.7,11.9-16,22.6-12.7c6.6,2.1,10,0.4,14.4-3.5c11.9-10.3,24.3-10.4,32.9-1c8.8,9.8,6.9,22.6-5,33.5
			c-4,3.7-9.2,6.5-6.6,13.6c0.7,2-0.8,4.9-1.5,7.4c-3.3,11.1-17.8,7.7-21.3,14.4c-4.4,8.5-7.1,16.5-17.6,17.4
			c-4.8,0.4-6.1,2.1-7.4,6.4C1582.7,1183,1576.9,1186.5,1564.8,1185.8z"/>
		<path class="st1" d="M1550.3,1411.9c6.7,2.2,9.9,6.3,11.4,12.8c6.1,26.7,12.4,53.4,19.6,79.9c2.7,9.9-1.5,14.5-9.1,18
			c-3.5,1.6-7.3,2.5-11.1,3.2c-17.8,3.2-19.5,2-23.7-15.1c-5.5-22.5-10.6-45.1-16.5-67.4c-1.9-7.3-2.6-11.7,6.5-13.9
			c5.9-1.4,11.8-4.8,15.1-12c-7.7-0.2-14.3,4.8-22.5,1.5c5.8-5.3,14.2-7.3,17.1-16.2c-7.7,2.5-14.9,6.2-24.8,2.6
			c9.5-4.7,17.9-7.9,22.7-16.2c-3.5-1.8-5.6,1.1-8.2,1.8c-13.8,3.8-18.2,1.4-21.7-12.6c-9.5-38.7-19.1-77.4-28.5-116.1
			c-3.9-15.9,1.5-27.2,14.6-30.7c13.3-3.6,23.6,3.7,27.6,19.6c9.8,39.9,19.6,79.9,29.3,119.9c0.8,3.4,5.5,8.1-1.8,10.4
			c-0.5,0.2-0.8,1.1-1.2,1.6c10,3.3,1.4,14.5,8.3,19.2C1560.6,1407.1,1554.2,1409.1,1550.3,1411.9z"/>
		<path class="st1" d="M1891.4,1353.7c8.4,6.6,7.2,13.6,5.7,20.9c-5.8,27.7-12.1,55.3-16.9,83.1c-2.1,12.4-8.5,15.7-19.3,14.7
			c-3.4-0.3-6.9-0.7-10.2-1.5c-18.5-4.8-20.3-7.8-16.4-26.3c5-23.9,10.1-47.8,14.6-71.8c1.6-8.7,3.6-14.1,14.3-11.9
			c7.1,1.4,14.3-0.4,22.9-5.7c-10.3-2-20-0.8-27.1-9.1c9.3-0.7,18,0.4,25.8-7.6c-10,0.3-18.1-0.8-26.2-8.3
			c11.5-0.4,21.9,1.4,30.9-6.9c-4.9-0.4-8.7-0.4-12.3-1.1c-13.1-2.5-16-7.1-13.3-20.2c8.7-42.8,17.5-85.6,26.2-128.4
			c3.3-16.3,14.9-25.9,28.3-23.2c14.1,2.8,21.4,14.9,18,31.6c-8.8,44.1-17.9,88.2-27.2,132.2c-0.7,3.1,1.6,9.9-6.2,8.3
			c-0.7-0.1-1.5,0.4-2.2,0.7c8.3,7.6-4.1,14.7-0.6,22.2C1903.2,1352.3,1899.3,1354,1891.4,1353.7z"/>
		<path class="st2" d="M1733.8,1841.9c5.8-8,11.2-16.2,14.9-25.4c2.3-5.8,4.6-11.7-2.5-15.7c-6.2-3.4-0.8-6.6,0.2-9.5
			c2.1-6.5,6.1-12.8-1.4-18.5c-2.6-2-1.6-4.5-1-7c1.7-7.5,4.8-15.6-6.4-18.8c-0.6-0.2-1.6-1.3-1.5-1.6c5.4-11.4-8.7-19.7-4.8-31
			c1.4-4.2,0.2-8.7-4.5-10.9c-3.4-1.6-3.9-4.1-3.5-7.3c0.9-6.9,0-12.9-8.2-15.1c-0.9-0.2-2.2-2.1-2-2.8c2.9-13.4-14.5-18.4-13-31.2
			c0.1-0.7-0.6-2.1-1.1-2.2c-11.7-1.8-15-12.9-21.8-20c-8.3-8.8-10.7-20.9-16.8-31c-2.2-3.6,6-5.9,9.4-8.9
			c10.1-8.7,18.7-7.2,28.6,1.7c33,29.5,52.4,67.4,67.6,107.8c13.9,37.1,23.2,75.4,24.8,115.2c0.3,7.7-0.5,15.4-1,23.1
			c-0.2,3-0.6,5.9-3.2,8.1C1778.4,1847.5,1742.9,1848.3,1733.8,1841.9z"/>
		<path class="st2" d="M1707.3,1567.8c7.8-1.3,14.7-2.8,21.8-3.6c7-0.8,14.7-5.1,16.9,8.1c1.5,8.7,13.9,3.9,20,9.2
			c-4.4,8.5-3.4,15,8.1,16.6c4.1,0.6,7.3,1.5,7,7c-0.2,4.3,3.1,6.9,7,8.2c4.3,1.4,7,3.1,4,8.1c-0.6,1-0.8,3.1-0.2,3.7
			c7.8,7.4,11.7,16.9,16.6,26.3c5.5,10.5,11,22.3,18.3,30.6c8.6,9.9,6.4,21.7,11.5,31.9c6.5,13.1,14.6,32.2,8,44.8
			c-5.9,11.2-6.4,21-7.2,31.8c-0.4,5-3.6,10.8,3.3,14.9c3.3,2-0.5,4.4-2.1,5.8c-9,7.8-18.3,15.2-28.8,19.5
			C1804.8,1732.4,1781.4,1641.3,1707.3,1567.8z"/>
		<path class="st2" d="M1676.4,1808c13.4,3.9,26.8,7.9,40.2,11.9c0.4-0.6,0.7-1.3,1.1-1.9c-24.1-17.8-48.3-35.6-72.4-53.4
			c0.3-0.6,0.6-1.1,0.9-1.7c21.6,6.3,43.3,12.6,64.9,18.9c0.4-0.7,0.8-1.4,1.2-2.1c-23.3-18-46.6-36-69.9-54
			c0.3-0.8,0.6-1.5,0.9-2.3c15.7,3.8,31.3,7.6,47,11.4c0.2-0.6,0.5-1.1,0.7-1.7c-19.4-14.6-38.8-29.1-58.2-43.7
			c0.3-0.7,0.6-1.3,0.8-1.9c17.8,3.7,35.6,7.4,53.4,11.1c0.3-0.6,0.7-1.2,1.1-1.8c-19-12.7-38-25.5-59.2-39.7
			c17.8,1.2,30.5,11.1,47.3,15.4c-11.6-13.5-21.9-25.5-31.9-37.3c13.7-2.9,22.5,3.6,30.5,17c6.9,11.5,9.5,25.4,21.3,34.6
			c4.4,3.4-1.1,14.6,7.8,18.4c-4.4,11,3.5,20.9,7,28.9c5,11.5-0.1,26.5,12,34.9c3.1,2.1,2.1,4,0.9,6.4c-2.1,4.6-2.6,9.3,1.8,12.9
			c4.3,3.5,0.7,6.3-0.9,8.8c-6,9.4-2.9,14.9,7.4,17.4c-3.3,7.3-8.8,13.2-10.3,21.6c-15.6-9-30.7-17.7-45.8-26.4
			C1676.1,1809.2,1676.3,1808.6,1676.4,1808z"/>
		<path class="st3" d="M1854.6,1796.9c-0.8-10,3.2-14.8,6.3-20.7c5.4-10.3,6.2-23.3,3.6-35.5c-1-4.8-4.3-8.9,1.2-13.6
			c3.2-2.7,1.3-7.3-1.3-10.5c-3.3-4.3-3.3-11.3-5.1-14c-7.1-10.7-2.2-25.7-13.4-34.1c-2.8-2.1-3.7-4.1-2.4-7.6
			c0.9-2.4,0.7-6.3-1.6-7.1c-12.6-4.6-9.3-21.2-20.5-26.6c-2.2-1.1-2.5-2.7-1.6-5.2c0.8-2.2,1.2-6.8,0.4-7.2
			c-13.3-5.8-12.9-25.6-28.5-28.4c-11.3-2.1-1.5-12.6-7.3-16.9c46.8,13.6,78.9,43.2,95,88.8
			C1897,1707.9,1887.5,1753.3,1854.6,1796.9z"/>
		<path class="st1" d="M1724,1284.4c-12,0.9-21.1,0.7-30.7-5.8c9.5-2.7,19.1-1.8,26.9-10.3c-10.4,0.2-19.7,0.4-28.4-7.4
			c11.9-0.8,22.8-0.9,33.7-9.9c-6,0-9.5,0.3-13,0c-16.1-1.4-19.7-6-17.8-22c5.8-46.8,11.5-93.6,17.3-140.3
			c2-16.4,13.7-26.9,28.1-25.2c15.2,1.8,24.3,14.9,22.2,31.8c-5.8,47.2-11.4,94.4-17.2,141.7c-0.7,5.9,0.8,14-9.8,12.3
			c0.6,5.8,11.9,10.5,0.5,16.8c-3.1,1.7,0.7,6.3,2.1,9.1c3.9,7.9-0.4,8.3-9.8,6.4c11.8,9.5,9.4,19.2,8,29.3
			c-4,29.3-7.6,58.6-10.6,88.1c-0.9,9.2-5.7,12.8-13.6,13.9c-3.8,0.5-7.7,0.4-11.6,0.1c-23.4-1.7-26.9-5.6-24.3-28.2
			c3-26.8,6.9-53.6,9.7-80.4c0.8-7.7,2.4-11.4,11.2-10.5C1705.9,1294.5,1714.7,1292.1,1724,1284.4z"/>
		<path class="st4" d="M1945.4,1080.7c-0.5,6.4-3.9,10.9-10.3,11c-7.7,0.1-16.1-4.4-17.5-10.5c-1-4.4,4.7-12.6,10.8-16
			C1932,1063.3,1945.2,1075.9,1945.4,1080.7z"/>
		<path class="st5" d="M1823.6,1024.2c-6.8-5-15-6.5-16.2-15c-1-7.1,2.7-11.9,9.9-12c7.2-0.1,15.4,4,16.1,9.8
			C1834.1,1012,1827.3,1018.1,1823.6,1024.2z"/>
		<path class="st6" d="M1919.8,1039.9c2.6,1.5,4.2,3.6,3.3,5.6c-5.9,13.3-14.4,25.1-22.9,36.7c-1.3,1.8-4.4,3-6.8,0.9
			c-1.6-1.4-0.4-3,0.6-4.4C1902.8,1065.9,1908.3,1050.8,1919.8,1039.9z"/>
		<path class="st7" d="M1863.3,1001.2c1.9,16-17,44.3-29.2,45.3C1843.1,1031.5,1850.5,1016.4,1863.3,1001.2z"/>
		<path class="st8" d="M1862,1064.8c10.3-15.1,17-30.7,28.7-43.6C1895.2,1032.4,1876.2,1063,1862,1064.8z"/>
		<path class="st9" d="M1625.8,1109.2c-4.3-5-12.4-9.1-11-14.7c1.4-5.6,8.1-11.2,15.6-11.1c5.7,0.1,9.8,4.1,9.3,10
			C1639,1101.5,1631.5,1104.4,1625.8,1109.2z"/>
		<path class="st10" d="M1537.8,1161.3c4,4.5,10.7,8.7,11,13.3c0.5,6.3-6.6,10.3-12.9,11.6c-6,1.2-10.2-2.8-10.7-8.5
			C1524.5,1169.6,1531.7,1166.5,1537.8,1161.3z"/>
		<path class="st11" d="M1574.2,1173.5c-10.7-11.9-21.4-21.5-29.5-33.4c-0.9-1.3-2.3-2.9-0.5-4.4c0.8-0.7,2.4-0.9,3.5-0.7
			C1554.2,1136.3,1574.5,1163.9,1574.2,1173.5z"/>
		<path class="st12" d="M1597,1152.9c-10.2-11.6-19.6-22.3-29-33.1c-1.1-1.2-2.2-2.7-0.8-4.5c1.3-1.7,3.5-1.6,4.6-0.6
			c10.3,10,21.7,19,27.1,32.9C1599.2,1148.5,1598.2,1149.8,1597,1152.9z"/>
		<path class="st13" d="M1621.3,1133c-10.9-12.5-19.9-22.7-28.8-32.9c-1.3-1.6-3-3.4-1.3-5.6c0.6-0.7,2.3-0.9,3.4-0.7
			C1601,1094.8,1621.4,1122.5,1621.3,1133z"/>
		<path class="st0" d="M1707.3,1610.9c0,2.3-0.9,4.1-3,5.2c-2.6,1.4-5.2,1.1-7.1-0.9c-6-6.1-12.2-12.1-17.3-18.9
			c-3.8-5-0.9-9.3,4.8-10.2C1689.7,1585.4,1707.5,1605.5,1707.3,1610.9z"/>
		<path class="st0" d="M1753.1,1685.1c0.5,3.9-1.1,6.7-4.8,7.9c-3.5,1.1-5.8-1.2-7.1-3.9c-3.6-7.2-7-14.4-10.3-21.8
			c-1.4-3-0.8-5.7,2-7.9c3-2.4,5.4-1.3,7.8,0.9C1743.8,1663.1,1752.8,1681,1753.1,1685.1z"/>
		<path class="st0" d="M1774.4,1812c0,1.8,0.1,2.7,0,3.5c-0.8,5.4,2.4,13.9-6.2,14.4c-9.6,0.6-5.9-8.2-6.5-13.5
			c-0.6-5.1-0.7-10.2-0.9-15.3c-0.2-3.7,0.8-6.9,5.1-7.6c4.9-0.7,7,2.4,7.6,6.7C1774.1,1804.4,1774.2,1808.7,1774.4,1812z"/>
		<path class="st0" d="M1771.3,1770.9c-0.7,6.1,1.1,13.4-7.1,13.5c-7.9,0.1-5.5-6.9-6-11.7c-0.5-5.1-1.1-10.2-1.7-15.3
			c-0.6-4.8,0.3-8.9,5.8-9.6c4.9-0.6,6.4,3.1,6.9,7.4C1769.8,1760.7,1770.6,1766.2,1771.3,1770.9z"/>
		<path class="st0" d="M1712.9,1619.7c6.3-0.1,22.2,23.9,19.3,29.4c-2.5,4.8-6.9,5.6-10.2,1.2c-5.2-6.8-9.9-13.9-14.1-21.3
			C1705.1,1624.1,1708,1620.9,1712.9,1619.7z"/>
		<path class="st0" d="M1762,1729.6c-0.2,2.8,0.1,7.2-5.1,7.8c-5.1,0.7-6.2-2.9-7-7c-1.3-7.1-3.2-14-4.6-21.1
			c-0.8-3.7,0.3-7.1,4.3-8.1c4-1,6.3,1.6,7.6,5.1C1759.7,1713.6,1761.7,1720.9,1762,1729.6z"/>
		<path class="st0" d="M1781.6,1625.3c0.5,4-1,5.8-3.6,7.1c-3.4,1.8-5.8,0.2-7.8-2.3c-4.7-6.1-9.2-12.3-13.8-18.5
			c-2.3-3.1-2.7-6.5,0.4-9.2c3.1-2.8,6.4-2,9,1C1772.2,1610.3,1778.7,1617.1,1781.6,1625.3z"/>
		<path class="st0" d="M1827.1,1748.6c-0.9,5.8,1.6,13.4-6.5,13.7c-7.4,0.2-5.4-7.1-6.1-11.8c-1-5.9-2.3-11.7-3.1-17.6
			c-0.4-3.2,0.9-5.9,4.4-6.8c4.1-1.2,6.8,0.6,7.8,4.4C1825,1736.6,1826,1742.9,1827.1,1748.6z"/>
		<path class="st0" d="M1804.3,1664.4c0.3,3.7-1.4,6-4.4,7.2c-3.4,1.4-5.9-0.9-7.3-3.5c-4-6.9-7.6-14.2-11.5-21.2
			c-1.7-3.1-1.3-5.6,1.2-7.9c2.7-2.4,5.8-2.1,7.9,0.3C1796.7,1646.8,1801.3,1655.3,1804.3,1664.4z"/>
		<path class="st0" d="M1833.6,1793.4c-0.3,3.7-0.3,6.8-1,9.6c-0.8,3.3-3.3,4.9-6.7,4.5c-2.8-0.4-4.7-2.1-5.1-4.9
			c-0.9-8.5-1.9-16.9-2.5-25.4c-0.2-3.3,1.8-5.7,5.2-6.3c3.5-0.6,6.1,1.3,6.8,4.4C1831.8,1781.4,1832.6,1787.8,1833.6,1793.4z"/>
		<path class="st0" d="M1754,1593.2c-0.3,4.3-4.4,7.1-7.6,4.5c-7.8-6.2-15.2-13.3-21.4-21.1c-2.6-3.2,0.7-7.3,5.5-7.5
			C1736,1568.8,1754.1,1587,1754,1593.2z"/>
		<path class="st0" d="M1815.4,1703.2c0.7,7.8,0.3,11.8-4.6,12.6c-4.1,0.8-6-2.3-7.1-5.8c-2-6.9-4.1-13.8-6.1-20.8
			c-1.2-4.2-0.5-7.8,4.2-9.1c4.1-1.2,6.7,1.3,7.8,4.8C1812.2,1692,1814.2,1699.3,1815.4,1703.2z"/>
	</g>
	<g>
		<g>
			<path class="st14" d="M2110.6,1765.8h71.1c9.1-0.2,13.5,4.1,13.3,13v33.4c0.2,8.9-4.2,13.2-13.3,13h-134.8
				c-9.1,0.2-13.5-4.1-13.3-13v-23.8c0-6.4,0.5-11.4,1.6-15c1.3-3.6,4.2-8.5,8.6-14.7l81.8-114.3H2045c-9.1,0.2-13.5-4.1-13.3-13
				v-33.4c-0.2-8.9,4.2-13.2,13.3-13h135.3c9.2-0.2,13.6,4.1,13.4,13v27.3c0,7-0.5,12.4-1.6,16.1c-1.2,3.8-4.1,9-8.8,15.8
				L2110.6,1765.8z"/>
		</g>
	</g>
	<g>
		<path class="st14" d="M710.9,1725.5v75.2c0.2,8.5-4,12.7-12.8,12.5h-34c-8.7,0.2-13-4-12.8-12.5v-206.2c-0.2-8.5,4-12.7,12.8-12.5
			h113c8.7-0.2,13,4,12.8,12.5v32.1c0.2,8.5-4,12.7-12.8,12.5h-66.3v29.2h66.3c8.7-0.2,13,4,12.8,12.7v31.9
			c0.2,8.5-4,12.7-12.8,12.5H710.9z"/>
		<path class="st14" d="M981.8,1594.5v150.7c0,22.4-9.8,40.6-29.5,54.6c-14.9,10.6-31.7,15.8-50.6,15.8c-24.7,0-45.3-8.1-62-24.4
			c-13.2-13.1-19.8-28.4-19.8-46v-150.7c-0.2-8.5,4-12.7,12.8-12.5h33.7c8.7-0.2,13,4,12.8,12.5v145c0,5.7,2.7,10.5,8.2,14.3
			c4.5,3.1,9.3,4.7,14.5,4.7c5.4,0,10.1-1.8,14-5.3c4.4-3.9,6.6-8.3,6.6-13.1v-145.6c-0.2-8.5,4-12.7,12.8-12.5h34
			C977.8,1581.8,982,1586,981.8,1594.5z"/>
		<path class="st14" d="M1079.2,1756.1h57.3c8.8-0.2,13.1,4,12.9,12.5v32.1c0.2,8.5-4.1,12.7-12.9,12.5h-104.1
			c-8.7,0.2-13-4-12.8-12.5v-206.2c-0.2-8.5,4-12.7,12.8-12.5h34c8.7-0.2,13,4,12.8,12.5L1079.2,1756.1L1079.2,1756.1z"/>
		<path class="st14" d="M1240.1,1756.1h57.3c8.8-0.2,13.1,4,12.9,12.5v32.1c0.2,8.5-4.1,12.7-12.9,12.5h-104.1
			c-8.7,0.2-13-4-12.8-12.5v-206.2c-0.2-8.5,4.1-12.7,12.8-12.5h34c8.7-0.2,13,4,12.8,12.5V1756.1z"/>
		<path class="st14" d="M1424.1,1639.2v161.3c0.2,8.5-4.1,12.7-12.8,12.5h-34c-8.7,0.2-13-4-12.8-12.5v-161.3h-35.1
			c-8.7,0.2-13-4-12.8-12.5v-32.1c-0.2-8.5,4.1-12.7,12.8-12.5h130.8c8.8-0.2,13.1,4,12.9,12.5v32.1c0.2,8.5-4.1,12.7-12.9,12.5
			H1424.1z"/>
	</g>
</g>
<g class="st15">
	<rect x="-7.9" y="-8.4" class="st16" width="2904" height="2891.3"/>
	<circle class="st17" cx="1745.6" cy="1706" r="183.6"/>
	<g class="st16">
		<path class="st18" d="M1604.1,1861.6c-63.1-52.6-88.9-152.3-53.5-230.8c13.8-30.5,14.2-57,4.4-86.4c-1.4-4.2-3.5-9-5-13.5
			c0,0,0-0.1-0.1-0.1c-0.1-0.1-0.2-0.3-0.3-0.4c0-0.1-0.1-0.1-0.1-0.2c-0.1-0.1-0.2-0.2-0.3-0.3c-0.1-0.1-0.1-0.1-0.2-0.2
			c0,0,0,0-0.1-0.1c0,0-0.1,0-0.1,0c-0.1-0.1-0.2-0.1-0.2-0.1c-0.3-0.1-0.5-0.3-0.8-0.4c-2.6-0.9-7.3-2.4-7.5-2.5
			c-9-2.5-9.4-3-18.9-4.1c-3.2-0.4-7-0.5-10.1-0.5c-61.8,0.2-123.6,0.2-185.4,0.2c-198.4,0-396.8-0.1-595.2,0.1
			c-87.3,0.1-163.4,54.2-178.9,134.3c-13.3,68.7-6.3,139-3.4,208.6c5.6,2.5,11.6,1.3,17.4,1.3c268.6,0.1,537.3,0.1,805.9,0
			c5.8,0,11.8,1,17.4-1.2c10.6,0,21.2,0,31.8,0.1c59.3,2.6,118.7,0.6,178,1.1C1602.2,1866.2,1605.1,1865.6,1604.1,1861.6z"/>
		<path class="st18" d="M2170,1521.9c-1.6,0-3.3,0-4.9,0c-61.8,0-123.6,0.1-185.4-0.2c-3,0-6.9-0.1-10.1-0.1
			c-9.3,0.1-10.4-0.9-19.4,1.6l-6.9,4.5c0,0.1-2.1,3-2.2,3c-1.5,4.5-3.6,9.3-5,13.5c-9.8,29.4-9.4,55.9,4.4,86.4
			c35.4,78.5,9.6,178.2-53.5,230.8c-1,4,1.8,4.6,4.9,4.6c59.3-0.5,118.7,1.5,178-1.1c10.6,0,21.2,0,31.8-0.1
			c5.7,2.2,11.6,1.2,17.4,1.2c16.9,0,33.9,0,50.8,0L2170,1521.9L2170,1521.9z"/>
		<path class="st18" d="M2341.7,1656.3c-15.4-80-91.6-134.2-178.9-134.3c-12.8,0-25.5,0-38.2,0c0,0.5,0,1,0,1.5v342.7
			c67.7,0,135.4,0,203.1,0c5.8,0,11.8,1.2,17.4-1.3C2348,1795.2,2354.9,1725,2341.7,1656.3z"/>
		<path class="st18" d="M1610.2,1561.4c-4.5-14.2-2.3-28.4-3.4-42.6c-0.2-2.7-1.9-6.1-4-7.8c-5.7-4.9-7.5-11.4-8.6-18.1
			c-4.8-30.9-19.6-59.7-17.4-92.4c1.1-16.2-11.8-30.3-16.1-45.9c-9.8-35.5-17.7-71.6-26.5-107.3c-5.8-23.6-24.5-36.1-45.4-31.1
			c-22.2,5.3-33.3,24.8-27.5,48.7c8.5,35,17.1,69.9,25.6,104.9c1,4.1,3.6,9.4,2.1,12.3c-6,11.9,2.2,22.2,2,33.1
			c-0.2,12.9,12.4,18.1,14.7,29.6c4.3,22.3,10.4,44.2,15.9,66.3c1.9,7.6,3.4,14.6-0.7,22.2c-4,7.4-1.2,14.3,5.8,18.9
			c1.7,1.1,3.7,2.2,5.1,3.6c6.3,1.2,12.3,3.1,18.4,4.9c0.1-0.4,0.2-0.7,0.4-1.1c3-6.2,13.6-3.8,20.8-5.3c6.8-1.4,14.6-8.6,19.6-4.2
			c4.5,4,4.3,13.4,6.3,20.4c0.2,0.7,1,1.2,2.6,2.9C1602.9,1568.3,1611.6,1565.8,1610.2,1561.4z"/>
		<path class="st18" d="M1627.4,1829.4c-33-34.5-52.7-74.9-52.3-123.3c0.5-67.7,30.8-119.3,90-151c59.3-31.7,118.8-27.4,175.8,8.7
			c5,3.2,9.8,6.8,15.1,10.5c4.4-21.3,8.6-41.9,13.1-62.4c1-4.8,0.2-6.6-5.3-7.1c-8.9-0.9-18.5-1.5-26.3-5.2
			c-13.3-6.3-15.3,0-16.8,10.8c-1.5,10.9-4.2,21.6-6.4,32.3c-13.9-1.9-17.3-8.8-13.2-21.2c2.9-8.9,4.1-18.4,5.9-27.6
			c0.9-4.6,1.3-8.8-1.9-13.3c-6.3-8.9-3.6-17.4,4.4-23.8c4.8-3.8,6.9-8.3,8-13.9c5.4-27.3,10.9-54.6,16.5-81.9
			c0.4-2.1,2.1-5,1.3-6.1c-11.1-15.5-2.9-32.5,2.7-44.3c22.6-47.2,23.1-99.3,36.9-148.3c5.8-20.5,27.4-32.7,48.6-27.9
			c21,4.7,34.6,25.9,30.1,48.3c-7.7,38.7-15.6,77.3-23.8,115.8c-3.9,18.6,3.7,39.1-6,56c-14.8,25.8-14.7,54.7-21.8,82.1
			c-3.6,13.8-8.2,27.8-3.6,42.6c1.1,3.4,0.7,8.6-1.3,11.2c-16.8,22.5-14.1,50.4-22,75.4c-4.7,14.9-1.9,26.3,8.1,39.5
			c50,66.2,42.3,161.1-16.3,220.1c-3,3-5.9,6.1-8.9,9.2c-1.7,5.1-6.3,7.5-10.2,10.6c-3.7,2.4-7.3,4.8-10.9,7.3
			c-2.8,1.9-5.6,3.7-8.4,5.7c-4,2.8-8.4,4.8-12.9,6.5c-7.2,3.2-14.5,5.9-22.1,8c-34.8,10-69.3,9-103.6-2.2
			c-10.4-3.6-19.8-9.5-29.9-13.7c-5.8-2.3-10.8-5.8-15.7-9.5C1639.3,1840.7,1630.2,1838.1,1627.4,1829.4z"/>
		<path class="st18" d="M1669.1,1440.7c-3.1,26.1-6.8,51.4-8.9,76.9c-1.2,13.9-5.3,23.6-21.8,25.5c3.5-29.4,7.1-58.9,10.6-88.4
			c1.4-11.3,4.4-22.2-4.1-32.8c-5.3-6.6-1.5-14.8,4.1-19.6c7-6,8.2-13.4,9.2-21.6c2.9-25.6,6.3-51.1,9.3-76.6
			c0.9-7.8,3.7-15.6-3.2-23c-5-5.4,0.4-12.3,1.1-18.3c1.5-12.5-1.5-26.4,10.2-36.3c2.1-1.8,2.2-6.3,2.6-9.7
			c5.3-43.4,10.6-86.8,15.8-130.2c3.1-26.2,23.9-44.3,47.9-41.4c26.1,3.1,41.9,25,38.4,52.5c-5.6,43.8-11,87.6-15.9,131.5
			c-1.5,13.6,4.1,26.9,1.1,41.2c-3.9,18.8-12.7,36.2-13.3,56.2c-0.8,23.5-5.4,46.8-8.4,70.2c-0.5,4.3-0.2,8.2,1.7,12.4
			c4.6,10.6,4,20.8-4.2,29.9c-5.7,6.3-3.9,14.7-5.1,22c-2.6,16.9-5,34-5.9,51.1c-0.6,11.1-7.1,11-14.6,10.8
			c-10.5-0.4-3.9-7.7-3.6-11.2c1.5-18.4,3.6-36.7,6.3-54.9c1.1-7.1,0.4-10.1-7.7-9.7C1696.8,1447.7,1683.3,1444.9,1669.1,1440.7z"/>
		<path class="st18" d="M1957.6,1080.7c0.3,18.7-18.8,29.4-35.7,19.9c-7.3-4.1-13.8-10.4-23.1-4.7c-1.3,0.8-3.4,0.2-5.1,0.2
			c-12.7,0.2-14.1-15.8-22.1-17.6c-10.1-2.3-19.6-2.5-24-13.2c-2-4.9-4.4-5.8-9.3-5.6c-11.7,0.5-19-6-20.4-17.1
			c-0.8-6.5-3.5-9.6-8.5-12.8c-15-9.5-19.2-22.3-11.8-34.4c7.6-12.4,20.9-14.5,35.9-5.5c4.8,2.9,8.3,4.7,14.5,1
			c10.8-6.5,22.4-2.2,27.7,9.6c2.3,5.2,4.1,6.4,9.8,6.1c12.2-0.7,15.3,10.5,22.3,17.4c4.9,4.8,22.2-0.3,24,10.9
			c2.4,15.3,9.9,24.4,21.4,32.6C1957.1,1070.3,1957.8,1075.8,1957.6,1080.7z"/>
		<path class="st18" d="M1564.8,1185.8c-6.3-3.6-9.7,2-13.9,5.3c-11.8,9.4-23.2,9.4-31.9-0.2c-8.3-9.1-7.2-21.8,3.5-31.6
			c4.8-4.4,6.9-7.8,5.4-15.1c-2-9.8,3.7-17.1,13.8-20.1c0.4-0.1,0.8-0.2,1.3-0.2c12.4,1.3,8.1-11.7,13.8-16.7
			c5.8-5.1,16.8,1,18.9-11.2c2-11.7,11.9-16,22.6-12.7c6.6,2.1,10,0.4,14.4-3.5c11.9-10.3,24.3-10.4,32.9-1c8.8,9.8,6.9,22.6-5,33.5
			c-4,3.7-9.2,6.5-6.6,13.6c0.7,2-0.8,4.9-1.5,7.4c-3.3,11.1-17.8,7.7-21.3,14.4c-4.4,8.5-7.1,16.5-17.6,17.4
			c-4.8,0.4-6.1,2.1-7.4,6.4C1582.7,1183,1576.9,1186.5,1564.8,1185.8z"/>
		<path d="M1550.3,1411.9c6.7,2.2,9.9,6.3,11.4,12.8c6.1,26.7,12.4,53.4,19.6,79.9c2.7,9.9-1.5,14.5-9.1,18
			c-3.5,1.6-7.3,2.5-11.1,3.2c-17.8,3.2-19.5,2-23.7-15.1c-5.5-22.5-10.6-45.1-16.5-67.4c-1.9-7.3-2.6-11.7,6.5-13.9
			c5.9-1.4,11.8-4.8,15.1-12c-7.7-0.2-14.3,4.8-22.5,1.5c5.8-5.3,14.2-7.3,17.1-16.2c-7.7,2.5-14.9,6.2-24.8,2.6
			c9.5-4.7,17.9-7.9,22.7-16.2c-3.5-1.8-5.6,1.1-8.2,1.8c-13.8,3.8-18.2,1.4-21.7-12.6c-9.5-38.7-19.1-77.4-28.5-116.1
			c-3.9-15.9,1.5-27.2,14.6-30.7c13.3-3.6,23.6,3.7,27.6,19.6c9.8,39.9,19.6,79.9,29.3,119.9c0.8,3.4,5.5,8.1-1.8,10.4
			c-0.5,0.2-0.8,1.1-1.2,1.6c10,3.3,1.4,14.5,8.3,19.2C1560.6,1407.1,1554.2,1409.1,1550.3,1411.9z"/>
		<path d="M1891.4,1353.7c8.4,6.6,7.2,13.6,5.7,20.9c-5.8,27.7-12.1,55.3-16.9,83.1c-2.1,12.4-8.5,15.7-19.3,14.7
			c-3.4-0.3-6.9-0.7-10.2-1.5c-18.5-4.8-20.3-7.8-16.4-26.3c5-23.9,10.1-47.8,14.6-71.8c1.6-8.7,3.6-14.1,14.3-11.9
			c7.1,1.4,14.3-0.4,22.9-5.7c-10.3-2-20-0.8-27.1-9.1c9.3-0.7,18,0.4,25.8-7.6c-10,0.3-18.1-0.8-26.2-8.3
			c11.5-0.4,21.9,1.4,30.9-6.9c-4.9-0.4-8.7-0.4-12.3-1.1c-13.1-2.5-16-7.1-13.3-20.2c8.7-42.8,17.5-85.6,26.2-128.4
			c3.3-16.3,14.9-25.9,28.3-23.2c14.1,2.8,21.4,14.9,18,31.6c-8.8,44.1-17.9,88.2-27.2,132.2c-0.7,3.1,1.6,9.9-6.2,8.3
			c-0.7-0.1-1.5,0.4-2.2,0.7c8.3,7.6-4.1,14.7-0.6,22.2C1903.2,1352.3,1899.3,1354,1891.4,1353.7z"/>
		<path d="M1733.8,1841.9c5.8-8,11.2-16.2,14.9-25.4c2.3-5.8,4.6-11.7-2.5-15.7c-6.2-3.4-0.8-6.6,0.2-9.5c2.1-6.5,6.1-12.8-1.4-18.5
			c-2.6-2-1.6-4.5-1-7c1.7-7.5,4.8-15.6-6.4-18.8c-0.6-0.2-1.6-1.3-1.5-1.6c5.4-11.4-8.7-19.7-4.8-31c1.4-4.2,0.2-8.7-4.5-10.9
			c-3.4-1.6-3.9-4.1-3.5-7.3c0.9-6.9,0-12.9-8.2-15.1c-0.9-0.2-2.2-2.1-2-2.8c2.9-13.4-14.5-18.4-13-31.2c0.1-0.7-0.6-2.1-1.1-2.2
			c-11.7-1.8-15-12.9-21.8-20c-8.3-8.8-10.7-20.9-16.8-31c-2.2-3.6,6-5.9,9.4-8.9c10.1-8.7,18.7-7.2,28.6,1.7
			c33,29.5,52.4,67.4,67.6,107.8c13.9,37.1,23.2,75.4,24.8,115.2c0.3,7.7-0.5,15.4-1,23.1c-0.2,3-0.6,5.9-3.2,8.1
			C1778.4,1847.5,1742.9,1848.3,1733.8,1841.9z"/>
		<path d="M1707.3,1567.8c7.8-1.3,14.7-2.8,21.8-3.6c7-0.8,14.7-5.1,16.9,8.1c1.5,8.7,13.9,3.9,20,9.2c-4.4,8.5-3.4,15,8.1,16.6
			c4.1,0.6,7.3,1.5,7,7c-0.2,4.3,3.1,6.9,7,8.2c4.3,1.4,7,3.1,4,8.1c-0.6,1-0.8,3.1-0.2,3.7c7.8,7.4,11.7,16.9,16.6,26.3
			c5.5,10.5,11,22.3,18.3,30.6c8.6,9.9,6.4,21.7,11.5,31.9c6.5,13.1,14.6,32.2,8,44.8c-5.9,11.2-6.4,21-7.2,31.8
			c-0.4,5-3.6,10.8,3.3,14.9c3.3,2-0.5,4.4-2.1,5.8c-9,7.8-18.3,15.2-28.8,19.5C1804.8,1732.4,1781.4,1641.3,1707.3,1567.8z"/>
		<path d="M1676.4,1808c13.4,3.9,26.8,7.9,40.2,11.9c0.4-0.6,0.7-1.3,1.1-1.9c-24.1-17.8-48.3-35.6-72.4-53.4
			c0.3-0.6,0.6-1.1,0.9-1.7c21.6,6.3,43.3,12.6,64.9,18.9c0.4-0.7,0.8-1.4,1.2-2.1c-23.3-18-46.6-36-69.9-54
			c0.3-0.8,0.6-1.5,0.9-2.3c15.7,3.8,31.3,7.6,47,11.4c0.2-0.6,0.5-1.1,0.7-1.7c-19.4-14.6-38.8-29.1-58.2-43.7
			c0.3-0.7,0.6-1.3,0.8-1.9c17.8,3.7,35.6,7.4,53.4,11.1c0.3-0.6,0.7-1.2,1.1-1.8c-19-12.7-38-25.5-59.2-39.7
			c17.8,1.2,30.5,11.1,47.3,15.4c-11.6-13.5-21.9-25.5-31.9-37.3c13.7-2.9,22.5,3.6,30.5,17c6.9,11.5,9.5,25.4,21.3,34.6
			c4.4,3.4-1.1,14.6,7.8,18.4c-4.4,11,3.5,20.9,7,28.9c5,11.5-0.1,26.5,12,34.9c3.1,2.1,2.1,4,0.9,6.4c-2.1,4.6-2.6,9.3,1.8,12.9
			c4.3,3.5,0.7,6.3-0.9,8.8c-6,9.4-2.9,14.9,7.4,17.4c-3.3,7.3-8.8,13.2-10.3,21.6c-15.6-9-30.7-17.7-45.8-26.4
			C1676.1,1809.2,1676.3,1808.6,1676.4,1808z"/>
		<path d="M1854.6,1796.9c-0.8-10,3.2-14.8,6.3-20.7c5.4-10.3,6.2-23.3,3.6-35.5c-1-4.8-4.3-8.9,1.2-13.6c3.2-2.7,1.3-7.3-1.3-10.5
			c-3.3-4.3-3.3-11.3-5.1-14c-7.1-10.7-2.2-25.7-13.4-34.1c-2.8-2.1-3.7-4.1-2.4-7.6c0.9-2.4,0.7-6.3-1.6-7.1
			c-12.6-4.6-9.3-21.2-20.5-26.6c-2.2-1.1-2.5-2.7-1.6-5.2c0.8-2.2,1.2-6.8,0.4-7.2c-13.3-5.8-12.9-25.6-28.5-28.4
			c-11.3-2.1-1.5-12.6-7.3-16.9c46.8,13.6,78.9,43.2,95,88.8C1897,1707.9,1887.5,1753.3,1854.6,1796.9z"/>
		<path d="M1724,1284.4c-12,0.9-21.1,0.7-30.7-5.8c9.5-2.7,19.1-1.8,26.9-10.3c-10.4,0.2-19.7,0.4-28.4-7.4
			c11.9-0.8,22.8-0.9,33.7-9.9c-6,0-9.5,0.3-13,0c-16.1-1.4-19.7-6-17.8-22c5.8-46.8,11.5-93.6,17.3-140.3
			c2-16.4,13.7-26.9,28.1-25.2c15.2,1.8,24.3,14.9,22.2,31.8c-5.8,47.2-11.4,94.4-17.2,141.7c-0.7,5.9,0.8,14-9.8,12.3
			c0.6,5.8,11.9,10.5,0.5,16.8c-3.1,1.7,0.7,6.3,2.1,9.1c3.9,7.9-0.4,8.3-9.8,6.4c11.8,9.5,9.4,19.2,8,29.3
			c-4,29.3-7.6,58.6-10.6,88.1c-0.9,9.2-5.7,12.8-13.6,13.9c-3.8,0.5-7.7,0.4-11.6,0.1c-23.4-1.7-26.9-5.6-24.3-28.2
			c3-26.8,6.9-53.6,9.7-80.4c0.8-7.7,2.4-11.4,11.2-10.5C1705.9,1294.5,1714.7,1292.1,1724,1284.4z"/>
		<path d="M1945.4,1080.7c-0.5,6.4-3.9,10.9-10.3,11c-7.7,0.1-16.1-4.4-17.5-10.5c-1-4.4,4.7-12.6,10.8-16
			C1932,1063.3,1945.2,1075.9,1945.4,1080.7z"/>
		<path d="M1823.6,1024.2c-6.8-5-15-6.5-16.2-15c-1-7.1,2.7-11.9,9.9-12c7.2-0.1,15.4,4,16.1,9.8
			C1834.1,1012,1827.3,1018.1,1823.6,1024.2z"/>
		<path d="M1919.8,1039.9c2.6,1.5,4.2,3.6,3.3,5.6c-5.9,13.3-14.4,25.1-22.9,36.7c-1.3,1.8-4.4,3-6.8,0.9c-1.6-1.4-0.4-3,0.6-4.4
			C1902.8,1065.9,1908.3,1050.8,1919.8,1039.9z"/>
		<path d="M1863.3,1001.2c1.9,16-17,44.3-29.2,45.3C1843.1,1031.5,1850.5,1016.4,1863.3,1001.2z"/>
		<path d="M1862,1064.8c10.3-15.1,17-30.7,28.7-43.6C1895.2,1032.4,1876.2,1063,1862,1064.8z"/>
		<path d="M1625.8,1109.2c-4.3-5-12.4-9.1-11-14.7c1.4-5.6,8.1-11.2,15.6-11.1c5.7,0.1,9.8,4.1,9.3,10
			C1639,1101.5,1631.5,1104.4,1625.8,1109.2z"/>
		<path d="M1537.8,1161.3c4,4.5,10.7,8.7,11,13.3c0.5,6.3-6.6,10.3-12.9,11.6c-6,1.2-10.2-2.8-10.7-8.5
			C1524.5,1169.6,1531.7,1166.5,1537.8,1161.3z"/>
		<path d="M1574.2,1173.5c-10.7-11.9-21.4-21.5-29.5-33.4c-0.9-1.3-2.3-2.9-0.5-4.4c0.8-0.7,2.4-0.9,3.5-0.7
			C1554.2,1136.3,1574.5,1163.9,1574.2,1173.5z"/>
		<path d="M1597,1152.9c-10.2-11.6-19.6-22.3-29-33.1c-1.1-1.2-2.2-2.7-0.8-4.5c1.3-1.7,3.5-1.6,4.6-0.6c10.3,9.9,21.7,19,27.1,32.9
			C1599.2,1148.5,1598.2,1149.8,1597,1152.9z"/>
		<path d="M1621.3,1133c-10.9-12.5-19.9-22.7-28.8-32.9c-1.3-1.6-3-3.4-1.3-5.6c0.6-0.7,2.3-0.9,3.4-0.7
			C1601,1094.8,1621.4,1122.5,1621.3,1133z"/>
		<path class="st18" d="M1707.3,1610.9c0,2.3-0.9,4.1-3,5.2c-2.6,1.4-5.2,1.1-7.1-0.9c-6-6.1-12.2-12.1-17.3-18.9
			c-3.8-5-0.9-9.3,4.8-10.2C1689.7,1585.4,1707.5,1605.5,1707.3,1610.9z"/>
		<path class="st18" d="M1753.1,1685.1c0.5,3.9-1.1,6.7-4.8,7.9c-3.5,1.1-5.8-1.2-7.1-3.9c-3.6-7.2-7-14.4-10.3-21.8
			c-1.4-3-0.8-5.7,2-7.9c3-2.4,5.4-1.3,7.8,0.9C1743.8,1663.1,1752.8,1681,1753.1,1685.1z"/>
		<path class="st18" d="M1774.4,1812c0,1.8,0.1,2.7,0,3.5c-0.8,5.4,2.4,13.9-6.2,14.4c-9.6,0.6-5.9-8.2-6.5-13.5
			c-0.6-5.1-0.7-10.2-0.9-15.3c-0.2-3.7,0.8-6.9,5.1-7.6c4.9-0.7,7,2.4,7.6,6.7C1774.1,1804.4,1774.2,1808.7,1774.4,1812z"/>
		<path class="st18" d="M1771.3,1770.9c-0.7,6.1,1.1,13.4-7.1,13.5c-7.9,0.1-5.5-6.9-6-11.7c-0.5-5.1-1.1-10.2-1.7-15.3
			c-0.6-4.8,0.3-8.9,5.8-9.6c4.9-0.6,6.4,3.1,6.9,7.4C1769.8,1760.7,1770.6,1766.2,1771.3,1770.9z"/>
		<path class="st18" d="M1712.9,1619.7c6.3-0.1,22.2,23.9,19.3,29.4c-2.5,4.8-6.9,5.6-10.2,1.2c-5.2-6.8-9.9-13.9-14.1-21.3
			C1705.1,1624.1,1708,1620.9,1712.9,1619.7z"/>
		<path class="st18" d="M1762,1729.6c-0.2,2.8,0.1,7.2-5.1,7.8c-5.1,0.7-6.2-2.9-7-7c-1.3-7.1-3.2-14-4.6-21.1
			c-0.8-3.7,0.3-7.1,4.3-8.1c4-1,6.3,1.6,7.6,5.1C1759.7,1713.6,1761.7,1720.9,1762,1729.6z"/>
		<path class="st18" d="M1781.6,1625.3c0.5,4-1,5.8-3.6,7.1c-3.4,1.8-5.8,0.2-7.8-2.3c-4.7-6.1-9.2-12.3-13.8-18.5
			c-2.3-3.1-2.7-6.5,0.4-9.2c3.1-2.8,6.4-2,9,1C1772.2,1610.3,1778.7,1617.1,1781.6,1625.3z"/>
		<path class="st18" d="M1827.1,1748.6c-0.9,5.8,1.6,13.4-6.5,13.7c-7.4,0.2-5.4-7.1-6.1-11.8c-1-5.9-2.3-11.7-3.1-17.6
			c-0.4-3.2,0.9-5.9,4.4-6.8c4.1-1.2,6.8,0.6,7.8,4.4C1825,1736.6,1826,1742.9,1827.1,1748.6z"/>
		<path class="st18" d="M1804.3,1664.4c0.3,3.7-1.4,6-4.4,7.2c-3.4,1.4-5.9-0.9-7.3-3.5c-4-6.9-7.6-14.2-11.5-21.2
			c-1.7-3.1-1.3-5.6,1.2-7.9c2.7-2.4,5.8-2.1,7.9,0.3C1796.7,1646.8,1801.3,1655.3,1804.3,1664.4z"/>
		<path class="st18" d="M1833.6,1793.4c-0.3,3.7-0.3,6.8-1,9.6c-0.8,3.3-3.3,4.9-6.7,4.5c-2.8-0.4-4.7-2.1-5.1-4.9
			c-0.9-8.5-1.9-16.9-2.5-25.4c-0.2-3.3,1.8-5.7,5.2-6.3c3.5-0.6,6.1,1.3,6.8,4.4C1831.8,1781.4,1832.6,1787.8,1833.6,1793.4z"/>
		<path class="st18" d="M1754,1593.2c-0.3,4.3-4.4,7.1-7.6,4.5c-7.8-6.2-15.2-13.3-21.4-21.1c-2.6-3.2,0.7-7.3,5.5-7.5
			C1736,1568.8,1754.1,1587,1754,1593.2z"/>
		<path class="st18" d="M1815.4,1703.2c0.7,7.8,0.3,11.8-4.6,12.6c-4.1,0.8-6-2.3-7.1-5.8c-2-6.9-4.1-13.8-6.1-20.8
			c-1.2-4.2-0.5-7.8,4.2-9.1c4.1-1.2,6.7,1.3,7.8,4.8C1812.2,1692,1814.2,1699.3,1815.4,1703.2z"/>
	</g>
	<g class="st16">
		<text transform="matrix(1.0201 0 0 1 2025.4863 1825.1719)" class="st19 st20 st21">Z</text>
	</g>
	<text transform="matrix(1.0201 0 0 1 640.314 1813.2227)" class="st16 st19 st22 st21">FULLT</text>
</g>
</svg>
