<svg width="23" height="25" viewBox="0 0 23 25" fill="none" xmlns="http://www.w3.org/2000/svg">
<path d="M16.7383 17.9713L18.1535 20.3713L19.5684 17.9713L18.1535 15.5746L16.7383 17.9713Z" fill="#EF4545"/>
<path d="M21.4232 11.871H14.8863C14.2611 11.871 13.7507 12.3777 13.7507 13.0029V23.2674C13.7507 23.8893 14.2608 24.3994 14.8863 24.3994H21.4232C22.0484 24.3994 22.5551 23.8893 22.5551 23.2674V13.0029C22.5551 12.3773 22.0488 11.871 21.4232 11.871ZM20.2773 18.1491L18.4536 21.234C18.3906 21.3421 18.2788 21.4087 18.1529 21.4087C18.0308 21.4087 17.9152 21.3425 17.8526 21.234L16.0322 18.1491C15.9693 18.041 15.9693 17.9044 16.0322 17.7962L17.8526 14.7111C17.9785 14.498 18.3277 14.498 18.4536 14.7111L20.2773 17.7962C20.3402 17.9044 20.3402 18.041 20.2773 18.1491Z" fill="#FFCE00"/>
<path d="M8.54537 15.8473C8.64472 15.9393 8.83608 16.024 9.11942 16.1086V14.9016C8.36506 14.9642 8.23626 15.5677 8.54537 15.8473Z" fill="#707D9B"/>
<path d="M9.59766 17.0837V18.3386C9.84053 18.3165 10.0319 18.2502 10.1717 18.1435C10.4661 17.9191 10.4256 17.5364 10.2159 17.3524C10.1055 17.2567 9.8994 17.1684 9.59766 17.0837Z" fill="#707D9B"/>
<path d="M14.8855 11.1336H16.1882C15.9527 10.8061 15.5221 10.2872 14.845 9.52181C14.4292 9.05447 13.995 8.65336 13.5497 8.32218C13.3577 8.70635 13.0357 9.01325 12.593 9.18694C12.8064 9.44453 13.0346 9.7242 13.2627 10.0112C13.6454 10.4933 13.5534 11.1961 13.0714 11.5641C12.6592 11.9174 11.9343 11.8879 11.5332 11.3838C10.8929 10.5706 10.1974 9.76836 9.76687 9.28998H8.31333C7.85703 9.69476 7.41177 10.2357 7.36393 10.5816C7.27194 11.266 6.73836 11.5752 6.11279 11.531C5.52033 11.4427 5.09715 10.8907 5.17443 10.2946C5.22963 9.87875 5.38786 9.45557 5.64913 9.02871C5.38712 8.85428 5.16045 8.60626 5.01252 8.31482C2.32624 10.1768 0.640869 13.6616 0.640869 17.5218C0.640869 23.5641 4.80277 24.3994 9.29953 24.3994C10.915 24.3994 12.1551 24.289 13.1891 24.0498C13.0787 23.8106 13.0162 23.5457 13.0162 23.266V13.0029C13.0162 11.9726 13.8552 11.1336 14.8855 11.1336ZM10.834 18.6662C10.5212 18.9238 10.1128 19.0636 9.5976 19.0857V19.5898H9.11922V19.0783C8.43109 19.0158 7.81287 18.7619 7.26826 18.3203L7.81655 17.7131C8.23606 18.0517 8.67028 18.2541 9.11922 18.3203V16.9661C8.55252 16.841 8.1367 16.6754 7.87175 16.473C7.12474 15.8916 7.34186 14.243 9.11922 14.1547V13.8088H9.5976V14.1621C10.1496 14.1989 10.6721 14.3755 11.1652 14.6846L10.6758 15.3286C10.3446 15.1078 9.98398 14.9753 9.5976 14.9238V16.2338H9.62335C10.1974 16.3589 10.6243 16.5282 10.8929 16.7416C11.4081 17.1501 11.4927 18.1253 10.834 18.6662Z" fill="#38D084"/>
<path d="M13.0421 7.38379C13.0421 6.73982 12.5858 6.21729 12.0228 6.21729H6.54349C5.98047 6.21729 5.52417 6.73982 5.52417 7.38379C5.52417 7.99869 5.95434 8.55398 6.54349 8.55398H6.95563C6.50669 9.02132 5.99887 9.68369 5.90319 10.3865C5.87743 10.5889 6.01727 10.7729 6.21966 10.8024C6.23806 10.8024 6.25278 10.806 6.27118 10.806C6.45149 10.806 6.60972 10.6699 6.63548 10.4859C6.73484 9.73521 7.61064 8.89989 8.04486 8.55398H10.0908C10.3926 8.88149 11.2758 9.86768 12.1074 10.9238C12.2413 11.0912 12.4758 11.1052 12.6226 10.9827C12.7845 10.8576 12.8102 10.6257 12.6851 10.4675C12.1037 9.73153 11.5002 9.02868 11.0807 8.55398H12.0228C12.5711 8.55398 13.0421 8.05463 13.0421 7.38379Z" fill="#C71A1A"/>
<path d="M6.1791 5.52553C6.29686 5.49609 6.41829 5.48137 6.54341 5.48137H12.0227C12.0668 5.48137 12.111 5.48137 12.1552 5.48873L12.8838 3.25875C12.9537 3.04164 12.9868 2.81717 12.9868 2.59638C12.9868 2.026 12.7623 1.47771 12.3612 1.16124C11.8534 0.756457 11.1506 0.752777 10.6391 1.14284C10.4256 1.30475 10.1644 1.30475 9.95094 1.14284C9.4468 0.756457 8.75867 0.756457 8.25453 1.14284C8.0411 1.30475 7.77983 1.30475 7.5664 1.14284C7.26098 0.907331 6.88195 0.811655 6.52501 0.863172C6.12023 0.91837 5.76696 1.1686 5.52777 1.56602C5.21867 2.08488 5.16347 2.76933 5.3769 3.35442L6.1791 5.52553Z" fill="#38D084"/>
</svg>
