<?xml version="1.0" encoding="iso-8859-1"?>
<!-- Generator: Adobe Illustrator 19.0.0, SVG Export Plug-In . SVG Version: 6.00 Build 0)  -->
<svg version="1.1" id="Layer_1" xmlns="http://www.w3.org/2000/svg" xmlns:xlink="http://www.w3.org/1999/xlink" x="0px" y="0px"
	 viewBox="0 0 511.997 511.997" style="enable-background:new 0 0 511.997 511.997;" xml:space="preserve">
<path style="fill:#FAA85F;" d="M500.361,139.635v290.909c0,12.858-10.426,23.273-23.273,23.273h-6.505
	c-10.019,0-18.909-6.412-22.074-15.919l-35.933-107.811c-3.165-9.495-12.055-15.907-22.074-15.907c0,0-21.795,13.545-76.311,11.636
	c-41.449-1.455-73.379-11.636-73.379-11.636c-11.38,0-21.085,8.227-22.959,19.444l-18.409,110.464
	c-0.943,5.62-5.795,9.728-11.485,9.728h-5.969c-11.089,0-20.643-7.831-22.819-18.711l-20.433-190.743
	c-4.352-21.76-23.459-37.411-45.649-37.411H50.662c-9.519,0-18.071-5.795-21.609-14.627l-17.42-43.555l116.364-34.909l23.273-55.68
	l51.852,128l216.483,10.077c21.504,0.977,42.17-8.39,55.61-25.193L500.361,139.635z"/>
<path style="fill:#00384E;" d="M504.212,128.662c-4.643-1.641-9.844-0.14-12.94,3.7l-25.146,31.43
	c-11.078,13.847-28.346,21.574-45.975,20.841l-209.036-9.728L162.057,53.817c-1.769-4.375-6.004-7.249-10.717-7.273
	c-4.573,0.303-8.972,2.793-10.81,7.145l-21.143,50.607L8.294,137.61c-3.13,0.943-5.713,3.153-7.133,6.097s-1.548,6.342-0.326,9.379
	l17.42,43.567c5.341,13.324,18.06,21.935,32.419,21.935h42.415c16.593,0,30.988,11.811,34.083,27.02l20.596,191.779
	c3.235,16.256,17.629,28.067,34.223,28.067h5.981c11.427,0,21.085-8.18,22.959-19.456l18.409-110.452
	c0.861-5.155,4.98-9.018,10.042-9.635c7.994,2.327,37.423,10.24,74.403,11.532c45.789,1.699,70.191-7.18,79.104-11.392
	c4.003,0.826,7.331,3.724,8.669,7.715l35.933,107.823c4.748,14.278,18.06,23.866,33.105,23.866h6.493
	c19.247,0,34.909-15.663,34.909-34.909V139.635C511.997,134.689,508.879,130.291,504.212,128.662z M93.088,195.303H50.673
	c-4.783,0-9.03-2.874-10.81-7.308l-12.695-31.744l104.169-31.244c3.34-1.001,6.063-3.444,7.401-6.656l12.358-29.591l40.204,99.235
	c-0.943,24.006-20.049,43.252-43.974,44.497C138.772,210.465,117.338,195.303,93.088,195.303z M488.724,430.544
	c0,6.423-5.213,11.636-11.636,11.636h-6.505c-5.015,0-9.449-3.188-11.043-7.959l-35.933-107.823
	c-4.759-14.266-18.06-23.855-33.105-23.855c-2.071,0-4.224,0.628-6.016,1.676c-0.198,0.128-20.643,11.578-69.9,9.972
	c-39.203-1.373-69.958-10.996-70.26-11.101c-1.129-0.361-2.327-0.547-3.526-0.547c-17.129,0-31.604,12.265-34.432,29.172
	L187.959,442.18h-5.969c-5.539,0-10.333-3.933-11.252-8.308l-19.13-178.211c31.337-2.979,56.634-26.764,62.033-57.344l205.44,9.565
	c25.251,1.14,49.524-9.903,65.233-29.545l4.41-5.527V430.544z"/>
<g>
</g>
<g>
</g>
<g>
</g>
<g>
</g>
<g>
</g>
<g>
</g>
<g>
</g>
<g>
</g>
<g>
</g>
<g>
</g>
<g>
</g>
<g>
</g>
<g>
</g>
<g>
</g>
<g>
</g>
</svg>
