<?xml version="1.0" encoding="utf-8"?>
<!-- Generator: Adobe Illustrator 19.0.0, SVG Export Plug-In . SVG Version: 6.00 Build 0)  -->
<svg version="1.1" id="Layer_1" xmlns="http://www.w3.org/2000/svg" xmlns:xlink="http://www.w3.org/1999/xlink" x="0px" y="0px"
	 viewBox="-293 385 24 23" style="enable-background:new -293 385 24 23;" xml:space="preserve">
<style type="text/css">
	.st0{fill:#3D2B58;}
</style>
<title>1548A8C1-D660-4119-976D-91D4E2D58253</title>
<desc>Created with sketchtool.</desc>
<g id="Page-1">
	<g id="icon" transform="translate(-447.000000, -899.000000)">
		<g id="_x31_2-copy-9" transform="translate(393.000000, 882.000000)">
			<g id="Hockey_x2F_white" transform="translate(54.000000, 17.000000)">
				<g id="Shape" transform="translate(0.000000, 0.000000)">
					<path class="st0" d="M-269.8,385.3L-269.8,385.3c-0.4-0.4-1.1-0.3-1.5,0.1l0,0l0,0l-15.9,17.4c-0.2,0.2-0.5,0.3-0.7,0.3
						c-0.3,0-0.6-0.1-0.8-0.3c-0.4-0.4-0.4-1.1,0-1.6l0.3-0.3c0.3-0.3,0.3-0.8,0-1.1c0,0-0.1-0.1-0.1-0.1l-1.3-0.9
						c-0.3-0.2-0.7-0.2-0.9,0.1l0,0l0,0l-0.8,0.8c-1.8,1.8-1.8,4.7,0,6.5c0.9,0.9,2,1.4,3.3,1.4h0.1c1.1,0,2.2-0.4,3-1.2
						c0.1-0.1,0.1-0.1,0.2-0.2c4-4.2,13.6-17,15.5-19.6C-269.3,386.3-269.4,385.6-269.8,385.3z M-286.9,405.9
						c-0.5,0.2-1,0.3-1.5,0.3c-0.5,0-1-0.1-1.5-0.3c-0.2-0.1-0.3-0.3-0.2-0.5c0.1-0.2,0.3-0.3,0.5-0.2c0.8,0.3,1.6,0.3,2.4,0
						c0.2-0.1,0.4,0,0.5,0.2C-286.6,405.5-286.7,405.8-286.9,405.9L-286.9,405.9z M-282.5,397.7
						C-282.5,397.7-282.5,397.7-282.5,397.7L-282.5,397.7L-282.5,397.7z M-284.1,399.4L-284.1,399.4
						C-284,399.3-284,399.3-284.1,399.4L-284.1,399.4z M-282,401.5l-1.7-1.4l0.5-0.6l1.6,1.3L-282,401.5z M-280.6,399.7l-1.6-1.3
						l0.5-0.6l1.5,1.3L-280.6,399.7z M-272.4,389.1L-272.4,389.1l-0.7-0.6l0.5-0.6l0.7,0.6L-272.4,389.1z M-271.3,387.7l-0.6-0.5
						l0.5-0.6l0.5,0.5L-271.3,387.7z"/>
					<path class="st0" d="M-272.3,401.4c-1.7,0-3.2,1.4-3.2,3.2s1.4,3.2,3.2,3.2s3.2-1.4,3.2-3.2S-270.6,401.4-272.3,401.4z
						 M-272,403.7c-0.5,0-0.9,0.3-1.1,0.7c-0.1,0.2-0.3,0.2-0.5,0.1c-0.2-0.1-0.2-0.3-0.1-0.5c0.3-0.7,1-1.1,1.8-1.1
						c0.2,0,0.4,0.2,0.4,0.4C-271.6,403.6-271.8,403.7-272,403.7z"/>
				</g>
			</g>
		</g>
	</g>
</g>
</svg>
