<svg width="25" height="24" viewBox="0 0 25 24" fill="none" xmlns="http://www.w3.org/2000/svg">
<g clip-path="url(#clip0)">
<path d="M2.01329 16.5522L3.68284 17.1682L5.56436 17.0689L6.37848 17.8903C6.30812 18.8278 6.24287 19.7482 6.24268 19.7508L3.86828 21.9143L0.341309 18.2483L2.01329 16.5522Z" fill="#7E5436"/>
<path d="M11.2172 8.81854L13.0339 8.64233L14.6984 10.2976L14.5718 12.1536L6.24266 19.7514L3.68286 17.1682L11.2172 8.81854Z" fill="#F6A96C"/>
<path d="M12.8442 7.01676C13.47 6.31424 14.2449 5.05157 14.2449 5.05157L15.6354 4.45349L18.9363 7.75438C18.5675 8.25022 18.0966 8.88444 18.0901 8.89677C18.016 9.03927 14.6904 12.046 14.5717 12.1542L11.2168 8.81849L12.8442 7.01676Z" fill="#7E5436"/>
<path d="M14.2449 5.05167L14.4948 4.59023C14.8793 3.88092 15.2487 3.05766 15.6298 2.0565C15.7713 1.71248 15.9821 1.40283 16.2725 1.11234C16.9777 0.399609 17.9555 0.00482813 19.0274 0C19.0342 0 19.0411 0 19.048 0C20.3684 0 21.7122 0.582281 22.7414 1.60402C23.7645 2.63466 24.3475 3.98737 24.3413 5.31398C24.3365 6.38583 23.9417 7.36364 23.2317 8.06606C22.4153 8.88384 21.4355 9.08161 20.4082 8.63939C19.7731 8.36953 19.0775 8.37502 18.5488 8.65519L18.0901 8.89688L14.2449 5.05167Z" fill="#F6A96C"/>
<path d="M22.6694 16.5522L20.9998 17.1682L19.1183 17.0689L18.3042 17.8903C18.3746 18.8278 18.4398 19.7482 18.44 19.7508L20.8144 21.9143L24.3414 18.2483L22.6694 16.5522Z" fill="#966641"/>
<path d="M12.3413 18.375C10.7945 18.375 9.52881 19.6406 9.52881 21.1875C9.52881 22.7343 10.7945 24 12.3413 24C13.8881 24 15.1538 22.7343 15.1538 21.1875C15.1538 19.6406 13.8881 18.375 12.3413 18.375Z" fill="#ECECF1"/>
<path d="M13.4653 8.81854L11.6487 8.64233L9.98413 10.2976L10.1107 12.1536L18.4399 19.7514L20.9997 17.1682L13.4653 8.81854Z" fill="#FED2A4"/>
<path d="M11.8384 7.01683C11.2125 6.31432 10.4376 5.05164 10.4376 5.05164L9.04723 4.45361L5.74634 7.7545C6.11506 8.25035 6.58601 8.88457 6.59248 8.89689C6.66659 9.03939 9.99218 12.0461 10.1109 12.1543L13.4658 8.81861L11.8384 7.01683Z" fill="#966641"/>
<path d="M15.1538 21.1875C15.1538 22.7343 13.8881 24 12.3413 24V18.375C13.8881 18.375 15.1538 19.6406 15.1538 21.1875Z" fill="#D3D3D8"/>
<path d="M6.59256 8.89688L6.13389 8.65519C5.60519 8.37502 4.90961 8.36953 4.27445 8.63939C3.24723 9.08161 2.2674 8.88384 1.45098 8.06606C0.740967 7.36359 0.346185 6.38578 0.341357 5.31394C0.33517 3.98733 0.918154 2.63466 1.94125 1.60397C2.97053 0.582281 4.31429 0 5.63472 0C5.64156 0 5.64845 0 5.65529 0C6.72714 0.00482813 7.70495 0.399609 8.41014 1.11234C8.70058 1.40278 8.91137 1.71248 9.05284 2.0565C9.43394 3.05761 9.80336 3.88092 10.1879 4.59023L10.4378 5.05167L6.59256 8.89688Z" fill="#FED2A4"/>
</g>
<defs>
<clipPath id="clip0">
<rect width="24" height="24" fill="white" transform="translate(0.341309)"/>
</clipPath>
</defs>
</svg>
