<svg width="15" height="28" viewBox="0 0 15 28" fill="none" xmlns="http://www.w3.org/2000/svg">
<path d="M2.30186 27.4418C3.16185 27.4418 3.95722 26.8642 4.22119 25.9669L6.72192 17.4664C7.04543 16.3667 6.44804 15.2033 5.38762 14.8678C4.32733 14.5322 3.20526 15.1518 2.88181 16.2515L0.381085 24.752C0.057579 25.8517 0.654907 27.0152 1.71538 27.3506C1.91054 27.4124 2.10789 27.4418 2.30186 27.4418Z" fill="#8CAAC8"/>
<path d="M12.3373 27.4415C12.5313 27.4415 12.7286 27.4121 12.9238 27.3504C13.9842 27.0149 14.5815 25.8515 14.2581 24.7518L11.7488 16.2224C11.4252 15.1227 10.3033 14.5033 9.24301 14.8387C8.18259 15.1741 7.58527 16.3376 7.90871 17.4373L10.418 25.9667C10.6819 26.8639 11.4774 27.4415 12.3373 27.4415Z" fill="#8CAAC8"/>
<path d="M6.31604 5.58268H8.32344C8.8778 5.58268 9.32715 5.1167 9.32715 4.54181V1.41917C9.32715 0.844284 8.8778 0.378296 8.32344 0.378296H6.31604C5.76168 0.378296 5.31233 0.844284 5.31233 1.41917V4.54181C5.31233 5.11663 5.76168 5.58268 6.31604 5.58268Z" fill="#FAB991"/>
<path d="M11.3342 5.58264H3.3046V14.9505H11.3342V5.58264Z" fill="#D7E6F0"/>
<path d="M1.79899 9.74615H3.30454C3.58169 9.74615 3.8064 9.51313 3.8064 9.22571V6.10308C3.8064 5.81567 3.58169 5.58264 3.30454 5.58264H1.79899C1.52184 5.58264 1.29714 5.81567 1.29714 6.10308V9.22571C1.29714 9.51313 1.52184 9.74615 1.79899 9.74615Z" fill="#AAC3D7"/>
<path d="M7.31978 7.6644L8.32349 5.58264H6.31608L7.31978 7.6644Z" fill="#F0915A"/>
<path d="M13.3416 11.8279H11.3341V5.58264C12.4428 5.58264 13.3416 6.51468 13.3416 7.6644V11.8279Z" fill="#AAC3D7"/>
<path d="M1.79899 7.6644H3.8064V6.10308C3.8064 5.81567 3.58169 5.58264 3.30454 5.58264H1.79899C1.52184 5.58264 1.29714 5.81567 1.29714 6.10308V7.14396C1.29714 7.43137 1.52184 7.6644 1.79899 7.6644Z" fill="#FAB991"/>
<path d="M2.97 8.18487H3.30454C3.58169 8.18487 3.8064 7.95184 3.8064 7.66443H2.46815C2.46815 7.95184 2.69285 8.18487 2.97 8.18487Z" fill="#F0915A"/>
<path d="M11.8361 11.3075H13.8435V12.8688C13.8435 13.1562 13.6188 13.3893 13.3417 13.3893H11.8361C11.559 13.3893 11.3342 13.1562 11.3342 12.8688V11.8279C11.3342 11.5405 11.559 11.3075 11.8361 11.3075Z" fill="#FAB991"/>
<path d="M13.0071 10.787H13.3417C13.6188 10.787 13.8435 11.02 13.8435 11.3074H12.5053C12.5053 11.0199 12.73 10.787 13.0071 10.787Z" fill="#F0915A"/>
<path d="M12.3381 24.8389C13.4467 24.8389 14.3455 25.7709 14.3455 26.9206C14.3455 27.208 14.1208 27.4411 13.8436 27.4411H10.8325C10.5553 27.4411 10.3306 27.208 10.3306 26.9206C10.3306 25.7708 11.2294 24.8389 12.3381 24.8389Z" fill="#FAB991"/>
<path d="M2.30094 24.8389C3.4096 24.8389 4.30835 25.7709 4.30835 26.9206C4.30835 27.208 4.08365 27.4411 3.8065 27.4411H0.795387C0.518239 27.4411 0.293535 27.208 0.293535 26.9206C0.293535 25.7708 1.19229 24.8389 2.30094 24.8389Z" fill="#FAB991"/>
<path d="M11.9507 15.3064L12.3996 16.7031C12.6163 17.3771 12.1325 18.0732 11.4474 18.0732H3.19185C2.50676 18.0732 2.02304 17.3772 2.23965 16.7031L2.68862 15.3064C2.75694 15.0939 2.9487 14.9506 3.16469 14.9506H11.4746C11.6906 14.9506 11.8824 15.0939 11.9507 15.3064Z" fill="#D7E6F0"/>
<path d="M9.07613 13.3892L5.31224 5.58264H6.31595L10.0798 13.3892H9.07613Z" fill="#464646"/>
<path d="M7.31974 7.6644L8.32344 5.58264H9.32715L7.82159 8.70527L7.31974 7.6644Z" fill="#464646"/>
<path d="M11.3342 13.3892H3.3046V14.9505H11.3342V13.3892Z" fill="#5F7DBE"/>
<path d="M9.32725 4.02128V2.45996C9.6044 2.45996 9.8291 2.69299 9.8291 2.9804V3.50084C9.8291 3.78825 9.6044 4.02128 9.32725 4.02128Z" fill="#F0915A"/>
<path d="M5.31201 4.02128V2.45996C5.03486 2.45996 4.81016 2.69299 4.81016 2.9804V3.50084C4.81016 3.78825 5.03486 4.02128 5.31201 4.02128Z" fill="#F0915A"/>
<path d="M9.32715 2.98049C9.05 2.98049 8.8253 2.74746 8.8253 2.46005V1.93961H5.81419V2.46005C5.81419 2.74746 5.58948 2.98049 5.31233 2.98049V1.41917C5.31233 0.844284 5.76168 0.378296 6.31604 0.378296H8.32344C8.8778 0.378296 9.32715 0.844284 9.32715 1.41917V2.98049Z" fill="#464646"/>
<path d="M8.8253 19.1141H8.32344C8.0463 19.1141 7.82159 18.881 7.82159 18.5936V14.9506H9.32715V18.5936C9.32715 18.881 9.10244 19.1141 8.8253 19.1141Z" fill="#5055A5"/>
<path d="M6.31578 19.1141H5.81392C5.53678 19.1141 5.31207 18.881 5.31207 18.5936V14.9506H6.81763V18.5936C6.81763 18.881 6.59292 19.1141 6.31578 19.1141Z" fill="#5055A5"/>
</svg>
