<svg width="23" height="22" viewBox="0 0 23 22" fill="none" xmlns="http://www.w3.org/2000/svg">
<g clip-path="url(#clip0)">
<path d="M12.165 7.06408L12.2912 6.8247C12.5897 6.25842 13.2087 5.2444 14.0024 4.81488C15.2127 4.16 16.8023 4.25642 16.8693 4.26084L17.813 4.32311L17.0744 4.9138C16.633 5.2679 15.9222 6.01758 15.8946 6.52121C15.8878 6.64587 15.9247 6.74134 16.0141 6.83076C16.0141 6.83076 16.0141 6.8308 16.0141 6.83085C16.0342 6.85087 16.057 6.87068 16.0821 6.88976C16.3043 7.0588 16.492 7.21963 16.6403 7.36787C16.7893 7.51689 17.2428 7.97042 17.0994 8.4512C17.0133 8.73939 16.7545 8.93034 16.33 9.01877C16.017 9.084 15.4895 9.32733 15.1029 9.5848L14.8525 9.75161L12.165 7.06408Z" fill="#FD9727"/>
<path d="M9.54344 9.23621L1.1797 20.6554C0.933317 20.9918 0.969067 21.4576 1.26392 21.7524C1.55886 22.0473 2.0249 22.083 2.3613 21.8364L13.7751 13.4678L9.54344 9.23621Z" fill="#AF8A82"/>
<path d="M12.6389 12.3315L1.22511 20.7001C1.18803 20.7273 1.14914 20.7505 1.10931 20.7708C0.945 21.0923 1.00155 21.49 1.264 21.7524C1.55894 22.0473 2.02498 22.083 2.36138 21.8364L13.7752 13.4678L12.6389 12.3315Z" fill="#927266"/>
<path d="M21.9787 7.07823C22.018 6.92637 21.8593 6.80026 21.7198 6.87206C20.0043 7.75533 17.7453 7.28791 18.3302 6.29619C18.9542 5.23805 21.6946 5.53651 22.5629 3.3659C23.1175 1.97929 22.7089 0.780939 22.3413 0.0961462C22.2524 -0.0694124 22.0037 -0.0079671 22.0003 0.179892C21.9884 0.840451 21.7659 1.77524 20.6636 2.06351C18.9 2.52478 16.3004 0.686408 13.6906 2.47051C11.712 3.82313 12.1488 6.22487 12.4698 7.2892C12.7058 6.78548 13.3617 5.57922 14.1774 5.13776C15.3084 4.52571 16.8453 4.6272 16.8453 4.6272C16.8453 4.6272 14.7282 6.3206 15.8601 7.18187C16.9919 8.04313 16.9769 8.50913 16.2554 8.65943C15.8256 8.74898 15.0868 9.10532 14.6456 9.46501L15.3457 10.1489C15.3457 10.1489 18.5473 10.9629 20.2295 9.66056C21.4045 8.75091 21.8294 7.65581 21.9787 7.07823Z" fill="#FED130"/>
<path d="M21.9986 0.238476C21.9984 0.244492 21.998 0.250593 21.9978 0.256652C21.9972 0.270402 21.9966 0.284195 21.9958 0.29816C21.9953 0.305593 21.9949 0.313113 21.9944 0.320589C21.9936 0.333437 21.9927 0.346285 21.9917 0.359261C21.9911 0.367253 21.9904 0.375289 21.9898 0.383324C21.9886 0.396257 21.9874 0.409277 21.9861 0.422339C21.9853 0.430203 21.9846 0.438023 21.9837 0.445929C21.9821 0.460711 21.9803 0.475578 21.9785 0.490488C21.9777 0.496675 21.977 0.502863 21.9763 0.509093C21.9736 0.529675 21.9706 0.550343 21.9674 0.571097C21.9663 0.578144 21.965 0.585234 21.9638 0.592281C21.9615 0.606461 21.9592 0.62064 21.9566 0.634863C21.9549 0.6438 21.9532 0.652781 21.9515 0.661761C21.9491 0.674093 21.9467 0.686468 21.9441 0.698843C21.9421 0.708554 21.9399 0.718308 21.9378 0.728019C21.9351 0.739793 21.9324 0.751609 21.9296 0.763425C21.9272 0.773351 21.9249 0.783277 21.9223 0.793203C21.9193 0.805148 21.9161 0.817093 21.9129 0.828996C21.9103 0.838707 21.9077 0.848375 21.905 0.858086C21.901 0.871879 21.8968 0.885672 21.8926 0.899464C21.888 0.914289 21.8833 0.92907 21.8784 0.943851C21.874 0.956871 21.8698 0.969933 21.8652 0.98291C21.8615 0.993265 21.8576 1.00353 21.8538 1.01385C21.8497 1.02472 21.8457 1.03559 21.8414 1.04642C21.8372 1.0572 21.8327 1.0679 21.8283 1.0786C21.824 1.08891 21.8197 1.09918 21.8152 1.10941C21.8105 1.12032 21.8056 1.13119 21.8006 1.14202C21.7961 1.15195 21.7914 1.16183 21.7866 1.17171C21.7813 1.18267 21.7761 1.19367 21.7706 1.20459C21.7656 1.21434 21.7604 1.22396 21.7553 1.23368C21.7496 1.2445 21.744 1.25537 21.738 1.26607C21.7276 1.28477 21.7168 1.30328 21.7056 1.32168C21.699 1.33237 21.6921 1.34294 21.6853 1.35356C21.6795 1.36271 21.6737 1.37186 21.6677 1.38093C21.6605 1.39159 21.6531 1.40211 21.6457 1.41264C21.6395 1.42145 21.6332 1.43021 21.6268 1.43894C21.6191 1.44946 21.6112 1.45986 21.6032 1.47022C21.5966 1.47877 21.5898 1.48723 21.583 1.4957C21.5747 1.50597 21.5664 1.51624 21.5577 1.52638C21.5507 1.53463 21.5434 1.54279 21.5362 1.55096C21.5272 1.56105 21.5184 1.57119 21.5091 1.58112C21.5019 1.58886 21.4943 1.59633 21.4869 1.60394C21.469 1.62233 21.4504 1.64042 21.4313 1.65816C21.4232 1.66573 21.4152 1.67333 21.4069 1.68077C21.3966 1.68992 21.3859 1.69877 21.3753 1.70775C21.3664 1.71523 21.3575 1.72279 21.3483 1.73014C21.3374 1.73886 21.3263 1.74741 21.3151 1.75592C21.3056 1.76314 21.296 1.77031 21.2862 1.7774C21.2748 1.78574 21.2631 1.79399 21.2513 1.80211C21.2411 1.80907 21.2307 1.81586 21.2203 1.82269C21.2083 1.83055 21.1963 1.83842 21.1839 1.84607C21.1728 1.8529 21.1613 1.85943 21.1499 1.86609C21.1376 1.87331 21.1254 1.8807 21.1127 1.88766C21.11 1.89453 21.1076 1.90132 21.1049 1.9082C20.2366 4.07881 17.8242 3.64977 17.1865 4.69975C16.6164 5.63832 17.29 7.24445 18.5768 7.0877C18.2587 6.90422 18.1333 6.63003 18.33 6.29638C18.9417 5.25912 21.5867 5.52505 22.5088 3.4916C22.5273 3.44992 22.5458 3.40828 22.5627 3.36609C22.736 2.93279 22.8152 2.51784 22.8311 2.13121C22.8343 2.05386 22.8349 1.97768 22.8332 1.9027C22.8316 1.82772 22.8276 1.75394 22.8216 1.68145C22.8096 1.53652 22.7894 1.3967 22.763 1.26272C22.7432 1.16222 22.7199 1.06502 22.6939 0.971308C22.6766 0.908832 22.6581 0.847945 22.6387 0.788691C22.6192 0.729437 22.5988 0.671859 22.5777 0.615957C22.5039 0.420406 22.4215 0.246039 22.3412 0.0962496C22.3023 0.0238473 22.2328 -0.00515665 22.1667 0.000901943C22.1194 0.00519882 22.0739 0.0274137 22.0424 0.0644098C22.0172 0.0940152 22.001 0.133074 22.0002 0.180039C21.9999 0.199289 21.9993 0.218796 21.9986 0.238476Z" fill="#F7BC14"/>
<path d="M21.9787 7.07831C22.018 6.92646 21.8593 6.80035 21.7198 6.87215C21.0457 7.21925 20.2877 7.35765 19.6512 7.33776C19.4188 7.63008 19.1303 7.9251 18.7715 8.20285C17.8819 8.89164 16.5673 8.98841 15.526 8.92679C15.2094 9.07765 14.884 9.27076 14.6455 9.46519L15.3456 10.1491C15.3456 10.1491 18.5472 10.9631 20.2294 9.66074C21.4045 8.751 21.8294 7.6559 21.9787 7.07831Z" fill="#F7BC14"/>
<path d="M13.1792 11.7746L11.237 9.83238C10.025 8.62036 9.64478 6.80609 10.2683 5.20941L10.2872 5.16095C10.3526 4.9935 10.5683 4.94825 10.6955 5.07539L17.9359 12.3158C18.0621 12.442 18.0186 12.656 17.8533 12.7229C16.2462 13.3743 14.4053 13.0007 13.1792 11.7746Z" fill="#B9BBC1"/>
<path d="M17.936 12.3157L16.9852 11.3649L16.4837 11.5682C14.9693 12.1819 13.2348 11.8299 12.0793 10.6746L13.1793 11.7745C14.4054 13.0006 16.2462 13.3742 17.8534 12.7229C18.0187 12.6558 18.0621 12.4419 17.936 12.3157Z" fill="#A0A3AA"/>
<path d="M14.0882 14.0839L8.89546 8.89116C8.75848 8.75417 8.75848 8.53207 8.89546 8.39508L9.3863 7.90425C9.52328 7.76727 9.74539 7.76727 9.88241 7.90425L15.0751 13.0969C15.2121 13.2339 15.2121 13.456 15.0751 13.5931L14.5843 14.0839C14.4473 14.2209 14.2252 14.2209 14.0882 14.0839Z" fill="#FFB125"/>
<path d="M15.0751 13.097L14.1976 12.2195L13.2107 13.2064L14.0882 14.0839C14.2252 14.2209 14.4473 14.2209 14.5843 14.0839L15.0751 13.5931C15.2122 13.4561 15.2122 13.234 15.0751 13.097Z" fill="#FF901D"/>
</g>
<defs>
<clipPath id="clip0">
<rect width="22" height="22" fill="white" transform="translate(0.925293)"/>
</clipPath>
</defs>
</svg>
