<?xml version="1.0" encoding="UTF-8" standalone="no"?>
<!-- Created with Inkscape (http://www.inkscape.org/) -->
<svg id="svg2" xmlns:rdf="http://www.w3.org/1999/02/22-rdf-syntax-ns#" xmlns="http://www.w3.org/2000/svg" height="141.36mm" width="225.78mm" version="1.1" xmlns:cc="http://creativecommons.org/ns#" xmlns:dc="http://purl.org/dc/elements/1.1/" viewBox="0 0 799.99998 500.89795">
 <metadata id="metadata7">
  <rdf:RDF>
   <cc:Work rdf:about="">
    <dc:format>image/svg+xml</dc:format>
    <dc:type rdf:resource="http://purl.org/dc/dcmitype/StillImage"/>
    <dc:title/>
   </cc:Work>
  </rdf:RDF>
 </metadata>
 <g id="layer1" transform="translate(-156.03 37.073)">
  <g id="g4246" transform="matrix(1.9475 0 0 1.9475 -147.84 -439.46)">
   <ellipse id="ellipse4218" rx="205.4" ry="128.19" cy="335.22" cx="361.43" fill="#3a4d7a"/>
   <path id="path4242" d="m400 0c-165.65 0.14178-313.3 68.518-368.96 170.86-22.792 47.82 240.24 60.64 368.96 60.72 128.74-0.14 393.78-15.46 368.96-60.91-55.76-102.27-203.39-170.56-368.96-170.67zm-100.3 268.85c-132.69-0.08-293.01 5.69-268.66 61.38 55.753 102.26 203.39 170.55 368.96 170.67 165.64-0.14 313.3-68.52 368.96-170.86 26.96-48.56-240.24-60.64-368.96-60.72-28.16 0.03-63.15-0.45-100.3-0.47z" transform="matrix(.51349 0 0 .51349 156.03 206.62)" fill="#329432"/>
   <path id="ellipse4173" d="m400.01 14.131c-152.85 0.124-289.1 60.157-340.46 150.01-21.028 41.99 221.68 53.24 340.46 53.31 118.79-0.12 363.35-13.58 340.45-53.48-51.44-89.783-187.67-149.74-340.45-149.84zm-92.59 268.88c-122.44-0.07-270.36 4.99-247.9 53.89 51.45 89.78 187.68 149.74 340.46 149.84 152.85-0.12 289.1-60.16 340.45-150.01 24.89-42.63-221.68-53.24-340.45-53.31-25.99 0.03-58.28-0.4-92.56-0.41z" transform="matrix(.51349 0 0 .51349 156.03 206.62)" fill="#e7e5e3"/>
  </g>
 </g>
</svg>
