<svg width="30" height="30" viewBox="0 0 30 30" fill="none" xmlns="http://www.w3.org/2000/svg">
<g clip-path="url(#clip0)">
<path d="M23.2258 20.2574L12.1091 9.14076L15.5857 5.27798C16.0753 4.73372 16.0536 3.90144 15.536 3.38381C14.9844 2.8323 14.085 2.84878 13.5543 3.42057L9.51069 7.77538C8.80308 8.53759 8.82483 9.72274 9.56048 10.4579L13.5591 14.4574L6.30908 21.7074V23.6408H23.0909L23.2258 20.2574Z" fill="#FDC9A6"/>
<path d="M20.4046 15.5126L19.7221 14.8282C18.5911 13.6938 18.594 11.8576 19.7284 10.7271L21.6762 8.78511C22.8106 7.65411 24.6468 7.65699 25.7773 8.79139L26.4597 9.47578C27.5907 10.6102 27.5879 12.4464 26.4535 13.5768L24.5056 15.5189C23.3718 16.6499 21.5356 16.647 20.4046 15.5126Z" fill="#FDC9A6"/>
<path d="M22.1765 8.3906L26.8499 13.0775C27.5633 11.9572 27.4366 10.4554 26.4598 9.47573L25.7774 8.79134C24.8001 7.81157 23.2988 7.6801 22.1765 8.3906Z" fill="#277BAA"/>
<path d="M22.1192 13.2056C22.1187 13.2056 22.1177 13.2056 22.1168 13.2056C21.7296 13.2051 21.3657 13.0539 21.0921 12.7793L20.4096 12.0949C20.1361 11.8209 19.9857 11.4564 19.9867 11.0688C19.9872 10.6817 20.1384 10.3177 20.413 10.0442C20.6866 9.77109 21.05 9.62122 21.4367 9.62122C21.4377 9.62122 21.4382 9.62122 21.4391 9.62122C21.8263 9.62173 22.1902 9.77296 22.4638 10.0475L23.1463 10.7319C23.4199 11.0059 23.5702 11.3704 23.5697 11.758C23.5692 12.1456 23.4179 12.5095 23.1434 12.7827C22.8694 13.0558 22.5059 13.2056 22.1192 13.2056Z" fill="#176177"/>
<path d="M24.5078 15.602C24.5073 15.602 24.5068 15.602 24.5059 15.602C24.1182 15.6015 23.7543 15.4502 23.4812 15.1757L22.7987 14.4908C22.2342 13.9248 22.2356 13.0046 22.8016 12.44C23.0752 12.167 23.4386 12.0171 23.8253 12.0171C23.8263 12.0171 23.8268 12.0171 23.8278 12.0171C24.2149 12.0176 24.5789 12.1688 24.8524 12.4434L25.5349 13.1283C25.8085 13.4023 25.9588 13.7668 25.9583 14.1539C25.9578 14.5416 25.8066 14.9055 25.532 15.1786C25.2584 15.4517 24.8944 15.602 24.5078 15.602Z" fill="#176177"/>
<path d="M20.4047 15.5125L19.3593 16.3907L19.0263 16.6647L17.6473 15.2254L17.9093 14.9407L19.3593 13.974" fill="#FDC9A6"/>
<path d="M21.4347 12.4385L20.7522 11.7541C20.3752 11.3761 20.3762 10.7637 20.7542 10.3873C21.1321 10.0103 21.7445 10.0112 22.121 10.3892L22.8035 11.0736C23.1805 11.4515 23.1795 12.0639 22.8016 12.4404C22.4236 12.8174 21.8117 12.8165 21.4347 12.4385Z" fill="#6FBBC6"/>
<path d="M23.8233 14.8342L23.1408 14.1499C22.7638 13.7719 22.7648 13.1595 23.1427 12.783C23.5207 12.406 24.1331 12.407 24.5096 12.7849L25.192 13.4693C25.569 13.8473 25.5681 14.4597 25.1901 14.8362C24.8126 15.2132 24.2003 15.2122 23.8233 14.8342Z" fill="#6FBBC6"/>
<path d="M0.992554 27.6312H29.9926V22.6742C25.1592 22.6742 25.1592 19.7742 20.3254 19.7742C15.4916 19.7742 15.4921 22.6742 10.6583 22.6742C5.82541 22.6742 5.82541 19.7742 0.992554 19.7742L0.992554 27.6312Z" fill="#6CBAE5"/>
<path d="M0.992554 23.6407C5.82541 23.6407 5.82541 26.5407 10.6583 26.5407C15.4916 26.5407 15.4916 23.6407 20.3254 23.6407C25.1592 23.6407 25.1587 26.5407 29.9926 26.5407V27.6311H0.992554V23.6407Z" fill="#4799CF"/>
</g>
<defs>
<clipPath id="clip0">
<rect width="29" height="29" fill="white" transform="translate(0.992554 0.805908)"/>
</clipPath>
</defs>
</svg>
