<?xml version="1.0" encoding="iso-8859-1"?>
<!-- Generator: Adobe Illustrator 19.0.0, SVG Export Plug-In . SVG Version: 6.00 Build 0)  -->
<svg version="1.1" id="Capa_1" xmlns="http://www.w3.org/2000/svg" xmlns:xlink="http://www.w3.org/1999/xlink" x="0px" y="0px"
	 viewBox="0 0 359.843 359.843" style="enable-background:new 0 0 359.843 359.843;" xml:space="preserve">
<g id="XMLID_1263_">
	<g id="XMLID_1264_">
		<polygon id="XMLID_1265_" style="fill:#6DA8D6;" points="233.361,296.954 233.361,222.869 126.482,222.869 126.482,296.954 
			60.758,296.954 60.758,330.69 299.085,330.69 299.085,296.954 		"/>
		<polygon id="XMLID_1268_" style="fill:#2974A8;" points="233.361,296.954 233.361,222.869 179.922,222.869 179.922,296.954 
			179.922,297.947 179.922,330.69 299.085,330.69 299.085,296.954 		"/>
	</g>
	<g id="XMLID_1269_">
		<rect id="XMLID_54_" y="29.154" style="fill:#6DA8D6;" width="359.843" height="271.536"/>
		<rect id="XMLID_1272_" x="179.922" y="29.154" style="fill:#2974A8;" width="179.922" height="271.536"/>
	</g>
	<g id="XMLID_1273_">
		<rect id="XMLID_47_" x="26.751" y="56.305" style="fill:#DEDFE8;" width="306.342" height="217.232"/>
		<rect id="XMLID_1277_" x="179.922" y="56.305" style="fill:#C9C7D7;" width="153.171" height="217.232"/>
	</g>
	<path id="XMLID_1280_" style="fill:#D77258;" d="M249.602,99.614c-5.606-5.606-22.925-10.105-43.585-9.662
		c-4.944,0.107-10.077,0.491-15.29,1.213c-20.128,2.793-44.178,13.362-59.989,29.174c-15.815,15.815-26.381,39.861-29.173,59.989
		c-0.722,5.213-1.11,10.351-1.213,15.29c-0.443,20.66,4.052,37.983,9.658,43.589c5.606,5.606,22.929,10.101,43.589,9.658
		c4.94-0.103,10.077-0.491,15.29-1.213c20.128-2.793,44.174-13.358,59.989-29.173c15.848-15.848,26.516-39.863,29.364-59.96
		c0.738-5.205,1.133-10.335,1.248-15.271C259.955,122.714,255.443,105.455,249.602,99.614z"/>
	<polygon id="XMLID_1283_" style="fill:#F9E375;" points="225.906,135.087 220.018,129.198 220.018,129.198 214.129,123.31 
		200.055,137.384 190.241,127.57 182.198,135.612 192.012,145.426 177.938,159.501 168.124,149.687 160.082,157.729 
		169.896,167.543 155.821,181.617 146.007,171.803 137.965,179.846 147.779,189.66 133.705,203.734 139.593,209.623 
		139.593,209.623 145.482,215.511 159.556,201.437 169.37,211.251 177.412,203.208 167.598,193.394 181.672,179.32 191.487,189.134 
		199.529,181.092 189.715,171.277 203.789,157.203 213.603,167.017 221.646,158.975 211.832,149.161 	"/>
	<path id="XMLID_1286_" style="fill:#D14F4E;" d="M249.602,99.614c-5.606-5.606-22.925-10.105-43.585-9.662
		c-4.943,0.107-10.077,0.491-15.29,1.213c-3.503,0.486-7.129,1.222-10.805,2.166V245.43c17.382-4.502,35.95-13.946,48.956-26.951
		c15.848-15.848,26.516-39.863,29.364-59.96c0.738-5.205,1.133-10.335,1.248-15.271C259.955,122.715,255.443,105.455,249.602,99.614
		z"/>
	<polygon id="XMLID_1289_" style="fill:#F5D361;" points="225.906,135.087 220.018,129.198 214.129,123.31 200.055,137.384 
		190.241,127.57 182.198,135.612 192.012,145.426 179.922,157.517 179.922,181.071 181.672,179.32 191.487,189.134 199.529,181.092 
		189.715,171.277 203.789,157.203 213.603,167.017 221.646,158.975 211.832,149.161 	"/>
</g>
<g>
</g>
<g>
</g>
<g>
</g>
<g>
</g>
<g>
</g>
<g>
</g>
<g>
</g>
<g>
</g>
<g>
</g>
<g>
</g>
<g>
</g>
<g>
</g>
<g>
</g>
<g>
</g>
<g>
</g>
</svg>
