<svg width="34" height="33" viewBox="0 0 34 33" fill="none" xmlns="http://www.w3.org/2000/svg">
<path d="M26.2424 9.79688C24.5338 9.79688 23.1487 8.41176 23.1487 6.70312C23.1487 4.99449 24.5338 3.60938 26.2424 3.60938C27.9511 3.60938 29.3362 4.99449 29.3362 6.70312C29.3362 8.41176 27.9511 9.79688 26.2424 9.79688Z" fill="#FD7422"/>
<path d="M23.654 5.0087L24.0169 5.12987C24.8156 5.39526 25.5103 5.90559 26.0024 6.58837C26.4945 7.27114 26.7589 8.09163 26.7581 8.93325V9.75374C27.1212 9.69304 27.4706 9.5675 27.7893 9.38313V8.93325C27.7904 7.89331 27.4693 6.87856 26.8701 6.02853C26.271 5.1785 25.4233 4.53493 24.4435 4.18628C24.1317 4.40913 23.8639 4.688 23.654 5.0087Z" fill="#FD7422"/>
<path d="M23.654 5.0087L24.0169 5.12987C24.8156 5.39526 25.5103 5.90559 26.0024 6.58837C26.4945 7.27114 26.7589 8.09163 26.7581 8.93325V9.75374C27.1212 9.69304 27.4706 9.5675 27.7893 9.38313V8.93325C27.7904 7.89331 27.4693 6.87856 26.8701 6.02853C26.271 5.1785 25.4233 4.53493 24.4435 4.18628C24.1317 4.40913 23.8639 4.688 23.654 5.0087Z" fill="#DC651E"/>
<path d="M17.9924 17.5312L23.6643 15.9844L22.633 9.28125L23.1486 6.70312H24.6955V8.25L25.7268 9.28125L27.5144 15.0909C27.6942 15.6754 27.7109 16.298 27.5625 16.8913C27.3757 17.6388 26.9371 18.2993 26.3207 18.7616L21.0861 22.6875V23.9301C21.0861 24.1302 21.0396 24.3276 20.9501 24.5066L20.3953 25.6161L16.0931 26.7809L13.4162 26.8761L10.0044 25.7897L9.36283 24.5066C9.27336 24.3276 9.22678 24.1302 9.22677 23.9301V21.6562L7.16427 22.6875V24.2344L8.19552 25.2656L7.60642 25.9261L5.6174 26.2969L4.22521 22.5848C4.12286 22.3117 4.07047 22.0225 4.07053 21.7308C4.07053 21.2506 4.21266 20.7812 4.47901 20.3817C4.74537 19.9822 5.12402 19.6704 5.56726 19.4857L9.45275 17.8668C9.98433 17.6453 10.5545 17.5312 11.1304 17.5312H17.9924Z" fill="#FDC9A6"/>
<path d="M2.52368 27.457C4.12547 27.457 4.93526 27.108 5.71843 26.7704C6.43727 26.4606 7.11616 26.168 8.50493 26.168C9.8937 26.168 10.5728 26.4606 11.2915 26.7704C12.0749 27.108 12.8848 27.457 14.4866 27.457C16.0883 27.457 16.8981 27.108 17.6813 26.7704C18.4 26.4606 19.0789 26.168 20.4678 26.168C21.8568 26.168 22.5355 26.4606 23.2542 26.7704C24.0374 27.108 24.8471 27.457 26.4487 27.457C28.0502 27.457 28.8602 27.108 29.6434 26.7704C30.3622 26.4606 31.0411 26.168 32.4299 26.168C32.5667 26.168 32.6978 26.1136 32.7945 26.0169C32.8912 25.9202 32.9456 25.7891 32.9456 25.6523C32.9456 25.5156 32.8912 25.3844 32.7945 25.2877C32.6978 25.191 32.5667 25.1367 32.4299 25.1367C30.8283 25.1367 30.0185 25.4858 29.2353 25.8233C28.5166 26.1332 27.8377 26.4258 26.4487 26.4258C25.0597 26.4258 24.381 26.1332 23.6623 25.8233C22.8793 25.4858 22.0695 25.1367 20.4678 25.1367C18.8662 25.1367 18.0562 25.4858 17.2731 25.8233C16.5544 26.1332 15.8755 26.4258 14.4866 26.4258C13.0977 26.4258 12.4187 26.1332 11.7 25.8233C10.9168 25.4858 10.1069 25.1367 8.50493 25.1367C6.90295 25.1367 6.09329 25.4858 5.30999 25.8233C4.59153 26.1332 3.91265 26.4258 2.52368 26.4258C2.38693 26.4258 2.25578 26.4801 2.15908 26.5768C2.06238 26.6735 2.00806 26.8047 2.00806 26.9414C2.00806 27.0782 2.06238 27.2093 2.15908 27.306C2.25578 27.4027 2.38693 27.457 2.52368 27.457Z" fill="#92D1F7"/>
<path d="M2.52368 29.5195C4.12547 29.5195 4.93526 29.1705 5.71843 28.8329C6.43727 28.5231 7.11616 28.2305 8.50493 28.2305C9.8937 28.2305 10.5728 28.5231 11.2915 28.8329C12.0749 29.1705 12.8848 29.5195 14.4866 29.5195C16.0883 29.5195 16.8981 29.1705 17.6813 28.8329C18.4 28.5231 19.0789 28.2305 20.4678 28.2305C21.8568 28.2305 22.5355 28.5231 23.2542 28.8329C24.0374 29.1705 24.8471 29.5195 26.4487 29.5195C28.0502 29.5195 28.8602 29.1705 29.6434 28.8329C30.3622 28.5231 31.0411 28.2305 32.4299 28.2305C32.5667 28.2305 32.6978 28.1761 32.7945 28.0794C32.8912 27.9827 32.9456 27.8516 32.9456 27.7148C32.9456 27.5781 32.8912 27.4469 32.7945 27.3502C32.6978 27.2535 32.5667 27.1992 32.4299 27.1992C30.8283 27.1992 30.0185 27.5483 29.2353 27.8858C28.5166 28.1957 27.8377 28.4883 26.4487 28.4883C25.0597 28.4883 24.381 28.1957 23.6623 27.8858C22.8793 27.5483 22.0695 27.1992 20.4678 27.1992C18.8662 27.1992 18.0562 27.5483 17.2731 27.8858C16.5544 28.1957 15.8755 28.4883 14.4866 28.4883C13.0977 28.4883 12.4187 28.1957 11.7 27.8858C10.9168 27.5483 10.1069 27.1992 8.50493 27.1992C6.90295 27.1992 6.09329 27.5483 5.30999 27.8858C4.59153 28.1957 3.91265 28.4883 2.52368 28.4883C2.38693 28.4883 2.25578 28.5426 2.15908 28.6393C2.06238 28.736 2.00806 28.8672 2.00806 29.0039C2.00806 29.1407 2.06238 29.2718 2.15908 29.3685C2.25578 29.4652 2.38693 29.5195 2.52368 29.5195Z" fill="#92D1F7"/>
<path d="M13.7423 14.4375H13.3818C13.3818 13.8905 13.5991 13.3659 13.9859 12.9791C14.3727 12.5923 14.8973 12.375 15.4443 12.375C15.9913 12.375 16.5159 12.5923 16.9027 12.9791C17.2895 13.3659 17.5068 13.8905 17.5068 14.4375V15.9844C17.5068 15.9966 17.5061 16.0086 17.5059 16.0207L17.4768 15.9844C16.4864 14.9939 15.143 14.4375 13.7423 14.4375Z" fill="#005DBB"/>
<path d="M13.7423 14.4375C15.143 14.4375 16.4863 14.9939 17.4768 15.9844L17.5059 16.0207C17.4964 16.5613 17.2751 17.0765 16.8895 17.4555C16.504 17.8344 15.985 18.0468 15.4443 18.0469C14.8973 18.0469 14.3727 17.8296 13.9859 17.4428C13.5991 17.056 13.3818 16.5314 13.3818 15.9844V14.4375H13.7423Z" fill="#FDC9A6"/>
</svg>
