<svg width="25" height="25" viewBox="0 0 25 25" fill="none" xmlns="http://www.w3.org/2000/svg">
<path d="M21.4618 20.407C20.5837 20.407 19.7943 20.7904 19.2529 21.3981C18.7115 20.7904 17.9221 20.407 17.0441 20.407C16.1562 20.407 15.3683 20.8072 14.8266 21.4266C14.2849 20.8072 13.4969 20.407 12.6091 20.407C11.7223 20.407 10.9351 20.8063 10.3934 21.4244C9.85174 20.8063 9.0645 20.407 8.1777 20.407C7.29676 20.407 6.50452 20.7932 5.96311 21.4046C5.42171 20.7932 4.62942 20.407 3.74848 20.407C2.11997 20.407 0.795654 21.7262 0.795654 23.3476C0.795654 23.7536 1.12582 24.0828 1.53388 24.0828C1.9419 24.0828 2.27206 23.7536 2.27206 23.3476C2.27206 22.5367 2.9346 21.8773 3.74847 21.8773C4.56238 21.8773 5.22488 22.5367 5.22488 23.3476C5.22488 23.7536 5.55505 24.0828 5.9631 24.0828C6.37112 24.0828 6.70128 23.7536 6.70128 23.3476C6.70128 22.5367 7.36382 21.8773 8.17769 21.8773C8.9916 21.8773 9.65411 22.5367 9.65411 23.3476C9.65411 23.7536 9.98428 24.0828 10.3923 24.0828C10.3927 24.0828 10.393 24.0825 10.3934 24.0825L10.3945 24.0828C10.8025 24.0828 11.1327 23.7536 11.1327 23.3476C11.1327 22.5367 11.7952 21.8773 12.6091 21.8773C13.423 21.8773 14.0855 22.5367 14.0855 23.3476C14.0855 23.7536 14.4157 24.0828 14.8237 24.0828C14.8247 24.0828 14.8256 24.0822 14.8266 24.0822C14.8276 24.0822 14.8284 24.0828 14.8295 24.0828C15.2375 24.0828 15.5677 23.7536 15.5677 23.3476C15.5677 22.5367 16.2302 21.8773 17.0441 21.8773C17.8068 21.8773 18.4369 22.4566 18.5126 23.1969C18.5104 23.2467 18.5089 23.297 18.5089 23.3476C18.5089 23.7536 18.8506 24.0828 19.2587 24.0828C19.6667 24.0828 19.9969 23.7536 19.9969 23.3476C19.9969 23.297 19.9954 23.2467 19.9933 23.1969C20.069 22.4566 20.6991 21.8773 21.4618 21.8773C22.2757 21.8773 22.9382 22.5367 22.9382 23.3476C22.9382 23.7536 23.2683 24.0828 23.6764 24.0828C24.0844 24.0828 24.4146 23.7536 24.4146 23.3476C24.4146 21.7262 23.0903 20.407 21.4618 20.407Z" fill="#25A3DE"/>
<path d="M11.4285 8.81309C12.4648 8.24785 13.8291 8.60175 14.4325 9.70619C15.0208 10.7897 14.6104 12.1296 13.5394 12.7028L11.9673 13.5516L12.7054 17.7218C12.7201 17.8178 12.8161 17.8842 12.912 17.8695L24.1679 15.884C24.2713 15.8692 24.3451 15.7585 24.3229 15.6552C22.5072 7.89786 17.717 2.85668 9.95228 0.539071C9.81943 0.502174 9.68657 0.620298 9.70874 0.753147L11.1554 8.96072L11.4285 8.81309Z" fill="#FCDB67"/>
<path d="M5.08097 9.28365C6.30388 9.28365 7.29525 8.29228 7.29525 7.06938C7.29525 5.84647 6.30388 4.8551 5.08097 4.8551C3.85806 4.8551 2.8667 5.84647 2.8667 7.06938C2.8667 8.29228 3.85806 9.28365 5.08097 9.28365Z" fill="#EF5050"/>
<path d="M5.85011 10.0467L5.84836 10.0384C5.77404 10.0384 4.74073 10.0384 4.81506 10.0384C3.85555 10.0384 3.15435 10.9389 3.38316 11.8689L4.18766 16.29C4.32051 16.9912 4.92575 17.4931 5.64172 17.5005L8.23243 17.5078C8.38001 17.5078 8.5129 17.5965 8.57192 17.7367L9.0812 19.0283C9.53882 19.1243 9.9817 19.3014 10.395 19.5376C10.7272 19.3457 11.0814 19.1907 11.4505 19.0874L10.6091 16.2826C10.4171 15.6626 9.84885 15.2345 9.19933 15.2272H7.24336C7.07362 15.2198 6.92599 15.1017 6.88909 14.9319L6.20268 11.7064L6.20169 11.7018L9.50643 12.928C9.58932 12.959 9.67618 12.9741 9.76304 12.9741C9.88449 12.9741 10.0056 12.9442 10.1148 12.8848L12.8365 11.4086C13.1951 11.2143 13.3281 10.7664 13.1335 10.4081C12.9388 10.0499 12.4909 9.91618 12.133 10.1112L9.70573 11.4277L6.08303 10.0834C6.0063 10.0548 5.92787 10.0491 5.85011 10.0467Z" fill="#EF5050"/>
</svg>
