<!--?xml version="1.0" encoding="utf-8"?-->
<!-- Generator: Adobe Illustrator 19.1.1, SVG Export Plug-In . SVG Version: 6.00 Build 0)  -->
<svg version="1.1" id="_x31_0" xmlns="http://www.w3.org/2000/svg" xmlns:xlink="http://www.w3.org/1999/xlink" x="0px" y="0px" viewBox="0 0 512 512" style="width: 256px; height: 256px; opacity: 1;" xml:space="preserve">
<style type="text/css">
	.st0{fill:#374149;}
</style>
<g>
	<path class="st0" d="M400.86,364.09h-0.324c-16.622-5.539-41.914-22.004-48.738-27.703c-1.848-4.981-5.703-18.39-8.434-30.832
		c-1.766-7.633-7.227-13.652-14.211-16.222v-6.426c10.359-10.519,21.68-22.644,24.89-45.93l0.562-3.851
		c8.434-4.258,15.821-12.129,21.52-23.047c4.258-8.191,18.629-45.691,5.703-65.687c-1.77-2.649-3.856-4.898-6.266-6.661
		c2.492-13.171,3.812-26.742,3.777-40.472c-0.027-8.946-1.144-17.047-2.98-24.532c-0.051-0.214-0.114-0.418-0.164-0.629
		c-0.813-3.199-1.762-6.27-2.86-9.21c-0.238-0.653-0.484-1.298-0.738-1.938c-0.977-2.434-2.043-4.774-3.199-7.035
		c-0.391-0.77-0.77-1.551-1.18-2.301c-1.168-2.114-2.43-4.129-3.742-6.09c-0.43-0.64-0.832-1.316-1.274-1.937
		c-1.718-2.41-3.531-4.707-5.449-6.879c-0.023-0.027-0.047-0.062-0.074-0.09C340.719,17.46,316.52,7.406,295.188,3.55
		c-54.727-9.895-74.199,1.766-91.626,24.168c-6.949-1.043-13.398-0.57-19.469,1.05c-0.007,0-0.015,0.004-0.027,0.008
		c-3.738,1-7.363,2.336-10.778,4.32c-15.234,8.856-31.613,25.23-33.566,43.594c-2.234,21.047,1.13,42.567,1.61,58.305
		c-4.496,1.77-8.351,4.981-11.16,9.395c-12.93,19.996,1.446,57.496,5.699,65.687c5.703,10.918,13.09,18.789,21.519,23.047
		l0.645,4.656c3.211,23.363,15.336,35.492,25.938,46.25l0.16,4.898c-7.546,2.328-13.652,8.672-15.418,16.703
		c-2.973,12.926-6.664,25.934-8.512,30.754c-6.746,5.621-32.039,22.164-48.82,27.703h-0.242c-14.055,0-35.414,7.551-53.238,28.828
		c-12.848,15.336-28.106,43.52-28.106,90.497v8.59c0,11.004,8.992,19.996,19.996,19.996h412.414c11,0,19.997-8.992,19.997-19.996
		v-8.59C482.204,393.238,427.356,364.09,400.86,364.09z M260.988,371.785c-0.645,0.574-1.379,1.02-2.195,1.309
		c-0.262,0.09-0.524,0.156-0.798,0.211c-0.414,0.09-0.832,0.179-1.273,0.179c-2.161,0-3.977-1.058-5.219-2.641
		c-0.141-0.214-0.32-0.402-0.434-0.64c-0.008,0.015-0.023,0.027-0.031,0.038c-0.031-0.046-0.07-0.082-0.102-0.129
		c-9.953,14.454-26.977,19.27-35.41,20.879c-7.386-18.633-5.457-38.386-0.882-45.695l36.699,14.054
		c1.203-1.687,3.05-2.809,5.379-2.809c2.246,0,4.094,1.122,5.297,2.809l36.699-14.054c4.574,7.309,6.504,27.062-0.883,45.695
		c-8.434-1.61-25.457-6.426-35.414-20.879c-0.25,0.418-0.559,0.79-0.879,1.145C261.367,371.445,261.18,371.617,260.988,371.785z
		 M132.66,492.328l-16.461-106.156c0,0,20.156-4.657,62.394-32.524c0,0,1.524,25.375,17.906,37.344
		c1.844,11.149,8.836,66.41,12.668,97.313c0.16,1.355,0.324,2.73,0.481,4.023H132.66z M206.856,296.476
		c14.695,13.09,32.121,20.395,49.144,20.395c14.778,0,29.938-5.606,43.297-15.696c2.454-1.816,4.871-3.734,7.211-5.847v13.274
		c-0.082,0.086-0.082,0.164-0.082,0.242c-0.801,7.149-25.055,22.325-50.426,32.039c-22.324-8.511-43.843-21.359-49.144-29.148
		V296.476z M302.336,492.305c3.774-29.875,11.238-89.676,13.164-101.313c16.462-11.969,17.989-37.344,17.989-37.344
		c42.234,27.867,62.309,32.524,62.309,32.524L379.34,492.328h-68.406L302.336,492.305z M350.367,207.777
		c0.399-5.39,0.871-10.859,1.266-16.09c0.082-0.641,0.164-1.286,0.242-1.93c1.606-7.062,2.891-13.164,3.375-15.493
		c0.078-0.078,4.574-11.562,7.062-16.542c0-0.082,0.164-0.485,0.324-1.203c0.078,0.078,0.078,0.16,0.161,0.16
		c4.574,7.149-1.043,31.797-6.746,42.879c-1.34,2.558-2.766,4.687-4.266,6.598C351.312,206.698,350.871,207.312,350.367,207.777z
		 M325.777,122.507l0.242,35.297l11.402,7.707c0,2.41,0.082,8.031,0.16,15.418c-0.32,3.05-0.562,6.343-0.801,9.714
		c-2.09,19.11-4.176,36.215-5.222,44.004c-1.363,10.118-5.137,17.102-10.199,23.207c-2.246,2.89-4.734,5.457-7.387,8.187
		c-2.328,2.41-4.894,4.902-7.465,7.629c-1.285,1.367-2.57,2.731-3.938,4.258c-13.328,15.258-30.109,24.09-46.57,24.09
		c-16.461,0-33.242-8.832-46.574-24.09c-0.965-0.965-1.766-1.93-2.57-2.809c-2.649-2.734-5.059-5.301-7.469-7.711
		c-2.649-2.648-5.137-5.301-7.465-7.949c-5.703-6.586-9.958-13.813-11.485-24.813c-1.043-7.547-3.05-23.93-5.141-42.477
		c0-0.484-0.078-1.042-0.078-1.527v-0.16l-1.875-25.66l18.434-10.63l6.012-56.937c7.629,10.835,30.988,34.206,65.918,34.206
		c26.317,0,49.496-5.538,59.699-8.339C324.219,122.914,325.105,122.687,325.777,122.507z M206.086,66.37
		c0.32,5.313-1.649,10.516-5.238,14.898c-0.79,0.918-1.578,1.84-2.531,2.668c-0.223-2.117-3.207-32.508,7.855-42.355
		C205.199,46.73,205.593,57.991,206.086,66.37z M149.203,156.679c0.481-0.645,0.641-0.726,0.722-0.726h0.238
		c0.485,0,0.965,0.082,1.606,0.32l4.5,9.477l2.41,9.641c0.476,4.816,0.961,9.554,1.523,14.21v0.481
		c0.375,4.55,0.722,9.25,1.058,13.902c0.059,1.278,0.145,2.55,0.172,3.828c-1.882-2.222-3.762-4.961-5.406-8.254
		C150.164,188.476,144.624,163.828,149.203,156.679z" style="fill: rgb(244, 168, 64);"></path>
</g>
</svg>
