<?xml version="1.0" encoding="utf-8"?>
<!-- Generator: Adobe Illustrator 22.1.0, SVG Export Plug-In . SVG Version: 6.00 Build 0)  -->
<svg version="1.1" id="Layer_1" xmlns="http://www.w3.org/2000/svg" xmlns:xlink="http://www.w3.org/1999/xlink" x="0px" y="0px"
	 viewBox="0 0 82.2 38.8" style="enable-background:new 0 0 82.2 38.8;" xml:space="preserve">
<style type="text/css">
	.st0{fill:#FFFFFF;}
	.st1{fill:none;}
	.st2{fill:#E0412F;}
	.st3{fill:#A22A22;}
</style>
<title>Efes_C</title>
<desc>Created with Sketch.</desc>
<g id="Sultan-3.0">
	<g id="Desktop-HD" transform="translate(-1204.000000, -1548.000000)">
		<g id="Efes_C" transform="translate(1304.000000, 1648.000000)">
			<g id="Powered_Efes_Black" transform="translate(0.194954, 0.000000)">
				<rect id="Rectangle" x="-54.1" y="-86.8" class="st0" width="31" height="25.6"/>
				<path id="Path" class="st0" d="M-65.1-82.4c-0.7-0.6-1.5-1.1-2.2-1.7c-0.4-0.3-0.8-0.8-1.1-1.2c-0.1-0.2-0.1-0.4,0-0.6
					s0.2-0.3,0.4-0.4c0.2-0.1,0.4-0.1,0.6-0.1c0.2,0.1,0.4,0.2,0.5,0.4c0.1,0.3,0.2,0.5,0.3,0.8c0.1,0.4,0.2,0.5,0.6,0.5
					s0.7,0,1.1,0s0.8,0,1.2,0c0.2,0,0.4-0.1,0.4-0.3c0-1.6-0.6-3.4-2.6-4c-0.7-0.2-1.4-0.3-2.1-0.2c-2.3,0.1-3.8,1.8-3.7,4.1
					c0.1,1.4,0.8,2.4,1.9,3.3c0.8,0.6,1.6,1.1,2.3,1.7c0.4,0.3,0.7,0.7,1,1.1c0.2,0.2,0.2,0.6,0.2,0.9c-0.1,0.3-0.2,0.6-0.5,0.7
					c-0.6,0.3-1.3,0.1-1.7-0.5c-0.1-0.3-0.2-0.6-0.3-0.9c0-0.2-0.2-0.4-0.5-0.4c-0.8,0-1.6,0-2.4,0c-0.2,0-0.4,0.1-0.4,0.3
					c0,1.4,0.4,2.6,1.5,3.5c1.7,1.3,3.6,1.3,5.4,0.4c1.7-0.8,2.5-2.4,2.1-4.2C-63.3-80.7-64.1-81.6-65.1-82.4z"/>
				<path id="Path_1_" class="st0" d="M-91.4-75.5c0-0.7,0-1.2,0-1.8c0-0.4-0.1-0.6-0.6-0.6c-0.8,0-1.6,0-2.4,0
					c-0.4,0-0.6-0.1-0.5-0.5c0-0.5,0-1.1,0-1.6c0-0.4,0.1-0.5,0.5-0.5c0.8,0,1.7,0,2.5,0c0.3,0,0.5-0.1,0.5-0.5c0-0.7,0-1.4,0-2
					c0-0.4-0.1-0.6-0.6-0.6c-0.8,0-1.6,0-2.4,0c-0.4,0-0.6-0.1-0.6-0.6s0-1,0-1.4s0.1-0.6,0.5-0.6c0.8,0,1.6,0,2.4,0
					c0.5,0,0.6-0.1,0.6-0.6c0-0.6,0-1.2,0-1.9c0-0.6,0-0.6-0.6-0.6h-5.7c-0.6,0-0.7,0-0.7,0.6c0,2.2,0,4.3,0,6.5s0,4.4,0,6.6
					c0,0.4,0.1,0.6,0.5,0.6c2,0,4,0,6,0C-91.7-75-91.4-75.1-91.4-75.5z"/>
				<path id="Path_2_" class="st0" d="M-76.9-86.1c0.8,0,1.6,0,2.5,0c0.4,0,0.5-0.2,0.5-0.5c0-0.7,0-1.3,0-1.9
					c0-0.5-0.1-0.6-0.6-0.6h-5.6c-0.8,0-0.8,0-0.8,0.7v6.4c0,2.2,0,4.4,0,6.6c0,0.4,0.1,0.6,0.5,0.6c2,0,4,0,5.9,0
					c0.4,0,0.5-0.2,0.5-0.5c0-0.7,0-1.3,0-1.9c0-0.5-0.1-0.6-0.6-0.6c-0.8,0-1.6,0-2.4,0c-0.4,0-0.5-0.1-0.5-0.5c0-0.6,0-1.1,0-1.7
					c0-0.3,0.1-0.5,0.5-0.5c0.8,0,1.6,0,2.4,0c0.6,0,0.6,0,0.6-0.6s0-1.3,0-1.9c0-0.5-0.1-0.6-0.6-0.6c-0.8,0-1.6,0-2.4,0
					c-0.4,0-0.5-0.1-0.5-0.5c0-0.5,0-1,0-1.5C-77.4-86-77.3-86.1-76.9-86.1z"/>
				<path id="Path_3_" class="st0" d="M-83.1-89.1h-5.8c-0.6,0-0.6,0-0.6,0.7c0,2.2,0,4.4,0,6.5c0,2.2,0,4.4,0,6.5
					c0,0.6,0,0.6,0.6,0.6c0.7,0,1.5,0,2.2,0c0.6,0,0.7-0.1,0.7-0.7c0-1.5,0-3,0-4.4c0-0.6,0-0.6,0.6-0.6c0.5,0,1,0,1.5,0
					c0.4,0,0.5-0.2,0.5-0.5c0-0.7,0-1.4,0-2c0-0.4-0.2-0.5-0.5-0.5c-0.5,0-1.1,0-1.6,0c-0.4,0-0.5-0.1-0.5-0.5c0-0.5,0-1,0-1.5
					c0-0.4,0.1-0.5,0.5-0.5c0.9,0,1.7,0,2.6,0c0.4,0,0.5-0.1,0.5-0.5c0-0.7,0-1.3,0-1.9C-82.5-89.1-82.6-89.1-83.1-89.1z"/>
				<path id="Path_4_" class="st1" d="M-71.8-67c-0.1,0-0.2,0-0.2,0.1c-0.1,0.1-0.1,0.1-0.1,0.2c0,0.3,0,0.5,0,0.8s0,0.6,0,0.8
					c0,0.1,0.1,0.2,0.2,0.3c0.4,0.1,0.8,0,1.1-0.3c0.3-0.4,0.3-1,0.1-1.5C-70.9-67-71.3-67-71.8-67z"/>
				<path id="Shape" class="st0" d="M-69.3-68.2c0.1-0.1,0.2-0.1,0.2-0.2c0.8-0.9,1.1-1.9,0.8-3.1c-0.4-1.2-1.2-1.9-2.4-2
					c-1.2-0.1-2.5,0-3.7,0c-0.2,0-0.3,0.2-0.3,0.4c0,3.4,0,6.9,0,10.3c0,0.3,0.1,0.4,0.4,0.4c1.2,0,2.4,0,3.5,0c1.2,0,2.3-0.8,2.7-2
					C-67.5-65.8-68-67.1-69.3-68.2z M-72-70.2c0-0.1,0-0.2,0-0.3c0-0.2-0.1-0.5,0.2-0.6c0.5-0.1,0.9,0,1,0.4
					c0.2,0.3,0.1,0.7-0.1,1.1s-0.6,0.3-0.9,0.3c-0.1,0-0.2-0.2-0.2-0.3C-72-69.8-72.1-70-72-70.2L-72-70.2z M-70.7-65
					c-0.3,0.3-0.7,0.4-1.1,0.3C-72-64.8-72-64.9-72-65c0-0.3,0-0.6,0-0.8c0-0.3,0-0.5,0-0.8c0-0.1,0-0.2,0.1-0.2
					c0.1-0.1,0.1-0.1,0.2-0.1c0.4,0,0.9,0,1.1,0.4C-70.4-66.1-70.4-65.5-70.7-65z"/>
				<path id="Path_5_" class="st0" d="M-77.1-73.5h-1.5c-0.6,0-0.6,0-0.6,0.6c0,2.2,0,4.3,0,6.5c0,0.4-0.1,0.7-0.2,1.1
					s-0.4,0.6-0.8,0.6s-0.7-0.2-0.8-0.6c-0.1-0.3-0.1-0.7-0.1-1c0-2.2,0-4.5,0-6.7c0-0.4-0.1-0.5-0.5-0.5c-0.6,0-1.1,0-1.7,0
					c-0.4,0-0.5,0-0.5,0.5c0,2,0,4,0,6c0,0.5,0,1,0.1,1.6c0.2,1.5,1,2.9,3,3.1c1.1,0.1,2.2,0,3-0.8c0.8-0.7,1.1-1.7,1.1-2.7
					c0.1-1.2,0-2.4,0-3.6c0-0.1,0-0.2,0-0.2c0-1.2,0-2.2,0-3.4C-76.6-73.4-76.7-73.5-77.1-73.5z"/>
				<path id="Path_6_" class="st0" d="M-91.5-65.6c0-0.2-0.1-0.3-0.3-0.3c-0.6,0-1.1,0-1.7,0c-0.5,0-0.5,0-0.6,0.5
					c-0.1,0.4-0.4,0.7-0.8,0.7c-0.5,0-0.7-0.2-0.9-0.7c-0.1-0.2-0.1-0.4-0.1-0.7c0-1.3,0-2.5,0-3.8c0-0.3,0-0.5,0.1-0.8
					c0.1-0.2,0.3-0.4,0.5-0.5c0.6-0.2,1.1,0.1,1.2,0.8c0.1,0.3,0.2,0.4,0.5,0.4c0.6,0,1.1,0,1.7,0c0.4,0,0.5,0,0.4-0.5
					c-0.1-1.8-1.1-2.9-2.9-3.2c-1.9-0.3-3.6,0.6-4,2.8c-0.2,0.9-0.2,1.9-0.2,2.6c0,1.1,0,2,0.1,2.8c0.2,1.4,0.8,2.5,2.2,2.9
					c0.5,0.1,1,0.2,1.6,0.2C-92.9-62.3-91.5-63.7-91.5-65.6z"/>
				<path id="Path_7_" class="st0" d="M-89.5-62.4c1.4,0,2.7,0,4.1,0c0.3,0,0.4-0.1,0.4-0.4c0-0.5,0-1,0-1.5c0-0.3-0.1-0.4-0.4-0.4
					c-0.5,0-0.9,0-1.4,0s-0.5,0-0.5-0.5V-73c0-0.5-0.1-0.5-0.5-0.5h-1.6c-0.5,0-0.5,0-0.5,0.5v5c0,1.7,0,3.4,0,5.1
					C-89.9-62.5-89.8-62.4-89.5-62.4z"/>
				<path id="Path_8_" class="st2" d="M-19-99.4l-8.4,7.2c0.4-2.1,0.3-4.5-0.5-7.2l-5.8,6.5c-0.7-1.5-2.3-3.9-4.8-7.2
					c-2.5,3.3-4.1,5.6-4.8,7.2l-5.9-6.5c-0.8,2.7-1,5.1-0.5,7.2l-8.4-7.2c-0.1,2.7,0.3,5.1,1.3,7.2c0.3,0.6,0.7,1.4,1.2,2.5
					c11.3-2.2,22.9-2.2,34.2-0.1c0.5-1,0.9-1.8,1.1-2.4C-19.3-94.3-18.8-96.7-19-99.4z"/>
				<path id="Path_9_" class="st2" d="M-51.3-71.5c0.2-0.3,0.9-1,2.2-2.2c0.3-0.3,0.7-0.6,1.1-0.9c0,0,0.2-0.2,0.6-0.5l0,0l0,0l0,0
					c0.4-0.2,0.7-0.5,1-0.8c0.2-0.2,0.3-0.3,0.5-0.5l0,0c0.1-0.1,0.2-0.2,0.3-0.3c2.8-2.7,5.1-6.1,7-10.1l0,0l0,0
					c1.9,4,4.2,7.4,7,10.1c0.1,0.1,0.2,0.2,0.3,0.3l0,0c0.2,0.1,0.4,0.3,0.5,0.5c0.3,0.3,0.7,0.6,1,0.8l0,0l0,0l0,0
					c0.4,0.3,0.6,0.5,0.6,0.5c0.4,0.3,0.7,0.6,1.1,0.9c1.3,1.2,2,1.9,2.2,2.2c2.3,3.6,3.8,7.1,4.5,10.3V-87c0-0.1,0.1-0.1,0.1-0.2
					c-11.4-2.4-22.9-2.4-34.6,0c0,0.1,0.1,0.1,0.1,0.2v25.8C-55.1-64.4-53.6-67.8-51.3-71.5z"/>
				<path id="Path_10_" class="st3" d="M-25.8-71.5c0.3,1.8-0.8,4-3.6,6.4c-1.4,1.2-2.1,2.4-2.2,3.4c0,0.1,0,0.3,0,0.4h10.2
					C-22.1-64.4-23.5-67.8-25.8-71.5z"/>
				<path id="Path_11_" class="st2" d="M-29.5-74.9l-0.2-0.2l0,0L-29.5-74.9z"/>
				<path id="Path_12_" class="st3" d="M-30.7-75.9c-0.2-0.2-0.3-0.3-0.5-0.5l0,0c-1.9,0.3-3.5,1.6-4.8,3.8c2.5-1.7,4.7-2.6,6.4-2.5
					l0,0C-30-75.3-30.4-75.6-30.7-75.9z"/>
				<path id="Path_13_" class="st3" d="M-47.7-65c-2.7-2.5-3.9-4.6-3.6-6.4c-2.3,3.6-3.8,7.1-4.5,10.3h10.2c0-0.1,0-0.3,0-0.4
					C-45.7-62.7-46.4-63.8-47.7-65z"/>
				<path id="Path_14_" class="st2" d="M-47.7-74.9l0.2-0.2l0,0L-47.7-74.9z"/>
				<path id="Path_15_" class="st3" d="M-47.5-75.1L-47.5-75.1c1.7,0,3.9,0.8,6.4,2.5c-1.3-2.3-2.9-3.6-4.8-3.8l0,0
					c-0.2,0.1-0.4,0.3-0.5,0.5C-46.8-75.6-47.1-75.3-47.5-75.1z"/>
				<path id="Path_16_" class="st3" d="M-37-62.7c-0.9,0.6-2.2,0.6-3.1,0c-1.3,0.2-2.2,0.7-2.9,1.5l0,0h9l0,0
					C-34.8-62-35.8-62.5-37-62.7z"/>
				<path id="Path_17_" class="st3" d="M-28.4-73.1c-2.6-1-4.9-0.4-6.8,1.9C-31.7-70.2-29.4-70.8-28.4-73.1z"/>
				<path id="Path_18_" class="st3" d="M-48.7-73.1c1,2.3,3.3,3,6.8,1.9C-43.8-73.5-46.1-74.2-48.7-73.1z"/>
				<path id="Path_19_" class="st3" d="M-37.4-66l-0.8,0.3c-0.3,0.1-0.6,0.1-0.9,0l-0.8-0.3c-0.4-0.1-0.8-0.1-1.4,0.1
					c0.5,0.2,1.3,0.7,2.6,1.7c1.3-1,2.2-1.6,2.6-1.7C-36.5-66.1-37-66.2-37.4-66z"/>
				<path id="Shape_1_" class="st2" d="M-97.2-93.9v1.9H-98v-4.9h1.9c0.2,0,0.4,0,0.7,0.1c0.2,0.1,0.4,0.2,0.5,0.3
					c0.1,0.1,0.2,0.3,0.3,0.5c0.1,0.4,0.1,0.8,0,1.2c-0.1,0.2-0.2,0.3-0.3,0.5c-0.1,0.1-0.3,0.2-0.5,0.3c-0.2,0.1-0.4,0.1-0.7,0.1
					H-97.2z M-96.3-94.6c0.2,0,0.5-0.1,0.6-0.2c0.2-0.1,0.2-0.3,0.2-0.6c0-0.2-0.1-0.4-0.2-0.6c-0.2-0.2-0.4-0.2-0.6-0.2h-0.9v1.5
					L-96.3-94.6z"/>
				<path id="Shape_2_" class="st2" d="M-92.7-95.5c0.2,0,0.5,0,0.7,0.1s0.4,0.2,0.6,0.4c0.2,0.2,0.3,0.4,0.4,0.6s0.1,0.5,0.1,0.7
					s0,0.5-0.1,0.7s-0.2,0.4-0.4,0.6c-0.2,0.2-0.4,0.3-0.6,0.4c-0.5,0.2-1,0.2-1.4,0c-0.2-0.1-0.4-0.2-0.6-0.4
					c-0.2-0.2-0.3-0.4-0.4-0.6s-0.1-0.5-0.1-0.7s0-0.5,0.1-0.7s0.2-0.4,0.4-0.6c0.2-0.2,0.4-0.3,0.6-0.4
					C-93.2-95.4-92.9-95.5-92.7-95.5z M-92.7-92.6c0.1,0,0.2,0,0.4-0.1c0.1-0.1,0.2-0.1,0.3-0.2c0.1-0.1,0.2-0.2,0.2-0.3
					c0.1-0.1,0.1-0.3,0.1-0.5s0-0.3-0.1-0.5c0-0.1-0.1-0.2-0.2-0.3c-0.1-0.1-0.2-0.2-0.3-0.2c-0.1,0-0.2-0.1-0.4-0.1
					c-0.1,0-0.2,0-0.4,0.1c-0.1,0-0.2,0.1-0.3,0.2c-0.1,0.1-0.2,0.2-0.2,0.3c-0.1,0.1-0.1,0.3-0.1,0.5s0,0.3,0.1,0.5
					c0,0.1,0.1,0.2,0.2,0.3c0.1,0.1,0.2,0.2,0.3,0.2C-92.9-92.6-92.8-92.6-92.7-92.6z"/>
				<polygon id="Path_20_" class="st2" points="-87.5,-95.3 -86.7,-93 -86,-95.3 -85.2,-95.3 -86.3,-92 -87.1,-92 -87.9,-94.4 
					-88.8,-92 -89.6,-92 -90.7,-95.3 -89.8,-95.3 -89.1,-93 -88.3,-95.3 				"/>
				<path id="Shape_3_" class="st2" d="M-81.7-92.9c0,0.1-0.1,0.3-0.2,0.4s-0.2,0.2-0.3,0.3c-0.1,0.1-0.3,0.2-0.4,0.2
					c-0.2,0.1-0.4,0.1-0.6,0.1s-0.4,0-0.7-0.1c-0.2-0.1-0.4-0.2-0.6-0.4c-0.2-0.2-0.3-0.4-0.4-0.6s-0.1-0.5-0.1-0.8s0-0.5,0.1-0.7
					s0.2-0.4,0.4-0.6c0.2-0.2,0.3-0.3,0.5-0.4s0.4-0.1,0.6-0.1s0.5,0,0.7,0.1s0.4,0.2,0.5,0.4c0.1,0.2,0.3,0.3,0.3,0.6
					c0.1,0.2,0.1,0.5,0.1,0.7c0,0.1,0,0.1,0,0.2v0.1h-2.5c0,0.1,0,0.2,0.1,0.4c0.1,0.1,0.1,0.2,0.2,0.3c0.1,0.1,0.2,0.1,0.3,0.2
					c0.1,0,0.2,0.1,0.4,0.1c0.2,0,0.4,0,0.6-0.2c0.1-0.1,0.2-0.3,0.3-0.4L-81.7-92.9z M-82.5-94c0-0.1,0-0.2-0.1-0.3
					c0-0.1-0.1-0.2-0.2-0.2c-0.1-0.1-0.2-0.1-0.3-0.2c-0.1,0-0.2-0.1-0.4-0.1c-0.1,0-0.2,0-0.3,0.1c-0.1,0-0.2,0.1-0.3,0.2
					c-0.1,0.1-0.1,0.2-0.2,0.2c0,0.1-0.1,0.2-0.1,0.3H-82.5z"/>
				<path id="Path_21_" class="st2" d="M-78.9-94.5c-0.1,0-0.2,0-0.3,0c-0.3,0-0.5,0.1-0.7,0.3c-0.2,0.2-0.2,0.5-0.2,0.7v1.6h-0.8
					v-3.4h0.8v0.5c0.1-0.2,0.2-0.3,0.4-0.4c0.2-0.1,0.4-0.2,0.6-0.2h0.1h0.1V-94.5z"/>
				<path id="Shape_4_" class="st2" d="M-75.3-92.9c0,0.1-0.1,0.3-0.2,0.4s-0.2,0.2-0.3,0.3c-0.1,0.1-0.3,0.2-0.4,0.2
					c-0.2,0.1-0.4,0.1-0.6,0.1s-0.4,0-0.7-0.1c-0.2-0.1-0.4-0.2-0.6-0.4c-0.2-0.2-0.3-0.4-0.4-0.6s-0.1-0.5-0.1-0.8s0-0.5,0.1-0.7
					s0.2-0.4,0.4-0.6c0.2-0.2,0.3-0.3,0.5-0.4s0.4-0.1,0.6-0.1s0.5,0,0.7,0.1s0.4,0.2,0.5,0.4c0.1,0.2,0.3,0.3,0.3,0.6
					c0.1,0.2,0.1,0.5,0.1,0.7c0,0.1,0,0.1,0,0.2v0.1h-2.5c0,0.1,0,0.2,0.1,0.4c0.1,0.1,0.1,0.2,0.2,0.3c0.1,0.1,0.2,0.1,0.3,0.2
					c0.1,0,0.2,0.1,0.4,0.1c0.2,0,0.4,0,0.6-0.2c0.1-0.1,0.2-0.3,0.3-0.4L-75.3-92.9z M-76.1-94c0-0.1,0-0.2-0.1-0.3
					c0-0.1-0.1-0.2-0.2-0.2c-0.1-0.1-0.2-0.1-0.3-0.2c-0.1,0-0.2-0.1-0.4-0.1c-0.1,0-0.2,0-0.3,0.1c-0.1,0-0.2,0.1-0.3,0.2
					c-0.1,0.1-0.1,0.2-0.2,0.2c0,0.1-0.1,0.2-0.1,0.3H-76.1z"/>
				<path id="Shape_5_" class="st2" d="M-71.4-92.6c0,0.2,0,0.3,0,0.4s0,0.2,0,0.2h-0.8c0-0.1,0-0.1,0-0.2s0-0.2,0-0.2
					c-0.1,0.2-0.2,0.3-0.4,0.4c-0.2,0.1-0.4,0.2-0.6,0.2s-0.5,0-0.7-0.1s-0.4-0.2-0.5-0.4c-0.1-0.2-0.3-0.4-0.3-0.6
					c-0.1-0.2-0.1-0.5-0.1-0.7s0-0.5,0.1-0.7s0.2-0.4,0.3-0.6c0.1-0.2,0.3-0.3,0.5-0.4s0.4-0.1,0.7-0.1c0.1,0,0.3,0,0.4,0
					s0.2,0.1,0.3,0.1c0.1,0,0.1,0.1,0.2,0.2c0,0.1,0.1,0.1,0.1,0.2V-97h0.8V-92.6z M-74-93.7c0,0.3,0.1,0.6,0.3,0.8
					c0.2,0.2,0.4,0.3,0.7,0.3c0.3,0,0.5-0.1,0.7-0.3c0.1-0.1,0.1-0.2,0.2-0.3c0-0.1,0.1-0.3,0.1-0.4c0-0.3-0.1-0.6-0.2-0.8
					c-0.2-0.2-0.4-0.3-0.7-0.3c-0.3,0-0.5,0.1-0.7,0.3C-73.9-94.2-74-93.9-74-93.7L-74-93.7z"/>
				<path id="Shape_6_" class="st2" d="M-68.7-92v-5h0.8v2.1c0.1-0.2,0.2-0.3,0.4-0.4c0.2-0.1,0.4-0.2,0.7-0.2c0.2,0,0.5,0,0.7,0.1
					s0.4,0.2,0.5,0.4c0.1,0.2,0.2,0.4,0.3,0.6c0.1,0.2,0.1,0.5,0.1,0.7s0,0.5-0.1,0.7s-0.2,0.4-0.3,0.6c-0.1,0.2-0.3,0.3-0.5,0.4
					s-0.4,0.1-0.7,0.1c-0.2,0-0.4,0-0.6-0.1s-0.3-0.2-0.4-0.4v0.5L-68.7-92L-68.7-92z M-66.1-93.7c0-0.3-0.1-0.6-0.3-0.8
					c-0.2-0.2-0.4-0.3-0.7-0.3c-0.2,0-0.5,0.1-0.7,0.3c-0.2,0.2-0.3,0.5-0.3,0.8c0,0.2,0,0.3,0.1,0.4c0,0.1,0.1,0.2,0.2,0.3
					c0.1,0.1,0.2,0.2,0.3,0.2c0.1,0,0.2,0.1,0.4,0.1c0.3,0,0.5-0.1,0.7-0.3C-66.2-93.1-66.1-93.4-66.1-93.7z"/>
				<polygon id="Path_22_" class="st2" points="-64.5,-90.6 -63.7,-92.4 -65.2,-95.3 -64.2,-95.3 -63.3,-93.2 -62.3,-95.3 
					-61.5,-95.3 -63.7,-90.6 				"/>
			</g>
		</g>
	</g>
</g>
</svg>
