<?xml version="1.0" encoding="utf-8"?>
<!-- Generator: Adobe Illustrator 25.4.1, SVG Export Plug-In . SVG Version: 6.00 Build 0)  -->
<svg version="1.1" id="Layer_2" xmlns="http://www.w3.org/2000/svg" xmlns:xlink="http://www.w3.org/1999/xlink" x="0px" y="0px"
	 viewBox="0 0 51.2 41.6" style="enable-background:new 0 0 51.2 41.6;" xml:space="preserve">
<style type="text/css">
	.st0{fill:#03A9F4;}
</style>
<path id="twitter_1_" class="st0" d="M51.2,4.9c-1.9,0.8-4,1.4-6,1.7c2.2-1.3,3.8-3.4,4.6-5.8c-2.1,1.2-4.3,2.1-6.7,2.5
	c-4-4.2-10.6-4.4-14.8-0.5c-2.1,2-3.3,4.8-3.3,7.7c0,0.8,0.1,1.6,0.2,2.4c-8.4-0.4-16.3-4.4-21.6-11c-2.8,4.8-1.4,10.9,3.2,14
	c-1.7,0-3.3-0.5-4.7-1.3v0.1c0,5,3.5,9.3,8.4,10.3c-0.9,0.2-1.8,0.4-2.8,0.3c-0.7,0-1.3,0-2-0.2c1.4,4.3,5.3,7.2,9.8,7.3
	c-3.7,2.9-8.3,4.5-13,4.5c-0.8,0-1.7,0-2.5-0.1c4.8,3.1,10.4,4.7,16.1,4.7c19.3,0,29.9-16,29.9-29.9c0-0.5,0-0.9,0-1.4
	C48,8.9,49.8,7,51.2,4.9z"/>
</svg>
