<?xml version="1.0" encoding="UTF-8"?>
<!DOCTYPE svg PUBLIC "-//W3C//DTD SVG 1.1//EN" "http://www.w3.org/Graphics/SVG/1.1/DTD/svg11.dtd">
<!-- Creator: CorelDRAW 2021 (64-Bit) -->
<svg xmlns="http://www.w3.org/2000/svg" xml:space="preserve" width="0.8in" height="1.12in" version="1.1" style="shape-rendering:geometricPrecision; text-rendering:geometricPrecision; image-rendering:optimizeQuality; fill-rule:evenodd; clip-rule:evenodd"
viewBox="0 0 45.38 63.53"
 xmlns:xlink="http://www.w3.org/1999/xlink"
 xmlns:xodm="http://www.corel.com/coreldraw/odm/2003">
 <defs>
  <style type="text/css">
   <![CDATA[
    .fil2 {fill:none}
    .fil0 {fill:white}
    .fil5 {fill:#AFC8E8;fill-rule:nonzero}
    .fil1 {fill:#1EA5DE;fill-rule:nonzero;fill-opacity:0.149020}
    .fil3 {fill:url(#id1);fill-rule:nonzero}
    .fil6 {fill:url(#id2);fill-rule:nonzero}
    .fil7 {fill:url(#id3);fill-rule:nonzero}
    .fil4 {fill:url(#id4);fill-rule:nonzero}
   ]]>
  </style>
   <clipPath id="id0">
    <path d="M3.94 0l37.5 0c2.17,0 3.94,1.77 3.94,3.94l0 55.65c0,2.17 -1.77,3.94 -3.94,3.94l-37.5 0c-2.17,0 -3.94,-1.77 -3.94,-3.94l0 -55.65c0,-2.17 1.77,-3.94 3.94,-3.94z"/>
   </clipPath>
  <linearGradient id="id1" gradientUnits="userSpaceOnUse" x1="15.56" y1="33.75" x2="28.47" y2="33.54">
   <stop offset="0" style="stop-opacity:1; stop-color:#1EA5DE"/>
   <stop offset="0.368627" style="stop-opacity:1; stop-color:#0F7FBE"/>
   <stop offset="1" style="stop-opacity:1; stop-color:#194886"/>
  </linearGradient>
  <linearGradient id="id2" gradientUnits="userSpaceOnUse" xlink:href="#id1" x1="-25874.14" y1="-4308.18" x2="-27545.16" y2="-4283.74">
  </linearGradient>
  <linearGradient id="id3" gradientUnits="userSpaceOnUse" xlink:href="#id1" x1="-25930.76" y1="-4325.76" x2="-27661.71" y2="-4299.84">
  </linearGradient>
  <linearGradient id="id4" gradientUnits="userSpaceOnUse" xlink:href="#id1" x1="1742.47" y1="3681.19" x2="3480.46" y2="3681.19">
  </linearGradient>
 </defs>
 <g id="Layer_x0020_1">
  <metadata id="CorelCorpID_0Corel-Layer"/>
  <path class="fil0" d="M3.94 0l37.5 0c2.17,0 3.94,1.77 3.94,3.94l0 55.65c0,2.17 -1.77,3.94 -3.94,3.94l-37.5 0c-2.17,0 -3.94,-1.77 -3.94,-3.94l0 -55.65c0,-2.17 1.77,-3.94 3.94,-3.94z"/>
  <g style="clip-path:url(#id0)">
   <g id="_2684459781680">
    <g>
     <path id="_1" class="fil1" d="M28.74 3.4c0,0 -0.58,6.57 9.23,10.39l0.82 -3.62 7.12 7.84c0,0 -9.16,-0.54 -15.12,-6.62 -2.47,-2.49 -3.65,-5.9 -2.04,-7.99z"/>
     <path class="fil1" d="M27.47 8.14c0,0 -0.02,5.14 10.21,8.84 3.39,1.59 8.06,1.91 8.06,1.91 0,0 -2.37,2.7 -8.5,2.99l0.3 -2.96c0,0 -11.52,-3.8 -10.06,-10.79z"/>
     <path class="fil1" d="M29.67 5.97c0,0 -1.55,-3.84 2.65,-4.04l-0.02 1.03c0,0 -3.09,-0.14 -2.62,3.02z"/>
     <path class="fil1" d="M30.27 6.32c0,0 -0.89,-2.21 1.52,-2.33l-0.02 0.59c0,0 -1.78,-0.08 -1.51,1.74z"/>
     <path class="fil1" d="M47.65 13.05c0,0 0.62,-6.56 -9.18,-10.44l-0.84 3.61 -7.08 -7.87c0,0 9.16,0.58 15.09,6.7 2.46,2.5 3.63,5.91 2,8z"/>
     <path class="fil1" d="M48.94 8.31c0,0 0.05,-5.14 -10.16,-8.89 -3.38,-1.6 -8.06,-1.95 -8.06,-1.95 0,0 2.38,-2.69 8.52,-2.95l-0.31 2.96c0,0 11.5,3.86 10.01,10.84z"/>
     <path class="fil1" d="M46.73 10.47c0,0 1.53,3.85 -2.67,4.03l0.03 -1.03c0,0 3.09,0.16 2.64,-3z"/>
     <path class="fil1" d="M46.14 10.12c0,0 0.88,2.21 -1.54,2.32l0.02 -0.59c0,0 1.78,0.09 1.52,-1.73z"/>
    </g>
    <g>
     <path class="fil1" d="M-2.43 51.39c0,0 -0.58,6.57 9.23,10.39l0.82 -3.62 7.12 7.84c0,0 -9.16,-0.54 -15.12,-6.62 -2.47,-2.49 -3.65,-5.9 -2.04,-7.99z"/>
     <path class="fil1" d="M-3.7 56.14c0,0 -0.02,5.14 10.21,8.84 3.39,1.59 8.06,1.91 8.06,1.91 0,0 -2.37,2.7 -8.5,2.99l0.3 -2.96c0,0 -11.52,-3.8 -10.06,-10.79z"/>
     <path class="fil1" d="M-1.5 53.96c0,0 -1.55,-3.84 2.65,-4.04l-0.02 1.03c0,0 -3.09,-0.14 -2.62,3.02z"/>
     <path class="fil1" d="M-0.9 54.31c0,0 -0.89,-2.21 1.52,-2.33l-0.02 0.59c0,0 -1.78,-0.08 -1.51,1.74z"/>
     <path class="fil1" d="M16.48 61.04c0,0 0.62,-6.56 -9.18,-10.44l-0.84 3.61 -7.08 -7.87c0,0 9.16,0.58 15.09,6.7 2.46,2.5 3.63,5.91 2,8z"/>
     <path class="fil1" d="M17.77 56.3c0,0 0.05,-5.14 -10.16,-8.89 -3.38,-1.6 -8.06,-1.95 -8.06,-1.95 0,0 2.38,-2.69 8.52,-2.95l-0.31 2.96c0,0 11.5,3.86 10.01,10.84z"/>
     <path class="fil1" d="M15.56 58.47c0,0 1.53,3.85 -2.67,4.03l0.03 -1.03c0,0 3.09,0.16 2.64,-3z"/>
     <path class="fil1" d="M14.97 58.12c0,0 0.88,2.21 -1.54,2.32l0.02 -0.59c0,0 1.78,0.09 1.52,-1.73z"/>
    </g>
   </g>
  </g>
  <path class="fil2" d="M3.94 0l37.5 0c2.17,0 3.94,1.77 3.94,3.94l0 55.65c0,2.17 -1.77,3.94 -3.94,3.94l-37.5 0c-2.17,0 -3.94,-1.77 -3.94,-3.94l0 -55.65c0,-2.17 1.77,-3.94 3.94,-3.94z"/>
  <g id="_2684459753840">
   <path class="fil3" d="M15.43 28.08c0,0 -0.45,5.04 7.08,7.97l0.63 -2.78 5.46 6.01c0,0 -7.03,-0.41 -11.6,-5.08 -1.89,-1.91 -2.8,-4.52 -1.57,-6.13z"/>
   <path class="fil4" d="M14.45 31.72c0,0 -0.02,3.94 7.83,6.78 2.6,1.22 6.18,1.47 6.18,1.47 0,0 -1.82,2.07 -6.52,2.3l0.23 -2.27c0,0 -8.84,-2.91 -7.72,-8.28z"/>
   <path class="fil5" d="M16.14 30.05c0,0 -1.19,-2.94 2.03,-3.1l-0.02 0.79c0,0 -2.37,-0.11 -2.01,2.31z"/>
   <path class="fil5" d="M16.6 30.32c0,0 -0.68,-1.69 1.17,-1.79l-0.01 0.46c0,0 -1.37,-0.06 -1.16,1.33z"/>
   <path class="fil6" d="M29.93 35.49c0,0 0.47,-5.03 -7.04,-8.01l-0.64 2.77 -5.43 -6.04c0,0 7.03,0.45 11.58,5.14 1.88,1.92 2.78,4.54 1.53,6.14z"/>
   <path class="fil7" d="M30.92 31.85c0,0 0.04,-3.94 -7.8,-6.82 -2.59,-1.23 -6.18,-1.5 -6.18,-1.5 0,0 1.83,-2.06 6.54,-2.26l-0.24 2.27c0,0 8.82,2.96 7.68,8.31z"/>
   <path class="fil5" d="M29.23 33.51c0,0 1.17,2.95 -2.05,3.09l0.02 -0.79c0,0 2.37,0.12 2.02,-2.3z"/>
   <path class="fil5" d="M28.77 33.24c0,0 0.68,1.69 -1.18,1.78l0.01 -0.45c0,0 1.36,0.07 1.17,-1.33z"/>
  </g>
 </g>
</svg>
