<svg width="144" height="121" viewBox="0 0 144 121" xmlns="http://www.w3.org/2000/svg" xmlns:xlink="http://www.w3.org/1999/xlink"><title>ELK_Tag-web</title><defs><path id="a" d="M0 .251h143.903V120.94H0z"/></defs><g fill="none" fill-rule="evenodd"><mask id="b" fill="#fff"><use xlink:href="#a"/></mask><path fill="#259BFF" mask="url(#b)" d="M143.903 114.954L0 121V.251h143.903v114.703"/><path d="M19.91 101.07c2.225 0 3.041-1.236 3.041-2.423 0-3.077-4.883-2.015-4.883-3.869 0-.778.717-1.31 1.694-1.31.902 0 1.767.297 2.385.989l.618-.754c-.692-.729-1.668-1.162-2.917-1.162-1.631 0-2.843.94-2.843 2.299 0 2.942 4.883 1.755 4.883 3.881 0 .643-.47 1.434-1.941 1.434a3.402 3.402 0 0 1-2.583-1.186l-.619.791c.68.766 1.743 1.31 3.165 1.31m17.452-.149v-7.329h2.62v-.915h-6.254v.915h2.608v7.329h1.026m17.23.149c2.237 0 3.374-1.31 3.374-3.362v-5.031h-1.038v5.018c0 1.508-.816 2.46-2.336 2.46s-2.324-.952-2.324-2.46v-5.018H51.23v5.043c0 2.027 1.137 3.35 3.362 3.35m18.008-1.063h-1.792v-6.415H72.6c2.04 0 3.164 1.434 3.164 3.214 0 1.767-1.161 3.201-3.164 3.201zm0 .914c2.571 0 4.227-1.767 4.227-4.115 0-2.336-1.656-4.129-4.227-4.129h-2.818v8.244H72.6zm15.722 0h1.026v-8.244h-1.026zm16.599-.766c-1.854 0-3.028-1.434-3.028-3.349 0-1.929 1.174-3.35 3.028-3.35 1.842 0 3.041 1.421 3.041 3.35 0 1.915-1.199 3.349-3.041 3.349zm0 .915c2.435 0 4.104-1.829 4.104-4.264 0-2.436-1.669-4.265-4.104-4.265s-4.091 1.829-4.091 4.265c0 2.435 1.656 4.264 4.091 4.264zm18.256 0c2.225 0 3.04-1.236 3.04-2.423 0-3.077-4.882-2.015-4.882-3.869 0-.778.717-1.31 1.693-1.31.903 0 1.768.297 2.386.989l.618-.754c-.692-.729-1.669-1.162-2.917-1.162-1.632 0-2.843.94-2.843 2.299 0 2.942 4.882 1.755 4.882 3.881 0 .643-.469 1.434-1.94 1.434a3.402 3.402 0 0 1-2.583-1.186l-.618.791c.679.766 1.742 1.31 3.164 1.31M98.103 75.442l-.018 9.132H88.43l-35.677.091v.002H23.851a6.972 6.972 0 0 1-.311.007c-1.075 0-3.787-.222-5.728-2.273-2.15-2.273-2.202-5.032-2.196-5.453l.004-11.643c-.027-.59-.036-3.499 2.171-5.895 1.818-1.973 4.661-2.126 5.488-2.126l39.699-.038V74.55h23.348V57.384h11.772l-.039 8.097 11.299-8.097h15.562l-16.235 13.422 16.406 13.768h-16.085l-10.903-9.132zm13.442-4.625l18.461-15.263H108.77l-8.864 6.351.031-6.351H84.495V72.72H64.808V55.416l-41.529.037c-1.016 0-4.512.196-6.834 2.717-2.597 2.819-2.695 6.147-2.655 7.173l-.004 11.594c-.007.671.101 3.978 2.697 6.722 2.429 2.568 5.745 2.845 7.057 2.845l31.043-.007v-.001l35.677-.092h9.652l.013-7.048 8.416 7.048h21.778l-18.574-15.587z" fill="#FFF"/><path d="M50.923 59.124v6.409H27.297s-.709-.044-1.138.432c-.406.45-.372 1.069-.372 1.069l-.001.879h25.091v6.272H25.776l.007.859s.022.634.4.969c.523.464 1.004.415 1.004.415h23.736v6.409H23.8s-2.856.211-4.658-1.694c-1.748-1.848-1.696-4.181-1.696-4.181l.004-11.705s-.175-2.585 1.687-4.606c1.497-1.625 4.218-1.536 4.218-1.536l27.568.009m1.939-.048h8.285v17.305h25.452v6.454H52.862V59.076m57.084.138h9.888l-14.008 11.582 14.237 11.948h-10.392L96.28 71.528l-.021 11.216h-8.103v-23.53h8.103l-.048 9.842 13.735-9.842" fill="#FFF"/></g></svg>