<?xml version="1.0" encoding="utf-8"?>
<!-- Generator: Adobe Illustrator 24.1.2, SVG Export Plug-In . SVG Version: 6.00 Build 0)  -->
<svg version="1.1" id="Layer_1" xmlns="http://www.w3.org/2000/svg" xmlns:xlink="http://www.w3.org/1999/xlink" x="0px" y="0px"
	 viewBox="0 0 930 194" style="enable-background:new 0 0 930 194;" xml:space="preserve">
<style type="text/css">
	.st0{fill:url(#SVGID_1_);}
	.st1{fill:url(#SVGID_2_);}
</style>
<g>
	<path d="M158.01,25.04h101.62v23.03h-75.21v33.59h50.07v23.03h-50.07v37.61h77.54v23.03H158.01V25.04z"/>
	<path d="M254.64,65.6h27.04l23.66,69.51l21.97-69.51h26.2l-36.34,99.72h-24.3L254.64,65.6z"/>
	<path d="M349.37,115.67c0-30.42,21.13-51.97,51.34-51.97c30,0,51.13,21.55,51.13,51.97c0,30-21.55,51.55-51.76,51.55
		C370.07,167.22,349.37,146.09,349.37,115.67z M425.21,116.3v-0.84c0-19.01-9.3-30.42-24.51-30.42c-15.42,0-24.72,11.41-24.72,30.42
		v0.84c0,18.59,9.08,29.58,24.3,29.58C415.7,145.88,425.21,134.9,425.21,116.3z"/>
	<path d="M463.74,23.14h26.41v142.18h-26.41V23.14z"/>
	<path d="M505.22,125.39V65.6h26.2v58.31c0,13.31,6.34,21.13,18.17,21.13c13.73,0,19.44-11.62,19.44-28.73v-50.7h26.2v99.72h-26.2
		v-14.15c-5.28,10.35-14.37,16.06-27.25,16.06C519.16,167.22,505.22,151.16,505.22,125.39z"/>
	<path d="M619.17,138.91V86.73h-14.16V65.6h14.16V46.8l25.56-14.37V65.6h19.65v21.13h-19.86v49.65c0,4.86,2.32,6.97,7.18,7.18h11.62
		v21.76h-20.28C623.81,164.26,619.59,155.39,619.17,138.91z"/>
	<path d="M676.28,25.46h27.25v25.56h-27.25V25.46z M676.71,65.6h26.41v99.72h-26.41V65.6z"/>
	<path d="M715.02,115.67c0-30.42,21.13-51.97,51.34-51.97c30,0,51.13,21.55,51.13,51.97c0,30-21.55,51.55-51.76,51.55
		C735.73,167.22,715.02,146.09,715.02,115.67z M790.87,116.3v-0.84c0-19.01-9.3-30.42-24.51-30.42c-15.42,0-24.72,11.41-24.72,30.42
		v0.84c0,18.59,9.08,29.58,24.29,29.58C781.36,145.88,790.87,134.9,790.87,116.3z"/>
	<path d="M829.18,65.6h26.2v16.27c5.28-11.62,15-18.38,29.16-18.38c21.76,0,34.65,14.58,34.65,42.04v59.79h-26.2v-58.31
		c0-13.94-5.28-21.13-17.53-21.13c-12.47,0-20.07,10.14-20.07,28.73v50.7h-26.2L829.18,65.6L829.18,65.6z"/>
</g>
<path d="M120.78,183.71c-4.5,0-8.14-3.65-8.14-8.15c0.01-4.51,3.65-8.15,8.14-8.15c4.51,0,8.14,3.64,8.15,8.15
	C128.92,180.06,125.28,183.71,120.78,183.71 M120.78,165.32c-5.64,0-10.22,4.59-10.22,10.24c0,5.65,4.58,10.23,10.22,10.23
	c5.65,0,10.23-4.58,10.23-10.23C131.01,169.91,126.43,165.32,120.78,165.32"/>
<g>
	<path d="M104.08,90.3c8.14,0.26,17.07,0.04,26.93-0.74c-1.42-19.85-7.88-36.34-17.56-49.12c0.46,3.5,0.72,7.06,0.72,10.69
		C114.17,65.34,110.5,78.69,104.08,90.3z"/>
	<path d="M100.67,95.93c-14.52,21.86-39.35,36.27-67.56,36.27c-2.01,0-4-0.1-5.97-0.24c-7.2,11.04-11.85,23.3-16.98,34.83
		c50.6,27.02,115.94-1.47,120.85-70.26C119.75,95.64,109.7,95.48,100.67,95.93z"/>
	
		<radialGradient id="SVGID_1_" cx="836.6425" cy="171.5517" r="69.0016" fx="767.7955" fy="176.1682" gradientTransform="matrix(-0.8331 -0.5531 -0.4978 0.7498 844.5655 383.8823)" gradientUnits="userSpaceOnUse">
		<stop  offset="0.1698" style="stop-color:#ECECEC"/>
		<stop  offset="0.2146" style="stop-color:#D6D6D6"/>
		<stop  offset="0.3543" style="stop-color:#969696"/>
		<stop  offset="0.4875" style="stop-color:#606060"/>
		<stop  offset="0.6108" style="stop-color:#373737"/>
		<stop  offset="0.722" style="stop-color:#191919"/>
		<stop  offset="0.8171" style="stop-color:#060606"/>
		<stop  offset="0.8851" style="stop-color:#000000"/>
	</radialGradient>
	<path class="st0" d="M10.16,19.31c14.07,31.66,24.61,68.82,93.92,70.99c6.42-11.61,10.09-24.96,10.09-39.17
		c0-3.63-0.26-7.19-0.72-10.69C89.59,8.97,46.15,0.09,10.16,19.31z"/>
	
		<radialGradient id="SVGID_2_" cx="717.9009" cy="86.9557" r="29.0111" fx="701.9874" fy="87.2933" gradientTransform="matrix(-0.4226 -0.9063 -2.3873 1.1132 574.925 667.8774)" gradientUnits="userSpaceOnUse">
		<stop  offset="0.1155" style="stop-color:#ECECEC"/>
		<stop  offset="0.1694" style="stop-color:#E1E1E1"/>
		<stop  offset="0.2654" style="stop-color:#C2C2C2"/>
		<stop  offset="0.3924" style="stop-color:#909090"/>
		<stop  offset="0.5455" style="stop-color:#4C4C4C"/>
		<stop  offset="0.6987" style="stop-color:#000000"/>
	</radialGradient>
	<path class="st1" d="M100.67,95.93c-41.71,2.06-61.3,17.27-73.53,36.03c1.97,0.14,3.96,0.24,5.97,0.24
		C61.32,132.2,86.15,117.78,100.67,95.93z"/>
</g>
<g>
	<path d="M116.87,173.9h-1.53v-1.01h4.34v1.01h-1.52v4.33h-1.29V173.9z"/>
	<path d="M120.22,172.88h2.04l0.98,3.41l1.02-3.41h1.99v5.34h-1.27v-4.31l-1.35,4.31h-1.01l-1.3-4.29v4.29h-1.1L120.22,172.88
		L120.22,172.88z"/>
</g>
</svg>
