<?xml version="1.0" encoding="UTF-8"?> <svg xmlns="http://www.w3.org/2000/svg" width="2172.3" height="646.71" viewBox="0 0 2172.3 646.71"><defs><style>.cls-1,.cls-3,.cls-5,.cls-9{fill:#fff;}.cls-1{fill-opacity:0.98;}.cls-1,.cls-2,.cls-3,.cls-4,.cls-6{fill-rule:evenodd;}.cls-2,.cls-8{fill:#fdd73c;}.cls-4{fill:#ffed00;}.cls-5{stroke:#fff;stroke-miterlimit:3.24;stroke-width:0.81px;}.cls-6{fill:#1d1d1b;}.cls-7{isolation:isolate;}</style></defs><g id="Lag_2" data-name="Lag 2"><g id="Layer_1" data-name="Layer 1"><ellipse cx="1841.8" cy="330.51" rx="328.6" ry="316.1"></ellipse><path id="Shape_3_copy_4-3" data-name="Shape 3 copy 4-3" class="cls-1" d="M1822.1,286.31c2.2,3.2-.8,24.7-8.7,32.4a31,31,0,0,1-31.2,6.3c-14.6-5.5-21.5-10.1-26-14.8C1766.7,285.91,1791.1,270.11,1822.1,286.31Z"></path><path class="cls-2" d="M1727,236.31l-.4,3.4s32.2-30.6,40.9-36.1,18-3,7.9,13a4.16,4.16,0,0,0,2.2,4.5s51.5.4,57.3,5.9a29.88,29.88,0,0,1,1-7.3l-30.2-18.8s-8.7.39-14-3-8.5-7.11-13.8-6.11a35.58,35.58,0,0,0-11.4,5.9Z"></path><path id="Shape_125_copy-3" data-name="Shape 125 copy-3" class="cls-3" d="M1691,291.61s32-49.6,57.9-60.4,91.2-7.1,91.2-7.1l-2.2-2s-65.8-6.1-90,5.3S1691,291.61,1691,291.61Z"></path><path class="cls-3" d="M1764.3,187l1.4,14.2,16-2.6a19.14,19.14,0,0,0,5.5,5.1c2.4,1.4,7.3,1,10.1,2.2s26.5,10.1,26.5,10.1l-18.4-11.8s-14.8-3.6-16.8-5.7-7.1-6.5-9.7-6.7a28.81,28.81,0,0,0-8.3,2Z"></path><path class="cls-2" d="M1902.6,472.51c1.6,3.2,3.2,6.3,4.9,9.5,1.8,1,3,0,4.3,1.6,4.5,6.5,6.5,21.7,8.5,30.4l16.2,6.3v-66.7l-10.7-1Z"></path><path class="cls-2" d="M1924.1,311.21a.52.52,0,0,1-.4-.2c-.4-1.2-.8-2.6-1.2-3.9l-1.2,1.2-50.2,43.2c.6,5.1,4.1,7.9,7.3,10.3,27.6-2.6,42.8,3.6,53.1,21.1,2.2,3.6,2.6,7.9,4.7,12,0-36.1.2-72.3.2-108.4l-3.6-1.6-2.6,3.9c.8,4.5,5.9,12,4.7,15.6Z"></path><path class="cls-4" d="M1760.2,376a7.57,7.57,0,0,0,.2,4.7l.4-.2,3.2-5.5h-1.4Z"></path><path class="cls-2" d="M2025,116.21c1.4,1,1.8,3.2,2.4,4.9-.6,5.7-7.1,6.5-13.4,6.3,5.1,10.9-7.9,12-15.6,14.4l-9.5,4.7c-1.6,8.7-2.8,14.6-13.8,13,3.8,5.1,3.2,12-3.6,13.8v263.4l16.2-7.9,4.2,4.3,4.5,4.9-13.4,42.3a22.33,22.33,0,0,1-10.9-.2c0,19.2-.2,38.5-.2,57.7,4.1,2,5.9,5.5,8.9,8.5l19.7,19.7-1.6,6.3a23.14,23.14,0,0,1-6.9,1.6l-.6,9.1h-4.7v16.2c1.8,2,3.8,3.9,5.7,5.9l5.1,3.2.3,1.2c103.8-53.3,174.5-158.1,174.5-278.8,0-174.6-147.9-316.1-330.3-316.1s-330.3,141.4-330.3,316,147.9,316.1,330.2,316.1a342.44,342.44,0,0,0,77.5-8.8v-22c-2.4-.2-8.1-.6-9.3-2.2a13.83,13.83,0,0,1-.2-6.7,19.69,19.69,0,0,0,15.6-8.9v-15.6h-8.9c0-2.4.8-8.9-.4-10.3l-5.1-1.2c-.6-2.6-1.6-5.7-.4-8.3l-7.1-2.6c0-5.7,2-20.3,0-23.9-8.1-3.2-17.2-11.4-24.3-16.4,0-8.7-2-6.9-5.5-12.2l-1.6,1.6L1857.8,522v42.8c-18.4.2-31.4-10.7-39.7-21.1l-5.9-6.7c-.4-15.2-.6-30.6-1-45.8l-12-2.2,3.4-27.1c-2.4-15.2-5.1-30.2-7.5-45.4l-38.3,33c-3-.8-4.1-2.8-7.1-2.6.4,5.5-.6,6.3-3,9.3l.8,1c8.7,4.1,12.4,15.2,22.5,18l1-1c4.3,2.4,2.2,4.5,4.5,6.9l23.9,15.4c-8.5-1.4-18.7-9.5-25.7-13.4-5.9,2.8-19-5.9-23.9-8.3-16.2-8.3-31.4-15.8-51.7-20.7l-24.3-3.9c-5.3-.8-12,0-15.4-2.6l-1.2-1.6c-.2-9.1-.4-18.2-.4-27.3l-6.9-2.8c-2.6.8-5.3,1.2-5.5-2.4a2.76,2.76,0,0,1,1.2-1.6l1-.8c3.9,0,3.2,2.6,3.2,4.9h0l7.1,2.4c0-1.4-.2-2.8-.2-4.5a14.51,14.51,0,0,0-5.7-4.7,4.93,4.93,0,0,1-2.4,1.4,3.65,3.65,0,0,1-3-2.61,4,4,0,0,1,2.4-3.2v-.1l-10.9-7.1c-1.6.4-1.6,1.2-2.6.2l-23.5-16c-3.2,1-16,16.2-12.8,20.7,3.6,6.9,21.1,2.4,24.5,9.5,3,6.5-3.4,13.6-10.5,12a39.5,39.5,0,0,1-20.7-13.2c-12.2-15.4-2-28.6,9.5-36.9,3.4-2.4,7.5-6.1,13-6.3,5.9,3,10.3,8.1,15.4,12l12.2,10.1c-.4,1.8-.8,3.9-1.2,5.7l9.5,6.1,2-1,6.3,3.4,1.6-1.2,8.5,4.7c-1.8-2.8-3.8-5.7-5.7-8.5-2-.8-2.8.6-3.9-1.6v-2.2a3.42,3.42,0,0,1,4.3-1.2l1.2,1.4c-.2,4.9-.2,5.1,3.6,7.9l3.6,3.8,1-.4-1-.2c8.1.4,11.8-1.4,16.2-6.3l.4.2,16.8,21.1a16.1,16.1,0,0,1,6.9-1c2.2,2,2.6,6.5,4.2,9.1,3.6.4,6.5-1.8,9.5-2.39l13.8,3c0-13.81,19.9-26.9,23.5-39.9-12.6-2.4-11.4-10.5-12.6-21.1l-.4-.2a6.61,6.61,0,0,0-1.4,2c-2.4,1.6-22.1,1.8-23.1,1.2l-9-12.81h.4l14-3-1.2-1.39c-5.7-2.61-13.2-13.4-17.4-18.4-5.1-5.9-12-12.2-15.2-19.7-5.7-12.8,4.3-34.1,8.9-41.5a221.81,221.81,0,0,1,12.8-20.7l8.9-9.5,1-8.1,39.9-37.9-1-7.5.4.2,2.4,4.5c3-.8,6.1-4.7,9.7-3.8,4.9,1,7.9,5.7,12.2,7.5,4.7,2,9.3,2.6,14.4,4.7l17.4,10.5-1,1-.4-.2,13.2,8.1,1.2,3.6,7.3,3.6,18.7,11.8a60.67,60.67,0,0,1,21.9,37.7c1,5.9-.8,11.5-1.2,16.4l28.4-16c5.1-3.9,7.9-9.5,14.2-12.2.4,1,.2.4.8.8.8-3.6,1.4-7.1,2.2-10.7,1.6-3,5.9-3.9,6.7-8.1-1.4-1.6-6.5-5.5-6.1-7.9a18,18,0,0,1,6.1-8.1c1.8,1.2,5.1,3.4,5.9,5.7h.2v-66.5c-2.2-1.6-7.9-6.3-6.1-10.5a3.66,3.66,0,0,1,3-2.6v-.2c-7.1,0-11.5-1.6-12.8-7.3-.4-2.2.2-3.8-.4-5.7l-7.3-4.3c-7.7-3-23.7-3-18-15.2-6.7.2-10.3-1.4-13.4-4.7a8.72,8.72,0,0,1,2.4-6.7"></path><path class="cls-4" d="M1645.5,405l5.5,2.6v-.2a17.86,17.86,0,0,0-5.5-4.7Z"></path><path class="cls-5" d="M1954.2.41c-47,0-85.1,32.4-85.1,72.3,0,16.4,6.5,31.6,17.3,43.8h135.5c10.9-12.2,17.3-27.3,17.3-43.8C2039.2,32.81,2001.1.41,1954.2.41Z"></path><path id="Song-2" class="cls-6" d="M1623.6,137.61l56.6,15.8c.4,19.6,4,81.1-4.2,90.5-15,17.3-43.3,5.2-36.2-21.4,9.2-7.5,21.4-9.6,31.8-1.9v-38.5l-39.7-11c.8,28.1,8.1,73.2-26.4,66.2-32.4-6.7-10.8-52.4,18.1-31.2Zm8.6,14.8c.2,2.3.4,4.6.6,6.7l39.1,10.4v-6Z"></path><g class="cls-7"><path class="cls-8" d="M49.3,167V427h72.2v21.6H0V167Z"></path><path class="cls-8" d="M144.5,258.61c9.3-15.1,20.3-25.7,33-32a93.34,93.34,0,0,1,41.6-9.3,77.56,77.56,0,0,1,27.6,4.7,67.66,67.66,0,0,1,21,12.3,54,54,0,0,1,13.5,18,50.76,50.76,0,0,1,4.8,21.6v140.5c0,9.8,4.3,21.2,13,34.3H262.4a36.08,36.08,0,0,1-8.5-13.6,92.94,92.94,0,0,1-4.2-16.3,72.21,72.21,0,0,1-7.3,14.1,50.44,50.44,0,0,1-10.3,11.3,48.5,48.5,0,0,1-14,7.7,56.78,56.78,0,0,1-19,2.8c-11.8,0-21.7-1.8-29.8-5.3a51.06,51.06,0,0,1-19.6-14.5,58.14,58.14,0,0,1-11-21.6,100.35,100.35,0,0,1-3.5-26.8q0-25.35,18.5-43.6t55.1-25a40.9,40.9,0,0,0,17.6-7.3c4.7-3.5,8-8.8,10-15.6V279c0-10.7-3.1-19.1-9.2-25.3s-14-9.3-23.8-9.3c-5.8,0-11.5,2.39-17.3,7.2a107,107,0,0,0-17.3,18.8Zm40,127.1a154.16,154.16,0,0,0,1.2,21.1c.8,5.7,2.2,10.3,4.3,13.8a18.08,18.08,0,0,0,8.5,7.7c3.5,1.6,8,2.3,13.3,2.3s10.3-2.7,14.8-8,7.8-12.1,9.8-20.3v-65.9a47.27,47.27,0,0,1-6.8,3.3q-3.45,1.35-7.5,2.7a61.63,61.63,0,0,0-16.3,7.8,55.65,55.65,0,0,0-11.8,10.7,43,43,0,0,0-7.2,12.3A38.59,38.59,0,0,0,184.5,385.71Z"></path><path class="cls-8" d="M470.8,161v287.6H434.2l-5-19a48.2,48.2,0,0,1-18.1,18.3c-7.7,4.4-18.4,6.7-32.1,6.7-9.8,0-18.6-3.3-26.6-9.8s-14.9-15.7-20.8-27.5-10.4-25.9-13.6-42.4a286.78,286.78,0,0,1-4.8-54.4,192.44,192.44,0,0,1,3.5-35.6,117,117,0,0,1,11.5-33.3A74.06,74.06,0,0,1,348.8,227c8.4-6.4,18.8-9.7,31-9.7a85.25,85.25,0,0,1,15.6,1.2,46,46,0,0,1,10.8,3.3,34.46,34.46,0,0,1,8,5.2q3.45,3,7.2,6.3v-56.9Zm-80.6,82.9c-9.5,0-16.7,5.5-21.5,16.6s-7.2,26.6-7.2,46.6a354,354,0,0,0,2.3,37.5,286.4,286.4,0,0,0,7,39.3c3.1,12.3,7.2,22.7,12.2,31.1s10.8,12.7,17.5,12.7c2.7,0,5.3-1.4,7.8-4.3a45.06,45.06,0,0,0,6.7-10.5,68.77,68.77,0,0,0,4.5-13,51.43,51.43,0,0,0,1.7-11.8v-94.9a56.85,56.85,0,0,0-2.3-13.8,79.21,79.21,0,0,0-6.5-16.3,57.12,57.12,0,0,0-9.8-13.5C398.8,245.81,394.7,243.91,390.2,243.91Z"></path><path class="cls-8" d="M543.7,221.61,581,362.81l42.6-141.2h26l-73.6,236a68.46,68.46,0,0,1-28.5,37.6q-20.85,13.65-49.8,13.7v-26.3a71.59,71.59,0,0,0,16.1-1.8,54.85,54.85,0,0,0,14.1-5.2,41.37,41.37,0,0,0,11-8.3,30.78,30.78,0,0,0,6.7-11l10.7-32.6L491,221.61Z"></path></g><g class="cls-7"><path class="cls-8" d="M790.3,167V427h72.2v21.6H741V167Z"></path><path class="cls-8" d="M929.1,217.91v171.5c0,11.3,2.4,20.5,7.3,27.6s11.4,10.7,19.6,10.7a19.25,19.25,0,0,0,11-3.2,26.64,26.64,0,0,0,7.8-8.2,40.34,40.34,0,0,0,4.8-11,44.14,44.14,0,0,0,1.7-11.7V233.11l49.3-15.3v230.7H990.3l-4.3-16c-5.1,8-11.4,13.7-19,17a60.77,60.77,0,0,1-24.6,5,67.64,67.64,0,0,1-24.6-4.3,58.22,58.22,0,0,1-19.6-12.3,60.37,60.37,0,0,1-13.2-19.1,62.77,62.77,0,0,1-4.8-25.1V233.21Z"></path><path class="cls-8" d="M1146.9,217.31c15.3,0,27.5,3.6,36.5,10.8s15.7,17.7,20.1,31.5l-24.3,9a62,62,0,0,0-12.2-19.5q-7.2-7.5-16.8-7.5c-14.9,0-26,7.8-33.5,23.3s-11.2,38.6-11.2,69.2a213,213,0,0,0,3.2,38c2.1,11.5,5.2,21.5,9.3,29.8s9.2,14.8,15.1,19.5a32.51,32.51,0,0,0,20.6,7,24.47,24.47,0,0,0,18.6-8.3c5.1-5.5,10.2-13.4,15.3-23.6l21,10.3q-12.3,24-29.1,36t-41.1,12q-19.65,0-35.1-8.7a77.58,77.58,0,0,1-26.3-24.5c-7.2-10.5-12.7-23.1-16.5-37.6a190,190,0,0,1-5.7-48.1q0-58.2,24.3-88.4C1095.5,227.31,1118,217.31,1146.9,217.31Z"></path><path class="cls-8" d="M1283,161v151.1l79.9-90.6h33l-71.9,82.6,72.9,144.5H1343l-53.9-105.9-6,7v98.9h-49.3V176.31Z"></path></g><g class="cls-7"><path class="cls-9" d="M816.8,527.31a31.4,31.4,0,0,0-3.8-8.5,28.94,28.94,0,0,0-5.6-6.4,22.88,22.88,0,0,0-6.6-4,18.72,18.72,0,0,0-6.7-1.4,15.63,15.63,0,0,0-11.2,4.8c-3.3,3.2-6,7.6-8.3,13.1a89.29,89.29,0,0,0-5,19.8,172.17,172.17,0,0,0-1.7,24.7,222.46,222.46,0,0,0,1.4,25.7,101.36,101.36,0,0,0,4.3,19.8c1.9,5.5,4.1,9.7,6.7,12.7s5.6,4.5,9,4.5a13.65,13.65,0,0,0,7.2-2.1,19.07,19.07,0,0,0,6-6,32.47,32.47,0,0,0,4-9.4,46.24,46.24,0,0,0,1.4-12.3,22.72,22.72,0,0,0-.8-6.4,8.81,8.81,0,0,0-2.3-3.9,8.35,8.35,0,0,0-3.7-2,34.25,34.25,0,0,0-5.3-.7l1-7.2h31.9v31a48.29,48.29,0,0,0,1.4,11.5,44,44,0,0,0,4.3,11l-11.9,6.5a43.4,43.4,0,0,1-5.1-10.4,48.66,48.66,0,0,1-14.5,9.1,47,47,0,0,1-19.2,3.8q-11.1,0-18.9-3.9t-12.9-12.9c-3.4-6-5.8-13.9-7.4-23.7s-2.4-21.8-2.4-36.1a142,142,0,0,1,3-30.7,64.09,64.09,0,0,1,9.6-23,44.18,44.18,0,0,1,17-14.5c6.9-3.3,15.3-5,25.2-5,9,0,16.3,2.5,22,7.6s9.9,12.1,12.6,21.2Z"></path><path class="cls-9" d="M895.4,497.51,923,641.61H897.5l-6-31.3H864.8l-6.3,31.3H844l27.3-144.1Zm-28,101.6h21.8l-11.1-66.3Z"></path><path class="cls-9" d="M955.6,497.51l31.3,93.7,30.7-93.7h18.1v144.1h-25v-93L981.6,638l-31.9-91v94.5H935.1V497.41h20.5Z"></path><path class="cls-9" d="M1126.8,497.51v11.4h-50.6v54.8h29.1v11.2h-29.1v55.5h50.6v11.1h-76V497.41h76Z"></path><path class="cls-9" d="M1195.8,524.51c-2.3-5.6-4.9-9.6-7.9-12.2s-5.8-3.8-8.4-3.8a15.29,15.29,0,0,0-7.4,1.8,17.26,17.26,0,0,0-5.6,4.8,25.34,25.34,0,0,0-3.6,6.7,22.65,22.65,0,0,0-1.3,7.7,23.52,23.52,0,0,0,3.3,12.2,54.8,54.8,0,0,0,8.4,10.7c3.4,3.5,7,7,10.9,10.5a108,108,0,0,1,10.9,11.5,57.92,57.92,0,0,1,8.4,13.7,41.92,41.92,0,0,1,3.3,17,44.12,44.12,0,0,1-3.2,17.3,37.4,37.4,0,0,1-8.7,12.4,35.35,35.35,0,0,1-12.9,7.5,51.73,51.73,0,0,1-15.8,2.5c-9,0-15.9-2.1-20.9-6.3s-8.9-10.4-11.8-18.6l13.1-8.3c.9,2.5,1.9,4.89,3,7.3a32.19,32.19,0,0,0,3.8,6.3,15.73,15.73,0,0,0,5.3,4.3,15.42,15.42,0,0,0,7.5,1.6c5.5,0,9.4-2.3,11.9-6.8s3.7-10.6,3.7-18.1a25.46,25.46,0,0,0-3.1-12.5,56.17,56.17,0,0,0-7.7-11c-3.1-3.5-6.5-7-10-10.6a128.94,128.94,0,0,1-10-11,60.94,60.94,0,0,1-7.8-12.31,35.55,35.55,0,0,1-3.1-14.8,48.78,48.78,0,0,1,2.3-14.89,34.44,34.44,0,0,1,7-12.4,33.7,33.7,0,0,1,11.8-8.6c4.7-2.2,10.3-3.2,16.8-3.2,7.3,0,13.3,1.6,18.1,4.8s8.6,8.3,11.3,15.5Z"></path></g></g></g></svg> 