<svg xmlns="http://www.w3.org/2000/svg" viewBox="0 0 588.95 199.83"><defs><style>.cls-1{fill:#fff;stroke:#fff;}</style></defs><g id="Layer_2" data-name="Layer 2"><g id="Layer_1-2" data-name="Layer 1"><path class="cls-1" d="M501.89,3.47H455.52V196.36h46.37Zm-73.11,0H366.66l-47,137.91L272.15,3.47h-66V196.36h42.5V53.7h1.19l50.22,142.66h37.16L386,53.7h.89V196.36h41.91ZM133.5,155.79a20.2,20.2,0,0,1-10.85,7,81.57,81.57,0,0,1-13.82,2.82,152,152,0,0,1-16.49.74,152.2,152.2,0,0,1-16.5-.74,85.42,85.42,0,0,1-14-2.82,21,21,0,0,1-11.14-7,19.29,19.29,0,0,1-3.87-12.33V58.75q0-14.26,11.3-19.76T92,33.49q22.29,0,33.73,5.65t11.45,19.61v84.71a19.82,19.82,0,0,1-3.72,12.33M177,32.75a48.63,48.63,0,0,0-16-17.09A87.2,87.2,0,0,0,138.11,6a132.66,132.66,0,0,0-23.93-4.61Q103.64.51,91.74.5q-11.58,0-22,.89A132.76,132.76,0,0,0,46,6a84.67,84.67,0,0,0-22.73,9.66q-9.37,5.94-16,17.24T.5,59.05v84.41Q.5,161,9.56,172.88a51,51,0,0,0,24.38,17.24,154.22,154.22,0,0,0,28.83,7.28,204.73,204.73,0,0,0,29,1.93A191.26,191.26,0,0,0,122.65,197a139.36,139.36,0,0,0,29.13-8.17A52.21,52.21,0,0,0,175,171.39q8.63-11.58,8.62-27.93V59.05q0-15.16-6.54-26.3"/><path class="cls-1" d="M501.89,3.47H455.52V196.36h46.37Zm-73.11,0H366.66l-47,137.91L272.15,3.47h-66V196.36h42.5V53.7h1.19l50.22,142.66h37.16L386,53.7h.89V196.36h41.91ZM133.5,155.79a20.2,20.2,0,0,1-10.85,7,81.57,81.57,0,0,1-13.82,2.82,152,152,0,0,1-16.49.74,152.2,152.2,0,0,1-16.5-.74,85.42,85.42,0,0,1-14-2.82,21,21,0,0,1-11.14-7,19.29,19.29,0,0,1-3.87-12.33V58.75q0-14.26,11.3-19.76T92,33.49q22.29,0,33.73,5.65t11.45,19.61v84.71A19.82,19.82,0,0,1,133.5,155.79ZM177,32.75a48.63,48.63,0,0,0-16-17.09A87.2,87.2,0,0,0,138.11,6a132.66,132.66,0,0,0-23.93-4.61Q103.64.51,91.74.5q-11.58,0-22,.89A132.76,132.76,0,0,0,46,6a84.67,84.67,0,0,0-22.73,9.66q-9.37,5.94-16,17.24T.5,59.05v84.41Q.5,161,9.56,172.88a51,51,0,0,0,24.38,17.24,154.22,154.22,0,0,0,28.83,7.28,204.73,204.73,0,0,0,29,1.93A191.26,191.26,0,0,0,122.65,197a139.36,139.36,0,0,0,29.13-8.17A52.21,52.21,0,0,0,175,171.39q8.63-11.58,8.62-27.93V59.05Q183.58,43.89,177,32.75Z"/><path class="cls-1" d="M588.45.87H577.78l-8.07,23.71L561.53.87H550.19V34h7.31V9.51h.2L566.34,34h6.38L581.1,9.51h.15V34h7.2Zm-40.3,0H519.8V6.54H530V34h8V6.54h10.17Z"/></g></g></svg>