<svg version="1.1" id="Layer_1" xmlns="http://www.w3.org/2000/svg" xmlns:xlink="http://www.w3.org/1999/xlink" x="0px" y="0px"
	 viewBox="0 0 429.42 119.9" style="enable-background:new 0 0 429.42 119.9;" xml:space="preserve">
<style type="text/css">
	.st0{fill:#FFFFFF;}
</style>
<g>
	<g>
		<path class="st0" d="M198.03,70.68c-1.76,3.3-4.19,5.91-7.28,7.82c-3.1,1.92-6.58,2.88-10.46,2.88c-3.88,0-7.36-0.96-10.46-2.88
			c-3.1-1.92-5.52-4.53-7.25-7.82c-1.74-3.3-2.61-6.92-2.61-10.88s0.87-7.58,2.61-10.88c1.74-3.3,4.16-5.91,7.25-7.82
			c3.1-1.92,6.58-2.88,10.46-2.88c3.88,0,7.36,0.96,10.46,2.88c3.1,1.92,5.53,4.53,7.28,7.82c1.76,3.3,2.64,6.92,2.64,10.88
			S199.79,67.39,198.03,70.68z M191.26,52.52c-1.08-2.18-2.58-3.91-4.5-5.19c-1.92-1.28-4.08-1.92-6.48-1.92
			c-2.44,0-4.61,0.63-6.51,1.89c-1.9,1.26-3.38,2.99-4.44,5.19c-1.06,2.2-1.59,4.64-1.59,7.31c0,2.68,0.53,5.12,1.59,7.31
			c1.06,2.2,2.54,3.93,4.44,5.19c1.9,1.26,4.07,1.89,6.51,1.89c2.4,0,4.56-0.64,6.48-1.92c1.92-1.28,3.42-3.01,4.5-5.19
			c1.08-2.18,1.62-4.61,1.62-7.28C192.88,57.13,192.34,54.7,191.26,52.52z"/>
		<path class="st0" d="M231.61,51.74c1.56,2.42,2.34,5.77,2.34,10.04V77.8c0,1.04-0.34,1.91-1.02,2.61
			c-0.68,0.7-1.54,0.98-2.58,0.98c-1.04,0-1.9-0.28-2.58-0.98c-0.68-0.7-1.02-1.57-1.02-2.61V61.78c0-2.2-0.46-3.93-1.38-5.19
			c-0.92-1.26-2.5-1.89-4.74-1.89c-2.32,0-4.14,0.67-5.46,2.01c-1.32,1.34-1.98,3.03-1.98,5.07V77.8c0,1.04-0.34,1.91-1.02,2.61
			c-0.68,0.7-1.54,0.98-2.58,0.98s-1.9-0.28-2.58-0.98c-0.68-0.7-1.02-1.57-1.02-2.61V51.77c0-1.04,0.34-1.91,1.02-2.61
			c0.68-0.7,1.54-1.05,2.58-1.05s1.9,0.35,2.58,1.05c0.68,0.7,1.02,1.57,1.02,2.61v1.61c1.08-1.44,2.49-2.68,4.23-3.72
			c1.74-1.04,3.65-1.56,5.73-1.56C227.23,48.11,230.05,49.32,231.61,51.74z"/>
		<path class="st0" d="M268.7,66.34c-0.72,0.6-1.56,0.9-2.52,0.9h-19.78c0.48,2.36,1.58,4.21,3.3,5.55
			c1.72,1.34,3.66,2.01,5.82,2.01c1.64,0,2.92-0.15,3.84-0.45c0.92-0.3,1.65-0.62,2.19-0.96c0.54-0.34,0.91-0.57,1.11-0.69
			c0.72-0.36,1.4-0.54,2.04-0.54c0.84,0,1.56,0.3,2.16,0.9c0.6,0.6,0.9,1.3,0.9,2.1c0,1.08-0.56,2.06-1.68,2.94
			c-1.12,0.92-2.62,1.7-4.5,2.34c-1.88,0.64-3.78,0.96-5.7,0.96c-3.36,0-6.29-0.7-8.78-2.1c-2.5-1.4-4.43-3.33-5.79-5.79
			s-2.04-5.23-2.04-8.3c0-3.44,0.72-6.45,2.16-9.05c1.44-2.6,3.34-4.59,5.7-5.97c2.36-1.38,4.88-2.07,7.55-2.07
			c2.64,0,5.13,0.72,7.46,2.16c2.34,1.44,4.21,3.38,5.6,5.82c1.4,2.44,2.1,5.08,2.1,7.91C269.8,64.96,269.42,65.74,268.7,66.34z
			 M246.46,61.24h15.71v-0.42c-0.16-1.68-0.98-3.12-2.46-4.32c-1.48-1.2-3.16-1.8-5.04-1.8C250.03,54.71,247.29,56.89,246.46,61.24z
			"/>
		<path class="st0" d="M302.36,38.94c0.68,0.64,1.02,1.48,1.02,2.52c0,1.04-0.34,1.87-1.02,2.49c-0.68,0.62-1.56,0.93-2.64,0.93
			h-9.41v32.83c0,1.04-0.38,1.91-1.14,2.61c-0.76,0.7-1.7,1.05-2.82,1.05c-1.12,0-2.04-0.35-2.76-1.05
			c-0.72-0.7-1.08-1.57-1.08-2.61V44.88h-9.41c-1.08,0-1.96-0.32-2.64-0.96c-0.68-0.64-1.02-1.48-1.02-2.52c0-1,0.35-1.82,1.05-2.46
			c0.7-0.64,1.57-0.96,2.61-0.96h26.62C300.8,37.99,301.68,38.31,302.36,38.94z"/>
		<path class="st0" d="M329.58,73.38c-1.44,2.54-3.41,4.51-5.9,5.91c-2.5,1.4-5.25,2.1-8.24,2.1c-3.04,0-5.8-0.7-8.27-2.1
			c-2.48-1.4-4.44-3.37-5.88-5.91c-1.44-2.54-2.16-5.4-2.16-8.6c0-3.2,0.72-6.06,2.16-8.6c1.44-2.54,3.4-4.52,5.88-5.93
			c2.48-1.42,5.24-2.13,8.27-2.13c3,0,5.75,0.71,8.24,2.13c2.5,1.42,4.47,3.4,5.9,5.93c1.44,2.54,2.16,5.41,2.16,8.6
			C331.73,67.98,331.02,70.84,329.58,73.38z M323.31,59.53c-0.82-1.54-1.92-2.73-3.3-3.57c-1.38-0.84-2.91-1.26-4.59-1.26
			c-1.68,0-3.21,0.42-4.59,1.26c-1.38,0.84-2.48,2.03-3.3,3.57c-0.82,1.54-1.23,3.29-1.23,5.25c0,1.96,0.41,3.7,1.23,5.22
			c0.82,1.52,1.92,2.7,3.3,3.54c1.38,0.84,2.91,1.26,4.59,1.26c1.68,0,3.21-0.42,4.59-1.26c1.38-0.84,2.48-2.02,3.3-3.54
			c0.82-1.52,1.23-3.26,1.23-5.22C324.54,62.82,324.13,61.07,323.31,59.53z"/>
		<path class="st0" d="M363.4,49.17c0.68,0.7,1.02,1.57,1.02,2.61V67.6c0,4.32-1.19,7.69-3.57,10.13
			c-2.38,2.44-5.77,3.66-10.16,3.66c-4.4,0-7.77-1.22-10.13-3.66s-3.54-5.82-3.54-10.13V51.77c0-1.04,0.34-1.91,1.02-2.61
			c0.68-0.7,1.54-1.05,2.58-1.05s1.9,0.35,2.58,1.05c0.68,0.7,1.02,1.57,1.02,2.61V67.6c0,2.44,0.54,4.25,1.62,5.43
			c1.08,1.18,2.7,1.77,4.86,1.77c2.2,0,3.84-0.59,4.92-1.77c1.08-1.18,1.62-2.99,1.62-5.43V51.77c0-1.04,0.34-1.91,1.02-2.61
			c0.68-0.7,1.54-1.05,2.58-1.05C361.86,48.12,362.72,48.47,363.4,49.17z"/>
		<path class="st0" d="M393.69,49.7c2.08,1.06,3.12,2.47,3.12,4.23c0,0.88-0.26,1.65-0.78,2.31c-0.52,0.66-1.2,0.99-2.04,0.99
			c-0.64,0-1.16-0.09-1.56-0.27c-0.4-0.18-0.79-0.42-1.17-0.72c-0.38-0.3-0.75-0.55-1.11-0.75c-0.4-0.2-0.99-0.38-1.77-0.54
			c-0.78-0.16-1.41-0.24-1.89-0.24c-3,0-5.35,0.93-7.04,2.79c-1.7,1.86-2.55,4.29-2.55,7.28c0,2.88,0.86,5.27,2.58,7.16
			c1.72,1.9,3.92,2.85,6.59,2.85c1.96,0,3.42-0.24,4.38-0.72c0.24-0.12,0.57-0.33,0.99-0.63c0.42-0.3,0.81-0.53,1.17-0.69
			c0.36-0.16,0.8-0.24,1.32-0.24c1,0,1.79,0.32,2.37,0.96c0.58,0.64,0.87,1.46,0.87,2.46c0,0.96-0.56,1.86-1.68,2.7
			c-1.12,0.84-2.6,1.51-4.44,2.01c-1.84,0.5-3.8,0.75-5.87,0.75c-3.08,0-5.79-0.72-8.12-2.16c-2.34-1.44-4.15-3.43-5.43-5.96
			c-1.28-2.54-1.92-5.37-1.92-8.48c0-3.24,0.67-6.12,2.01-8.63c1.34-2.52,3.21-4.49,5.61-5.91c2.4-1.42,5.12-2.13,8.15-2.13
			C388.87,48.11,391.61,48.64,393.69,49.7z"/>
		<path class="st0" d="M427.15,51.74c1.52,2.42,2.28,5.77,2.28,10.04v15.93c0,1.04-0.34,1.91-1.02,2.61
			c-0.68,0.7-1.54,1.05-2.58,1.05s-1.9-0.35-2.58-1.05c-0.68-0.7-1.02-1.57-1.02-2.61V61.78c0-2.2-0.43-3.93-1.29-5.19
			c-0.86-1.26-2.37-1.89-4.53-1.89c-2.24,0-3.99,0.67-5.25,2.01c-1.26,1.34-1.89,3.03-1.89,5.07v15.93c0,1.04-0.34,1.91-1.02,2.61
			c-0.68,0.7-1.54,1.05-2.58,1.05s-1.9-0.35-2.58-1.05c-0.68-0.7-1.02-1.57-1.02-2.61V41.62c0-1.04,0.34-1.91,1.02-2.61
			c0.68-0.7,1.54-1.05,2.58-1.05s1.9,0.35,2.58,1.05c0.68,0.7,1.02,1.57,1.02,2.61v11.71c1.08-1.44,2.45-2.67,4.11-3.69
			c1.66-1.02,3.51-1.53,5.55-1.53C422.89,48.11,425.63,49.32,427.15,51.74z"/>
	</g>
	<g>
		<path class="st0" d="M73.6,76.45c-1.74,1.45-1.98,4.04-0.53,5.78c1.45,1.74,4.04,1.98,5.78,0.53c6.85-5.71,10.79-14.09,10.79-23
			c0-16.5-13.42-29.92-29.92-29.92c-16.5,0-29.92,13.42-29.92,29.92c0,9.11,4.08,17.62,11.18,23.33c1.77,1.42,4.35,1.14,5.77-0.63
			c1.42-1.77,1.14-4.35-0.63-5.77c-15.9-12.78-6.89-38.65,13.59-38.65C80.01,38.04,89.14,63.52,73.6,76.45z"/>
		<path class="st0" d="M86.08,96.49c11.36-8.19,18.75-21.57,18.75-36.61c0-2.27-1.84-4.1-4.1-4.1c-2.26,0-4.1,1.84-4.1,4.1
			c0,12.37-6.09,23.29-15.35,29.96c-1.84,1.33-2.25,3.89-0.93,5.73C81.68,97.4,84.24,97.81,86.08,96.49z"/>
		<path class="st0" d="M42.6,2.51c-2.17,0.65-3.41,2.93-2.76,5.1c0.65,2.17,2.93,3.41,5.1,2.76c32.87-9.8,65.93,14.94,65.93,49.14
			c0,2.27,1.84,4.1,4.1,4.1c2.27,0,4.1-1.84,4.1-4.1C119.08,19.89,80.77-8.87,42.6,2.51z"/>
		<path class="st0" d="M88.21,24.89c-29.27-23.86-73.6-3.04-73.6,34.98c0,24.88,20.24,45.11,45.11,45.11c2.27,0,4.1-1.84,4.1-4.1
			c0-2.27-1.84-4.1-4.1-4.1c-20.35,0-36.91-16.56-36.91-36.91c0-31.15,36.31-48.11,60.21-28.62c1.76,1.43,4.34,1.17,5.77-0.59
			C90.23,28.9,89.96,26.32,88.21,24.89z"/>
		<path class="st0" d="M4.1,56.08c-2.26,0-4.1,1.84-4.1,4.1c0,32.93,26.79,59.72,59.72,59.72c14,0,27.62-4.95,38.33-13.92
			c1.74-1.46,1.97-4.04,0.51-5.78c-1.46-1.74-4.04-1.97-5.78-0.51c-9.24,7.74-20.98,12.01-33.06,12.01
			c-28.4,0-51.51-23.11-51.51-51.51C8.2,57.92,6.37,56.08,4.1,56.08z"/>
	</g>
	<g>
		<path class="st0" d="M168.27,94.58c0.72,0.74,1.09,1.7,1.09,2.89c0,0.78-0.16,1.49-0.49,2.12c-0.33,0.63-0.79,1.13-1.39,1.49
			c-0.6,0.36-1.29,0.53-2.07,0.53h-4.56v6.09c0,0.11-0.05,0.21-0.14,0.29c-0.09,0.08-0.19,0.13-0.3,0.13
			c-0.13,0-0.23-0.04-0.31-0.13c-0.08-0.08-0.13-0.18-0.13-0.29V93.89c0-0.11,0.04-0.21,0.13-0.29c0.08-0.08,0.18-0.13,0.29-0.13
			h5.02C166.59,93.48,167.54,93.85,168.27,94.58z M167.64,99.85c0.56-0.62,0.84-1.41,0.84-2.37s-0.28-1.73-0.83-2.3
			c-0.55-0.57-1.3-0.86-2.25-0.86h-4.56v6.46h4.56C166.33,100.78,167.08,100.47,167.64,99.85z"/>
		<path class="st0" d="M182.82,107.68c0,0.13-0.04,0.23-0.12,0.3c-0.08,0.08-0.17,0.11-0.28,0.11c-0.08,0-0.15-0.01-0.19-0.04
			c-0.38-0.21-0.68-0.56-0.9-1.06c-0.22-0.49-0.33-1.31-0.33-2.44c0-1.14-0.31-1.93-0.92-2.35c-0.61-0.43-1.33-0.64-2.13-0.64h-4.89
			v6.13c0,0.11-0.04,0.21-0.13,0.29c-0.08,0.08-0.19,0.13-0.31,0.13c-0.13,0-0.23-0.04-0.31-0.13c-0.08-0.08-0.13-0.18-0.13-0.29
			V93.89c0-0.11,0.04-0.21,0.13-0.29c0.08-0.08,0.18-0.13,0.29-0.13h5.52c0.81,0,1.53,0.16,2.15,0.49c0.63,0.33,1.12,0.78,1.46,1.35
			c0.35,0.57,0.52,1.22,0.52,1.95c0,0.93-0.25,1.74-0.74,2.41c-0.49,0.67-1.14,1.12-1.94,1.36c0.67,0.21,1.22,0.62,1.65,1.24
			c0.43,0.62,0.65,1.38,0.65,2.29c0,0.93,0.06,1.59,0.18,1.96c0.12,0.37,0.3,0.63,0.53,0.78
			C182.75,107.4,182.82,107.53,182.82,107.68z M178.22,100.73c0.88-0.08,1.62-0.43,2.24-1.05c0.61-0.61,0.92-1.41,0.92-2.4
			c0-0.86-0.31-1.58-0.92-2.13c-0.61-0.56-1.43-0.84-2.45-0.84h-4.96v6.42H178.22z"/>
		<path class="st0" d="M194.45,107.41c0.08,0.08,0.13,0.18,0.13,0.29c0,0.13-0.04,0.23-0.13,0.3c-0.08,0.08-0.18,0.12-0.29,0.12
			h-7.89c-0.11,0-0.21-0.04-0.29-0.13c-0.08-0.08-0.13-0.18-0.13-0.29V93.89c0-0.11,0.04-0.21,0.13-0.29
			c0.08-0.08,0.18-0.13,0.29-0.13h7.89c0.11,0,0.21,0.04,0.29,0.13c0.08,0.08,0.13,0.18,0.13,0.29c0,0.13-0.04,0.23-0.13,0.3
			c-0.08,0.08-0.18,0.12-0.29,0.12h-7.43v5.84h6.48c0.11,0,0.21,0.04,0.29,0.13c0.08,0.08,0.13,0.18,0.13,0.29
			c0,0.13-0.04,0.23-0.13,0.3c-0.08,0.08-0.18,0.12-0.29,0.12h-6.48v6.3h7.43C194.27,107.28,194.37,107.32,194.45,107.41z"/>
		<path class="st0" d="M210.56,93.61c0.07,0.08,0.1,0.17,0.1,0.28v13.81c0,0.11-0.05,0.21-0.14,0.29c-0.09,0.08-0.19,0.13-0.3,0.13
			c-0.13,0-0.23-0.04-0.31-0.13c-0.08-0.08-0.13-0.18-0.13-0.29V95.19l-5.4,8.16c-0.07,0.11-0.17,0.17-0.29,0.17
			c-0.15,0-0.27-0.06-0.33-0.17l-5.42-8.18v12.53c0,0.11-0.04,0.21-0.13,0.29c-0.08,0.08-0.18,0.13-0.29,0.13
			c-0.13,0-0.23-0.04-0.3-0.13c-0.08-0.08-0.12-0.18-0.12-0.29V93.89c0-0.1,0.04-0.19,0.12-0.28c0.08-0.09,0.17-0.14,0.28-0.14
			c0.18,0,0.31,0.06,0.4,0.19l5.79,8.62l5.79-8.62c0.11-0.15,0.24-0.22,0.4-0.19C210.4,93.49,210.49,93.54,210.56,93.61z"/>
		<path class="st0" d="M215.37,107.99c-0.08,0.08-0.18,0.13-0.29,0.13c-0.14,0-0.25-0.04-0.32-0.13c-0.08-0.08-0.12-0.19-0.12-0.31
			V93.92c0-0.13,0.04-0.23,0.13-0.31c0.08-0.08,0.19-0.13,0.31-0.13c0.13,0,0.23,0.04,0.31,0.13c0.08,0.08,0.13,0.19,0.13,0.31
			v13.76C215.5,107.8,215.46,107.91,215.37,107.99z"/>
		<path class="st0" d="M230.15,93.6c0.08,0.08,0.12,0.18,0.12,0.29v9.04c0,0.98-0.24,1.88-0.73,2.7c-0.49,0.82-1.14,1.48-1.97,1.97
			c-0.82,0.49-1.72,0.73-2.68,0.73c-0.98,0-1.88-0.24-2.7-0.73c-0.82-0.49-1.48-1.14-1.97-1.97c-0.49-0.82-0.73-1.72-0.73-2.7v-9.04
			c0-0.13,0.04-0.23,0.13-0.3c0.08-0.08,0.19-0.12,0.31-0.12c0.13,0,0.23,0.04,0.31,0.13c0.08,0.08,0.13,0.18,0.13,0.29v9.04
			c0,0.82,0.2,1.58,0.61,2.28c0.4,0.7,0.95,1.25,1.64,1.66c0.69,0.41,1.45,0.62,2.27,0.62s1.58-0.21,2.27-0.62
			c0.69-0.41,1.24-0.97,1.65-1.66c0.41-0.7,0.62-1.46,0.62-2.28v-9.04c0-0.11,0.04-0.21,0.12-0.29c0.08-0.08,0.18-0.13,0.3-0.13
			S230.07,93.52,230.15,93.6z"/>
		<path class="st0" d="M247.29,93.61c0.07,0.08,0.1,0.17,0.1,0.28v13.81c0,0.11-0.05,0.21-0.14,0.29c-0.09,0.08-0.19,0.13-0.3,0.13
			c-0.13,0-0.23-0.04-0.31-0.13c-0.08-0.08-0.13-0.18-0.13-0.29V95.19l-5.4,8.16c-0.07,0.11-0.17,0.17-0.29,0.17
			c-0.15,0-0.27-0.06-0.33-0.17l-5.42-8.18v12.53c0,0.11-0.04,0.21-0.13,0.29c-0.08,0.08-0.18,0.13-0.29,0.13
			c-0.13,0-0.23-0.04-0.3-0.13c-0.08-0.08-0.12-0.18-0.12-0.29V93.89c0-0.1,0.04-0.19,0.12-0.28c0.08-0.09,0.17-0.14,0.28-0.14
			c0.18,0,0.31,0.06,0.4,0.19l5.79,8.62l5.79-8.62c0.11-0.15,0.24-0.22,0.4-0.19C247.13,93.49,247.22,93.54,247.29,93.61z"/>
		<path class="st0" d="M269.86,93.61c0.07,0.08,0.1,0.17,0.1,0.28v13.81c0,0.11-0.05,0.21-0.14,0.29c-0.09,0.08-0.19,0.13-0.3,0.13
			c-0.13,0-0.23-0.04-0.31-0.13c-0.08-0.08-0.13-0.18-0.13-0.29V95.19l-5.4,8.16c-0.07,0.11-0.17,0.17-0.29,0.17
			c-0.15,0-0.27-0.06-0.33-0.17l-5.42-8.18v12.53c0,0.11-0.04,0.21-0.13,0.29c-0.08,0.08-0.18,0.13-0.29,0.13
			c-0.13,0-0.23-0.04-0.3-0.13c-0.08-0.08-0.12-0.18-0.12-0.29V93.89c0-0.1,0.04-0.19,0.12-0.28c0.08-0.09,0.17-0.14,0.28-0.14
			c0.18,0,0.31,0.06,0.4,0.19l5.79,8.62l5.79-8.62c0.11-0.15,0.24-0.22,0.4-0.19C269.7,93.49,269.79,93.54,269.86,93.61z"/>
		<path class="st0" d="M285.98,104.71c-0.59,1.14-1.42,2.03-2.48,2.67c-1.06,0.63-2.27,0.95-3.62,0.95s-2.56-0.32-3.62-0.95
			c-1.06-0.63-1.89-1.52-2.48-2.67c-0.59-1.14-0.89-2.45-0.89-3.91c0-1.46,0.3-2.77,0.89-3.91c0.59-1.14,1.42-2.03,2.48-2.67
			c1.06-0.63,2.27-0.95,3.62-0.95s2.56,0.32,3.62,0.95c1.06,0.63,1.89,1.52,2.48,2.67c0.59,1.14,0.89,2.45,0.89,3.91
			C286.87,102.26,286.57,103.57,285.98,104.71z M285.22,97.3c-0.52-1.02-1.24-1.81-2.17-2.36c-0.93-0.56-1.98-0.84-3.17-0.84
			c-1.19,0-2.24,0.28-3.17,0.84c-0.93,0.56-1.65,1.35-2.17,2.36c-0.52,1.02-0.77,2.18-0.77,3.49c0,1.31,0.26,2.48,0.77,3.49
			c0.52,1.02,1.24,1.81,2.17,2.36c0.93,0.56,1.98,0.84,3.17,0.84c1.19,0,2.24-0.28,3.17-0.84c0.93-0.56,1.65-1.35,2.17-2.36
			c0.52-1.02,0.77-2.18,0.77-3.49C285.99,99.49,285.73,98.32,285.22,97.3z"/>
		<path class="st0" d="M299.45,101.68c0.54,0.64,0.8,1.47,0.8,2.49c0,1.27-0.4,2.25-1.2,2.93c-0.8,0.68-1.82,1.03-3.06,1.03h-5.77
			c-0.11,0-0.21-0.04-0.29-0.13c-0.08-0.08-0.13-0.18-0.13-0.29V93.89c0-0.11,0.04-0.21,0.13-0.29c0.08-0.08,0.18-0.13,0.29-0.13
			h5.63c1.12,0,2.01,0.32,2.68,0.96c0.67,0.64,1,1.51,1,2.59c0,0.78-0.2,1.49-0.59,2.12c-0.39,0.63-0.93,1.07-1.63,1.31
			C298.2,100.63,298.91,101.03,299.45,101.68z M297.88,95.04c-0.51-0.49-1.22-0.73-2.14-0.73h-5.06v5.88h5.06
			c0.87-0.01,1.57-0.3,2.1-0.85c0.54-0.55,0.8-1.33,0.8-2.33C298.64,96.19,298.39,95.53,297.88,95.04z M298.41,106.5
			c0.64-0.52,0.96-1.3,0.96-2.33c0-1.03-0.32-1.81-0.96-2.33c-0.64-0.52-1.49-0.78-2.53-0.78h-5.21v6.23h5.21
			C296.93,107.28,297.77,107.02,298.41,106.5z"/>
		<path class="st0" d="M303.91,107.99c-0.08,0.08-0.18,0.13-0.29,0.13c-0.14,0-0.25-0.04-0.32-0.13c-0.08-0.08-0.12-0.19-0.12-0.31
			V93.92c0-0.13,0.04-0.23,0.13-0.31c0.08-0.08,0.19-0.13,0.31-0.13c0.13,0,0.23,0.04,0.31,0.13c0.08,0.08,0.13,0.19,0.13,0.31
			v13.76C304.05,107.8,304,107.91,303.91,107.99z"/>
		<path class="st0" d="M316.42,107.41c0.08,0.08,0.13,0.18,0.13,0.29c0,0.13-0.04,0.23-0.13,0.3c-0.08,0.08-0.18,0.12-0.29,0.12
			h-7.68c-0.12,0-0.23-0.04-0.3-0.13c-0.08-0.08-0.12-0.18-0.12-0.29V93.89c0-0.11,0.04-0.21,0.13-0.29
			c0.08-0.08,0.19-0.13,0.31-0.13c0.13,0,0.23,0.04,0.31,0.13c0.08,0.08,0.13,0.18,0.13,0.29v13.39h7.22
			C316.24,107.28,316.34,107.32,316.42,107.41z"/>
		<path class="st0" d="M327.34,107.41c0.08,0.08,0.12,0.18,0.12,0.29c0,0.13-0.04,0.23-0.12,0.3c-0.08,0.08-0.18,0.12-0.29,0.12
			h-7.89c-0.11,0-0.21-0.04-0.29-0.13c-0.08-0.08-0.13-0.18-0.13-0.29V93.89c0-0.11,0.04-0.21,0.13-0.29
			c0.08-0.08,0.18-0.13,0.29-0.13h7.89c0.11,0,0.21,0.04,0.29,0.13c0.08,0.08,0.12,0.18,0.12,0.29c0,0.13-0.04,0.23-0.12,0.3
			c-0.08,0.08-0.18,0.12-0.29,0.12h-7.43v5.84h6.48c0.11,0,0.21,0.04,0.29,0.13c0.08,0.08,0.13,0.18,0.13,0.29
			c0,0.13-0.04,0.23-0.13,0.3c-0.08,0.08-0.18,0.12-0.29,0.12h-6.48v6.3h7.43C327.16,107.28,327.26,107.32,327.34,107.41z"/>
		<path class="st0" d="M346.78,101.03c0.08,0.08,0.12,0.18,0.12,0.29v5.25c0,0.17-0.06,0.29-0.19,0.38
			c-0.64,0.43-1.34,0.77-2.1,1.01c-0.76,0.24-1.53,0.37-2.31,0.37c-1.44,0-2.72-0.32-3.86-0.97c-1.14-0.65-2.03-1.54-2.68-2.69
			c-0.65-1.14-0.97-2.43-0.97-3.87c0-1.44,0.32-2.73,0.97-3.87c0.65-1.14,1.54-2.04,2.68-2.69c1.14-0.65,2.42-0.97,3.86-0.97
			c0.78,0,1.52,0.09,2.23,0.28c0.7,0.19,1.34,0.47,1.89,0.85c0.13,0.08,0.19,0.2,0.19,0.36c0,0.13-0.05,0.23-0.14,0.3
			c-0.09,0.08-0.18,0.11-0.26,0.11c-0.07,0-0.16-0.03-0.27-0.08c-1.17-0.66-2.38-0.98-3.64-0.98c-1.28,0-2.43,0.29-3.43,0.86
			c-1,0.57-1.79,1.37-2.35,2.39c-0.57,1.02-0.85,2.17-0.85,3.45c0,1.28,0.28,2.43,0.85,3.45c0.57,1.02,1.35,1.81,2.35,2.38
			c1,0.57,2.15,0.86,3.43,0.86c0.64,0,1.29-0.1,1.95-0.3c0.66-0.2,1.27-0.47,1.81-0.81v-4.64h-3.76c-0.11,0-0.21-0.04-0.29-0.13
			c-0.08-0.08-0.12-0.18-0.12-0.29c0-0.13,0.04-0.23,0.12-0.3c0.08-0.08,0.18-0.12,0.29-0.12h4.18
			C346.61,100.9,346.71,100.94,346.78,101.03z"/>
		<path class="st0" d="M360.89,107.72c0,0.13-0.04,0.22-0.13,0.29c-0.08,0.07-0.19,0.1-0.31,0.1c-0.1,0-0.18-0.02-0.26-0.07
			c-0.08-0.05-0.13-0.11-0.16-0.2l-1.76-4.31l0.02,0.04h-7.01l-1.7,4.27c-0.07,0.18-0.2,0.27-0.38,0.27c-0.13,0-0.23-0.03-0.3-0.1
			c-0.08-0.07-0.12-0.15-0.14-0.25c-0.01-0.06-0.01-0.13,0.02-0.21l5.63-13.85c0.04-0.11,0.09-0.18,0.16-0.22
			c0.06-0.03,0.14-0.05,0.24-0.05c0.21,0,0.35,0.09,0.42,0.27l5.63,13.85C360.89,107.6,360.89,107.65,360.89,107.72z M351.63,102.74
			h6.34l-3.2-7.89L351.63,102.74z"/>
		<path class="st0" d="M376.56,93.61c0.07,0.08,0.1,0.17,0.1,0.28v13.81c0,0.11-0.05,0.21-0.14,0.29c-0.09,0.08-0.19,0.13-0.3,0.13
			c-0.13,0-0.23-0.04-0.31-0.13c-0.08-0.08-0.13-0.18-0.13-0.29V95.19l-5.4,8.16c-0.07,0.11-0.17,0.17-0.29,0.17
			c-0.15,0-0.27-0.06-0.33-0.17l-5.42-8.18v12.53c0,0.11-0.04,0.21-0.12,0.29c-0.08,0.08-0.18,0.13-0.29,0.13
			c-0.12,0-0.23-0.04-0.3-0.13c-0.08-0.08-0.12-0.18-0.12-0.29V93.89c0-0.1,0.04-0.19,0.12-0.28c0.08-0.09,0.17-0.14,0.28-0.14
			c0.18,0,0.31,0.06,0.4,0.19l5.79,8.62l5.79-8.62c0.11-0.15,0.24-0.22,0.4-0.19C376.4,93.49,376.49,93.54,376.56,93.61z"/>
		<path class="st0" d="M389.24,107.41c0.08,0.08,0.12,0.18,0.12,0.29c0,0.13-0.04,0.23-0.12,0.3c-0.08,0.08-0.18,0.12-0.29,0.12
			h-7.89c-0.11,0-0.21-0.04-0.29-0.13c-0.08-0.08-0.13-0.18-0.13-0.29V93.89c0-0.11,0.04-0.21,0.13-0.29
			c0.08-0.08,0.18-0.13,0.29-0.13h7.89c0.11,0,0.21,0.04,0.29,0.13c0.08,0.08,0.12,0.18,0.12,0.29c0,0.13-0.04,0.23-0.12,0.3
			c-0.08,0.08-0.18,0.12-0.29,0.12h-7.43v5.84H388c0.11,0,0.21,0.04,0.29,0.13c0.08,0.08,0.13,0.18,0.13,0.29
			c0,0.13-0.04,0.23-0.13,0.3c-0.08,0.08-0.18,0.12-0.29,0.12h-6.48v6.3h7.43C389.06,107.28,389.15,107.32,389.24,107.41z"/>
		<path class="st0" d="M393.34,107.79c-0.77-0.36-1.53-0.91-2.28-1.66c-0.08-0.08-0.13-0.19-0.13-0.31c0-0.11,0.05-0.22,0.15-0.32
			c0.1-0.1,0.2-0.16,0.31-0.16c0.13,0,0.24,0.06,0.35,0.19c0.54,0.64,1.19,1.13,1.94,1.46c0.75,0.33,1.53,0.5,2.35,0.5
			c1.07,0,1.96-0.26,2.66-0.77c0.7-0.52,1.05-1.2,1.05-2.05c-0.01-0.67-0.2-1.22-0.54-1.65c-0.35-0.43-0.78-0.78-1.29-1.04
			c-0.51-0.26-1.2-0.55-2.08-0.87c-0.96-0.36-1.71-0.68-2.25-0.96c-0.54-0.28-1-0.68-1.38-1.19c-0.38-0.52-0.57-1.19-0.57-2.03
			c0-0.68,0.19-1.3,0.56-1.86c0.38-0.56,0.91-1,1.61-1.32c0.7-0.32,1.51-0.48,2.43-0.48c0.82,0,1.6,0.15,2.34,0.45
			c0.74,0.3,1.32,0.72,1.76,1.27c0.14,0.2,0.21,0.34,0.21,0.44c0,0.11-0.05,0.21-0.16,0.3c-0.1,0.09-0.22,0.14-0.34,0.14
			c-0.11,0-0.2-0.04-0.27-0.13c-0.39-0.5-0.89-0.9-1.51-1.19c-0.61-0.29-1.29-0.44-2.03-0.44c-1.06,0-1.94,0.25-2.65,0.75
			c-0.7,0.5-1.06,1.19-1.06,2.05c0,0.6,0.17,1.11,0.51,1.53c0.34,0.42,0.77,0.76,1.29,1.01c0.52,0.26,1.16,0.53,1.92,0.81
			c0.98,0.35,1.75,0.67,2.32,0.96c0.57,0.29,1.06,0.72,1.47,1.28c0.4,0.56,0.61,1.3,0.61,2.22c0,0.64-0.19,1.24-0.57,1.8
			c-0.38,0.56-0.92,1-1.62,1.33c-0.7,0.33-1.51,0.49-2.42,0.49C395,108.33,394.1,108.15,393.34,107.79z"/>
	</g>
</g>
</svg>
