<?xml version="1.0" encoding="utf-8"?>
<!-- Generator: Adobe Illustrator 22.0.1, SVG Export Plug-In . SVG Version: 6.00 Build 0)  -->
<svg version="1.1" id="Layer_1" xmlns="http://www.w3.org/2000/svg" xmlns:xlink="http://www.w3.org/1999/xlink" x="0px" y="0px"
	 viewBox="0 0 1340 260" style="enable-background:new 0 0 1340 260;" xml:space="preserve">
<style type="text/css">
	.st0{fill:#319F37;}
	.st1{fill:#FFFFFF;}
</style>
<title>gamblerspick</title>
<g id="Layer_2_1_">
	<g id="Logomark">
		<rect class="st0" width="1340" height="260"/>
		<path class="st1" d="M32.4,69.1c6-1.8,13.5-2.7,22.5-2.7c6.7,0,13.3,0.2,20,0.6c6.6,0.4,13.1,1,19.6,1.9c1.2,0.1,2.3,0.6,3.1,1.5
			c0.7,0.9,1.1,2,1,3.2v92.5c0.1,8-0.6,15.9-2.2,23.8c-1.5,6.6-3.8,11.5-6.8,14.9c-3,3.5-7.6,6-13.7,7.7c-5.9,1.6-13.3,2.4-22.2,2.4
			c-4.3,0-8.7-0.1-13.2-0.3c-4.5-0.2-8.9-0.6-13.2-1.1c-1.1-0.1-2.1-0.6-2.9-1.4c-0.7-0.8-1-1.9-1-3v-6c0-2.7,1.4-4.1,4.1-4.1h26.2
			c4.8,0.1,9.6-0.4,14.3-1.3c3.5-0.8,6.1-2,7.7-3.6l0.1-0.1c1.9-1.9,3.2-4.3,3.8-6.9c1-3.7,1.4-7.5,1.4-11.4
			c-3.1,0.4-6.5,0.6-10.1,0.8c-4.5,0.2-9.4,0.3-14.7,0.3c-6.5,0.1-13-0.4-19.4-1.6c-4.6-0.9-9.1-2.5-13.1-4.8l-0.2-0.1
			c-5.4-4.1-8.6-9.6-10.6-17.5c-1.9-7.6-2.4-17.6-2.6-30.8c-0.1-9.2,0.5-18.4,2-27.5c1.4-7.5,3.5-13.1,6.3-16.9l0,0
			C21.6,73.8,26.2,71,32.4,69.1L32.4,69.1z M70.1,160.6c3.8-0.2,7.5-0.5,11-0.9V82.3H54.9c-5-0.1-9.9,0.5-14.7,1.8
			c-3.6,1.1-6,2.8-7.5,5.1c-1.5,2.4-2.6,6.3-3.4,11.6c-0.9,6.9-1.3,13.9-1.2,20.9c0,7.1,0.1,12.4,0.5,16.8c0.3,3.8,1,7.5,2.1,11.2
			c1.2,4,4.1,7.2,7.9,8.8c4.1,1.8,9.9,2.4,17.6,2.4C61.2,160.9,65.8,160.8,70.1,160.6z M133.3,66.9c4.5-0.3,9.2-0.4,13.9-0.4
			c14.4,0,25.4,2.2,32.9,7.2c7.7,5.2,11.6,13.1,11.6,24.6v67.9c0,1.5-0.4,2.9-1.2,4.1c-0.9,1.1-2,2-3.4,2.5H187
			c-3.6,1.3-8.9,2.3-16,3c-7,0.7-15.6,1-25.9,1c-5.7,0.1-11.5-0.4-17.1-1.6c-4.2-0.8-8.2-2.6-11.6-5.2l0,0
			c-3.1-2.7-5.3-6.2-6.5-10.1c-1.5-5-2.2-10.2-2.1-15.4c0-10.9,2.7-18.5,8.4-23.5s14.1-7,25.7-7h32.2v-13.6c0-6.4-2-10.9-6.2-13.8
			c-4.4-3-11.3-4.3-20.7-4.3H121c-2.1,0.2-4.1-1.4-4.3-3.5c0-0.3,0-0.5,0-0.8v-5.4c0-1,0.3-2.1,1-2.9c0.7-0.8,1.6-1.3,2.6-1.5h0.2
			C124.5,67.6,128.8,67.2,133.3,66.9L133.3,66.9z M164,160.5c3.4-0.3,6.8-0.8,10.2-1.5v-29.3H142c-6.1,0-10.3,1-12.9,3.4
			s-3.7,6-3.7,11.4c0,6.5,1.3,10.7,4.6,13.1c3.5,2.6,9.3,3.6,18.3,3.6C154.2,161.1,159.5,160.9,164,160.5L164,160.5z M290.3,67.7
			c5.3-0.9,10.6-1.4,16-1.4c8.9,0,15.4,0.3,20.7,1.3c5,0.9,9.7,3,13.6,6.3c4.2,3.4,6.8,7.9,8.4,14.3c1.5,6.2,2,14.1,2,24.3
			l-0.2,59.2c0.1,1.2-0.3,2.3-1.1,3.1c-0.9,0.8-2,1.2-3.2,1.1h-8.7c-1.2,0.1-2.3-0.3-3.1-1.1c-0.8-0.8-1.2-2-1.1-3.1v-59.2
			c0-7.4-0.3-13-1.3-17.3c-0.9-4-2.2-6.8-4.3-8.5l-0.1-0.1c-2-1.9-4.4-3.2-7.1-3.7c-3-0.6-6.8-0.7-12.1-0.7c-4.8,0-9.3,0.2-13.6,0.5
			c-3.6,0.3-7.1,0.7-10.3,1.2c2.3,6.7,3.5,15.9,3.5,27.5l-0.4,60.2c0.1,1.1-0.3,2.1-1,3c-0.7,0.8-1.8,1.3-2.9,1.3h-9.1
			c-2.1,0.2-4.1-1.4-4.3-3.5c0-0.3,0-0.5,0-0.8v-60c0.1-4.9-0.3-9.7-1-14.6c-0.4-3-1.3-5.8-2.5-8.6l0,0c-0.4-0.9-1-1.7-1.7-2.3
			c-0.8-0.7-1.7-1.3-2.7-1.7h-0.1c-2.1-0.9-4.3-1.6-6.6-1.8c-3.4-0.3-6.8-0.4-10.2-0.3h-21.2v89.2c0.1,1.1-0.3,2.3-1.1,3.1
			c-0.8,0.8-1.9,1.2-3,1.2h-9.1c-1.2,0.1-2.3-0.3-3.1-1.1c-0.8-0.8-1.2-2-1.1-3.1V73.4c-0.1-1.1,0.3-2.2,1.1-3
			c0.8-0.8,1.9-1.2,3-1.3c5.6-0.9,11-1.6,16.3-2s10.7-0.7,15.9-0.7c6-0.1,12,0.4,17.9,1.4c4.4,0.7,8.6,2,12.6,3.9
			C279.3,70,284.7,68.7,290.3,67.7L290.3,67.7z M367.3,28.4c0.9-0.8,2-1.2,3.2-1.1h9.1c2.1-0.2,4.1,1.4,4.3,3.5c0,0.3,0,0.5,0,0.8
			v35.9c2.9-0.3,6.3-0.5,10-0.7c4.6-0.2,9.6-0.3,15.1-0.3c9.7,0,17.2,0.6,23.1,2.2c6.1,1.7,10.5,4.6,14,9.3c3.6,4.5,5.7,9.8,7,16.8
			c1.2,6.9,1.6,15.4,1.6,26.8s-0.4,20-1.6,26.9c-1.2,7.1-3.3,12.3-6.7,16.8c-3.3,4.6-8.1,7.9-13.6,9.3c-5.8,1.7-13,2.3-22.5,2.3
			c-6.4,0-13-0.3-19.8-0.8c-6.4-0.5-13-1.3-19.8-2.3c-1.2-0.1-2.3-0.6-3.1-1.4c-0.8-0.9-1.2-2.1-1.2-3.3V31.5
			C366.1,30.3,366.5,29.2,367.3,28.4L367.3,28.4z M424.2,84.2c-3.9-1.2-9-1.8-15.4-1.8h-25v76.8c4.2,0.6,8.4,1,12.5,1.3
			c4.6,0.3,9.1,0.4,13.7,0.4c5,0.1,9.9-0.5,14.7-1.8c3.5-1.2,6.1-2.9,7.5-5.1c1.5-2.4,2.7-6.3,3.5-11.8c0.9-6.9,1.3-13.9,1.3-20.9
			c0.1-6.9-0.3-13.8-1.3-20.7c-0.8-5.2-2-9-3.6-11.3l0,0C430.6,87.1,428,85.3,424.2,84.2L424.2,84.2z M468.6,28.3
			c0.9-0.8,2-1.1,3.1-1.1h9.1c1.2-0.1,2.3,0.3,3.2,1.1c0.8,0.8,1.2,1.9,1.2,3v140.3c0.2,2.1-1.3,4-3.5,4.3c-0.3,0-0.5,0-0.8,0h-9.1
			c-2.1,0.2-4.1-1.4-4.3-3.5c0-0.3,0-0.5,0-0.8V31.3C467.4,30.2,467.8,29.1,468.6,28.3L468.6,28.3z M519.9,69.1
			c5.9-1.8,13.3-2.7,22.2-2.7c8.4,0,15.5,0.9,21.2,2.6c5.8,1.8,10.2,4.4,13,8s5.1,8.8,6.6,15.8c1.6,8.3,2.4,16.8,2.4,25.3v5.7
			c0,2.3-0.3,3.9-1.6,5.1s-3.1,1.5-6.1,1.5h-61.6c0.3,12.4,2.1,20.5,5.4,24.5c2,2.2,4.6,3.8,7.5,4.5c4.4,1.2,8.9,1.7,13.4,1.6h30.5
			c2.1-0.2,4.1,1.3,4.3,3.5c0,0.3,0,0.5,0,0.8v6c0,1.1-0.4,2.1-1.1,2.9c-0.7,0.8-1.7,1.3-2.8,1.4c-4.3,0.5-9,0.8-14.2,1.1
			s-10.8,0.3-16.6,0.3c-9.2,0-16.3-0.6-22-2.3c-5.5-1.5-10.3-4.7-13.7-9.3l0,0c-3.3-4.5-5.4-9.8-6.6-16.8
			c-1.2-6.9-1.7-15.5-1.7-26.9c-0.1-9.1,0.5-18.2,2-27.1c1.4-7.4,3.5-13.1,6.3-16.8l0,0C509.3,73.8,513.8,71,519.9,69.1L519.9,69.1z
			 M555.3,84c-4.3-1.2-8.8-1.7-13.2-1.6c-4.6-0.1-9.3,0.4-13.7,1.6c-3.4,1-5.8,2.6-7.4,4.6l0,0c-1.6,2-2.8,5.3-3.7,9.8
			c-0.9,5.2-1.4,10.4-1.5,15.7h51.7c-0.1-5.3-0.6-10.5-1.5-15.7c-0.9-4.6-2.1-7.9-3.6-9.9S558.6,85,555.3,84z M611.6,68
			c4.6-1.2,9.3-1.8,14-1.6c5.1,0,9.4,0.2,12.8,0.4c2.7,0.1,5.4,0.6,8,1.4l0,0c2.3,0.9,3.5,2.4,3.5,4.3v5.6c0.1,1.2-0.3,2.3-1.2,3.2
			c-0.9,0.8-2,1.1-3.2,0.9h-16.9c-5.9,0-9.9,0.5-12.3,2c-2.1,1.3-3,3.6-3,7.3v79.9c0.1,1.2-0.3,2.3-1.1,3.1c-0.9,0.8-2,1.2-3.2,1.1
			h-9.2c-2.1,0.2-4.1-1.4-4.3-3.5c0-0.3,0-0.5,0-0.8V88.7c0-3.5,0.7-6.9,2.1-10.1c1.3-3,3.3-5.5,5.9-7.4c1.1-0.8,2.4-1.4,3.6-1.9
			C608.6,68.7,610.1,68.3,611.6,68z M678.2,66.7c-3.3,0.3-6.7,0.8-9.9,1.7l0,0c-1.7,0.5-3.4,1-5,1.7c-1.4,0.6-2.8,1.3-4.1,2.2
			c-2.8,2-5,4.7-6.3,7.8c-1.5,3.4-2.2,7-2.2,10.7v4.3c0,6.8,1.6,12.5,4.8,17.3c3.2,4.7,8,8.4,14.3,10.9L699,135
			c4.1,1.7,6.7,3.5,8.4,5.6c1.5,2.1,2.3,4.7,2.2,7.4v2.5c0,4.2-1,6.8-4,8.3c-3.3,1.7-9,2.2-18,2.2h-34.1c-1.1-0.1-2.2,0.4-3,1.2
			c-0.8,0.9-1.1,2-1.1,3.1v6c0,1.1,0.4,2.1,1.1,2.8c0.8,0.7,1.7,1.2,2.8,1.2c4.3,0.5,9.4,0.9,15.3,1.2c5.6,0.3,11.9,0.4,18.7,0.4
			c6.1,0.1,12.2-0.3,18.2-1.2c4.2-0.6,8.4-1.9,12.2-3.9c3.2-1.9,5.7-4.8,7.1-8.3c1.6-4.1,2.4-8.6,2.3-13v-2.3
			c0-6.4-0.8-11.7-3.8-16.2s-7.8-8.2-15.8-11.4l-27.4-11.1c-4.7-1.9-7.7-3.9-9.5-6.2c-1.7-2.3-2.5-5-2.4-7.9v-3.1
			c0-3.3,1.2-5.7,3.5-7.3c2.5-1.7,6.4-2.6,11.7-2.6h35.3c2.1,0.2,4.1-1.3,4.3-3.5c0-0.3,0-0.5,0-0.8v-6c0.1-1.1-0.3-2.2-1.1-3
			c-0.8-0.8-1.8-1.2-2.8-1.3c-4-0.5-8.5-0.8-13.6-1.1s-10.7-0.3-16.7-0.3C684.7,66.4,681.4,66.4,678.2,66.7L678.2,66.7z
			 M1246.9,31.7c0-2.9,1.3-4.5,4.3-4.5h9.1c1.2-0.1,2.4,0.4,3.2,1.3c0.7,0.9,1.1,2,1.1,3.2v70.9l31.7-32.9c0.6-0.7,1.3-1.3,2.2-1.7
			c0.9-0.4,2-0.6,3-0.6h12.2c0.9,0,1.7,0.1,2.5,0.4c0.7,0.3,1.3,0.8,1.6,1.5c0.3,0.7,0.3,1.4,0,2.1c-0.3,0.8-0.8,1.6-1.5,2.2
			l-36.2,36.8l48.2,58.5c1.4,2.1,1.7,3.9,0.7,5.2c-0.8,1.2-2.5,1.8-5.1,1.8h-9.7c-1,0-2.1-0.2-3-0.7c-0.9-0.5-1.7-1.1-2.3-1.9
			l-44.4-54.7v52.9c0.1,1.1-0.3,2.3-1,3.2c-0.8,0.9-2,1.4-3.2,1.3h-9.1c-3,0-4.3-1.6-4.3-4.5L1246.9,31.7L1246.9,31.7z M1052.6,67
			c6.6-0.4,13.2-0.6,19.8-0.6c9,0,16.5,0.9,22.5,2.7c6.1,1.8,10.6,4.7,13.4,8.4c5.7,7.3,8.5,22.2,8.5,44.5
			c0.1,7.4-0.3,14.9-1.1,22.2c-0.6,5.3-1.9,10.5-3.9,15.5c-2.6,6.6-7.3,10.9-14.2,13.5c-6.7,2.5-15.5,3.5-26.6,3.5
			c-5.2,0-10.1-0.1-14.6-0.3c-3.7-0.2-7.1-0.4-10.2-0.7v33.8c0.1,1.1-0.3,2.3-1.1,3.1c-0.8,0.8-1.9,1.2-3,1.2h-9.1
			c-2.1,0.2-4.1-1.4-4.3-3.5c0-0.3,0-0.5,0-0.8v-136c0-1.1,0.4-2.2,1.2-3.1c0.8-0.8,1.8-1.3,2.9-1.6h0.2
			C1039.5,68.1,1046,67.5,1052.6,67L1052.6,67z M1130.5,31.4c1.9-1.8,4.6-2.7,8.2-2.7s6.1,0.9,8,2.7s2.7,4.5,2.7,8s-0.9,6.3-2.7,8.2
			s-4.5,2.9-8,2.9c-7.4,0-11.1-3.7-11.1-11.1C1127.6,36,1128.6,33.3,1130.5,31.4L1130.5,31.4z M1130.9,68.4c0.9-0.8,2-1.2,3.2-1.1
			h9.1c2.1-0.2,4.1,1.3,4.3,3.5c0,0.3,0,0.5,0,0.8v99.9c0.2,2.1-1.3,4-3.5,4.3c-0.3,0-0.5,0-0.8,0h-9.1c-2.1,0.2-4.1-1.4-4.3-3.5
			c0-0.3,0-0.5,0-0.8V71.7C1129.6,70.5,1130.1,69.4,1130.9,68.4L1130.9,68.4z M1182.7,69.1c6-1.8,13.5-2.7,22.5-2.7
			c5.9,0,11.4,0.1,16.3,0.3c4.8,0.2,9,0.6,12.7,1.1c1.1,0.1,2.1,0.5,2.8,1.3c0.7,0.8,1.1,1.9,1.1,3v6c0.2,2.1-1.3,4.1-3.5,4.3
			c-0.3,0-0.5,0-0.8,0h-28.5c-4.9-0.1-9.8,0.5-14.5,1.9c-3.6,1.2-6.3,3-7.9,5.3c-3.3,5-4.9,15.5-4.9,32c-0.1,6.9,0.3,13.8,1.3,20.7
			c0.8,5.2,2,9.1,3.6,11.5c1.6,2.3,4.3,4.1,7.9,5.3c4.7,1.4,9.6,2,14.5,1.9h28.5c2.1-0.2,4.1,1.3,4.3,3.5c0,0.3,0,0.5,0,0.8v6
			c0,1.1-0.4,2.1-1.1,2.9c-0.7,0.8-1.7,1.3-2.8,1.4c-4.3,0.5-8.9,0.8-13.7,1.1s-10,0.3-15.2,0.3c-9,0-16.5-0.9-22.5-2.7
			c-6.2-1.8-10.8-4.7-13.8-8.4l0,0c-5.7-7.5-8.5-22.2-8.5-44.1c-0.1-9.1,0.6-18.2,2.1-27.2c1.4-7.4,3.6-13,6.4-16.7l0,0
			C1172,73.8,1176.6,71,1182.7,69.1L1182.7,69.1z M1046.2,82.3v77.4c8.2,0.8,16.5,1.2,24.8,1.2c6.5,0,19.1-0.6,23.2-6.8
			c4.6-7,4.9-24.1,4.9-32.2s-0.3-25.5-4.8-32.6c-4-6.3-15.4-6.9-22-6.9H1046.2z"/>
		<path class="st1" d="M856.1,118.7c3.4,2.5,4.1,7.2,1.7,10.6v0.1c-2.5,3.4-7.3,4.2-10.7,1.7c0,0,0,0,0,0l-37-26.8
			c-3.4-2.5-4.2-7.3-1.7-10.7c0,0,0,0,0,0c0.8-1.1,1.8-1.9,3-2.4c1.2-0.6,2.5-0.8,3.8-0.7l39.7,0.1L867,52.2c1.3-4,5.6-6.2,9.6-4.9
			c1.2,0.4,2.2,1,3.1,1.9c0.9,0.9,1.5,1.9,1.9,3.1l12.3,38.3l40.2-0.1c4.2,0,7.6,3.4,7.6,7.6c0,2.5-1.2,4.8-3.2,6.2L906,127.8
			l12.5,38.4c1.2,4-1,8.2-5,9.5h-0.1c-2.5,0.8-5.2,0.2-7.2-1.5l-30.6-22.3L802.2,243c-2.7,3.3-7.4,3.7-10.7,1.1l0,0
			c-1.1-0.9-1.9-2-2.4-3.4c-0.5-1.3-0.6-2.8-0.3-4.2l13.5-62.7c-7.9-2.5-15.5-6-22.5-10.4c-7-4.4-13.2-9.8-18.6-16
			c-4.4-5.1-8.1-10.8-10.8-16.9c-2.7-5.8-4.4-12.1-5.1-18.5c-0.8-6.8-0.3-13.7,1.3-20.4c1.7-6.9,4.5-13.5,8.3-19.6
			c5.3-8.5,12.8-16.8,22.9-24.6c10.7-8.2,22.4-15,34.8-20.3c4.9-2.2,9.9-4.1,14.9-5.7c5.1-1.6,10.3-3,15.5-4.1
			c5.3-1.1,10.6-1.9,16-2.5c5.4-0.5,10.9-0.8,16.5-0.8c5.5,0,11,0.3,16.5,0.8c5.4,0.5,10.8,1.4,16.1,2.4c5.3,1.1,10.4,2.4,15.5,4.1
			c5.1,1.6,10.1,3.5,14.9,5.7c4.8,2.1,9.5,4.5,14,7.1c4.3,2.5,8.5,5.3,12.5,8.3c3.9,2.9,7.6,6.1,11.1,9.5c3.4,3.3,6.6,6.9,9.6,10.7
			c2.9,3.7,5.5,7.6,7.9,11.7c2.2,3.9,4.1,8,5.6,12.2c6.1,16.8,6.1,35.3,0,52.1c-1.5,4.2-3.4,8.3-5.6,12.2c-2.3,4-4.9,7.8-7.7,11.4
			l-0.2,0.3c-3,3.8-6.2,7.3-9.6,10.6c-3.5,3.4-7.2,6.6-11.1,9.5c-4,3-8.2,5.8-12.5,8.3c-4.5,2.6-9.2,5-14,7.1
			c-4.9,2.2-9.9,4-14.9,5.7c-5.1,1.6-10.3,3-15.5,4.1c-5.3,1.1-10.7,1.9-16.1,2.4c-5.4,0.5-10.9,0.8-16.5,0.8
			c-4.2-0.2-7.5-3.7-7.4-7.9c0.1-4,3.4-7.2,7.4-7.4c5.1,0,10.1-0.2,15-0.7c4.9-0.5,9.7-1.2,14.6-2.1c4.7-1,9.3-2.2,13.9-3.6
			c4.6-1.5,9.1-3.2,13.5-5.1c4.3-1.9,8.4-4,12.5-6.3c3.8-2.2,7.5-4.6,11-7.3c3.4-2.5,6.6-5.3,9.6-8.2c3-2.9,5.7-6,8.3-9.2
			c2.4-3,4.6-6.3,6.5-9.7c1.8-3.2,3.4-6.5,4.6-10c4.9-13.5,4.9-28.2,0-41.7c-1.3-3.5-2.8-6.8-4.6-10c-1.9-3.4-4.1-6.6-6.5-9.7
			c-2.5-3.2-5.3-6.3-8.2-9.2c-3-2.9-6.2-5.7-9.6-8.2c-3.5-2.6-7.2-5.1-11-7.3c-4-2.3-8.2-4.4-12.5-6.3c-4.4-2-8.9-3.7-13.5-5.2
			c-4.6-1.5-9.2-2.7-13.9-3.6c-4.8-1-9.6-1.7-14.4-2.2c-4.9-0.5-9.9-0.7-15-0.7c-5.1,0-10.1,0.2-15,0.7c-4.8,0.5-9.7,1.2-14.4,2.2
			c-4.7,1-9.3,2.2-13.9,3.6c-4.6,1.5-9.1,3.2-13.5,5.1c-11,4.7-21.4,10.7-31.1,17.9C779,65.9,772.5,73,768,80.2
			c-2.9,4.6-5.1,9.6-6.4,14.9c-1.2,5-1.6,10.2-1,15.3c0.6,4.8,1.9,9.6,3.9,14c2.2,4.7,5,9.1,8.4,13c5,5.8,10.9,10.7,17.5,14.6
			c7,4.1,14.6,7.1,22.5,8.9h0.1c4.1,0.9,6.8,5,5.9,9.1l-8.3,38.3l57.8-71.6c2.6-3.2,7.2-3.8,10.5-1.4l17.9,13l-6.8-20.8
			c-1.1-3.2,0-6.8,2.7-8.8l17.9-13h-21.7c-3.5,0.2-6.6-2-7.7-5.3l-6.8-21l-6.8,21c-1,3.1-4,5.3-7.3,5.3h-22.1L856.1,118.7z"/>
	</g>
</g>
</svg>
