<svg xmlns="http://www.w3.org/2000/svg" viewBox="0 0 244.02 44.99"><defs><style>.cls-1{fill:#fff;}</style></defs><g id="Lager_2" data-name="Lager 2"><g id="HORIZONTAL_LOGOTYPE" data-name="HORIZONTAL LOGOTYPE"><g id="LOGO"><path class="cls-1" d="M16.92,14.45,1,15a1,1,0,0,0-.72.34A1,1,0,0,0,0,16l.29,4.34a1,1,0,0,0,1,.95l4.33,0,1,20.38a1,1,0,0,0,.34.71,1,1,0,0,0,.75.26l4.89-.33h0a1,1,0,0,0,1-1L13,21.17l4.29-.05a1,1,0,0,0,.73-.33,1,1,0,0,0,.27-.76L18,15.4A1,1,0,0,0,16.92,14.45Zm18.56,1.33-4.82-.26a1,1,0,0,0-1,1l-.07,10.63-2.1.45-.53-12.06a1,1,0,0,0-1-1l-4.75.12a1,1,0,0,0-1,1L21,42.51a1,1,0,0,0,1,1l4.75-.12a1,1,0,0,0,.73-.3,1,1,0,0,0,.3-.73l-.52-9,1.86.13.33,8a1,1,0,0,0,.28.75,1,1,0,0,0,.73.32l5,.34h.06a1,1,0,0,0,1-1l0-25.14a1,1,0,0,0-1-1.06Zm17.87-2.25L49,13.86a1,1,0,0,0-.94,1s0,16.78,0,19c0,1.3.14,3.49-1.29,3.55-1,0-1.32-1.39-1.34-3.42,0-2.28.17-17.89.17-18a1,1,0,0,0-.91-1l-5-.53a1,1,0,0,0-1.12,1s.19,19.66.2,20.35a7.14,7.14,0,0,0,7.55,7c6.2-.17,7.32-3.86,7.7-8.17.16-1.79.45-18.18.47-20a1,1,0,0,0-.32-.75A1,1,0,0,0,53.35,13.53ZM72.62,14.6l-4.55.22h0a1,1,0,0,0-.71.34,1.09,1.09,0,0,0-.26.75l.75,12.59-4.71-13a1,1,0,0,0-1.06-.66l-4.56.5a1,1,0,0,0-.91,1l.75,24.82a1,1,0,0,0,1,1l4.57.34a1,1,0,0,0,.79-.29,1,1,0,0,0,.31-.78L63.27,30.6l3.95,11.28a1,1,0,0,0,.9.67H73a1,1,0,0,0,.66-.28,1.07,1.07,0,0,0,.32-.75l-.29-25.9a1,1,0,0,0-.32-.73A1.07,1.07,0,0,0,72.62,14.6Zm6.1-.53h-1a1,1,0,0,0-1,1l-.82,25.79a1,1,0,0,0,.94,1s.6.05,1.51.05h0c3.2,0,10.85-.58,12.61-6,1.47-4.47,1.23-10.58.86-13.49C91.13,16.83,86.83,14.07,78.72,14.07Zm6.81,17c-.54,4.36-1.91,4.63-3.41,5.15l.7-16.2a2.77,2.77,0,0,1,2,1.24C86.08,22.89,86.06,26.8,85.53,31.06Zm21.25,6.31-6,.47-.28-5.58,3.87-.22a1,1,0,0,0,1-.91l.36-3.43a1,1,0,0,0-.27-.81,1,1,0,0,0-.8-.32l-4.2.22V20.72h6.21a1,1,0,0,0,1-1,1.79,1.79,0,0,0,0-.23l-.35-3.64a1,1,0,0,0-1.05-.92l-11.36.28a1,1,0,0,0-1,1l.36,25.51a1,1,0,0,0,1,1h11.49a1,1,0,0,0,1-1l.09-3.33a1,1,0,0,0-.32-.77A1,1,0,0,0,106.78,37.37Zm18.58-15c-.25-3.58-1.49-8.33-9.28-8.33a31,31,0,0,0-5.83.65,1,1,0,0,0-.82,1l.36,25a1,1,0,0,0,.94,1l3.58.28a1,1,0,0,0,.77-.27,1,1,0,0,0,.33-.75v-8l1.82-.1,2,8.62a1,1,0,0,0,1,.83h.08l3.58-.28a1,1,0,0,0,.93-1.19l-2.54-9.59C124.07,29.84,125.72,27.38,125.36,22.41Zm-6.46,3.52a5.52,5.52,0,0,1-3.5,1.37V19.94a4.67,4.67,0,0,1,1-.11c1.37,0,3,.61,3.26,3.54A3.16,3.16,0,0,1,118.9,25.93ZM139,29.72a20.37,20.37,0,0,0,4.83-14.38,1,1,0,0,0-1.09-1l-4.25.28a1,1,0,0,0-1,1.09c.15,2.24-1.33,7-3.46,10l.31-9.73a1,1,0,0,0-.3-.74,1,1,0,0,0-.74-.3l-5.48.08a1,1,0,0,0-.72.31,1,1,0,0,0-.28.73L127.42,42a1,1,0,0,0,.36.75,1,1,0,0,0,.8.24l4.27-.57a1,1,0,0,0,.89-1l.07-7.57c.87.52,3.41,4.2,3.84,7.84a1,1,0,0,0,1,.9l4.5,0h.06a1,1,0,0,0,.66-.31,1,1,0,0,0,.29-.74C144.14,40.57,142.61,32.63,139,29.72Zm12.74-15.88-4.87.63a1,1,0,0,0-.89,1l0,25.31a1,1,0,0,0,.33.75,1,1,0,0,0,.74.27h0l5.3-.39a1,1,0,0,0,.95-1l-.38-25.54a1,1,0,0,0-1.17-1Zm10.36.74c-1.48.1-6.32,1-6.72,8.1,0,.91-.1,1.77-.15,2.59-.29,4.85-.5,8.36.12,11.4.38,1.82,1.89,6,7.9,6,.37,0,.76,0,1.15-.05,2.51-.21,4.37-1,5.52-2.39,1.65-2,1.43-4.47,1.31-5.82l0-.27a1,1,0,0,0-1.06-.94l-3.79.17a1,1,0,0,0-.75.38,1.07,1.07,0,0,0-.22.81,4.4,4.4,0,0,1-.49,2.93,1.44,1.44,0,0,1-1.19.49h-.05a1.62,1.62,0,0,1-1.28-.51c-.55-.58-1.17-2-1-5.48,0-.81.08-1.75.12-2.75.1-2.6.22-5.56.46-7.41V21.8c.18-1.41.45-2,1.63-2.06a2,2,0,0,1,1.74.51,2.13,2.13,0,0,1,.3,1.56,1,1,0,0,0,.21.84,1,1,0,0,0,.78.38l4.57.06a1,1,0,0,0,1-1,7.46,7.46,0,0,0-2-5.08C168.44,15.17,165.7,14.34,162.1,14.58Zm30.37,25.88c-.07-.3-2-8-6.05-11.7,2-1.85,6-5.51,4.63-13.83a1,1,0,0,0-1.12-.85l-5.28.59a1,1,0,0,0-.7.4,1,1,0,0,0-.19.78c0,.08,1.09,6.09-3,9.7l.1-10.25a1,1,0,0,0-.34-.77,1,1,0,0,0-.8-.25l-5.28.59a1,1,0,0,0-.91,1l.62,25.66a1,1,0,0,0,.35.74,1,1,0,0,0,.71.25h.08l4.46-.5a1,1,0,0,0,.91-1l.37-8a17.57,17.57,0,0,1,4.15,8.32,1,1,0,0,0,1.13.89l5.27-.59a1,1,0,0,0,.72-.42A1,1,0,0,0,192.47,40.46Z"/><path class="cls-1" d="M241.21,30.77l1.38-9.63L236.82,9.06,232.9,10.4l-5.11-5.48-9-4.92-2,7.3-1.4-3.83-6.94,6.78L204.56,17l-.17,7-2.73-1.3L203.52,34l4.23,7.25,10,3.42,8.17.3L240,39.84l4.05-10Zm-6.09-5.35-8,.22-.29,9-.43,5.32-7-.07v-5.1l-.57-8.91-8.34.36-.29-8.62,12.29-.07,12.72-.36.22,1.15Z"/></g></g></g></svg>