<svg xmlns="http://www.w3.org/2000/svg" width="144.373" height="34" viewBox="0 0 144.373 34"><g data-name="Group 3" fill="#05072f"><path data-name="Path 3265" d="M39.729 16.038a11.076 11.076 0 00-.155-7.186 3.167 3.167 0 00-2.622-1.968 4.585 4.585 0 00-3.629 1.311c-.431.4-.486.664-.236 1.115a9.208 9.208 0 01.968 2.37c.65 2.874.26 6.08-1.226 10.09a13.621 13.621 0 01-4.136 6.237 4.226 4.226 0 01-3.947 1.071 2.96 2.96 0 01-1.85-2.883 18.393 18.393 0 01.648-5.288c.937-3.747 2-7.519 3.03-11.165l.475-1.688c.112-.4.055-.487.055-.489s-.055-.056-.317-.056c-2.444 0-4.334.012-6.128.036-.282 0-.424.006-.577.583-1.124 4.251-2.345 8.815-3.654 13.383a13.365 13.365 0 01-3.6 6.381 3.9 3.9 0 01-3.854 1.121 2.6 2.6 0 01-1.849-2.912 36.838 36.838 0 01.88-5.336c.375-1.547.8-3.089 1.214-4.58.44-1.592.893-3.23 1.278-4.84.47-1.976-.208-3.585-1.768-4.2a4.71 4.71 0 00-1.727-.3 7.478 7.478 0 00-5.976 3.168c-.239.368-.219.47-.219.472s.029.079.282.174c1.473.545 2.069 1.79 1.729 3.6-.137.718-.32 1.43-.5 2.116-.1.376-.195.753-.283 1.129-.207.87-.444 1.772-.652 2.569a49.332 49.332 0 00-1.278 5.846c-.471 3.556.632 5.887 3.281 6.927a7.9 7.9 0 007.331-.671 24.974 24.974 0 003.18-2.515l.033-.029c.462-.406.943-.829 1.434-1.234l.7-.576.177.788a5.578 5.578 0 003.538 4.159c4.094 1.59 9.312.081 12.981-3.755a28.678 28.678 0 006.969-12.975"/><path data-name="Path 3266" d="M55.32 15.241a8.872 8.872 0 00-3.887-.868 11.557 11.557 0 00-3.013.423 13.252 13.252 0 00-9.468 11.754c-.194 3.215 1.085 5.421 3.8 6.557a10.24 10.24 0 006.806.292c4.9-1.349 8.48-5.824 9.343-11.678a6.074 6.074 0 00-3.58-6.479m-5.82 14.929a4.006 4.006 0 01-2.285.791 3.017 3.017 0 01-.769-.1 2.916 2.916 0 01-2.05-2.11 8.715 8.715 0 01.164-4.443 10.871 10.871 0 012.619-5.217 6.745 6.745 0 012.454-1.641 3.029 3.029 0 012.543.1 3.108 3.108 0 011.438 2.472 7.257 7.257 0 01.041.726 12.913 12.913 0 01-2.155 7.341 8.366 8.366 0 01-2 2.077"/><path data-name="Path 3267" d="M76.583 15.241a8.87 8.87 0 00-3.886-.868 11.555 11.555 0 00-3.013.423 13.252 13.252 0 00-9.468 11.754c-.195 3.215 1.085 5.421 3.8 6.557a10.24 10.24 0 006.806.292c4.9-1.349 8.48-5.824 9.343-11.678a6.074 6.074 0 00-3.58-6.479m-5.82 14.929a4.007 4.007 0 01-2.286.791 3.018 3.018 0 01-.769-.1 2.916 2.916 0 01-2.05-2.11 8.717 8.717 0 01.164-4.443 10.871 10.871 0 012.619-5.217 6.746 6.746 0 012.454-1.641 3.029 3.029 0 012.542.1 3.109 3.109 0 011.439 2.472c.027.239.037.481.041.726a12.912 12.912 0 01-2.155 7.341 8.371 8.371 0 01-2 2.077"/><path data-name="Path 3268" d="M119.479 15.228a8.866 8.866 0 00-3.886-.868 11.538 11.538 0 00-3.014.423 13.25 13.25 0 00-9.468 11.754c-.195 3.215 1.085 5.42 3.8 6.556a10.241 10.241 0 006.806.291c4.9-1.349 8.48-5.824 9.342-11.678a6.072 6.072 0 00-3.58-6.478m-5.82 14.928a4.007 4.007 0 01-2.286.791 3.011 3.011 0 01-.769-.1 2.914 2.914 0 01-2.05-2.11 8.714 8.714 0 01.164-4.444 10.869 10.869 0 012.619-5.216 6.746 6.746 0 012.454-1.641 3.029 3.029 0 012.542.1 3.108 3.108 0 011.438 2.471c.027.24.037.482.041.727a12.912 12.912 0 01-2.155 7.341 8.38 8.38 0 01-2 2.077"/><path data-name="Path 3269" d="M140.743 15.228a8.865 8.865 0 00-3.887-.868 11.537 11.537 0 00-3.013.423 13.25 13.25 0 00-9.468 11.754c-.194 3.215 1.085 5.42 3.8 6.556a10.239 10.239 0 006.805.291c4.9-1.349 8.481-5.824 9.343-11.678a6.073 6.073 0 00-3.58-6.478m-5.82 14.928a4.007 4.007 0 01-2.286.791 3 3 0 01-.768-.1 2.914 2.914 0 01-2.05-2.11 8.719 8.719 0 01.164-4.444 10.867 10.867 0 012.62-5.216 6.742 6.742 0 012.453-1.641 3.032 3.032 0 012.543.1 3.11 3.11 0 011.438 2.471c.028.24.037.482.042.727a13.61 13.61 0 01-.3 2.956 13.469 13.469 0 01-1.858 4.385 8.367 8.367 0 01-2 2.077"/><path data-name="Path 3270" d="M82.603 27.285a5.046 5.046 0 00-2.176 2.625 3.457 3.457 0 00.047 2.747 2.314 2.314 0 001.61 1.287 3.623 3.623 0 002.572-.573l.019-.012a5.21 5.21 0 002.168-2.514 3.47 3.47 0 00-.055-2.883c-.7-1.374-2.5-1.664-4.185-.676"/><path data-name="Path 3271" d="M92.203 11.275c.983-3.45 1.713-4.756 2.635-8.213.451-1.7-.182-2.7-1.714-2.964a9.168 9.168 0 00-4.553.553c-.317 1.6-.56 3.082-.913 4.556-1.485 6.206-2.716 10.27-4.214 16.475a3.384 3.384 0 00-.026.516v.083a2.249 2.249 0 002.812 2.039 3.541 3.541 0 002.467-2.445l.072-.2.387-1.062 2.29-6.922z"/><path data-name="Path 3272" d="M100.258 31.066a.481.481 0 01-.05-.038 2.053 2.053 0 01-1.071-1.383 2.88 2.88 0 01-.022-.99 7.741 7.741 0 01.353-1.166c.949-2.555 1.906-5.107 2.8-7.673a6.715 6.715 0 00.379-2.117 3.289 3.289 0 00-3.538-3.416 9.122 9.122 0 00-6.389 2.642 2.51 2.51 0 00-.7 1.356 1.24 1.24 0 00-.007.438 6.845 6.845 0 013.16-.776 1.217 1.217 0 01.8.29h.005a1.858 1.858 0 01.411 1.694c0 .025 0 .048-.008.072a4.575 4.575 0 01-.205.831l-.116.316c-1.044 2.879-2.122 5.751-3.128 8.638-.7 2.013.155 3.524 1.971 3.866a4.428 4.428 0 00.459.074 5.868 5.868 0 004.954-2.1c.038-.048.06-.082.085-.119s.158-.255-.143-.44"/></g></svg>