<svg xmlns="http://www.w3.org/2000/svg" width="80" height="96" viewBox="0 0 80 96">
  <defs>
    <linearGradient id="a" x1="58.389%" x2="32.577%" y1="108.759%" y2="-72.162%">
      <stop offset="0%" stop-color="#FF963B"/>
      <stop offset="5%" stop-color="#EE7D42"/>
      <stop offset="15%" stop-color="#C84652"/>
      <stop offset="20%" stop-color="#D55057"/>
      <stop offset="31%" stop-color="#E65E5D"/>
      <stop offset="43%" stop-color="#F16661"/>
      <stop offset="57%" stop-color="#F46962"/>
    </linearGradient>
    <linearGradient id="b" x1="50%" x2="50%" y1="-23.224%" y2="101.801%">
      <stop offset="0%" stop-color="#F5BE49"/>
      <stop offset="0%" stop-color="#F5C048"/>
      <stop offset="0%" stop-color="#F4C745"/>
      <stop offset="0%" stop-color="#F4CA43"/>
      <stop offset="100%" stop-color="#C04F1B"/>
    </linearGradient>
    <linearGradient id="c" x1="50.003%" x2="50.003%" y1="-23.186%" y2="101.802%">
      <stop offset="2%" stop-color="#FFF89B"/>
      <stop offset="98%" stop-color="#FFDE65"/>
    </linearGradient>
    <linearGradient id="d" x1="49.997%" x2="49.997%" y1="-37.559%" y2="129.172%">
      <stop offset="0%" stop-color="#FFB032"/>
      <stop offset="8%" stop-color="#FFBA40"/>
      <stop offset="30%" stop-color="#FFD161"/>
      <stop offset="52%" stop-color="#FFE179"/>
      <stop offset="71%" stop-color="#FFEB87"/>
      <stop offset="88%" stop-color="#FFEE8C"/>
    </linearGradient>
    <linearGradient id="e" x1="50%" x2="50%" y1="-3.353%" y2="144.379%">
      <stop offset="0%" stop-color="#B34A2D"/>
      <stop offset="17%" stop-color="#B54D2E"/>
      <stop offset="29%" stop-color="#BA5632"/>
      <stop offset="40%" stop-color="#C36638"/>
      <stop offset="50%" stop-color="#CF7C40"/>
      <stop offset="59%" stop-color="#DF994B"/>
      <stop offset="68%" stop-color="#F2BC58"/>
      <stop offset="73%" stop-color="#FFD361"/>
      <stop offset="82%" stop-color="#FFD764"/>
      <stop offset="92%" stop-color="#FFE36D"/>
      <stop offset="98%" stop-color="#FFEF76"/>
    </linearGradient>
    <linearGradient id="f" x1="50%" x2="50%" y1="110.426%" y2="-19.455%">
      <stop offset="6%" stop-color="#FF963B"/>
      <stop offset="7%" stop-color="#E97644"/>
      <stop offset="10%" stop-color="#C84652"/>
      <stop offset="11%" stop-color="#D55057"/>
      <stop offset="14%" stop-color="#E65E5D"/>
      <stop offset="17%" stop-color="#F16661"/>
      <stop offset="20%" stop-color="#F46962"/>
    </linearGradient>
    <linearGradient id="g" x1="91.084%" x2="2.68%" y1="8.916%" y2="97.319%">
      <stop offset="0%" stop-color="#FFC853"/>
      <stop offset="0%" stop-color="#FFCA52"/>
      <stop offset="0%" stop-color="#FED14F"/>
      <stop offset="0%" stop-color="#FED44D"/>
      <stop offset="100%" stop-color="#CA5925"/>
    </linearGradient>
    <linearGradient id="h" x1="86.379%" x2="17.995%" y1="13.62%" y2="82.004%">
      <stop offset="49%" stop-color="#FFC853"/>
      <stop offset="77%" stop-color="#FFC751"/>
      <stop offset="88%" stop-color="#FFC24A"/>
      <stop offset="95%" stop-color="#FFB93F"/>
      <stop offset="100%" stop-color="#FFB032"/>
    </linearGradient>
    <linearGradient id="i" x1="50%" x2="50%" y1="-1.448%" y2="99.996%">
      <stop offset="2%" stop-color="#FFF89B"/>
      <stop offset="98%" stop-color="#FFDE65"/>
    </linearGradient>
    <linearGradient id="j" x1="79.063%" x2="10.996%" y1="20.936%" y2="89.003%">
      <stop offset="0%" stop-color="#B34A2D"/>
      <stop offset="21%" stop-color="#B44C2E"/>
      <stop offset="28%" stop-color="#B85330"/>
      <stop offset="33%" stop-color="#BE5E35"/>
      <stop offset="38%" stop-color="#C86F3B"/>
      <stop offset="41%" stop-color="#D48544"/>
      <stop offset="44%" stop-color="#E3A14E"/>
      <stop offset="47%" stop-color="#F4C05A"/>
      <stop offset="49%" stop-color="#FFD361"/>
      <stop offset="98%" stop-color="#FFEF76"/>
    </linearGradient>
    <linearGradient id="k" x1="83.707%" x2="15.64%" y1="16.292%" y2="84.359%">
      <stop offset="0%" stop-color="#CE7F37"/>
      <stop offset="38%" stop-color="#CB7C35"/>
      <stop offset="68%" stop-color="#C27230"/>
      <stop offset="96%" stop-color="#B26128"/>
      <stop offset="100%" stop-color="#AF5E26"/>
    </linearGradient>
    <linearGradient id="l" x1="50%" x2="50%" y1="102.539%" y2="-14.975%">
      <stop offset="0%" stop-color="#CE7F37"/>
      <stop offset="100%" stop-color="#F3C36A"/>
    </linearGradient>
    <linearGradient id="m" x1="50%" x2="50%" y1="102.541%" y2="-14.973%">
      <stop offset="0%" stop-color="#CE7F37"/>
      <stop offset="100%" stop-color="#F3C36A"/>
    </linearGradient>
    <linearGradient id="n" x1="50%" x2="50%" y1="-62.723%" y2="136.826%">
      <stop offset="0%" stop-color="#F0BB44"/>
      <stop offset="0%" stop-color="#F0BD43"/>
      <stop offset="0%" stop-color="#EFC440"/>
      <stop offset="0%" stop-color="#EFC73E"/>
      <stop offset="100%" stop-color="#BB4C16"/>
    </linearGradient>
    <linearGradient id="o" x1="50.005%" x2="50.005%" y1="-1.446%" y2="95.262%">
      <stop offset="49%" stop-color="#FFC853"/>
      <stop offset="77%" stop-color="#FFC751"/>
      <stop offset="88%" stop-color="#FFC24A"/>
      <stop offset="95%" stop-color="#FFB93F"/>
      <stop offset="100%" stop-color="#FFB032"/>
    </linearGradient>
    <linearGradient id="p" x1="50.005%" x2="50.005%" y1="-1.446%" y2="95.262%">
      <stop offset="2%" stop-color="#FFF89B"/>
      <stop offset="98%" stop-color="#FFDE65"/>
    </linearGradient>
    <linearGradient id="q" x1="50.005%" x2="50.005%" y1="-1.427%" y2="95.263%">
      <stop offset="49%" stop-color="#FFC853"/>
      <stop offset="77%" stop-color="#FFC751"/>
      <stop offset="88%" stop-color="#FFC24A"/>
      <stop offset="95%" stop-color="#FFB93F"/>
      <stop offset="100%" stop-color="#FFB032"/>
    </linearGradient>
    <linearGradient id="r" x1="49.984%" x2="49.984%" y1="-26.695%" y2="138.585%">
      <stop offset="2%" stop-color="#FFF89B"/>
      <stop offset="98%" stop-color="#FFDE65"/>
    </linearGradient>
    <linearGradient id="s" x1="95.893%" x2="-4.577%" y1="49.994%" y2="49.994%">
      <stop offset="0%" stop-color="#FF5B33"/>
      <stop offset="41%" stop-color="#FD5A33"/>
      <stop offset="55%" stop-color="#F65831"/>
      <stop offset="66%" stop-color="#EB532E"/>
      <stop offset="74%" stop-color="#DA4D29"/>
      <stop offset="81%" stop-color="#C44524"/>
      <stop offset="88%" stop-color="#A83B1D"/>
      <stop offset="94%" stop-color="#882F14"/>
      <stop offset="99%" stop-color="#64210B"/>
      <stop offset="100%" stop-color="#591D08"/>
    </linearGradient>
    <linearGradient id="t" x1="9.648%" x2="110.119%" y1="49.994%" y2="49.994%">
      <stop offset="0%" stop-color="#FF5B33"/>
      <stop offset="41%" stop-color="#FD5A33"/>
      <stop offset="55%" stop-color="#F65831"/>
      <stop offset="66%" stop-color="#EB532E"/>
      <stop offset="74%" stop-color="#DA4D29"/>
      <stop offset="81%" stop-color="#C44524"/>
      <stop offset="88%" stop-color="#A83B1D"/>
      <stop offset="94%" stop-color="#882F14"/>
      <stop offset="99%" stop-color="#64210B"/>
      <stop offset="100%" stop-color="#591D08"/>
    </linearGradient>
    <linearGradient id="u" x1="100.038%" x2=".038%" y1="49.995%" y2="49.995%">
      <stop offset="0%" stop-color="#702C00"/>
      <stop offset="100%" stop-color="#D72C00"/>
    </linearGradient>
    <linearGradient id="v" x1="0%" y1="49.995%" y2="49.995%">
      <stop offset="0%" stop-color="#702C00"/>
      <stop offset="100%" stop-color="#D72C00"/>
    </linearGradient>
    <linearGradient id="w" x1="49.999%" x2="49.999%" y1="100%" y2="0%">
      <stop offset="0%" stop-color="#EB3C00"/>
      <stop offset="100%" stop-color="#EB2C00"/>
    </linearGradient>
  </defs>
  <g fill="none" fill-rule="evenodd">
    <g>
      <path fill="url(#a)"
            d="M16 0s14.414 18.915 15.397 20.05c.983 1.135 1.085.937 1.53.937H50c-.444 0-.66.042-1.523-.937C47.472 18.925 33.074 0 33.074 0H16z"/>
      <path fill="#FFDE65"
            d="M22 0s14.304 18.941 15.3 20.061c.908 1.02 1.08.937 1.522.937H45c-.441 0-.657.043-1.521-.937C42.488 18.935 28.179 0 28.179 0H22z"
            style="mix-blend-mode:overlay"/>
      <rect width="23" height="10" x="30" y="17" fill="url(#b)" rx="5"/>
      <path fill="url(#c)"
            d="M48.356 17H31.644c-.907.002-1.641.625-1.644 1.395V19h20v-.605c-.003-.77-.737-1.393-1.644-1.395z"/>
      <rect width="22" height="10" x="30" y="17" fill="url(#d)" rx="5"/>
      <rect width="19" height="2" x="32" y="20" fill="url(#e)" rx="1"/>
      <rect width="18" height="1" x="32" y="20" fill="#421B19" rx=".5"/>
      <path fill="#A68B47" d="M52.959 24.819a27.479 27.479 0 0 0-22.938-.49v3.6h22.938v-3.11z" opacity=".07"
            style="mix-blend-mode:multiply"/>
      <path fill="#A68B47" d="M52.959 24.8a27.479 27.479 0 0 0-22.938-.492v3.6h22.938V24.8z" opacity=".14"
            style="mix-blend-mode:multiply"/>
      <path fill="#A68B47" d="M52.959 24.782a27.479 27.479 0 0 0-22.938-.49v3.6h22.938v-3.11z" opacity=".21"
            style="mix-blend-mode:multiply"/>
      <path fill="#A68B47" d="M52.959 24.824a27 27 0 0 0-22.938-.5v3.67h22.938v-3.17z" opacity=".29"
            style="mix-blend-mode:multiply"/>
      <path fill="#A68B47" d="M52.959 24.86a27.484 27.484 0 0 0-22.938-.489v3.599h22.938v-3.11z" opacity=".36"
            style="mix-blend-mode:multiply"/>
      <path fill="#A68B47" d="M52.959 24.843a27.479 27.479 0 0 0-22.938-.49v3.6h22.938v-3.11z" opacity=".43"
            style="mix-blend-mode:multiply"/>
      <path fill="#A68B47" d="M52.959 24.825a27.479 27.479 0 0 0-22.938-.49v3.6h22.938v-3.11z" opacity=".5"
            style="mix-blend-mode:multiply"/>
      <path fill="#A68B47"
            d="M51.977 17.014h-12.5c-1.1 1.58-1.878 2.681-2.08 2.935-.739.923-.988 1-1.33 1h13.428c.427 0 .593.087 1.47-1 .13-.16.489-.659 1.015-1.403l-.003-1.532z"
            opacity=".8" style="mix-blend-mode:multiply"/>
      <path fill="url(#f)"
            d="M66 0S51.607 18.941 50.604 20.061c-.913 1.02-1.086.937-1.53.937H32c.444 0 .66.043 1.53-.937C34.527 18.935 48.925 0 48.925 0H66z"/>
      <path fill="#FFDE65"
            d="M61 0S46.696 18.941 45.7 20.061c-.91 1.02-1.08.937-1.522.937H38c.441 0 .657.043 1.52-.937C40.512 18.935 54.822 0 54.822 0H61z"
            style="mix-blend-mode:overlay"/>
      <circle cx="40.496" cy="50.171" r="27.729" fill="url(#g)" transform="rotate(-45 40.496 50.17)"/>
      <circle cx="40.496" cy="50.171" r="26.951" fill="url(#h)" transform="rotate(-45 40.496 50.17)"/>
      <path fill="url(#i)"
            d="M40 55c10.858 0 20.564-2.927 27-7.524C65.897 33.778 54.23 23 40 23S14.099 33.778 13 47.476C19.436 52.073 29.141 55 40 55z"/>
      <circle cx="40.496" cy="50.171" r="23.045" fill="url(#j)" transform="rotate(-45 40.496 50.17)"/>
      <path fill="#FFF" fill-rule="nonzero"
            d="M40.975 27.23c12.592 0 22.796 10.235 22.796 22.853 0 12.618-10.21 22.857-22.8 22.857-12.592 0-22.801-10.235-22.801-22.857 0-12.623 10.213-22.853 22.805-22.853zm0-.193C29.207 27.052 19.363 36 18.2 47.74c-1.163 11.74 6.733 22.454 18.268 24.79 11.535 2.334 22.96-4.47 26.432-15.742 3.472-11.272-2.137-23.348-12.978-27.94a22.803 22.803 0 0 0-8.947-1.811z"
            opacity=".5" style="mix-blend-mode:overlay"/>
      <circle cx="40.496" cy="50.171" r="22.557" fill="url(#k)" transform="rotate(-45 40.496 50.17)"/>
      <circle cx="40" cy="50" r="22" fill="url(#l)"/>
      <path fill="#FFF" fill-rule="nonzero"
            d="M40.032 23.232c13.687.018 25.135 10.4 26.486 24.02 1.352 13.62-7.833 26.05-21.249 28.758-13.416 2.708-26.702-5.186-30.74-18.264-4.037-13.077 2.487-27.087 15.095-32.413a26.58 26.58 0 0 1 10.408-2.101zm0-.196c-14.876 0-26.936 12.06-26.936 26.936 0 14.877 12.06 26.932 26.936 26.932 14.877 0 26.937-12.06 26.937-26.936 0-14.877-12.06-26.937-26.937-26.937v.005z"
            opacity=".4" style="mix-blend-mode:overlay"/>
      <path fill="url(#m)"
            d="M43.876 24.112c.04-.559.062-1.124.062-1.693 0-12.346-9.834-22.356-21.963-22.356C9.845.063.01 10.073.01 22.42c0 .57.022 1.134.063 1.693 5.964 3.004 13.589 4.807 21.9 4.807 8.312 0 15.937-1.803 21.902-4.807z"
            opacity=".1" style="mix-blend-mode:screen" transform="translate(19 28)"/>
      <path fill="url(#n)" d="M37.824 63V46.026l-2.873 2.589L31 44.22 38.7 37H44v26z"/>
      <path fill="url(#o)" d="M44 63h-5.096V43.975l-4.013 3.784L32 44.679 39.398 38H44z"/>
      <path fill="url(#p)" d="M44 63h-5.096V43.975l-4.013 3.784L32 44.679 39.398 38H44z"/>
      <path fill="url(#q)" d="M44 62h-4.13V43.85l-4.14 3.579L33 44.564 40.158 38H44z"/>
      <path fill="url(#r)"
            d="M7.372 15.993c1.208 0 2.4-.036 3.577-.108V0H7.128L.018 6.619l2.71 2.889 4.113-3.609v10.086l.531.008z"
            opacity=".4" transform="translate(33 38)"/>
      <path fill="#FFF"
            d="M39.205 38.22L38 37.927l1.092.585.127.285L38.922 40l.588-1.093.285-.127 1.205.294-1.093-.585-.127-.284.298-1.205-.588 1.093zM30.857 17.215L30.8 18l.25-.747.164-.11.785.054-.747-.248-.11-.164L31.2 16l-.25.747-.163.11-.786-.054.747.248z"/>
      <path fill="url(#s)" d="M72 96h8l-2.84-4.47L80 87h-8z"/>
      <path fill="url(#t)" d="M8 96H0l2.84-4.47L0 87h8z"/>
      <path fill="url(#u)" d="M72 96l3-1.282V85l-3 1.282z"/>
      <path fill="url(#v)" d="M7 96l-3-1.282V85l3 1.282z"/>
      <path fill="url(#w)" d="M4 85h71v9H4z"/>
      <path fill="#FFF"
            d="M3 86.884h1v1H3zM1 86.884h1v1H1zM3 94.884h1v1H3zM1 94.884h1v1H1zM78 86.884h1v1h-1zM76 86.884h1v1h-1zM78 94.884h1v1h-1zM76 94.884h1v1h-1z"
            opacity=".5"/>
      <g fill="#FFF" opacity=".5">
        <path
          d="M73.846 86.223h1.126v1h-1.126zM71.595 86.223h1.126v1h-1.126zM69.343 86.223h1.126v1h-1.126zM67.091 86.223h1.126v1h-1.126zM64.84 86.223h1.126v1H64.84zM62.588 86.223h1.126v1h-1.126zM60.336 86.223h1.126v1h-1.126zM58.085 86.223h1.126v1h-1.126zM55.833 86.223h1.126v1h-1.126zM53.582 86.223h1.125v1h-1.125zM51.331 86.223h1.125v1h-1.125zM49.079 86.223h1.125v1h-1.125zM46.827 86.223h1.125v1h-1.125zM44.575 86.223H45.7v1h-1.125zM42.324 86.223h1.125v1h-1.125zM40.072 86.223h1.125v1h-1.125zM37.821 86.223h1.125v1h-1.125zM35.569 86.223h1.125v1h-1.125zM33.318 86.223h1.125v1h-1.125zM31.066 86.223h1.125v1h-1.125zM28.814 86.223h1.125v1h-1.125zM26.563 86.223h1.125v1h-1.125zM24.311 86.223h1.125v1h-1.125zM22.059 86.223h1.125v1h-1.125zM19.808 86.223h1.125v1h-1.125zM17.556 86.223h1.125v1h-1.125zM15.304 86.223h1.125v1h-1.125zM13.053 86.223h1.125v1h-1.125zM10.802 86.223h1.125v1h-1.125zM8.549 86.223h1.125v1H8.549zM6.298 86.223h1.125v1H6.298zM4.047 86.223h1.125v1H4.047z"/>
      </g>
      <g fill="#FFF" opacity=".5">
        <path
          d="M73.846 93.15h1.126v1h-1.126zM71.595 93.15h1.126v1h-1.126zM69.343 93.15h1.126v1h-1.126zM67.091 93.15h1.126v1h-1.126zM64.84 93.15h1.126v1H64.84zM62.588 93.15h1.126v1h-1.126zM60.336 93.15h1.126v1h-1.126zM58.085 93.15h1.126v1h-1.126zM55.833 93.15h1.126v1h-1.126zM53.582 93.15h1.125v1h-1.125zM51.331 93.15h1.125v1h-1.125zM49.079 93.15h1.125v1h-1.125zM46.827 93.15h1.125v1h-1.125zM44.575 93.15H45.7v1h-1.125zM42.324 93.15h1.125v1h-1.125zM40.072 93.15h1.125v1h-1.125zM37.821 93.15h1.125v1h-1.125zM35.569 93.15h1.125v1h-1.125zM33.318 93.15h1.125v1h-1.125zM31.066 93.15h1.125v1h-1.125zM28.814 93.15h1.125v1h-1.125zM26.563 93.15h1.125v1h-1.125zM24.311 93.15h1.125v1h-1.125zM22.059 93.15h1.125v1h-1.125zM19.808 93.15h1.125v1h-1.125zM17.556 93.15h1.125v1h-1.125zM15.304 93.15h1.125v1h-1.125zM13.053 93.15h1.125v1h-1.125zM10.802 93.15h1.125v1h-1.125zM8.549 93.15h1.125v1H8.549zM6.298 93.15h1.125v1H6.298zM4.047 93.15h1.125v1H4.047z"/>
      </g>
    </g>
    <text fill="#FFF" font-family="Arial-Black, Arial Black" font-size="4.5" font-weight="700">
      <tspan x="31" y="91">Winner</tspan>
    </text>
  </g>
</svg>
