<svg xmlns="http://www.w3.org/2000/svg" width="199" height="133" viewBox="0 0 199 133">
  <defs>
    <linearGradient id="a" x1="100%" x2="0%" y1="50%" y2="50%">
      <stop offset="0%" stop-color="#E75856"/>
      <stop offset="8%" stop-color="#D93432"/>
      <stop offset="10%" stop-color="#D22A28"/>
      <stop offset="18%" stop-color="#BE0B0B"/>
      <stop offset="23%" stop-color="#B60000"/>
      <stop offset="52%" stop-color="#B60000"/>
      <stop offset="70%" stop-color="#B80202"/>
      <stop offset="81%" stop-color="#BD0B0A"/>
      <stop offset="90%" stop-color="#C61918"/>
      <stop offset="97%" stop-color="#D32C2B"/>
      <stop offset="100%" stop-color="#DA3634"/>
    </linearGradient>
    <linearGradient id="b" x1="49.977%" x2="49.977%" y1="100%" y2="0%">
      <stop offset="0%" stop-color="#FFDC65"/>
      <stop offset="6%" stop-color="#FBD762"/>
      <stop offset="13%" stop-color="#EEC85A"/>
      <stop offset="21%" stop-color="#DAAF4B"/>
      <stop offset="29%" stop-color="#BE8C38"/>
      <stop offset="38%" stop-color="#99611F"/>
      <stop offset="44%" stop-color="#7D3E0B"/>
      <stop offset="45%" stop-color="#91591C"/>
      <stop offset="46%" stop-color="#C39E48"/>
      <stop offset="47%" stop-color="#DEC35F"/>
      <stop offset="99%" stop-color="#FFE789"/>
    </linearGradient>
    <linearGradient id="c" x1="50.036%" x2="50.036%" y1="100.023%" y2="0%">
      <stop offset="0%" stop-color="#AD6C2F"/>
      <stop offset="99%" stop-color="#FFEEA9"/>
    </linearGradient>
    <linearGradient id="d" x1="50%" x2="50%" y1="100%" y2="-.122%">
      <stop offset="0%" stop-color="#FFDC65"/>
      <stop offset="6%" stop-color="#FBD762"/>
      <stop offset="13%" stop-color="#EEC85A"/>
      <stop offset="21%" stop-color="#DAAF4B"/>
      <stop offset="29%" stop-color="#BE8C38"/>
      <stop offset="38%" stop-color="#99611F"/>
      <stop offset="44%" stop-color="#7D3E0B"/>
      <stop offset="45%" stop-color="#91591C"/>
      <stop offset="46%" stop-color="#C39E48"/>
      <stop offset="47%" stop-color="#DEC35F"/>
      <stop offset="99%" stop-color="#FFE789"/>
    </linearGradient>
    <linearGradient id="e" x1="50%" x2="50%" y1="99.911%" y2="0%">
      <stop offset="0%" stop-color="#AD6C2F"/>
      <stop offset="99%" stop-color="#FFEEA9"/>
    </linearGradient>
    <linearGradient id="f" x1="49.988%" x2="49.988%" y1="100%" y2="0%">
      <stop offset="0%" stop-color="#FFDC65"/>
      <stop offset="6%" stop-color="#FBD762"/>
      <stop offset="13%" stop-color="#EEC85A"/>
      <stop offset="21%" stop-color="#DAAF4B"/>
      <stop offset="29%" stop-color="#BE8C38"/>
      <stop offset="38%" stop-color="#99611F"/>
      <stop offset="44%" stop-color="#7D3E0B"/>
      <stop offset="45%" stop-color="#91591C"/>
      <stop offset="46%" stop-color="#C39E48"/>
      <stop offset="47%" stop-color="#DEC35F"/>
      <stop offset="99%" stop-color="#FFE789"/>
    </linearGradient>
    <linearGradient id="g" x1="50%" x2="50%" y1="100%" y2="0%">
      <stop offset="0%" stop-color="#AD6C2F"/>
      <stop offset="99%" stop-color="#FFEEA9"/>
    </linearGradient>
    <linearGradient id="h" x1="49.984%" x2="49.984%" y1="100%" y2="0%">
      <stop offset="0%" stop-color="#FFDC65"/>
      <stop offset="6%" stop-color="#FBD762"/>
      <stop offset="13%" stop-color="#EEC85A"/>
      <stop offset="21%" stop-color="#DAAF4B"/>
      <stop offset="29%" stop-color="#BE8C38"/>
      <stop offset="38%" stop-color="#99611F"/>
      <stop offset="44%" stop-color="#7D3E0B"/>
      <stop offset="45%" stop-color="#91591C"/>
      <stop offset="46%" stop-color="#C39E48"/>
      <stop offset="47%" stop-color="#DEC35F"/>
      <stop offset="99%" stop-color="#FFE789"/>
    </linearGradient>
    <linearGradient id="i" x1="49.943%" x2="49.943%" y1="100%" y2="0%">
      <stop offset="0%" stop-color="#AD6C2F"/>
      <stop offset="99%" stop-color="#FFEEA9"/>
    </linearGradient>
    <linearGradient id="j" x1="49.953%" x2="49.953%" y1="100%" y2="0%">
      <stop offset="0%" stop-color="#FFDC65"/>
      <stop offset="6%" stop-color="#FBD762"/>
      <stop offset="13%" stop-color="#EEC85A"/>
      <stop offset="21%" stop-color="#DAAF4B"/>
      <stop offset="29%" stop-color="#BE8C38"/>
      <stop offset="38%" stop-color="#99611F"/>
      <stop offset="44%" stop-color="#7D3E0B"/>
      <stop offset="45%" stop-color="#91591C"/>
      <stop offset="46%" stop-color="#C39E48"/>
      <stop offset="47%" stop-color="#DEC35F"/>
      <stop offset="99%" stop-color="#FFE789"/>
    </linearGradient>
    <linearGradient id="k" x1="49.959%" x2="49.959%" y1="100%" y2="0%">
      <stop offset="0%" stop-color="#AD6C2F"/>
      <stop offset="99%" stop-color="#FFEEA9"/>
    </linearGradient>
    <linearGradient id="l" x1="50%" x2="50%" y1="100%" y2="0%">
      <stop offset="0%" stop-color="#FFDC65"/>
      <stop offset="6%" stop-color="#FBD762"/>
      <stop offset="13%" stop-color="#EEC859"/>
      <stop offset="20%" stop-color="#D9AF4B"/>
      <stop offset="28%" stop-color="#BB8C36"/>
      <stop offset="37%" stop-color="#96611C"/>
      <stop offset="44%" stop-color="#703402"/>
      <stop offset="44%" stop-color="#854F14"/>
      <stop offset="46%" stop-color="#BA9440"/>
      <stop offset="47%" stop-color="#DEC35F"/>
      <stop offset="99%" stop-color="#FFE789"/>
    </linearGradient>
    <linearGradient id="m" x1="49.786%" x2="49.786%" y1="100%" y2="0%">
      <stop offset="0%" stop-color="#AD6C2F"/>
      <stop offset="99%" stop-color="#FFEEA9"/>
    </linearGradient>
    <linearGradient id="n" x1="50.029%" x2="50.029%" y1="100%" y2="0%">
      <stop offset="0%" stop-color="#AD6C2F"/>
      <stop offset="99%" stop-color="#FFEEA9"/>
    </linearGradient>
    <linearGradient id="o" x1="50.024%" x2="50.024%" y1="100%" y2="0%">
      <stop offset="0%" stop-color="#FFDC65"/>
      <stop offset="6%" stop-color="#FBD762"/>
      <stop offset="13%" stop-color="#EEC859"/>
      <stop offset="20%" stop-color="#D9AF4B"/>
      <stop offset="28%" stop-color="#BB8C36"/>
      <stop offset="37%" stop-color="#96611C"/>
      <stop offset="44%" stop-color="#703402"/>
      <stop offset="44%" stop-color="#854F14"/>
      <stop offset="46%" stop-color="#BA9440"/>
      <stop offset="47%" stop-color="#DEC35F"/>
      <stop offset="99%" stop-color="#FFE789"/>
    </linearGradient>
    <linearGradient id="p" x1="50.028%" x2="50.028%" y1="100%" y2="0%">
      <stop offset="0%" stop-color="#AD6C2F"/>
      <stop offset="99%" stop-color="#FFEEA9"/>
    </linearGradient>
    <linearGradient id="q" x1="50.035%" x2="50.035%" y1="99.943%" y2="-.127%">
      <stop offset="0%" stop-color="#FFDC65"/>
      <stop offset="6%" stop-color="#FBD762"/>
      <stop offset="13%" stop-color="#EEC859"/>
      <stop offset="20%" stop-color="#D9AF4B"/>
      <stop offset="28%" stop-color="#BB8C36"/>
      <stop offset="37%" stop-color="#96611C"/>
      <stop offset="44%" stop-color="#703402"/>
      <stop offset="44%" stop-color="#854F14"/>
      <stop offset="46%" stop-color="#BA9440"/>
      <stop offset="47%" stop-color="#DEC35F"/>
      <stop offset="99%" stop-color="#FFE789"/>
    </linearGradient>
    <linearGradient id="r" x1="49.811%" x2="49.811%" y1="99.779%" y2="-.099%">
      <stop offset="0%" stop-color="#AD6C2F"/>
      <stop offset="99%" stop-color="#FFEEA9"/>
    </linearGradient>
    <linearGradient id="s" x1="50.164%" x2="50.164%" y1="100%" y2="0%">
      <stop offset="0%" stop-color="#AD6C2F"/>
      <stop offset="99%" stop-color="#FFEEA9"/>
    </linearGradient>
    <linearGradient id="t" x1="49.974%" x2="49.974%" y1="99.924%" y2=".04%">
      <stop offset="0%" stop-color="#FFDC65"/>
      <stop offset="6%" stop-color="#FBD762"/>
      <stop offset="13%" stop-color="#EEC859"/>
      <stop offset="20%" stop-color="#D9AF4B"/>
      <stop offset="28%" stop-color="#BB8C36"/>
      <stop offset="37%" stop-color="#96611C"/>
      <stop offset="44%" stop-color="#703402"/>
      <stop offset="44%" stop-color="#854F14"/>
      <stop offset="46%" stop-color="#BA9440"/>
      <stop offset="47%" stop-color="#DEC35F"/>
      <stop offset="99%" stop-color="#FFE789"/>
    </linearGradient>
    <linearGradient id="u" x1="50.056%" x2="50.056%" y1="100.007%" y2=".095%">
      <stop offset="0%" stop-color="#AD6C2F"/>
      <stop offset="99%" stop-color="#FFEEA9"/>
    </linearGradient>
    <linearGradient id="v" x1="49.962%" x2="49.962%" y1="100%" y2="0%">
      <stop offset="0%" stop-color="#FFDC65"/>
      <stop offset="6%" stop-color="#FBD762"/>
      <stop offset="13%" stop-color="#EEC859"/>
      <stop offset="20%" stop-color="#D9AF4B"/>
      <stop offset="28%" stop-color="#BB8C36"/>
      <stop offset="37%" stop-color="#96611C"/>
      <stop offset="44%" stop-color="#703402"/>
      <stop offset="44%" stop-color="#854F14"/>
      <stop offset="46%" stop-color="#BA9440"/>
      <stop offset="47%" stop-color="#DEC35F"/>
      <stop offset="99%" stop-color="#FFE789"/>
    </linearGradient>
    <linearGradient id="w" x1="49.988%" x2="49.988%" y1="100%" y2=".08%">
      <stop offset="0%" stop-color="#FFDC65"/>
      <stop offset="6%" stop-color="#FBD762"/>
      <stop offset="13%" stop-color="#EEC859"/>
      <stop offset="20%" stop-color="#D9AF4B"/>
      <stop offset="28%" stop-color="#BB8C36"/>
      <stop offset="37%" stop-color="#96611C"/>
      <stop offset="44%" stop-color="#703402"/>
      <stop offset="44%" stop-color="#854F14"/>
      <stop offset="46%" stop-color="#BA9440"/>
      <stop offset="47%" stop-color="#DEC35F"/>
      <stop offset="99%" stop-color="#FFE789"/>
    </linearGradient>
    <linearGradient id="x" x1="49.983%" x2="49.983%" y1="100.215%" y2=".1%">
      <stop offset="0%" stop-color="#AD6C2F"/>
      <stop offset="99%" stop-color="#FFEEA9"/>
    </linearGradient>
  </defs>
  <g fill="none" fill-rule="evenodd">
    <g style="mix-blend-mode:multiply">
      <path fill="#F9F9F9" d="M198.373.143l-32.34 66.486 32.374 66.202H.034V.143z" opacity=".03"/>
      <path fill="#F3F3F3" d="M197.458.114l-32.204 66.173 32.238 65.917H.034V.114z" opacity=".06"/>
      <path fill="#EEE" d="M196.508.114l-32.033 65.86 32.067 65.574H.034V.114z" opacity=".1"/>
      <path fill="#E8E8E8" d="M195.56.114L163.694 65.66l31.898 65.232H.068V.114z" opacity=".13"/>
      <path fill="#E2E2E2" d="M194.644.114l-31.729 65.204 31.73 64.947H.067V.114z" opacity=".16"/>
      <path fill="#DCDCDC" d="M193.695.114l-31.56 64.89 31.594 64.605H.102V.114z" opacity=".19"/>
      <path fill="#D6D6D6" d="M192.746.114l-31.424 64.548 31.458 64.292H.102V.114z" opacity=".23"/>
      <path fill="#D1D1D1" d="M191.83.114l-31.254 64.235 31.255 63.949H.136V.114z" opacity=".26"/>
      <path fill="#CBCBCB" d="M190.881.086l-31.118 63.92 31.152 63.665H.135V.086z" opacity=".29"/>
      <path fill="#C5C5C5" d="M189.932.086l-30.915 63.607 30.95 63.322H.168V.085z" opacity=".32"/>
      <path fill="#BFBFBF" d="M189.017.086l-30.814 63.293 30.848 62.98H.169V.086z" opacity=".35"/>
      <path fill="#B9B9B9" d="M188.068.086l-30.644 62.951 30.678 62.695H.203V.086z" opacity=".39"/>
      <path fill="#B4B4B4" d="M187.153.086l-30.509 62.637 30.509 62.353H.203V.086z" opacity=".42"/>
      <path fill="#AEAEAE" d="M186.203.086L155.864 62.38l30.373 62.04H.203V.085z" opacity=".45"/>
      <path fill="#A8A8A8" d="M185.254.086l-30.17 61.982 30.204 61.697H.238V.085z" opacity=".48"/>
      <path fill="#A2A2A2" d="M184.339.057l-30.034 61.697 30.034 61.383H.237V.057z" opacity=".52"/>
      <path fill="#9C9C9C" d="M183.39.057l-29.865 61.355 29.865 61.07H.27V.057z" opacity=".55"/>
      <path fill="#969696" d="M182.44.057l-29.694 61.041 29.729 60.728H.27V.057z" opacity=".58"/>
      <path fill="#919191" d="M181.525.057l-29.559 60.7 29.56 60.442H.305V.057z" opacity=".61"/>
      <path fill="#8B8B8B" d="M180.576.057l-29.39 60.386 29.39 60.1H.306V.057z" opacity=".65"/>
      <path fill="#858585" d="M179.627.029L150.407 60.1l29.254 59.787H.339V.03z" opacity=".68"/>
      <path fill="#7F7F7F" d="M178.712.029l-29.085 59.758 29.085 59.444H.339V.03z" opacity=".71"/>
      <path fill="#797979" d="M177.763.029l-28.916 59.444 28.95 59.131H.339V.03z" opacity=".74"/>
      <path fill="#747474" d="M176.847.029l-28.78 59.102 28.78 58.818H.373V.029z" opacity=".77"/>
      <path fill="#6E6E6E" d="M175.898.029l-28.61 58.788 28.61 58.476H.407V.029z" opacity=".81"/>
      <path fill="#686868" d="M174.95.029l-28.442 58.446 28.475 58.162H.407V.029z" opacity=".84"/>
      <path fill="#626262" d="M174.034.029l-28.305 58.133 28.305 57.848H.407V.029z" opacity=".87"/>
      <path fill="#5C5C5C" d="M173.085.029l-28.136 57.79 28.136 57.535H.44V.029z" opacity=".9"/>
      <path fill="#575757" d="M172.136 0l-27.967 57.506 27.967 57.192H.44V0z" opacity=".94"/>
      <path fill="#515151" d="M171.22 0l-27.83 57.192 27.83 56.88H.475V0z" opacity=".97"/>
      <path fill="#4B4B4B" d="M170.271 0l-27.66 56.85 27.66 56.565H.475V0z"/>
    </g>
    <path fill="url(#a)" d="M170 0l-27.694 57.143L170 114H0V0z"/>
    <path fill="#FFF"
          d="M76.508 9.441a1.61 1.61 0 0 0-.036-1.889c-.42-.57-1.168-.87-1.921-.771-.754.099-1.375.58-1.594 1.234a2.423 2.423 0 0 0-.084 2.193c.323.708.97 1.258 1.775 1.51 1.198.472 2.585.346 3.652-.335 1.2-.898 1.827-2.27 1.678-3.665-.148-1.396-1.055-2.636-2.422-3.314-1.509-.632-3.275-.517-4.667.304a7.326 7.326 0 0 0-1.927 1.79A7.418 7.418 0 0 1 69.88 7.68c-.426.493-1.069.796-1.763.831a2.555 2.555 0 0 1-1.855-.649c-1.184-1.183-.372-3.034.845-2.124 1.217.91 2.367-1.183.406-1.608-2.74-.607-3.382 3.308-1.217 4.46 1.144.606 2.587.51 3.618-.242 2.029-1.335 2.604-3.763 5.545-3.854 1.47.03 2.81.764 3.51 1.925.699 1.16.65 2.57-.128 3.689-.795 1.02-2.202 1.5-3.55 1.214-1.348-.388-2.18-1.598-1.962-2.853.152-.596.639-1.079 1.285-1.274 1.353-.182 2.232.698 1.86 2.154l.034.091zM87.499 9.463c-.578-.559-.691-1.389-.28-2.057.41-.668 1.25-1.024 2.085-.882.834.142 1.472.75 1.582 1.507.38.685.414 1.484.097 2.194-.317.71-.956 1.264-1.757 1.523a4.083 4.083 0 0 1-3.523-.335c-1.201-.902-1.83-2.28-1.681-3.68.149-1.401 1.057-2.646 2.426-3.327 1.512-.635 3.281-.52 4.675.304a7.345 7.345 0 0 1 1.931 1.798c.313.422.664.819 1.05 1.188.433.496 1.083.801 1.784.836.7.035 1.383-.203 1.875-.653 1.185-1.188.372-3.047-.847-2.133-1.22.914-2.371-1.188-.44-1.614 2.743-.61 3.387 3.32 1.253 4.478-1.146.608-2.592.51-3.625-.244-2.032-1.34-2.608-3.777-5.555-3.869-1.473.03-2.815.767-3.516 1.933a3.37 3.37 0 0 0 .128 3.704c.788 1.07 2.238 1.582 3.625 1.28 1.345-.392 2.167-1.611 1.93-2.865-.14-.604-.632-1.094-1.287-1.28-1.32-.182-2.201.701-1.829 2.164l-.101.03z"/>
    <path fill="#FFF" fill-rule="nonzero"
          d="M82.104 12.326c-.719-.435-1.8-.435-2.518 0-.855.697-.764 1.727.207 2.35.423.251.987.365 1.543.31.557-.053 1.051-.27 1.354-.593.578-.693.329-1.57-.586-2.067zm-.242 1.785c-.188.19-.482.32-.813.36a1.712 1.712 0 0 1-.946-.148c-.532-.303-.76-.788-.586-1.245h.207c.472-.38 1.285-.46 1.897-.188.49.318.59.826.241 1.221zM153.357 12.491c-1.008 2.8-4.905.952-7.962.84 1.576-.271 2.976-1.019 3.93-2.1.57-.753.676-1.688.285-2.517-.392-.829-1.233-1.453-2.267-1.681-1.646-.28-3.998 1.287-2.52 2.8.43.488 1.24.615 1.853.29.613-.326.817-.992.466-1.523 0-.108-.106-.196-.236-.196s-.235.088-.235.196c-.235-2.1 2.05-.392 2.318.42.175.59.067 1.212-.302 1.736-.73.827-1.77 1.428-2.956 1.707-1.014.275-1.993.631-2.923 1.064.504-.616 1.478-1.064 1.881-1.791.41-.56.297-1.281-.269-1.736a.354.354 0 0 0-.436-.028c-.13.093-.145.256-.034.364.873 1.428-1.713 2.323-1.948 3.64v.167c-4.704-.364-9.508 0-14.21 0h-14.178c-9.474 0-19.014-.308-28.488.252-.168 0-.168.224 0 .252 9.44.532 19.014.224 28.455.224h13.975c4.67 0 9.406.224 14.042 0-.103.774.379 1.52 1.21 1.876.857.318 1.863.137 2.486-.448.422.558.97 1.042 1.612 1.427a2.237 2.237 0 0 0 1.526.229c.525-.107.971-.393 1.23-.789.301-.335-.303-.671-.64-.42-1.074.84-2.183-.251-3.359-1.26 0 0 0-.223-.268-.223-.534-.578-1.318-.96-2.184-1.064 2.654-1.456 5.577 1.232 8.466.644 1.283-.254 2.221-1.171 2.318-2.268.067-.335-.538-.391-.638-.084zm-8.567 3.276c-.387.398-1.016.573-1.613.448-.573-.186-.984-.613-1.075-1.12h.336c.907-.504 1.68-.028 2.352.672zM77.798 14.41c-9.439-.571-18.978-.257-28.45-.257H35.406c-4.736 0-9.54-.257-14.243 0v-.171c-.235-1.342-2.821-2.227-1.948-3.711.057-.117.016-.253-.1-.332a.384.384 0 0 0-.404-.01c-.739.453-.93 1.318-.436 1.969.403.742 1.377 1.199 1.88 1.855a15.705 15.705 0 0 0-2.922-1.113c-1.05-.258-1.993-.763-2.72-1.456-.591-.591-.793-1.395-.538-2.14.336-.828 2.586-2.855 2.318-.429 0-.228-.37-.314-.504 0-.418.544-.237 1.273.403 1.627.64.355 1.497.202 1.915-.342 1.578-1.542-.84-3.197-2.486-2.855-.997.22-1.82.817-2.233 1.619-.412.802-.37 1.72.117 2.492 1 1.117 2.467 1.863 4.098 2.084-3.057 0-6.954 2.14-7.961-.857 0-.37-.706-.2-.638.171.124 1.095 1.081 1.989 2.35 2.198 2.89.571 5.711-2.169 8.399-.656-.86.12-1.63.52-2.15 1.113-.145.018-.264.108-.303.228-1.142 1.028-2.25 2.141-3.359 1.285-.336-.257-.94 0-.638.428.258.403.704.695 1.229.804a2.198 2.198 0 0 0 1.526-.233 5.636 5.636 0 0 0 1.545-1.456c.616.606 1.63.792 2.485.457.868-.365 1.378-1.151 1.277-1.97 4.635.343 9.372 0 14.007 0h13.974c9.473 0 19.012.314 28.451-.228.27.228.27-.114 0-.114zm-58.044 1.77c-.586.122-1.203-.056-1.58-.457.673-.714 1.445-1.199 2.42-.77h.369c-.079.577-.554 1.06-1.21 1.227z"/>
    <path fill="#FFF"
          d="M19 4.454c4.594-4.45 11.501-1.894 16.475.221a60.186 60.186 0 0 0 12.814 3.82c2.198.45 4.448.652 6.7.6a5.475 5.475 0 0 0 3.143-.79c1.418-.979 1.791-2.781.864-4.166-1.313-2.02-3.282-1.516-2.798 0 .725-.38 1.485 0 1.07.82-1.346 2.43-4.973-1.262-1.52-2.683 3.455-1.42 5.769 4.262 3.075 6.471-2.056 1.183-4.55 1.548-6.908 1.01a49.347 49.347 0 0 1-11.501-2.493c-6.7-2.242-14.16-7.86-21.414-2.81z"/>
    <path fill="#FFF"
          d="M49.578 6.125c0 1.364-2.425.496-1.64-1.055 1.4-2.76 4.918.465 5.055 2.42.205 3.504-4.03 4.93-6.83 4.404a22.576 22.576 0 0 1-6.83-3.102 16.38 16.38 0 0 0-4.166-1.706c-3.176-.837-5.225.434-4.986 2.11 1.195-1.676 3.62.185 2.356 1.798-1.263 1.613-4.166 0-3.415-2.202 1.093-3.815 5.703-3.101 8.162-1.985 2.459 1.117 4.679 2.853 7.24 3.877a7.154 7.154 0 0 0 5.6.248c.94-.4 1.692-1.093 2.118-1.954a3.508 3.508 0 0 0 0-2.202c-.444-1.768-2.903-2.326-2.664-.651zM143 4.482c-4.672-4.48-11.386-1.906-16.508.222a60.11 60.11 0 0 1-12.84 3.845 29.851 29.851 0 0 1-6.714.603 5.45 5.45 0 0 1-3.08-.858c-1.41-.994-1.768-2.807-.831-4.193 1.28-2.033 3.253-1.525 2.769 0-.727-.381-1.489 0-1.073.826 1.35 2.446 4.983-1.27 1.557-2.7-3.426-1.43-5.814 4.288-3.115 6.512 2.06 1.191 4.56 1.558 6.922 1.017a49.262 49.262 0 0 0 11.525-2.51c6.54-2.224 14.016-7.879 21.284-2.796l.104.032z"/>
    <path fill="#FFF"
          d="M113.395 6.125c0 1.364 2.462.496 1.675-1.055-1.436-2.76-4.958.465-5.06 2.42-.24 3.504 4 4.93 6.839 4.404a22.799 22.799 0 0 0 6.839-3.102 15.682 15.682 0 0 1 4.137-1.706c3.18-.837 5.232.434 4.992 2.11-1.196-1.676-3.624.185-2.359 1.798 1.265 1.613 4.172 0 3.42-2.202-1.06-3.815-5.677-3.101-8.173-1.985-2.496 1.117-4.48 2.76-6.941 3.784a7.172 7.172 0 0 1-5.608.248c-.935-.409-1.685-1.1-2.12-1.954a3.504 3.504 0 0 1 0-2.202c.136-1.675 2.598-2.233 2.359-.558zM76.508 104.594a1.623 1.623 0 0 1-.036 1.898c-.42.573-1.168.875-1.921.776-.754-.1-1.375-.584-1.594-1.24a2.444 2.444 0 0 1-.084-2.204c.323-.711.97-1.263 1.775-1.516a4.068 4.068 0 0 1 3.652.274c1.2.903 1.827 2.281 1.678 3.683-.148 1.402-1.055 2.648-2.422 3.329-1.509.635-3.275.52-4.667-.305a7 7 0 0 1-1.927-1.829 7.25 7.25 0 0 0-1.082-1.158c-.42-.505-1.064-.816-1.762-.852a2.507 2.507 0 0 0-1.856.669c-1.184 1.189-.372 3.048.845 2.134 1.217-.915 2.367 1.189.406 1.615-2.74.58-3.382-3.323-1.217-4.511 1.15-.568 2.56-.484 3.618.213 2.029 1.372 2.604 3.81 5.545 3.872 1.47-.03 2.81-.768 3.51-1.934.699-1.166.65-2.581-.128-3.706-.803-1.013-2.209-1.484-3.55-1.19-1.348.39-2.18 1.606-1.962 2.867.203.548.676 1.188 1.285 1.28 1.353.183 2.232-.701 1.86-2.165h.034zM87.634 104.594c-.578.56-.69 1.39-.28 2.059.41.669 1.251 1.024 2.085.882.834-.142 1.473-.75 1.583-1.508.39-.684.432-1.487.113-2.2-.318-.714-.965-1.268-1.773-1.519a4.082 4.082 0 0 0-3.659.274c-1.201.903-1.83 2.281-1.681 3.683.149 1.402 1.057 2.648 2.426 3.329 1.512.635 3.281.52 4.675-.305a7.006 7.006 0 0 0 1.931-1.829c.313-.413.664-.8 1.05-1.158 1.118-.945 2.575-1.28 3.659-.183 1.084 1.097.372 3.048-.847 2.134-1.22-.915-2.371 1.189-.44 1.615 2.743.58 3.387-3.323 1.253-4.511-1.152-.568-2.565-.484-3.625.213-2.032 1.372-2.608 3.81-5.555 3.872-1.473-.03-2.815-.768-3.516-1.934a3.373 3.373 0 0 1 .128-3.706c.777-.955 2.098-1.418 3.388-1.19 1.345.392 2.167 1.612 1.93 2.867-.152.599-.64 1.083-1.287 1.28-1.32.183-2.202-.701-1.829-2.165h.271z"/>
    <path fill="#FFF" fill-rule="nonzero"
          d="M82.635 98.582c-.31-.314-.797-.521-1.339-.57-.542-.05-1.09.063-1.505.31-.97.62-1.06 1.664-.203 2.359h.17c.71.425 1.76.425 2.47 0 .847-.539 1.019-1.423.407-2.099zm-.88 1.627c-.607.253-1.384.174-1.862-.188h-.203c-.175-.452.05-.934.575-1.227.268-.135.603-.189.928-.149.326.04.614.17.799.362.312.393.216.882-.237 1.202zM153.997 101.391c-.11-1.085-1.046-1.989-2.318-2.239-2.89-.588-5.812 2.071-8.466.616.861-.097 1.644-.468 2.184-1.036 0 0 .235 0 .268-.252 1.176-.98 2.285-2.07 3.36-1.231.336.252.94 0 .638-.448-.27-.384-.72-.659-1.24-.76a2.278 2.278 0 0 0-1.515.228c-.643.385-1.19.87-1.612 1.428-.617-.594-1.63-.777-2.486-.448-.826.345-1.308 1.082-1.21 1.847-4.636-.336-9.373 0-14.043 0h-13.976c-9.44 0-19.015-.28-28.455.252-.168 0-.168.252 0 .252 9.474.532 19.015.252 28.49.252h13.975c4.703 0 9.507.224 14.21 0v.168c.236 1.315 2.823 2.183 1.95 3.61-.064.11-.034.243.074.327a.39.39 0 0 0 .396.037c.566-.455.677-1.176.268-1.735-.403-.728-1.377-1.176-1.88-1.82.915.457 1.898.814 2.922 1.064 1.186.28 2.226.88 2.956 1.707.368.534.476 1.165.303 1.764-.27.811-2.554 2.519-2.318.42 0 .108.105.196.235.196s.235-.088.235-.196c.351-.53.147-1.197-.465-1.522-.613-.326-1.424-.199-1.853.29-1.478 1.54.873 3.107 2.52 2.799 1.033-.228 1.875-.852 2.266-1.681.391-.83.286-1.764-.284-2.517-.962-1.08-2.357-1.834-3.931-2.127 3.057 0 6.954-2.044 7.962.84.018.124.115.232.254.281.139.05.299.034.42-.042.12-.075.184-.199.166-.324zm-11.557-2.435h-.336c.093-.513.5-.948 1.075-1.147.602-.105 1.224.078 1.613.475-.672.644-1.445 1.12-2.352.672zM77.818 98.395c-9.442-.539-18.985-.227-28.461-.255H35.378c-4.637 0-9.375-.256-14.012 0 .079-.773-.398-1.511-1.21-1.874-.856-.333-1.87-.147-2.486.455a5.684 5.684 0 0 0-1.613-1.448 2.25 2.25 0 0 0-1.515-.23c-.521.101-.97.38-1.24.77-.303.368.302.709.638.453 1.075-.851 2.184.256 3.36 1.25.026.13.147.233.302.255.54.575 1.323.952 2.184 1.05-2.688 1.533-5.51-1.192-8.4-.624-1.295.2-2.271 1.106-2.386 2.213 0 .37.504.54.638 0 1.009-2.838 4.906-.936 7.964-.851-1.665.293-3.127 1.13-4.066 2.327a2.448 2.448 0 0 0-.116 2.478c.413.797 1.236 1.39 2.233 1.61 1.647.255 4.066-1.391 2.487-2.839-.418-.54-1.275-.693-1.915-.34-.64.352-.821 1.077-.404 1.618 0 .198.538 0 .504 0 .27 2.27-1.982.397-2.318-.426-.23-.71-.042-1.47.504-2.044.726-.697 1.669-1.208 2.722-1.476a13.927 13.927 0 0 0 2.923-1.078c-.504.652-1.478 1.107-1.882 1.845-.405.563-.308 1.286.236 1.76a.386.386 0 0 0 .403-.011c.117-.079.158-.214.1-.33-.873-1.476 1.714-2.356 1.95-3.69v-.17c4.704.34 9.51 0 14.247 0h13.945c9.476 0 19.02.283 28.462-.256.47.114.47-.113.201-.142zm-56.855-.369h-.37c-.975.454-1.747 0-2.42-.738.379-.398.988-.584 1.58-.482.641.184 1.108.655 1.21 1.22z"/>
    <path fill="#FFF"
          d="M19 108.555c4.67 4.427 11.382 1.897 16.503-.221a58.559 58.559 0 0 1 12.835-3.921 29.937 29.937 0 0 1 6.712-.57c1.1-.024 2.18.275 3.079.855 1.42.98 1.794 2.786.865 4.173-1.315 2.024-3.287 1.518-2.802 0 .726.38 1.487 0 1.072-.822-1.35-2.434-4.982 1.265-1.522 2.688 3.46 1.423 5.777-4.269 3.079-6.482-2.06-1.185-4.559-1.55-6.92-1.012a49.43 49.43 0 0 0-11.52 2.498c-6.539 2.182-14.012 7.81-21.277 2.783l-.104.031z"/>
    <path fill="#FFF"
          d="M49.578 107.888c0-1.368-2.425-.529-1.64 1.025 1.4 2.798 4.918-.466 5.055-2.393.205-3.512-4.03-4.942-6.83-4.413a23.23 23.23 0 0 0-6.83 3.108 16.374 16.374 0 0 1-4.166 1.74c-3.176.84-5.225-.435-4.986-2.113 1.195 1.678 3.62-.187 2.356-1.803-1.263-1.616-4.166 0-3.415 2.207 1.093 3.823 5.703 2.952 8.162 1.958 2.459-.995 4.679-2.86 7.24-3.885a7.142 7.142 0 0 1 5.6-.218c.948.392 1.703 1.09 2.118 1.958a3.41 3.41 0 0 1 0 2.176c-.444 1.772-2.903 2.424-2.664.653zM143 108.555c-4.672 4.427-11.386 1.897-16.508-.221a58.594 58.594 0 0 0-12.84-3.921 29.957 29.957 0 0 0-6.714-.57 5.47 5.47 0 0 0-3.08.855c-1.41.99-1.768 2.794-.831 4.173 1.28 2.024 3.253 1.518 2.769 0-.727.38-1.489 0-1.073-.822 1.35-2.434 4.983 1.265 1.557 2.688-3.426 1.423-5.814-4.269-3.115-6.482 2.06-1.185 4.56-1.55 6.922-1.012a49.462 49.462 0 0 1 11.525 2.498c6.54 2.182 14.016 7.81 21.284 2.783l.104.031z"/>
    <path fill="#FFF"
          d="M113.395 107.888c0-1.368 2.462-.529 1.675 1.025-1.436 2.798-4.958-.466-5.06-2.393-.24-3.512 4-4.942 6.839-4.413a23.454 23.454 0 0 1 6.839 3.108 15.678 15.678 0 0 0 4.137 1.74c3.18.84 5.232-.435 4.992-2.113-1.196 1.678-3.624-.187-2.359-1.803 1.265-1.616 4.172 0 3.42 2.207-1.06 3.823-5.677 2.952-8.173 1.958-2.496-.995-4.48-2.797-6.941-3.76a7.16 7.16 0 0 0-5.608-.218c-.942.4-1.695 1.095-2.12 1.958a3.406 3.406 0 0 0 0 2.175c.136 1.648 2.598 2.3 2.359.529z"/>
    <g>
      <path fill="#241100"
            d="M15 61V29h12.205c11.545 0 12.792 8.125 12.792 11.616.077 3.409-1.36 6.671-3.908 8.88a13.32 13.32 0 0 1-8.084 3.152V61H15z"/>
      <path fill="#241100" fill-rule="nonzero"
            d="M49.39 61c-4.47 0-8.189-1.552-11.088-4.601C35.403 53.35 34 49.481 34 44.802c0-4.864 1.452-8.934 4.313-12.022 2.861-3.088 6.781-4.78 11.46-4.78 4.482 0 8.19 1.563 11.034 4.646C63.651 35.728 65 39.597 65 44.332c0 4.847-1.452 8.873-4.319 11.955C57.815 59.37 53.966 61 49.391 61zm.236-20.448a1.59 1.59 0 0 0-1.458.654c-.546.731-.84 1.842-.84 3.305s.277 2.58.807 3.25c.31.445.827.69 1.36.642.539.064 1.073-.16 1.414-.592.496-.63.764-1.736.764-3.2 0-1.58-.278-2.82-.786-3.495a1.336 1.336 0 0 0-1.261-.564z"/>
      <path fill="#241100" d="M76.731 61l-1.75-2.664V61H62V29h12.981v2.17L76.39 29h15.943L81.274 44.45 93 61z"/>
      <path fill="#241100" d="M84 61V29h21.453v12.248h-.586v7.52H106V61z"/>
      <path fill="#241100"
            d="M117.574 60.972l-2.455-4.07V61H102V29h12.411c11.351 0 12.576 7.325 12.576 10.474a10.75 10.75 0 0 1-.62 3.671 10.379 10.379 0 0 1-1.73 3.072c-.187.233-.385.45-.588.666.23.321.439.637.631.948L133 60.972h-15.426z"/>
      <path fill="#CCA783"
            d="M15 58V26h12.205c11.545 0 12.792 8.12 12.792 11.612.077 3.41-1.36 6.673-3.908 8.881a13.286 13.286 0 0 1-8.084 3.153V58H15z"/>
      <path fill="#CCA783" fill-rule="nonzero"
            d="M49.39 59c-4.47 0-8.189-1.546-11.088-4.598C35.403 51.35 34 47.494 34 42.812c0-4.854 1.452-8.894 4.313-12.013C41.174 27.679 45.094 26 49.773 26c4.482 0 8.19 1.562 11.034 4.643C63.651 33.723 65 37.584 65 42.32c0 4.844-1.452 8.861-4.319 11.947C57.815 57.354 53.966 59 49.391 59zm.236-20.434a1.585 1.585 0 0 0-1.458.659c-.546.725-.84 1.835-.84 3.303 0 1.467.277 2.578.807 3.247.31.446.827.69 1.36.642a1.557 1.557 0 0 0 1.414-.597c.496-.625.764-1.73.764-3.192 0-1.579-.278-2.823-.786-3.498a1.336 1.336 0 0 0-1.261-.564z"/>
      <path fill="#CCA783" d="M76.731 58l-1.75-2.664V58H62V26h12.981v2.165L76.39 26h15.943L81.274 41.453 93 58z"/>
      <path fill="#CCA783" d="M84 58V26h21.453v12.25h-.586v7.516H106V58z"/>
      <path fill="#CCA783"
            d="M117.574 58l-2.455-4.096V58H102V26h12.411c11.351 0 12.576 7.333 12.576 10.485a10.738 10.738 0 0 1-.62 3.67 10.354 10.354 0 0 1-2.318 3.74c.23.328.439.644.631.955L133 58h-15.426z"/>
      <path fill="#542900"
            d="M15 59V27h12.205c11.545 0 12.792 8.125 12.792 11.616.077 3.409-1.36 6.671-3.908 8.88a13.32 13.32 0 0 1-8.084 3.152V59H15z"/>
      <path fill="#542900" fill-rule="nonzero"
            d="M49.39 59c-4.47 0-8.189-1.551-11.088-4.597C35.403 51.357 34 47.49 34 42.82c0-4.86 1.452-8.899 4.313-12.012C41.174 27.696 45.094 26 49.773 26c4.482 0 8.19 1.562 11.034 4.642C63.651 33.722 65 37.588 65 42.319c0 4.842-1.452 8.865-4.319 11.944C57.815 57.343 53.966 59 49.391 59zm.236-20.43a1.586 1.586 0 0 0-1.458.658c-.546.725-.84 1.835-.84 3.297 0 1.462.277 2.578.807 3.247.31.445.827.69 1.36.642.539.063 1.073-.16 1.414-.592.496-.63.764-1.735.764-3.196 0-1.58-.278-2.79-.786-3.493a1.336 1.336 0 0 0-1.261-.563z"/>
      <path fill="#542900" d="M76.731 59l-1.75-2.659V59H62V27h12.981v2.17L76.39 27h15.943L81.274 42.459 93 59z"/>
      <path fill="#542900" d="M84 59V27h21.453v12.25h-.586v7.522H106V59z"/>
      <path fill="#542900"
            d="M117.574 59l-2.455-4.101V59H102V27h12.411c11.351 0 12.576 7.331 12.576 10.484a10.769 10.769 0 0 1-.62 3.673 10.39 10.39 0 0 1-1.73 3.075c-.187.233-.385.45-.588.666.23.322.439.638.631.949L133 59h-15.426z"/>
      <path fill="#FFF5C2" fill-rule="nonzero"
            d="M17 56V29h9.696c8.51 0 10.3 4.914 10.3 9.038a8.765 8.765 0 0 1-3.032 6.902c-1.957 1.695-4.568 2.582-7.761 2.582H24.8v8.472L17 56zm8.748-15.07c2.772 0 3.177-1.288 3.177-2.689 0-1.4-.383-2.598-3.177-2.598H24.8v5.287h.948zM49.393 56c-3.623 0-6.628-1.29-8.935-3.83C38.151 49.63 37 46.34 37 42.299c0-4.211 1.178-7.684 3.495-10.32C42.813 29.341 45.951 28 49.766 28c3.624-.028 6.602 1.29 8.856 3.82C60.876 34.347 62 37.711 62 41.792c0 4.188-1.172 7.632-3.49 10.229C56.192 54.619 53.113 56 49.393 56zm.23-20.81c-1.36-.064-2.662.588-3.485 1.744-.917 1.244-1.38 2.955-1.38 5.115 0 2.159.458 3.864 1.37 5.069.799 1.113 2.052 1.748 3.367 1.705 1.318.067 2.587-.54 3.415-1.637.885-1.137 1.332-2.842 1.332-5.024 0-2.273-.437-4.052-1.305-5.262-.764-1.131-2.008-1.78-3.314-1.728v.017z"/>
      <path fill="#FFF5C2" d="M78.436 56l-5.833-9.066V56H65V29h7.603v8.67L78.1 29h9.201l-9.06 12.935L88 56z"/>
      <path fill="#FFF5C2" d="M87 56V29h15.473v6.903h-8.077v3.09h7.518v6.88h-7.518v3.247H103V56z"/>
      <path fill="#FFF5C2" fill-rule="nonzero"
            d="M119.144 55.977l-3.996-6.89c-.265-.463-.508-.87-.746-1.225a6.377 6.377 0 0 0-.638-.807 1.967 1.967 0 0 0-.497-.39.886.886 0 0 0-.411-.09h-.287v9.402H105V29h9.554c8.034 0 9.732 4.284 9.732 7.901a8.432 8.432 0 0 1-.45 2.783 7.907 7.907 0 0 1-1.259 2.314 8.065 8.065 0 0 1-1.946 1.766c-.13.085-.265.17-.406.249.146.14.292.287.433.445.342.386.663.791.962 1.214.292.417.54.824.806 1.225L128 56l-8.856-.023zm-5.44-15.983a2.633 2.633 0 0 0 1.958-.7c.48-.433.752-1.065.746-1.727 0-.982-.195-2.031-2.557-2.031h-1.282v4.458h1.136z"/>
      <path fill="#2B1604" fill-rule="nonzero"
            d="M17 58V31h9.696c8.51 0 10.3 4.914 10.3 9.038a8.765 8.765 0 0 1-3.032 6.885c-1.957 1.695-4.568 2.576-7.761 2.576H24.8v8.473L17 58zm8.748-15.07c2.772 0 3.177-1.294 3.177-2.689s-.383-2.598-3.177-2.598H24.8v5.287h.948zM49.393 58c-3.623 0-6.628-1.29-8.935-3.832C38.151 51.627 37 48.324 37 44.304c0-4.213 1.178-7.686 3.495-10.324 2.318-2.638 5.456-3.98 9.271-3.98 3.624 0 6.602 1.296 8.861 3.849 2.26 2.553 3.373 5.89 3.373 9.978 0 4.195-1.172 7.64-3.49 10.233-2.318 2.593-5.397 3.94-9.117 3.94zm.23-20.82c-1.359-.064-2.66.586-3.485 1.74-.917 1.245-1.37 2.95-1.37 5.094s.459 3.866 1.37 5.066c.798 1.116 2.052 1.752 3.367 1.705 1.319.068 2.588-.54 3.416-1.637.884-1.137 1.332-2.843 1.332-5.02 0-2.274-.437-4.06-1.306-5.265-.775-1.117-2.022-1.749-3.324-1.682z"/>
      <path fill="#2B1604" d="M78.436 58l-5.833-9.072V58H65V31h7.603v8.67L78.1 31h9.201l-9.06 12.935L88 58z"/>
      <path fill="#2B1604" d="M87 58V31h15.473v6.897h-8.077v3.09h7.518v6.885h-7.518v3.242H103V58z"/>
      <path fill="#2B1604" fill-rule="nonzero"
            d="M119.144 57.977l-3.996-6.908a22.66 22.66 0 0 0-.746-1.219 5.997 5.997 0 0 0-.638-.807 1.847 1.847 0 0 0-.497-.39.887.887 0 0 0-.411-.095h-.287v9.42H105V31h9.554c8.034 0 9.732 4.284 9.732 7.901a8.432 8.432 0 0 1-.45 2.783 7.907 7.907 0 0 1-1.259 2.314 7.932 7.932 0 0 1-1.946 1.76c-.13.09-.265.17-.406.249.146.141.292.293.433.451.34.385.661.789.962 1.208.292.423.54.83.806 1.23L128 58l-8.856-.023zm-5.44-15.983a2.635 2.635 0 0 0 1.98-.728c.462-.43.726-1.046.724-1.693 0-.982-.195-2.032-2.557-2.032h-1.282v4.464l1.136-.01z"/>
      <path fill="#A1520D" fill-rule="nonzero"
            d="M17 57V30h9.696c8.51 0 10.3 4.914 10.3 9.038a8.765 8.765 0 0 1-3.032 6.908c-1.957 1.694-4.568 2.576-7.761 2.576H24.8v8.472L17 57zm8.748-15.07c2.772 0 3.177-1.294 3.177-2.689s-.383-2.604-3.177-2.604H24.8v5.293h.948zM49.393 57c-3.623 0-6.628-1.291-8.935-3.833C38.151 50.624 37 47.29 37 43.31c0-4.215 1.178-7.69 3.495-10.329C42.813 30.342 45.951 29 49.766 29c3.624 0 6.602 1.297 8.861 3.85C60.887 35.404 62 38.743 62 42.832c0 4.198-1.172 7.644-3.49 10.238-2.318 2.593-5.397 3.93-9.117 3.93zm.23-20.828c-1.359-.064-2.66.586-3.485 1.74-.917 1.246-1.38 2.958-1.38 5.12 0 2.16.458 3.867 1.37 5.067.797 1.117 2.052 1.753 3.367 1.706 1.318.068 2.587-.54 3.415-1.638.885-1.137 1.332-2.844 1.332-5.022 0-2.275-.437-4.06-1.305-5.267-.77-1.123-2.012-1.763-3.314-1.706z"/>
      <path fill="#A1520D" d="M78.436 57l-5.833-9.07V57H65V30h7.603v8.674L78.1 30h9.201l-9.06 12.938L88 57z"/>
      <path fill="#A1520D" d="M87 57V30h15.473v6.901h-8.077v3.09h7.518v6.883h-7.518v3.242H103V57z"/>
      <path fill="#A1520D" fill-rule="nonzero"
            d="M119.164 57l-4.001-6.914a22.676 22.676 0 0 0-.748-1.22 6.002 6.002 0 0 0-.638-.808 1.85 1.85 0 0 0-.499-.39.889.889 0 0 0-.411-.095h-.287V57H105V30h9.567c8.046 0 9.746 4.287 9.746 7.908a8.435 8.435 0 0 1-.45 2.785 7.912 7.912 0 0 1-1.261 2.316 7.941 7.941 0 0 1-1.95 1.762c-.13.09-.265.17-.405.248.146.142.292.294.433.452.33.378.641.774.931 1.187.292.423.542.83.807 1.23L128 57h-8.836zm-5.447-15.991a2.638 2.638 0 0 0 1.96-.7 2.303 2.303 0 0 0 .747-1.74c0-.983-.195-2.034-2.56-2.034h-1.284v4.474h1.137z"/>
      <path fill="url(#b)" fill-rule="nonzero"
            d="M2 30V3h9.696c8.51 0 10.3 4.914 10.3 9.038a8.765 8.765 0 0 1-3.032 6.902c-1.957 1.695-4.568 2.582-7.761 2.582H9.8v8.472L2 30zm8.748-15.07c2.772 0 3.177-1.294 3.177-2.689s-.383-2.598-3.177-2.598H9.8v5.287h.948z"
            transform="translate(15 26)"/>
      <path fill="url(#c)" fill-rule="nonzero"
            d="M9.25 20.082V28H4V5h8.218c5.852 0 8.778 2.444 8.778 7.332a7.013 7.013 0 0 1-2.52 5.606c-1.678 1.408-3.921 2.123-6.732 2.144H9.25zm0-11.086v7.153h2.057c2.786 0 4.178-1.209 4.178-3.627 0-2.417-1.392-3.598-4.178-3.542l-2.057.016z"
            transform="translate(15 26)"/>
      <path fill="url(#d)" fill-rule="nonzero"
            d="M34.393 31c-3.623 0-6.628-1.291-8.935-3.833C23.151 24.624 22 21.32 22 17.31c0-4.215 1.178-7.69 3.495-10.329C27.813 4.342 30.951 3 34.766 3c3.624 0 6.602 1.297 8.861 3.85C45.887 9.404 47 12.75 47 16.832c0 4.198-1.172 7.644-3.49 10.238-2.318 2.593-5.397 3.93-9.117 3.93zm.23-20.828c-1.36-.065-2.663.588-3.485 1.746-.917 1.246-1.38 2.958-1.38 5.119 0 2.161.458 3.868 1.37 5.068.797 1.116 2.052 1.751 3.367 1.706 1.32.068 2.59-.543 3.415-1.644.885-1.137 1.332-2.844 1.332-5.022 0-2.275-.437-4.055-1.305-5.267-.77-1.123-2.012-1.763-3.314-1.706z"
            transform="translate(15 26)"/>
      <path fill="url(#e)" fill-rule="nonzero"
            d="M34.392 28c-3.36 0-6.099-1.082-8.214-3.245-2.115-2.164-3.174-4.984-3.178-8.46 0-3.664 1.077-6.629 3.232-8.895 2.154-2.267 5-3.4 8.537-3.4 3.35 0 6.06 1.084 8.128 3.25C44.966 9.419 46 12.274 46 15.817c0 3.643-1.077 6.582-3.232 8.816-2.154 2.235-4.946 3.357-8.376 3.368zm.232-19.483a5.353 5.353 0 0 0-4.422 2.059c-1.078 1.376-1.616 3.196-1.616 5.459 0 2.262.538 4.079 1.616 5.448a5.277 5.277 0 0 0 4.309 2.005 5.328 5.328 0 0 0 4.336-1.947c1.077-1.298 1.616-3.102 1.616-5.41 0-2.405-.52-4.275-1.557-5.608a5.081 5.081 0 0 0-4.282-2.027v.021z"
            transform="translate(15 26)"/>
      <path fill="url(#f)" d="M63.436 30l-5.833-9.072V30H50V3h7.603v8.67L63.1 3h9.201l-9.06 12.935L73 30z"
            transform="translate(15 26)"/>
      <path fill="url(#g)"
            d="M71 28h-6.842l-7.018-9.99c-.241-.41-.453-.835-.635-1.273h-.083V28H51V5h5.422v10.872h.083c.133-.296.36-.723.668-1.283L63.8 5h6.46l-8.393 10.972L71 28z"
            transform="translate(15 26)"/>
      <path fill="url(#h)" d="M72 30V3h15.473v6.903h-8.077v3.09h7.518v6.88h-7.518v3.241H88V30z"
            transform="translate(15 26)"/>
      <path fill="url(#i)" d="M87 28H73V5h13.465v4.222h-8.213v5.12h7.63v4.222h-7.63v5.277H87z"
            transform="translate(15 26)"/>
      <path fill="url(#j)" fill-rule="nonzero"
            d="M104.164 30l-4.001-6.908a20.92 20.92 0 0 0-.748-1.226 6.002 6.002 0 0 0-.638-.808 1.97 1.97 0 0 0-.499-.39.888.888 0 0 0-.411-.09h-.287V30H90V3h9.567c8.046 0 9.746 4.287 9.746 7.908a8.435 8.435 0 0 1-.45 2.785 7.912 7.912 0 0 1-1.261 2.316 8.075 8.075 0 0 1-2.355 2.01c.146.147.292.294.433.452.33.378.641.774.931 1.187.292.418.542.824.807 1.225L113 29.994l-8.836.006zm-5.447-15.991a2.638 2.638 0 0 0 1.96-.7c.481-.436.755-1.07.747-1.735 0-.988-.195-2.033-2.56-2.033H97.58v4.468h1.137z"
            transform="translate(15 26)"/>
      <path fill="url(#k)" fill-rule="nonzero"
            d="M111 28h-6.17l-3.712-5.911c-.28-.449-.548-.85-.8-1.203a7.207 7.207 0 0 0-.772-.908 3.22 3.22 0 0 0-.815-.58 2.168 2.168 0 0 0-.926-.201H96.36V28H91V5h8.519c5.793 0 8.687 2.085 8.683 6.254a6.23 6.23 0 0 1-.383 2.222 6.014 6.014 0 0 1-1.095 1.837 6.676 6.676 0 0 1-1.692 1.409 8.883 8.883 0 0 1-2.19.934v.063c.373.116.721.295 1.03.528.349.25.673.531.969.839.314.337.61.689.887 1.056.284.369.547.728.772 1.081L111 28zM96.36 8.895v6.386h2.305a3.97 3.97 0 0 0 2.781-.96 3.175 3.175 0 0 0 1.062-2.423c0-2.013-1.248-3.019-3.745-3.019l-2.403.016z"
            transform="translate(15 26)"/>
      <path fill="#241100" d="M18.758 75v-8.056H16V62h11v4.944h-2.758V75z"/>
      <path fill="#241100" d="M25 75V62h9v4.918h-.252v3.159H34V75z"/>
      <path fill="#241100"
            d="M39.344 75l-1.456-2.238L36.427 75H30l4.536-6.655L30.229 62h6.505l1.255 1.98L39.216 62h6.438l-4.318 6.434L46 75z"/>
      <path fill="#241100" d="M49.303 75l-.71-2.32h-1.185L46.697 75H41l4.586-13h4.812L55 75z"/>
      <path fill="#241100"
            d="M56.358 75.992a7.428 7.428 0 0 1-3.462-.794L52 74.73v-5.699l1.095.528a5.089 5.089 0 0 1-.524-.889c-.858-1.864-.452-4.104.995-5.499a4.996 4.996 0 0 1 3.442-1.166 6.782 6.782 0 0 1 1.854.25c.574.158 1.135.366 1.677.622l1.461.639-1.755 4.482c.175.171.336.357.482.556 1.348 1.964 1.04 4.698-.707 6.27a5.45 5.45 0 0 1-3.662 1.167zM70.36 75v-4.223h-.709V75H64V62h5.651v3.838h.709V62H76v13z"/>
      <path fill="#241100" fill-rule="nonzero"
            d="M81.5 75.991a6.191 6.191 0 0 1-4.807-1.916C75.568 72.839 75 71.127 75 68.983c0-2.144.546-3.878 1.704-5.085a6.26 6.26 0 0 1 4.812-1.89c2.038 0 3.655.643 4.807 1.912C87.476 65.189 88 66.856 88 68.994c0 2.139-.546 3.845-1.693 5.08a6.191 6.191 0 0 1-4.807 1.917zm0-8.786c-.459 0-.546.139-.606.205a2.708 2.708 0 0 0-.317 1.584c-.055.55.053 1.104.311 1.59.044.061.142.194.596.194.453 0 .912 0 .912-1.784 0-1.783-.48-1.789-.88-1.789H81.5z"/>
      <path fill="#241100" d="M87 75V62h5.713v8.077H97V75z"/>
      <path fill="#241100" fill-rule="nonzero"
            d="M95 75V62h4.952c2.133 0 3.855.574 5.114 1.71 1.314 1.239 2.013 2.944 1.927 4.695 0 2.063-.674 3.684-1.994 4.874-1.32 1.19-3.097 1.721-5.365 1.721H95zm5.57-5c.48-.142.713-.526.713-1.542s-.262-1.416-.713-1.505V70z"/>
      <path fill="#241100" d="M105 75V62h9v4.918h-.252v3.159H114V75z"/>
      <path fill="#241100" d="M113 75V62h5.75l1.223 3.865L121.272 62H127v13z"/>
      <path fill="#E6C4A2" d="M18.758 74v-8.061H16V61h11v4.939h-2.758V74z"/>
      <path fill="#E6C4A2" d="M25 74V61h9v4.913h-.252v3.159H34V74z"/>
      <path fill="#E6C4A2"
            d="M39.344 74l-1.456-2.243L36.427 74H30l4.536-6.655L30.229 61h6.505l1.255 1.974L39.216 61h6.438l-4.318 6.434L46 74z"/>
      <path fill="#E6C4A2" d="M49.303 74l-.71-2.32h-1.185L46.697 74H41l4.586-13h4.812L55 74z"/>
      <path fill="#E6C4A2"
            d="M56.358 73.992a7.435 7.435 0 0 1-3.462-.793l-.896-.46V67.04l1.116.555a5.043 5.043 0 0 1-.545-.91c-.857-1.864-.451-4.103.995-5.499a5.046 5.046 0 0 1 3.452-1.181c.62.003 1.239.089 1.839.255.572.163 1.133.371 1.676.621l1.467.655-1.755 4.472c.176.17.337.355.482.555 1.348 1.963 1.04 4.694-.707 6.264a5.478 5.478 0 0 1-3.662 1.165zM70.36 74v-4.223h-.709V74H64V61h5.651v3.833h.709V61H76v13z"/>
      <path fill="#E6C4A2" fill-rule="nonzero"
            d="M81.497 73.991a6.184 6.184 0 0 1-4.804-1.919C75.568 70.835 75 69.122 75 66.975c0-2.146.546-3.882 1.703-5.086a7.017 7.017 0 0 1 9.62.039c1.093 1.226 1.677 2.94 1.677 5.08 0 2.141-.546 3.85-1.693 5.08-1.146 1.232-2.773 1.903-4.81 1.903zm0-8.79c-.458 0-.546.138-.606.204a2.698 2.698 0 0 0-.316 1.587 2.771 2.771 0 0 0 .31 1.586c.044.061.143.194.596.194.453 0 .912 0 .912-1.78s-.48-1.792-.88-1.792h-.016z"/>
      <path fill="#E6C4A2" d="M87 74V61h5.713v8.072H97V74z"/>
      <path fill="#E6C4A2" fill-rule="nonzero"
            d="M95 73.984V61.008h4.952c1.875-.088 3.712.524 5.113 1.703 1.317 1.242 2.017 2.95 1.927 4.704 0 2.065-.674 3.679-1.994 4.872-1.32 1.193-3.097 1.713-5.364 1.713L95 73.984zm5.57-4.993c.48-.136.713-.525.713-1.534 0-1.01-.262-1.414-.713-1.508v3.042z"/>
      <path fill="#E6C4A2" d="M105 74V61h9v4.913h-.252v3.159H114V74z"/>
      <path fill="#E6C4A2" d="M113 74V61h5.75l1.223 3.865L121.272 61H127v13z"/>
      <path fill="#542900" d="M18.758 74v-8.058H16V61h11v4.942h-2.758V74z"/>
      <path fill="#542900" d="M25 74V61h9v4.916h-.252v3.158H34V74z"/>
      <path fill="#542900"
            d="M39.344 74l-1.456-2.242L36.427 74H30l4.536-6.653L30.229 61h6.505l1.255 1.979L39.216 61h6.438l-4.318 6.437L46 74z"/>
      <path fill="#542900" d="M49.303 74l-.71-2.325h-1.185L46.697 74H41l4.586-13h4.812L55 74z"/>
      <path fill="#542900"
            d="M56.358 74.99a7.416 7.416 0 0 1-3.462-.795L52 73.733V68.04l1.116.529a5.05 5.05 0 0 1-.545-.885c-.849-1.862-.448-4.094.985-5.493a4.987 4.987 0 0 1 3.452-1.185 6.991 6.991 0 0 1 1.854.244c.573.162 1.134.37 1.677.624l1.461.645-1.755 4.486c.176.17.337.356.482.556 1.35 1.966 1.041 4.706-.707 6.278a5.44 5.44 0 0 1-3.662 1.152zM70.36 74v-4.221h-.709V74H64V61h5.651v3.837h.709V61H76v13z"/>
      <path fill="#542900" fill-rule="nonzero"
            d="M81.5 74.991a6.192 6.192 0 0 1-4.807-1.916C75.568 71.839 75 70.127 75 67.983c0-2.143.546-3.877 1.704-5.08a6.245 6.245 0 0 1 4.812-1.894c2.038 0 3.655.642 4.807 1.917C87.476 64.2 88 65.856 88 68c0 2.144-.546 3.845-1.693 5.075s-2.77 1.916-4.807 1.916zm0-8.78c-.459 0-.546.138-.606.205A2.69 2.69 0 0 0 80.577 68c-.056.548.052 1.1.311 1.584.044.061.142.194.596.194.453 0 .912 0 .912-1.778s-.48-1.767-.88-1.767l-.016-.022z"/>
      <path fill="#542900" d="M87 74V61h5.713v8.074H97V74z"/>
      <path fill="#542900" fill-rule="nonzero"
            d="M95 74V61.008h4.952c1.875-.088 3.712.524 5.114 1.705 1.313 1.239 2.013 2.943 1.927 4.694 0 2.068-.674 3.683-1.994 4.872-1.32 1.19-3.097 1.721-5.364 1.721H95zm5.57-4.999c.48-.137.713-.526.713-1.536 0-1.095-.261-1.416-.713-1.51V69z"/>
      <path fill="#542900" d="M105 74V61h9v4.916h-.252v3.158H114V74z"/>
      <path fill="#542900" d="M113 74V61h5.75l1.223 3.868L121.272 61H127v13z"/>
      <path fill="#FFFAF2"
            d="M19.86 73v-8.247H17V62h9v2.753h-2.86V73zM26 73V62h7v2.726h-3.774v1.212h3.512v2.726h-3.512v1.6H33V73zM40.434 73l-2.019-3.334L36.396 73H33l3.577-5.656L33.207 62h3.465l1.844 3.13L40.328 62h3.407l-3.396 5.452L44 73z"/>
      <path fill="#FFFAF2" fill-rule="nonzero"
            d="M49.67 73l-.717-2.373h-2.9L45.328 73H42l3.854-11h3.276L53 73h-3.33zm-1.52-5.132c-.267-.875-.481-1.562-.637-2.062l-.631 2.062h1.268z"/>
      <path fill="#FFFAF2"
            d="M56.496 72.993a7.755 7.755 0 0 1-3.207-.635L53 72.222v-2.956l.73.298a12.7 12.7 0 0 0 1.697.598c.396.102.805.157 1.217.162.296.025.594-.033.854-.167a.406.406 0 0 0 .175-.383.348.348 0 0 0-.073-.23 1.36 1.36 0 0 0-.374-.315c-.42-.23-.855-.438-1.301-.624a6.86 6.86 0 0 1-1.561-.875 3.641 3.641 0 0 1-.889-1.049c-.674-1.294-.357-2.844.781-3.821a4.685 4.685 0 0 1 2.948-.854 7.14 7.14 0 0 1 1.697.199c.558.136 1.105.312 1.635.524l.464.189-1.132 2.484-.48-.183c-.43-.167-.873-.305-1.324-.414a4.326 4.326 0 0 0-.957-.11 1.05 1.05 0 0 0-.633.152.415.415 0 0 0-.159.35.385.385 0 0 0 .057.226c.08.1.177.184.289.252.434.24.884.455 1.346.645a6.129 6.129 0 0 1 2.207 1.446 2.9 2.9 0 0 1 .679 1.908c.042.957-.412 1.875-1.223 2.47a5.274 5.274 0 0 1-3.174.849zM70.961 73v-4.32h-2.917V73H65V62h3.044v3.927h2.917V62H74v11z"/>
      <path fill="#FFFAF2" fill-rule="nonzero"
            d="M81.497 72.992c-1.52.082-3.003-.449-4.072-1.457C76.479 70.582 76 69.22 76 67.48c0-1.74.479-3.097 1.43-4.04 2.327-1.92 5.83-1.92 8.156 0 .935.948 1.414 2.31 1.414 4.045 0 1.734-.479 3.086-1.425 4.04-1.07 1.011-2.555 1.546-4.078 1.467zm0-8.31a1.91 1.91 0 0 0-1.571.65 3.432 3.432 0 0 0-.563 2.174c-.06.76.137 1.518.563 2.17a1.9 1.9 0 0 0 1.577.633c.918 0 2.14-.288 2.14-2.803s-1.216-2.824-2.129-2.824h-.017z"/>
      <path fill="#FFFAF2" d="M88 73V62h3.035v8.263H95V73z"/>
      <path fill="#FFFAF2" fill-rule="nonzero"
            d="M96 73V62.009h3.519a5.506 5.506 0 0 1 4.014 1.432 5.333 5.333 0 0 1 1.46 3.967c0 1.781-.522 3.175-1.512 4.15-.99.974-2.43 1.442-4.26 1.442H96zm3.415-2.734c1.72 0 2.491-.867 2.491-2.8 0-1.932-.703-2.734-2.283-2.734h-.615v5.534h.407z"/>
      <path fill="#FFFAF2"
            d="M106 73V62h7v2.726h-3.774v1.212h3.512v2.726h-3.512v1.6H113V73zM122.959 73v-5.134L121.222 73h-2.737l-1.526-4.837V73H114V62h3.843l2.096 6.594L122.162 62H126v11z"/>
      <path fill="#261600"
            d="M19.86 74v-8.242H17V63h9v2.758h-2.86V74zM26 74V63h7v2.731h-3.774v1.207h3.512v2.731h-3.512v1.594H33V74zM40.434 74l-2.019-3.334L36.396 74H33l3.577-5.656L33.207 63h3.465l1.844 3.13L40.328 63h3.407l-3.396 5.452L44 74z"/>
      <path fill="#261600" fill-rule="nonzero"
            d="M49.67 74l-.717-2.357h-2.9L45.328 74H42l3.854-11h3.276L53 74h-3.33zm-1.52-5.116l-.642-2.062-.626 2.062h1.268z"/>
      <path fill="#261600"
            d="M56.499 73.995a7.748 7.748 0 0 1-3.21-.636L53 73.227v-2.969l.73.305c.55.238 1.117.436 1.699.594a5.16 5.16 0 0 0 1.217.163c.297.024.595-.034.855-.168a.402.402 0 0 0 .176-.384.37.37 0 0 0-.074-.231 1.453 1.453 0 0 0-.374-.31 11.94 11.94 0 0 0-1.302-.631 6.862 6.862 0 0 1-1.563-.878 3.585 3.585 0 0 1-.888-1.05c-.665-1.292-.351-2.834.775-3.81a4.683 4.683 0 0 1 2.95-.852 7.135 7.135 0 0 1 1.699.194c.558.137 1.105.313 1.636.526l.464.19-1.132 2.49-.482-.184c-.429-.172-.87-.317-1.319-.436a4.321 4.321 0 0 0-.957-.11 1.013 1.013 0 0 0-.634.157.402.402 0 0 0-.158.352.382.382 0 0 0 .056.221c.08.1.178.185.29.252.434.24.884.456 1.347.647.845.324 1.6.821 2.208 1.455 1.06 1.372.815 3.269-.566 4.368a5.266 5.266 0 0 1-3.154.867zM70.961 74v-4.32h-2.917V74H65V63h3.044v3.927h2.917V63H74v11z"/>
      <path fill="#261600" fill-rule="nonzero"
            d="M81.497 73.991c-1.518.084-3.002-.445-4.072-1.45C76.479 71.58 76 70.218 76 68.48c0-1.74.479-3.097 1.43-4.04 2.327-1.92 5.83-1.92 8.156 0 .935.954 1.414 2.31 1.414 4.045 0 1.734-.479 3.091-1.425 4.045-1.07 1.01-2.556 1.542-4.078 1.461zm0-8.31a1.912 1.912 0 0 0-1.588.64 3.467 3.467 0 0 0-.563 2.174c-.06.76.137 1.518.563 2.17.378.443.97.68 1.577.633.918 0 2.14-.288 2.14-2.803s-1.2-2.813-2.112-2.813h-.017z"/>
      <path fill="#261600" d="M88 74V63h3.035v8.263H95V74z"/>
      <path fill="#261600" fill-rule="nonzero"
            d="M96 74V63.009h3.519a5.5 5.5 0 0 1 4.014 1.434 5.357 5.357 0 0 1 1.46 3.978c0 1.779-.522 3.18-1.512 4.15-.99.97-2.43 1.429-4.26 1.429H96zm3.415-2.695c1.72 0 2.491-.868 2.491-2.803s-.703-2.733-2.283-2.733h-.615v5.536h.407z"/>
      <path fill="#261600"
            d="M106 74V63h7v2.731h-3.774v1.207h3.512v2.731h-3.512v1.594H113V74zM122.959 74v-5.134L121.222 74h-2.737l-1.526-4.832V74H114V63h3.843l2.096 6.594L122.162 63H126v11z"/>
      <path fill="#B56800"
            d="M19.86 73v-8.247H17V62h9v2.753h-2.86V73zM26 73V62h7v2.726h-3.774v1.212h3.512v2.726h-3.512v1.6H33V73zM40.434 73l-2.019-3.34L36.396 73H33l3.577-5.656L33.207 62h3.465l1.844 3.13L40.328 62h3.407l-3.396 5.452L44 73z"/>
      <path fill="#B56800" fill-rule="nonzero"
            d="M49.67 73l-.717-2.372h-2.9L45.328 73H42l3.854-11h3.276L53 73h-3.33zm-1.52-5.13c-.267-.874-.481-1.561-.637-2.06l-.626 2.06h1.263z"/>
      <path fill="#B56800"
            d="M56.496 72.994a7.675 7.675 0 0 1-3.207-.64L53 72.218v-2.952l.73.3c.549.237 1.116.437 1.697.597.397.1.806.154 1.217.162.296.025.594-.034.854-.167a.41.41 0 0 0 .175-.388.368.368 0 0 0-.073-.231 1.451 1.451 0 0 0-.374-.31c-.42-.23-.855-.437-1.301-.623a6.86 6.86 0 0 1-1.561-.876 3.641 3.641 0 0 1-.889-1.048c-.674-1.295-.357-2.845.781-3.822a4.685 4.685 0 0 1 2.948-.854 7.14 7.14 0 0 1 1.697.199 12.19 12.19 0 0 1 1.635.524l.464.189-1.132 2.485-.48-.184c-.43-.167-.873-.305-1.324-.414a4.325 4.325 0 0 0-.957-.11 1.05 1.05 0 0 0-.633.152.415.415 0 0 0-.159.351.385.385 0 0 0 .057.226c.08.099.177.184.289.251.434.24.884.455 1.346.645a6.129 6.129 0 0 1 2.207 1.447c.451.545.69 1.216.679 1.903.037.953-.416 1.866-1.223 2.459a5.27 5.27 0 0 1-3.174.865zM70.961 73v-4.32h-2.917V73H65V62h3.044v3.927h2.917V62H74v11z"/>
      <path fill="#B56800" fill-rule="nonzero"
            d="M81.497 72.992c-1.52.082-3.003-.449-4.072-1.457C76.479 70.582 76 69.22 76 67.48c0-1.74.479-3.097 1.43-4.04 2.327-1.92 5.83-1.92 8.156 0 .935.948 1.414 2.31 1.414 4.045 0 1.734-.479 3.086-1.425 4.04-1.07 1.011-2.555 1.546-4.078 1.467zm0-8.31a1.912 1.912 0 0 0-1.588.64 3.432 3.432 0 0 0-.563 2.173c-.06.76.137 1.519.563 2.17a1.9 1.9 0 0 0 1.577.634c.918 0 2.14-.294 2.14-2.804s-1.2-2.813-2.112-2.813h-.017z"/>
      <path fill="#B56800" d="M88 73V62h3.035v8.263H95V73z"/>
      <path fill="#B56800" fill-rule="nonzero"
            d="M96 73V62.009h3.519a5.506 5.506 0 0 1 4.014 1.432 5.333 5.333 0 0 1 1.46 3.967c0 1.781-.522 3.175-1.512 4.144-.99.969-2.43 1.448-4.26 1.448H96zm3.415-2.734c1.72 0 2.491-.867 2.491-2.805 0-1.937-.703-2.729-2.283-2.729h-.615v5.534h.407z"/>
      <path fill="#B56800"
            d="M106 73V62h7v2.726h-3.774v1.212h3.512v2.726h-3.512v1.6H113V73zM122.959 73v-5.134L121.222 73h-2.737l-1.526-4.837V73H114V62h3.843l2.096 6.594L122.162 62H126v11z"/>
      <path fill="url(#l)" d="M4.86 47v-8.247H2V36h9v2.753H8.14V47z" transform="translate(15 26)"/>
      <path fill="url(#m)" d="M8.109 47H5.857v-8.236H3V37h8v1.764H8.143z" transform="translate(15 26)"/>
      <path fill="url(#l)" d="M11 47V36h7v2.726h-3.774v1.212h3.512v2.726h-3.512v1.6H18V47z"
            transform="translate(15 26)"/>
      <path fill="url(#g)" d="M18 47h-6V37h6v1.737h-3.79v2.195h3.526v1.738H14.21v2.576H18z"
            transform="translate(15 26)"/>
      <path fill="url(#l)"
            d="M25.434 47l-2.019-3.34L21.396 47H18l3.577-5.656L18.207 36h3.465l1.844 3.13L25.328 36h3.407l-3.396 5.452L29 47z"
            transform="translate(15 26)"/>
      <path fill="url(#n)"
            d="M28 47h-2.332l-2.238-3.765L21.187 47H19l3.197-5.159L19.207 37h2.254l2.073 3.599L25.57 37h2.202l-3.026 4.96z"
            transform="translate(15 26)"/>
      <path fill="url(#o)" fill-rule="nonzero"
            d="M34.67 47l-.717-2.373h-2.9L30.328 47H27l3.854-11h3.276L38 47h-3.33zm-1.52-5.132c-.267-.875-.481-1.562-.637-2.062l-.626 2.062h1.263z"
            transform="translate(15 26)"/>
      <path fill="url(#p)" fill-rule="nonzero"
            d="M35.635 47l-.751-2.373h-3.768L30.366 47H28l3.65-10h2.683L38 47h-2.365zm-1.274-4.146c-.69-2.142-1.08-3.358-1.169-3.647a9.821 9.821 0 0 1-.19-.664c-.155.578-.6 2.015-1.335 4.311h2.694z"
            transform="translate(15 26)"/>
      <path fill="url(#q)"
            d="M41.499 46.994a7.67 7.67 0 0 1-3.21-.641L38 46.22v-2.963l.73.3c.55.238 1.117.439 1.699.598.397.1.806.155 1.217.163.297.025.595-.034.855-.168a.412.412 0 0 0 .176-.389.344.344 0 0 0-.074-.226 1.361 1.361 0 0 0-.374-.315c-.421-.23-.856-.439-1.302-.625a6.862 6.862 0 0 1-1.563-.878 3.648 3.648 0 0 1-.888-1.05c-.675-1.298-.358-2.852.78-3.83a4.688 4.688 0 0 1 2.945-.83 7.135 7.135 0 0 1 1.699.199c.558.137 1.105.312 1.636.525l.464.19-1.132 2.49-.482-.184a10.355 10.355 0 0 0-1.319-.441 4.322 4.322 0 0 0-.957-.11 1.05 1.05 0 0 0-.634.152.41.41 0 0 0-.107.33.386.386 0 0 0 .056.227c.08.099.178.184.29.252.434.24.884.456 1.347.646.843.324 1.598.82 2.208 1.45.439.558.66 1.238.628 1.928.038.956-.416 1.87-1.223 2.465a5.268 5.268 0 0 1-3.176.867z"
            transform="translate(15 26)"/>
      <path fill="url(#r)"
            d="M44.997 44.145c.044.809-.347 1.587-1.049 2.09a4.907 4.907 0 0 1-2.896.759A7.461 7.461 0 0 1 38 46.393V44.48c.597.248 1.215.454 1.848.616a5.98 5.98 0 0 0 1.378.183c.407.024.812-.067 1.158-.261.436-.307.535-.866.226-1.28a1.89 1.89 0 0 0-.556-.413c-.45-.245-.916-.464-1.396-.659a6.592 6.592 0 0 1-1.476-.805 3.075 3.075 0 0 1-.788-.894 2.35 2.35 0 0 1-.296-1.196c-.04-.775.317-1.522.968-2.028a4.365 4.365 0 0 1 2.676-.737 6.956 6.956 0 0 1 1.604.177c.545.137 1.078.311 1.593.523l-.736 1.6c-.463-.177-.94-.326-1.425-.445a5.11 5.11 0 0 0-1.106-.125 1.578 1.578 0 0 0-.996.272.87.87 0 0 0-.36.658.818.818 0 0 0 .14.476c.119.155.27.289.446.392.467.252.95.48 1.448.68.787.292 1.493.738 2.067 1.306.396.465.6 1.04.58 1.625z"
            transform="translate(15 26)"/>
      <path fill="url(#l)" d="M55.961 47v-4.32h-2.917V47H50V36h3.044v3.927h2.917V36H59v11z"
            transform="translate(15 26)"/>
      <path fill="url(#s)" d="M59 47h-2.056v-4.303h-3.851V47H51V37h2.093v3.916h3.85V37H59z"
            transform="translate(15 26)"/>
      <path fill="url(#t)" fill-rule="nonzero"
            d="M66.497 46.992c-1.52.082-3.003-.449-4.072-1.457C61.479 44.582 61 43.22 61 41.48c0-1.74.479-3.097 1.43-4.04 2.327-1.92 5.83-1.92 8.156 0 .935.948 1.414 2.31 1.414 4.045 0 1.734-.479 3.086-1.425 4.04-1.07 1.011-2.555 1.546-4.078 1.467zm0-8.31a1.912 1.912 0 0 0-1.588.64 3.432 3.432 0 0 0-.563 2.173c-.06.76.137 1.519.563 2.17a1.9 1.9 0 0 0 1.577.634c.918 0 2.14-.294 2.14-2.804s-1.2-2.813-2.112-2.813h-.017z"
            transform="translate(15 26)"/>
      <path fill="url(#u)" fill-rule="nonzero"
            d="M72 42.005c0 1.603-.43 2.84-1.294 3.701-2.118 1.725-5.294 1.725-7.412 0C62.435 44.845 62 43.618 62 41.99c0-1.628.435-2.85 1.3-3.7.984-.897 2.337-1.363 3.717-1.28 1.377-.083 2.726.387 3.7 1.29.86.877 1.283 2.093 1.283 3.706zm-7.667 0c-.064.862.172 1.72.673 2.448.475.564 1.222.872 1.994.825 1.78 0 2.667-1.096 2.667-3.273s-.887-3.278-2.65-3.278c-.775-.048-1.526.26-2.006.825-.504.73-.74 1.59-.672 2.453h-.006z"
            transform="translate(15 26)"/>
      <path fill="url(#v)" d="M73 47V36h3.035v8.263H80V47z" transform="translate(15 26)"/>
      <path fill="url(#g)" d="M74 47V37h2.06v8.246H80V47z" transform="translate(15 26)"/>
      <path fill="url(#w)" fill-rule="nonzero"
            d="M81 47V36.009h3.519a5.506 5.506 0 0 1 4.014 1.432 5.333 5.333 0 0 1 1.46 3.967c0 1.781-.522 3.175-1.512 4.144-.99.969-2.43 1.448-4.26 1.448H81zm3.415-2.734c1.72 0 2.491-.867 2.491-2.8 0-1.932-.703-2.734-2.283-2.734h-.615v5.534h.407z"
            transform="translate(15 26)"/>
      <path fill="url(#x)" fill-rule="nonzero"
            d="M89.992 41.916c0 1.648-.452 2.905-1.357 3.77-.901.872-2.201 1.314-3.905 1.314H82v-9.99h3.025a4.98 4.98 0 0 1 3.662 1.293 4.864 4.864 0 0 1 1.305 3.613zm-2.124.06c0-2.155-.911-3.232-2.74-3.232h-1.082v6.517h.875c1.963.005 2.947-1.094 2.947-3.286z"
            transform="translate(15 26)"/>
      <path fill="url(#l)" d="M91 47V36h7v2.726h-3.774v1.212h3.512v2.726h-3.512v1.6H98V47z"
            transform="translate(15 26)"/>
      <path fill="url(#g)" d="M98 47h-6V37h6v1.737h-3.79v2.195h3.526v1.738H94.21v2.576H98z"
            transform="translate(15 26)"/>
      <path fill="url(#l)"
            d="M107.959 47v-5.134L106.222 47h-2.737l-1.526-4.837V47H99V36h3.843l2.096 6.594L107.162 36H111v11z"
            transform="translate(15 26)"/>
      <path fill="url(#g)"
            d="M104.355 47l-2.474-7.848h-.066c.088 1.613.138 2.662.138 3.195V47H100V37h2.971l2.435 7.644h.039L108.029 37H111v10h-2.036v-4.734-.774c0-.29.039-1.076.094-2.324h-.061L106.341 47h-1.986z"
            transform="translate(15 26)"/>
    </g>
  </g>
</svg>
