<svg width="21" height="18" viewBox="0 0 21 18" fill="none" xmlns="http://www.w3.org/2000/svg">
<path d="M20.9231 8.41278C20.661 5.67962 18.2312 3.67568 15.498 3.93917C15.4069 3.94771 15.3143 3.95911 15.2232 3.97335C14.3942 4.09014 13.6095 4.41915 12.9443 4.92761C13.2036 5.86762 13.4158 6.81618 13.5895 7.77329C14.2105 6.46297 15.7758 5.90323 17.0861 6.52421C18.3964 7.14519 18.9562 8.71045 18.3352 10.0208C17.888 10.9665 16.9209 11.5547 15.8755 11.5205C15.1747 11.5063 14.5096 11.2058 14.0353 10.6888C14.0923 11.1502 14.1478 11.6145 14.2005 12.0803C14.2333 12.1073 14.2689 12.1301 14.3059 12.1486C14.5139 12.2597 14.7304 12.3509 14.9554 12.4235C15.0166 12.4406 15.085 12.4534 15.0608 12.5289C15.0252 12.6941 14.9939 12.8422 14.9639 12.9904C14.9454 13.0801 14.8899 13.0772 14.8215 13.0573C14.6364 13.0003 14.4612 12.9348 14.2874 12.8608C14.3131 13.1114 14.3415 13.3621 14.3672 13.6028C14.8614 13.7666 15.3784 13.8535 15.8997 13.862C16.6702 13.8805 17.435 13.711 18.1258 13.3678C19.2139 12.8465 20.0771 11.9464 20.5513 10.8369C20.7108 10.4324 20.8319 10.0137 20.9131 9.58638L20.9459 8.51818C20.9231 8.48684 20.9231 8.44697 20.9231 8.41278ZM15.357 5.26943C14.9155 5.33352 14.4925 5.49019 14.1179 5.73089C14.061 5.7665 14.014 5.77362 13.9727 5.70811C13.8886 5.57992 13.806 5.45459 13.7191 5.33637C13.675 5.26943 13.7006 5.23382 13.7619 5.20107C14.2376 4.9333 14.7546 4.7453 15.2901 4.64418C15.3585 4.63136 15.3998 4.64418 15.4069 4.72536C15.424 4.87064 15.4439 5.01449 15.4624 5.16119C15.481 5.24949 15.4183 5.26231 15.357 5.26943ZM18.3608 5.54147C18.2711 5.64401 18.1885 5.75226 18.1101 5.86477C18.056 5.93741 18.0104 5.9545 17.925 5.89468C17.6273 5.67107 17.2898 5.50444 16.9309 5.40474C16.8554 5.38195 16.8027 5.35061 16.8212 5.26373C16.8525 5.11561 16.8867 4.96749 16.918 4.81794C16.918 4.77379 16.9408 4.73391 17.0021 4.74388C17.1302 4.78661 17.2613 4.82506 17.388 4.87349C17.7156 4.99312 18.0304 5.14694 18.3266 5.3321C18.4235 5.39477 18.4534 5.44462 18.3679 5.54147H18.3608ZM18.1215 12.6072C17.7227 12.818 17.2912 12.9576 16.8454 13.0189C16.7557 13.0317 16.7329 12.9946 16.7229 12.922C16.7101 12.8038 16.6944 12.6827 16.6802 12.5375C16.6631 12.4819 16.7058 12.4477 16.7785 12.4321C17.1246 12.348 17.4564 12.2184 17.7697 12.0475C17.8367 12.0147 17.8794 12.0048 17.9236 12.0788C18.0019 12.2084 18.0874 12.3324 18.1742 12.4506C18.2113 12.5261 18.2041 12.5674 18.1272 12.6058L18.1215 12.6072ZM19.1313 6.78627C19.2367 6.71933 19.3436 6.65097 19.4433 6.57691C19.543 6.50284 19.5672 6.53845 19.617 6.61821C19.8947 7.07255 20.0799 7.57674 20.1611 8.10229C20.1782 8.20627 20.1611 8.25042 20.0528 8.26181L19.5871 8.31308C19.5615 8.31308 19.5458 8.26466 19.5373 8.20911C19.4575 7.76617 19.3051 7.33889 19.0858 6.94579C19.0487 6.86033 19.0672 6.82473 19.1356 6.78627H19.1313ZM19.9474 10.4794C19.8378 10.7115 19.7067 10.9323 19.5572 11.1417C19.4903 11.2343 19.4361 11.2357 19.3564 11.1673C19.2481 11.0747 19.0886 11.0078 19.0416 10.8924C18.9946 10.7771 19.147 10.6489 19.2068 10.5207C19.3322 10.2786 19.4361 10.0265 19.5173 9.76726C19.5458 9.67326 19.5885 9.6405 19.6882 9.66898C19.8178 9.70744 19.9531 9.72595 20.087 9.75444C20.1354 9.75444 20.181 9.77153 20.1767 9.82993C20.1269 10.0535 20.0514 10.27 19.9546 10.478L19.9474 10.4794Z" fill="white"/>
<path d="M17.8794 8.95118C17.848 10.0137 16.9621 10.8497 15.8996 10.8184C15.8954 10.8184 15.8925 10.8184 15.8882 10.8184C14.8243 10.807 13.9697 9.93393 13.9826 8.86858C13.994 7.80465 14.867 6.95009 15.9324 6.96291C15.9637 6.96291 15.9965 6.96434 16.0278 6.96576C17.0832 6.99852 17.9135 7.88156 17.8794 8.93694C17.8794 8.94121 17.8794 8.94549 17.8794 8.95118Z" fill="white"/>
<path d="M0.436523 3.1174C0.436523 2.13181 1.06605 1.34704 1.97615 1.21031C3.92455 0.915489 5.87294 0.653425 7.8313 0.37142C8.5235 0.273146 9.21711 0.186266 9.90931 0.0794462C10.9818 -0.0857685 11.9204 0.553726 12.0799 1.6262C12.4303 3.97908 12.7536 6.33339 13.0854 8.6877C13.3532 10.5862 13.6081 12.4862 13.8844 14.3819C14.0397 15.4473 13.4557 16.3802 12.4003 16.5539C10.6741 16.8373 8.93938 17.061 7.20463 17.3074C6.29167 17.437 5.3773 17.558 4.46434 17.6976C3.36766 17.8628 2.43619 17.2262 2.27098 16.1238C1.92203 13.8008 1.60157 11.4721 1.27257 9.14631C1.00623 7.25204 0.744165 5.35207 0.479251 3.45495C0.46216 3.3168 0.443645 3.17722 0.436523 3.1174ZM9.69852 7.99693C9.72273 7.42153 9.39087 6.88885 8.86105 6.65955C8.32125 6.37897 7.66467 6.46585 7.21745 6.87889C7.05081 7.02558 6.92547 7.12243 6.67195 7.00707C5.87294 6.64673 5.0725 6.8917 4.66801 7.58105C4.26352 8.26897 4.43301 9.06513 5.13944 9.62202C5.66785 10.0351 6.20337 10.4395 6.74601 10.8369C7.28011 11.2286 7.71594 11.173 8.12613 10.6518C8.56765 10.0949 8.98638 9.51377 9.42506 8.94549C9.62445 8.66919 9.71988 8.33448 9.69852 7.99693ZM12.2707 13.563C12.2821 13.2753 12.1853 13.1456 12.0201 13.0716C11.8734 12.989 11.6882 13.0403 11.6056 13.187C11.5999 13.1969 11.5942 13.2083 11.5899 13.2183C11.4048 13.7752 11.1968 13.9603 10.8094 13.3479C10.6983 13.2083 10.4961 13.1855 10.3565 13.2952C10.3437 13.3052 10.3309 13.3166 10.3209 13.3294C10.1614 13.4305 10.1144 13.6413 10.2155 13.8008C10.2184 13.8051 10.2212 13.8094 10.2241 13.8136C10.5118 14.2438 10.7924 14.6796 11.1085 15.0869C11.2937 15.3362 11.6056 15.3219 11.7324 15.0485C11.9645 14.54 12.1169 13.9988 12.2722 13.5601V13.563H12.2707ZM2.08725 4.21266C2.08725 4.50891 2.16843 4.65846 2.36783 4.714C2.54871 4.76528 2.74098 4.6784 2.82074 4.50748C2.92471 4.34369 2.89338 4.04887 3.07853 4.01042C3.31211 3.96057 3.3463 4.2796 3.49727 4.40921C3.64824 4.53882 3.79636 4.62427 3.98294 4.49609C4.15813 4.41491 4.23504 4.20839 4.15385 4.0332C4.14816 4.02039 4.14104 4.00757 4.13391 3.99475C3.87612 3.53329 3.57418 3.09746 3.23093 2.69582C3.12126 2.53488 2.90193 2.49357 2.74098 2.60324C2.67974 2.64455 2.63274 2.70579 2.6071 2.77558C2.38634 3.25556 2.23822 3.78253 2.08725 4.21266Z" fill="white"/>
</svg>
