<svg width="33" height="33" viewBox="0 0 33 33" fill="none" xmlns="http://www.w3.org/2000/svg">
<circle cx="16.1889" cy="16.1889" r="16.1889" fill="#202020"/>
<path d="M14.0575 21.925C14.4134 22.2808 14.9905 22.2807 15.3462 21.925C15.7023 21.569 15.7023 20.9921 15.3461 20.6361L11.8442 17.1343L21.985 17.1333C22.4882 17.1332 22.8961 16.7253 22.8961 16.2218C22.896 15.7185 22.4881 15.3107 21.9848 15.3107L11.8438 15.3117L15.3465 11.8092C15.7024 11.4533 15.7024 10.8761 15.3465 10.5204C15.1685 10.3425 14.9353 10.2534 14.702 10.2534C14.4688 10.2534 14.2357 10.3425 14.0576 10.5202L8.99938 15.5784C8.82841 15.7492 8.73242 15.981 8.73242 16.2228C8.73254 16.4646 8.82854 16.6961 8.9995 16.8674L14.0575 21.925Z" fill="url(#paint0_linear_10491_9221)"/>
<defs>
<linearGradient id="paint0_linear_10491_9221" x1="8.73242" y1="16.2226" x2="22.8962" y2="16.2226" gradientUnits="userSpaceOnUse">
<stop stop-color="#F2D71A"/>
<stop offset="1" stop-color="#ECB024"/>
</linearGradient>
</defs>
</svg>
