<svg width="70" height="43" viewBox="0 0 70 43" fill="none" xmlns="http://www.w3.org/2000/svg">
<g clip-path="url(#clip0_12946_143963)">
<path d="M48.133 24.7223L39.5325 23.0536L48.1308 19.5994L49.8166 21.5589L48.133 24.7223Z" fill="url(#paint0_radial_12946_143963)"/>
<path d="M59.4911 20.3009C58.4636 18.0526 57.7099 16.1312 57.4339 15.6705C56.6483 14.3415 55.4785 14.4137 54.4743 14.5878C51.7972 15.0485 50.7526 15.5198 46.0331 16.7745C45.3388 16.9656 44.0289 17.3499 43.3071 17.0993C41.3963 16.4454 40.8167 15.921 39.8996 16.0251C38.4856 16.1928 35.5664 17.56 32.3967 19.8763C31.4052 20.5896 31.5199 21.4431 31.3352 21.9993C31.3225 22.05 31.3289 22.1035 31.3531 22.1497C31.3774 22.196 31.4179 22.2316 31.4668 22.2499H31.505C31.9657 22.2966 36.9952 22.7339 37.2245 22.7658C37.1902 22.748 37.1614 22.7212 37.1412 22.6883C37.121 22.6554 37.1102 22.6176 37.1099 22.5789C37.1089 22.5436 37.1182 22.5087 37.1367 22.4786C37.1551 22.4484 37.182 22.4243 37.2139 22.4091C38.6491 21.6363 43.8633 18.8742 47.0118 17.6322C51.3195 15.9338 52.3598 15.7406 53.6676 15.6174C54.0164 15.5983 54.366 15.6026 54.7142 15.6302C54.8366 15.6377 54.9541 15.6804 55.0527 15.7531C55.1514 15.8258 55.227 15.9254 55.2705 16.0399C55.8649 17.7851 57.6058 21.7276 58.5272 23.0333C58.4797 23.1195 58.4127 23.1936 58.3317 23.2495C58.2506 23.3055 58.1577 23.342 58.0602 23.356C57.8182 23.356 57.3256 22.9038 57.0199 22.6341C56.9859 22.6073 56.9445 22.5914 56.9012 22.5888C56.8579 22.5861 56.8149 22.5968 56.7779 22.6193C51.6125 25.8039 47.8886 27.1923 47.3515 27.3834C47.3301 27.3929 47.3069 27.3978 47.2835 27.3978C47.2601 27.3978 47.237 27.3929 47.2156 27.3834L44.5767 26.4004C44.7211 26.2277 44.8378 26.0336 44.9227 25.8251C44.9698 25.7217 44.9951 25.6096 44.997 25.496C44.9779 25.0714 44.5724 24.9801 44.3898 24.9568C43.6871 24.8697 24.8322 22.0885 20.1042 21.6236C18.0979 21.4113 16.1893 22.4494 15.3634 23.5343V23.5619L18.0406 26.358C18.0687 26.3887 18.106 26.4095 18.1468 26.4176C18.1877 26.4256 18.2301 26.4203 18.2677 26.4026L20.3738 25.4323C20.3738 25.4323 20.6626 26.324 20.3929 26.4748C18.6435 27.445 16.9493 28.2942 15.3103 29.1434C14.6522 29.4916 14.6734 30.1498 14.4611 31.0754C14.3719 31.4788 14.3358 31.8248 14.3358 31.8248C14.3358 31.8248 17.9981 29.9927 20.2486 28.9099C20.287 28.8941 20.3291 28.8899 20.3699 28.8978C20.4106 28.9057 20.4482 28.9254 20.4778 28.9545C20.7984 29.3005 20.9025 29.3791 21.1148 29.5914C21.1333 29.6099 21.148 29.6319 21.1581 29.6562C21.1681 29.6804 21.1733 29.7064 21.1733 29.7326C21.1733 29.7588 21.1681 29.7848 21.1581 29.809C21.148 29.8332 21.1333 29.8552 21.1148 29.8738C21.1012 29.8876 21.0854 29.8991 21.0681 29.9077C20.5373 30.1901 19.9895 30.4788 19.5692 30.7294C19.2359 30.9268 19.5692 31.5913 19.5692 31.5913L25.6815 28.6955C25.6815 28.6955 26.0615 29.0712 25.3885 29.4895C24.3461 30.1434 14.7053 35.0583 13.8773 35.088C11.6905 35.1432 7.56543 31.0287 6.07504 30.4024C4.81819 29.8738 3.46368 30.7357 1.62724 31.8142C1.12832 32.1115 1.43192 32.8291 1.43192 32.8291L4.09423 31.4788C4.09423 31.4788 4.4233 31.8588 4.05389 32.0902C2.7652 32.9076 0.901154 33.725 0.614542 33.9309C0.189931 34.2324 0.355529 35.6442 0.355529 35.6442L2.87135 34.4702C2.90473 34.4534 2.94194 34.4458 2.97921 34.448C3.01649 34.4503 3.05251 34.4623 3.08366 34.4829L8.48046 39.6207C8.82311 39.538 9.15774 39.425 9.48042 39.2831L4.97954 34.4957C4.94435 34.4522 4.92773 34.3966 4.93329 34.3409C4.93886 34.2853 4.96616 34.2341 5.00927 34.1984L5.03474 34.1793C5.49545 33.9458 6.04532 33.7738 6.82448 34.3704C7.47838 34.8757 9.76703 36.7185 11.9814 36.521C12.7202 36.4574 12.7308 36.6845 12.7308 36.6845C12.7308 36.6845 11.7903 37.1367 10.6757 37.7461C10.1237 38.0518 10.5717 38.8564 10.5717 38.8564C16.2763 36.521 23.31 33.604 24.2866 33.1794C24.3213 33.1647 24.3592 33.1596 24.3965 33.1644C24.4338 33.1693 24.4691 33.184 24.4989 33.207L26.1485 34.5169C26.3821 34.8757 38.1141 30.3706 41.7339 28.5426C41.9462 28.4428 43.7763 28.5277 44.6658 28.5193C45.0734 28.5193 45.0586 28.6976 45.0586 28.6976C45.0586 28.6976 15.6989 40.3956 8.49532 40.1345H8.48258L6.94762 40.7926C7.84779 41.3871 7.63336 42.4147 9.16621 41.6206C9.2575 41.8329 9.36365 42.0452 9.47617 42.2915C9.7734 42.9284 9.7734 42.9412 11.7224 42.2788C17.2423 40.4147 42.0141 33.0074 47.5638 30.7102C50.6974 29.4173 55.0306 27.6318 57.7311 25.9588C60.4062 24.3198 60.939 23.4706 59.4911 20.3009ZM35.7787 20.4155C35.4454 20.6533 33.2501 20.2436 33.2501 20.2436C33.2501 20.2436 35.6789 18.0844 37.9909 17.8084C38.6788 17.7256 40.0694 18.2649 40.0694 18.2649C40.0694 18.2649 36.9719 19.56 35.7787 20.4155ZM43.1457 18.267L40.0248 19.8763C40.0248 19.8763 39.2987 19.4368 40.1161 19.0674C40.3284 18.9719 40.8061 18.698 41.1946 18.4963C41.2427 18.4709 41.2825 18.4323 41.3093 18.385C41.3361 18.3378 41.3488 18.2838 41.3459 18.2295C41.343 18.1753 41.3246 18.1229 41.2929 18.0788C41.2612 18.0347 41.2175 18.0005 41.167 17.9804L38.8317 17.0484C39.0519 16.8734 39.3103 16.7528 39.5858 16.6964C39.8613 16.64 40.1463 16.6493 40.4176 16.7236C40.7552 16.8276 42.167 17.422 43.0948 17.8106C43.1579 17.8252 43.2127 17.8642 43.2473 17.9191C43.2819 17.9739 43.2934 18.0402 43.2795 18.1035C43.2716 18.1388 43.2558 18.1718 43.2334 18.2001C43.211 18.2284 43.1825 18.2513 43.15 18.267H43.1457ZM43.9312 25.8527C43.6255 26.3049 42.9122 27.1456 41.8634 26.9758C41.3517 26.8887 20.5288 22.6639 20.4778 22.6596C20.3314 22.6193 20.3505 22.3072 20.6158 22.339L43.7932 25.5342C43.8208 25.5398 43.847 25.5508 43.8702 25.5665C43.8935 25.5823 43.9134 25.6025 43.9288 25.626C43.9442 25.6495 43.9548 25.6758 43.96 25.7034C43.9651 25.731 43.9647 25.7594 43.9588 25.7869C43.9532 25.8101 43.9438 25.8323 43.9312 25.8527ZM58.9795 16.3563L58.9158 16.3711C58.8951 16.3793 58.8764 16.3916 58.8606 16.4072L59.0729 16.352L58.9795 16.3563Z" fill="url(#paint1_radial_12946_143963)"/>
<path d="M52.2194 16.6594C52.2194 16.6594 51.8415 18.2241 51.2449 20.0287L50.141 18.6339L49.2471 19.0415L50.8734 21.1009C50.366 22.4893 49.7546 23.8714 49.1028 24.6867L50.7333 23.9458C51.1048 23.6018 51.4042 22.9055 51.6377 22.069L52.5336 23.1984L53.4338 22.7887L51.9137 20.8779C52.2449 19.1392 52.3426 17.2539 52.2194 16.6594Z" fill="url(#paint2_radial_12946_143963)"/>
</g>
<g clip-path="url(#clip1_12946_143963)">
<path d="M67.7241 30.8092C67.5657 30.1357 66.3998 25.6649 65.7128 24.0214L62.554 18.1578C62.242 18.5767 61.8948 18.9682 61.5164 19.3283C61.4512 19.3824 61.3799 19.4286 61.304 19.4661C61.2066 19.504 61.1033 19.5241 60.9988 19.5255L62.6687 25.2669C62.9139 26.1897 63.5113 26.9803 64.0227 27.7826C64.2793 28.1778 66.0954 30.9716 66.793 32.0436C66.8475 32.1272 66.9329 32.1859 67.0304 32.2068C67.128 32.2277 67.2299 32.2092 67.3139 32.1552C67.3552 32.1282 67.3911 32.0937 67.4196 32.0533C67.6815 31.6951 67.791 31.2478 67.7241 30.8092ZM67.0793 31.5957L67.0404 31.6563L66.9969 31.5948C66.9787 31.5515 64.407 27.6635 63.4828 26.1571C63.2045 25.7045 63.5407 25.4816 63.5407 25.4816L63.5822 25.4642L63.5987 25.5038C63.7286 25.6708 66.7617 29.7397 67.1515 30.4844C67.236 30.662 67.273 30.8584 67.259 31.0545C67.2449 31.2506 67.1803 31.4397 67.0714 31.6034L67.0793 31.5957Z" fill="url(#paint3_radial_12946_143963)"/>
<path d="M59.4345 9.15423C59.0958 7.94502 58.5 7.15816 57.984 6.35556C57.7268 5.94286 55.835 3.04793 55.1754 2.02425C55.1528 1.98832 55.1233 1.9572 55.0887 1.93266C55.0541 1.90813 55.015 1.89067 54.9736 1.88128C54.9322 1.87188 54.8894 1.87074 54.8475 1.87792C54.8057 1.8851 54.7657 1.90046 54.7298 1.92312C54.6937 1.94726 54.6622 1.97773 54.6368 2.01306C54.4978 2.20694 54.3992 2.42681 54.3469 2.65957C54.2946 2.89234 54.2896 3.13325 54.3322 3.36798C54.4887 4.04223 55.6126 8.49742 56.2996 10.141L59.1792 15.3862C59.2546 15.3005 59.3475 15.2321 59.4517 15.1855C59.5216 15.1558 59.5962 15.1388 59.672 15.1352C60.0617 15.1136 60.6724 15.1278 61.2278 15.1474L59.4345 9.15423ZM58.4866 8.7321L58.4452 8.74948L58.4192 8.71387C58.2931 8.54523 55.2653 4.47857 54.8667 3.72866C54.7848 3.5506 54.7496 3.35459 54.7646 3.15916C54.7795 2.96373 54.8441 2.77535 54.9522 2.61183L54.9926 2.55501L55.0345 2.61274C55.0543 2.65984 57.6349 6.55293 58.5494 8.05233C58.8271 8.514 58.4877 8.72943 58.4829 8.73368L58.4866 8.7321Z" fill="url(#paint4_radial_12946_143963)"/>
<path d="M63.0049 15.6689C62.2028 15.4781 60.6805 15.4453 59.7684 15.4888C59.7352 15.4868 59.7019 15.4868 59.6686 15.4886L59.6028 15.5007C59.5806 15.5096 59.5606 15.5232 59.5443 15.5407C59.4908 15.5767 59.4498 15.6285 59.4271 15.6888C59.4044 15.7492 59.401 15.8151 59.4174 15.8774C59.8582 17.0394 60.2503 17.9427 60.7664 19.0044C60.8105 19.0673 60.8754 19.1126 60.9497 19.1321C61.024 19.1517 61.1029 19.1442 61.1722 19.1112C61.2026 19.0979 61.2312 19.0807 61.2571 19.0601C62.0959 18.2811 62.7788 17.3497 63.2695 16.3156C63.4243 15.9981 63.3397 15.7434 63.0049 15.6689ZM60.3377 17.195L59.8858 16.1174C59.8757 16.0969 59.8697 16.0746 59.8683 16.0518C59.8668 16.029 59.8699 16.0061 59.8773 15.9845C59.8847 15.9629 59.8963 15.9429 59.9114 15.9258C59.9265 15.9087 59.9449 15.8947 59.9654 15.8847L59.9955 15.872C60.0104 15.8635 60.0262 15.8569 60.0426 15.8523C60.0426 15.8523 61.9848 15.8087 62.5766 15.9416C62.8979 16.0106 62.9078 16.1239 62.9078 16.1239L60.3377 17.195Z" fill="url(#paint5_radial_12946_143963)"/>
</g>
<defs>
<radialGradient id="paint0_radial_12946_143963" cx="0" cy="0" r="1" gradientUnits="userSpaceOnUse" gradientTransform="translate(44.6745 22.1608) rotate(90) scale(2.56147 5.14204)">
<stop offset="0.114583" stop-color="#F10000"/>
<stop offset="1" stop-color="#F10000"/>
</radialGradient>
<radialGradient id="paint1_radial_12946_143963" cx="0" cy="0" r="1" gradientUnits="userSpaceOnUse" gradientTransform="translate(30.3005 28.633) rotate(90) scale(14.1394 29.9767)">
<stop offset="0.114583" stop-color="#F10000"/>
<stop offset="1" stop-color="#F10000"/>
</radialGradient>
<radialGradient id="paint2_radial_12946_143963" cx="0" cy="0" r="1" gradientUnits="userSpaceOnUse" gradientTransform="translate(51.2683 20.6731) rotate(90) scale(4.01364 2.16552)">
<stop offset="0.114583" stop-color="#F10000"/>
<stop offset="1" stop-color="#F10000"/>
</radialGradient>
<radialGradient id="paint3_radial_12946_143963" cx="0" cy="0" r="1" gradientUnits="userSpaceOnUse" gradientTransform="translate(64.4687 25.3547) rotate(67.2499) scale(7.37742 1.66298)">
<stop offset="0.114583" stop-color="#F10000"/>
<stop offset="1" stop-color="#F10000"/>
</radialGradient>
<radialGradient id="paint4_radial_12946_143963" cx="0" cy="0" r="1" gradientUnits="userSpaceOnUse" gradientTransform="translate(57.509 8.72983) rotate(67.2499) scale(7.35636 1.66102)">
<stop offset="0.114583" stop-color="#F10000"/>
<stop offset="1" stop-color="#F10000"/>
</radialGradient>
<radialGradient id="paint5_radial_12946_143963" cx="0" cy="0" r="1" gradientUnits="userSpaceOnUse" gradientTransform="translate(61.7161 16.749) rotate(67.2499) scale(1.96845 1.80789)">
<stop offset="0.114583" stop-color="#F10000"/>
<stop offset="1" stop-color="#F10000"/>
</radialGradient>
<clipPath id="clip0_12946_143963">
<rect width="59.9508" height="28.2791" fill="white" transform="translate(0.324585 14.4934)"/>
</clipPath>
<clipPath id="clip1_12946_143963">
<rect width="4.26131" height="32.7525" fill="white" transform="translate(53.1163 2.59741) rotate(-22.7501)"/>
</clipPath>
</defs>
</svg>
