<svg width="26" height="19" viewBox="0 0 26 19" fill="none" xmlns="http://www.w3.org/2000/svg">
<g clip-path="url(#clip0_21211_27257)">
<path d="M12.6669 13.7058C16.1104 13.7058 19.3156 11.7394 20.8804 8.68185V4.55212C20.8804 4.35525 20.9586 4.16648 21.0978 4.02735L24.2839 0.841187H1.0498L4.23597 4.02735C4.37515 4.16648 4.45333 4.35525 4.45333 4.55212V8.68185C6.01816 11.7394 9.22332 13.7058 12.6669 13.7058ZM12.6669 12.2214C12.257 12.2214 11.9247 11.8891 11.9247 11.4792C11.9247 11.0693 12.257 10.737 12.6669 10.737C13.0768 10.737 13.4091 11.0693 13.4091 11.4792C13.4091 11.8891 13.0768 12.2214 12.6669 12.2214ZM15.6356 11.4259C15.2257 11.4259 14.8934 11.0936 14.8934 10.6837C14.8934 10.2738 15.2257 9.94154 15.6356 9.94154C16.0455 9.94154 16.3778 10.2738 16.3778 10.6837C16.3778 11.0936 16.0455 11.4259 15.6356 11.4259ZM18.6044 4.79952C19.0143 4.79952 19.3466 5.13182 19.3466 5.54171C19.3466 5.95159 19.0143 6.28389 18.6044 6.28389C18.1945 6.28389 17.8622 5.95159 17.8622 5.54171C17.8622 5.13182 18.1945 4.79952 18.6044 4.79952ZM17.8089 7.76827C18.2188 7.76827 18.5511 8.10057 18.5511 8.51046C18.5511 8.92034 18.2188 9.25264 17.8089 9.25264C17.399 9.25264 17.0667 8.92034 17.0667 8.51046C17.0667 8.10057 17.399 7.76827 17.8089 7.76827ZM9.69812 3.80994H15.6356C16.0455 3.80994 16.3778 4.14224 16.3778 4.55212C16.3778 4.96201 16.0455 5.29431 15.6356 5.29431H9.69812C9.28823 5.29431 8.95593 4.96201 8.95593 4.55212C8.95593 4.14224 9.28823 3.80994 9.69812 3.80994ZM9.69812 9.94154C10.108 9.94154 10.4403 10.2738 10.4403 10.6837C10.4403 11.0936 10.108 11.4259 9.69812 11.4259C9.28823 11.4259 8.95593 11.0936 8.95593 10.6837C8.95593 10.2738 9.28823 9.94154 9.69812 9.94154ZM8.26703 8.51046C8.26703 8.92034 7.93473 9.25264 7.52485 9.25264C7.11496 9.25264 6.78266 8.92034 6.78266 8.51046C6.78266 8.10057 7.11496 7.76827 7.52485 7.76827C7.93473 7.76827 8.26703 8.10057 8.26703 8.51046ZM6.72937 4.79952C7.13926 4.79952 7.47156 5.13182 7.47156 5.54171C7.47156 5.95159 7.13926 6.28389 6.72937 6.28389C6.31948 6.28389 5.98718 5.95159 5.98718 5.54171C5.98718 5.13182 6.31948 4.79952 6.72937 4.79952Z" fill="white"/>
<path d="M22.3645 4.85955V8.85702C22.3645 8.96993 22.3388 9.08131 22.2892 9.18279C21.4097 10.9833 20.046 12.4971 18.3457 13.5606C16.6412 14.6266 14.6774 15.1902 12.6666 15.1902C10.6558 15.1902 8.69205 14.6266 6.98755 13.5605C5.28725 12.4971 3.92355 10.9832 3.04406 9.18274C2.99448 9.08126 2.96875 8.96988 2.96875 8.85697V4.8595L0 1.89075V9.50005C0 9.60242 0.0211771 9.70371 0.0622448 9.79757L0.134484 9.96268C2.31276 14.9417 7.23192 18.1589 12.6666 18.1589C18.1013 18.1589 23.0205 14.9417 25.1988 9.96268L25.271 9.79757C25.3121 9.70375 25.3333 9.60247 25.3333 9.50005V1.8908L22.3645 4.85955Z" fill="white"/>
</g>
<defs>
<clipPath id="clip0_21211_27257">
<rect width="25.3333" height="19" fill="white"/>
</clipPath>
</defs>
</svg>
