<svg width="15" height="13" viewBox="0 0 15 13" fill="none" xmlns="http://www.w3.org/2000/svg">
<path d="M9.91914 7.13827C9.91914 8.44892 8.83397 9.51513 7.5 9.51513C6.16603 9.51513 5.08127 8.44892 5.08127 7.13827C5.08127 5.82761 6.16603 4.76141 7.5 4.76141C8.83397 4.76141 9.91914 5.82802 9.91914 7.13827ZM15 3.76324V10.5141C15 11.4141 14.2573 12.1438 13.3414 12.1438H1.65865C0.74266 12.1438 0 11.4141 0 10.5141V3.76324C0 2.86326 0.74266 2.13358 1.65865 2.13358H3.69879V1.56972C3.69879 0.782188 4.34815 0.143768 5.15011 0.143768H9.84989C10.6518 0.143768 11.3012 0.782188 11.3012 1.56972V2.13318H13.3414C14.2573 2.13358 15 2.86326 15 3.76324ZM11.1631 7.13827C11.1631 5.15375 9.51982 3.53917 7.5 3.53917C5.48059 3.53917 3.83729 5.15375 3.83729 7.13827C3.83729 9.12279 5.48059 10.7374 7.5 10.7374C9.51982 10.7374 11.1631 9.12279 11.1631 7.13827Z" fill="#8A8A8A"/>
</svg>
