<svg width="16" height="17" viewBox="0 0 16 17" fill="none" xmlns="http://www.w3.org/2000/svg">
<path d="M15.4997 13.2669L10.4434 8.11615L15.4997 2.96544C16.1656 2.2871 16.1657 1.18725 15.4998 0.508821C14.8337 -0.169607 13.754 -0.16952 13.0882 0.508821L8.03185 5.65953L2.97549 0.508821C2.30967 -0.169607 1.22981 -0.169607 0.563903 0.508821C-0.102002 1.18725 -0.102002 2.2871 0.563989 2.96544L5.62026 8.11615L0.563989 13.2669C-0.102002 13.9453 -0.102087 15.0451 0.563903 15.7235C1.23006 16.402 2.30975 16.4017 2.97549 15.7235L8.03185 10.5728L13.0882 15.7235C13.7539 16.4018 14.8338 16.4019 15.4998 15.7235C16.1658 15.045 16.1657 13.9452 15.4997 13.2669Z" fill="#0A0A0B"/>
</svg>
