<svg width="12" height="13" viewBox="0 0 12 13" fill="none" xmlns="http://www.w3.org/2000/svg">
<path d="M7.77884 12.7184H2.94332C1.82651 12.7184 0.917969 11.8269 0.917969 10.7311V3.99934C0.917969 2.90354 1.82651 2.01209 2.94332 2.01209H7.77884C8.89566 2.01209 9.8042 2.90354 9.8042 3.99934V10.7311C9.8042 11.8269 8.89566 12.7184 7.77884 12.7184ZM2.94332 3.00571C2.38496 3.00571 1.93064 3.45149 1.93064 3.99934V10.7311C1.93064 11.279 2.38496 11.7248 2.94332 11.7248H7.77884C8.3372 11.7248 8.79152 11.279 8.79152 10.7311V3.99934C8.79152 3.45149 8.3372 3.00571 7.77884 3.00571H2.94332ZM11.8295 9.48911V1.98725C11.8295 0.891448 10.921 0 9.8042 0H4.18385C3.90417 0 3.67751 0.222401 3.67751 0.496812C3.67751 0.771223 3.90417 0.993624 4.18385 0.993624H9.8042C10.3626 0.993624 10.8169 1.4394 10.8169 1.98725V9.48911C10.8169 9.76352 11.0435 9.98592 11.3232 9.98592C11.6029 9.98592 11.8295 9.76352 11.8295 9.48911Z" fill="url(#paint0_linear_6282_110111)"/>
<defs>
<linearGradient id="paint0_linear_6282_110111" x1="0.917969" y1="6.35919" x2="11.8296" y2="6.35919" gradientUnits="userSpaceOnUse">
<stop stop-color="#F2D71A"/>
<stop offset="1" stop-color="#ECB024"/>
</linearGradient>
</defs>
</svg>
