<svg width="24" height="24" viewBox="0 0 24 24" fill="none" xmlns="http://www.w3.org/2000/svg">
<circle cx="12" cy="12" r="12" fill="#2F2F2F"/>
<path d="M15.7492 14.5385L13.2107 12L15.7492 9.46149C16.0835 9.12718 16.0836 8.58513 15.7493 8.25077C15.4149 7.91641 14.8728 7.91645 14.5385 8.25077L12 10.7893L9.46147 8.25077C9.1272 7.91641 8.58506 7.91641 8.25075 8.25077C7.91643 8.58513 7.91643 9.12718 8.25079 9.46149L10.7893 12L8.25079 14.5385C7.91643 14.8728 7.91639 15.4149 8.25075 15.7492C8.58519 16.0836 9.12724 16.0835 9.46147 15.7492L12 13.2107L14.5385 15.7492C14.8728 16.0835 15.4149 16.0835 15.7493 15.7492C16.0836 15.4148 16.0836 14.8728 15.7492 14.5385Z" fill="white" fill-opacity="0.866667"/>
</svg>
