<svg width="117" height="77" viewBox="0 0 117 77" fill="none" xmlns="http://www.w3.org/2000/svg">
<path d="M28.3227 39.5261L27.7605 40.1523L27.1628 39.6186C26.7358 39.9246 26.2235 40.0883 25.647 40.0883C24.1171 40.0883 23.0497 38.9283 23.0497 37.5265V37.5122C23.0497 36.1175 24.1313 34.9362 25.6613 34.9362C27.1912 34.9362 28.2587 36.0961 28.2587 37.498V37.5122C28.2587 38.0815 28.0736 38.6081 27.7534 39.0422L28.3227 39.5261ZM25.6613 39.277C25.9815 39.277 26.2662 39.2059 26.5152 39.0564L25.6613 38.3163L26.2235 37.6759L27.0987 38.4729C27.2624 38.1954 27.3407 37.8751 27.3407 37.5265V37.5122C27.3407 36.5444 26.6433 35.7474 25.647 35.7474C24.6579 35.7474 23.9676 36.5302 23.9676 37.498V37.5122C23.9676 38.48 24.665 39.277 25.6613 39.277ZM30.5117 40.0811C29.6578 40.0811 29.1739 39.519 29.1739 38.6366V36.2456H30.0349V38.3804C30.0349 38.971 30.3267 39.2913 30.839 39.2913C31.3443 39.2913 31.6859 38.9568 31.6859 38.3662V36.2456H32.554V40.0029H31.6859V39.4193C31.4368 39.7823 31.0881 40.0811 30.5117 40.0811ZM33.6436 35.6692V34.8508H34.5687V35.6692H33.6436ZM33.6721 40.0029V36.2456H34.5403V40.0029H33.6721ZM37.4019 40.0883C36.2846 40.0883 35.4592 39.213 35.4592 38.1456V38.1313C35.4592 37.0639 36.2846 36.1673 37.4161 36.1673C38.1206 36.1673 38.5547 36.4306 38.9176 36.8148L38.3768 37.3913C38.1135 37.1137 37.836 36.9216 37.409 36.9216C36.7828 36.9216 36.3202 37.4624 36.3202 38.1171V38.1313C36.3202 38.8002 36.7828 39.334 37.4446 39.334C37.8502 39.334 38.142 39.1489 38.4195 38.8714L38.939 39.3838C38.5689 39.8036 38.1348 40.0883 37.4019 40.0883ZM39.7238 40.0029V34.8081H40.592V37.9107L42.1504 36.2456H43.1965L41.7021 37.7755L43.2463 40.0029H42.2358L41.1257 38.3733L40.592 38.9283V40.0029H39.7238ZM46.1058 40.0029V35.0216H47.9631C49.5286 35.0216 50.6103 36.0961 50.6103 37.498V37.5122C50.6103 38.9141 49.5286 40.0029 47.9631 40.0029H46.1058ZM47.9631 35.8186H46.9811V39.2059H47.9631C49.0092 39.2059 49.6923 38.5014 49.6923 37.5265V37.5122C49.6923 36.5373 49.0092 35.8186 47.9631 35.8186ZM53.2947 40.0883C52.213 40.0883 51.3662 39.2984 51.3662 38.1384V38.1242C51.3662 37.0426 52.1276 36.1673 53.2022 36.1673C54.3977 36.1673 55.0025 37.1066 55.0025 38.1883C55.0025 38.2665 54.9954 38.3448 54.9883 38.4302H52.2273C52.3198 39.0493 52.7467 39.3838 53.3089 39.3838C53.7359 39.3838 54.0205 39.2272 54.3265 38.9355L54.8318 39.3838C54.4688 39.8107 53.9849 40.0883 53.2947 40.0883ZM52.2201 37.8609H54.1486C54.0917 37.313 53.7643 36.8718 53.195 36.8718C52.6613 36.8718 52.2984 37.2703 52.2201 37.8609ZM55.8601 41.1414V36.2456H56.7283V36.8718C57.0058 36.4804 57.3901 36.1673 58.0092 36.1673C58.8916 36.1673 59.7527 36.8647 59.7527 38.1171V38.1313C59.7527 39.3838 58.8987 40.0811 58.0092 40.0811C57.383 40.0811 56.9916 39.768 56.7283 39.4193V41.1414H55.8601ZM57.8028 39.334C58.3935 39.334 58.8774 38.8714 58.8774 38.1313V38.1171C58.8774 37.3913 58.3793 36.9145 57.8028 36.9145C57.2122 36.9145 56.707 37.3984 56.707 38.1171V38.1313C56.707 38.8501 57.2122 39.334 57.8028 39.334ZM62.4276 40.0883C61.2819 40.0883 60.4351 39.213 60.4351 38.1456V38.1313C60.4351 37.0568 61.289 36.1673 62.4418 36.1673C63.6018 36.1673 64.4415 37.0426 64.4415 38.1171V38.1313C64.4415 39.1916 63.5875 40.0883 62.4276 40.0883ZM62.4418 39.334C63.1463 39.334 63.5804 38.7931 63.5804 38.1456V38.1313C63.5804 37.4695 63.1036 36.9216 62.4276 36.9216C61.7373 36.9216 61.2961 37.4624 61.2961 38.1171V38.1313C61.2961 38.786 61.78 39.334 62.4418 39.334ZM66.6064 40.074C66.0656 40.074 65.4891 39.889 65.0124 39.5119L65.3966 38.9283C65.8165 39.2343 66.2363 39.3909 66.6277 39.3909C66.9978 39.3909 67.2112 39.2343 67.2112 38.9853V38.971C67.2112 38.6864 66.8127 38.5796 66.3715 38.4444C65.8236 38.295 65.1974 38.0602 65.1974 37.3486V37.3343C65.1974 36.6156 65.788 36.1815 66.5352 36.1815C67.012 36.1815 67.5172 36.3452 67.9157 36.6085L67.5742 37.2205C67.2112 36.9999 66.827 36.8647 66.5139 36.8647C66.1794 36.8647 65.9873 37.0283 65.9873 37.2347V37.2489C65.9873 37.5193 66.3929 37.6474 66.8341 37.7826C67.3749 37.9534 68.0011 38.2025 68.0011 38.8785V38.8928C68.0011 39.6826 67.3892 40.074 66.6064 40.074ZM68.8976 35.6692V34.8508H69.8227V35.6692H68.8976ZM68.9261 40.0029V36.2456H69.7942V40.0029H68.9261ZM72.1791 40.0669C71.5457 40.0669 71.0974 39.7894 71.0974 38.9639V36.9856H70.6206V36.2456H71.0974V35.2137H71.9585V36.2456H72.969V36.9856H71.9585V38.8287C71.9585 39.1632 72.1293 39.2984 72.421 39.2984C72.606 39.2984 72.7839 39.2557 72.9547 39.1703V39.8748C72.7341 39.9958 72.5135 40.0669 72.1791 40.0669ZM76.1708 40.0029V36.9856H75.694V36.2669H76.1708V35.9894C76.1708 35.5766 76.2704 35.2706 76.4768 35.0643C76.676 34.865 76.9535 34.7654 77.3165 34.7654C77.6225 34.7654 77.8288 34.8081 78.021 34.865V35.5909C77.8502 35.5339 77.7079 35.4984 77.5157 35.4984C77.1813 35.4984 77.0176 35.6905 77.0176 36.0677V36.274H78.0138V36.9856H77.0318V40.0029H76.1708ZM78.647 40.0029V36.2456H79.5152V37.0924C79.75 36.5231 80.1841 36.1459 80.8459 36.1744V37.0853H80.7961C80.0347 37.0853 79.5152 37.5763 79.5152 38.5725V40.0029H78.647ZM83.2548 40.0883C82.1091 40.0883 81.2622 39.213 81.2622 38.1456V38.1313C81.2622 37.0568 82.1162 36.1673 83.269 36.1673C84.4289 36.1673 85.2686 37.0426 85.2686 38.1171V38.1313C85.2686 39.1916 84.4147 40.0883 83.2548 40.0883ZM83.269 39.334C83.9735 39.334 84.4076 38.7931 84.4076 38.1456V38.1313C84.4076 37.4695 83.9308 36.9216 83.2548 36.9216C82.5645 36.9216 82.1233 37.4624 82.1233 38.1171V38.1313C82.1233 38.786 82.6072 39.334 83.269 39.334ZM86.1384 40.0029V36.2456H87.0066V36.8148C87.2485 36.4804 87.5759 36.1673 88.1523 36.1673C88.6931 36.1673 89.0774 36.4306 89.2766 36.8291C89.5826 36.4306 89.974 36.1673 90.5433 36.1673C91.3687 36.1673 91.8598 36.6868 91.8598 37.6047V40.0029H90.9987V37.868C90.9987 37.2703 90.7212 36.9501 90.2373 36.9501C89.7605 36.9501 89.4332 37.2774 89.4332 37.8823V40.0029H88.5721V37.8609C88.5721 37.2703 88.2946 36.9501 87.8107 36.9501C87.3268 36.9501 87.0066 37.3059 87.0066 37.8823V40.0029H86.1384ZM16.15 53.0589L13.4264 45.1571H14.9171L16.7889 50.9742L18.7167 45.1347H19.8824L21.8102 50.9742L23.6819 45.1571H25.1278L22.4042 53.0589H21.2049L19.2771 47.4212L17.3493 53.0589H16.15ZM26.2648 53.0029V44.8209H27.6322V47.9928C28.0245 47.4436 28.5513 46.9616 29.4816 46.9616C30.8266 46.9616 31.5887 47.8471 31.5887 49.2257V53.0029H30.2325V49.6404C30.2325 48.7101 29.773 48.1945 28.966 48.1945C28.1702 48.1945 27.6322 48.7325 27.6322 49.6628V53.0029H26.2648ZM34.9301 53.1262C33.8205 53.1262 32.823 52.4985 32.823 51.2992V51.2768C32.823 49.9879 33.8317 49.3714 35.2776 49.3714C35.9501 49.3714 36.4096 49.4723 36.8691 49.618V49.4723C36.8691 48.6205 36.3536 48.1833 35.4009 48.1833C34.7284 48.1833 34.2464 48.329 33.7084 48.5532L33.3385 47.4884C33.9998 47.2082 34.6387 47.0065 35.5802 47.0065C36.4656 47.0065 37.1157 47.2306 37.5416 47.6678C37.9787 48.1049 38.1805 48.7213 38.1805 49.4947V53.0029H36.8579V52.2631C36.4544 52.7451 35.838 53.1262 34.9301 53.1262ZM35.3112 52.1398C36.2078 52.1398 36.8915 51.6355 36.8915 50.8733V50.4698C36.5441 50.3353 36.0846 50.2344 35.5466 50.2344C34.6611 50.2344 34.1567 50.5931 34.1567 51.2208V51.2432C34.1567 51.8148 34.6499 52.1398 35.3112 52.1398ZM41.7338 53.1037C40.7363 53.1037 40.0302 52.6666 40.0302 51.3665V48.2506H39.2792V47.0849H40.0302V45.4597H41.3864V47.0849H42.978V48.2506H41.3864V51.1535C41.3864 51.6803 41.6554 51.8933 42.1149 51.8933C42.4063 51.8933 42.6865 51.826 42.9555 51.6915V52.8011C42.6081 52.9917 42.2606 53.1037 41.7338 53.1037ZM46.3868 53.115C45.5349 53.115 44.6271 52.8235 43.8761 52.2295L44.4814 51.3104C45.1426 51.7924 45.8039 52.039 46.4204 52.039C47.0032 52.039 47.3395 51.7924 47.3395 51.4001V51.3777C47.3395 50.9293 46.7118 50.7612 46.0169 50.5483C45.1538 50.3129 44.1675 49.943 44.1675 48.8222V48.7998C44.1675 47.6678 45.0978 46.9841 46.2747 46.9841C47.0256 46.9841 47.8214 47.2418 48.4491 47.6565L47.9111 48.6205C47.3395 48.273 46.7342 48.06 46.241 48.06C45.7143 48.06 45.4116 48.3178 45.4116 48.6429V48.6653C45.4116 49.0912 46.0505 49.2929 46.7454 49.5059C47.5972 49.7749 48.5836 50.1672 48.5836 51.232V51.2544C48.5836 52.4985 47.6197 53.115 46.3868 53.115ZM49.4575 53.0029L52.9097 45.1011H54.1874L57.6395 53.0029H56.1825L55.3867 51.1087H51.6768L50.8698 53.0029H49.4575ZM52.1811 49.887H54.8823L53.5261 46.7487L52.1811 49.887ZM58.8168 54.7962V47.0849H60.1843V48.0712C60.6214 47.4548 61.2266 46.9616 62.2017 46.9616C63.5916 46.9616 64.9477 48.06 64.9477 50.0327V50.0551C64.9477 52.0278 63.6028 53.1262 62.2017 53.1262C61.2154 53.1262 60.599 52.633 60.1843 52.0838V54.7962H58.8168ZM61.8767 51.9493C62.807 51.9493 63.5691 51.2208 63.5691 50.0551V50.0327C63.5691 48.8894 62.7846 48.1385 61.8767 48.1385C60.9464 48.1385 60.1506 48.9007 60.1506 50.0327V50.0551C60.1506 51.1871 60.9464 51.9493 61.8767 51.9493ZM66.3364 54.7962V47.0849H67.7038V48.0712C68.141 47.4548 68.7462 46.9616 69.7213 46.9616C71.1111 46.9616 72.4673 48.06 72.4673 50.0327V50.0551C72.4673 52.0278 71.1223 53.1262 69.7213 53.1262C68.735 53.1262 68.1185 52.633 67.7038 52.0838V54.7962H66.3364ZM69.3963 51.9493C70.3266 51.9493 71.0887 51.2208 71.0887 50.0551V50.0327C71.0887 48.8894 70.3041 48.1385 69.3963 48.1385C68.466 48.1385 67.6702 48.9007 67.6702 50.0327V50.0551C67.6702 51.1871 68.466 51.9493 69.3963 51.9493ZM77.3844 53.0029V45.1571H78.6621L82.8652 50.5819V45.1571H84.2214V53.0029H83.067L78.7406 47.4212V53.0029H77.3844ZM88.8957 53.1374C87.0912 53.1374 85.7574 51.7588 85.7574 50.0775V50.0551C85.7574 48.3627 87.1024 46.9616 88.9181 46.9616C90.7451 46.9616 92.0676 48.3402 92.0676 50.0327V50.0551C92.0676 51.7251 90.7226 53.1374 88.8957 53.1374ZM88.9181 51.9493C90.0277 51.9493 90.7114 51.0975 90.7114 50.0775V50.0551C90.7114 49.0127 89.9605 48.1497 88.8957 48.1497C87.8085 48.1497 87.1136 49.0015 87.1136 50.0327V50.0551C87.1136 51.0863 87.8757 51.9493 88.9181 51.9493ZM94.5876 53.0477L92.6598 47.0849H94.0609L95.2489 51.1423L96.5603 47.0625H97.7259L99.0373 51.1423L100.248 47.0849H101.615L99.6762 53.0477H98.4545L97.1319 49.0015L95.7981 53.0477H94.5876Z" fill="white"/>
<path d="M67.5724 22.879C67.5724 22.9786 67.5693 23.1936 67.5631 23.3618C67.5475 23.7699 67.5163 24.2963 67.4665 24.5362C67.3917 24.8976 67.2827 25.2371 67.1363 25.5206C66.9649 25.857 66.7469 26.1561 66.4852 26.4147C66.2266 26.6732 65.9276 26.8913 65.5912 27.0626C65.3077 27.209 64.965 27.3181 64.6005 27.3928C64.3638 27.4395 63.8404 27.4738 63.4355 27.4863C63.2673 27.4925 63.0523 27.4956 62.9526 27.4956H53.9934C53.8937 27.4956 53.6788 27.4925 53.5106 27.4863C53.1025 27.4707 52.576 27.4395 52.3362 27.3897C51.9748 27.3149 51.6353 27.2059 51.3518 27.0595C51.0153 26.8882 50.7163 26.6701 50.4577 26.4084C50.1992 26.1499 49.9811 25.8508 49.8098 25.5144C49.6634 25.2309 49.5543 24.8882 49.4796 24.5238C49.4328 24.287 49.3986 23.7637 49.3861 23.3587C49.383 23.1936 49.3799 22.9786 49.3799 22.879V13.9198C49.3799 13.8201 49.383 13.6051 49.3892 13.4369C49.4048 13.0288 49.436 12.5024 49.4858 12.2625C49.5606 11.9011 49.6696 11.5616 49.816 11.2781C49.9873 10.9417 50.2054 10.6426 50.464 10.3841C50.7225 10.1255 51.0216 9.90744 51.358 9.73611C51.6415 9.58969 51.9842 9.48066 52.3486 9.4059C52.5854 9.35917 53.1087 9.32491 53.5137 9.31245C53.6819 9.30622 53.8969 9.3031 53.9965 9.3031H62.9557C63.0554 9.3031 63.2704 9.30622 63.4386 9.31245C63.8467 9.32802 64.3731 9.35917 64.613 9.40902C64.9744 9.48378 65.3139 9.59281 65.5974 9.73922C65.9338 9.91056 66.2329 10.1286 66.4914 10.3903C66.75 10.6488 66.9681 10.9479 67.1394 11.2843C67.2858 11.5678 67.3948 11.9105 67.4696 12.275C67.5163 12.5117 67.5506 13.0351 67.5631 13.44C67.5693 13.6082 67.5724 13.8232 67.5724 13.9229V22.879Z" fill="url(#paint0_linear_9968_28191)"/>
<path fill-rule="evenodd" clip-rule="evenodd" d="M63.2606 13.6589C62.0364 12.4346 60.4072 11.7586 58.672 11.7586C55.0958 11.7586 52.1894 14.6682 52.1863 18.2412C52.1863 19.3845 52.4853 20.4997 53.0523 21.481L52.1333 24.8423L55.5724 23.942C56.5194 24.4591 57.5848 24.7301 58.672 24.7301H58.6751C62.2482 24.7301 65.1578 21.8206 65.1609 18.2475C65.1609 16.5123 64.4849 14.8831 63.2606 13.6589ZM58.6751 23.6336C57.7063 23.6336 56.7562 23.3719 55.9307 22.8828L55.7344 22.7676L53.694 23.3034L54.2391 21.3159L54.1114 21.1134C53.5725 20.2568 53.2859 19.263 53.2859 18.2444C53.2859 15.2725 55.7064 12.8551 58.6782 12.8551C60.1174 12.8551 61.4725 13.4159 62.4881 14.4345C63.5067 15.4532 64.0675 16.8083 64.0644 18.2475C64.0612 21.2162 61.6439 23.6336 58.6751 23.6336ZM61.6314 19.5995C61.4694 19.5185 60.6719 19.126 60.5255 19.073C60.376 19.02 60.2701 18.992 60.1611 19.154C60.052 19.316 59.7436 19.6804 59.6471 19.7895C59.5536 19.8985 59.457 19.911 59.295 19.83C59.1331 19.749 58.6097 19.5776 57.9929 19.0263C57.5101 18.5964 57.1861 18.0668 57.0926 17.9048C56.9992 17.7428 57.0833 17.6556 57.1643 17.5746C57.2359 17.503 57.3263 17.3846 57.4073 17.2911C57.4883 17.1977 57.5163 17.1291 57.5692 17.0201C57.6222 16.9111 57.5973 16.8176 57.5568 16.7366C57.5163 16.6556 57.1923 15.8582 57.0584 15.5342C56.9275 15.2195 56.7936 15.26 56.6939 15.2569C56.6004 15.2507 56.4914 15.2507 56.3824 15.2507C56.2733 15.2507 56.0989 15.2912 55.9494 15.4532C55.7998 15.6152 55.3824 16.0077 55.3824 16.8052C55.3824 17.6026 55.9618 18.3721 56.0428 18.4811C56.1238 18.5901 57.1861 20.2256 58.8122 20.9265C59.1985 21.0947 59.5006 21.1944 59.7374 21.2692C60.1268 21.3938 60.4788 21.3751 60.7592 21.3346C61.0707 21.2879 61.7186 20.9421 61.8526 20.5652C61.9865 20.1882 61.9865 19.8611 61.946 19.7957C61.8993 19.7209 61.7934 19.6804 61.6314 19.5995Z" fill="white"/>
<defs>
<linearGradient id="paint0_linear_9968_28191" x1="58.4768" y1="27.497" x2="58.4768" y2="9.3031" gradientUnits="userSpaceOnUse">
<stop stop-color="#25CF43"/>
<stop offset="1" stop-color="#61FD7D"/>
</linearGradient>
</defs>
</svg>
