<svg width="19" height="13" viewBox="0 0 19 13" fill="none" xmlns="http://www.w3.org/2000/svg">
<g clip-path="url(#clip0_10799_5833)">
<path d="M17.138 0.268066H2.19501C1.31819 0.268066 0.601562 0.965684 0.601562 1.8261V11.1743C0.601562 12.035 1.31865 12.7323 2.19501 12.7323H17.138C18.0148 12.7323 18.7314 12.0347 18.7314 11.1743V1.8261C18.7314 0.965477 18.0144 0.268066 17.138 0.268066ZM16.8933 1.30675C16.3781 1.81215 10.3267 7.74835 10.0781 7.99224C9.87044 8.19589 9.46263 8.19603 9.25488 7.99224L2.43969 1.30675H16.8933ZM1.66386 10.9834V2.01704L6.23403 6.5002L1.66386 10.9834ZM2.43969 11.6936L6.98397 7.23587L8.50252 8.72552C9.12482 9.33596 10.2084 9.33571 10.8305 8.72552L12.349 7.2359L16.8933 11.6936H2.43969ZM17.6691 10.9834L13.0989 6.5002L17.6691 2.01704V10.9834Z" fill="url(#paint0_linear_10799_5833)"/>
</g>
<defs>
<linearGradient id="paint0_linear_10799_5833" x1="0.601562" y1="6.5002" x2="18.7314" y2="6.5002" gradientUnits="userSpaceOnUse">
<stop stop-color="#F2D71A"/>
<stop offset="1" stop-color="#ECB024"/>
</linearGradient>
<clipPath id="clip0_10799_5833">
<rect width="18.1298" height="12.4643" fill="white" transform="translate(0.597656 0.268066)"/>
</clipPath>
</defs>
</svg>
