<svg width="38" height="28" viewBox="0 0 38 28" fill="none" xmlns="http://www.w3.org/2000/svg">
<path d="M37.3731 19.7343C37.4105 24.121 35.6952 26.469 32.4708 27.2142C31.0273 27.547 29.8088 27.0455 28.6793 26.2394C27.2545 25.2271 26.1344 23.8867 24.9534 22.6166C24.8362 22.4948 24.7284 22.3682 24.6206 22.237C23.4255 20.7654 21.9961 19.9218 19.9855 20.1795C18.8232 20.3295 17.6234 20.2358 16.4471 20.1936C15.6503 20.1655 14.9989 20.4139 14.3943 20.9107C13.1805 21.9136 12.2197 23.1649 11.1324 24.2897C10.5934 24.8475 10.0451 25.3864 9.44518 25.8692C7.03154 27.8094 4.8335 27.8188 2.43861 25.8551C1.00449 24.6787 0.203065 23.1931 0.231185 21.2715C0.301485 16.3646 0.882632 11.5139 1.83871 6.71473C2.95414 1.14696 9.02807 -1.30885 13.157 0.739225C14.6568 1.48441 16.2549 1.76561 17.9281 1.67656C18.5045 1.64375 19.0857 1.64375 19.6621 1.67656C21.3821 1.77029 23.0131 1.4516 24.5691 0.701731C27.7748 -0.849557 31.8053 0.429904 33.8909 2.91853C34.8516 4.06676 35.5218 5.36497 35.8124 6.84127C36.6982 11.3405 37.2371 15.8772 37.3684 19.7343H37.3731ZM10.6122 15.3991C11.4933 15.3991 11.9807 14.8508 12.0088 13.8291C12.0463 12.5918 12.6759 11.9576 13.8975 11.9263C14.9286 11.9029 15.4769 11.4248 15.4816 10.5531C15.4863 9.64859 14.9098 9.12368 13.8788 9.10025C12.6727 9.07213 12.0494 8.44099 12.0088 7.20683C11.9807 6.25075 11.4839 5.66492 10.6731 5.63211C9.86229 5.5993 9.23897 6.22732 9.18273 7.16934C9.15461 7.60051 9.15461 8.03637 9.17335 8.47223C9.1921 8.94559 8.97651 9.11899 8.52191 9.10025C8.06261 9.0815 7.60332 9.07681 7.14871 9.10962C6.32854 9.16586 5.69584 9.81731 5.7099 10.5531C5.72396 11.3405 6.3098 11.8888 7.18152 11.9263C7.58926 11.9404 8.00169 11.9497 8.40943 11.931C8.94839 11.9076 9.22022 12.0997 9.17804 12.6855C9.14523 13.1167 9.14992 13.5573 9.18741 13.9884C9.25771 14.8789 9.80605 15.4085 10.6122 15.4038V15.3991ZM31.8193 7.71299C31.8287 6.5507 30.9289 5.62274 29.7947 5.63211C28.684 5.64148 27.8122 6.52726 27.7935 7.66144C27.7794 8.82842 28.6652 9.73295 29.8135 9.73295C30.9336 9.73295 31.8053 8.85185 31.8193 7.71299ZM26.2235 15.4038C27.3904 15.4038 28.3137 14.5087 28.3043 13.3792C28.295 12.2731 27.3998 11.3967 26.2656 11.3827C25.0987 11.3686 24.1988 12.2544 24.2035 13.4073C24.2082 14.5274 25.094 15.4038 26.2188 15.4038H26.2235Z" fill="white"/>
</svg>
