<svg width="26" height="26" viewBox="0 0 26 26" fill="none" xmlns="http://www.w3.org/2000/svg">
<path d="M3.56357 13.0964C3.25845 13.3616 3.04522 13.557 2.82332 13.7398C2.18708 14.2632 1.5127 14.1503 0.867801 13.4154C0.306111 12.7774 0.27664 12.0622 0.853932 11.4995C2.25469 10.1355 3.67799 8.7949 5.09608 7.44889C7.2891 5.36804 9.48559 3.29258 11.6803 1.21352C12.0167 0.894495 12.353 0.591598 12.8505 0.570091C13.3203 0.550376 13.6896 0.745735 14.0328 1.0558C16.5518 3.33738 19.0742 5.61359 21.5931 7.89158C22.6645 8.85942 23.7307 9.83622 24.8072 10.7987C25.2615 11.2055 25.5475 11.6948 25.3204 12.2988C25.0586 12.9888 24.5819 13.5122 23.852 13.7129C23.5122 13.8061 23.2938 13.5158 23.0268 13.3742C22.8881 13.5588 22.9488 13.7488 22.9488 13.9208C22.9453 17.233 22.9471 20.5433 22.9453 23.8555C22.9453 25.0725 22.505 25.5295 21.3435 25.5313C19.9687 25.5313 18.594 25.5349 17.2175 25.5313C16.3698 25.5277 15.978 25.1531 15.8843 24.2856C15.8011 23.5185 15.8479 22.7479 15.8427 21.979C15.8341 20.3068 15.8289 18.6346 15.8479 16.9624C15.8531 16.5232 15.7058 16.3816 15.2845 16.387C13.8456 16.4085 12.405 16.4103 10.9661 16.387C10.5275 16.3799 10.42 16.5394 10.4235 16.9677C10.4408 19.2923 10.4321 21.6169 10.4304 23.9415C10.4304 25.0707 9.98833 25.5313 8.91003 25.5331C7.59942 25.5349 6.28881 25.5367 4.97819 25.5331C4.05418 25.5295 3.57224 25.0348 3.5705 24.0777C3.56703 20.633 3.56877 17.1864 3.56877 13.7416C3.56877 13.5642 3.56877 13.3867 3.56877 13.0946L3.56357 13.0964Z" fill="url(#paint0_linear_4871_104863)"/>
<defs>
<linearGradient id="paint0_linear_4871_104863" x1="0.433594" y1="13.0519" x2="25.4001" y2="13.0519" gradientUnits="userSpaceOnUse">
<stop stop-color="#F2D71A"/>
<stop offset="1" stop-color="#ECB024"/>
</linearGradient>
</defs>
</svg>
