<svg width="10" height="10" viewBox="0 0 10 10" fill="none" xmlns="http://www.w3.org/2000/svg">
<g clip-path="url(#clip0_94_1831)">
<path d="M5 0C2.25371 0 0 2.25371 0 5C0 7.74629 2.25371 10 5 10C7.74629 10 10 7.74629 10 5C10 2.25371 7.74629 0 5 0Z" fill="#6A6A8D"/>
<path d="M5 7.92969C5.32301 7.92969 5.58594 7.66676 5.58594 7.34375V4.41406C5.58594 4.09105 5.32301 3.82813 5 3.82813C4.67699 3.82813 4.41406 4.09105 4.41406 4.41406V7.34375C4.41406 7.66676 4.67699 7.92969 5 7.92969Z" fill="#1E1E1E"/>
<path d="M4.41406 2.65625C4.41406 2.97926 4.67699 3.24219 5 3.24219C5.32301 3.24219 5.58594 2.97926 5.58594 2.65625C5.58594 2.33324 5.32301 2.07031 5 2.07031C4.67699 2.07031 4.41406 2.33324 4.41406 2.65625Z" fill="#1E1E1E"/>
</g>
<defs>
<clipPath id="clip0_94_1831">
<rect width="10" height="10" fill="white"/>
</clipPath>
</defs>
</svg>
