<svg width="21" height="33" viewBox="0 0 21 33" fill="none" xmlns="http://www.w3.org/2000/svg">
<path d="M20.8516 23.0538C20.8445 22.9681 20.7966 22.8445 20.7629 22.7918C20.6801 22.6718 20.5624 22.5748 20.4205 22.5381C20.0834 22.4482 19.7433 22.6694 19.4866 22.8841C19.4358 22.7617 19.3855 22.6375 19.3518 22.5056L19.1028 21.9763C19.0087 21.748 18.8242 21.6102 18.7751 21.3363C18.2724 20.5971 18.0359 19.5922 17.2771 19.1067C17.1221 18.9145 16.9601 18.7282 16.7649 18.5762C16.5597 18.2261 16.1516 18.0954 16.0309 17.6873C16.0031 17.5956 16.0309 17.4702 15.9842 17.3762C15.9535 17.3141 15.8683 17.2934 15.7802 17.2189C15.7116 17.1615 15.6512 17.0746 15.5957 17.0326C15.4809 16.9498 15.3437 16.8829 15.2331 16.8061C14.0095 18.1439 12.6338 19.2315 11.2079 20.0376C11.2375 20.0778 11.2653 20.1151 11.2901 20.1505C11.4214 20.3457 11.5994 20.5143 11.6278 20.7591C11.6402 20.8662 11.6923 20.9614 11.7059 21.0655C11.7147 21.1512 11.7496 21.2198 11.7845 21.2961C11.8242 21.389 11.8147 21.486 11.8224 21.5836C11.8283 21.664 11.865 21.7308 11.8833 21.8071C11.8916 21.8426 11.8732 21.8799 11.8833 21.9142C11.8898 21.9372 11.9176 21.9449 11.9265 21.9662C11.9501 22.0218 11.9383 22.1099 11.9537 22.1708C11.9762 22.2808 12.0122 22.3932 12.004 22.5085C11.988 22.7451 12.0394 22.9906 12.0578 23.2253C12.0897 23.5802 12.1004 23.9356 12.0897 24.2917C12.082 24.4756 12.0702 24.659 12.0519 24.8405C12.0424 24.934 12.0306 25.0262 12.0193 25.1185C12.011 25.1759 12.014 25.3497 11.9767 25.3911C11.7798 25.6076 11.7082 25.895 11.5243 26.1079C11.3871 26.267 11.1783 26.393 11.0098 26.5284C10.9098 26.6112 10.8093 26.6946 10.7076 26.7768C10.6301 26.8407 10.5289 26.8922 10.4728 26.9779C10.4314 27.0406 10.4065 27.1187 10.3734 27.1885C10.2965 27.3529 10.2102 27.5143 10.1274 27.6776C10.0688 27.7905 10.028 27.9106 9.97242 28.0241C9.92097 28.1247 9.85354 28.2075 9.79204 28.2992C9.71752 28.4092 9.69623 28.5405 9.59746 28.6386C9.52471 28.712 9.44842 28.8001 9.40111 28.8657C9.25621 29.052 9.19293 29.1248 9.06045 29.3199C8.92915 29.5169 8.80909 29.7493 8.65473 29.9131C8.5193 30.058 8.32709 30.1745 8.17272 30.3023C8.0089 30.4354 7.8575 30.527 7.69131 30.698C7.58663 30.9085 7.61028 31.1551 7.56356 31.3799C7.54345 31.4733 7.48608 31.5437 7.48608 31.6442C7.48608 31.756 7.54109 31.8808 7.56356 32.0014C7.60792 32.2274 7.55351 32.5456 7.74394 32.7123C7.9675 32.9069 8.33359 33.0039 8.61511 33.0039C9.08588 32.9595 9.43955 32.9252 9.91978 32.8904C10.0434 32.8342 10.0138 32.5887 10.0091 32.5485C10.0038 32.4752 9.96296 32.4332 10.012 32.3604C10.646 31.5798 11.1606 30.6826 11.9454 30.0539C12.0542 30.21 12.1897 30.3526 12.3192 30.5205C12.4351 30.6678 12.5492 30.8937 12.6941 30.9883C12.8633 31.1019 13.049 31.193 13.2856 31.2066C13.5458 31.0682 13.4192 29.9788 13.6765 29.5541C13.8663 29.5169 14.0101 29.4294 14.1916 29.3832C15.3532 28.2146 16.6561 27.0235 17.9016 25.8897C18.082 25.7259 18.2683 25.5177 18.4481 25.4071C18.7775 25.2037 19.1714 25.1339 19.5079 24.9547C20.0567 24.3094 20.9522 23.2774 20.8516 23.0538ZM9.60396 32.458C9.48805 32.5799 9.29524 32.5745 8.85227 32.555C8.41048 32.5343 8.43946 32.5189 8.18692 32.4095C7.97519 32.3196 7.90599 32.3522 7.9539 31.7956C8.00535 31.2072 8.46548 31.316 8.96405 31.4739C9.47089 31.6318 9.47444 31.6844 9.49751 31.7903C9.52294 31.8979 9.62348 32.2126 9.62348 32.2126C9.62348 32.2126 9.67967 32.3776 9.60396 32.458ZM13.2495 30.488C13.2341 30.6353 13.2649 30.7305 13.0963 30.7051C12.8296 30.6625 12.8225 30.4543 12.7137 30.2934C12.5877 30.1101 12.5191 29.9794 12.5191 29.9794C12.5806 29.8227 12.6173 29.8818 12.771 29.8504C12.9177 29.8185 13.0821 29.7523 13.156 29.7523C13.2323 29.7523 13.1963 29.6985 13.2453 29.9965C13.2879 30.2467 13.2678 30.3283 13.2495 30.488ZM15.7015 24.0338C15.3195 23.8996 14.8511 23.6967 14.3004 23.8162C14.2951 23.828 14.2845 23.8321 14.2845 23.8475C14.3194 23.8067 14.7044 23.8499 14.5956 23.8629C14.2933 23.8806 13.9556 23.8948 13.7226 23.9705C14.1662 23.5435 15.1408 23.6376 15.6572 23.925C15.7406 23.967 15.7536 23.9729 15.8239 24.0149C15.8772 24.1284 15.8103 24.0693 15.7015 24.0338ZM20.631 23.2236C20.576 23.275 20.576 23.2809 20.5222 23.3354C20.4264 23.4365 20.4542 23.4365 20.3306 23.5323C20.2714 23.592 20.2365 23.6133 20.1342 23.7014C20.0159 23.8109 19.9367 23.8523 19.7888 23.9705C19.6487 24.0859 19.5416 24.1858 19.3837 24.3147C19.3317 24.3538 19.1708 24.4561 18.8763 24.6057C18.7533 24.6814 18.6001 24.7589 18.4333 24.7211C18.5752 24.5856 18.7107 24.4046 18.9159 24.2367C19.2086 23.9989 19.6847 23.925 19.6646 23.5039C19.654 23.2934 19.5789 23.1059 19.4996 22.916C19.5499 22.8829 19.6067 22.8498 19.6451 22.8196C19.735 22.751 19.8533 22.6937 19.9532 22.6422C20.094 22.5712 20.2389 22.5582 20.3974 22.5902C20.5541 22.6221 20.644 22.7711 20.7168 22.9066C20.7493 22.9669 20.7724 23.0272 20.757 23.071C20.6872 23.1325 20.6677 23.1703 20.631 23.2236Z" fill="white"/>
<path d="M3.40421 6.04499C2.42836 7.40172 1.70151 8.83 1.2124 10.25C1.66721 9.14227 2.27873 8.04163 3.06533 7.00014C3.33915 6.6376 3.62481 6.29457 3.92052 5.96811C3.73363 5.99886 3.55266 6.02666 3.40421 6.04499Z" fill="white"/>
<path d="M17.2268 1.19674C13.7002 -1.46406 7.74988 0.46338 3.81812 5.48809C3.98844 5.47568 4.19958 5.46148 4.41309 5.44433C7.9415 1.90231 12.68 0.788661 15.6649 3.04198C19.049 5.59514 18.8964 11.5052 15.3248 16.2443C13.4867 18.6803 11.1009 20.3298 8.75707 21.0117C11.503 20.37 14.3957 18.4461 16.6046 15.5174C20.5317 10.3111 20.8096 3.90013 17.2268 1.19674Z" fill="white"/>
<path d="M11.9582 3.88261C12.0439 3.87966 12.1267 3.88616 12.2149 3.90509C12.2261 3.90804 12.2397 3.90804 12.2492 3.90923C12.2817 3.9246 12.2852 3.96955 12.3343 3.96719C12.3876 3.93052 12.4786 3.93348 12.5674 3.93643C12.633 3.96955 12.659 4.04348 12.7093 4.09139C12.7424 3.96246 12.9293 3.92756 13.0363 3.99735C13.1079 4.04466 13.0701 4.1245 13.1446 4.15408C13.128 4.04585 13.196 4.02278 13.2611 3.99971C13.3208 4.00859 13.3309 4.02633 13.3581 4.05413C13.3628 4.05886 13.3894 4.1245 13.3894 4.1245C13.4184 4.22386 13.4427 4.32618 13.4781 4.42436C13.5036 4.49473 13.513 4.58108 13.5355 4.62189L13.5349 4.6213V4.69996C13.4835 4.72657 13.4172 4.73781 13.348 4.74727C13.3675 4.80523 13.4137 4.83657 13.4255 4.90222C13.2995 5.0004 13.1286 4.85136 13.005 4.90222C13.0091 5.01223 13.1055 5.03056 13.1298 5.12105C13.0482 5.27009 12.8767 5.14234 12.74 5.13702C12.6774 5.13347 12.6265 5.17901 12.5674 5.16718C12.5088 5.15476 12.4579 5.0489 12.4124 5.10508C12.3982 5.16363 12.5821 5.19498 12.5526 5.276C12.7909 5.2624 12.9512 5.47531 13.1759 5.49542C13.2333 5.49897 13.3049 5.4694 13.3628 5.47945C13.5379 5.50843 13.7005 5.80473 13.7183 6.25835C13.7183 6.15485 13.7999 5.5522 13.7999 5.44751C13.9075 5.40434 13.9791 5.3245 14.0808 5.276C14.095 5.08911 14.108 4.89631 14.1263 4.71593C13.9519 4.68576 13.7668 4.6627 13.5923 4.63017C13.5462 4.47817 13.4693 4.06595 13.2942 3.98552C13.2966 3.98434 13.2983 3.98316 13.3013 3.98256C13.157 3.90213 12.9222 3.89799 12.7643 3.88912C12.6537 3.8832 12.5431 3.88261 12.4343 3.88498C12.3846 3.88675 12.2817 3.90982 12.235 3.89208C12.1262 3.84949 12.0599 3.82702 11.944 3.8418C11.9079 3.86014 11.8967 3.87374 11.8943 3.88143C11.8707 3.90686 11.8399 3.9388 11.8819 3.95122C11.8896 3.91159 11.9245 3.90095 11.9582 3.88261ZM10.2596 4.24693C10.2336 4.08133 10.3513 4.06181 10.4447 4.01509C10.4779 4.01332 10.5104 4.01154 10.5465 4.00859C10.6263 4.01982 10.6677 4.11504 10.7127 4.15408C10.7209 4.0766 10.7629 4.03461 10.8008 3.98848C10.8617 3.98256 10.925 3.97487 10.9871 3.96719C11.0829 3.98256 11.0752 4.10026 11.1497 4.13811C11.1385 3.94294 11.4206 3.89622 11.5395 4.01332C11.5383 3.95713 11.5158 3.92283 11.5075 3.87256L10.1538 4.01273C10.0763 4.01095 10.0083 4.01332 9.97929 4.02929C10.1473 4.02692 10.1721 4.16886 10.2596 4.24693ZM7.62662 11.1902C7.62425 11.1949 7.62307 11.2003 7.62011 11.2062C7.57398 11.344 7.52785 11.4812 7.48054 11.6196C7.46753 11.6592 7.46043 11.6888 7.45274 11.7071C7.74904 11.6829 8.0418 11.6403 8.32864 11.5717C8.38246 11.5581 8.43391 11.5415 8.48714 11.5261C8.55811 11.496 8.64268 11.4587 8.70005 11.4374C8.69591 11.3925 8.69414 11.3469 8.69236 11.331C8.6758 11.1825 8.64919 11.0341 8.61488 10.888C8.59537 10.8951 8.57408 10.9016 8.55456 10.9081C8.38955 10.9619 8.22336 11.0092 8.05481 11.0471C7.92056 11.0826 7.78571 11.1139 7.65678 11.1246C7.64555 11.147 7.63667 11.1683 7.62662 11.1902ZM14.5031 16.2238C14.4889 16.1641 14.4747 16.1049 14.4711 16.0357C14.108 15.5111 13.794 14.9617 13.4563 14.4294C13.3445 14.2514 13.2374 14.0456 13.1138 13.8841C13.0003 13.7369 12.8223 13.6085 12.6774 13.463C12.2397 13.0242 11.7754 12.6309 11.32 12.2311C11.6637 11.5581 11.9818 10.8294 12.3497 10.1889C12.4739 9.97484 12.6383 9.74715 12.7241 9.53305C12.7909 9.36805 12.8175 9.15868 12.8654 8.97179C13.0091 8.39634 13.1298 7.86169 13.2847 7.28742C13.3758 7.21645 13.461 7.14075 13.4563 6.97575C13.3267 6.95978 13.2652 6.87639 13.1759 6.8202C12.934 6.93375 12.4556 6.88644 12.4124 6.66466C12.3544 6.36363 12.782 6.33878 12.8175 6.13415C12.7081 6.13711 12.5094 6.23351 12.4591 6.15012C12.5608 6.07442 12.6904 6.02711 12.7862 5.94667C12.5951 5.78462 12.3201 5.70774 12.0848 5.58827C12.0534 5.34342 11.9345 5.18906 11.944 4.90222C11.9736 4.82297 12.0185 4.78098 12.0416 4.67275C12.0564 4.63017 12.0564 4.60947 12.0274 4.5385C11.9529 4.53613 11.8931 4.55092 11.8517 4.52785C11.7689 4.44919 11.8529 4.2901 11.789 4.18483C11.7547 4.29661 11.7447 4.43264 11.6802 4.51248C11.6749 4.4285 11.6483 4.36699 11.6169 4.30962C11.6335 4.54264 11.708 4.71888 11.7583 4.9176C11.5844 4.8898 11.5199 4.96965 11.3703 4.96491C11.3703 5.01223 11.3532 5.04476 11.32 5.05836C10.9687 5.17842 10.5435 5.22514 10.2283 5.38541C10.0869 5.23815 10.0509 4.98206 9.91897 4.82416C9.97752 5.06132 10.1124 5.24584 10.1827 5.51139C10.6435 5.38482 11.0131 5.166 11.5075 5.07374C11.5554 5.0211 11.6702 4.98857 11.7583 5.02701C11.7689 5.11218 11.8322 5.21568 11.789 5.30735C11.6098 5.28132 11.7169 5.30439 11.6027 5.33988C11.5643 5.31918 11.5566 5.37063 11.4886 5.38068C11.4105 5.40671 11.3703 5.40671 11.2964 5.45343C11.2195 5.48773 11.2337 5.49424 11.1568 5.50488C11.0888 5.53682 11.168 5.50488 11.0888 5.53682C11.0143 5.54983 11.0066 5.55811 10.9338 5.58295C10.8209 5.61548 10.8617 5.60424 10.7659 5.62967C10.6198 5.66989 10.7079 5.64505 10.5553 5.68645C10.3324 5.73376 10.5323 5.68053 10.3229 5.74441C10.2265 5.61252 10.1313 5.47945 10.0112 5.37004C9.96273 5.41321 9.94676 5.29374 9.93316 5.18315C9.80364 5.13997 9.76461 5.00927 9.76047 4.83953C9.71729 4.83184 9.65224 4.93771 9.57417 4.94895C9.45352 4.90045 9.36599 4.73781 9.20039 4.71593C9.06673 4.69582 8.85618 4.76797 8.68704 4.7934C8.55633 4.81292 8.428 4.81647 8.32331 4.84604C7.5036 4.9247 4.68075 5.38246 4.16326 5.46289C4.705 5.41558 7.76383 5.0489 8.43982 4.8969C8.73967 4.87265 9.05017 4.7869 9.32518 4.7934C9.35298 4.83184 9.379 4.87443 9.37013 4.94895C8.94726 5.09148 8.50547 5.13347 8.06191 5.19971C7.80641 5.23638 6.99735 5.40256 6.84535 5.43214C6.19065 5.56284 5.44842 5.69946 4.72511 5.82248C4.51397 5.85855 4.29514 5.89285 4.08637 5.93189C2.8367 6.15899 1.51192 6.25599 0.203693 6.10281C0.0990114 6.08802 0.0582032 6.10991 0.0375035 6.12942C0.0511062 6.07442 0.0930967 6.02001 0.136862 5.99517C0.297728 5.91888 0.493489 5.84436 0.685109 5.80651H0.779145C0.815814 5.77398 0.720003 5.7929 0.685109 5.79113C0.524243 5.7864 0.25633 5.79468 0.139228 5.79113C0.108475 5.83312 0.0522897 5.89344 0.0404612 5.96323C0.0363213 5.97151 0.000835562 6.14125 0.000244141 6.15012V6.16609C0.0540635 6.42395 0.0913228 6.696 0.232672 6.86752C0.687475 6.87402 1.10265 7.00177 1.52789 7.00709C1.87446 7.01182 2.22044 6.95978 2.55814 6.94499C2.83611 6.93198 3.11526 6.93671 3.39973 6.91424C3.89416 6.87402 4.40101 6.74568 4.89662 6.66466C6.42426 6.41508 7.92943 6.14007 9.35653 5.83785C9.49433 5.69354 9.59664 5.483 9.90182 5.58827C10.0142 5.82898 10.1053 6.09157 10.1987 6.35239C10.4276 6.42218 10.5973 6.60315 10.8842 6.49315C10.757 5.90232 11.3047 5.85145 11.6637 5.66634C11.6441 5.72548 11.6767 5.74677 11.6802 5.79113C11.9996 5.79704 11.9582 6.16727 12.1001 6.35239C11.789 6.23943 11.4738 6.36599 11.2745 6.47659C11.1988 6.51858 11.0421 6.60197 11.0255 6.66466C10.9906 6.78649 11.0764 7.04317 11.1018 7.22592C11.1314 7.42345 11.1917 7.64169 11.1817 7.80255C11.1669 7.99595 11.0462 8.20294 10.993 8.36381C10.925 8.57436 10.8735 8.7506 10.8233 8.95642C10.4022 9.33788 10.0461 9.78145 9.59014 10.1262C9.5718 10.0618 9.56293 9.98608 9.54756 9.91688C9.49669 9.96479 9.43578 10.0062 9.36835 10.0423C9.36481 10.044 9.36126 10.0458 9.35771 10.0488C9.34411 10.0553 9.3311 10.0624 9.3169 10.0695C9.33169 10.1044 9.34233 10.1422 9.35002 10.1801C9.38314 10.2558 9.41035 10.3315 9.43105 10.4113C9.44169 10.4048 9.45056 10.3989 9.45884 10.3924C9.49137 10.3628 9.5239 10.3344 9.55702 10.3037C9.58008 10.267 9.60197 10.2297 9.63686 10.2037C9.67175 10.2942 9.63213 10.3445 9.5789 10.3912C9.54282 10.4338 9.50261 10.474 9.45589 10.5113C9.50616 10.7307 9.5239 10.9584 9.51858 11.1719C8.91947 11.6166 8.07906 11.7722 7.34806 11.8165C7.13337 11.8278 6.92401 11.6474 6.75546 11.5309C6.61233 11.4315 6.47098 11.3274 6.33141 11.2204C6.32904 11.2192 6.32727 11.2162 6.3249 11.2139C6.1392 11.0802 5.96768 10.9146 5.93102 10.6709C5.92983 10.6674 5.92983 10.6656 5.92806 10.6615C5.92865 10.6633 5.92983 10.6633 5.92983 10.6615C5.91919 10.5846 5.92096 10.5006 5.93989 10.4066C5.9529 10.4722 5.95763 10.5438 5.96354 10.6159C5.97774 10.6514 5.99725 10.6869 6.0079 10.7319C6.06704 10.9253 6.23441 11.0264 6.38582 11.1399C6.61233 11.3115 6.84062 11.4818 7.0837 11.6285C7.17655 11.6829 7.24338 11.7231 7.34569 11.7178V11.7166L7.34688 11.7178C7.41253 11.5255 7.47876 11.3239 7.54619 11.1299C7.50479 11.1334 7.46398 11.1411 7.42376 11.1429C7.14698 11.1583 6.85777 11.2777 6.63599 11.0903C6.56798 11.0571 6.52007 11.0075 6.50233 10.9365C6.60642 10.9436 6.65905 11.0033 6.71761 11.0554C6.75191 11.0666 6.78562 11.0755 6.81046 11.0814C6.83471 11.0879 6.86132 11.0897 6.88675 11.0938C7.04584 11.0938 7.19429 11.0826 7.34037 11.0696C7.34688 11.0672 7.35338 11.0666 7.3593 11.0666C7.43677 11.0524 7.50893 11.0435 7.57812 11.0329C7.61952 10.9075 7.66388 10.7798 7.70705 10.6532C7.71297 10.639 7.71474 10.6272 7.71947 10.6159C7.62011 10.639 7.52194 10.6597 7.42494 10.6816C7.13337 10.7585 6.8418 10.833 6.54787 10.9016C6.48873 10.9146 6.43668 10.914 6.38641 10.904C6.38404 10.9051 6.37931 10.9063 6.37813 10.9063C6.37635 10.9051 6.37399 10.9034 6.37399 10.9034C6.30538 10.885 6.24683 10.8454 6.19597 10.7685C6.19065 10.7585 6.17882 10.7254 6.16699 10.6834C6.10489 10.5816 6.07236 10.458 6.11317 10.2978C6.10194 10.5467 6.27108 10.7839 6.43491 10.8223C6.50351 10.8223 6.58158 10.7934 6.63776 10.7815C6.67975 10.7727 6.72175 10.7614 6.76255 10.7508C6.76492 10.7508 6.7661 10.7502 6.76728 10.7502C6.76728 10.7502 6.76965 10.749 6.77142 10.749C7.07305 10.6763 7.36876 10.5988 7.66684 10.5154C8.07669 10.4007 8.48655 10.2806 8.88694 10.1316C8.93189 10.115 8.97802 10.0961 9.02415 10.0783C9.05608 10.0647 9.0685 10.0606 9.0827 10.0553C9.14539 10.0304 9.2069 10.0015 9.26722 9.97248C9.27018 9.96952 9.27195 9.96952 9.27314 9.96715C9.31808 9.94291 9.35298 9.92457 9.39319 9.90387C9.42158 9.88554 9.45352 9.86839 9.48191 9.8465C9.49433 9.83586 9.50616 9.82758 9.51444 9.82344C9.51858 9.72585 9.51325 9.74715 9.48309 9.66789C9.42809 9.6815 9.34352 9.73413 9.28851 9.74478C9.11227 9.78322 9.15781 9.7779 9.01173 9.79801C8.97329 9.64128 8.88162 9.53482 8.84199 9.37869C9.0549 9.25213 9.33169 9.1918 9.33997 8.86356C9.06141 8.77248 8.91592 8.65065 8.65924 8.53887C8.61429 8.48032 8.49956 8.29639 8.43864 8.17515C8.33218 8.00541 8.36471 8.0817 8.21804 7.89659C8.10449 7.7511 7.959 7.60679 7.83835 7.54647C7.72894 7.49265 7.55092 7.43528 7.40602 7.39743C7.26171 7.35899 7.11741 7.28979 6.97073 7.28742C6.87019 7.28565 6.74067 7.32764 6.62712 7.35071C6.30243 7.41517 6.20662 7.46012 6.00199 7.61625C5.91327 7.68486 5.79262 7.76234 5.73821 7.8339C5.71455 7.86524 5.64891 7.94035 5.62821 7.97466C5.58385 8.05095 5.54186 8.08111 5.50401 8.1509C5.436 8.27746 5.43836 8.29225 5.3946 8.37919C5.28873 8.59565 5.19056 8.8198 5.14916 9.0883C5.15448 9.8465 5.59154 10.1475 5.73821 10.765C5.74827 10.6816 5.6909 10.584 5.73821 10.516C5.78907 10.5941 5.77074 10.7437 5.78493 10.8596C5.90144 10.9915 6.10194 11.0412 6.16049 11.2328C6.01322 11.2062 5.89494 10.982 5.77961 10.9749C5.96354 11.1311 6.13032 11.3038 6.33141 11.4049C6.36098 11.4197 6.40652 11.4049 6.44082 11.4203C6.61056 11.4983 6.73831 11.7024 6.89089 11.7485C6.96245 11.7692 6.9796 11.7379 7.03342 11.8142C6.68094 11.8745 6.57744 11.4014 6.36512 11.4989C6.20662 11.5705 6.17113 11.5474 5.9872 11.577C5.95763 11.7231 6.14452 11.9384 6.17113 12.0768C6.29296 12.2518 6.17468 12.3376 6.28054 12.5286C6.38996 12.6268 6.4562 12.6528 6.54905 12.7143C6.60228 13.0834 6.56679 13.4761 6.68922 13.8374C6.82643 14.1065 7.14284 14.2857 7.36107 14.5229C7.59823 14.7831 7.92292 15.0599 8.10745 15.2414C8.75032 15.8654 9.36599 16.3864 10.0278 16.9867C10.1946 17.1393 10.5967 17.4244 10.6807 17.6113C10.7558 17.7721 10.7842 17.9898 10.8357 18.1879C10.8901 18.3825 10.9747 18.5936 10.993 18.7651C11.0291 19.0739 10.9155 19.3684 10.993 19.7002C11.0066 19.7528 11.0391 19.8114 11.0811 19.8711C12.3562 19.0478 13.5615 17.9774 14.6036 16.6827C14.6793 16.5869 14.7527 16.4917 14.826 16.3941C14.7396 16.3107 14.6409 16.2439 14.5031 16.2238ZM9.22405 10.1387C9.20808 10.1304 9.18856 10.1292 9.16845 10.1363C9.16254 10.1381 9.15781 10.1404 9.15308 10.1422C9.14657 10.1469 9.14125 10.1481 9.13711 10.1481C9.01587 10.1954 8.89344 10.2345 8.78994 10.2717C8.7308 10.2924 8.66811 10.3102 8.60897 10.3303C8.59714 10.335 8.58768 10.3392 8.57585 10.3433C8.57822 10.3788 8.58176 10.4095 8.58531 10.4409C8.61488 10.5497 8.64386 10.6562 8.67284 10.7626C8.85618 10.6982 9.03775 10.629 9.21518 10.5479C9.25953 10.5272 9.30152 10.5036 9.34233 10.4781C9.32873 10.4273 9.31513 10.3764 9.30034 10.3261C9.27905 10.2629 9.25421 10.2002 9.22405 10.1387ZM8.593 10.7898C8.56698 10.6627 8.53859 10.4965 8.47353 10.3853C8.47058 10.3829 8.46939 10.3788 8.46762 10.3764C8.34165 10.4166 8.21449 10.4592 8.08793 10.4965C8.0069 10.5249 7.92292 10.5527 7.83657 10.5763C7.79103 10.71 7.74372 10.8436 7.69996 10.9779C7.69522 10.9915 7.69345 11.0039 7.69108 11.0169C7.76146 11.0069 7.83125 10.9968 7.90695 10.9809C8.10449 10.9406 8.29966 10.8874 8.49069 10.8259C8.52617 10.8164 8.55811 10.8016 8.593 10.7898ZM8.70241 10.8803C8.74204 11.0483 8.77398 11.2204 8.79231 11.3954C8.97624 11.3481 9.15012 11.2565 9.30862 11.1908C9.31158 11.1884 9.31513 11.1855 9.31986 11.1843C9.36481 11.1541 9.39497 11.1299 9.4204 11.1198C9.42099 10.9436 9.40266 10.7685 9.36835 10.597C9.35357 10.597 9.33938 10.6 9.32518 10.6029C9.1306 10.7194 8.89344 10.7999 8.70123 10.862C8.70123 10.8673 8.70241 10.8732 8.70241 10.8803Z" fill="white"/>
</svg>
