<?xml version="1.0" encoding="utf-8"?>
<!-- Generator: Adobe Illustrator 27.5.0, SVG Export Plug-In . SVG Version: 6.00 Build 0)  -->
<svg version="1.1" id="Layer_1" xmlns="http://www.w3.org/2000/svg" xmlns:xlink="http://www.w3.org/1999/xlink" x="0px" y="0px"
	 viewBox="0 0 909.9 241.7" style="enable-background:new 0 0 909.9 241.7;" xml:space="preserve">
<style type="text/css">
	.st0{fill:url(#SVGID_1_);}
	.st1{fill:url(#SVGID_00000150066271287581560280000010436204769199300031_);}
	.st2{fill:url(#SVGID_00000005969958891383611050000016513771807184807321_);}
	.st3{opacity:0.4;fill:url(#SVGID_00000024709711981260917460000012282966290485106304_);}
	.st4{fill:url(#SVGID_00000093160887852417472300000005235265416486602627_);}
	.st5{fill:url(#SVGID_00000161629196517806665670000000005307152098441918_);}
	.st6{fill:url(#SVGID_00000171717711576736641890000018385767526631974819_);}
	.st7{fill:#FFFFFF;}
	.st8{fill:url(#SVGID_00000144295870639602260310000014266777919263594652_);}
	.st9{fill:url(#SVGID_00000051357259846851916880000000651166430997544331_);}
	.st10{fill:url(#SVGID_00000161595179690515008000000008034730483317433742_);}
	.st11{opacity:0.4;fill:url(#SVGID_00000183960704394231853860000002891622221821991094_);enable-background:new    ;}
	.st12{fill:url(#SVGID_00000051384419361581595690000012312354471201296553_);}
	.st13{fill:url(#SVGID_00000120559453813949434510000013404108442559004333_);}
	.st14{fill:url(#SVGID_00000066514496137881772580000017975295436802421123_);}
	.st15{fill:url(#SVGID_00000008830536103696806870000016866897342946433463_);}
	.st16{fill:url(#SVGID_00000060025429728290829400000003918339987882404752_);}
	.st17{fill:url(#SVGID_00000043441311396840292000000003115932559126019486_);}
	.st18{opacity:0.4;fill:url(#SVGID_00000108271533230900693390000013179854363533753253_);}
	.st19{fill:url(#SVGID_00000118365066677900423550000016554923006886130357_);}
	.st20{fill:url(#SVGID_00000106864700731049277830000017247844261967599530_);}
	.st21{fill:url(#SVGID_00000108275056020290588580000005901975536639167408_);}
	.st22{fill:url(#SVGID_00000096034296817214042320000017528275004441954998_);}
	.st23{fill:url(#SVGID_00000093158937941239435370000000591149863602990767_);}
	.st24{fill:url(#SVGID_00000063628111014480645320000006574584676818100143_);}
	.st25{opacity:0.4;fill:url(#SVGID_00000178906216529345021550000011389643859830816159_);enable-background:new    ;}
	.st26{fill:url(#SVGID_00000162324860579991401410000008066550913909906306_);}
	.st27{fill:url(#SVGID_00000137814545664774180270000002721438521053254569_);}
	.st28{fill:url(#SVGID_00000124133898854970642660000014568778195175217037_);}
	.st29{fill:url(#SVGID_00000023978168139963076480000003704051138524741049_);}
	.st30{fill:url(#SVGID_00000134947105158088079740000018001008589318733234_);}
	.st31{fill:url(#SVGID_00000050660778740089750750000003179382363710501264_);}
	.st32{opacity:0.4;fill:url(#SVGID_00000120554601361605796280000003338842890944092592_);}
	.st33{fill:url(#SVGID_00000090255608199112954120000012444195264534552506_);}
	.st34{fill:url(#SVGID_00000181770521762404627430000016241634344761444494_);}
	.st35{fill:url(#SVGID_00000124145285183715463830000002424234076382574477_);}
	.st36{fill:url(#SVGID_00000178190001892015008050000013431135566507178422_);}
	.st37{fill:url(#SVGID_00000114794017406712165110000000756675407865990316_);}
	.st38{fill:url(#SVGID_00000098930986277198391380000007058744008191479190_);}
	.st39{opacity:0.4;fill:url(#SVGID_00000131368651084878694330000007054805510166102457_);}
	.st40{fill:url(#SVGID_00000154410174996662983080000003235004183857008294_);}
	.st41{fill:url(#SVGID_00000013881425865360491090000010697758240544198827_);}
	.st42{fill:url(#SVGID_00000135683419242082399460000008015390252463633046_);}
	.st43{fill:url(#SVGID_00000111906674202752672690000006775522755638145451_);}
	.st44{fill:url(#SVGID_00000093148566642661589390000007950370203070293409_);}
	.st45{fill:url(#SVGID_00000016783188698009268200000015645940578021750420_);}
	.st46{opacity:0.4;fill:url(#SVGID_00000036246905081345005550000016627567976716057234_);}
	.st47{fill:url(#SVGID_00000027597723479366110200000001524635601855217816_);}
	.st48{fill:url(#SVGID_00000164499970777330688310000016586759216806503351_);}
	.st49{fill:url(#SVGID_00000041260408439351438190000010613387567123549094_);}
	.st50{fill:url(#SVGID_00000100380373933817700930000012762466962603717777_);}
	.st51{fill:url(#SVGID_00000089549387948994068670000003696408324776966036_);}
	.st52{fill:url(#SVGID_00000052818785425396577320000009280375324294806454_);}
	.st53{opacity:0.4;fill:url(#SVGID_00000070832734738624691350000014783047532831210636_);enable-background:new    ;}
	.st54{fill:url(#SVGID_00000077319110324039139490000000517532733822433928_);}
	.st55{fill:url(#SVGID_00000124869754751955588010000005528972973042804144_);}
	.st56{fill:url(#SVGID_00000038388411430777279650000017591949747049231800_);}
	.st57{fill:url(#SVGID_00000140732596936767849330000011528895278540577437_);}
	.st58{fill:url(#SVGID_00000166665360775139022830000014927196799713776279_);}
	.st59{fill:url(#SVGID_00000094617540942176211570000006795143639638580882_);}
	.st60{opacity:0.4;fill:url(#SVGID_00000080916604594852598960000015388705379284946342_);enable-background:new    ;}
	.st61{fill:url(#SVGID_00000030472696560757283600000017806956925359820476_);}
	.st62{fill:url(#SVGID_00000021811514204116458440000000550104498217000320_);}
	.st63{fill:url(#SVGID_00000066489624179155440370000001639766742699353262_);}
	.st64{fill:url(#SVGID_00000008119312396166440440000007800305890206396576_);}
	.st65{fill:url(#SVGID_00000060740227946820971900000002527543633806676871_);}
	.st66{fill:url(#SVGID_00000105397182934375297190000011246506113907296186_);}
	.st67{opacity:0.4;fill:url(#SVGID_00000137110957924022883790000018292999710363068823_);}
	.st68{fill:url(#SVGID_00000183240685038029277030000000958913128813168823_);}
	.st69{fill:url(#SVGID_00000112603814600651800770000000363758439973125516_);}
	.st70{fill:url(#SVGID_00000116203913316492890690000009477516770830647453_);}
	.st71{fill:url(#SVGID_00000053546762744670253510000002923542938529645709_);}
	.st72{fill:url(#SVGID_00000109028890413725765450000010717784487970260663_);}
	.st73{fill:url(#SVGID_00000038402112875283870720000000350132788404110507_);}
	.st74{opacity:0.4;fill:url(#SVGID_00000119090108984084169440000011110952977550336933_);enable-background:new    ;}
	.st75{fill:url(#SVGID_00000000224508555141559100000001035838937689400251_);}
	.st76{fill:url(#SVGID_00000156549321993184715390000009802396901127250864_);}
	.st77{fill:url(#SVGID_00000116957158366155278880000015044061910699379349_);}
	.st78{fill:url(#SVGID_00000088819710767977562650000005781767867155250089_);}
	.st79{fill:url(#SVGID_00000167386264326978951120000006351685526235646596_);}
	.st80{fill:url(#SVGID_00000078016574193845207870000018392321998650244507_);}
	.st81{opacity:0.4;fill:url(#SVGID_00000007395876491463367570000003263057501502394522_);}
	.st82{fill:url(#SVGID_00000061441121400829095400000011958360681837375923_);}
	.st83{fill:url(#SVGID_00000052095754730424019090000002229456389798371460_);}
	.st84{fill:url(#SVGID_00000119825307154352076710000005304983041118320292_);}
</style>
<g>
	<g>
		<g>
			
				<linearGradient id="SVGID_1_" gradientUnits="userSpaceOnUse" x1="70.2709" y1="-4881.3228" x2="205.0701" y2="-4881.3228" gradientTransform="matrix(1 0 0 -1 0 -4770.5708)">
				<stop  offset="0" style="stop-color:#F1D71D"/>
				<stop  offset="1" style="stop-color:#EBB023"/>
			</linearGradient>
			<path class="st0" d="M70.3,145.3v-11.9l29.4-32.1l0-79h61.3c24.4,0,44.1,20,44.1,44.6v98c0,0,0.8,20.5-15.9,34.2l-60.9-77.6
				L167.4,80l-35.6-0.1L70.3,145.3z"/>
			
				<linearGradient id="SVGID_00000023997561356583136920000005882433726529775504_" gradientUnits="userSpaceOnUse" x1="70.7976" y1="-4945.9326" x2="165.4522" y2="-4945.9326" gradientTransform="matrix(1 0 0 -1 0 -4770.5708)">
				<stop  offset="0" style="stop-color:#F1D71D"/>
				<stop  offset="1" style="stop-color:#EBB023"/>
			</linearGradient>
			<path style="fill:url(#SVGID_00000023997561356583136920000005882433726529775504_);" d="M162.3,209.2L110,145.3l-39.2,42.2
				l0-3.9l39.3-42.1l55.3,67.7L162.3,209.2z"/>
			
				<linearGradient id="SVGID_00000140001594645925667460000003512026500646375571_" gradientUnits="userSpaceOnUse" x1="152.3634" y1="-4792.5923" x2="152.3634" y2="-4962.7642" gradientTransform="matrix(1 0 0 -1 0 -4770.5708)">
				<stop  offset="0" style="stop-color:#F1D71D"/>
				<stop  offset="1" style="stop-color:#EBB023"/>
			</linearGradient>
			<path style="fill:url(#SVGID_00000140001594645925667460000003512026500646375571_);" d="M205.1,165V66.7
				c0-24.5-19.7-44.4-43.9-44.4H99.7l0,79.1l1.8-77.2l60.4,0.1c2,0,4,0.2,5.9,0.6c34.1,6.9,34.7,38.9,34.7,38.9v102
				c0,20.7-15,31.2-15,31.2l1.7,2.1C198.9,191,205.1,178.7,205.1,165z"/>
			
				<linearGradient id="SVGID_00000044884262359141947280000005916449106499994292_" gradientUnits="userSpaceOnUse" x1="131.837" y1="-4849.3604" x2="169.8035" y2="-4849.3604" gradientTransform="matrix(1 0 0 -1 0 -4770.5708)">
				<stop  offset="0" style="stop-color:#F1D71D"/>
				<stop  offset="1" style="stop-color:#EBB023"/>
			</linearGradient>
			<path style="opacity:0.4;fill:url(#SVGID_00000044884262359141947280000005916449106499994292_);enable-background:new    ;" d="
				M131.8,79.9l2.3-2.3h35.7l-2.4,2.4L131.8,79.9z"/>
			
				<linearGradient id="SVGID_00000129182579159504295290000003918781864211756417_" gradientUnits="userSpaceOnUse" x1="70.2709" y1="-4889.1562" x2="99.7109" y2="-4889.1562" gradientTransform="matrix(1 0 0 -1 0 -4770.5708)">
				<stop  offset="0" style="stop-color:#F1D71D"/>
				<stop  offset="1" style="stop-color:#EBB023"/>
			</linearGradient>
			<path style="fill:url(#SVGID_00000129182579159504295290000003918781864211756417_);" d="M99.7,101.3v2.5l-29.4,32.1l0-2.4
				L99.7,101.3z"/>
			
				<linearGradient id="SVGID_00000124130197011048825460000000173107357039527815_" gradientUnits="userSpaceOnUse" x1="21.5417" y1="-4887.292" x2="166.9987" y2="-4887.292" gradientTransform="matrix(1 0 0 -1 0 -4770.5708)">
				<stop  offset="0" style="stop-color:#F1D71D"/>
				<stop  offset="1" style="stop-color:#EBB023"/>
			</linearGradient>
			<path style="fill:url(#SVGID_00000124130197011048825460000000173107357039527815_);" d="M36.2,33.6
				C21.7,47.6,22.7,57.3,21.6,64.6v101.1c0,0-1.3,26.2,24.8,38.2c6.8,3.1,14.2,4.6,21.6,4.6l99,2.6l-56.9-69.4l-39.3,42.2v-38.7l0,0
				v-11.8l0,0V22.6c0,0-2-0.3-5-0.3C58.9,22.3,46.2,23.8,36.2,33.6z"/>
			
				<linearGradient id="SVGID_00000097498087260466080250000018299975947345720486_" gradientUnits="userSpaceOnUse" x1="92.8669" y1="-4793.5483" x2="92.8669" y2="-4970.0293" gradientTransform="matrix(1 0 0 -1 0 -4770.5708)">
				<stop  offset="0" style="stop-color:#F1D71D"/>
				<stop  offset="1" style="stop-color:#EBB023"/>
			</linearGradient>
			<path style="fill:url(#SVGID_00000097498087260466080250000018299975947345720486_);" d="M165.5,211.1H67.9
				c-7.9-0.1-15.4-1.7-22.1-4.7c-26.6-12.2-25.6-39.2-25.6-39.4l0-101.1l0-0.1c0.2-1,0.3-2,0.4-3.1c0.7-6.9,1.8-16.2,14.6-28.7
				c10.4-10.1,23.6-11.6,30.5-11.6c3,0,4.8,0.3,5,0.3v2.5c-0.2,0-2.2-0.2-5-0.2c-6.6,0-19,1.4-28.8,10.9
				C24.8,47.5,23.9,56,23.2,62.9C23.1,64,22.9,65,22.8,66v101c-0.1,1.1-1,25.5,24.1,37c6.4,2.9,13.5,4.5,21.1,4.5l97.5,0.7V211.1z"
				/>
		</g>
	</g>
	<path class="st7" d="M236.3,114.9v-91h20v39.8L293,23.9h24.6l-37.2,38.6l38.7,52.4h-24l-28.2-38.7l-10.5,10.9v27.8H236.3z
		 M321.7,114.9v-91h20v36h36.9v-36h20v91h-20V78.4h-36.9v36.5H321.7z M410.9,114.9v-91h68.6v17.8h-48.7v18.5h42.9V78h-42.9v19.1
		h49.4v17.8H410.9z M488.4,114.9v-91h20v72.8h45.4v18.2H488.4z M598.3,116.5c-28.1,0-48.2-20.9-48.2-46.8v-0.3
		c0-25.9,20.4-47.1,48.5-47.1c28.1,0,48.2,20.9,48.2,46.8v0.3C646.8,95.3,626.4,116.5,598.3,116.5z M598.6,98
		c16.1,0,27.3-12.7,27.3-28.3v-0.3c0-15.6-11.4-28.6-27.6-28.6c-16.1,0-27.3,12.7-27.3,28.3v0.3C571,85,582.4,98,598.6,98z
		 M672.8,114.9V79l-35-55.1h23.4L683,60.4l22.1-36.5h22.7l-35,54.7v36.3H672.8z M708.5,114.9l39-91.6H766l39,91.6h-20.9l-8.3-20.4
		h-38.5l-8.3,20.4H708.5z M744.4,76.8h24.2l-12.1-29.5L744.4,76.8z M809.5,114.9v-91h41.6c11.6,0,20.4,3.1,26.5,9.2
		c5.2,5.2,7.8,12.1,7.8,20.8v0.3c0,14.7-7.9,23.9-19.5,28.2l22.2,32.5h-23.4l-19.5-29.1h-15.7v29.1H809.5z M829.5,68.1h20.3
		c9.9,0,15.3-5.1,15.3-12.9V55c0-8.7-5.8-13-15.7-13h-19.9V68.1z"/>
	<g>
		<path class="st7" d="M236.3,154.3l0.4-0.6h62.5l2.5,5l-0.4,0.6H292l0.2,46.9l-0.5,0.6l-5.7-1.6l0.2-29.8h-12.9
			c3,4.6,4.4,8.5,4.4,11.9c0,6.6-5.3,11.1-11.4,11.1c-9.6,0-18.1-7.8-25.2-25.6v-0.4l3.3-1.8c5.9,14.2,12.3,20.9,19,20.9
			c3.8,0,9.1-2.9,9.1-8.7c0-2.5-2-6.5-10.4-7.5l-2.3-5.4l0.4-0.6h26v-10.2h-47.3L236.3,154.3z"/>
		<path class="st7" d="M296.8,154.3l0.4-0.6h9.3c-0.8-11.9-5.5-17.7-12.5-17.7c-4.9,0-7.6,3.3-7.6,7c0,3.1,1.4,5.9,3.5,8.6l-0.5,0.6
			l-5.4-2.5c-2.3-2.8-3.9-5.9-3.9-9.1c0-5.4,3.8-9.7,11-9.7c9.8,0,19.4,9.5,21.1,22.8h7.4l2.5,5l-0.4,0.6h-9.3l0.2,46.9l-0.5,0.6
			l-5.7-1.6l0.1-46h-7.3L296.8,154.3L296.8,154.3z"/>
		<path class="st7" d="M317.1,154.3l0.4-0.6h48.1l2.5,5l-0.4,0.6h-9.3l0.2,46.9l-0.5,0.6l-5.7-1.6l0.2-30c-2.5-0.1-5.2-0.1-8-0.1
			c-11.4,0-15.6,3.9-15.6,8.5c0,5.2,5.2,11.2,14.5,16.8l-4.4,6.3h-0.5c-9.8-9-14.8-17.7-14.8-25.6s4.3-12.3,17.5-12.3
			c4,0,7.7,0,11.3,0.3v-9.8h-33L317.1,154.3L317.1,154.3z"/>
		<path class="st7" d="M384.5,154.3l0.4-0.6h62.8l2.5,5l-0.4,0.6H423v15.9l0.1,0.1c3-3,6.5-4.8,10.5-4.8c6.7,0,11.7,6.1,11.7,13
			c0,5.6-3.1,11-7.3,16.2h-0.5l-5.4-3.9c4.9-5.6,8.2-10.9,8.2-15.6c0-2.5-1.3-4.2-4-4.2c-4.4,0-9.2,3.7-13.2,8.7l0.1,21.5l-0.5,0.6
			l-5.6-1.6l0.2-15.1l-0.1-0.1c-3.3,2.9-6.8,4-10.4,4c-9.4,0-15.9-7.1-15.9-15.2c0-8.1,6.5-12.2,14.9-12.2c3.8,0,7.8,0.5,11.7,1.6
			v-9h-30.4L384.5,154.3L384.5,154.3z M417.3,172.7c-2.5-0.5-5.2-0.8-7.8-0.8c-7.2,0-12.6,4.8-12.6,10.2c0,4.2,2.6,6.5,6.8,6.5
			c4.2,0,8.9-2.5,13.6-7.5V172.7z"/>
		<path class="st7" d="M470.1,159.3h-9.3l0.2,46.9l-0.5,0.6l-5.7-1.6l0.1-46h-7.3l-2.5-5l0.4-0.6h10.1c-1.4-3.1-2.8-6.1-4.4-9.3
			c-2.9-5.9-4.6-8.3-10.6-8.3c-3.1,0-6.1,0.5-9.1,1.3l-0.4-0.3l-2.6-7c2.8-0.8,6.1-1.3,9.9-1.3c9.6,0,11.6,6.2,21.3,25h8.2l2.5,5
			L470.1,159.3L470.1,159.3z"/>
		<path class="st7" d="M499.2,158v-0.4c4.5-3,8.8-4.7,12.5-4.7c4.6,0,8.3,2,11.4,5.9c2.3,2.9,3.5,6.1,3.5,9.8c0,3-1,5.3-2.7,7.3
			c1.5,1,2.5,2,3.5,3c1.3,1.3,3.3,2,6.3,2c3.1,0,6-0.8,8.5-2.6v-18.8h-9.8l-2.5-5l0.4-0.6h45.4l2.5,5l-0.4,0.6h-9.3l0.2,46.9
			l-0.5,0.6l-5.7-1.6l0.1-46h-14.5l0.2,46.9l-0.5,0.6l-5.7-1.6v-19c-1.3,0.4-2.7,0.6-4.4,0.6c-2.9,0-5.5-0.8-7.7-2.5l-0.1,0.1
			c0.6,1.6,0.6,3.2,0.6,5c0,7.1-5.7,12.1-12.8,12.1c-11.1,0-18.8-9.1-25-21.7v-0.4l3.1-1.9c5.8,11.3,12.3,17.3,19.4,17.3
			c5.1,0,10.2-3.8,10.2-9c0-4.4-2.7-7.2-7.4-7.2c-2.4,0-5.6,0.9-9.5,2.6l-3.9-6.1l0.1-0.4c5-2,9.4-3.3,13-3.3c2.5-1.8,4.2-4,4.2-6.8
			c0-3-2.5-5.4-6.1-5.4c-3.5,0-7.7,1.7-12.3,4.7l-4-5.9V158z"/>
		<path class="st7" d="M573.1,154.3l0.4-0.6H621l2.5,5l-0.4,0.6h-11.4v15.2l-0.5,0.5h-7.6c-11.9,0-17.5,3.7-17.5,10.4
			c0,5.9,4.6,10.5,11.6,10.5c2.7,0,5.3-0.7,7.9-2c-1.4-1.3-2-3-2-5c0-3,2.6-5.9,6.2-5.9c2,0,3.7,0.8,5.2,2.2
			c1.6,1.6,2.3,3.5,2.3,5.5c0,2.7-1.5,5.1-4.4,7c5.3,4.9,7.4,8.9,7.4,12.1c0,4.2-2.5,7.2-6.1,9.6h-0.4l-6.1-4.9
			c3.5-2.3,5.9-4.9,5.9-8.1c0-2.2-1.1-4.5-3.6-7c-3.1,1.6-6.1,2-9.3,2c-12.3,0-20.9-9.5-20.9-18.9c0-9.5,7.3-13.6,17.3-13.6h7.1
			c1,0,1.6-0.5,1.6-1.4v-8.3h-30.4L573.1,154.3z"/>
		<path class="st7" d="M618.6,154.3l0.4-0.6h48.1l2.5,5l-0.4,0.6H660l0.2,46.9l-0.5,0.6l-5.7-1.6l0.2-30c-2.5-0.1-5.2-0.1-8-0.1
			c-11.4,0-15.6,3.9-15.6,8.5c0,5.2,5.1,11.2,14.5,16.8l-4.4,6.3h-0.5c-9.8-9-14.8-17.7-14.8-25.6s4.3-12.3,17.5-12.3
			c4,0,7.7,0,11.3,0.3v-9.8h-33L618.6,154.3L618.6,154.3z"/>
		<path class="st7" d="M686,154.3l0.4-0.6h48.6l2.5,5l-0.4,0.6h-9.3l0.2,46.9l-0.5,0.6l-5.7-1.6l0.2-13.8c-3.5,2.5-7.4,3.8-11.7,3.8
			c-9.3,0-17.9-7.4-17.9-16.3c0-7.8,6.6-12.6,15.6-12.6c4.5,0,9.2,0.6,14,1.8v-8.9h-33.4L686,154.3L686,154.3z M703.7,173.5
			c-3.6,1.8-5.4,4.7-5.4,8.6c0,4.1,2.9,7.6,9.2,7.6c2.3,0,4.6-0.4,6.6-1.1L703.7,173.5L703.7,173.5z M717.3,186.9
			c2.7-1.7,4.7-4.4,4.7-8.2v-5.9c-3-0.8-6.1-1.1-9-1.1c-2.2,0-4.1,0.1-5.7,0.6L717.3,186.9L717.3,186.9z"/>
		<path class="st7" d="M732.5,154.3l0.4-0.6h47.7l2.5,5l-0.4,0.6h-9.3l0.3,46.9l-0.5,0.6l-5.8-1.6l0.2-26.1
			c-2.5-0.3-4.9-0.4-7.6-0.4c-3.4,0-6.3,0.3-8.5,1v3.9c0,2.3-0.2,3.8-0.5,4.4c-0.8,1.3-2,2-3.5,2c-2.3,0-9-6.8-9-11.3
			c0-1.8,1.2-3.5,3.7-4.6c2.7-1.2,6.2-1.6,9.9-1.6c4.7,0,9.9,0.4,15.5,1v-14.2h-32.5L732.5,154.3L732.5,154.3z"/>
		<path class="st7" d="M778.1,154.3l0.4-0.6h22.4l2.5,5l-0.4,0.6h-9.3l0.2,46.9l-0.5,0.6l-5.7-1.6l0.1-46h-7.3L778.1,154.3
			L778.1,154.3z"/>
		<path class="st7" d="M889.2,159.3H880l0.2,46.9l-0.5,0.6l-5.7-1.6l0.1-46h-14.5l0.2,46.9l-0.5,0.6l-5.7-1.6v-19
			c-1.3,0.4-2.7,0.6-4.4,0.6c-2.9,0-5.5-0.8-7.7-2.5l-0.1,0.1c0.6,1.6,0.6,3.2,0.6,5c0,7.1-5.7,12.1-12.8,12.1
			c-11.1,0-18.8-9.1-25-21.7v-0.4l3.1-1.9c5.8,11.3,12.3,17.3,19.4,17.3c5.1,0,10.2-3.8,10.2-9c0-4.4-2.7-7.2-7.4-7.2
			c-2.4,0-5.6,0.9-9.5,2.6l-3.9-6.1l0.1-0.4c5-2,9.4-3.3,13-3.3c2.5-1.8,4.2-4,4.2-6.8c0-3-2.5-5.4-6.1-5.4s-7.7,1.7-12.3,4.7
			l-4-5.9v-0.4c4.5-3,8.8-4.7,12.5-4.7c4.6,0,8.3,2,11.4,5.9c2.3,2.9,3.5,6.1,3.5,9.8c0,3-1,5.3-2.7,7.3c1.5,1,2.5,2,3.5,3
			c1.3,1.3,3.3,2,6.3,2c3.1,0,6-0.8,8.5-2.6v-18.8h-9.8l-2.5-5l0.4-0.6h33.1c-1.4-3.1-2.8-6.1-4.4-9.3c-2.9-5.9-4.7-8.3-10.6-8.3
			c-3.1,0-6.1,0.5-9.1,1.3l-0.4-0.3l-2.6-7c2.8-0.8,6.1-1.3,9.9-1.3c9.6,0,11.6,6.2,21.3,25h8.2l2.5,5l-0.4,0.6V159.3z"/>
	</g>
</g>
</svg>
