<svg width="512" height="512" viewBox="0 0 512 512" fill="none" xmlns="http://www.w3.org/2000/svg">
<g clip-path="url(#clip0_931_280)">
<path d="M467 151.059H435.579C408.855 87.6051 350.01 41.4921 282.265 32.6851C215.131 23.7351 149.169 49.5751 106.015 101.591C93.329 116.884 83.266 133.51 75.898 151.059H45C20.186 151.059 0 171.245 0 196.059V256.059C0 280.873 20.186 301.059 45 301.059H106.601L100.156 281.386C81.391 224.081 91.953 165.531 129.116 120.751C165.635 76.7321 221.401 54.9501 278.369 62.4211C338.616 70.2691 390.911 112.876 411.631 170.995L411.757 171.332C415.097 180.209 417.441 189.335 418.788 198.725C423.285 226.777 420.722 255.209 411.391 280.947L411.325 281.126C388.164 346.885 325.87 391.059 256.293 391.059C231.317 391.059 211 411.245 211 436.059C211 460.873 231.186 481.059 256 481.059C280.814 481.059 301 460.873 301 436.059V415.829C360.894 401.593 411.202 359.136 435.383 301.058H467C491.814 301.058 512 280.872 512 256.058V196.058C512 171.244 491.814 151.059 467 151.059Z" fill="#F2D71A"/>
<path d="M121 331.059V361.059H256C330.443 361.059 391 300.502 391 226.059C391 151.616 330.443 91.0586 256 91.0586C181.557 91.0586 121 151.616 121 226.059C121 256.411 131.195 285.737 149.828 309.453C146.21 322.094 134.667 331.059 121 331.059ZM301 211.059H331V241.059H301V211.059ZM241 211.059H271V241.059H241V211.059ZM181 211.059H211V241.059H181V211.059Z" fill="#F2D71A"/>
</g>
<defs>
<clipPath id="clip0_931_280">
<rect width="512" height="512" fill="white"/>
</clipPath>
</defs>
</svg>
