<svg width="23" height="25" viewBox="0 0 23 25" fill="none" xmlns="http://www.w3.org/2000/svg">
<g clip-path="url(#clip0_10799_5920)">
<path d="M10.9773 11.9419C12.5307 11.9419 13.7945 10.6782 13.7945 9.12478C13.7945 7.5714 12.5307 6.30762 10.9773 6.30762C9.42394 6.30762 8.16016 7.5714 8.16016 9.12478C8.16016 10.6782 9.42394 11.9419 10.9773 11.9419ZM10.9773 8.18573C11.4951 8.18573 11.9164 8.60699 11.9164 9.12478C11.9164 9.64257 11.4951 10.0638 10.9773 10.0638C10.4595 10.0638 10.0383 9.64257 10.0383 9.12478C10.0383 8.60699 10.4595 8.18573 10.9773 8.18573Z" fill="url(#paint0_linear_10799_5920)"/>
<path d="M19.4264 9.12434C19.4264 4.46419 15.6351 0.672852 10.9749 0.672852C6.31477 0.672852 2.52344 4.46419 2.52344 9.12434C2.52344 10.9679 3.10668 12.72 4.21017 14.1912L8.72035 20.2043C9.25012 20.9105 10.093 21.332 10.9749 21.332C11.8569 21.332 12.6997 20.9105 13.2295 20.2042L17.7397 14.1912C18.8432 12.72 19.4264 10.9679 19.4264 9.12434ZM16.2372 13.0642L11.7272 19.0772C11.5475 19.3166 11.2734 19.4539 10.9749 19.4539C10.6765 19.4539 10.4023 19.3166 10.2227 19.0773L5.71261 13.0642C4.85492 11.9207 4.40155 10.5583 4.40155 9.12434C4.40155 5.49978 7.35036 2.55096 10.9749 2.55096C14.5995 2.55096 17.5483 5.49978 17.5483 9.12434C17.5483 10.5583 17.0949 11.9207 16.2372 13.0642Z" fill="url(#paint1_linear_10799_5920)"/>
<path d="M15.6718 23.774C15.6718 23.2554 15.2514 22.835 14.7327 22.835H7.2203C6.70166 22.835 6.28125 23.2554 6.28125 23.774C6.28125 24.2927 6.70166 24.7131 7.2203 24.7131H14.7327C15.2514 24.7131 15.6718 24.2927 15.6718 23.774Z" fill="url(#paint2_linear_10799_5920)"/>
</g>
<defs>
<linearGradient id="paint0_linear_10799_5920" x1="8.16016" y1="9.12478" x2="13.7945" y2="9.12478" gradientUnits="userSpaceOnUse">
<stop stop-color="#F2D71A"/>
<stop offset="1" stop-color="#ECB024"/>
</linearGradient>
<linearGradient id="paint1_linear_10799_5920" x1="2.52344" y1="11.0024" x2="19.4264" y2="11.0024" gradientUnits="userSpaceOnUse">
<stop stop-color="#F2D71A"/>
<stop offset="1" stop-color="#ECB024"/>
</linearGradient>
<linearGradient id="paint2_linear_10799_5920" x1="6.28125" y1="23.774" x2="15.6718" y2="23.774" gradientUnits="userSpaceOnUse">
<stop stop-color="#F2D71A"/>
<stop offset="1" stop-color="#ECB024"/>
</linearGradient>
<clipPath id="clip0_10799_5920">
<rect width="24.0398" height="24.0398" fill="white" transform="translate(-1.03516 0.672363)"/>
</clipPath>
</defs>
</svg>
