<svg width="20" height="20" viewBox="0 0 20 20" fill="none" xmlns="http://www.w3.org/2000/svg">
<path d="M2.05128 0C0.918461 0 0 0.918461 0 2.05128V7.17949C0 8.31231 0.918461 9.23077 2.05128 9.23077H7.17949C8.31231 9.23077 9.23077 8.31231 9.23077 7.17949V2.05128C9.23077 0.918461 8.31231 0 7.17949 0H2.05128Z" fill="white"/>
<path d="M2.05128 10.769C0.918461 10.769 0 11.6875 0 12.8203V17.9485C0 19.0814 0.918461 19.9998 2.05128 19.9998H7.17949C8.31231 19.9998 9.23077 19.0814 9.23077 17.9485V12.8203C9.23077 11.6875 8.31231 10.769 7.17949 10.769H2.05128Z" fill="white"/>
<path d="M12.8208 0C11.688 0 10.7695 0.918462 10.7695 2.05128V7.17949C10.7695 8.31231 11.688 9.23077 12.8208 9.23077H17.949C19.0818 9.23077 20.0003 8.31231 20.0003 7.17949V2.05128C20.0003 0.918462 19.0818 0 17.949 0H12.8208Z" fill="white"/>
<path d="M12.8208 10.769C11.688 10.769 10.7695 11.6875 10.7695 12.8203V17.9485C10.7695 19.0814 11.688 19.9998 12.8208 19.9998H17.949C19.0818 19.9998 20.0003 19.0814 20.0003 17.9485V12.8203C20.0003 11.6875 19.0818 10.769 17.949 10.769H12.8208Z" fill="#1A1A1A" fill-opacity="0.5"/>
<path d="M14.6671 18.0671V16.4369H13.0278V15.187H14.6671V13.5568H15.9532V15.187H17.5925V16.4369H15.9532V18.0671H14.6671Z" fill="white"/>
</svg>
