<svg width="140" height="99" viewBox="0 0 140 99" fill="none" xmlns="http://www.w3.org/2000/svg">
<path d="M65.4467 48.4083L63.7124 46.29L73.2864 38.4517L63.7124 30.6133L65.4467 28.495L77.6081 38.4517L65.4467 48.4083ZM87.0143 51.936V25.1065C87.0143 22.8422 85.1721 21 82.9078 21H56.0783C53.814 21 51.9788 22.8422 51.9788 25.1065V51.936C51.9788 54.2004 53.8139 56.0426 56.0783 56.0426H82.9077C85.1721 56.0426 87.0143 54.2004 87.0143 51.936ZM82.9078 23.7377C83.6626 23.7377 84.2837 24.3518 84.2837 25.1065V51.936C84.2837 52.6908 83.6626 53.3049 82.9078 53.3049H56.0783C55.3235 53.3049 54.7095 52.6908 54.7095 51.936V25.1065C54.7095 24.3518 55.3235 23.7377 56.0783 23.7377H82.9078Z" fill="#9090AA"/>
<path d="M43.5449 77.5164C42.8786 77.5164 42.2816 77.4082 41.7538 77.1919C41.226 76.9756 40.802 76.6555 40.4819 76.2315C40.1704 75.8075 40.006 75.297 39.9887 74.7H42.3508C42.3855 75.0375 42.5023 75.297 42.7013 75.4787C42.9003 75.6518 43.1599 75.7383 43.48 75.7383C43.8088 75.7383 44.0684 75.6648 44.2587 75.5177C44.4491 75.3619 44.5442 75.1499 44.5442 74.8817C44.5442 74.6567 44.4664 74.4707 44.3106 74.3236C44.1635 74.1765 43.9775 74.0554 43.7525 73.9602C43.5362 73.865 43.2247 73.7569 42.8181 73.6357C42.2297 73.454 41.7495 73.2723 41.3774 73.0906C41.0054 72.9089 40.6852 72.6407 40.417 72.286C40.1488 71.9312 40.0147 71.4683 40.0147 70.8972C40.0147 70.0493 40.3218 69.3874 40.9362 68.9115C41.5505 68.427 42.3508 68.1847 43.3372 68.1847C44.3409 68.1847 45.1499 68.427 45.7642 68.9115C46.3786 69.3874 46.7074 70.0536 46.7506 70.9102H44.3496C44.3323 70.616 44.2241 70.3867 44.0251 70.2223C43.8261 70.0493 43.5708 69.9628 43.2594 69.9628C42.9911 69.9628 42.7748 70.0363 42.6104 70.1834C42.446 70.3218 42.3638 70.5252 42.3638 70.7934C42.3638 71.0876 42.5023 71.3169 42.7791 71.4813C43.056 71.6457 43.4886 71.8231 44.077 72.0134C44.6654 72.2124 45.1413 72.4028 45.5047 72.5845C45.8767 72.7662 46.1969 73.0301 46.4651 73.3762C46.7333 73.7223 46.8674 74.1679 46.8674 74.713C46.8674 75.2321 46.7333 75.7037 46.4651 76.1277C46.2055 76.5516 45.8248 76.8891 45.323 77.14C44.8211 77.3909 44.2284 77.5164 43.5449 77.5164ZM50.1281 70.0926V71.9355H53.1003V73.6487H50.1281V75.6475H53.4896V77.4255H47.9088V68.3145H53.4896V70.0926H50.1281ZM56.8254 70.0926V71.9355H59.7975V73.6487H56.8254V75.6475H60.1869V77.4255H54.606V68.3145H60.1869V70.0926H56.8254ZM74.0472 68.3145V77.4255H71.8279V71.9615L69.7902 77.4255H67.9991L65.9485 71.9485V77.4255H63.7291V68.3145H66.3508L68.9076 74.6221L71.4385 68.3145H74.0472ZM79.6277 77.5164C78.7711 77.5164 77.9837 77.3174 77.2655 76.9194C76.556 76.5214 75.9893 75.9676 75.5653 75.2581C75.15 74.5399 74.9423 73.7353 74.9423 72.844C74.9423 71.9528 75.15 71.1525 75.5653 70.443C75.9893 69.7335 76.556 69.1797 77.2655 68.7817C77.9837 68.3837 78.7711 68.1847 79.6277 68.1847C80.4843 68.1847 81.2673 68.3837 81.9768 68.7817C82.695 69.1797 83.2574 69.7335 83.664 70.443C84.0794 71.1525 84.287 71.9528 84.287 72.844C84.287 73.7353 84.0794 74.5399 83.664 75.2581C83.2487 75.9676 82.6863 76.5214 81.9768 76.9194C81.2673 77.3174 80.4843 77.5164 79.6277 77.5164ZM79.6277 75.4917C80.3545 75.4917 80.9342 75.2494 81.3668 74.7649C81.8081 74.2804 82.0287 73.6401 82.0287 72.844C82.0287 72.0394 81.8081 71.3991 81.3668 70.9232C80.9342 70.4387 80.3545 70.1964 79.6277 70.1964C78.8922 70.1964 78.3038 70.4343 77.8626 70.9102C77.4299 71.3861 77.2136 72.0307 77.2136 72.844C77.2136 73.6487 77.4299 74.2933 77.8626 74.7779C78.3038 75.2538 78.8922 75.4917 79.6277 75.4917ZM89.8436 77.4255L87.9487 73.9862H87.4166V77.4255H85.1973V68.3145H88.9222C89.6403 68.3145 90.2503 68.4399 90.7522 68.6909C91.2626 68.9418 91.6434 69.2879 91.8943 69.7292C92.1452 70.1618 92.2707 70.6463 92.2707 71.1828C92.2707 71.7884 92.0976 72.3292 91.7515 72.8051C91.4141 73.281 90.9122 73.6184 90.246 73.8175L92.3485 77.4255H89.8436ZM87.4166 72.4157H88.7924C89.199 72.4157 89.5019 72.3162 89.7009 72.1172C89.9085 71.9182 90.0124 71.637 90.0124 71.2736C90.0124 70.9275 89.9085 70.655 89.7009 70.456C89.5019 70.257 89.199 70.1575 88.7924 70.1575H87.4166V72.4157ZM95.5587 70.0926V71.9355H98.5309V73.6487H95.5587V75.6475H98.9202V77.4255H93.3394V68.3145H98.9202V70.0926H95.5587Z" fill="#9090AA"/>
</svg>
