<svg xmlns="http://www.w3.org/2000/svg" width="21" height="21" viewBox="0 0 21 21" fill="none">
<path d="M11.4384 10.3335L20.1047 1.66721C20.4098 1.3621 20.4098 0.867411 20.1047 0.562334C19.7996 0.257256 19.3049 0.257217 18.9998 0.562334L10.3335 9.22865L1.66721 0.562334C1.3621 0.257217 0.867411 0.257217 0.562334 0.562334C0.257256 0.86745 0.257217 1.36214 0.562334 1.66721L9.22861 10.3335L0.562334 18.9998C0.257217 19.3049 0.257217 19.7996 0.562334 20.1047C0.714872 20.2572 0.914833 20.3335 1.11479 20.3335C1.31475 20.3335 1.51468 20.2572 1.66725 20.1047L10.3335 11.4384L18.9998 20.1047C19.1523 20.2572 19.3523 20.3335 19.5522 20.3335C19.7522 20.3335 19.9521 20.2572 20.1047 20.1047C20.4098 19.7996 20.4098 19.3049 20.1047 18.9998L11.4384 10.3335Z" fill="#ffffff"/>
</svg>