<?xml version="1.0" encoding="iso-8859-1"?>
<!-- Generator: Adobe Illustrator 19.0.0, SVG Export Plug-In . SVG Version: 6.00 Build 0)  -->
<svg version="1.1" id="Layer_1" xmlns="http://www.w3.org/2000/svg" xmlns:xlink="http://www.w3.org/1999/xlink" x="0px" y="0px"
	 viewBox="0 0 512 512" style="enable-background:new 0 0 512 512;" xml:space="preserve">
<path style="fill:#80D0E1;" d="M387.216,240.042v255.555c0,13.688-15.784,21.334-26.525,12.837l-94.556-74.712
	c-5.973-4.694-14.33-4.693-20.303,0l-94.556,74.712c-10.741,8.498-26.525,0.851-26.525-12.837V240.042H387.216z"/>
<path style="fill:#48AEE2;" d="M256,240.042v190.16c3.579,0.003,7.16,1.182,10.135,3.52l94.556,74.712
	c10.741,8.498,26.525,0.851,26.525-12.837V240.042H256z"/>
<path style="fill:#FFC72D;" d="M255.984,0C132.665,0,58.387,136.876,124.751,240.05c30.687,47.787,80.963,71.658,131.233,71.653
	c50.288-0.005,100.568-23.902,131.232-71.653C453.748,136.621,379.04,0,255.984,0z"/>
<path style="fill:#FFBE0D;" d="M255.984,0v95.015c33.631,0,60.876,27.245,60.876,60.876s-27.262,60.876-60.876,60.876v94.936
	c50.288-0.005,100.568-23.902,131.232-71.653C453.748,136.621,379.04,0,255.984,0z"/>
<path style="fill:#FFE49C;" d="M255.984,95.015c-33.631,0-60.876,27.245-60.876,60.876s27.262,60.876,60.876,60.876
	s60.876-27.245,60.876-60.876S289.615,95.015,255.984,95.015z"/>
<path style="fill:#FFC72D;" d="M255.984,95.015v121.752c33.615,0,60.876-27.245,60.876-60.876S289.615,95.015,255.984,95.015z"/>
<g>
</g>
<g>
</g>
<g>
</g>
<g>
</g>
<g>
</g>
<g>
</g>
<g>
</g>
<g>
</g>
<g>
</g>
<g>
</g>
<g>
</g>
<g>
</g>
<g>
</g>
<g>
</g>
<g>
</g>
</svg>
