<svg width="39" height="32" viewBox="0 0 39 32" fill="none" xmlns="http://www.w3.org/2000/svg">
<path fill-rule="evenodd" clip-rule="evenodd" d="M2.75026 13.7725C13.2045 9.21867 20.1927 6.27536 23.6588 4.83147C33.6099 0.721944 35.6784 0 37.0202 0C37.2997 0 37.9706 0.0555346 38.4178 0.388739C38.7532 0.66641 38.865 1.05515 38.9209 1.33282C38.9768 1.61049 39.0327 2.22136 38.9768 2.72117C38.4178 8.33012 36.1257 22.0471 34.8958 28.3224C34.3926 30.9881 33.3863 31.8766 32.4359 31.9877C30.3674 32.1543 28.7462 30.5993 26.7336 29.322C23.6029 27.2673 21.8139 25.99 18.7392 23.9908C15.2171 21.6583 17.5092 20.381 19.5218 18.3263C20.025 17.7709 29.2493 9.49634 29.417 8.71886C29.417 8.60779 29.473 8.27459 29.2493 8.10798C29.0257 7.94138 28.7462 7.99692 28.5226 8.05245C28.1871 8.10799 23.1557 11.44 13.3723 17.9931C11.9187 18.9927 10.6329 19.437 9.45889 19.437C8.17307 19.437 5.71324 18.715 3.86836 18.1041C1.63215 17.3822 -0.156812 16.9934 0.0109036 15.7717C0.178619 15.1053 1.0731 14.4389 2.75026 13.7725Z" fill="white"/>
</svg>
