<svg width="19" height="19" viewBox="0 0 19 19" fill="none" xmlns="http://www.w3.org/2000/svg">
<path d="M16.1689 3.33551C14.5301 1.70288 12.3501 0.803178 10.0299 0.802246C7.71492 0.802246 5.53142 1.70115 3.88188 3.33338C2.22941 4.96841 1.31854 7.14127 1.31641 9.44375V9.44641V9.44801C1.31667 10.8416 1.68281 12.2475 2.37781 13.5307L1.34023 18.2468L6.11063 17.1617C7.31884 17.7706 8.66692 18.0916 10.0266 18.0922H10.03C12.3446 18.0922 14.5281 17.1931 16.1779 15.5608C17.8319 13.9244 18.7432 11.7544 18.7442 9.45041C18.7449 7.1627 17.8304 4.99104 16.1689 3.33551ZM10.0299 16.7307H10.0269C8.806 16.7301 7.59633 16.4236 6.52881 15.844L6.30322 15.7216L3.13111 16.443L3.82013 13.3117L3.6873 13.0826C3.0269 11.9437 2.67793 10.6866 2.67793 9.44655C2.68046 5.4329 5.97821 2.16377 10.0296 2.16377C11.9869 2.16457 13.826 2.92333 15.208 4.30003C16.6109 5.69802 17.3832 7.52697 17.3826 9.45001C17.381 13.4646 14.0826 16.7307 10.0299 16.7307Z" fill="url(#paint0_linear_10799_5875)"/>
<path d="M7.65795 5.63623H7.27598C7.14302 5.63623 6.92714 5.68601 6.74454 5.88471C6.56181 6.08355 6.04688 6.56415 6.04688 7.54157C6.04688 8.519 6.76118 9.46341 6.86073 9.59611C6.96042 9.72867 8.23956 11.7985 10.2655 12.5948C11.9492 13.2565 12.2919 13.1249 12.6573 13.0918C13.0227 13.0588 13.8366 12.6113 14.0027 12.1475C14.1688 11.6836 14.1688 11.286 14.119 11.2029C14.0691 11.1201 13.9361 11.0705 13.7369 10.9712C13.5375 10.8718 12.5606 10.3831 12.3779 10.3167C12.1952 10.2505 12.0624 10.2174 11.9294 10.4163C11.7964 10.6149 11.405 11.0744 11.2887 11.2069C11.1725 11.3396 11.0562 11.3562 10.8568 11.2568C10.6574 11.1571 10.0221 10.9437 9.26064 10.267C8.66798 9.74038 8.25673 9.0688 8.14041 8.86996C8.02422 8.67125 8.12803 8.56371 8.22798 8.46456C8.31755 8.37566 8.43853 8.25401 8.53822 8.13809C8.63777 8.02203 8.66612 7.93925 8.73266 7.80669C8.79908 7.67413 8.7658 7.55807 8.71603 7.45879C8.66612 7.35937 8.28361 6.37702 8.10633 5.98413H8.10647C7.95714 5.65327 7.79996 5.64209 7.65795 5.63623Z" fill="url(#paint1_linear_10799_5875)"/>
<defs>
<linearGradient id="paint0_linear_10799_5875" x1="1.31641" y1="9.52454" x2="18.7443" y2="9.52454" gradientUnits="userSpaceOnUse">
<stop stop-color="#F2D71A"/>
<stop offset="1" stop-color="#ECB024"/>
</linearGradient>
<linearGradient id="paint1_linear_10799_5875" x1="6.04688" y1="9.38046" x2="14.148" y2="9.38046" gradientUnits="userSpaceOnUse">
<stop stop-color="#F2D71A"/>
<stop offset="1" stop-color="#ECB024"/>
</linearGradient>
</defs>
</svg>
