<svg width="13" height="13" viewBox="0 0 13 13" fill="none" xmlns="http://www.w3.org/2000/svg">
<path id="Vector" fill-rule="evenodd" clip-rule="evenodd" d="M10.8991 2.00635C9.74273 0.850027 8.20391 0.211548 6.56505 0.211548C3.18729 0.211548 0.442121 2.95966 0.439179 6.33448C0.439179 7.4143 0.72164 8.46764 1.25714 9.39447L0.38916 12.5692L3.63746 11.7189C4.53192 12.2073 5.53819 12.4633 6.56505 12.4633H6.56799C9.94281 12.4633 12.6909 9.71518 12.6939 6.34036C12.6939 4.7015 12.0554 3.16268 10.8991 2.00635ZM6.56799 11.4276C5.65294 11.4276 4.75553 11.1804 3.97582 10.7185L3.79046 10.6096L1.86325 11.1157L2.37816 9.23853L2.25752 9.04728C1.7485 8.23814 1.47781 7.29955 1.47781 6.33742C1.47781 3.53046 3.76398 1.24724 6.57093 1.24724C7.93028 1.24724 9.21018 1.77685 10.1694 2.73898C11.1315 3.70112 11.6611 4.98102 11.6582 6.34036C11.6552 9.14437 9.372 11.4276 6.56799 11.4276ZM9.36024 7.61732C9.20724 7.54082 8.45401 7.17009 8.31572 7.12007C8.17449 7.07005 8.07445 7.04357 7.97147 7.19657C7.86849 7.34957 7.5772 7.69382 7.48599 7.7968C7.39772 7.89978 7.30651 7.91155 7.15351 7.83505C7.00051 7.75855 6.5062 7.59672 5.92363 7.07594C5.46757 6.6699 5.16157 6.16971 5.0733 6.01671C4.98503 5.86371 5.06448 5.78132 5.14098 5.70482C5.20865 5.63715 5.29398 5.52534 5.37048 5.43707C5.44698 5.3488 5.47346 5.28407 5.52347 5.18109C5.57349 5.07811 5.54996 4.98984 5.51171 4.91334C5.47346 4.83684 5.16746 4.08362 5.04094 3.77762C4.91736 3.48044 4.79084 3.51869 4.69669 3.51575C4.60842 3.50987 4.50544 3.50987 4.40246 3.50987C4.29948 3.50987 4.13471 3.54812 3.99348 3.70112C3.85225 3.85412 3.45798 4.22485 3.45798 4.97808C3.45798 5.7313 4.00525 6.45805 4.08175 6.56103C4.15825 6.66401 5.16157 8.20872 6.69745 8.87074C7.0623 9.02962 7.3477 9.12378 7.57132 9.19439C7.9391 9.31208 8.27158 9.29443 8.53639 9.25618C8.83062 9.21205 9.44262 8.88545 9.56914 8.52943C9.69566 8.17341 9.69566 7.86447 9.65741 7.80268C9.61327 7.73207 9.51324 7.69382 9.36024 7.61732Z" fill="white"/>
</svg>
