<svg width="34" height="34" viewBox="0 0 34 34" fill="none" xmlns="http://www.w3.org/2000/svg">
<path fill-rule="evenodd" clip-rule="evenodd" d="M29.046 4.94069C25.8503 1.75623 21.6 0.00161566 17.0714 0C7.73982 0 0.145299 7.55727 0.142052 16.8465C0.140428 19.8161 0.920499 22.7146 2.4019 25.269L0 34L8.97445 31.6573C11.4469 32.9999 14.2312 33.7067 17.0641 33.7076H17.0714C26.4014 33.7076 33.9968 26.1495 34 16.8602C34.0016 12.3582 32.2426 8.12598 29.046 4.9415V4.94069ZM24.7893 20.3751C24.3664 20.1643 22.2868 19.1464 21.8987 19.0059C21.5108 18.8653 21.2291 18.795 20.9474 19.2167C20.6658 19.6384 19.8549 20.5868 19.6081 20.8671C19.3613 21.1482 19.1145 21.183 18.6916 20.9721C18.2688 20.7612 16.9058 20.3169 15.2897 18.883C14.0324 17.7666 13.1832 16.3885 12.9365 15.9668C12.6897 15.5451 12.9106 15.3173 13.1215 15.1081C13.3115 14.919 13.5445 14.6161 13.7563 14.3705C13.9682 14.1249 14.038 13.9489 14.1792 13.6685C14.3205 13.3874 14.2499 13.1419 14.1444 12.9309C14.0388 12.7201 13.193 10.648 12.8399 9.80544C12.4965 8.9847 12.1475 9.09619 11.8886 9.08245C11.6418 9.07033 11.3602 9.06791 11.0777 9.06791C10.7952 9.06791 10.3373 9.17293 9.94934 9.59462C9.56137 10.0163 8.46875 11.0349 8.46875 13.1062C8.46875 15.1775 9.98429 17.1802 10.1961 17.4613C10.408 17.7424 13.1792 21.994 17.4221 23.8181C18.4311 24.2519 19.2193 24.5112 19.8337 24.7051C20.8468 25.0258 21.7689 24.9806 22.4978 24.8723C23.3104 24.7512 25.0004 23.8537 25.3527 22.8705C25.7049 21.8874 25.7049 21.044 25.5995 20.8687C25.494 20.6934 25.2115 20.5876 24.7886 20.3767L24.7893 20.3751Z" fill="white"/>
</svg>
