<?xml version="1.0" encoding="iso-8859-1"?>
<!-- Generator: Adobe Illustrator 19.0.0, SVG Export Plug-In . SVG Version: 6.00 Build 0)  -->
<svg fill="#ccd6f6" version="1.1" id="Layer_1" xmlns="http://www.w3.org/2000/svg" xmlns:xlink="http://www.w3.org/1999/xlink" x="0px" y="0px"
	 viewBox="0 0 300.165 300.165" style="enable-background:new 0 0 300.165 300.165;" xml:space="preserve">
<g>
	<g>
		<g>
			<path d="M256.95,170.308c-23.852,0-43.215,19.698-43.215,43.885c0,24.187,19.43,43.885,43.215,43.885
				c23.852,0,43.215-19.698,43.215-43.885C300.165,190.006,280.802,170.308,256.95,170.308z M256.95,247.425
				c-17.956,0-32.495-14.874-32.495-33.165c0-18.291,14.606-33.165,32.495-33.165c17.956,0,32.495,14.874,32.495,33.165
				C289.445,232.551,274.839,247.425,256.95,247.425z"/>
			<path d="M257.017,196.304c-9.581,0-17.688,8.174-17.688,17.889c0,2.948,2.412,5.36,5.36,5.36s5.36-2.345,5.36-5.36
				c0-3.752,3.35-7.169,6.968-7.169c2.948,0,5.36-2.412,5.36-5.36S259.965,196.304,257.017,196.304z"/>
			<path d="M43.22,170.308c-23.852,0-43.215,19.698-43.215,43.885c0,24.187,19.43,43.885,43.215,43.885
				c23.785,0,43.215-19.698,43.215-43.885C86.435,190.006,67.072,170.308,43.22,170.308z M43.22,247.425
				c-17.956,0-32.495-14.874-32.495-33.165c0-18.291,14.606-33.165,32.495-33.165c17.889,0,32.495,14.874,32.495,33.165
				C75.715,232.551,61.109,247.425,43.22,247.425z"/>
			<path d="M43.22,196.304c-10.251,0-18.626,8.04-18.626,17.889c0,2.948,2.412,5.36,5.36,5.36s5.36-2.345,5.36-5.36
				c0-4.02,3.484-7.169,7.906-7.169c2.948,0,5.36-2.412,5.36-5.36S46.168,196.304,43.22,196.304z"/>
			<path d="M284.554,104.715l-28.341-59.563c-1.206-2.479-4.02-3.685-6.633-2.747l-18.894,6.767
				c-2.814,1.005-4.288,4.02-3.283,6.834s4.02,4.288,6.834,3.283l14.338-5.092l26.264,55.275c0.067,0.067,0.067,0.134,0.134,0.201
				c5.226,9.849,1.474,22.11-8.241,27.47l-103.046,56.749c-6.164,3.082-12.663,2.814-18.291-0.737c-0.067,0-0.067-0.067-0.134-0.067
				L24.795,121.264h59.027c2.814,0,5.561,0.67,7.37,1.943c0.201,0.134,0.402,0.268,0.67,0.402l15.745,7.571
				c4.154,2.613,9.916,3.551,14.003,3.551h28.408c8.04,0,15.946-3.417,21.775-9.313l0.067-0.067l24.589-25.929
				c3.752-3.752,9.045-6.03,14.137-6.03h28.408c2.948,0,5.36-2.412,5.36-5.36c0-2.948-2.412-5.36-5.36-5.36h-28.408
				c-8.04,0-15.946,3.417-21.775,9.313l-0.067,0.067l-24.522,25.929c-3.752,3.819-9.045,6.097-14.137,6.097h-28.408
				c-3.082,0-6.633-0.804-8.308-1.943c-0.201-0.134-0.402-0.268-0.67-0.402l-15.745-7.571c-3.618-2.278-8.174-3.551-13.065-3.551
				H5.365c-2.412,0-4.489,1.608-5.159,3.953c-0.67,2.345,0.335,4.824,2.412,6.03L139.7,202.401
				c4.757,3.015,10.05,4.556,15.343,4.556c4.556,0,9.179-1.139,13.668-3.618c0,0,0.067-0.067,0.134-0.067l103.113-56.816
				C286.765,138.349,292.393,119.656,284.554,104.715z"/>
			<path d="M294.805,54.867c-2.948,0-5.36,2.412-5.36,5.36v12.529c0,2.948,2.412,5.36,5.36,5.36s5.36-2.412,5.36-5.36V60.227
				C300.165,57.279,297.753,54.867,294.805,54.867z"/>
		</g>
	</g>
</g>
<g>
</g>
<g>
</g>
<g>
</g>
<g>
</g>
<g>
</g>
<g>
</g>
<g>
</g>
<g>
</g>
<g>
</g>
<g>
</g>
<g>
</g>
<g>
</g>
<g>
</g>
<g>
</g>
<g>
</g>
</svg>
