<?xml version="1.0" encoding="utf-8"?>
<!-- Generator: Adobe Illustrator 23.1.0, SVG Export Plug-In . SVG Version: 6.00 Build 0)  -->
<svg version="1.1" id="Layer_1" xmlns="http://www.w3.org/2000/svg" xmlns:xlink="http://www.w3.org/1999/xlink" x="0px" y="0px"
	 viewBox="0 0 339.516 429.447" enable-background="new 0 0 339.516 429.447" xml:space="preserve">
<g>
	<g>
		<linearGradient id="SVGID_1_" gradientUnits="userSpaceOnUse" x1="76.182" y1="110.7634" x2="243.2099" y2="277.7913">
			<stop  offset="0" style="stop-color:#FCC32B"/>
			<stop  offset="0.3089" style="stop-color:#FEE882"/>
			<stop  offset="0.6492" style="stop-color:#FCC32B"/>
			<stop  offset="1" style="stop-color:#FEE882"/>
		</linearGradient>
		<path fill="url(#SVGID_1_)" d="M90.394,129.322c0,0,1.375-5.864,6.934-5.361c0,0,3.542,2.432,13.677,6.227l0.893,1.156
			c0,0,1.351,2.464,7.276,18.008l16.751,46.502c0,0,7.739-0.26,27.339-8.582c0,0,37.172-15.446,53-21.959
			c0,0,12.34-5.294,20.972-4.398c0.08,0.087,6.28,0.113,9.721,5.409c2.964,2.878,2.022,18.377,2.022,18.377s-1.961-4.208-6.8-5.452
			c-0.582-0.067-4.098-0.524-11.511,2.068l-17.005,5.947l-19.316,7.734l-22.085,8.212c0,0-6.104,2.135-15.261,5.337l-7.848,2.745
			c0,0,11.246,9.769,15.975,13.498c4.729,3.729,25.15,21.544,25.15,21.544l22.796,20.41c0,0,26.675,25.905,26.761,31.747
			c0,0,0.479,2.769-5.342,4.315c0,0-5.487,0.417-9.999-0.023c-1.148-0.112-2.191-0.711-2.891-1.627
			c-2.104-2.756-6.771-8.803-8.47-10.454l-13.054-13.541l-18.22-17.117l-25.019-22.569l-7.388-5.735
			c0,0,20.172,50.689,18.886,52.607c0,0,0.61,1.744-3.162,3.552c0,0-6.824,2.876-12.709,0.04c0,0-6.8-5.452-10.657-9.486
			c-4.451-4.478-9.082-9.235-11.551-10.641c-1.738-1.435-7.367-4.275-7.367-4.275s-4.085-2-4.644,2.113
			c-0.095,0.772,0.121,1.503,0.762,2.18c0,0-3.226-0.829-5.623-4.885c0,0-3.748-6.519,0.853-11.553c0,0,2.857-4.424,11.489-3.528
			c4.081,0.951,11.542,3.732,18.046,15.221l-14.9-39.809l-3.333-8.132c0,0-1.461,0.021-6.3-1.222c0,0-6.147-0.786-8.413-5.866
			c0,0-3.595-6.083-0.281-9.199l2.616-0.915l1.461-0.021l3.379,1.265l-11.829-29.628L90.394,129.322z"/>
	</g>
</g>
<g>
	<g opacity="0.36">
		<g>
			<linearGradient id="SVGID_2_" gradientUnits="userSpaceOnUse" x1="179.2032" y1="-46.5246" x2="346.2311" y2="120.5033">
				<stop  offset="0" style="stop-color:#FCC32B"/>
				<stop  offset="0.3089" style="stop-color:#FEE882"/>
				<stop  offset="0.6492" style="stop-color:#FCC32B"/>
				<stop  offset="1" style="stop-color:#FEE882"/>
			</linearGradient>
			<path fill="url(#SVGID_2_)" d="M193.416-27.966c0,0,1.375-5.864,6.934-5.361c0,0,3.542,2.432,13.677,6.227l0.893,1.156
				c0,0,1.351,2.464,7.276,18.008l16.751,46.502c0,0,7.739-0.26,27.339-8.582c0,0,37.172-15.446,53-21.959
				c0,0,12.34-5.294,20.972-4.398c0.08,0.087,6.28,0.113,9.721,5.409c2.964,2.878,2.022,18.377,2.022,18.377s-1.961-4.208-6.8-5.452
				c-0.582-0.067-4.098-0.524-11.511,2.068l-17.005,5.947l-19.316,7.734l-22.085,8.212c0,0-6.104,2.135-15.261,5.337l-7.848,2.745
				c0,0,11.246,9.769,15.975,13.498c4.729,3.729,25.15,21.544,25.15,21.544l22.796,20.41c0,0,26.675,25.905,26.761,31.747
				c0,0,0.479,2.769-5.342,4.315c0,0-5.487,0.417-9.999-0.023c-1.148-0.112-2.191-0.711-2.891-1.627
				c-2.104-2.756-6.771-8.803-8.47-10.454l-13.054-13.541l-18.22-17.117l-25.019-22.569l-7.388-5.735
				c0,0,20.172,50.689,18.886,52.607c0,0,0.61,1.744-3.162,3.552c0,0-6.824,2.876-12.709,0.04c0,0-6.8-5.452-10.657-9.486
				c-4.451-4.478-9.082-9.235-11.551-10.641c-1.738-1.435-7.367-4.275-7.367-4.275s-4.085-2-4.644,2.113
				c-0.095,0.772,0.121,1.503,0.762,2.18c0,0-3.226-0.829-5.623-4.885c0,0-3.748-6.519,0.853-11.553c0,0,2.857-4.424,11.489-3.528
				c4.081,0.951,11.542,3.732,18.046,15.221l-14.9-39.809l-3.333-8.132c0,0-1.461,0.021-6.3-1.222c0,0-6.147-0.786-8.413-5.866
				c0,0-3.595-6.083-0.281-9.199l2.616-0.915l1.461-0.021l3.379,1.265l-11.829-29.628L193.416-27.966z"/>
		</g>
	</g>
	<g opacity="0.36">
		<g>
			<linearGradient id="SVGID_3_" gradientUnits="userSpaceOnUse" x1="-26.8393" y1="270.5818" x2="140.1886" y2="437.6097">
				<stop  offset="0" style="stop-color:#FCC32B"/>
				<stop  offset="0.3089" style="stop-color:#FEE882"/>
				<stop  offset="0.6492" style="stop-color:#FCC32B"/>
				<stop  offset="1" style="stop-color:#FEE882"/>
			</linearGradient>
			<path fill="url(#SVGID_3_)" d="M-12.627,289.141c0,0,1.375-5.864,6.934-5.361c0,0,3.542,2.432,13.677,6.227l0.893,1.156
				c0,0,1.351,2.464,7.276,18.008l16.751,46.502c0,0,7.739-0.259,27.339-8.582c0,0,37.172-15.446,53-21.959
				c0,0,12.34-5.294,20.972-4.398c0.08,0.086,6.28,0.113,9.721,5.409c2.964,2.878,2.022,18.377,2.022,18.377s-1.961-4.208-6.8-5.452
				c-0.582-0.067-4.098-0.524-11.511,2.068l-17.005,5.947l-19.316,7.734l-22.085,8.212c0,0-6.104,2.135-15.261,5.337l-7.848,2.745
				c0,0,11.246,9.769,15.975,13.498s25.15,21.544,25.15,21.544l22.796,20.41c0,0,26.675,25.905,26.761,31.747
				c0,0,0.479,2.769-5.342,4.315c0,0-5.487,0.417-9.998-0.023c-1.148-0.112-2.191-0.711-2.891-1.627
				c-2.104-2.756-6.771-8.803-8.47-10.454L97.059,436.98l-18.22-17.117l-25.019-22.569l-7.388-5.735
				c0,0,20.172,50.689,18.886,52.607c0,0,0.61,1.744-3.162,3.552c0,0-6.824,2.876-12.709,0.04c0,0-6.8-5.452-10.657-9.486
				c-4.451-4.478-9.082-9.235-11.551-10.641c-1.738-1.435-7.367-4.275-7.367-4.275s-4.085-2-4.644,2.113
				c-0.095,0.772,0.121,1.503,0.762,2.18c0,0-3.226-0.829-5.623-4.885c0,0-3.748-6.519,0.853-11.553c0,0,2.857-4.424,11.489-3.528
				c4.081,0.951,11.542,3.732,18.046,15.221l-14.9-39.809l-3.333-8.132c0,0-1.461,0.021-6.3-1.222c0,0-6.147-0.786-8.413-5.866
				c0,0-3.595-6.083-0.281-9.199l2.616-0.915l1.461-0.021l3.379,1.265L3.156,329.376L-12.627,289.141z"/>
		</g>
	</g>
</g>
</svg>
